<svg version="1.1" xmlns="http://www.w3.org/2000/svg" xmlns:xlink="http://www.w3.org/1999/xlink" width="163.20622" height="155.76589" viewBox="0,0,163.20622,155.76589"><g transform="translate(-150.87873,-30.99395)"><g data-paper-data="{&quot;isPaintingLayer&quot;:true}" fill-rule="nonzero" stroke="none" stroke-width="0.5" stroke-linecap="butt" stroke-linejoin="miter" stroke-miterlimit="10" stroke-dasharray="" stroke-dashoffset="0" style="mix-blend-mode: normal"><g><path d="M208.60692,52.99986c-0.57821,-2.70027 -1.50069,-5.35284 -2.75535,-7.81283c0,0 -0.0639,-0.12779 -0.14551,-0.34877c-0.99565,-0.88191 -2.03786,-2.47059 -1.00051,-4.89106c1.7249,-4.02475 5.74965,-2.29985 5.74965,-2.29985l3.44485,1.48143c8.01865,3.04808 15.29697,8.42851 20.21821,15.60934c1.15084,1.67925 2.13311,3.48018 2.97485,5.33378c0.55029,1.2118 0.32837,4.27208 1.52522,3.68993c6.70812,-3.26287 13.11113,-8.33289 20.06256,-11.48688c4.73208,-2.14703 10.10299,-4.03301 14.4484,1.56621c1.53093,1.97266 0.22404,4.99379 0.14731,7.48965c-0.15166,4.93254 -1.54619,9.47238 -1.58903,14.40578c1.22209,3.75918 6.76927,12.8564 11.55104,12.93795c3.31561,0.05654 7.83997,-2.7224 10.62298,-4.17504c3.69894,-1.93072 11.07164,-7.34245 15.45004,-1.80631c3.64166,4.60457 -4.1833,11.73561 -5.66057,14.9615c-1.30908,2.85864 -0.42187,9.25124 -0.25985,12.29328c0.4858,9.12153 -0.36719,18.20622 2.88941,26.83973c2.20905,7.3635 5.55176,14.23513 3.74158,22.13499c-3.77105,16.45738 -17.3316,17.24749 -31.15381,15.79259c-5.21503,-0.54892 -11.35593,-0.07466 -16.0034,-3.3058c-5.06272,-3.51982 -6.85557,-9.50921 -9.31862,-14.74968c-2.79448,-5.94557 -6.1647,-11.36083 -10.09184,-16.60987c-5.8434,-10.47912 -12.9218,-20.75217 -17.50204,-31.8574c-3.10813,-7.53595 -4.61489,-15.46958 -6.89069,-23.24326c-2.54417,-8.69034 -7.04137,-16.66947 -10.70061,-24.89415c0,0 -1.26727,-2.85139 0.74473,-4.80992z" fill="#858585"/><path d="M256.19829,151.72531c2.59232,5.01434 10.88621,11.54186 6.28395,18.25451c-1.53389,2.23729 -5.16982,1.71959 -7.84716,2.15558c-9.34528,1.52183 -20.37458,0.0332 -29.86018,-0.01944c-6.36439,1.44762 -12.33567,5.52295 -18.76268,6.23498c-6.53963,0.7245 -15.91536,-1.53664 -21.65327,-4.64749c-7.26381,-3.93815 -12.2695,-11.40017 -13.19537,-19.5188c-0.19025,-1.66818 0.27187,-6.98084 -0.36092,-9.05028c-1.65539,-5.41379 -5.01488,-11.25641 -7.87453,-16.13929c-0.90389,-1.54339 -2.42694,-2.82329 -2.81194,-4.56996c-0.04209,-0.19093 -0.08038,-0.38237 -0.11518,-0.57427l-0.08973,0.02693l-1.52743,-5.09146c-0.13886,-0.42688 -0.21391,-0.88254 -0.21391,-1.35573c0,-2.41834 1.96046,-4.37879 4.3788,-4.37879c0.66714,0 1.29944,0.14919 1.86534,0.41604l4.58309,2.03693l-0.00077,0.00173c1.57288,0.70874 3.87543,2.58351 4.71819,1.19555c0.97412,-1.60427 -1.14982,-7.57619 -1.77462,-9.14962c-4.09258,-10.91352 -8.67295,-18.82022 -2.36753,-30.04395c3.05677,-5.44111 3.28467,-8.42632 11.492,-7.43689c6.07684,0.73259 8.40983,9.85761 14.48109,10.30064c3.94749,0.28805 4.78566,-3.08523 6.32004,-5.67396c2.30768,-3.89338 5.07117,-7.02714 7.09933,-11.11532c0,0 -3.23067,-11.69992 0.68585,-9.74167c1.41838,0.70919 37.56402,80.50709 46.54755,97.88402z" fill="#858585"/><path d="M281.00658,84.21282c0.32924,-0.08424 0.68852,-0.19849 1.08047,-0.34398zM280.99316,84.21624c0.07608,-0.07524 3.57294,-3.49561 7.0698,0.00126c3.53553,3.53553 0,7.07107 0,7.07107l-2.81362,2.0671c-2.80985,0.87967 -4.49917,1.78002 -7.62858,1.03557c-2.01495,-0.47934 -4.07526,-1.14156 -5.74505,-2.36696c-7.38693,-5.42104 -2.8125,-16.2569 -5.04421,-23.51892c0,0 -1.37361,-4.80762 3.43401,-6.18123c4.80762,-1.3736 6.18123,3.43401 6.18123,3.43401c1.2239,4.49826 1.12694,8.75582 1.0516,13.40269c-0.0617,3.80556 0.27355,5.87359 3.49481,5.05541z" fill="#545454"/><g fill="#545454"><path d="M195.75794,87.5624c-4.21113,0 -4.37237,-4.04988 -4.37855,-4.36002c-3.17574,-2.41624 -6.92162,-4.57187 -9.6145,-7.30037c-1.00961,-1.02298 -2.05441,-2.11136 -2.75165,-3.36697c-0.80668,0.69082 -1.78624,1.2357 -2.59255,1.92683c-7.82581,7.38846 -2.59819,18.83135 0.16163,27.63698c0.76663,2.44603 3.27933,9.71162 2.13841,12.28427c-4.83556,10.90367 -6.43726,6.88354 -12.67128,2.84198c-0.13075,-0.08477 -1.27097,-0.59981 -2.57167,-1.24889c0.31601,0.5099 0.59475,0.99643 0.81456,1.38805c4.30213,7.6646 5.82454,16.09542 6.77966,24.73111c-0.05939,15.13096 11.58282,29.17797 26.94405,31.72356c9.91398,1.64291 20.81084,-1.54605 29.93251,-4.96668c0,0 4.1,-1.5375 5.6375,2.56249c1.5375,4.09999 -2.5625,5.6375 -2.5625,5.6375c-10.52421,3.94657 -22.99832,7.32111 -34.41031,5.4112c-19.27961,-3.22663 -34.21666,-20.69648 -34.28544,-39.88378c-1.0797,-9.66403 -3.91141,-16.2756 -8.08902,-24.79054c-1.1818,-2.40878 -4.23523,-4.98076 -3.11871,-7.42047c2.78209,-6.07915 10.78027,-4.92168 15.16349,-3.21703c0.91611,0.35627 2.13966,0.94591 3.20271,1.65517c-0.80088,-2.83089 -1.879,-5.93586 -2.78932,-8.67165c-3.84537,-11.55658 -5.17822,-22.81818 3.77339,-32.09889c1.90228,-1.6305 8.552,-7.64882 10.4222,-7.33617c2.64849,0.44277 3.46853,4.10176 5.12551,6.2148c3.47591,4.43257 8.268,7.17075 12.58959,10.86852l1.52911,5.40022c0,0 0,4.3788 -4.3788,4.3788zM191.78087,83.51175l1.12739,0.92089c-0.36397,-0.31256 -0.74079,-0.61898 -1.12739,-0.92089z"/><path d="M239.16599,69.83498c-4.29377,0.85876 -5.15251,-3.43501 -5.15251,-3.43501l-0.57714,-2.96967c-0.63267,-6.14706 -2.73777,-9.57664 -6.75602,-14.23847c-3.5365,-4.17697 -7.75319,-7.6756 -13.26054,-8.96883c-0.10899,-0.02559 -2.31539,-0.02215 -4.42424,-0.23614c0.57238,0.70854 1.07642,1.45462 1.41052,2.0211c2.76043,4.68037 2.8854,5.44945 3.21523,10.83765c0.84369,13.78318 -3.21088,25.02554 -15.02367,32.49453c0,0 -3.71322,2.32077 -6.03396,-1.39245c-2.32076,-3.71322 1.39245,-6.03397 1.39245,-6.03397c9.1966,-5.66644 13.71039,-17.445 10.57472,-28.25581c-0.90302,-3.11333 -8.54495,-10.51246 -7.90617,-12.83836c1.7134,-6.23868 8.98647,-5.94827 13.3856,-5.74627c9.57298,0.43956 17.20848,5.36112 23.31935,12.41918c5.13137,6.01588 7.88203,11.0742 8.81079,18.97073l0.46065,2.21928c0,0 0.85876,4.29376 -3.43501,5.15251z"/><path d="M273.55665,72.48771c-4.35202,0.48356 -4.83558,-3.86846 -4.83558,-3.86846l-0.53898,-4.91146c0,-1.51074 -0.13224,-6.45382 0.26731,-9.068c-2.46519,0.29505 -6.53402,0.12807 -8.16938,0.57865c-6.34591,1.74846 -11.62641,6.65255 -15.2963,11.83011c0,0 -2.54513,3.56317 -6.1083,1.01805c-3.56317,-2.54514 -1.01806,-6.1083 -1.01806,-6.1083c6.38063,-8.87474 15.00364,-14.65513 25.9588,-15.82208c2.81385,-0.29974 11.81626,-1.5104 13.55359,0.39466c1.478,1.6207 -0.44348,13.62272 -0.44348,16.69261l0.49881,4.42863c0,0 0.48356,4.35202 -3.86845,4.83558z"/><path d="M255.37156,168.11703c1.20295,-4.21032 5.41326,-3.00738 5.41326,-3.00738l4.38757,1.3316c2.60794,1.30397 5.06354,2.95961 7.8091,3.94123c9.00858,3.22081 28.05982,3.14623 30.14106,-8.53598c1.77335,-4.52098 1.37543,-7.88711 1.37543,-12.76337c0,-4.39667 0.48862,-9.16243 0.02615,-13.53233c-0.81297,-7.68155 -4.84132,-15.02401 -5.70783,-22.83132c-1.01351,-9.13178 1.26166,-16.0349 4.40381,-24.32773c0.59967,-1.58267 0.78844,-3.35528 0.94489,-5.08898c-5.34422,5.10801 -11.53442,7.86069 -19.17651,10.72648c0,0 -4.09999,1.5375 -5.6375,-2.56249c-1.5375,-4.09999 2.56249,-5.6375 2.56249,-5.6375c8.18694,-3.0701 14.47386,-5.52555 19.67067,-12.83434l2.50145,-4.00231c0.7662,-1.27174 2.16046,-2.12233 3.7534,-2.12233c2.1524,0 3.94209,1.55298 4.30966,3.59958l1.02187,5.10939l-0.03335,0.00668c0.02247,0.05997 0.04466,0.12006 0.06654,0.1803c3.66722,10.08982 -5.27228,18.06568 -5.6627,27.37753c-0.47465,11.32084 4.43396,20.55719 5.6884,31.45146c1.03329,8.97374 1.3208,21.34967 -1.71178,29.74481c-4.25624,16.85116 -27.06536,19.32826 -41.46628,14.29534c-0.31653,-0.11062 -8.22608,-4.07637 -8.7955,-4.36107l-2.87694,-0.74399c0,0 -4.21032,-1.20294 -3.00737,-5.41326z"/></g></g><g><path d="M242.57758,113.56239c-9.03947,0 -18.10694,0.29418 -27.15256,0.34275c1.38967,4.16671 4.05055,8.66712 8.44369,13.8009c4.74172,8.26382 9.49708,17.63548 12.50744,27.33094c2.49057,-7.90787 5.78933,-15.75446 7.52359,-20.58406c2.66604,-7.10976 4.23967,-14.00171 4.99245,-20.80582c-2.12097,-0.05337 -4.22718,-0.08481 -6.31452,-0.08481zM242.57758,107.51028c2.23819,0 4.49832,0.03657 6.77501,0.09772c0.53324,-12.46611 -1.44861,-24.76496 -4.24533,-37.71044c-3.96849,0.49564 -7.6967,1.00363 -10.92532,1.2813c-2.06485,0.27454 -4.45401,0.2764 -7.00713,0.16916c-5.59364,15.47045 -13.62091,25.23294 -12.93737,36.53598c9.44395,-0.03238 18.9141,-0.3737 28.34023,-0.3737zM302.91069,107.89439l1.51431,-0.00275c-7.48429,-11.60345 -11.74958,-27.57668 -23.16247,-34.9862c-7.72576,-5.01573 -19.3024,-4.81205 -30.11668,-3.7055c2.80729,13.15556 4.72586,25.83322 4.20455,38.6166c15.86768,0.65526 32.30282,1.98504 47.56032,0.07784zM249.57704,136.54968c-3.58704,9.75753 -6.44864,17.38614 -7.38361,27.88725c-0.1997,2.24295 -1.87958,4.3221 -2.75827,6.24607c0.00992,0.14884 0.01922,0.29766 0.02783,0.44646c0.08841,0.39739 0.08849,0.68453 0.08849,0.68453l-0.0521,0.01951c0.03373,0.75089 0.05144,1.50096 0.0521,2.25l-0.35509,-0.13313c0.06288,0.12461 0.13679,0.2484 0.22253,0.37141c2.96178,-5.15944 7.54913,-14.04254 10.01474,-15.83316c16.91672,-12.28548 37.9174,-25.66427 51.88739,-44.32633c-14.95931,1.5974 -30.95717,0.3062 -46.40278,-0.31423c-0.77109,7.46215 -2.44978,14.99108 -5.34131,22.7015zM218.92156,131.19237c-5.51449,-6.42278 -8.55145,-12.04421 -9.87098,-17.30071c-9.97949,-0.10686 -19.9181,-0.6685 -29.74872,-2.41281c19.25543,19.39914 35.31432,42.61531 54.04528,62.91465c-0.24889,-1.57121 -0.2675,-3.34574 -0.10785,-5.25888c-1.37705,-13.28395 -7.99276,-26.80977 -14.31774,-37.94224zM220.86725,70.96844c-6.89244,-0.4504 -14.02175,-0.76642 -18.75654,1.73747c-6.77508,3.58294 -19.37708,20.55656 -25.79195,32.02356c10.52014,2.2591 21.19665,2.98228 31.92617,3.12734c-0.20814,-11.56054 7.06106,-22.09895 12.62233,-36.8884zM167.94148,113.88289c-3.37422,-1.91015 -1.80727,-6.00522 -1.80727,-6.00522c4.70913,-11.83332 22.70187,-38.13321 32.9509,-43.48408c9.33923,-4.87588 24.27652,-0.88571 34.41296,-2.25541c13.35752,-1.15263 29.35345,-3.80322 42.65412,-1.09496c17.77455,3.61925 29.63148,29.67161 36.40005,47.43678c-3.62426,11.20376 -9.37165,13.27853 -16.54298,20.5129c-14.49088,14.61823 -26.56157,25.6525 -42.63928,37.23358c-9.65243,6.95286 -5.57154,18.86283 -18.71035,20.53336c-23.95893,-19.94155 -40.47118,-49.43572 -63.06893,-71.16601l-2.38485,-0.79167c0,0 -0.63186,-0.27713 -1.26432,-0.91931z" fill="#000000"/><path d="M214.03179,108.10602c-0.68354,-11.30308 7.47187,-21.58015 13.0655,-37.0506c2.55311,0.10723 5.05975,0.09801 7.12465,-0.17655c3.22859,-0.2777 7.09025,-0.73367 11.05879,-1.22932c2.79672,12.94553 4.81201,25.71317 4.27878,38.17928c-2.27668,-0.06116 -4.59231,-0.05657 -6.83046,-0.05657c-9.42613,0 -19.25317,0.30136 -28.69717,0.33374z" data-paper-data="{&quot;noHover&quot;:false,&quot;origItem&quot;:[&quot;Path&quot;,{&quot;applyMatrix&quot;:true,&quot;segments&quot;:[[[728.42112,606.00227],[-3.11498,0],[0.73964,0]],[[730.66,606.03456],[-0.75236,-0.02021],[0.17621,-4.11959]],[[729.25707,593.57265],[0.92422,4.27801],[-1.31144,0.16379]],[[725.64666,593.99607],[1.06693,-0.09176],[-0.68236,0.09073]],[[723.33106,594.05197],[0.84371,0.03543],[-1.84849,5.11241]],[[719.05574,606.12576],[-0.22589,-3.73525],[3.12088,-0.0107]]],&quot;closed&quot;:true}]}" fill="#ffffff"/><path d="M255.11998,108.01269c0.52139,-12.78333 -1.4109,-25.83602 -4.21824,-38.99157c10.81428,-1.10656 22.70003,-1.42697 30.42582,3.58876c11.41289,7.40952 15.85878,23.85503 23.34307,35.45848l-1.5194,0.00959c-15.2575,1.9072 -32.16357,0.58996 -48.03129,-0.06529z" data-paper-data="{&quot;noHover&quot;:false,&quot;origItem&quot;:[&quot;Path&quot;,{&quot;applyMatrix&quot;:true,&quot;segments&quot;:[[[748.35898,606.1292],[-5.04204,0.63026],[0,0]],[[748.8594,606.12829],[0,0],[-2.47329,-3.83451]],[[741.20507,594.56666],[3.77153,2.44856],[-2.55308,-1.65751]],[[731.25262,593.34214],[3.57372,-0.36568],[0.92771,4.34742]],[[732.64206,606.10348],[0.17229,-4.22441],[5.24368,0.21654]]],&quot;closed&quot;:true}]}" fill="#ffffff"/><path d="M208.38433,108.12549c-10.72952,-0.14506 -21.79391,-0.96423 -32.31405,-3.22334c6.41483,-11.46704 19.3283,-28.90929 26.10339,-32.49223c4.73475,-2.50389 12.03507,-2.08391 18.92746,-1.63348c-5.56126,14.78945 -12.92495,25.78855 -12.71681,37.349z" data-paper-data="{&quot;noHover&quot;:false,&quot;origItem&quot;:[&quot;Path&quot;,{&quot;applyMatrix&quot;:true,&quot;segments&quot;:[[[721.24666,593.92656],[-1.83778,4.88737],[-2.27769,-0.14884]],[[715.04833,594.50073],[1.56466,-0.82744],[-2.23892,1.18402]],[[706.52505,605.08333],[2.11987,-3.78943],[3.47652,0.74654]],[[717.07546,606.1168],[-3.54571,-0.04794],[-0.06878,-3.82032]]],&quot;closed&quot;:true}]}" fill="#ffffff"/><path d="M254.7814,113.5783c15.44561,0.62042 31.79832,1.97156 46.75762,0.37415c-13.96998,18.6621 -34.93976,32.07869 -51.85648,44.36417c-2.4656,1.79063 -7.08575,10.63392 -10.04753,15.79341c-0.08575,-0.12301 -0.59386,0.17478 -0.65673,0.05017l0.35673,0.1349c-0.00074,-0.74904 -0.0266,-1.50788 -0.06033,-2.25877l0.05223,-0.01943c0,0 -0.00279,-0.29029 -0.0912,-0.68768c-0.00865,-0.14884 -0.01968,-0.29963 -0.0296,-0.44847c0.87869,-1.92392 2.5427,-4.02321 2.7424,-6.26616c0.93493,-10.50108 3.75722,-18.41092 7.34426,-28.16844c2.89153,-7.71047 4.71761,-15.40565 5.48871,-22.86775z" data-paper-data="{&quot;noHover&quot;:false,&quot;origItem&quot;:[&quot;Path&quot;,{&quot;applyMatrix&quot;:true,&quot;segments&quot;:[[[730.73419,615.59871],[0.95554,-2.54801],[-1.18538,3.2245]],[[728.29418,624.81441],[0.30897,-3.47023],[-0.06599,0.74121]],[[727.38268,626.8785],[0.29037,-0.63579],[0.00327,0.04919]],[[727.39188,627.02605],[-0.00286,-0.04918],[0.02923,0.13132]],[727.42112,627.25227],[[727.40389,627.25873],[0,0],[0.01115,0.24813]],[[727.42112,628.00227],[-0.00024,-0.24753],[0,0]],[[727.30378,627.95827],[0,0],[0.02078,0.04117]],[[727.37732,628.08101],[-0.02834,-0.04066],[0.97876,-1.70501]],[[730.68682,622.84875],[-0.8148,0.59173],[5.59034,-4.0599]],[[747.83367,608.20055],[-4.61656,6.16713],[-4.94349,0.52788]],[[732.49929,608.09671],[5.1042,0.20502],[-0.25481,2.46597]]],&quot;closed&quot;:true}]}" fill="#ffffff"/><path d="M249.08267,113.41208c-0.75273,6.8041 -2.21434,13.93514 -4.88038,21.04487c-1.73423,4.82959 -5.27532,12.96877 -7.76589,20.87665c-3.01036,-9.69546 -8.06281,-19.55206 -12.80453,-27.81589c-4.39314,-5.13378 -7.00917,-9.67973 -8.39881,-13.84645c9.04562,-0.04853 18.44088,-0.3792 27.48039,-0.3792c2.08736,0 4.24832,0.06669 6.36925,0.12002z" data-paper-data="{&quot;noHover&quot;:false,&quot;origItem&quot;:[&quot;Path&quot;,{&quot;applyMatrix&quot;:true,&quot;segments&quot;:[[[728.42112,608.00227],[0.6898,0],[-2.98721,0]],[[719.4482,608.11554],[2.98925,-0.01605],[0.45923,1.37695]],[[722.23853,612.67622],[-1.45176,-1.69652],[1.56696,2.73089]],[[726.37177,621.70809],[-0.99481,-3.204],[0.82304,-2.61326]],[[728.85804,614.90583],[-0.5731,1.59599],[0.88103,-2.34951]],[[730.50785,608.03029],[-0.24875,2.24851],[-0.70089,-0.01763]]],&quot;closed&quot;:true}]}" fill="#ffffff"/><path d="M233.45613,169.34571c-0.15966,1.91319 -0.16064,3.70611 0.08821,5.27732c-18.73097,-20.29935 -35.18422,-43.97455 -54.43964,-63.37369c9.83061,1.74435 19.99471,2.23422 29.9742,2.34108c1.31954,5.25646 4.5496,10.97286 10.06408,17.39565c6.32498,11.13248 12.9361,25.07574 14.31319,38.35968z" data-paper-data="{&quot;noHover&quot;:false,&quot;origItem&quot;:[&quot;Path&quot;,{&quot;applyMatrix&quot;:true,&quot;segments&quot;:[[[720.6037,613.82832],[2.09018,3.67887],[-1.82233,-2.12248]],[[717.34171,608.11108],[0.43605,1.73707],[-3.29784,-0.03532]],[[707.51086,607.31373],[3.24866,0.57644],[6.36321,6.41069]],[[725.37082,628.10468],[-6.18989,-6.70818],[-0.08224,-0.51923]],[[725.33518,626.36682],[-0.05276,0.63223],[-0.45507,-4.38984]]],&quot;closed&quot;:true}]}" fill="#ffffff"/></g></g></g></svg>