<svg version="1.1" xmlns="http://www.w3.org/2000/svg" xmlns:xlink="http://www.w3.org/1999/xlink" width="163.20622" height="152.33144" viewBox="0,0,163.20622,152.33144"><g transform="translate(-150.87872,-30.99395)"><g data-paper-data="{&quot;isPaintingLayer&quot;:true}" fill-rule="nonzero" stroke="none" stroke-width="0.5" stroke-linecap="butt" stroke-linejoin="miter" stroke-miterlimit="10" stroke-dasharray="" stroke-dashoffset="0" style="mix-blend-mode: normal"><g><path d="M208.60691,52.99986c-0.57821,-2.70027 -1.50069,-5.35284 -2.75535,-7.81283c0,0 -0.0639,-0.12779 -0.14551,-0.34877c-0.99565,-0.88191 -2.03786,-2.47059 -1.00051,-4.89106c1.7249,-4.02475 5.74965,-2.29985 5.74965,-2.29985l3.44485,1.48143c8.01865,3.04808 15.29697,8.42851 20.21821,15.60934c1.15084,1.67925 2.13311,3.48018 2.97485,5.33378c0.55029,1.2118 0.32837,4.27208 1.52522,3.68993c6.70812,-3.26287 13.11113,-8.33289 20.06256,-11.48688c4.73208,-2.14703 10.10299,-4.03301 14.4484,1.56621c1.53093,1.97266 0.22404,4.99379 0.14731,7.48965c-0.15166,4.93254 -1.54619,9.47238 -1.58903,14.40578c1.22209,3.75918 6.76927,12.8564 11.55104,12.93795c3.31561,0.05654 7.83997,-2.7224 10.62298,-4.17504c3.69894,-1.93072 11.07164,-7.34245 15.45004,-1.80631c3.64166,4.60457 -4.1833,11.73561 -5.66057,14.9615c-1.30908,2.85864 -0.42187,9.25124 -0.25985,12.29328c0.4858,9.12153 -0.36719,18.20622 2.88941,26.83973c2.20905,7.3635 5.55176,14.23513 3.74158,22.13499c-3.77105,16.45738 -17.3316,17.24749 -31.15381,15.79259c-5.21503,-0.54892 -11.35593,-0.07466 -16.0034,-3.3058c-5.06272,-3.51982 -6.85557,-9.50921 -9.31862,-14.74968c-2.79448,-5.94557 -6.1647,-11.36083 -10.09184,-16.60987c-5.8434,-10.47912 -12.9218,-20.75217 -17.50204,-31.8574c-3.10813,-7.53595 -4.61489,-15.46958 -6.89069,-23.24326c-2.54417,-8.69034 -7.04137,-16.66947 -10.70061,-24.89415c0,0 -1.26727,-2.85139 0.74473,-4.80992z" fill="#db00ff"/><path d="M256.19829,151.72531c2.59232,5.01434 10.88621,11.54186 6.28395,18.25451c-1.53389,2.23729 -5.16982,1.71959 -7.84716,2.15558c-9.34528,1.52183 -20.37458,0.0332 -29.86018,-0.01944c-6.36439,1.44762 -12.33567,5.52295 -18.76268,6.23498c-6.53963,0.7245 -15.91536,-1.53664 -21.65327,-4.64749c-7.26381,-3.93815 -12.2695,-11.40017 -13.19537,-19.5188c-0.19025,-1.66818 0.27187,-6.98084 -0.36092,-9.05028c-1.65539,-5.41379 -5.01488,-11.25641 -7.87453,-16.13929c-0.90389,-1.54339 -2.42694,-2.82329 -2.81194,-4.56996c-0.04209,-0.19093 -0.08038,-0.38237 -0.11518,-0.57427l-0.08973,0.02693l-1.52743,-5.09146c-0.13886,-0.42688 -0.21391,-0.88254 -0.21391,-1.35573c0,-2.41834 1.96046,-4.37879 4.3788,-4.37879c0.66714,0 1.29944,0.14919 1.86534,0.41604l4.58309,2.03693l-0.00077,0.00173c1.57288,0.70874 3.87543,2.58351 4.71819,1.19555c0.97412,-1.60427 -1.14982,-7.57619 -1.77462,-9.14962c-4.09258,-10.91352 -8.67295,-18.82022 -2.36753,-30.04395c3.05677,-5.44111 3.28467,-8.42632 11.492,-7.43689c6.07684,0.73259 8.40983,9.85761 14.48109,10.30064c3.94749,0.28805 4.78566,-3.08523 6.32004,-5.67396c2.30768,-3.89338 5.07117,-7.02714 7.09933,-11.11532c0,0 -3.23067,-11.69992 0.68585,-9.74167c1.41838,0.70919 37.56402,80.50709 46.54755,97.88402z" fill="#ab00ff"/><path d="M281.00658,84.21282c0.32924,-0.08424 0.68852,-0.19849 1.08047,-0.34398zM280.99316,84.21624c0.07608,-0.07524 3.57294,-3.49561 7.0698,0.00126c3.53553,3.53553 0,7.07107 0,7.07107l-2.81362,2.0671c-2.80985,0.87967 -4.49917,1.78002 -7.62858,1.03557c-2.01495,-0.47934 -4.07526,-1.14156 -5.74505,-2.36696c-7.38693,-5.42104 -2.8125,-16.2569 -5.04421,-23.51892c0,0 -1.37361,-4.80762 3.43401,-6.18123c4.80762,-1.3736 6.18123,3.43401 6.18123,3.43401c1.2239,4.49826 1.12694,8.75582 1.0516,13.40269c-0.0617,3.80556 0.27355,5.87359 3.49481,5.05541z" fill="#7300b9"/><g fill="#7300b9"><path d="M195.75793,87.5624c-4.21113,0 -4.37237,-4.04988 -4.37855,-4.36002c-3.17574,-2.41624 -6.92162,-4.57187 -9.6145,-7.30037c-1.00961,-1.02298 -2.05441,-2.11136 -2.75165,-3.36697c-0.80668,0.69082 -1.78624,1.2357 -2.59255,1.92683c-7.82581,7.38846 -2.59819,18.83135 0.16163,27.63698c0.76663,2.44603 3.27933,9.71162 2.13841,12.28427c-4.83556,10.90367 -6.43726,6.88354 -12.67128,2.84198c-0.13075,-0.08477 -1.27097,-0.59981 -2.57167,-1.24889c0.31601,0.5099 0.59475,0.99643 0.81456,1.38805c4.30213,7.6646 5.82454,16.09542 6.77966,24.73111c-0.05939,15.13096 11.58282,29.17797 26.94405,31.72356c9.91398,1.64291 20.81084,-1.54605 29.93251,-4.96668c0,0 4.1,-1.5375 5.6375,2.56249c1.5375,4.09999 -2.5625,5.6375 -2.5625,5.6375c-10.52421,3.94657 -22.99832,7.32111 -34.41031,5.4112c-19.27961,-3.22663 -34.21666,-20.69648 -34.28544,-39.88378c-1.0797,-9.66403 -3.91141,-16.2756 -8.08902,-24.79054c-1.1818,-2.40878 -4.23523,-4.98076 -3.11871,-7.42047c2.78209,-6.07915 10.78027,-4.92168 15.16349,-3.21703c0.91611,0.35627 2.13966,0.94591 3.20271,1.65517c-0.80088,-2.83089 -1.879,-5.93586 -2.78932,-8.67165c-3.84537,-11.55658 -5.17822,-22.81818 3.77339,-32.09889c1.90228,-1.6305 8.552,-7.64882 10.4222,-7.33617c2.64849,0.44277 3.46853,4.10176 5.12551,6.2148c3.47591,4.43257 8.268,7.17075 12.58959,10.86852l1.52911,5.40022c0,0 0,4.3788 -4.3788,4.3788zM191.78086,83.51175l1.12739,0.92089c-0.36397,-0.31256 -0.74079,-0.61898 -1.12739,-0.92089z"/><path d="M239.16598,69.83498c-4.29377,0.85876 -5.15251,-3.43501 -5.15251,-3.43501l-0.57714,-2.96967c-0.63267,-6.14706 -2.73777,-9.57664 -6.75602,-14.23847c-3.5365,-4.17697 -7.75319,-7.6756 -13.26054,-8.96883c-0.10899,-0.02559 -2.31539,-0.02215 -4.42424,-0.23614c0.57238,0.70854 1.07642,1.45462 1.41052,2.0211c2.76043,4.68037 2.8854,5.44945 3.21523,10.83765c0.84369,13.78318 -3.21088,25.02554 -15.02367,32.49453c0,0 -3.71322,2.32077 -6.03396,-1.39245c-2.32076,-3.71322 1.39245,-6.03397 1.39245,-6.03397c9.1966,-5.66644 13.71039,-17.445 10.57472,-28.25581c-0.90302,-3.11333 -8.54495,-10.51246 -7.90617,-12.83836c1.7134,-6.23868 8.98647,-5.94827 13.3856,-5.74627c9.57298,0.43956 17.20848,5.36112 23.31935,12.41918c5.13137,6.01588 7.88203,11.0742 8.81079,18.97073l0.46065,2.21928c0,0 0.85876,4.29376 -3.43501,5.15251z"/><path d="M273.55665,72.48771c-4.35202,0.48356 -4.83558,-3.86846 -4.83558,-3.86846l-0.53898,-4.91146c0,-1.51074 -0.13224,-6.45382 0.26731,-9.068c-2.46519,0.29505 -6.53402,0.12807 -8.16938,0.57865c-6.34591,1.74846 -11.62641,6.65255 -15.2963,11.83011c0,0 -2.54513,3.56317 -6.1083,1.01805c-3.56317,-2.54514 -1.01806,-6.1083 -1.01806,-6.1083c6.38063,-8.87474 15.00364,-14.65513 25.9588,-15.82208c2.81385,-0.29974 11.81626,-1.5104 13.55359,0.39466c1.478,1.6207 -0.44348,13.62272 -0.44348,16.69261l0.49881,4.42863c0,0 0.48356,4.35202 -3.86845,4.83558z"/><path d="M255.37155,168.11703c1.20295,-4.21032 5.41326,-3.00738 5.41326,-3.00738l4.38757,1.3316c2.60794,1.30397 5.06354,2.95961 7.8091,3.94123c9.00858,3.22081 28.05982,3.14623 30.14106,-8.53598c1.77335,-4.52098 1.37543,-7.88711 1.37543,-12.76337c0,-4.39667 0.48862,-9.16243 0.02615,-13.53233c-0.81297,-7.68155 -4.84132,-15.02401 -5.70783,-22.83132c-1.01351,-9.13178 1.26166,-16.0349 4.40381,-24.32773c0.59967,-1.58267 0.78844,-3.35528 0.94489,-5.08898c-5.34422,5.10801 -11.53442,7.86069 -19.17651,10.72648c0,0 -4.09999,1.5375 -5.6375,-2.56249c-1.5375,-4.09999 2.56249,-5.6375 2.56249,-5.6375c8.18694,-3.0701 14.47386,-5.52555 19.67067,-12.83434l2.50145,-4.00231c0.7662,-1.27174 2.16046,-2.12233 3.7534,-2.12233c2.1524,0 3.94209,1.55298 4.30966,3.59958l1.02187,5.10939l-0.03335,0.00668c0.02247,0.05997 0.04466,0.12006 0.06654,0.1803c3.66722,10.08982 -5.27228,18.06568 -5.6627,27.37753c-0.47465,11.32084 4.43396,20.55719 5.6884,31.45146c1.03329,8.97374 1.3208,21.34967 -1.71178,29.74481c-4.25624,16.85116 -27.06536,19.32826 -41.46628,14.29534c-0.31653,-0.11062 -8.22608,-4.07637 -8.7955,-4.36107l-2.87694,-0.74399c0,0 -4.21032,-1.20294 -3.00737,-5.41326z"/></g></g><path d="M287.24283,175.69598h2.7456c3.82204,0.03502 7.3424,-1.24141 11.23199,-1.248c1.33607,-0.00226 5.65161,0.7417 6.83373,0.12499c0.26131,-0.13632 -0.05639,-0.58677 -0.08498,-0.88011c-0.07476,-0.76694 -0.08111,-1.54375 -0.22509,-2.30075c-0.71332,-3.75035 -2.52404,-7.10566 -3.22092,-10.8639c-0.86805,-3.21004 -0.79368,-5.76647 -1.04817,-9.04267c-0.39537,-5.08987 -2.70396,-10.82022 -4.77873,-15.43285c-1.0731,-2.38572 -2.31756,-4.91945 -3.93627,-6.98327c-1.82729,-2.32976 -4.40591,-4.28168 -5.38416,-7.20638c-1.84177,-5.50634 0.1278,-10.74976 -3.95862,-15.34146c-7.60856,-7.60088 -14.52948,-16.62591 -25.01121,-20.58337c-2.37225,-0.89566 -5.02247,-1.88781 -7.56456,-2.0955c-1.44964,-0.11844 -4.97114,0.21411 -6.1617,-0.07141c-2.67791,-0.64221 -4.94544,-3.11259 -7.47508,-4.06764c-1.05581,-0.39862 -3.3856,-0.38706 -4.5089,-0.42275c-3.70974,2.14126 -6.84839,5.67179 -9.78118,8.77739c-2.06694,2.18873 -5.01242,4.1003 -6.87437,6.35949c-1.54517,1.87483 -2.6985,4.7482 -4.11232,6.81412c-3.5173,5.13958 -7.22116,10.05086 -8.34055,16.25931c0,0 -0.084,0.46202 -0.37944,0.94917c2.46138,4.17024 4.34184,8.94168 6.57163,12.824c1.4129,2.46001 3.49636,4.4864 5.12741,6.80996l0.62687,1.82572c0,0 0.60634,2.42535 -1.81902,3.03169c-2.42535,0.60634 -3.03169,-1.81901 -3.03169,-1.81901l0.12768,-0.17109c-1.71794,-2.46177 -3.84035,-4.56743 -5.35579,-7.16764c-4.81226,-8.25692 -8.18188,-23.15853 -20.61198,-19.56818c-2.37348,0.68556 -4.79724,1.41042 -6.37196,3.51486c-1.52992,2.04458 -1.71819,5.14733 -3.20381,7.42705c-8.18481,12.86309 -11.26214,27.06111 -12.83428,42.04759c-0.29202,2.78373 -0.04384,5.64256 0.12867,8.4735c9.44368,-1.24251 18.84471,-0.49076 28.3804,0.54411c3.36048,0.3647 6.52639,1.43371 9.91502,1.7399c7.4248,0.6709 15.0386,0.23913 22.48502,0.23913c5.3479,0.00167 10.55808,-0.81733 15.88528,-0.99681c14.38254,-0.48458 28.6617,-1.49172 43.0203,-1.49919h2.74559c0,0 0.04572,0 0.1248,0.00619c0.07908,-0.00618 0.1248,-0.00619 0.1248,-0.00619zM209.79944,98.41132c1.48519,-2.17112 2.7462,-5.18562 4.37408,-7.16348c1.94299,-2.3607 4.95822,-4.34874 7.10322,-6.6197c3.70099,-3.91831 7.40651,-7.66454 12.18361,-10.1922c2.64452,-0.04778 4.9063,-0.33258 7.4719,0.57565c2.31737,0.82035 4.60169,3.35463 7.00172,3.91956c1.72628,0.40634 3.55376,-0.23242 5.31989,-0.07141c3.01344,0.27472 6.0935,1.31643 8.90904,2.39729c11.25543,4.32089 18.70299,13.63822 26.90557,21.84862c1.86542,2.15877 2.53534,2.5495 3.53427,5.38942c1.31205,3.73012 0.35523,7.92015 1.49272,11.71711c0.65473,2.1855 3.26648,4.04639 4.59983,5.77282c1.85323,2.39957 3.30751,5.2325 4.55012,7.99273c2.31465,5.14155 4.70561,11.34685 5.20527,17.01513c0.28168,3.19548 0.09658,5.33327 0.94863,8.42932c0.83934,4.72 4.36925,9.86289 3.54278,14.79054c-0.24293,1.44841 -0.47327,3.14943 -1.58258,4.11189c-1.54329,1.33899 -5.39857,1.12041 -7.39347,1.12339c-4.80919,0.00719 -9.24926,1.21401 -13.9776,1.248h-2.7456c0,0 -0.04572,0 -0.1248,-0.00618c-0.07908,0.00618 -0.1248,0.00618 -0.1248,0.00618h-2.74559c-14.29861,-0.007 -28.51649,1.02396 -42.84207,1.49601c-5.38486,0.17744 -10.65567,0.99838 -16.06351,0.99999c-7.59906,0 -15.36595,0.4325 -22.94216,-0.26007c-3.43711,-0.3142 -6.65099,-1.39517 -10.05298,-1.7545c-9.47369,-1.00066 -18.78237,-1.80045 -28.16095,-0.40774c-0.35599,0.49961 -0.96179,0.92471 -1.99268,0.92471c-0.87016,0 -1.43745,-0.30288 -1.80729,-0.69778c-0.5999,-0.23731 -1.1948,-0.75327 -1.39869,-1.8407c-0.20596,-1.09849 0.17123,-1.79797 0.65134,-2.23566c-0.14876,-3.39108 -0.52754,-6.82649 -0.18423,-10.18761c1.61281,-15.79015 5.00905,-30.77856 13.62331,-44.31397c2.70502,-3.93852 2.35548,-7.53771 6.67204,-10.68176c1.71123,-1.24641 3.73056,-1.77533 5.71698,-2.33792c2.89956,-0.82121 3.3104,-1.10503 6.36996,-0.83809c4.10969,0.35856 7.17731,2.18705 9.64136,4.78296c1.72625,-5.47625 5.01415,-10.09788 8.32137,-14.93253z" fill="#2b0050"/><path d="M287.41688,175.72982c0,0 -0.04588,0.00006 -0.12517,0.00624c-0.07929,-0.00619 -0.12517,-0.00615 -0.12517,-0.00615l-2.75378,0.00101c-14.39641,0.00747 -28.74389,1.02941 -43.1643,1.51399c-5.34123,0.17948 -10.58107,0.99757 -15.94306,0.9959c-7.46603,0 -15.11725,0.42431 -22.5616,-0.24659c-3.39755,-0.30619 -6.57745,-1.37964 -9.94678,-1.74434c-9.5608,-1.03487 -18.99474,-1.79618 -28.46329,-0.55367c-0.17296,-2.83094 -0.42405,-5.69356 -0.13126,-8.47729c1.57628,-14.98648 4.65589,-29.21117 12.86225,-42.07426c1.48953,-2.27972 1.67916,-5.38912 3.21311,-7.4337c1.57887,-2.10444 4.10626,-2.80538 6.48599,-3.49094c12.46283,-3.59035 15.84265,11.28858 20.66758,19.5455c1.51943,2.60021 3.64254,4.69137 5.365,7.15314l-0.1281,0.17093c0,0 0.6048,2.42015 3.03654,1.81381c2.43175,-0.60634 1.73941,-2.97781 1.73941,-2.97781l-0.63061,-1.82961c-1.63535,-2.32356 -3.72897,-4.36657 -5.1456,-6.82658c-2.23566,-3.88232 -4.11874,-8.67461 -6.5866,-12.84485c0.29622,-0.48715 0.38096,-0.95064 0.38096,-0.95064c1.12234,-6.20845 4.85145,-11.14129 8.37802,-16.28087c1.41754,-2.06592 2.582,-4.94461 4.13124,-6.81944c1.86685,-2.25919 4.83012,-4.17474 6.9025,-6.36347c2.94051,-3.1056 6.09929,-6.63793 9.8188,-8.77919c1.12626,0.03569 3.46677,0.0242 4.52536,0.42282c2.5363,0.95505 4.8181,3.42663 7.50307,4.06884c1.1937,0.28552 4.73051,-0.04523 6.18397,0.07321c2.54878,0.20769 5.21323,1.20319 7.59173,2.09885c10.50933,3.95746 17.46951,13.00541 25.09811,20.60629c4.09718,4.5917 2.12647,9.84928 3.97309,15.35562c0.98083,2.9247 3.56666,4.88332 5.39876,7.21308c1.62297,2.06382 2.87038,4.60309 3.94631,6.98881c2.08023,4.61263 4.39261,10.3532 4.78902,15.44307c0.25516,3.2762 0.17856,5.83771 1.04889,9.04775c0.69872,3.75824 2.51181,7.11807 3.22701,10.86842c0.14436,0.757 0.15015,1.53475 0.22511,2.30169c0.02867,0.29334 0.34698,0.74414 0.08498,0.88046c-1.18523,0.61671 -5.51339,-0.12538 -6.85298,-0.12312c-3.89983,0.00659 -7.43271,1.28715 -11.26482,1.25213l-2.7537,0.00097z" data-paper-data="{&quot;noHover&quot;:false,&quot;origItem&quot;:[&quot;Path&quot;,{&quot;applyMatrix&quot;:true,&quot;segments&quot;:[[310.79688,202.98877],[[313.54248,202.98877],[0,0],[3.82204,0.03502]],[[324.77447,201.74077],[-3.88959,0.00659],[1.33607,-0.00226]],[[331.6082,201.86576],[-1.18212,0.61671],[0.26131,-0.13632]],[[331.52322,200.98565],[0.02859,0.29334],[-0.07476,-0.76694]],[[331.29813,198.6849],[0.14398,0.757],[-0.71332,-3.75035]],[[328.07721,187.821],[0.69688,3.75824],[-0.86805,-3.21004]],[[327.02904,178.77833],[0.25449,3.2762],[-0.39537,-5.08987]],[[322.25031,163.34548],[2.07477,4.61263],[-1.0731,-2.38572]],[[318.31404,156.36221],[1.61871,2.06382],[-1.82729,-2.32976]],[[312.92988,149.15583],[0.97825,2.9247],[-1.84177,-5.50634]],[[308.97126,133.81437],[4.08642,4.5917],[-7.60856,-7.60088]],[[283.96005,113.231],[10.48173,3.95746],[-2.37225,-0.89566]],[[276.39549,111.1355],[2.54209,0.20769],[-1.44964,-0.11844]],[[270.23379,111.06409],[1.19056,0.28552],[-2.67791,-0.64221]],[[262.75871,106.99645],[2.52964,0.95505],[-1.05581,-0.39862]],[[258.24981,106.5737],[1.1233,0.03569],[-3.70974,2.14126]],[[248.46863,115.35109],[2.93279,-3.1056],[-2.06694,2.18873]],[[241.59426,121.71058],[1.86195,-2.25919],[-1.54517,1.87483]],[[237.48194,128.5247],[1.41382,-2.06592],[-3.5173,5.13958]],[[229.14139,144.78401],[1.11939,-6.20845],[0,0]],[[228.76195,145.73318],[0.29544,-0.48715],[2.46138,4.17024]],[[235.33358,158.55718],[-2.22979,-3.88232],[1.4129,2.46001]],[[240.46099,165.36714],[-1.63105,-2.32356],[0,0]],[241.08786,167.19286],[[239.26884,170.22455],[2.42536,-0.60634],[-2.42535,0.60634]],[236.23715,168.40554],[[236.36483,168.23445],[0,0],[-1.71794,-2.46177]],[[231.00904,161.06681],[1.51544,2.60021],[-4.81226,-8.25692]],[[210.39706,141.49863],[12.4301,-3.59035],[-2.37348,0.68556]],[[204.0251,145.01349],[1.57472,-2.10444],[-1.52992,2.04458]],[[200.82129,152.44054],[1.48562,-2.27972],[-8.18481,12.86309]],[[187.98701,194.48813],[1.57214,-14.98648],[-0.29202,2.78373]],[[188.11568,202.96163],[-0.17251,-2.83094],[9.44368,-1.24251]],[[216.49608,203.50574],[-9.53569,-1.03487],[3.36048,0.3647]],[[226.4111,205.24564],[-3.38863,-0.30619],[7.4248,0.6709]],[[248.89612,205.48477],[-7.44642,0],[5.3479,0.00167]],[[264.7814,204.48796],[-5.3272,0.17948],[14.38254,-0.48458]],[[307.8017,202.98877],[-14.3586,0.00747],[0,0]],[310.54729,202.98877],[[310.67209,202.99496],[-0.07908,-0.00619],[0.07908,-0.00618]],[310.79689,202.98877]],&quot;closed&quot;:true,&quot;fillColor&quot;:[0,0,0,1]}]}" fill="#4e0093"/><path d="M181.66465,114.60381c-0.17815,-0.17833 -0.79537,-0.8985 -0.09094,-1.72033c0.81349,-0.94907 1.76256,-0.13558 1.76256,-0.13558l0.92501,1.16564c0.92811,-0.69616 1.68887,0.21675 1.68887,0.21675c4.3675,5.25416 7.49496,11.63206 11.83369,16.95063c2.44506,2.99723 5.258,5.51262 7.69795,8.56797c4.12994,4.12156 7.74867,6.37739 12.99399,8.86629c4.64767,2.20531 8.94026,5.65062 13.70951,7.56135c1.82995,0.73315 3.69634,0.76586 5.55932,1.37842c3.03301,1.14423 6.17923,1.26982 9.32271,1.88699c4.05517,0.79616 8.20101,2.38812 12.35685,2.625c1.2986,0.07402 2.58553,-0.3586 3.88621,-0.35189c2.33805,0.01206 4.66604,1.26635 6.81912,1.99431c1.93308,0.65358 4.13631,0.61161 6.13768,1.04822c4.60862,1.68005 9.47161,2.40632 14.13932,3.8925c5.01242,1.59593 8.92308,4.1482 14.39001,4.17379l0.13609,0.08535l0.01435,-0.0574l1.3844,0.3461c0.55665,0.12632 0.9722,0.62414 0.9722,1.21902c0,0.58089 -0.39623,1.06923 -0.93317,1.2095l-1.20698,0.34485l-0.11319,-0.39617c-3.19668,1.17685 -6.89164,0.79651 -10.38875,0.97137c-7.42165,0.37111 -14.9607,-0.41328 -22.25054,1.04408c-5.89014,0.65862 -11.59921,2.16321 -17.55996,2.47947c-6.58705,0.34949 -13.22425,-0.17381 -19.8144,-0.17381c-10.34946,0 -20.72368,-1.41089 -31.008,-1.40979c-3.1664,0.00034 -5.98063,1.08776 -9.20747,0.68656c-2.88448,-0.641 -5.69067,-1.86873 -8.6094,-2.28674c-3.49926,-0.50115 -7.09888,-0.33064 -10.6182,-0.51574c-3.168,-0.16662 -6.55922,-0.79147 -9.79739,-1.32212c0.00141,0.02429 0.00212,0.04876 0.00212,0.0734c0,0.69036 -0.55964,1.25 -1.25,1.25c-0.26266,0 -0.5064,-0.08101 -0.7076,-0.21942l-1.0431,-0.6954l0.09005,-0.13507l-0.36734,-0.1174c-0.01803,-0.1259 -0.03607,-0.25179 -0.0541,-0.37769l-0.13583,0.05433l-0.69436,-1.73589c-0.06433,-0.15061 -0.09993,-0.31643 -0.09993,-0.49056c0,-0.28523 0.09553,-0.54815 0.25635,-0.7585c-0.62273,-1.86742 -0.87835,-4.38189 -0.95377,-5.44905c-0.20351,-2.87957 1.71162,-3.75263 2.51989,-6.33512c1.15055,-3.67608 0.37083,-7.35265 0.83292,-11.06807c0.17627,-1.41729 0.9941,-2.86822 1.44304,-4.21337c0.45054,-2.02387 0.10951,-4.08307 0.50336,-6.05709c0.55553,-2.78433 3.51366,-5.59777 5.1437,-7.90021c1.91365,-2.70304 2.87843,-5.97898 4.51315,-8.87892c1.56014,-2.76765 1.03962,-5.52621 4.22912,-6.91978c0.53155,-0.14134 1.09023,-0.32268 1.64083,-0.37079z" fill="#370067"/></g></g></svg>