<svg version="1.1" xmlns="http://www.w3.org/2000/svg" xmlns:xlink="http://www.w3.org/1999/xlink" width="163.20622" height="152.01904" viewBox="0,0,163.20622,152.01904"><g transform="translate(-150.87873,-30.99395)"><g data-paper-data="{&quot;isPaintingLayer&quot;:true}" fill-rule="nonzero" stroke="none" stroke-width="0.5" stroke-linecap="butt" stroke-linejoin="miter" stroke-miterlimit="10" stroke-dasharray="" stroke-dashoffset="0" style="mix-blend-mode: normal"><g><path d="M208.60692,52.99986c-0.57821,-2.70027 -1.50069,-5.35284 -2.75535,-7.81283c0,0 -0.0639,-0.12779 -0.14551,-0.34877c-0.99565,-0.88191 -2.03786,-2.47059 -1.00051,-4.89106c1.7249,-4.02475 5.74965,-2.29985 5.74965,-2.29985l3.44485,1.48143c8.01865,3.04808 15.29697,8.42851 20.21821,15.60934c1.15084,1.67925 2.13311,3.48018 2.97485,5.33378c0.55029,1.2118 0.32837,4.27208 1.52522,3.68993c6.70812,-3.26287 13.11113,-8.33289 20.06256,-11.48688c4.73208,-2.14703 10.10299,-4.03301 14.4484,1.56621c1.53093,1.97266 0.22404,4.99379 0.14731,7.48965c-0.15166,4.93254 -1.54619,9.47238 -1.58903,14.40578c1.22209,3.75918 6.76927,12.8564 11.55104,12.93795c3.31561,0.05654 7.83997,-2.7224 10.62298,-4.17504c3.69894,-1.93072 11.07164,-7.34245 15.45004,-1.80631c3.64166,4.60457 -4.1833,11.73561 -5.66057,14.9615c-1.30908,2.85864 -0.42187,9.25124 -0.25985,12.29328c0.4858,9.12153 -0.36719,18.20622 2.88941,26.83973c2.20905,7.3635 5.55176,14.23513 3.74158,22.13499c-3.77105,16.45738 -17.3316,17.24749 -31.15381,15.79259c-5.21503,-0.54892 -11.35593,-0.07466 -16.0034,-3.3058c-5.06272,-3.51982 -6.85557,-9.50921 -9.31862,-14.74968c-2.79448,-5.94557 -6.1647,-11.36083 -10.09184,-16.60987c-5.8434,-10.47912 -12.9218,-20.75217 -17.50204,-31.8574c-3.10813,-7.53595 -4.61489,-15.46958 -6.89069,-23.24326c-2.54417,-8.69034 -7.04137,-16.66947 -10.70061,-24.89415c0,0 -1.26727,-2.85139 0.74473,-4.80992z" fill="#858585"/><path d="M256.19829,151.72531c2.59232,5.01434 10.88621,11.54186 6.28395,18.25451c-1.53389,2.23729 -5.16982,1.71959 -7.84716,2.15558c-9.34528,1.52183 -20.37458,0.0332 -29.86018,-0.01944c-6.36439,1.44762 -12.33567,5.52295 -18.76268,6.23498c-6.53963,0.7245 -15.91536,-1.53664 -21.65327,-4.64749c-7.26381,-3.93815 -12.2695,-11.40017 -13.19537,-19.5188c-0.19025,-1.66818 0.27187,-6.98084 -0.36092,-9.05028c-1.65539,-5.41379 -5.01488,-11.25641 -7.87453,-16.13929c-0.90389,-1.54339 -2.42694,-2.82329 -2.81194,-4.56996c-0.04209,-0.19093 -0.08038,-0.38237 -0.11518,-0.57427l-0.08973,0.02693l-1.52743,-5.09146c-0.13886,-0.42688 -0.21391,-0.88254 -0.21391,-1.35573c0,-2.41834 1.96046,-4.37879 4.3788,-4.37879c0.66714,0 1.29944,0.14919 1.86534,0.41604l4.58309,2.03693l-0.00077,0.00173c1.57288,0.70874 3.87543,2.58351 4.71819,1.19555c0.97412,-1.60427 -1.14982,-7.57619 -1.77462,-9.14962c-4.09258,-10.91352 -8.67295,-18.82022 -2.36753,-30.04395c3.05677,-5.44111 3.28467,-8.42632 11.492,-7.43689c6.07684,0.73259 8.40983,9.85761 14.48109,10.30064c3.94749,0.28805 4.78566,-3.08523 6.32004,-5.67396c2.30768,-3.89338 5.07117,-7.02714 7.09933,-11.11532c0,0 -3.23067,-11.69992 0.68585,-9.74167c1.41838,0.70919 37.56402,80.50709 46.54755,97.88402z" fill="#858585"/><path d="M281.00658,84.21282c0.32924,-0.08424 0.68852,-0.19849 1.08047,-0.34398zM280.99316,84.21624c0.07608,-0.07524 3.57294,-3.49561 7.0698,0.00126c3.53553,3.53553 0,7.07107 0,7.07107l-2.81362,2.0671c-2.80985,0.87967 -4.49917,1.78002 -7.62858,1.03557c-2.01495,-0.47934 -4.07526,-1.14156 -5.74505,-2.36696c-7.38693,-5.42104 -2.8125,-16.2569 -5.04421,-23.51892c0,0 -1.37361,-4.80762 3.43401,-6.18123c4.80762,-1.3736 6.18123,3.43401 6.18123,3.43401c1.2239,4.49826 1.12694,8.75582 1.0516,13.40269c-0.0617,3.80556 0.27355,5.87359 3.49481,5.05541z" fill="#545454"/><g fill="#545454"><path d="M195.75794,87.5624c-4.21113,0 -4.37237,-4.04988 -4.37855,-4.36002c-3.17574,-2.41624 -6.92162,-4.57187 -9.6145,-7.30037c-1.00961,-1.02298 -2.05441,-2.11136 -2.75165,-3.36697c-0.80668,0.69082 -1.78624,1.2357 -2.59255,1.92683c-7.82581,7.38846 -2.59819,18.83135 0.16163,27.63698c0.76663,2.44603 3.27933,9.71162 2.13841,12.28427c-4.83556,10.90367 -6.43726,6.88354 -12.67128,2.84198c-0.13075,-0.08477 -1.27097,-0.59981 -2.57167,-1.24889c0.31601,0.5099 0.59475,0.99643 0.81456,1.38805c4.30213,7.6646 5.82454,16.09542 6.77966,24.73111c-0.05939,15.13096 11.58282,29.17797 26.94405,31.72356c9.91398,1.64291 20.81084,-1.54605 29.93251,-4.96668c0,0 4.1,-1.5375 5.6375,2.56249c1.5375,4.09999 -2.5625,5.6375 -2.5625,5.6375c-10.52421,3.94657 -22.99832,7.32111 -34.41031,5.4112c-19.27961,-3.22663 -34.21666,-20.69648 -34.28544,-39.88378c-1.0797,-9.66403 -3.91141,-16.2756 -8.08902,-24.79054c-1.1818,-2.40878 -4.23523,-4.98076 -3.11871,-7.42047c2.78209,-6.07915 10.78027,-4.92168 15.16349,-3.21703c0.91611,0.35627 2.13966,0.94591 3.20271,1.65517c-0.80088,-2.83089 -1.879,-5.93586 -2.78932,-8.67165c-3.84537,-11.55658 -5.17822,-22.81818 3.77339,-32.09889c1.90228,-1.6305 8.552,-7.64882 10.4222,-7.33617c2.64849,0.44277 3.46853,4.10176 5.12551,6.2148c3.47591,4.43257 8.268,7.17075 12.58959,10.86852l1.52911,5.40022c0,0 0,4.3788 -4.3788,4.3788zM191.78087,83.51175l1.12739,0.92089c-0.36397,-0.31256 -0.74079,-0.61898 -1.12739,-0.92089z"/><path d="M239.16599,69.83498c-4.29377,0.85876 -5.15251,-3.43501 -5.15251,-3.43501l-0.57714,-2.96967c-0.63267,-6.14706 -2.73777,-9.57664 -6.75602,-14.23847c-3.5365,-4.17697 -7.75319,-7.6756 -13.26054,-8.96883c-0.10899,-0.02559 -2.31539,-0.02215 -4.42424,-0.23614c0.57238,0.70854 1.07642,1.45462 1.41052,2.0211c2.76043,4.68037 2.8854,5.44945 3.21523,10.83765c0.84369,13.78318 -3.21088,25.02554 -15.02367,32.49453c0,0 -3.71322,2.32077 -6.03396,-1.39245c-2.32076,-3.71322 1.39245,-6.03397 1.39245,-6.03397c9.1966,-5.66644 13.71039,-17.445 10.57472,-28.25581c-0.90302,-3.11333 -8.54495,-10.51246 -7.90617,-12.83836c1.7134,-6.23868 8.98647,-5.94827 13.3856,-5.74627c9.57298,0.43956 17.20848,5.36112 23.31935,12.41918c5.13137,6.01588 7.88203,11.0742 8.81079,18.97073l0.46065,2.21928c0,0 0.85876,4.29376 -3.43501,5.15251z"/><path d="M273.55665,72.48771c-4.35202,0.48356 -4.83558,-3.86846 -4.83558,-3.86846l-0.53898,-4.91146c0,-1.51074 -0.13224,-6.45382 0.26731,-9.068c-2.46519,0.29505 -6.53402,0.12807 -8.16938,0.57865c-6.34591,1.74846 -11.62641,6.65255 -15.2963,11.83011c0,0 -2.54513,3.56317 -6.1083,1.01805c-3.56317,-2.54514 -1.01806,-6.1083 -1.01806,-6.1083c6.38063,-8.87474 15.00364,-14.65513 25.9588,-15.82208c2.81385,-0.29974 11.81626,-1.5104 13.55359,0.39466c1.478,1.6207 -0.44348,13.62272 -0.44348,16.69261l0.49881,4.42863c0,0 0.48356,4.35202 -3.86845,4.83558z"/><path d="M255.37156,168.11703c1.20295,-4.21032 5.41326,-3.00738 5.41326,-3.00738l4.38757,1.3316c2.60794,1.30397 5.06354,2.95961 7.8091,3.94123c9.00858,3.22081 28.05982,3.14623 30.14106,-8.53598c1.77335,-4.52098 1.37543,-7.88711 1.37543,-12.76337c0,-4.39667 0.48862,-9.16243 0.02615,-13.53233c-0.81297,-7.68155 -4.84132,-15.02401 -5.70783,-22.83132c-1.01351,-9.13178 1.26166,-16.0349 4.40381,-24.32773c0.59967,-1.58267 0.78844,-3.35528 0.94489,-5.08898c-5.34422,5.10801 -11.53442,7.86069 -19.17651,10.72648c0,0 -4.09999,1.5375 -5.6375,-2.56249c-1.5375,-4.09999 2.56249,-5.6375 2.56249,-5.6375c8.18694,-3.0701 14.47386,-5.52555 19.67067,-12.83434l2.50145,-4.00231c0.7662,-1.27174 2.16046,-2.12233 3.7534,-2.12233c2.1524,0 3.94209,1.55298 4.30966,3.59958l1.02187,5.10939l-0.03335,0.00668c0.02247,0.05997 0.04466,0.12006 0.06654,0.1803c3.66722,10.08982 -5.27228,18.06568 -5.6627,27.37753c-0.47465,11.32084 4.43396,20.55719 5.6884,31.45146c1.03329,8.97374 1.3208,21.34967 -1.71178,29.74481c-4.25624,16.85116 -27.06536,19.32826 -41.46628,14.29534c-0.31653,-0.11062 -8.22608,-4.07637 -8.7955,-4.36107l-2.87694,-0.74399c0,0 -4.21032,-1.20294 -3.00737,-5.41326z"/></g></g><path d="M201.59725,122.61188l-0.69162,-2.05191c-1.13489,-4.38854 -1.45416,-9.90115 -1.41641,-14.41587c-0.38391,-3.20483 1.97159,-3.16445 3.91199,-5.7393c1.94665,-2.58314 3.71611,-5.8805 6.69136,-7.56795c0.76826,-0.43574 1.76465,-0.2517 2.5935,-0.5568c1.80726,-0.66526 3.47323,-1.89163 5.38668,-2.10958c4.24847,-0.48391 8.99436,0.01654 13.26133,0.01654c3.76089,0 8.62065,-0.79604 12.30815,-0.05386c5.8795,1.18335 12.2372,4.99987 16.94953,8.54214c3.31055,2.43726 5.20808,5.33498 7.79117,8.56383c4.92757,6.15946 9.97899,13.76699 9.1979,22.12542c-0.34306,3.67103 -1.44496,8.42551 -3.38899,11.61903c-0.83542,1.37238 -2.20073,2.38432 -3.01605,3.76873c-3.59246,6.09992 -5.25989,12.41193 -10.73613,17.42416c-2.58919,2.36981 -4.27889,1.69236 -7.27317,3.56174c-0.81826,0.51085 -1.11453,1.70142 -1.99055,2.10531c-1.07642,0.49628 -2.35743,0.2941 -3.53368,0.44043c-11.01382,0.02597 -20.84063,-4.65936 -29.76446,-10.8326c-7.05242,-4.87865 -13.58961,-9.3466 -17.11564,-17.6396c-1.76297,-4.14641 -2.2328,-8.68536 -2.28197,-13.2485c0.36495,0.01893 0.77624,-0.03452 1.23792,-0.18842c2.81759,-0.93919 1.87916,-3.76296 1.87916,-3.76296z" data-paper-data="{&quot;noHover&quot;:false,&quot;origItem&quot;:[&quot;Path&quot;,{&quot;applyMatrix&quot;:true,&quot;segments&quot;:[[[207.73768,177.79169],[2.37171,-0.79057],[-0.38863,0.12954]],[[206.69567,177.94994],[0.3072,0.01593],[0.04139,3.84102]],[[208.61467,189.0849],[-1.48399,-3.49025],[2.96805,6.98067]],[[223.00274,203.9062],[-5.93639,-4.10661],[7.51167,5.19634]],[[248.01625,213.01674],[-9.27092,0.02186],[0.99011,-0.12318]],[[250.98658,212.64721],[-0.90608,0.41774],[0.73739,-0.33997]],[[252.65911,210.87619],[-0.68877,0.43001],[2.52045,-1.57356]],[[258.77236,207.88289],[-2.17946,1.99479],[4.60965,-4.21907]],[[267.79234,193.23606],[-3.02396,5.13462],[0.6863,-1.16533]],[[270.32881,190.06946],[-0.70322,1.1552],[1.6364,-2.68815]],[[273.17898,180.3044],[-0.28877,3.0901],[0.65749,-7.03573]],[[265.44604,161.70986],[4.14779,5.18474],[-2.17432,-2.7179]],[[258.89861,154.51219],[2.78666,2.05157],[-3.96662,-2.98171]],[[244.65398,147.33115],[4.94909,0.99609],[-3.10396,-0.62473]],[[234.30918,147.37626],[3.16574,0],[-3.59174,0]],[[223.16075,147.35753],[3.57616,-0.40733],[-1.61065,0.18346]],[[218.63204,149.12996],[1.52127,-0.55999],[-0.69769,0.25683]],[[216.45111,149.59707],[0.64669,-0.36678],[-2.50444,1.42042]],[[210.8266,155.9597],[1.6386,-2.17437],[-1.63334,2.16738]],[[207.53812,160.78445],[-0.32316,-2.69768],[-0.03178,3.80027]],[[208.73614,172.90466],[-0.9553,-3.69407],[0,0]],[209.31881,174.62941]],&quot;closed&quot;:true}]}" fill="#7d00ff"/><path d="M209.18747,96.29523c0.0461,0.02305 0.08956,0.04697 0.13055,0.07166c0.07186,-0.04778 0.11964,-0.07166 0.11964,-0.07166c2.7146,-1.34336 4.60272,-2.82582 7.78181,-2.90161c1.98263,-0.04726 3.60818,-0.07525 3.45126,2.79234c-0.09868,1.80313 -2.4905,3.9857 -3.69729,5.09975c-3.4094,3.14737 -4.30551,7.85432 -7.4128,10.97698c-5.2653,2.87332 -8.40427,-1.01285 -7.18356,-6.44043c0.6923,-3.07812 3.53485,-5.66704 4.79981,-8.53862l0.18905,-0.38122c0,0 0.60719,-1.21436 1.82155,-0.60719z" fill="#ffffff"/><path d="M231.47727,165.62156c-2.16404,-0.69587 -4.64255,-2.16657 -6.70008,-3.19013c-1.43338,-0.71308 -3.44823,-1.45248 -4.71704,-2.61105c-0.55715,-0.30335 -1.07791,-0.56181 -1.54614,-0.73894l-0.00691,-0.0071l-0.00151,0.00377l-1.38589,-0.55434c-0.51564,-0.19253 -0.88283,-0.68956 -0.88283,-1.27234c0,-0.36257 0.14212,-0.69195 0.37369,-0.93546c-0.10481,-0.08522 -0.20915,-0.17185 -0.31301,-0.26004l-0.22523,0.3003l-1.68566,-1.26424c-0.33695,-0.24706 -3.38622,-0.92885 -3.38622,-1.3787c0,-0.74984 3.43836,-1.07465 4.1882,-1.07465h1.41526c1.90209,0.00807 3.74904,-0.28634 5.66873,-0.27644c2.65119,-0.53898 5.3956,-0.34382 7.93082,-1.44568c8.86358,-3.85227 18.02559,-8.78141 23.62459,-16.77998c1.19549,-1.86288 1.64656,-3.76694 2.59067,-5.77043c1.75171,-3.71726 4.22233,-7.18965 5.29226,-11.22826c1.25918,-4.75297 0.52152,-12.97922 0.52152,-17.91168c0,0 -0.28304,0.62364 1.07466,0.62364c1.1015,0 1.30936,0.89363 1.34858,1.2309c0.07476,0.09339 0.11329,0.16082 0.11329,0.16082l0.51696,0.91117c4.60414,6.91145 11.7584,10.68769 14.89868,18.65218c0.80951,5.18282 -0.12888,10.38122 -1.10903,15.47604c-0.45856,2.38357 -0.48012,5.04835 -1.52198,7.25945c-0.81708,1.73401 -2.15379,2.52321 -3.27702,3.94166c-1.88683,2.38278 -3.4111,5.15415 -5.30813,7.58389c-1.18117,1.05597 -2.75336,2.06096 -3.83629,3.12943c-2.03865,2.01141 -2.62672,5.04984 -5.15593,6.82369c-1.56745,1.09932 -2.29471,0.84394 -4.08681,1.32366c-2.61033,0.69876 -5.2787,1.59943 -7.94008,2.15371c-0.09926,0.65207 -0.66237,1.15168 -1.34217,1.15168c-0.05182,0 -0.10296,-0.00291 -0.15327,-0.00856l-1.39708,-0.1397l0.01599,-0.15994l-0.33858,0.08721c-0.23995,-0.15255 -0.4793,-0.29522 -0.7182,-0.42888c-0.2565,0.00757 -0.51264,0.00931 -0.76833,0.00471c-1.29286,0.14047 -2.79416,-0.24316 -4.07906,-0.34759l-0.02214,0.1217l-1.53348,-0.27882c-0.64542,-0.10496 -1.13812,-0.66497 -1.13812,-1.34004c0,-0.14101 0.0215,-0.27698 0.06139,-0.40486c-1.63308,-0.27966 -3.30633,-0.56814 -5.05908,-1.13175z" fill="#5f00c5"/><path d="M193.81251,112.20601c-0.13775,-2.06416 -0.19956,-4.10749 -0.2122,-6.03158c0.07536,-1.38679 -0.31659,-2.88197 0.22608,-4.16039c0.83425,-1.96529 3.65202,-3.50281 4.93868,-5.22694c2.42032,-3.24325 4.74633,-6.95204 8.4372,-9.07222c1.0367,-0.59552 2.33946,-0.53135 3.45671,-0.95698c5.71398,-2.17686 10.03681,-2.45234 16.14952,-2.45234c5.61511,0 12.44554,-1.04184 17.94862,0.05358c6.76341,1.3463 13.9455,5.55703 19.36328,9.61188c9.20568,7.00705 18.1439,19.81198 19.31646,31.56558c0.58967,5.91065 -1.13765,13.30091 -4.16922,18.41901c-0.82577,1.39411 -2.20734,2.40423 -3.03431,3.79763c-1.85872,3.13185 -2.66036,6.82598 -4.58961,9.91491c-0.60331,0.96596 -7.01749,8.65447 -7.37336,8.97056c-2.19754,1.95195 -5.36484,2.44447 -7.85657,4.00352c-0.99546,0.62284 -1.46687,1.9753 -2.54878,2.43178c-1.79884,0.75893 -3.8387,0.71527 -5.75804,1.07292c-12.51745,-0.02408 -23.37181,-4.81212 -33.56893,-11.85536c-0.56655,-0.39133 -9.09037,-6.0313 -9.39145,-6.30276c-3.72746,-3.36053 -7.85412,-9.33789 -9.8014,-13.88734c-3.7023,-8.64975 -2.50084,-18.46448 -2.50084,-27.6115c0,0 0.00001,-1.40674 0.96816,-2.28392z" fill="#000000"/><path d="M278.84877,144.39989c1.5741,-2.51856 1.89599,-3.29801 1.89599,-3.29801l0.30697,0.32973c4.46318,2.70159 6.59135,5.64962 9.27924,10.02556c0.73221,1.19206 2.00995,2.17661 2.22421,3.55909c1.67321,10.79637 -10.29474,9.19346 -16.38781,6.97566c-17.18535,-10.22788 -35.43318,-18.7098 -52.09811,-29.8446c-7.30103,-4.87826 -13.76366,-11.2289 -20.27032,-17.08893c-8.07557,-6.46134 -15.96946,-15.45067 -18.38576,-25.77518c-0.31228,-1.33433 -1.00558,-7.08126 -0.50122,-8.66717c2.32907,-7.32358 11.07541,-7.0883 16.67995,-3.59491c4.03301,2.51382 6.10713,6.46063 9.07039,10.08231c0,0 -0.47284,-0.52562 -2.77149,1.3551c-2.29864,1.88071 -2.61033,1.1511 -2.61033,1.1511c-3.09414,-3.78181 -4.62216,-7.31432 -9.61453,-8.49175c-1.46274,-0.34498 -3.27776,-1.15139 -4.50012,-0.27703c-1.32809,0.94999 -0.1247,6.43224 0.04018,7.1284c2.14729,9.06649 9.36528,16.90414 16.43671,22.56049c6.34201,5.70411 12.62708,11.95725 19.74955,16.69407c16.45189,10.94137 34.46868,19.19699 51.32986,29.40559c0.77866,0.28275 1.53403,0.64056 2.33599,0.84826c0.85325,0.22098 1.73469,0.3178 2.60861,0.43235c3.5302,0.46267 3.24588,-0.98721 1.68134,-3.21959c-2.48096,-3.53998 -3.53453,-5.89875 -7.35239,-8.1653l0.07165,-0.22922c0,0 -0.7926,0.62257 0.78147,-1.89599z" fill="#ffffff"/><path d="M271.43417,99.63985l-0.06562,-0.22922c3.49611,-2.26654 4.46088,-4.62531 6.73275,-8.16528c1.43268,-2.23238 1.69303,-3.68226 -1.53965,-3.21959c-0.80027,0.11455 -1.60742,0.21136 -2.38876,0.43234c-0.73436,0.2077 -1.42608,0.56551 -2.13912,0.84826c-15.44015,10.20862 -31.93852,18.46422 -47.00386,29.40559c-6.52221,4.73682 -12.27757,10.98996 -18.08509,16.69407c-6.47546,5.65636 -13.08515,13.49401 -15.05147,22.56049c-0.15098,0.69616 -1.25295,6.17841 -0.03679,7.1284c1.11933,0.87435 2.78139,0.06795 4.12085,-0.27704c4.57162,-1.17744 5.97087,-4.70995 8.80423,-8.49175c0,0 0.28541,-0.72961 2.39034,1.1511c2.10493,1.88071 2.5379,1.3551 2.5379,1.3551c-2.71353,3.62167 -4.61284,7.56848 -8.30593,10.08232c-5.13221,3.49339 -13.14143,3.72866 -15.27419,-3.59491c-0.46185,-1.5859 0.17301,-7.33286 0.45898,-8.66718c2.21269,-10.32451 9.44127,-19.31385 16.83625,-25.77518c5.95829,-5.86003 11.87627,-12.21067 18.56198,-17.08893c15.26044,-11.13481 31.97038,-19.61673 47.70738,-29.8446c5.57956,-2.2178 16.53888,-3.82072 15.00668,6.97566c-0.19619,1.38248 -1.36626,2.36704 -2.03677,3.55908c-2.46135,4.37594 -4.41015,7.32397 -8.4972,10.02556l-0.2811,0.32973c0,0 -0.29476,-0.77945 -1.7362,-3.29801c-1.44143,-2.51855 -0.71563,-1.89599 -0.71563,-1.89599z" data-paper-data="{&quot;index&quot;:null}" fill="#ffffff"/><path d="M239.94863,173.30571c-0.35002,2.06524 -0.09898,1.66212 -1.1256,3.56464c-0.51465,0.95375 -1.27277,1.75996 -2.00139,2.56222c-0.9121,1.00428 -1.63628,2.3783 -2.90996,2.84546c-3.09688,1.13588 -4.94554,-0.44299 -7.12596,-2.03424c-3.82938,-2.79464 -5.32477,-5.98053 -6.74503,-10.37131c-0.0171,-2.13911 0.34834,-4.3069 0,-6.41753c-0.9295,-5.63197 -3.40706,-11.092 -3.24,-16.94433c0.12941,-4.53325 0.99362,-8.97444 1.51203,-13.46996c0.25678,-2.22674 0.0547,-4.48483 0.2031,-6.72141c0.3288,-4.95552 2.0766,-9.65084 2.80195,-14.53572c0.42204,-2.84225 0.42208,-5.72551 0.85889,-8.57825c1.19823,-7.64726 -0.3881,-15.56129 1.78508,-23.00469c0.69939,-2.39549 1.84934,-7.41953 4.05942,-8.9557c6.87206,-4.77659 13.9578,4.84468 15.31728,10.58832c0.27408,1.15796 0.04459,1.09598 0.06688,2.28572h-5c0.09176,-3.321 -1.04456,-2.58202 -2.49754,-5.47531c-0.32459,-0.64636 -0.24597,-1.49594 -0.7107,-2.05016c-0.30976,-0.3694 -3.51562,-2.08651 -4.08286,-1.42008c-0.91485,1.07485 -1.28422,2.52089 -1.77651,3.84373c-2.93816,7.89511 -0.97285,16.71459 -2.21919,24.94846c-2.18094,14.10456 -4.79831,28.40029 -5.31991,42.68951c-0.19987,5.4755 2.35354,10.71558 3.17753,15.99897c0.08057,0.51661 0.00487,5.92883 0,6.41753c1.10681,3.17922 2.11983,5.07095 4.80652,7.16992c0.70265,0.54894 1.55132,1.89311 2.28641,1.38844c3.2327,-2.21934 2.66455,-5.23587 2.66455,-5.23587z" fill="#ffffff"/></g></g></svg>