<svg version="1.1" xmlns="http://www.w3.org/2000/svg" xmlns:xlink="http://www.w3.org/1999/xlink" width="107.98036" height="115.04058" viewBox="0,0,107.98036,115.04058"><g transform="translate(-184.73356,-71.23193)"><g data-paper-data="{&quot;isPaintingLayer&quot;:true}" fill-rule="nonzero" stroke="none" stroke-width="0.5" stroke-linecap="butt" stroke-linejoin="miter" stroke-miterlimit="10" stroke-dasharray="" stroke-dashoffset="0" style="mix-blend-mode: normal"><path d="M201.59724,122.61188l-0.69162,-2.05191c-1.13489,-4.38854 -1.45416,-9.90115 -1.41641,-14.41587c-0.38391,-3.20483 1.97159,-3.16445 3.91199,-5.7393c1.94665,-2.58314 3.71611,-5.8805 6.69136,-7.56795c0.76826,-0.43574 1.76465,-0.2517 2.5935,-0.5568c1.80726,-0.66526 3.47323,-1.89163 5.38668,-2.10958c4.24847,-0.48391 8.99436,0.01654 13.26133,0.01654c3.76089,0 8.62065,-0.79604 12.30815,-0.05386c5.8795,1.18335 12.2372,4.99987 16.94953,8.54214c3.31055,2.43726 5.20808,5.33498 7.79117,8.56383c4.92757,6.15946 9.97899,13.76699 9.1979,22.12542c-0.34306,3.67103 -1.44496,8.42551 -3.38899,11.61903c-0.83542,1.37238 -2.20073,2.38432 -3.01605,3.76873c-3.59246,6.09992 -5.25989,12.41193 -10.73613,17.42416c-2.58919,2.36981 -4.27889,1.69236 -7.27317,3.56174c-0.81826,0.51085 -1.11453,1.70142 -1.99055,2.10531c-1.07642,0.49628 -2.35743,0.2941 -3.53368,0.44043c-11.01382,0.02597 -20.84063,-4.65936 -29.76446,-10.8326c-7.05242,-4.87865 -13.58961,-9.3466 -17.11564,-17.6396c-1.76297,-4.14641 -2.2328,-8.68536 -2.28197,-13.2485c0.36495,0.01893 0.77624,-0.03452 1.23792,-0.18842c2.81759,-0.93919 1.87916,-3.76296 1.87916,-3.76296z" data-paper-data="{&quot;noHover&quot;:false,&quot;origItem&quot;:[&quot;Path&quot;,{&quot;applyMatrix&quot;:true,&quot;segments&quot;:[[[207.73768,177.79169],[2.37171,-0.79057],[-0.38863,0.12954]],[[206.69567,177.94994],[0.3072,0.01593],[0.04139,3.84102]],[[208.61467,189.0849],[-1.48399,-3.49025],[2.96805,6.98067]],[[223.00274,203.9062],[-5.93639,-4.10661],[7.51167,5.19634]],[[248.01625,213.01674],[-9.27092,0.02186],[0.99011,-0.12318]],[[250.98658,212.64721],[-0.90608,0.41774],[0.73739,-0.33997]],[[252.65911,210.87619],[-0.68877,0.43001],[2.52045,-1.57356]],[[258.77236,207.88289],[-2.17946,1.99479],[4.60965,-4.21907]],[[267.79234,193.23606],[-3.02396,5.13462],[0.6863,-1.16533]],[[270.32881,190.06946],[-0.70322,1.1552],[1.6364,-2.68815]],[[273.17898,180.3044],[-0.28877,3.0901],[0.65749,-7.03573]],[[265.44604,161.70986],[4.14779,5.18474],[-2.17432,-2.7179]],[[258.89861,154.51219],[2.78666,2.05157],[-3.96662,-2.98171]],[[244.65398,147.33115],[4.94909,0.99609],[-3.10396,-0.62473]],[[234.30918,147.37626],[3.16574,0],[-3.59174,0]],[[223.16075,147.35753],[3.57616,-0.40733],[-1.61065,0.18346]],[[218.63204,149.12996],[1.52127,-0.55999],[-0.69769,0.25683]],[[216.45111,149.59707],[0.64669,-0.36678],[-2.50444,1.42042]],[[210.8266,155.9597],[1.6386,-2.17437],[-1.63334,2.16738]],[[207.53812,160.78445],[-0.32316,-2.69768],[-0.03178,3.80027]],[[208.73614,172.90466],[-0.9553,-3.69407],[0,0]],[209.31881,174.62941]],&quot;closed&quot;:true}]}" fill="#ff3e00"/><path d="M209.18746,96.29523c0.0461,0.02305 0.08956,0.04697 0.13055,0.07166c0.07186,-0.04778 0.11964,-0.07166 0.11964,-0.07166c2.7146,-1.34336 4.60272,-2.82582 7.78181,-2.90161c1.98263,-0.04726 3.60818,-0.07525 3.45126,2.79234c-0.09868,1.80313 -2.4905,3.9857 -3.69729,5.09975c-3.4094,3.14737 -4.30551,7.85432 -7.4128,10.97698c-5.2653,2.87332 -8.40427,-1.01285 -7.18356,-6.44043c0.6923,-3.07812 3.53485,-5.66704 4.79981,-8.53862l0.18905,-0.38122c0,0 0.60719,-1.21436 1.82155,-0.60719z" fill="#ffffff"/><path d="M231.47726,165.62156c-2.16404,-0.69587 -4.64255,-2.16657 -6.70008,-3.19013c-1.43338,-0.71308 -3.44823,-1.45248 -4.71704,-2.61105c-0.55715,-0.30335 -1.07791,-0.56181 -1.54614,-0.73894l-0.00691,-0.0071l-0.00151,0.00377l-1.38589,-0.55434c-0.51564,-0.19253 -0.88283,-0.68956 -0.88283,-1.27234c0,-0.36257 0.14212,-0.69195 0.37369,-0.93546c-0.10481,-0.08522 -0.20915,-0.17185 -0.31301,-0.26004l-0.22523,0.3003l-1.68566,-1.26424c-0.33695,-0.24706 -3.38622,-0.92885 -3.38622,-1.3787c0,-0.74984 3.43836,-1.07465 4.1882,-1.07465h1.41526c1.90209,0.00807 3.74904,-0.28634 5.66873,-0.27644c2.65119,-0.53898 5.3956,-0.34382 7.93082,-1.44568c8.86358,-3.85227 18.02559,-8.78141 23.62459,-16.77998c1.19549,-1.86288 1.64656,-3.76694 2.59067,-5.77043c1.75171,-3.71726 4.22233,-7.18965 5.29226,-11.22826c1.25918,-4.75297 0.52152,-12.97922 0.52152,-17.91168c0,0 -0.28304,0.62364 1.07466,0.62364c1.1015,0 1.30936,0.89363 1.34858,1.2309c0.07476,0.09339 0.11329,0.16082 0.11329,0.16082l0.51696,0.91117c4.60414,6.91145 11.7584,10.68769 14.89868,18.65218c0.80951,5.18282 -0.12888,10.38122 -1.10903,15.47604c-0.45856,2.38357 -0.48012,5.04835 -1.52198,7.25945c-0.81708,1.73401 -2.15379,2.52321 -3.27702,3.94166c-1.88683,2.38278 -3.4111,5.15415 -5.30813,7.58389c-1.18117,1.05597 -2.75336,2.06096 -3.83629,3.12943c-2.03865,2.01141 -2.62672,5.04984 -5.15593,6.82369c-1.56745,1.09932 -2.29471,0.84394 -4.08681,1.32366c-2.61033,0.69876 -5.2787,1.59943 -7.94008,2.15371c-0.09926,0.65207 -0.66237,1.15168 -1.34217,1.15168c-0.05182,0 -0.10296,-0.00291 -0.15327,-0.00856l-1.39708,-0.1397l0.01599,-0.15994l-0.33858,0.08721c-0.23995,-0.15255 -0.4793,-0.29522 -0.7182,-0.42888c-0.2565,0.00757 -0.51264,0.00931 -0.76833,0.00471c-1.29286,0.14047 -2.79416,-0.24316 -4.07906,-0.34759l-0.02214,0.1217l-1.53348,-0.27882c-0.64542,-0.10496 -1.13812,-0.66497 -1.13812,-1.34004c0,-0.14101 0.0215,-0.27698 0.06139,-0.40486c-1.63308,-0.27966 -3.30633,-0.56814 -5.05908,-1.13175z" fill="#c30000"/><path d="M199.77735,126.37898c-0.46168,0.15389 -0.87295,0.20692 -1.2379,0.18799c0.04917,4.56312 0.5168,9.0819 2.27977,13.2283c3.52604,8.29301 10.04057,12.72901 17.09298,17.60765c8.92384,6.17324 18.70215,10.84928 29.71597,10.8233c1.17625,-0.14634 2.45233,0.05727 3.52874,-0.439c0.87602,-0.40389 1.16869,-1.59313 1.98696,-2.10397c2.99429,-1.86938 4.67334,-1.18622 7.26253,-3.55604c5.47624,-5.01223 7.12324,-11.30048 10.7157,-17.4004c0.81533,-1.38441 2.1779,-2.38953 3.01333,-3.76191c1.94404,-3.19352 3.04294,-7.92984 3.38599,-11.60087c0.78109,-8.35843 -4.25916,-15.93081 -9.18672,-22.09026c-2.58309,-3.22885 -4.46777,-6.11355 -7.77832,-8.55081c-4.71233,-3.54227 -11.04306,-7.34771 -16.92259,-8.53106c-3.6875,-0.74217 -8.52871,0.05359 -12.28959,0.05359c-4.26698,0 -8.99584,-0.50616 -13.24431,-0.02224c-1.91345,0.21795 -3.57282,1.44036 -5.38009,2.10564c-0.82885,0.30511 -1.82268,0.1192 -2.59094,0.55493c-2.97527,1.68746 -4.73524,4.97565 -6.68189,7.55878c-1.9404,2.57484 -4.29062,2.52694 -3.90671,5.73177c-0.03775,4.51471 0.28834,10.01023 1.42323,14.39878l0.69222,2.049c0,0 0.93919,2.81759 -1.8784,3.75677zM193.8125,112.20601c-0.13775,-2.06416 -0.19956,-4.10749 -0.2122,-6.03158c0.07536,-1.38679 -0.31659,-2.88197 0.22608,-4.16039c0.83425,-1.96529 3.65202,-3.50281 4.93868,-5.22694c2.42032,-3.24325 4.74633,-6.95204 8.4372,-9.07222c1.0367,-0.59552 2.33946,-0.53135 3.45671,-0.95698c5.71398,-2.17686 10.03681,-2.45234 16.14952,-2.45234c5.61511,0 12.44554,-1.04184 17.94862,0.05358c6.76341,1.3463 13.9455,5.55703 19.36328,9.61188c9.20568,7.00705 18.1439,19.81198 19.31646,31.56558c0.58967,5.91065 -1.13765,13.30091 -4.16922,18.41901c-0.82577,1.39411 -2.20734,2.40423 -3.03431,3.79763c-1.85872,3.13185 -2.66036,6.82598 -4.58961,9.91491c-0.60331,0.96596 -7.01749,8.65447 -7.37336,8.97056c-2.19754,1.95195 -5.36484,2.44447 -7.85657,4.00352c-0.99546,0.62284 -1.46687,1.9753 -2.54878,2.43178c-1.79884,0.75893 -3.8387,0.71527 -5.75804,1.07292c-12.51745,-0.02408 -23.37181,-4.81212 -33.56893,-11.85536c-0.56655,-0.39133 -9.09037,-6.0313 -9.39145,-6.30276c-3.72746,-3.36053 -7.85412,-9.33789 -9.8014,-13.88734c-3.7023,-8.64975 -2.50084,-18.46448 -2.50084,-27.6115c0,0 0.00001,-1.40674 0.96816,-2.28392z" fill="#000000"/><path d="M278.84876,144.3999c1.5741,-2.51856 1.89599,-3.29801 1.89599,-3.29801l0.30697,0.32973c4.46318,2.70159 6.59135,5.64962 9.27924,10.02556c0.73221,1.19206 2.00995,2.17661 2.22421,3.55909c1.67321,10.79637 -10.29474,9.19346 -16.38781,6.97566c-17.18535,-10.22788 -35.43318,-18.7098 -52.09811,-29.8446c-7.30103,-4.87826 -13.76366,-11.2289 -20.27032,-17.08893c-8.07557,-6.46134 -15.96946,-15.45067 -18.38576,-25.77518c-0.31228,-1.33433 -1.00558,-7.08126 -0.50122,-8.66717c2.32907,-7.32358 11.07541,-7.0883 16.67995,-3.59491c4.03301,2.51382 6.10713,6.46063 9.07039,10.08231c0,0 -0.47284,-0.52562 -2.77149,1.3551c-2.29864,1.88071 -2.61033,1.1511 -2.61033,1.1511c-3.09414,-3.78181 -4.62216,-7.31432 -9.61453,-8.49175c-1.46274,-0.34498 -3.27776,-1.15139 -4.50012,-0.27703c-1.32809,0.94999 -0.1247,6.43224 0.04018,7.1284c2.14729,9.06649 9.36528,16.90414 16.43671,22.56049c6.34201,5.70411 12.62708,11.95725 19.74955,16.69407c16.45189,10.94137 34.46868,19.19699 51.32986,29.40559c0.77866,0.28275 1.53403,0.64056 2.33599,0.84826c0.85325,0.22098 1.73469,0.3178 2.60861,0.43235c3.5302,0.46267 3.24588,-0.98721 1.68134,-3.21959c-2.48096,-3.53998 -3.53453,-5.89875 -7.35239,-8.1653l0.07165,-0.22922c0,0 -0.7926,0.62257 0.78147,-1.89599z" fill="#b9b200"/><path d="M233.72587,171.9289c-0.10841,0.95284 -0.05997,0.18034 -0.16837,1.13318c-0.39407,1.34841 -0.41244,2.87009 -1.18221,4.04522c-5.73461,8.75441 -13.47522,-4.26919 -15.45057,-9.22855c-1.63245,-4.09847 -1.51666,-8.54228 -2.2544,-12.82963c-2.07854,-12.07929 -2.94935,-24.57561 -2.95363,-36.88756c-0.14759,-2.41696 -0.61361,-4.80418 -0.87504,-7.21149c-0.47911,-4.41164 0.52753,-8.9696 -0.25486,-13.37266c-0.1524,-0.85767 -0.76627,-1.59163 -0.90496,-2.45162c-0.50103,-3.10675 -0.04012,-6.7775 -0.04012,-9.92609c0,-0.59008 -0.01046,-5.88467 0.04012,-6.07483c0.37867,-1.42378 0.71839,-3.13291 1.92465,-3.97876c2.76051,-1.93571 8.98743,0.36339 11.11031,2.28407c2.615,2.36593 2.1423,3.37136 2.9417,6.65658l-5.02394,0.36095c-1.15274,-5.10769 -0.48192,-3.39232 -5.21062,-4.7617c-0.3396,-0.09835 -0.6415,-0.56227 -0.96948,-0.43026c-0.23976,0.0965 0.1324,0.50323 0.14714,0.76126c0.04785,0.83756 0.03362,1.67755 0.04012,2.51645c0.01529,1.97495 0,3.95001 0,5.92502c0,3.12299 0.33413,5.14131 0.83243,8.0636c0.78791,4.62075 -0.18652,9.28344 0.33765,13.88243c0.28893,2.53507 0.74006,5.05475 0.90246,7.60105c-0.00536,15.14213 1.06214,30.94259 4.09344,45.77027c0.6886,3.3683 2.88687,6.90471 5.05517,9.52992c0.58955,0.71378 1.11771,1.86956 2.04341,1.88092c1.04972,0.01289 0.49402,-2.04065 0.73977,-3.06128c0.08909,-0.82466 0.17819,-1.64932 0.26728,-2.47398z" fill="#b9b200"/><path d="M252.37223,173.2413c0.31871,3.09659 1.42214,4.52764 3.85773,6.60285c1.82317,1.55341 4.3004,2.47504 4.21388,-0.5749c-0.00601,-3.96986 -0.73836,-7.68725 -0.88955,-11.62501c-0.23623,-6.15282 0.49521,-12.43681 0.00326,-18.57336c-0.6474,-8.0755 -2.22394,-16.35017 -3.80567,-24.2594c-1.06307,-5.31576 -1.31048,-10.73293 -2.37754,-16.03543c-0.97141,-5.37907 -2.1263,-10.67025 -2.97726,-16.08277c-0.58729,-3.73544 -0.60616,-7.37016 -2.17717,-10.90647c-0.87258,-1.96416 -2.69629,-6.08039 -5.54685,-5.68558c-2.99392,0.41466 -3.62668,6.0054 -4.35105,7.95469l-4.68165,-0.03027c0.99149,-2.61615 1.14683,-5.52632 2.50442,-8.0002c2.84409,-5.18268 8.98005,-6.64793 13.25508,-1.97075c0.79521,0.87001 1.1669,2.04844 1.76977,3.06126c2.88162,4.84118 3.30615,9.37445 4.16826,14.81022c0.84984,5.35842 1.9734,10.58682 2.94776,15.91233c1.05065,5.28363 1.30411,10.66822 2.36247,15.95967c1.62535,8.12617 3.23443,16.62228 3.89685,24.91826c0.49307,6.17508 -0.21686,12.49108 0.00326,18.68173c0.14581,4.10068 0.89361,8.00261 0.88796,12.14759c-0.21206,1.26438 0.05655,2.71436 -0.63617,3.79314c-1.79855,2.8009 -5.23867,3.40882 -8.21323,2.60885c-5.49909,-1.4789 -8.28693,-7.35141 -8.87027,-12.31113z" fill="#b9b200"/><path d="M271.43416,99.63985l-0.06562,-0.22922c3.49611,-2.26654 4.46088,-4.62531 6.73275,-8.16528c1.43268,-2.23238 1.69303,-3.68226 -1.53965,-3.21959c-0.80027,0.11455 -1.60742,0.21136 -2.38876,0.43234c-0.73436,0.2077 -1.42608,0.56551 -2.13912,0.84826c-15.44015,10.20862 -31.93852,18.46422 -47.00386,29.40559c-6.52221,4.73682 -12.27757,10.98996 -18.08509,16.69407c-6.47546,5.65636 -13.08515,13.49401 -15.05147,22.56049c-0.15098,0.69616 -1.25295,6.17841 -0.03679,7.1284c1.11933,0.87435 2.78139,0.06795 4.12085,-0.27704c4.57162,-1.17744 5.97087,-4.70995 8.80423,-8.49175c0,0 0.28541,-0.72961 2.39034,1.1511c2.10493,1.88071 2.5379,1.3551 2.5379,1.3551c-2.71353,3.62167 -4.61284,7.56848 -8.30593,10.08232c-5.13221,3.49339 -13.14143,3.72866 -15.27419,-3.59491c-0.46185,-1.5859 0.17301,-7.33286 0.45898,-8.66718c2.21269,-10.32451 9.44127,-19.31385 16.83625,-25.77518c5.95829,-5.86003 11.87627,-12.21067 18.56198,-17.08893c15.26044,-11.13481 31.97038,-19.61673 47.70738,-29.8446c5.57956,-2.2178 16.53888,-3.82072 15.00668,6.97566c-0.19619,1.38248 -1.36626,2.36704 -2.03677,3.55908c-2.46135,4.37594 -4.41015,7.32397 -8.4972,10.02556l-0.2811,0.32973c0,0 -0.29476,-0.77945 -1.7362,-3.29801c-1.44143,-2.51855 -0.71563,-1.89599 -0.71563,-1.89599z" data-paper-data="{&quot;index&quot;:null}" fill="#b9b200"/></g></g></svg>