<svg version="1.1" xmlns="http://www.w3.org/2000/svg" xmlns:xlink="http://www.w3.org/1999/xlink" width="120.18858" height="100.40895" viewBox="0,0,120.18858,100.40895"><g transform="translate(-179.51259,-80.34994)"><g data-paper-data="{&quot;isPaintingLayer&quot;:true}" fill-rule="nonzero" stroke="none" stroke-width="0.5" stroke-linecap="butt" stroke-linejoin="miter" stroke-miterlimit="10" stroke-dasharray="" stroke-dashoffset="0" style="mix-blend-mode: normal"><path d="M294.48549,173.81411l-1.2584,0.06945c-8.7919,0.48206 -17.5966,0.97543 -26.3885,1.45749c-5.00733,0.27455 -9.74774,0.94806 -14.64901,-0.16611c-4.12373,0.20544 -8.18423,-0.07338 -12.33186,0.15403c-4.05481,0.22233 -8.59517,0.97104 -12.6465,0.70973c-1.36714,-0.08818 -2.67507,-0.66022 -4.03994,-0.77832c-5.94686,-0.51456 -12.14429,0.01686 -18.11243,-0.02578c-5.90398,-0.04218 -11.64602,-1.03534 -17.53399,-0.99497c-1.19367,-1.48523 -2.50083,-3.11157 -3.00574,-4.54646c-1.16722,-3.31707 1.65089,-4.3648 2.54472,-7.10747c0.77791,-2.38694 -0.52881,-4.07399 -0.24638,-6.35947c0.56123,-4.5416 3.87337,-8.27524 6.35441,-11.76756c1.67458,-2.35715 2.46483,-5.92657 4.38761,-8.04762c1.54145,-1.70039 3.62835,-2.8237 5.32409,-4.37027c2.05201,-4.03713 6.39838,-5.26309 9.7345,-8.24577c1.7135,-1.53196 3.27152,-3.27638 4.60116,-5.15122c1.16457,-1.64208 1.40585,-3.8343 2.56521,-5.48006c0.99761,-1.41614 4.49715,-1.27712 5.30269,-1.82091c2.50003,-1.68769 3.08503,-4.66845 4.07101,-7.20034c0.26664,-0.6847 0.24681,-1.63541 0.86776,-2.02826c0.58495,-0.37008 1.38629,0.25896 2.0727,0.16969c1.08191,-0.14072 2.1978,-0.34899 3.16598,-0.85192c3.08007,-1.59995 4.32532,-3.35166 6.2116,-6.14713c1.10939,-1.64412 1.37735,-3.88349 2.82711,-5.23704c0.65395,-0.61055 1.79639,-0.50617 2.43636,-1.13135c0.68683,-0.67095 0.89211,-1.70084 1.33769,-2.55134c0.79317,-0.34943 1.5159,-1.00879 2.38175,-1.04781c0.90594,-0.04082 1.69431,0.72392 2.59551,0.82502c1.9236,0.21578 3.8891,-0.64962 5.80152,-0.35053c2.26163,0.35371 2.36112,1.47899 3.87085,3.01644c1.22567,1.24817 2.98388,2.00603 3.9482,3.46558c1.20367,1.82181 1.28997,4.17971 2.04498,6.22855c0.43749,1.1872 1.24442,2.21934 1.68694,3.40467c0.7609,2.03814 0.63086,4.33804 1.34497,6.39304c0.91817,2.6422 2.79883,4.86671 3.94785,7.417c0.8087,1.79494 0.97613,3.85958 1.88919,5.60374c2.39939,4.58344 4.03711,8.15536 5.09089,13.33824c2.40636,5.25636 4.15505,11.25036 7.74341,15.87988c0.56962,0.7349 2.96082,2.27009 3.30439,3.51713c1.58128,5.73954 0.13202,12.88871 0.4331,18.7852z" data-paper-data="{&quot;noHover&quot;:false,&quot;origItem&quot;:[&quot;Path&quot;,{&quot;applyMatrix&quot;:true,&quot;segments&quot;:[[[289.95461,211.24808],[0,0],[-0.30108,-5.89649]],[[289.5152,192.47363],[1.58128,5.73954],[-0.34357,-1.24704]],[[286.21015,188.95812],[0.56962,0.7349],[-3.58836,-4.62953]],[[278.46355,173.0918],[2.40636,5.25636],[-1.05378,-5.18288]],[[273.37389,159.77003],[2.39939,4.58344],[-0.91306,-1.74417]],[[271.48704,154.17343],[0.8087,1.79494],[-1.14902,-2.55029]],[[267.54429,146.76581],[0.91817,2.6422],[-0.71411,-2.055]],[[266.20378,140.37833],[0.7609,2.03814],[-0.44252,-1.18533]],[[264.51981,136.9766],[0.43749,1.1872],[-0.75501,-2.04884]],[[262.47955,130.75186],[1.20367,1.82181],[-0.96433,-1.45955]],[[258.53596,127.28919],[1.22567,1.24817],[-1.50973,-1.53745]],[[254.66956,124.27495],[2.26163,0.35371],[-1.91242,-0.29909]],[[248.87326,124.62741],[1.9236,0.21578],[-0.9012,-0.10109]],[[246.28056,123.80317],[0.90594,-0.04082],[-0.86586,0.03902]],[[243.90104,124.85147],[0.79317,-0.34943],[-0.44558,0.85051]],[[242.5643,127.40299],[0.68683,-0.67095],[-0.63998,0.62518]],[[240.1306,128.53473],[0.65395,-0.61055],[-1.44975,1.35354]],[[237.30655,133.77204],[1.10939,-1.64412],[-1.88627,2.79547]],[[231.10486,139.91878],[3.08007,-1.59995],[-0.96819,0.50293]],[[227.94433,140.76962],[1.08191,-0.14072],[-0.68641,0.08928]],[[225.87477,140.59902],[0.58495,-0.37008],[-0.62095,0.39285]],[[225.00942,142.62643],[0.26664,-0.6847],[-0.98598,2.53189]],[[220.95014,149.82034],[2.50003,-1.68769],[-0.80554,0.54379]],[[215.65502,151.63437],[0.99761,-1.41614],[-1.15936,1.64576]],[[213.09648,157.10498],[1.16457,-1.64208],[-1.32964,1.87484]],[[208.49982,162.24479],[1.7135,-1.53196],[-3.33612,2.98268]],[[198.76688,170.47622],[2.05201,-4.03713],[-1.69574,1.54657]],[[193.44236,174.84156],[1.54145,-1.70039],[-1.92278,2.12105]],[[189.05313,182.88168],[1.67458,-2.35715],[-2.48104,3.49232]],[[182.69578,194.64166],[0.56123,-4.5416],[-0.28243,2.28548]],[[182.93987,200.99695],[0.77791,-2.38694],[-0.89384,2.74266]],[[180.39321,208.10147],[-1.16722,-3.31707],[0.50491,1.43489]],[[183.39649,212.64474],[-1.19367,-1.48523],[5.88796,-0.04037]],[[200.9227,213.63226],[-5.90398,-0.04218],[5.96814,0.04264]],[[219.0217,213.65066],[-5.94686,-0.51456],[1.36488,0.1181]],[[223.05751,214.42768],[-1.36714,-0.08818],[4.05132,0.26131]],[[235.69051,213.71625],[-4.05481,0.22233],[4.14763,-0.22742]],[[248.00906,213.56417],[-4.12373,0.20544],[4.90127,1.11417]],[[262.64572,213.73574],[-5.00733,0.27455],[8.7919,-0.48206]],[[289.02142,212.28955],[-8.7919,0.48206],[0,0]],[290.27945,212.22057]],&quot;closed&quot;:true}]}" fill="#ffffff"/><path d="M196.86661,158.62946c6.41512,-0.77973 13.02373,-0.28865 19.38854,-1.56858c4.68993,-0.94313 9.61924,-1.39826 14.25793,-2.56911c4.18874,-1.05728 8.08195,-2.44604 12.43495,-2.46657c6.26952,-0.79317 12.83416,-1.17153 18.99597,-2.54368c3.79086,-0.84418 7.59159,-1.75511 11.36691,-2.59255c4.02047,-0.89183 7.041,-2.50378 11.33918,-2.45886c8.1493,0.08518 13.46535,6.55436 14.08355,14.19577c0.00222,4.02825 1.1975,11.95853 -1.666,15.174c-2.7781,3.11958 -8.92597,2.99421 -12.6173,2.99514c-4.99408,0.00126 -9.78339,-0.66956 -14.74687,-1.00421c-6.92471,-0.46689 -14.06618,0.00549 -21.00728,0.00549c-7.09375,0 -14.31347,0.25711 -21.53197,0.34083c-0.33769,1.61862 -1.93949,1.82591 -2.34422,1.85245c-7.89321,1.72449 -15.44806,0.09581 -23.3593,-0.19769c-3.82518,-0.14191 -8.81446,0.92403 -12.3629,-0.83957c-3.40099,-1.69032 -5.07116,-4.92598 -5.67147,-8.43932c-0.05808,-0.10378 -0.11799,-0.20595 -0.18039,-0.30595c-0.25599,-1.2397 -0.51198,-2.47941 -0.76796,-3.71911l0.31423,-0.48476l-0.25028,-0.05776l0.58793,-2.54771c0.23671,-1.13455 1.24246,-1.98682 2.44727,-1.98682c0.70522,0 1.34222,0.292 1.79673,0.76168c3.2137,-0.37657 6.28039,-1.15266 9.49274,-1.54311z" fill="#b9b9b9"/><path d="M294.12127,172.81082c-0.30108,-5.89649 1.14187,-13.03491 -0.43941,-18.77445c-0.34357,-1.24704 -2.73544,-2.78061 -3.30506,-3.5155c-3.58836,-4.62953 -5.34023,-10.60997 -7.74659,-15.86632c-1.05378,-5.18288 -2.69026,-8.73834 -5.08966,-13.32177c-0.91306,-1.74417 -1.07816,-3.80166 -1.88686,-5.5966c-1.14902,-2.55029 -3.02458,-4.76542 -3.94275,-7.40762c-0.71411,-2.055 -0.57961,-4.34934 -1.34051,-6.38748c-0.44252,-1.18533 -1.24648,-2.21453 -1.68397,-3.40172c-0.75501,-2.04884 -0.83659,-4.40294 -2.04026,-6.22474c-0.96433,-1.45955 -2.71792,-2.21449 -3.94359,-3.46267c-1.50973,-1.53745 -1.60478,-2.66054 -3.86641,-3.01424c-1.91242,-0.29909 -3.87269,0.56824 -5.7963,0.35246c-0.9012,-0.10109 -1.68676,-0.86506 -2.5927,-0.82424c-0.86586,0.03902 -1.58635,0.69887 -2.37952,1.0483c-0.44558,0.85051 -0.64991,1.88057 -1.33674,2.55152c-0.63998,0.62518 -1.77975,0.52119 -2.4337,1.13174c-1.44975,1.35354 -1.71467,3.5932 -2.82405,5.23731c-1.88627,2.79547 -3.12162,4.54678 -6.20169,6.14673c-0.96819,0.50293 -2.07863,0.71013 -3.16053,0.85085c-0.68641,0.08928 -1.4846,-0.54068 -2.06956,-0.1706c-0.62095,0.39285 -0.59871,1.3427 -0.86535,2.02741c-0.98598,2.53189 -1.55924,5.50622 -4.05927,7.19391c-0.80554,0.54379 -4.29752,0.39789 -5.29513,1.81403c-1.15936,1.64576 -1.39397,3.82853 -2.55854,5.47061c-1.32964,1.87484 -2.88316,3.60785 -4.59666,5.13981c-3.33612,2.98268 -7.68094,4.1943 -9.73294,8.23143c-1.69574,1.54657 -3.78306,2.66494 -5.32451,4.36534c-1.92278,2.12105 -2.71465,5.68297 -4.38923,8.04011c-2.48104,3.49232 -5.79612,7.21838 -6.35735,11.75998c-0.28243,2.28548 1.022,3.96835 0.24409,6.35529c-0.89384,2.74266 -3.71389,3.78745 -2.54667,7.10452c0.50491,1.43489 1.80961,3.05804 3.00328,4.54328c5.88796,-0.04037 11.62224,0.94534 17.52621,0.98752c5.96814,0.04264 12.15214,-0.49616 18.099,0.0184c1.36488,0.1181 2.66867,0.68884 4.03581,0.77702c4.05132,0.26131 8.57819,-0.4891 12.633,-0.71143c4.14763,-0.22742 8.19482,0.05336 12.31855,-0.15208c4.90127,1.11417 9.62933,0.44612 14.63666,0.17157c8.7919,-0.48206 17.5838,-0.96413 26.3757,-1.44619l1.25803,-0.06898zM188.4806,179.75178c-1.73114,1.17216 -2.99483,-0.08358 -3.36225,-0.52625c-0.74336,-0.1188 -1.9877,-0.57855 -2.08321,-2.32043c-0.00876,-0.15972 -0.00674,-0.30977 0.00472,-0.45075c-1.31585,-1.70567 -2.69126,-3.55524 -3.21826,-5.19367c-0.46518,-1.44624 -0.42484,-5.72889 0.2556,-7.25318c0.49697,-1.11331 1.79521,-1.75556 2.24185,-2.89c0.68426,-1.73798 -0.6466,-3.73554 -0.41078,-5.58842c0.68213,-5.3598 4.22997,-9.79126 7.20796,-13.94135c1.80777,-2.51929 2.62988,-6.11064 4.69069,-8.43057c1.47719,-1.66292 3.50847,-2.73836 5.18731,-4.19744c2.3912,-4.38594 6.6947,-5.62042 10.29538,-8.83955c1.43927,-1.28676 2.74221,-2.74215 3.86997,-4.30913c1.25608,-1.74529 1.42176,-4.16567 2.81301,-5.80523c0.88431,-1.04214 2.11525,-1.79107 3.36679,-2.34034c0.94657,-0.41542 2.14937,0.00088 3.0635,-0.48174c0.57203,-0.302 0.73948,-1.07107 0.99951,-1.66335c1.09745,-2.49971 1.55253,-5.89707 4.04195,-7.6312c0.69808,-0.48628 4.37614,-0.23628 5.66374,-0.91537c4.31869,-2.2777 4.62344,-7.34689 7.74379,-10.49977c0.62933,-0.63589 1.7936,-0.50669 2.4337,-1.13174c0.69922,-0.68278 0.91755,-1.72583 1.37632,-2.58875c1.80641,-0.79141 3.47572,-2.03924 5.41923,-2.37422c1.17855,-0.20313 2.29949,0.70877 3.4883,0.83894c2.46483,0.26988 3.51821,-0.86391 6.14742,-0.30242c4.00425,0.85515 5.73305,3.64488 8.52263,6.18887c0.82487,0.75225 1.8423,1.34438 2.45611,2.27686c3.35645,5.099 3.8199,11.73059 5.74854,17.33541c0.61465,1.78624 3.21279,5.7316 3.84301,7.14001c0.74328,1.66105 0.83863,3.58475 1.69938,5.18808c2.54189,4.73488 4.34948,8.68183 5.39617,14.05573c2.19963,4.63942 3.64224,10.21161 6.8842,14.27882c1.36015,1.70639 3.47139,2.98739 4.15327,5.06027c0.43301,1.31632 0.22773,2.76219 0.31812,4.14495c0.34975,5.3508 0.0619,10.66167 0.37552,15.95224l0.40813,0.68332c0,0 0.7156,1.80985 -0.71282,2.86722c0.1084,2.45803 -2.36134,2.59345 -2.36134,2.59345c-8.7919,0.48206 -20.56973,1.12784 -29.36163,1.60991c-5.21451,0.28591 -10.21823,0.98057 -15.33177,-0.18186c-15.59152,0.94077 -31.15291,0.21318 -46.74559,0.08523c-5.36039,-0.04399 -10.58635,-0.89295 -15.91054,-0.98771c-0.15898,0.18848 -0.36179,0.37191 -0.61763,0.54514z" fill="#000000"/><path d="M205.44844,164.50755c0,-1.38071 1.11929,-2.5 2.5,-2.5c1.38071,0 2.5,1.11929 2.5,2.5c0,1.38071 -1.11929,2.5 -2.5,2.5c-1.38071,0 -2.5,-1.11929 -2.5,-2.5z" fill="#000000"/><path d="M236.40874,166.50499c0,-1.38071 1.11929,-2.5 2.5,-2.5c1.38071,0 2.5,1.11929 2.5,2.5c0,1.38071 -1.11929,2.5 -2.5,2.5c-1.38071,0 -2.5,-1.11929 -2.5,-2.5z" fill="#000000"/><path d="M221.82744,143.53445c0,-1.38071 1.11929,-2.5 2.5,-2.5c1.38071,0 2.5,1.11929 2.5,2.5c0,1.38071 -1.11929,2.5 -2.5,2.5c-1.38071,0 -2.5,-1.11929 -2.5,-2.5z" fill="#000000"/><path d="M272.76212,160.31293c0,-1.38071 1.11929,-2.5 2.5,-2.5c1.38071,0 2.5,1.11929 2.5,2.5c0,1.38071 -1.11929,2.5 -2.5,2.5c-1.38071,0 -2.5,-1.11929 -2.5,-2.5z" fill="#000000"/><path d="M250.99004,129.35263c0,-1.38071 1.11929,-2.5 2.5,-2.5c1.38071,0 2.5,1.11929 2.5,2.5c0,1.38071 -1.11929,2.5 -2.5,2.5c-1.38071,0 -2.5,-1.11929 -2.5,-2.5z" fill="#000000"/><path d="M247.99389,144.13368c0,-1.38071 1.11929,-2.5 2.5,-2.5c1.38071,0 2.5,1.11929 2.5,2.5c0,1.38071 -1.11929,2.5 -2.5,2.5c-1.38071,0 -2.5,-1.11929 -2.5,-2.5z" fill="#000000"/><path d="M248.79286,96.3949c0,-1.38071 1.11929,-2.5 2.5,-2.5c1.38071,0 2.5,1.11929 2.5,2.5c0,1.38071 -1.11929,2.5 -2.5,2.5c-1.38071,0 -2.5,-1.11929 -2.5,-2.5z" fill="#000000"/><path d="M233.21284,118.36672c0,-1.38071 1.11929,-2.5 2.5,-2.5c1.38071,0 2.5,1.11929 2.5,2.5c0,1.38071 -1.11929,2.5 -2.5,2.5c-1.38071,0 -2.5,-1.11929 -2.5,-2.5z" fill="#000000"/><path d="M263.37416,123.75981c0,-1.38071 1.11929,-2.5 2.5,-2.5c1.38071,0 2.5,1.11929 2.5,2.5c0,1.38071 -1.11929,2.5 -2.5,2.5c-1.38071,0 -2.5,-1.11929 -2.5,-2.5z" fill="#000000"/><path d="M199.65587,144.13368c0,-1.38071 1.11929,-2.5 2.5,-2.5c1.38071,0 2.5,1.11929 2.5,2.5c0,1.38071 -1.11929,2.5 -2.5,2.5c-1.38071,0 -2.5,-1.11929 -2.5,-2.5z" fill="#000000"/><path d="M268.5675,144.93266c0,-1.38071 1.11929,-2.5 2.5,-2.5c1.38071,0 2.5,1.11929 2.5,2.5c0,1.38071 -1.11929,2.5 -2.5,2.5c-1.38071,0 -2.5,-1.11929 -2.5,-2.5z" fill="#000000"/></g></g></svg>