<svg version="1.1" xmlns="http://www.w3.org/2000/svg" xmlns:xlink="http://www.w3.org/1999/xlink" width="154.13674" height="108.96919" viewBox="0,0,154.13674,108.96919"><g transform="translate(-163.97302,-71.79286)"><g data-paper-data="{&quot;isPaintingLayer&quot;:true}" fill-rule="nonzero" stroke="none" stroke-width="0.5" stroke-linecap="butt" stroke-linejoin="miter" stroke-miterlimit="10" stroke-dasharray="" stroke-dashoffset="0" style="mix-blend-mode: normal"><path d="M292.19805,173.17272c-0.07908,-0.00618 -0.12484,-0.00614 -0.12484,-0.00614l-2.74656,0.00101c-14.35861,0.00747 -28.66838,1.02941 -43.05093,1.51399c-5.3272,0.17948 -10.55327,0.99757 -15.90118,0.9959c-7.44642,0 -15.07755,0.4243 -22.50235,-0.2466c-3.38862,-0.30619 -6.56016,-1.37964 -9.92064,-1.74434c-9.5357,-1.03486 -18.94486,-1.79618 -28.38854,-0.55366c-0.1725,-2.83094 -0.42293,-5.69357 -0.1309,-8.47729c1.57214,-14.98648 4.64366,-29.21117 12.82847,-42.07426c1.48562,-2.27973 1.67476,-5.38913 3.20468,-7.43371c1.57472,-2.10444 4.09547,-2.80537 6.46895,-3.49094c12.4301,-3.59035 15.80103,11.28857 20.6133,19.54549c1.51544,2.60021 3.63298,4.69137 5.35092,7.15314l-0.12776,0.17093c0,0 0.60321,2.42016 3.02856,1.81382c2.42535,-0.60634 1.73485,-2.97781 1.73485,-2.97781l-0.62896,-1.82961c-1.63105,-2.32355 -3.71917,-4.36657 -5.13207,-6.82658c-2.22979,-3.88232 -4.10793,-8.6746 -6.56931,-12.84484c0.29543,-0.48715 0.37995,-0.95064 0.37995,-0.95064c1.11939,-6.20845 4.83872,-11.1413 8.35602,-16.28088c1.41383,-2.06592 2.57521,-4.94461 4.12038,-6.81944c1.86195,-2.25919 4.81744,-4.17474 6.88437,-6.36347c2.93279,-3.1056 6.08327,-6.63793 9.79301,-8.77919c1.1233,0.0357 3.45766,0.0242 4.51347,0.42282c2.52963,0.95505 4.80544,3.42662 7.48335,4.06884c1.19056,0.28552 4.71809,-0.04522 6.16773,0.07322c2.54208,0.20769 5.19954,1.20319 7.57178,2.09885c10.48174,3.95745 17.42364,13.00541 25.0322,20.60629c4.08642,4.5917 2.12087,9.84929 3.96264,15.35562c0.97826,2.9247 3.5573,4.88332 5.38459,7.21308c1.61871,2.06382 2.86284,4.60309 3.93594,6.9888c2.07477,4.61264 4.38107,10.35321 4.77644,15.44308c0.25448,3.2762 0.17809,5.83772 1.04613,9.04775c0.69688,3.75824 2.50521,7.11807 3.21853,10.86842c0.14398,0.757 0.14976,1.53475 0.22452,2.30169c0.02859,0.29334 0.34607,0.74414 0.08476,0.88046c-1.18211,0.61671 -5.4989,-0.12539 -6.83497,-0.12312c-3.88959,0.00659 -7.4132,1.28715 -11.23524,1.25213l-2.74647,0.00097c0,0 -0.04577,0.00005 -0.12484,0.00623z" data-paper-data="{&quot;noHover&quot;:false,&quot;origItem&quot;:[&quot;Path&quot;,{&quot;applyMatrix&quot;:true,&quot;segments&quot;:[[621.59376,405.97754],[[627.08496,405.97754],[0,0],[7.64407,0.07005]],[[649.54895,403.48154],[-7.77918,0.01317],[2.67214,-0.00453]],[[663.2164,403.73152],[-2.36422,1.23342],[0.52262,-0.27265]],[[663.04644,401.9713],[0.05719,0.58669],[-0.14952,-1.53389]],[[662.59625,397.36979],[0.28797,1.51401],[-1.42664,-7.50069]],[[656.15442,375.64199],[1.39376,7.51648],[-1.7361,-6.42007]],[[654.05808,357.55665],[0.50897,6.5524],[-0.79073,-10.17974]],[[644.50063,326.69094],[4.14953,9.22527],[-2.14619,-4.77143]],[[636.62809,312.7244],[3.23742,4.12764],[-3.65457,-4.65951]],[[625.85976,298.31164],[1.95652,5.84941],[-3.68354,-11.01267]],[[617.94253,267.62872],[8.17284,9.1834],[-15.21712,-15.20175]],[[567.9201,226.46198],[20.96347,7.91491],[-4.74449,-1.79132]],[[552.79099,222.27098],[5.08417,0.41538],[-2.89927,-0.23687]],[[540.46759,222.12816],[2.38112,0.57104],[-5.35582,-1.28443]],[[525.51744,213.99289],[5.05927,1.9101],[-2.11163,-0.79724]],[[516.49964,213.14738],[2.2466,0.07139],[-7.41948,4.28251]],[[496.93727,230.70217],[5.86558,-6.21121],[-4.13387,4.37746]],[[483.18853,243.42115],[3.7239,-4.51838],[-3.09034,3.74965]],[[474.96389,257.04939],[2.82765,-4.13184],[-7.03461,10.27916]],[[458.28278,289.56801],[2.23879,-12.41689],[0,0]],[[457.52391,291.46635],[0.59086,-0.9743],[4.92275,8.34048]],[[470.66717,317.11434],[-4.45959,-7.76463],[2.8258,4.92003]],[[480.92198,330.73426],[-3.26209,-4.64711],[0,0]],[482.17573,334.38569],[[478.5377,340.44908],[4.85071,-1.21268],[-4.85071,1.21268]],[472.47431,336.81105],[[472.72966,336.46888],[0,0],[-3.43588,-4.92355]],[[462.01807,322.13361],[3.03089,5.20042],[-9.62453,-16.51384]],[[420.79411,282.99725],[24.86021,-7.1807],[-4.74696,1.37113]],[[408.05019,290.02697],[3.14944,-4.20889],[-3.05984,4.08916]],[[401.64256,304.88108],[2.97125,-4.55945],[-16.36962,25.72617]],[[375.974,388.97626],[3.14428,-29.97297],[-0.58405,5.56746]],[[376.23133,405.92327],[-0.345,-5.66188],[18.88736,-2.48502]],[[432.99214,407.01148],[-19.07139,-2.06972],[6.72096,0.72939]],[[452.82217,410.49128],[-6.77725,-0.61238],[14.84961,1.34179]],[[497.79221,410.96954],[-14.89284,0],[10.69581,0.00333]],[[529.56277,408.97592],[-10.6544,0.35897],[28.76509,-0.96916]],[[615.60337,405.97754],[-28.71721,0.01494],[0,0]],[621.09456,405.97754],[[621.34416,405.98991],[-0.15816,-0.01237],[0.15816,-0.01237]]],&quot;closed&quot;:true}]}" fill="#985d26"/><path d="M190.69892,109.73428c2.15033,0 2.45109,1.84956 2.49316,2.36695c7.28363,8.93591 18.11904,13.47794 28.926,16.70807c0,0 1.61435,0.48431 1.79438,1.98313c6.88079,4.38847 15.12029,6.53899 23.00722,8.20856c2.91366,0.61678 6.26235,0.34587 9.22649,0.70355c6.09227,0.73514 12.28589,1.78831 18.35935,2.73461c9.85768,-0.02349 19.96445,0.64002 29.78581,-0.21139l2.25238,-0.68886c0,0 2.39457,-0.71837 3.11293,1.6762c0.71837,2.39457 -1.6762,3.11293 -1.6762,3.11293l-2.73962,0.80874c-10.24923,0.96494 -20.8236,0.30962 -31.11656,0.28782c-18.17235,-2.76246 -38.8566,-2.53921 -54.4078,-13.42384c0,0 -0.5036,-0.35252 -0.83655,-0.95766c-11.45277,-3.61541 -22.60318,-8.82366 -30.15436,-18.52516l-0.52662,-2.28365c0,0 0,-2.5 2.5,-2.5z" fill="#72461c"/><path d="M306.27728,142.1348c2.29787,-0.9848 3.28266,1.31307 3.28266,1.31307l0.93853,2.48324c0.2729,2.76186 0.262,5.46218 0.262,8.23595c-0.00557,4.70554 0.92133,7.40479 3.74428,11.23103c1.15316,1.563 3.91805,3.69953 3.48012,6.00593c-0.31898,1.67992 -1.73811,3.12248 -3.20016,4.00921c-1.07884,0.65431 -2.51763,0.18024 -3.77864,0.22342c-2.90401,0.09945 -5.83005,0 -8.736,0c-8.93775,0 -18.16211,-0.71211 -27.00019,0.74029c-5.92474,0.0171 -11.90549,-0.23495 -17.8239,0.00635c-3.96964,0.16184 -7.7676,1.3327 -11.7312,1.4976c-5.81748,0.24203 -11.80884,-0.28848 -17.60098,0.24166c-4.99147,0.45685 -9.64886,1.0085 -14.70131,1.0085c-4.09794,0 -8.36032,0.17802 -12.41531,-0.53725c-6.01529,-1.06105 -10.77947,-4.21437 -17.03747,-4.20515c-1.67288,0.00247 -3.37496,-0.3574 -5.01843,-0.0451c-3.20562,0.60914 -5.85185,3.84795 -9.5247,1.66853c-1.24275,-0.73744 -1.64061,-2.39427 -2.2576,-3.70101c-2.07386,-4.39228 -1.31658,-10.50104 -0.87192,-15.16148c2.0794,-6.33157 6.015,-12.17742 7.76065,-18.57032c0.46239,-1.69334 0.33581,-3.50577 0.74188,-5.2135c1.3405,-5.63744 4.28499,-10.96204 7.6412,-15.60447c2.08358,-2.88209 2.84775,-4.65472 5.83605,-6.8263c0,0 22.33317,19.62819 50.88028,27.15973c29.70702,7.83756 65.68791,3.61025 66.41902,4.65469c0.77264,1.10377 -38.26449,4.19921 -69.13267,-3.5385c-26.40868,-6.61984 -45.29932,-24.17975 -45.29932,-24.17975c-2.51752,1.66761 -2.88698,3.21413 -4.64714,5.65369c-2.97352,4.12124 -5.64089,8.83826 -6.8356,13.84832c-0.41162,1.72613 -0.28923,3.55757 -0.75572,5.2697c-1.73108,6.35351 -5.59308,12.12245 -7.71454,18.37046c-0.27893,3.28635 -0.60085,6.97599 0.00747,10.24538c0.21026,1.13001 -0.03902,2.61972 0.85661,3.34011c0.83827,0.67426 1.99995,-0.79343 2.9988,-1.19297c3.15748,-1.26299 5.56337,-1.18182 8.91568,-1.17721c6.66311,0.00916 11.56727,3.19801 17.90651,4.28125c3.77265,0.64466 7.73662,0.46115 11.54627,0.46115c4.91502,0 9.3994,-0.5497 14.25228,-0.98829c5.87395,-0.53087 11.94506,-0.03224 17.84222,-0.25754c3.95417,-0.15107 7.76159,-1.32898 11.7312,-1.4976c5.84626,-0.24834 11.76657,-0.01327 17.61928,0.00636c7.92924,-1.34163 16.14564,-0.75732 24.1678,-0.75732c3.0784,0 6.15679,0 9.23519,0c0.9152,0 1.83155,-0.04581 2.7456,0c0.67282,0.03372 2.47588,0.72253 2.00679,0.23903c-4.8727,-5.02246 -7.24472,-9.60922 -7.25239,-16.70862c0,-2.60744 0.02571,-5.1435 -0.23719,-7.73844l-0.55907,-1.01116c0,0 -0.9848,-2.29786 1.31306,-3.28266z" fill="#72461c"/><path d="M204.17732,123.20667c2.01263,0.23095 6.23255,1.97027 7.48745,3.25562c0.01241,0.01271 2.14834,2.18578 2.34592,2.94489c0.33369,1.28203 -0.24945,2.70759 0.14743,3.97149c0.22544,0.71792 1.51315,-0.34252 2.24959,-0.188c1.6867,0.35392 3.60562,0.77196 5.1218,1.53005c2.85952,1.42977 5.93855,2.39158 8.83542,3.78268c0.73878,0.35476 2.46947,1.67815 3.2083,1.46728c1.56897,-0.44781 2.92011,-1.59431 4.53142,-1.851c4.86386,-0.77484 15.67076,1.49114 16.52379,1.57934c8.55701,0.88479 16.77018,0.72542 25.19589,1.91506c4.30772,0.60822 8.88483,2.36513 13.14776,2.66809c2.02519,0.14392 10.57636,-0.16526 12.54224,1.89851c2.93863,3.08496 3.28112,6.20241 4.00415,10.11234c0.92136,4.9825 9.12257,7.69136 4.95954,14.97664c-0.28409,0.49716 -1.08659,0.44738 -1.49148,0.85227c-0.40489,0.40489 -0.35511,1.20739 -0.85227,1.49148c-3.49347,1.99627 -4.15307,0.03419 -7.3682,0.03245c-10.20367,-0.00552 -18.54927,0.0602 -28.07125,0.65301c-7.16812,0.44627 -14.36379,0.09378 -21.5458,0.09579c-15.56034,0.00434 -32.15184,0.98847 -48.10611,0.45007c-0.60112,0.2199 -1.28804,0.46971 -2.02176,0.71825c-0.4325,0.35784 -0.98746,0.57288 -1.59265,0.57288c-0.0654,0 -0.13023,-0.00252 -0.19437,-0.00745c-2.43143,0.70656 -5.01995,1.16604 -6.59691,0.44511c-0.21562,-0.09857 -0.41881,-0.21456 -0.61183,-0.34485l-0.051,0.09179l-2.20275,-1.22375c-0.51573,-0.27375 -0.92419,-0.72277 -1.14599,-1.26765c-0.92211,-0.31449 -1.83186,-0.65073 -2.72169,-1.00557c-1.39969,-0.41809 -2.75921,-0.93217 -4.04379,-1.56637c-0.30565,0.11927 -0.61112,0.2701 -0.9208,0.33935c-1.50958,0.33755 -9.16546,2.01793 -10.46429,1.78133c-1.82116,-0.33175 -4.14352,-0.97586 -4.86317,-2.68139c-0.23332,-0.55295 -0.12007,-1.10516 0.14258,-1.65915c-0.16043,-0.3118 -0.25722,-0.6617 -0.27322,-1.03254c-1.15994,-1.9839 -2.02562,-3.36485 -1.72822,-6.17636c0.28316,-2.67695 2.65294,-6.28641 3.64605,-8.82468c1.79245,-4.58131 3.98483,-9.06252 5.98872,-13.58818c-0.26295,-0.06964 -0.47258,-0.15155 -0.54672,-0.24687c-3.45046,-4.43631 -3.53038,-5.5609 -0.74199,-10.4406c0.59829,-1.04701 2.84917,-1.54683 5.09104,-1.84121c0.01553,-1.66021 0.12523,-3.30178 1.38661,-4.72655c1.14594,-1.29437 2.46321,-3.03272 4.1658,-3.14263c0.11479,-0.39254 0.36058,-0.79721 0.81217,-1.17827c-0.22107,-0.53937 -0.25701,-1.23624 0.20997,-2.0768c1.2141,-2.18539 3.39951,-0.97128 3.39951,-0.97128c3.37414,1.9295 5.51144,4.90595 8.70595,7.12611l1.68117,0.81041c0,0 0.2859,0.14295 0.60213,0.42885c0.69528,-0.03115 1.38359,-0.02345 2.02384,0.05002z" fill="#72461c"/><path d="M292.28608,173.13265h2.7456c3.82204,0.03502 7.3424,-1.24141 11.23199,-1.248c1.33607,-0.00226 5.65161,0.7417 6.83373,0.12499c0.26131,-0.13632 -0.05639,-0.58677 -0.08498,-0.88011c-0.07476,-0.76694 -0.08111,-1.54375 -0.22509,-2.30075c-0.71332,-3.75035 -2.52404,-7.10566 -3.22092,-10.8639c-0.86805,-3.21004 -0.79368,-5.76647 -1.04817,-9.04267c-0.39537,-5.08987 -2.70396,-10.82022 -4.77873,-15.43285c-1.0731,-2.38572 -2.31756,-4.91945 -3.93627,-6.98327c-1.82729,-2.32976 -4.40591,-4.28168 -5.38416,-7.20638c-1.84177,-5.50634 0.1278,-10.74976 -3.95862,-15.34146c-7.60856,-7.60088 -14.52948,-16.62591 -25.01121,-20.58337c-2.37225,-0.89566 -5.02247,-1.88781 -7.56456,-2.0955c-1.44964,-0.11844 -4.97114,0.21411 -6.1617,-0.07141c-2.67791,-0.64221 -4.94544,-3.11259 -7.47508,-4.06764c-1.05581,-0.39862 -3.3856,-0.38706 -4.5089,-0.42275c-3.70974,2.14126 -6.84839,5.67179 -9.78118,8.77739c-2.06694,2.18873 -5.01242,4.1003 -6.87437,6.35949c-1.54517,1.87483 -2.6985,4.7482 -4.11232,6.81412c-3.5173,5.13958 -7.22116,10.05086 -8.34055,16.25931c0,0 -0.084,0.46202 -0.37944,0.94917c2.46138,4.17024 4.34184,8.94168 6.57163,12.824c1.4129,2.46001 3.49636,4.4864 5.12741,6.80996l0.62687,1.82572c0,0 0.60634,2.42535 -1.81902,3.03169c-2.42535,0.60634 -3.03169,-1.81901 -3.03169,-1.81901l0.12768,-0.17109c-1.71794,-2.46177 -3.84035,-4.56743 -5.35579,-7.16764c-4.81226,-8.25692 -8.18188,-23.15853 -20.61198,-19.56818c-2.37348,0.68556 -4.79724,1.41042 -6.37196,3.51486c-1.52992,2.04458 -1.71819,5.14733 -3.20381,7.42705c-8.18481,12.86309 -11.26214,27.06111 -12.83428,42.04759c-0.29202,2.78373 -0.04384,5.64256 0.12867,8.4735c9.44368,-1.24251 18.84471,-0.49076 28.3804,0.54411c3.36048,0.3647 6.52639,1.43371 9.91502,1.7399c7.4248,0.6709 15.0386,0.23913 22.48502,0.23913c5.3479,0.00167 10.55808,-0.81733 15.88528,-0.99681c14.38254,-0.48458 28.6617,-1.49172 43.0203,-1.49919h2.74559c0,0 0.04572,0 0.1248,0.00619c0.07908,-0.00618 0.1248,-0.00619 0.1248,-0.00619zM214.84268,95.84799c1.48519,-2.17112 2.7462,-5.18562 4.37408,-7.16348c1.94299,-2.3607 4.95822,-4.34874 7.10322,-6.6197c3.70099,-3.91831 7.40651,-7.66454 12.18361,-10.1922c2.64452,-0.04778 4.9063,-0.33258 7.4719,0.57565c2.31737,0.82035 4.60169,3.35463 7.00172,3.91956c1.72628,0.40634 3.55376,-0.23242 5.31989,-0.07141c3.01344,0.27472 6.0935,1.31643 8.90904,2.39729c11.25543,4.32089 18.70299,13.63822 26.90557,21.84862c1.86542,2.15877 2.53534,2.5495 3.53427,5.38942c1.31205,3.73012 0.35523,7.92015 1.49272,11.71711c0.65473,2.1855 3.26648,4.04639 4.59983,5.77282c1.85323,2.39957 3.30751,5.2325 4.55012,7.99273c2.31465,5.14155 4.70561,11.34685 5.20527,17.01513c0.28168,3.19548 0.09658,5.33327 0.94863,8.42932c0.83934,4.72 4.36925,9.86289 3.54278,14.79054c-0.24293,1.44841 -0.47327,3.14943 -1.58258,4.11189c-1.54329,1.33899 -5.39857,1.12041 -7.39347,1.12339c-4.80919,0.00719 -9.24926,1.21401 -13.9776,1.248h-2.7456c0,0 -0.04572,0 -0.1248,-0.00618c-0.07908,0.00618 -0.1248,0.00618 -0.1248,0.00618h-2.74559c-14.29861,-0.007 -28.51649,1.02396 -42.84207,1.49601c-5.38486,0.17744 -10.65567,0.99838 -16.06351,0.99999c-7.59906,0 -15.36595,0.4325 -22.94216,-0.26007c-3.43711,-0.3142 -6.65099,-1.39517 -10.05298,-1.7545c-9.47369,-1.00066 -18.78237,-1.80045 -28.16095,-0.40774c-0.35599,0.49961 -0.96179,0.92471 -1.99268,0.92471c-0.87016,0 -1.43745,-0.30288 -1.80729,-0.69778c-0.5999,-0.23731 -1.1948,-0.75327 -1.39869,-1.8407c-0.20596,-1.09849 0.17123,-1.79797 0.65134,-2.23566c-0.14876,-3.39108 -0.52754,-6.82649 -0.18423,-10.18761c1.61281,-15.79015 5.00905,-30.77856 13.62331,-44.31397c2.70502,-3.93852 2.35548,-7.53771 6.67204,-10.68176c1.71123,-1.24641 3.73056,-1.77533 5.71698,-2.33792c2.89956,-0.82121 3.3104,-1.10503 6.36996,-0.83809c4.10969,0.35856 7.17731,2.18705 9.64136,4.78296c1.72625,-5.47625 5.01415,-10.09788 8.32137,-14.93253z" fill="#000000"/></g></g></svg>