<svg version="1.1" xmlns="http://www.w3.org/2000/svg" xmlns:xlink="http://www.w3.org/1999/xlink" width="154.13674" height="108.96919" viewBox="0,0,154.13674,108.96919"><g transform="translate(-161.57474,-73.46719)"><g data-paper-data="{&quot;isPaintingLayer&quot;:true}" fill-rule="nonzero" stroke="none" stroke-width="0.5" stroke-linecap="butt" stroke-linejoin="miter" stroke-miterlimit="10" stroke-dasharray="" stroke-dashoffset="0" style="mix-blend-mode: normal"><path d="M289.88779,174.80697h2.7456c3.82204,0.03502 7.3424,-1.24141 11.23199,-1.248c1.33607,-0.00226 5.65161,0.7417 6.83373,0.12499c0.26131,-0.13632 -0.05639,-0.58677 -0.08498,-0.88011c-0.07476,-0.76694 -0.08111,-1.54375 -0.22509,-2.30075c-0.71332,-3.75035 -2.52404,-7.10566 -3.22092,-10.8639c-0.86805,-3.21004 -0.79368,-5.76647 -1.04817,-9.04267c-0.39537,-5.08987 -2.70396,-10.82022 -4.77873,-15.43285c-1.0731,-2.38572 -2.31756,-4.91945 -3.93627,-6.98327c-1.82729,-2.32976 -4.40591,-4.28168 -5.38416,-7.20638c-1.84177,-5.50634 0.1278,-10.74976 -3.95862,-15.34146c-7.60856,-7.60088 -14.52948,-16.62591 -25.01121,-20.58337c-2.37225,-0.89566 -5.02247,-1.88781 -7.56456,-2.0955c-1.44964,-0.11844 -4.97114,0.21411 -6.1617,-0.07141c-2.67791,-0.64221 -4.94544,-3.11259 -7.47508,-4.06764c-1.05581,-0.39862 -3.3856,-0.38706 -4.5089,-0.42275c-3.70974,2.14126 -6.84839,5.67179 -9.78118,8.77739c-2.06694,2.18873 -5.01242,4.1003 -6.87437,6.35949c-1.54517,1.87483 -2.6985,4.7482 -4.11232,6.81412c-3.5173,5.13958 -7.22116,10.05086 -8.34055,16.25931c0,0 -0.084,0.46202 -0.37944,0.94917c2.46138,4.17024 4.34184,8.94168 6.57163,12.824c1.4129,2.46001 3.49636,4.4864 5.12741,6.80996l0.62687,1.82572c0,0 0.60634,2.42535 -1.81902,3.03169c-2.42535,0.60634 -3.03169,-1.81901 -3.03169,-1.81901l0.12768,-0.17109c-1.71794,-2.46177 -3.84035,-4.56743 -5.35579,-7.16764c-4.81226,-8.25692 -8.18188,-23.15853 -20.61198,-19.56818c-2.37348,0.68556 -4.79724,1.41042 -6.37196,3.51486c-1.52992,2.04458 -1.71819,5.14733 -3.20381,7.42705c-8.18481,12.86309 -11.26214,27.06111 -12.83428,42.04759c-0.29202,2.78373 -0.04384,5.64256 0.12867,8.4735c9.44368,-1.24251 18.84471,-0.49076 28.3804,0.54411c3.36048,0.3647 6.52639,1.43371 9.91502,1.7399c7.4248,0.6709 15.0386,0.23913 22.48502,0.23913c5.3479,0.00167 10.55808,-0.81733 15.88528,-0.99681c14.38254,-0.48458 28.6617,-1.49172 43.0203,-1.49919h2.74559c0,0 0.04572,0 0.1248,0.00619c0.07908,-0.00618 0.1248,-0.00619 0.1248,-0.00619zM212.4444,97.52231c1.48519,-2.17112 2.7462,-5.18562 4.37408,-7.16348c1.94299,-2.3607 4.95822,-4.34874 7.10322,-6.6197c3.70099,-3.91831 7.40651,-7.66454 12.18361,-10.1922c2.64452,-0.04778 4.9063,-0.33258 7.4719,0.57565c2.31737,0.82035 4.60169,3.35463 7.00172,3.91956c1.72628,0.40634 3.55376,-0.23242 5.31989,-0.07141c3.01344,0.27472 6.0935,1.31643 8.90904,2.39729c11.25543,4.32089 18.70299,13.63822 26.90557,21.84862c1.86542,2.15877 2.53534,2.5495 3.53427,5.38942c1.31205,3.73012 0.35523,7.92015 1.49272,11.71711c0.65473,2.1855 3.26648,4.04639 4.59983,5.77282c1.85323,2.39957 3.30751,5.2325 4.55012,7.99273c2.31465,5.14155 4.70561,11.34685 5.20527,17.01513c0.28168,3.19548 0.09658,5.33327 0.94863,8.42932c0.83934,4.72 4.36925,9.86289 3.54278,14.79054c-0.24293,1.44841 -0.47327,3.14943 -1.58258,4.11189c-1.54329,1.33899 -5.39857,1.12041 -7.39347,1.12339c-4.80919,0.00719 -9.24926,1.21401 -13.9776,1.248h-2.7456c0,0 -0.04572,0 -0.1248,-0.00618c-0.07908,0.00618 -0.1248,0.00618 -0.1248,0.00618h-2.74559c-14.29861,-0.007 -28.51649,1.02396 -42.84207,1.49601c-5.38486,0.17744 -10.65567,0.99838 -16.06351,0.99999c-7.59906,0 -15.36595,0.4325 -22.94216,-0.26007c-3.43711,-0.3142 -6.65099,-1.39517 -10.05298,-1.7545c-9.47369,-1.00066 -18.78237,-1.80045 -28.16095,-0.40774c-0.35599,0.49961 -0.96179,0.92471 -1.99268,0.92471c-0.87016,0 -1.43745,-0.30288 -1.80729,-0.69778c-0.5999,-0.23731 -1.1948,-0.75327 -1.39869,-1.8407c-0.20596,-1.09849 0.17123,-1.79797 0.65134,-2.23566c-0.14876,-3.39108 -0.52754,-6.82649 -0.18423,-10.18761c1.61281,-15.79015 5.00905,-30.77856 13.62331,-44.31397c2.70502,-3.93852 2.35548,-7.53771 6.67204,-10.68176c1.71123,-1.24641 3.73056,-1.77533 5.71698,-2.33792c2.89956,-0.82121 3.3104,-1.10503 6.36996,-0.83809c4.10969,0.35856 7.17731,2.18705 9.64136,4.78296c1.72625,-5.47625 5.01415,-10.09788 8.32137,-14.93253z" fill="#000000"/><path d="M289.92461,174.84081c0,0 -0.04576,0.00006 -0.12484,0.00624c-0.07908,-0.00619 -0.12484,-0.00615 -0.12484,-0.00615l-2.74655,0.00101c-14.3586,0.00747 -28.66839,1.02941 -43.05093,1.51399c-5.3272,0.17948 -10.55328,0.99757 -15.90118,0.9959c-7.44642,0 -15.07754,0.42431 -22.50234,-0.24659c-3.38863,-0.30619 -6.56017,-1.37964 -9.92065,-1.74434c-9.53569,-1.03487 -18.94485,-1.79618 -28.38853,-0.55367c-0.17251,-2.83094 -0.42294,-5.69356 -0.13092,-8.47729c1.57214,-14.98648 4.64366,-29.21117 12.82847,-42.07426c1.48562,-2.27972 1.67475,-5.38912 3.20467,-7.4337c1.57472,-2.10444 4.09547,-2.80538 6.46895,-3.49094c12.4301,-3.59035 15.80104,11.28858 20.6133,19.5455c1.51544,2.60021 3.63297,4.69137 5.35091,7.15314l-0.12776,0.17093c0,0 0.60321,2.42015 3.02856,1.81381c2.42536,-0.60634 1.73484,-2.97781 1.73484,-2.97781l-0.62895,-1.82961c-1.63105,-2.32356 -3.71918,-4.36657 -5.13208,-6.82658c-2.22979,-3.88232 -4.10792,-8.67461 -6.5693,-12.84485c0.29544,-0.48715 0.37996,-0.95064 0.37996,-0.95064c1.11939,-6.20845 4.83871,-11.14129 8.35601,-16.28087c1.41382,-2.06592 2.57522,-4.94461 4.12039,-6.81944c1.86195,-2.25919 4.81743,-4.17474 6.88437,-6.36347c2.93279,-3.1056 6.08327,-6.63793 9.79301,-8.77919c1.1233,0.03569 3.45766,0.0242 4.51347,0.42282c2.52964,0.95505 4.80545,3.42663 7.48336,4.06884c1.19056,0.28552 4.71809,-0.04523 6.16773,0.07321c2.54209,0.20769 5.19954,1.20319 7.57179,2.09885c10.48173,3.95746 17.42363,13.00541 25.03219,20.60629c4.08642,4.5917 2.12088,9.84928 3.96265,15.35562c0.97825,2.9247 3.55729,4.88332 5.38458,7.21308c1.61871,2.06382 2.86284,4.60309 3.93594,6.98881c2.07477,4.61263 4.38107,10.3532 4.77644,15.44307c0.25449,3.2762 0.17809,5.83771 1.04614,9.04775c0.69688,3.75824 2.50521,7.11807 3.21853,10.86842c0.14398,0.757 0.14976,1.53475 0.22452,2.30169c0.02859,0.29334 0.34607,0.74414 0.08476,0.88046c-1.18212,0.61671 -5.49891,-0.12538 -6.83498,-0.12312c-3.88959,0.00659 -7.41319,1.28715 -11.23523,1.25213l-2.74647,0.00097z" data-paper-data="{&quot;noHover&quot;:false,&quot;origItem&quot;:[&quot;Path&quot;,{&quot;applyMatrix&quot;:true,&quot;segments&quot;:[[310.79688,202.98878],[[313.54248,202.98878],[0,0],[3.82204,0.03502]],[[324.77447,201.74078],[-3.88959,0.00659],[1.33607,-0.00226]],[[331.6082,201.86577],[-1.18212,0.61671],[0.26131,-0.13632]],[[331.52322,200.98566],[0.02859,0.29334],[-0.07476,-0.76694]],[[331.29813,198.68491],[0.14398,0.757],[-0.71332,-3.75035]],[[328.07721,187.82101],[0.69688,3.75824],[-0.86805,-3.21004]],[[327.02904,178.77834],[0.25449,3.2762],[-0.39537,-5.08987]],[[322.25031,163.34549],[2.07477,4.61263],[-1.0731,-2.38572]],[[318.31404,156.36222],[1.61871,2.06382],[-1.82729,-2.32976]],[[312.92988,149.15584],[0.97825,2.9247],[-1.84177,-5.50634]],[[308.97126,133.81438],[4.08642,4.5917],[-7.60856,-7.60088]],[[283.96005,113.23101],[10.48173,3.95746],[-2.37225,-0.89566]],[[276.39549,111.13551],[2.54209,0.20769],[-1.44964,-0.11844]],[[270.23379,111.0641],[1.19056,0.28552],[-2.67791,-0.64221]],[[262.75871,106.99646],[2.52964,0.95505],[-1.05581,-0.39862]],[[258.24981,106.57371],[1.1233,0.03569],[-3.70974,2.14126]],[[248.46863,115.3511],[2.93279,-3.1056],[-2.06694,2.18873]],[[241.59426,121.71059],[1.86195,-2.25919],[-1.54517,1.87483]],[[237.48194,128.52471],[1.41382,-2.06592],[-3.5173,5.13958]],[[229.14139,144.78402],[1.11939,-6.20845],[0,0]],[[228.76195,145.73319],[0.29544,-0.48715],[2.46138,4.17024]],[[235.33358,158.55719],[-2.22979,-3.88232],[1.4129,2.46001]],[[240.46099,165.36715],[-1.63105,-2.32356],[0,0]],[241.08786,167.19287],[[239.26884,170.22456],[2.42536,-0.60634],[-2.42535,0.60634]],[236.23715,168.40555],[[236.36483,168.23446],[0,0],[-1.71794,-2.46177]],[[231.00904,161.06682],[1.51544,2.60021],[-4.81226,-8.25692]],[[210.39706,141.49864],[12.4301,-3.59035],[-2.37348,0.68556]],[[204.0251,145.0135],[1.57472,-2.10444],[-1.52992,2.04458]],[[200.82129,152.44055],[1.48562,-2.27972],[-8.18481,12.86309]],[[187.98701,194.48814],[1.57214,-14.98648],[-0.29202,2.78373]],[[188.11568,202.96164],[-0.17251,-2.83094],[9.44368,-1.24251]],[[216.49608,203.50575],[-9.53569,-1.03487],[3.36048,0.3647]],[[226.4111,205.24565],[-3.38863,-0.30619],[7.4248,0.6709]],[[248.89612,205.48478],[-7.44642,0],[5.3479,0.00167]],[[264.7814,204.48797],[-5.3272,0.17948],[14.38254,-0.48458]],[[307.8017,202.98878],[-14.3586,0.00747],[0,0]],[310.54729,202.98878],[[310.67209,202.99497],[-0.07908,-0.00619],[0.07908,-0.00618]],[310.79689,202.98878]],&quot;closed&quot;:true,&quot;fillColor&quot;:[0,0,0,1]}]}" fill="#ff0000"/></g></g></svg>