<svg version="1.1" xmlns="http://www.w3.org/2000/svg" xmlns:xlink="http://www.w3.org/1999/xlink" width="154.13674" height="108.96919" viewBox="0,0,154.13674,108.96919"><g transform="translate(-162.29463,-74.73007)"><g data-paper-data="{&quot;isPaintingLayer&quot;:true}" fill-rule="nonzero" stroke="none" stroke-width="0.5" stroke-linecap="butt" stroke-linejoin="miter" stroke-miterlimit="10" stroke-dasharray="" stroke-dashoffset="0" style="mix-blend-mode: normal"><path d="M290.64451,176.10369c0,0 -0.04576,0.00006 -0.12484,0.00624c-0.07908,-0.00619 -0.12484,-0.00615 -0.12484,-0.00615l-2.74655,0.00101c-14.3586,0.00747 -28.66839,1.02941 -43.05093,1.51399c-5.3272,0.17948 -10.55328,0.99757 -15.90118,0.9959c-7.44642,0 -15.07754,0.42431 -22.50234,-0.24659c-3.38863,-0.30619 -6.56017,-1.37964 -9.92065,-1.74434c-9.53569,-1.03487 -18.94485,-1.79618 -28.38853,-0.55367c-0.17251,-2.83094 -0.42294,-5.69356 -0.13092,-8.47729c1.57214,-14.98648 4.64366,-29.21117 12.82847,-42.07426c1.48562,-2.27972 1.67475,-5.38912 3.20467,-7.4337c1.57472,-2.10444 4.09547,-2.80538 6.46895,-3.49094c12.4301,-3.59035 15.80104,11.28858 20.6133,19.5455c1.51544,2.60021 3.63297,4.69137 5.35091,7.15314l-0.12776,0.17093c0,0 0.60321,2.42015 3.02856,1.81381c2.42536,-0.60634 1.73484,-2.97781 1.73484,-2.97781l-0.62895,-1.82961c-1.63105,-2.32356 -3.71918,-4.36657 -5.13208,-6.82658c-2.22979,-3.88232 -4.10792,-8.67461 -6.5693,-12.84485c0.29544,-0.48715 0.37996,-0.95064 0.37996,-0.95064c1.11939,-6.20845 4.83871,-11.14129 8.35601,-16.28087c1.41382,-2.06592 2.57522,-4.94461 4.12039,-6.81944c1.86195,-2.25919 4.81743,-4.17474 6.88437,-6.36347c2.93279,-3.1056 6.08327,-6.63793 9.79301,-8.77919c1.1233,0.03569 3.45766,0.0242 4.51347,0.42282c2.52964,0.95505 4.80545,3.42663 7.48336,4.06884c1.19056,0.28552 4.71809,-0.04523 6.16773,0.07321c2.54209,0.20769 5.19954,1.20319 7.57179,2.09885c10.48173,3.95746 17.42363,13.00541 25.03219,20.60629c4.08642,4.5917 2.12088,9.84928 3.96265,15.35562c0.97825,2.9247 3.55729,4.88332 5.38458,7.21308c1.61871,2.06382 2.86284,4.60309 3.93594,6.98881c2.07477,4.61263 4.38107,10.3532 4.77644,15.44307c0.25449,3.2762 0.17809,5.83771 1.04614,9.04775c0.69688,3.75824 2.50521,7.11807 3.21853,10.86842c0.14398,0.757 0.14976,1.53475 0.22452,2.30169c0.02859,0.29334 0.34607,0.74414 0.08476,0.88046c-1.18212,0.61671 -5.49891,-0.12538 -6.83498,-0.12312c-3.88959,0.00659 -7.41319,1.28715 -11.23523,1.25213l-2.74647,0.00097z" data-paper-data="{&quot;noHover&quot;:false,&quot;origItem&quot;:[&quot;Path&quot;,{&quot;applyMatrix&quot;:true,&quot;selected&quot;:true,&quot;segments&quot;:[[310.79688,202.98877],[[313.54248,202.98877],[0,0],[3.82204,0.03502]],[[324.77447,201.74077],[-3.88959,0.00659],[1.33607,-0.00226]],[[331.6082,201.86576],[-1.18212,0.61671],[0.26131,-0.13632]],[[331.52322,200.98565],[0.02859,0.29334],[-0.07476,-0.76694]],[[331.29813,198.6849],[0.14398,0.757],[-0.71332,-3.75035]],[[328.07721,187.821],[0.69688,3.75824],[-0.86805,-3.21004]],[[327.02904,178.77833],[0.25449,3.2762],[-0.39537,-5.08987]],[[322.25031,163.34548],[2.07477,4.61263],[-1.0731,-2.38572]],[[318.31404,156.36221],[1.61871,2.06382],[-1.82729,-2.32976]],[[312.92988,149.15583],[0.97825,2.9247],[-1.84177,-5.50634]],[[308.97126,133.81437],[4.08642,4.5917],[-7.60856,-7.60088]],[[283.96005,113.231],[10.48173,3.95746],[-2.37225,-0.89566]],[[276.39549,111.1355],[2.54209,0.20769],[-1.44964,-0.11844]],[[270.23379,111.06409],[1.19056,0.28552],[-2.67791,-0.64221]],[[262.75871,106.99645],[2.52964,0.95505],[-1.05581,-0.39862]],[[258.24981,106.5737],[1.1233,0.03569],[-3.70974,2.14126]],[[248.46863,115.35109],[2.93279,-3.1056],[-2.06694,2.18873]],[[241.59426,121.71058],[1.86195,-2.25919],[-1.54517,1.87483]],[[237.48194,128.5247],[1.41382,-2.06592],[-3.5173,5.13958]],[[229.14139,144.78401],[1.11939,-6.20845],[0,0]],[[228.76195,145.73318],[0.29544,-0.48715],[2.46138,4.17024]],[[235.33358,158.55718],[-2.22979,-3.88232],[1.4129,2.46001]],[[240.46099,165.36714],[-1.63105,-2.32356],[0,0]],[241.08786,167.19286],[[239.26884,170.22455],[2.42536,-0.60634],[-2.42535,0.60634]],[236.23715,168.40554],[[236.36483,168.23445],[0,0],[-1.71794,-2.46177]],[[231.00904,161.06681],[1.51544,2.60021],[-4.81226,-8.25692]],[[210.39706,141.49863],[12.4301,-3.59035],[-2.37348,0.68556]],[[204.0251,145.01349],[1.57472,-2.10444],[-1.52992,2.04458]],[[200.82129,152.44054],[1.48562,-2.27972],[-8.18481,12.86309]],[[187.98701,194.48813],[1.57214,-14.98648],[-0.29202,2.78373]],[[188.11568,202.96163],[-0.17251,-2.83094],[9.44368,-1.24251]],[[216.49608,203.50574],[-9.53569,-1.03487],[3.36048,0.3647]],[[226.4111,205.24564],[-3.38863,-0.30619],[7.4248,0.6709]],[[248.89612,205.48477],[-7.44642,0],[5.3479,0.00167]],[[264.7814,204.48796],[-5.3272,0.17948],[14.38254,-0.48458]],[[307.8017,202.98877],[-14.3586,0.00747],[0,0]],[310.54729,202.98877],[[310.67209,202.99496],[-0.07908,-0.00619],[0.07908,-0.00618]],[310.79689,202.98877]],&quot;closed&quot;:true,&quot;fillColor&quot;:[0,0,0,1]}]}" fill="#3b3b3b"/><g><g><path d="M305.37412,155.52289l-1.96713,-0.38683c-5.68872,-2.71284 -11.96367,-3.65279 -18.26924,-4.40711c4.11751,-0.00472 8.2354,-0.06665 12.35268,-0.02376c0.15285,0.00159 0.30644,0.00574 0.46071,0.01222c0.664,0.40257 1.3786,0.73004 2.13202,0.97062c0.8469,0.27043 1.74284,0.43107 2.6711,0.4652c1.94179,0.86931 3.5231,1.8034 5.02703,2.40672c-0.81197,1.19083 -2.40716,0.96295 -2.40716,0.96295z" fill="#73291d"/><g fill="#202020"><path d="M249.62703,179.18869l-2.01317,0.59553c-1.17234,0.24527 -2.33836,0.39593 -3.50415,0.48716c-4.15981,-1.40017 -9.61047,-0.79823 -13.45113,-0.82322c-0.5068,-0.0033 -1.01509,-0.00351 -1.5247,-0.00105c-0.09062,-0.11312 -0.17161,-0.2343 -0.24173,-0.36227c-0.91027,0.13079 -1.83003,0.25688 -2.76477,0.3712c-0.11876,0.01452 -0.23749,0.02836 -0.35618,0.04152c-2.17702,0.0519 -4.37169,0.13605 -6.57222,0.22214c-2.55133,-0.04329 -5.10059,-0.15792 -7.6649,-0.06342c-2.82649,0.10416 -5.70627,0.46407 -8.52586,-0.03651c-0.40353,-0.07164 -0.80602,-0.15835 -1.20762,-0.25643c-0.29647,0.08575 -0.59517,0.16775 -0.89399,0.24432c-2.29752,-0.37537 -4.54698,-0.83596 -6.93952,-0.40568l-1.588,-0.88222c-0.51573,-0.27375 -0.92419,-0.72277 -1.14599,-1.26765c-0.41446,-0.14135 -0.82641,-0.28709 -1.23519,-0.43695c-4.62535,-0.22118 -9.4741,0.36952 -13.95044,0.49577c-1.85287,0.05226 -3.72628,0.9459 -5.53463,0.53884c-1.59204,-0.35836 -3.4952,-0.83232 -4.36773,-2.21134c-0.75548,-1.19403 0.12453,-2.82586 0.29296,-4.22875c0.08789,-0.73199 0.26696,-1.44583 0.47703,-2.15382c-0.48543,-1.11044 -0.73573,-2.29212 -0.5546,-4.00445c0.13644,-1.28983 0.75729,-2.79616 1.47518,-4.29483c-0.22795,-1.92149 -0.44744,-3.83579 0.15384,-5.53524c0.36483,-1.03114 1.28716,-1.76372 1.96659,-2.62637c-0.06804,-2.68931 -0.06214,-5.50286 0.7548,-7.90309c0.58635,-1.72276 1.91739,-3.11685 2.57718,-4.81284c0.05034,-0.1294 0.10021,-0.25923 0.14973,-0.38939c-1.2889,-2.36814 -0.79784,-3.92205 1.26873,-7.53858c0.47593,-0.83289 1.99763,-1.3195 3.72865,-1.63189c2.13924,-3.71399 0.98222,-7.7057 5.09553,-10.54378c0.8375,-0.57785 1.88603,-0.7643 2.82905,-1.14644c0,0 0.11653,-0.04482 0.30752,-0.08839c0.14991,-0.18852 0.30887,-0.33919 0.47253,-0.45839c1.58545,1.49635 4.32941,3.87494 6.29486,4.92401c0.56634,0.30228 2.13676,0.42771 2.47399,1.11694c0.99973,2.04331 4.11025,4.96836 5.70983,6.33942c0.70652,0.60559 3.30839,1.04047 3.67883,1.91059c3.68763,8.66186 12.27633,6.34223 19.7077,8.66893c1.49777,0.46894 2.80977,0.68091 4.14397,0.77645c0.80923,0.44751 2.34669,1.5707 3.03165,1.3752c0.91414,-0.26091 1.75434,-0.75901 2.61513,-1.1801c1.54921,0.34699 3.07209,1.36326 4.64189,1.50869c5.52011,0.51138 10.95817,1.54706 16.51584,2.06637l0.01115,0.01951c0.76189,1.3333 4.39143,1.36582 6.1805,1.56371c6.37152,0.70475 12.43897,3.73093 18.89972,3.81911c5.5766,0.07612 11.15454,-0.05809 16.73136,0c0.15285,0.00159 0.30644,0.00574 0.46071,0.01222c0.664,0.40257 1.3786,0.73004 2.13202,0.97062c0.8469,0.27043 1.74284,0.43107 2.6711,0.4652c1.50251,0.67265 2.78919,1.38409 3.9912,1.95106c0.49261,1.58377 0.75053,3.26511 1.09464,5.12596c0.92136,4.9825 9.12257,7.69136 4.95954,14.97664c-0.28409,0.49716 -1.08659,0.44738 -1.49148,0.85227c-0.40489,0.40489 -0.35511,1.20739 -0.85227,1.49148c-3.49347,1.99627 -4.15307,0.03419 -7.3682,0.03245c-10.20367,-0.00552 -18.54927,0.0602 -28.07125,0.65301c-7.16812,0.44627 -14.36379,0.09378 -21.5458,0.09579c-0.80706,0.00023 -1.61689,0.00309 -2.42926,0.00824c-0.39301,1.17061 -1.70018,1.56276 -1.70018,1.56276z"/></g></g><path d="M309.96073,157.49579c1.11473,1.27021 2.02904,2.12361 2.40043,3.79487c0.1768,0.79562 -0.29632,3.26805 0.37844,3.91175c4.14701,3.95605 3.55517,13.19833 -3.09398,14.86062c-8.19052,2.04763 -17.99955,-1.31307 -26.45028,-0.93628c-8.34377,0.37202 -16.91346,3.3744 -25.46666,1.2361l-0.40069,-0.03082c-0.08853,-0.02951 -0.17435,-0.06296 -0.25739,-0.10004c-3.37471,0.72555 -8.357,0.27502 -9.61892,0.22833c-1.28849,-0.04767 -1.87187,-0.01954 -2.62334,-0.08459c-4.25122,-1.89426 -10.29714,-1.18635 -14.45559,-1.21341c-3.7633,-0.02449 -7.60833,0.12086 -11.47136,0.272c-6.35145,-0.08225 -12.71458,-0.17926 -19.06719,-0.24315c-2.3301,-0.38895 -4.63304,-0.75055 -7.11044,-0.05522c-0.73898,-0.00378 -1.4777,-0.00688 -2.21613,-0.0092c-7.50108,-0.0236 -15.00806,-0.31129 -22.53175,-0.40007c-0.6453,-0.00762 -2.55866,-0.49132 -2.68533,-1.12469l-0.61481,-1.64202c0.13439,-0.16616 0.26896,-0.32247 0.40383,-0.46943c-1.40474,-3.30129 -0.08645,-11.57873 -0.24608,-13.63066c-0.07676,-0.98674 0.90877,-1.65955 0.9091,-2.6263c0.00383,-11.11583 3.92969,-21.98997 7.64715,-32.39885c0.52429,-1.468 2.25133,-2.52354 2.84626,-3.95981c1.37825,-3.3274 4.271,-4.80306 6.02754,-7.49194c0.09518,-0.14569 0.41901,-0.51611 0.79278,-0.92509c0.38688,0.45247 0.85213,0.88077 1.33252,1.28579c0.66705,0.7421 1.44353,1.38386 2.30405,1.89986c0.15417,0.14697 0.32126,0.30404 0.49915,0.46881c-0.12686,-0.0212 -0.25834,-0.04337 -0.39145,-0.06699c-2.77558,3.04985 -8.01069,7.16016 -8.92479,11.14299c-0.97778,4.26027 -2.62658,8.5365 -3.73522,12.76164c-0.4683,1.78473 -1.87007,3.93472 -2.19775,5.71946c-1.40517,7.65342 -1.76857,15.37133 -2.53379,23.08958c-0.06927,0.69873 0.00036,1.65865 -0.02569,2.6103c2.26804,-0.15164 4.85148,0.62022 8.11765,0.62406c6.57696,0.00773 13.11922,0.15816 19.68013,0.13336c9.90283,-0.03743 19.2224,0.21647 29.07187,0.26671c7.67662,0.03916 15.07869,1.00282 22.67583,1.20021c2.45881,0.06389 6.80479,-1.42426 9.20294,-0.94908c0.32217,0.06384 0.62759,0.20144 0.9029,0.39291c4.32899,-0.44429 10.50494,0.7262 14.13098,0.68953c7.48508,-0.07571 14.01113,-2.385 22.30387,-1.1662c2.35744,0.34648 11.27485,1.8039 12.5607,0.71973c5.47036,-4.61233 0.82316,-4.92449 -0.08707,-8.56539c-0.28275,-1.13102 0.04107,-3.79873 -0.50786,-4.5946c-0.57836,-0.83854 -1.7638,-1.36467 -2.07726,-2.37902c-0.37441,-1.2116 -0.15305,-5.31059 -0.81313,-5.71527c-1.00333,-0.61511 -5.11385,-2.01672 -7.74162,-3.22253c-0.29144,0.11902 -0.61036,0.18462 -0.94461,0.18462c-0.20062,0 -0.39571,-0.02363 -0.58266,-0.06826c-1.70693,0.48152 -3.76109,0.24095 -5.86943,-0.20988c2.69469,-0.0163 5.3894,-0.03313 8.08384,-0.00506c0.15285,0.00159 0.30644,0.00574 0.46071,0.01222c0.664,0.40257 1.3786,0.73004 2.13202,0.97062c0.8469,0.27043 1.74284,0.43107 2.6711,0.4652c2.64306,1.18327 4.61826,2.48654 6.63953,2.91233c0.04908,1.02482 0.1457,1.95022 0.56695,2.43024z" fill="#000000"/><path d="M212.91048,138.98623c-0.65742,-0.03398 -1.28167,-0.23748 -1.74194,-0.64243c-0.26945,-0.12855 -0.51227,-0.30392 -0.71794,-0.51558c1.51862,0.68381 3.19413,1.05688 4.94499,1.32961c-0.82113,-0.07047 -1.64869,-0.12837 -2.4851,-0.1716z" fill="#000000"/></g><path d="M290.60769,176.06985h2.7456c3.82204,0.03502 7.3424,-1.24141 11.23199,-1.248c1.33607,-0.00226 5.65161,0.7417 6.83373,0.12499c0.26131,-0.13632 -0.05639,-0.58677 -0.08498,-0.88011c-0.07476,-0.76694 -0.08111,-1.54375 -0.22509,-2.30075c-0.71332,-3.75035 -2.52404,-7.10566 -3.22092,-10.8639c-0.86805,-3.21004 -0.79368,-5.76647 -1.04817,-9.04267c-0.39537,-5.08987 -2.70396,-10.82022 -4.77873,-15.43285c-1.0731,-2.38572 -2.31756,-4.91945 -3.93627,-6.98327c-1.82729,-2.32976 -4.40591,-4.28168 -5.38416,-7.20638c-1.84177,-5.50634 0.1278,-10.74976 -3.95862,-15.34146c-7.60856,-7.60088 -14.52948,-16.62591 -25.01121,-20.58337c-2.37225,-0.89566 -5.02247,-1.88781 -7.56456,-2.0955c-1.44964,-0.11844 -4.97114,0.21411 -6.1617,-0.07141c-2.67791,-0.64221 -4.94544,-3.11259 -7.47508,-4.06764c-1.05581,-0.39862 -3.3856,-0.38706 -4.5089,-0.42275c-3.70974,2.14126 -6.84839,5.67179 -9.78118,8.77739c-2.06694,2.18873 -5.01242,4.1003 -6.87437,6.35949c-1.54517,1.87483 -2.6985,4.7482 -4.11232,6.81412c-3.5173,5.13958 -7.22116,10.05086 -8.34055,16.25931c0,0 -0.084,0.46202 -0.37944,0.94917c2.46138,4.17024 4.34184,8.94168 6.57163,12.824c1.4129,2.46001 3.49636,4.4864 5.12741,6.80996l0.62687,1.82572c0,0 0.60634,2.42535 -1.81902,3.03169c-2.42535,0.60634 -3.03169,-1.81901 -3.03169,-1.81901l0.12768,-0.17109c-1.71794,-2.46177 -3.84035,-4.56743 -5.35579,-7.16764c-4.81226,-8.25692 -8.18188,-23.15853 -20.61198,-19.56818c-2.37348,0.68556 -4.79724,1.41042 -6.37196,3.51486c-1.52992,2.04458 -1.71819,5.14733 -3.20381,7.42705c-8.18481,12.86309 -11.26214,27.06111 -12.83428,42.04759c-0.29202,2.78373 -0.04384,5.64256 0.12867,8.4735c9.44368,-1.24251 18.84471,-0.49076 28.3804,0.54411c3.36048,0.3647 6.52639,1.43371 9.91502,1.7399c7.4248,0.6709 15.0386,0.23913 22.48502,0.23913c5.3479,0.00167 10.55808,-0.81733 15.88528,-0.99681c14.38254,-0.48458 28.6617,-1.49172 43.0203,-1.49919h2.74559c0,0 0.04572,0 0.1248,0.00619c0.07908,-0.00618 0.1248,-0.00619 0.1248,-0.00619zM213.16429,98.78519c1.48519,-2.17112 2.7462,-5.18562 4.37408,-7.16348c1.94299,-2.3607 4.95822,-4.34874 7.10322,-6.6197c3.70099,-3.91831 7.40651,-7.66454 12.18361,-10.1922c2.64452,-0.04778 4.9063,-0.33258 7.4719,0.57565c2.31737,0.82035 4.60169,3.35463 7.00172,3.91956c1.72628,0.40634 3.55376,-0.23242 5.31989,-0.07141c3.01344,0.27472 6.0935,1.31643 8.90904,2.39729c11.25543,4.32089 18.70299,13.63822 26.90557,21.84862c1.86542,2.15877 2.53534,2.5495 3.53427,5.38942c1.31205,3.73012 0.35523,7.92015 1.49272,11.71711c0.65473,2.1855 3.26648,4.04639 4.59983,5.77282c1.85323,2.39957 3.30751,5.2325 4.55012,7.99273c2.31465,5.14155 4.70561,11.34685 5.20527,17.01513c0.28168,3.19548 0.09658,5.33327 0.94863,8.42932c0.83934,4.72 4.36925,9.86289 3.54278,14.79054c-0.24293,1.44841 -0.47327,3.14943 -1.58258,4.11189c-1.54329,1.33899 -5.39857,1.12041 -7.39347,1.12339c-4.80919,0.00719 -9.24926,1.21401 -13.9776,1.248h-2.7456c0,0 -0.04572,0 -0.1248,-0.00618c-0.07908,0.00618 -0.1248,0.00618 -0.1248,0.00618h-2.74559c-14.29861,-0.007 -28.51649,1.02396 -42.84207,1.49601c-5.38486,0.17744 -10.65567,0.99838 -16.06351,0.99999c-7.59906,0 -15.36595,0.4325 -22.94216,-0.26007c-3.43711,-0.3142 -6.65099,-1.39517 -10.05298,-1.7545c-9.47369,-1.00066 -18.78237,-1.80045 -28.16095,-0.40774c-0.35599,0.49961 -0.96179,0.92471 -1.99268,0.92471c-0.87016,0 -1.43745,-0.30288 -1.80729,-0.69778c-0.5999,-0.23731 -1.1948,-0.75327 -1.39869,-1.8407c-0.20596,-1.09849 0.17123,-1.79797 0.65134,-2.23566c-0.14876,-3.39108 -0.52754,-6.82649 -0.18423,-10.18761c1.61281,-15.79015 5.00905,-30.77856 13.62331,-44.31397c2.70502,-3.93852 2.35548,-7.53771 6.67204,-10.68176c1.71123,-1.24641 3.73056,-1.77533 5.71698,-2.33792c2.89956,-0.82121 3.3104,-1.10503 6.36996,-0.83809c4.10969,0.35856 7.17731,2.18705 9.64136,4.78296c1.72625,-5.47625 5.01415,-10.09788 8.32137,-14.93253z" fill="#000000"/></g></g></svg>