<svg version="1.1" xmlns="http://www.w3.org/2000/svg" xmlns:xlink="http://www.w3.org/1999/xlink" width="111.29608" height="133.175" viewBox="0,0,111.29608,133.175"><g transform="translate(-183.74632,-50.8536)"><g data-paper-data="{&quot;isPaintingLayer&quot;:true}" fill-rule="nonzero" stroke="none" stroke-linecap="butt" stroke-linejoin="miter" stroke-miterlimit="10" stroke-dasharray="" stroke-dashoffset="0" style="mix-blend-mode: normal"><path d="M286.50351,69.91983c0,0 0.21251,0.10637 0.51573,0.15691c0.21429,3.258 0.40049,6.51944 0.40579,9.78796c0.89876,4.49377 0.47938,9.28205 1.10397,13.87074c0.80856,5.94027 1.74188,11.90438 2.54041,17.77156c0.93376,6.8607 -0.01987,14.61151 -0.01987,21.55166c0,5.89689 0.70239,11.79222 0.35707,17.70195c-0.16384,2.80401 -0.88923,5.52209 -1.08926,8.32051c-0.31382,4.39044 -0.08885,8.90553 -0.02343,13.33802c-5.13093,0 -10.26918,0.00428 -15.40011,0.00428c-14.64042,0 -29.25089,-0.36019 -43.91006,-0.36019c-5.19786,0 -10.40494,-0.00373 -15.60281,-0.00373c-0.98679,0 -4.05003,0.6428 -4.77041,-0.66687c-0.95536,-1.73685 -1.06205,-5.3096 -1.22057,-7.26471c-0.53024,-6.53946 -0.02215,-13.16604 -0.74704,-19.70629c-3.31859,-16.2836 -3.09371,-32.57236 -3.29057,-49.21344c-0.64178,-6.40908 -0.46665,-12.74263 -0.67891,-19.17607c-0.09115,-2.76296 -0.84143,-5.34418 -1.09028,-8.07147c-0.40613,-4.45092 -0.05249,-9.13002 0.00284,-13.63224c9.21582,-2.46428 20.06077,0.51691 29.26384,1.58393c8.09198,0.9382 16.48535,0.38891 24.62633,0.38891c4.60013,0 9.28081,0.00283 13.96009,0.00283c-0.08752,3.23461 -0.88089,7.083 -0.34421,10.1316c0.17733,1.00737 0.1811,2.24879 0.95495,2.91768c0.51901,0.44862 3.74383,0.37257 4.66629,0.37257c3.26378,0 6.53242,0.00382 9.79619,0.00382l-0.00601,0.19005z" data-paper-data="{&quot;noHover&quot;:false,&quot;origItem&quot;:[&quot;Path&quot;,{&quot;applyMatrix&quot;:true,&quot;segments&quot;:[[299.31239,90.56064],[[299.31926,90.34607],[0,0],[-3.68612,0]],[[288.2609,90.34607],[3.68612,0],[-1.04183,0]],[[282.99424,89.92744],[0.58617,0.50667],[-0.87399,-0.75545]],[[281.91765,86.63323],[0.20028,1.13773],[-0.60613,-3.4431]],[[282.30956,75.19204],[-0.09884,3.65318],[-5.2848,0]],[[266.55377,75.19204],[5.1954,0],[-9.19445,0]],[[238.76186,74.752],[9.13911,1.05961],[-10.39397,-1.2051]],[[205.72876,72.95469],[10.40837,-2.78317],[-0.06249,5.08482]],[[205.7305,88.34674],[-0.45869,-5.02688],[0.28105,3.08021]],[[206.96481,97.45954],[-0.10295,-3.1205],[0.23972,7.26595]],[[207.73979,119.10378],[-0.72483,-7.23843],[0.22234,18.79448]],[[211.44888,174.63468],[-3.74802,-18.39074],[0.81869,7.38658]],[[212.2836,196.88241],[-0.59886,-7.38568],[0.17903,2.2081]],[[213.65894,205.08502],[-1.07899,-1.9616],[0.81361,1.47915]],[[219.04384,205.83654],[-1.11448,0],[5.87049,0]],[[236.65528,205.83654],[-5.87048,0],[16.55611,0]],[[286.21308,206.24611],[-16.53493,0],[5.79489,0]],[[303.59774,206.24611],[-5.79489,0],[-0.07389,-5.00607]],[[303.6194,191.18604],[-0.35443,4.95857],[0.22591,-3.16055]],[[304.84574,181.79285],[-0.18504,3.16686],[0.39,-6.67446]],[[304.43496,161.81187],[0,6.65997],[0,-7.83823]],[[304.45281,137.49394],[1.05459,7.74849],[-0.90187,-6.62641]],[[301.58832,117.44223],[0.91319,6.70896],[-0.70542,-5.18248]],[[300.34826,101.78729],[1.01506,5.07528],[-0.00599,-3.69148]],[[299.89457,90.73761],[0.24202,3.6796],[-0.34246,-0.05708]],[299.31241,90.56067]],&quot;closed&quot;:true,&quot;fillColor&quot;:[0,0,0,1],&quot;strokeWidth&quot;:0.5}]}" fill="#66ff8e" stroke-width="0.25"/><path d="M224.46808,173.80557c-1.63538,0 -1.63538,-1.63537 -1.63538,-1.63537v-0.72528c0,-7.27182 -0.11064,-15.02234 -1.42106,-22.17451c-0.88056,-4.80607 -1.84273,-9.02163 -1.84273,-14.08966c0,-4.01537 0.32868,-8.19671 0.00557,-12.19493c-0.19263,-2.38376 -1.44308,-4.45465 -1.79766,-6.76311c-0.07616,-0.49585 0.02329,-5.0153 -0.01316,-5.54044c-0.08396,-1.2098 -0.82888,-2.28909 -1.06638,-3.4783c-1.07681,-5.39181 -0.75479,-11.13005 -0.75479,-16.62814c0,-6.55822 -0.85585,-12.60433 -1.44261,-19.05886c-0.54454,-5.98994 -0.00796,-12.27663 -0.00796,-18.29322c0,0 0,-1.63537 1.63538,-1.63537c1.63538,0 1.63537,1.63537 1.63537,1.63537c0,5.90702 -0.54248,12.09146 -0.00796,17.97094c0.59608,6.55672 1.45852,12.71992 1.45852,19.38115c0,5.28484 -0.34149,10.83213 0.69577,16.00962c0.25761,1.28586 1.00088,2.46763 1.10947,3.77453c0.14737,1.77349 -0.28429,3.57998 -0.01316,5.33881c0.36741,2.38334 1.61701,4.53993 1.82875,7.01727c0.34891,4.08233 0.00557,8.36346 0.00557,12.46471c0,4.87872 0.94629,8.83223 1.78369,13.47112c1.3305,7.37051 1.48008,15.30431 1.48008,22.79305v0.72528c0,0 0,1.63537 -1.63538,1.63537z" fill="#ff0000" stroke-width="0.5"/><path d="M288.84047,73.16901c0,1.63538 -1.63538,1.63537 -1.63538,1.63537h-1.45057c-12.75273,0 -25.54131,-0.34921 -38.3384,-0.36581c-14.20637,1.7758 -29.29499,0.36581 -43.61863,0.36581c0,0 -1.63538,0 -1.63538,-1.63537c0,-1.63538 1.63538,-1.63538 1.63538,-1.63538c14.25664,0 29.27601,1.40794 43.41539,-0.35949c12.86634,-0.01541 25.72058,0.35949 38.54163,0.35949h1.45057c0,0 1.63538,0 1.63538,1.63538z" fill="#00ddff" stroke-width="0.5"/><path d="M288.8521,87.32367c0,1.63538 -1.63538,1.63537 -1.63538,1.63537h-1.45056c-12.75273,0 -25.54133,-0.3492 -38.33842,-0.3658c-14.20637,1.7758 -29.29499,0.3658 -43.61863,0.3658c0,0 -1.63537,0 -1.63537,-1.63537c0,-1.63538 1.63537,-1.63538 1.63537,-1.63538c14.25664,0 29.27601,1.40794 43.41539,-0.35947c12.86634,-0.01541 25.7206,0.35947 38.54165,0.35947h1.45056c0,0 1.63538,0 1.63538,1.63538z" fill="#00ddff" stroke-width="0.5"/><path d="M291.39059,97.11499c0,1.63538 -1.63538,1.63538 -1.63538,1.63538h-1.45056c-12.75273,0 -25.54132,-0.3492 -38.33841,-0.3658c-14.20637,1.7758 -29.29499,0.3658 -43.61863,0.3658c0,0 -1.63538,0 -1.63538,-1.63538c0,-1.63538 1.63538,-1.63537 1.63538,-1.63537c14.25664,0 29.27601,1.40794 43.41539,-0.35947c12.86634,-0.01541 25.72059,0.35947 38.54164,0.35947h1.45056c0,0 1.63538,0 1.63538,1.63537z" fill="#00ddff" stroke-width="0.5"/><path d="M291.40222,111.26965c0,1.63538 -1.63537,1.63538 -1.63537,1.63538h-1.45057c-12.75273,0 -25.54132,-0.34922 -38.33841,-0.36581c-14.20637,1.7758 -29.29499,0.36581 -43.61863,0.36581c0,0 -1.63538,0 -1.63538,-1.63538c0,-1.63538 1.63538,-1.63537 1.63538,-1.63537c14.25664,0 29.27601,1.40794 43.41539,-0.35947c12.86634,-0.01541 25.72059,0.35947 38.54164,0.35947h1.45057c0,0 1.63537,0 1.63537,1.63537z" fill="#00ddff" stroke-width="0.5"/><path d="M292.84116,122.86256c0,1.63538 -1.63538,1.63538 -1.63538,1.63538h-1.45057c-12.75273,0 -25.54131,-0.34922 -38.3384,-0.36581c-14.20637,1.7758 -29.29499,0.36581 -43.61863,0.36581c0,0 -1.63538,0 -1.63538,-1.63538c0,-1.63538 1.63538,-1.63538 1.63538,-1.63538c14.25664,0 29.27601,1.40794 43.41539,-0.35949c12.86634,-0.01541 25.72058,0.35949 38.54163,0.35949h1.45057c0,0 1.63538,0 1.63538,1.63538z" fill="#00ddff" stroke-width="0.5"/><path d="M292.85279,137.01721c0,1.63538 -1.63538,1.63538 -1.63538,1.63538h-1.45056c-12.75273,0 -25.54133,-0.3492 -38.33842,-0.3658c-14.20637,1.7758 -29.29499,0.3658 -43.61863,0.3658c0,0 -1.63537,0 -1.63537,-1.63538c0,-1.63538 1.63537,-1.63538 1.63537,-1.63538c14.25664,0 29.27601,1.40794 43.41539,-0.35947c12.86634,-0.01541 25.7206,0.35947 38.54165,0.35947h1.45056c0,0 1.63538,0 1.63538,1.63538z" fill="#00ddff" stroke-width="0.5"/><path d="M294.3019,146.80854c0,1.63538 -1.65593,1.63538 -1.65593,1.63538h-1.4688c-12.91302,0 -25.86233,-0.3492 -38.82025,-0.3658c-14.38493,1.7758 -29.66316,0.3658 -44.16683,0.3658c0,0 -1.65594,0 -1.65594,-1.63538c0,-1.63538 1.65594,-1.63538 1.65594,-1.63538c14.43582,0 29.64395,1.40794 43.96105,-0.35947c13.02804,-0.01541 26.04386,0.35947 39.02604,0.35947h1.4688c0,0 1.65593,0 1.65593,1.63538z" fill="#00ddff" stroke-width="0.5"/><path d="M293.08797,160.96319c0,1.63538 -1.61225,1.63538 -1.61225,1.63538h-1.43006c-12.57242,0 -25.18019,-0.34922 -37.79633,-0.36581c-14.00552,1.7758 -28.88078,0.36581 -43.00189,0.36581c0,0 -1.61226,0 -1.61226,-1.63538c0,-1.63538 1.61226,-1.63538 1.61226,-1.63538c14.05506,0 28.86208,1.40794 42.80154,-0.35949c12.68442,-0.01541 25.35692,0.35949 37.9967,0.35949h1.43006c0,0 1.61225,0 1.61225,1.63538z" fill="#00ddff" stroke-width="0.5"/><path d="M274.28632,64.6446c0.26381,-2.66756 0.36701,-5.31549 0.37797,-8.00288c3.88321,0 7.82713,0.0012 11.66547,0.0012c0.0203,3.43084 0.22917,6.898 0.45761,10.30322l-0.27262,-0.0997c-3.26378,0 -6.58897,0.00832 -9.85275,0.00832c-0.87201,0 -1.8553,0.82211 -2.59705,0.36364c-0.72965,-0.45097 0.13694,-1.72019 0.22136,-2.5738z" data-paper-data="{&quot;noHover&quot;:false,&quot;origItem&quot;:[&quot;Path&quot;,{&quot;applyMatrix&quot;:true,&quot;segments&quot;:[[[285.59366,84.17581],[0,0],[-0.09535,0.96407]],[[285.33619,87.0707],[-0.82407,-0.50933],[0.83774,0.51779]],[[288.2609,86.65206],[-0.98485,0],[3.68612,0]],[[299.31926,86.65206],[-3.68612,0],[0,0]],[[299.62684,86.76509],[0,0],[-0.258,-3.84587]],[[299.11238,75.19201],[0.02293,3.8748],[-4.33504,0]],[[286.01097,75.19201],[4.38571,0],[-0.01238,3.03514]],[[285.59366,84.17579],[0.29795,-3.01275],[0,0]]],&quot;closed&quot;:true,&quot;fillColor&quot;:[0,0,0,1],&quot;strokeWidth&quot;:0.5}]}" fill="#51ca71" stroke-width="0.25"/><path d="M270.80787,78.08121c0.21429,3.258 0.40142,6.52044 0.40672,9.78895c0.89875,4.49377 0.48077,9.28423 1.10535,13.87294c0.80855,5.94027 1.74284,11.90838 2.54138,17.77556c0.93376,6.8607 -0.02082,14.61614 -0.02082,21.55629c0,5.8969 0.70086,11.79461 0.35554,17.70434c-0.16384,2.80401 -0.89004,5.52292 -1.09005,8.32134c-0.31382,4.39044 -0.08983,8.90634 -0.0244,13.33885c-5.13093,0 -10.27088,0.00527 -15.4018,0.00527c-14.64041,0 -29.25793,-0.35961 -43.91709,-0.35961c-5.19787,0 -10.40709,-0.0046 -15.60496,-0.0046c-0.98679,0 -4.05059,0.64246 -4.77099,-0.66721c-0.95535,-1.73685 -1.06269,-5.31005 -1.22121,-7.26516c-0.53023,-6.53946 -0.02399,-13.16779 -0.74888,-19.70805c-3.31859,-16.2836 -3.0952,-32.58279 -3.29207,-49.22388c-0.64177,-6.40908 -0.46496,-12.74535 -0.67721,-19.17879c-0.09115,-2.76296 -0.84082,-5.34482 -1.08968,-8.07212c-0.40613,-4.45094 -0.05146,-9.13089 0.00387,-13.63311c9.21582,-2.46428 20.06437,0.51519 29.26743,1.58222c8.09199,0.93819 16.48968,0.38875 24.63067,0.38875c4.60011,0 9.283,0.00349 13.9623,0.00349c-0.08752,3.23461 -0.88024,7.08331 -0.34355,10.13191c0.17734,1.00737 0.18149,2.249 0.95535,2.9179c0.51902,0.44862 3.74453,0.37301 4.667,0.37301c3.26378,0 6.53354,0.0047 9.79732,0.0047l-0.00599,0.19007c0,0 0.21258,0.10643 0.51579,0.15698z" data-paper-data="{&quot;noHover&quot;:false,&quot;origItem&quot;:[&quot;Path&quot;,{&quot;applyMatrix&quot;:true,&quot;segments&quot;:[[249.18284,121.87669],[[249.18842,121.70243],[0,0],[-2.9936,0]],[[240.20761,121.70243],[2.9936,0],[-0.8461,0]],[[235.9304,121.36244],[0.47605,0.41148],[-0.70979,-0.61352]],[[235.05606,118.68712],[0.16266,0.92398],[-0.49226,-2.79624]],[[235.37434,109.3954],[-0.08027,2.96685],[-4.29194,0]],[[222.57862,109.3954],[4.21932,0],[-7.46708,0]],[[200.008,109.03803],[7.42214,0.86053],[-8.44124,-0.9787]],[[173.18087,107.57838],[8.45294,-2.26029],[-0.05075,4.12953]],[[173.18228,120.07871],[-0.37251,-4.08249],[0.22825,2.50153]],[[174.1847,127.47948],[-0.08361,-2.53425],[0.19468,5.90089]],[[174.81408,145.05739],[-0.58865,-5.87854],[0.18057,15.26354]],[[177.82634,190.15564],[-3.04388,-14.93565],[0.66488,5.99885]],[[178.50424,208.22365],[-0.48634,-5.99812],[0.1454,1.79326]],[[179.62118,214.88523],[-0.87627,-1.59307],[0.66076,1.20126]],[[183.99442,215.49556],[-0.9051,0],[4.76759,0]],[[198.29718,215.49556],[-4.76759,0],[13.44569,0]],[[238.5445,215.82818],[-13.42848,0],[4.7062,0]],[[252.66308,215.82818],[-4.7062,0],[-0.06001,-4.06557]],[[252.68065,203.59745],[-0.28784,4.027],[0.18347,-2.56677]],[[253.67661,195.96897],[-0.15028,2.5719],[0.31673,-5.42052]],[[253.343,179.74184],[0,5.40876],[0,-6.36565]],[[253.3575,159.99255],[0.85646,6.29277],[-0.73244,-5.3815]],[[251.03116,143.70798],[0.74162,5.44854],[-0.57289,-4.20884]],[[250.02407,130.99415],[0.82435,4.12178],[-0.00486,-2.99796]],[[249.65563,122.02039],[0.19655,2.98831],[-0.27812,-0.04636]]],&quot;closed&quot;:true}]}" fill="#ffffff" stroke-width="0.5"/><path d="M286.77896,70.58528l0.00608,-0.18999c-3.26378,0 -6.52756,0 -9.79133,0c-0.92246,0 -4.14422,0.07795 -4.66323,-0.37066c-0.77385,-0.66889 -0.77591,-1.9094 -0.95325,-2.91677c-0.53668,-3.0486 0.25949,-6.89569 0.34701,-10.1303c-4.67929,0 -9.35041,0 -13.95054,0c-8.14098,0 -16.51564,0.54858 -24.60762,-0.38962c-9.20307,-1.06702 -20.03247,-4.05567 -29.24829,-1.59138c-0.05533,4.50222 -0.40459,9.17757 0.00154,13.62849c0.24885,2.72729 1.00173,5.30572 1.09289,8.06869c0.21225,6.43344 0.0444,12.75524 0.68619,19.16432c0.19687,16.64108 -0.03447,32.88478 3.28412,49.16837c0.72489,6.54025 0.20884,13.15921 0.73908,19.69867c0.15852,1.9551 0.2624,5.52594 1.21776,7.26278c0.72039,1.30967 3.78113,0.66541 4.76792,0.66541c5.19787,0 10.39572,0 15.59359,0c14.65917,0 29.23924,0.36264 43.87966,0.36264c5.13093,0 10.26186,0 15.39279,0c-0.06542,-4.43249 -0.29465,-8.94411 0.01917,-13.33454c0.20003,-2.79843 0.92199,-5.51294 1.08583,-8.31695c0.34532,-5.90972 -0.36371,-11.79474 -0.36371,-17.69163c0,-6.94015 0.94956,-14.67097 0.0158,-21.53167c-0.79854,-5.86718 -1.72773,-11.81399 -2.53629,-17.75426c-0.6246,-4.58869 -0.19922,-9.36748 -1.09798,-13.86125c-0.0053,-3.26852 -0.18742,-6.52564 -0.40171,-9.78365c-0.30322,-0.05054 -0.51546,-0.15667 -0.51546,-0.15667zM274.63208,64.932c-0.08443,0.85361 -0.95761,2.11223 -0.22796,2.5632c0.74175,0.45846 1.7176,-0.37067 2.58961,-0.37067c3.26378,0 6.52756,0 9.79133,0l0.27233,0.10008c-0.22844,-3.40522 -0.43521,-6.81624 -0.45552,-10.24708c-3.83835,0 -7.71709,0 -11.6003,0c-0.01096,2.68738 -0.10568,5.28689 -0.3695,7.95445zM290.95892,55.34218c0,1.0001 -0.61162,1.38861 -1.08678,1.53952c0.03974,7.81918 1.09195,15.5446 1.07882,23.32161c0.8887,4.44349 0.46365,9.16425 1.07787,13.69952c0.80601,5.95136 1.77164,11.90444 2.54069,17.78463c0.92135,7.04467 0.01581,14.86868 0.01581,21.98533c0,5.95656 0.71205,11.90275 0.35867,17.87332c-0.16658,2.81443 -0.88687,5.53295 -1.08711,8.3385c-0.34563,4.8422 -0.01666,9.83745 0.00232,14.70288c0.00057,0.02098 0.00085,0.04225 0.00085,0.06379c0,0.01597 -0.00015,0.03179 -0.00047,0.04746c0.0003,0.10514 0.00047,0.21019 0.00047,0.31519c0,0 0,1.63538 -1.63538,1.63538c-0.49805,0 -0.84441,-0.15167 -1.08529,-0.36265c-5.16434,0 -10.878,0 -15.95887,0c-14.64068,0 -29.22039,-0.36264 -43.87966,-0.36264c-4.59346,0 -9.18692,0 -13.78039,0c-1.80369,0 -5.07388,0.63431 -6.70623,-0.09219c-3.51998,-1.56662 -2.75974,-3.56704 -3.57206,-6.54216c-2.09098,-7.65829 -0.61158,-15.86206 -1.4917,-23.76149c-3.22802,-16.42271 -3.13546,-32.71564 -3.31781,-49.48867c-0.64285,-6.43727 -0.49178,-12.79358 -0.69001,-19.25719c-0.08277,-2.6988 -0.84118,-5.21948 -1.08295,-7.88754c-0.41319,-4.55975 -0.06364,-9.33886 -0.01178,-13.94682c-0.10651,-0.14358 -0.19974,-0.32092 -0.27251,-0.53922c-0.51715,-1.55145 1.0343,-2.06861 1.0343,-2.06861c10.15019,-3.32387 21.8118,-0.20652 32.13437,0.99894c7.96115,0.92969 16.21935,0.3677 24.22962,0.3677c9.64067,0 19.28135,0 28.92202,0c0.15065,-0.47532 0.53897,-1.08792 1.53988,-1.08792c1.05349,0 1.42834,0.67864 1.56171,1.16158c0.48294,0.13337 1.1616,0.50821 1.1616,1.56171z" fill="#9966ff" stroke-width="0.5"/><path d="M270.2852,77.93184c0,0 0.21251,0.10637 0.51573,0.15691c0.21429,3.258 0.40049,6.51944 0.40579,9.78796c0.89876,4.49377 0.47938,9.28205 1.10397,13.87074c0.80856,5.94027 1.74188,11.90438 2.54041,17.77156c0.93376,6.8607 -0.01987,14.61151 -0.01987,21.55166c0,5.89689 0.70239,11.79222 0.35707,17.70195c-0.16384,2.80401 -0.88923,5.52209 -1.08926,8.32051c-0.31382,4.39044 -0.08885,8.90553 -0.02343,13.33802c-5.13093,0 -10.26918,0.00428 -15.40011,0.00428c-14.64042,0 -29.25089,-0.36019 -43.91006,-0.36019c-5.19786,0 -10.40494,-0.00373 -15.60281,-0.00373c-0.98679,0 -4.05003,0.6428 -4.77041,-0.66687c-0.95536,-1.73685 -1.06205,-5.3096 -1.22057,-7.26471c-0.53024,-6.53946 -0.02215,-13.16604 -0.74704,-19.70629c-3.31859,-16.2836 -3.09371,-32.57236 -3.29057,-49.21344c-0.64178,-6.40908 -0.46665,-12.74263 -0.67891,-19.17607c-0.09115,-2.76296 -0.84143,-5.34418 -1.09028,-8.07147c-0.40613,-4.45092 -0.05249,-9.13002 0.00284,-13.63224c9.21582,-2.46428 20.06077,0.51691 29.26384,1.58393c8.09198,0.9382 16.48535,0.38891 24.62633,0.38891c4.60013,0 9.28081,0.00283 13.96009,0.00283c-0.08752,3.23461 -0.88089,7.083 -0.34421,10.1316c0.17733,1.00737 0.1811,2.24879 0.95495,2.91768c0.51901,0.44862 3.74383,0.37257 4.66629,0.37257c3.26378,0 6.53242,0.00382 9.79619,0.00382l-0.00601,0.19005z" data-paper-data="{&quot;noHover&quot;:false,&quot;origItem&quot;:[&quot;Path&quot;,{&quot;applyMatrix&quot;:true,&quot;segments&quot;:[[280.99539,99.23958],[[281.00226,99.02501],[0,0],[-3.68612,0]],[[269.9439,99.02501],[3.68612,0],[-1.04183,0]],[[264.67724,98.60638],[0.58617,0.50667],[-0.87399,-0.75545]],[[263.60064,95.31217],[0.20028,1.13773],[-0.60613,-3.4431]],[[263.99255,83.87098],[-0.09884,3.65318],[-5.2848,0]],[[248.23677,83.87098],[5.1954,0],[-9.19445,0]],[[220.44485,83.43094],[9.13911,1.05961],[-10.39397,-1.2051]],[[187.41175,81.63363],[10.40837,-2.78317],[-0.06249,5.08482]],[[187.41349,97.02568],[-0.45869,-5.02688],[0.28105,3.08021]],[[188.6478,106.13848],[-0.10295,-3.1205],[0.23972,7.26595]],[[189.42278,127.78272],[-0.72483,-7.23843],[0.22234,18.79448]],[[193.13187,183.31362],[-3.74802,-18.39074],[0.81869,7.38658]],[[193.96659,205.56135],[-0.59886,-7.38568],[0.17903,2.2081]],[[195.34193,213.76396],[-1.07899,-1.9616],[0.81361,1.47915]],[[200.72683,214.51548],[-1.11448,0],[5.87049,0]],[[218.33827,214.51548],[-5.87048,0],[16.55611,0]],[[267.89608,214.92505],[-16.53493,0],[5.79489,0]],[[285.28074,214.92505],[-5.79489,0],[-0.07389,-5.00607]],[[285.30239,199.86498],[-0.35443,4.95857],[0.22591,-3.16055]],[[286.52873,190.47179],[-0.18504,3.16686],[0.39,-6.67446]],[[286.11795,170.49081],[0,6.65997],[0,-7.83823]],[[286.13579,146.17288],[1.05459,7.74849],[-0.90187,-6.62641]],[[283.27131,126.12117],[0.91319,6.70896],[-0.70542,-5.18248]],[[282.03125,110.46623],[1.01506,5.07528],[-0.00599,-3.69148]],[[281.57756,99.41655],[0.24202,3.6796],[-0.34246,-0.05708]],[280.99539,99.23961]],&quot;closed&quot;:true,&quot;fillColor&quot;:[0,0,0,1],&quot;strokeWidth&quot;:0.5}]}" fill="#66ff8e" stroke-width="0.25"/><path d="M208.24977,181.49011c-1.63538,0 -1.63538,-1.63537 -1.63538,-1.63537v-0.72528c0,-7.27182 -0.11064,-15.02234 -1.42106,-22.17451c-0.88056,-4.80607 -1.84273,-9.02163 -1.84273,-14.08966c0,-4.01537 0.32868,-8.19671 0.00557,-12.19493c-0.19263,-2.38376 -1.44308,-4.45465 -1.79766,-6.76311c-0.07616,-0.49585 0.02329,-5.0153 -0.01316,-5.54044c-0.08396,-1.2098 -0.82888,-2.28909 -1.06638,-3.4783c-1.07681,-5.39181 -0.75479,-11.13005 -0.75479,-16.62814c0,-6.55822 -0.85585,-12.60433 -1.44261,-19.05886c-0.54454,-5.98994 -0.00796,-12.27663 -0.00796,-18.29322c0,0 0,-1.63537 1.63538,-1.63537c1.63538,0 1.63537,1.63537 1.63537,1.63537c0,5.90702 -0.54248,12.09146 -0.00796,17.97094c0.59608,6.55672 1.45852,12.71992 1.45852,19.38115c0,5.28484 -0.34149,10.83213 0.69577,16.00962c0.25761,1.28586 1.00088,2.46763 1.10947,3.77453c0.14737,1.77349 -0.28429,3.57998 -0.01316,5.33881c0.36741,2.38334 1.61701,4.53993 1.82875,7.01727c0.34891,4.08233 0.00557,8.36346 0.00557,12.46471c0,4.87872 0.94629,8.83223 1.78369,13.47112c1.3305,7.37051 1.48008,15.30431 1.48008,22.79305v0.72528c0,0 0,1.63537 -1.63538,1.63537z" fill="#ff0000" stroke-width="0.5"/><path d="M272.62216,80.85355c0,1.63538 -1.63538,1.63537 -1.63538,1.63537h-1.45057c-12.75273,0 -25.54131,-0.34921 -38.3384,-0.36581c-14.20637,1.7758 -29.29499,0.36581 -43.61863,0.36581c0,0 -1.63538,0 -1.63538,-1.63537c0,-1.63538 1.63538,-1.63538 1.63538,-1.63538c14.25664,0 29.27601,1.40794 43.41539,-0.35949c12.86634,-0.01541 25.72058,0.35949 38.54163,0.35949h1.45057c0,0 1.63538,0 1.63538,1.63538z" fill="#00ddff" stroke-width="0.5"/><path d="M272.63379,95.00821c0,1.63538 -1.63538,1.63537 -1.63538,1.63537h-1.45056c-12.75273,0 -25.54133,-0.3492 -38.33842,-0.3658c-14.20637,1.7758 -29.29499,0.3658 -43.61863,0.3658c0,0 -1.63537,0 -1.63537,-1.63537c0,-1.63538 1.63537,-1.63538 1.63537,-1.63538c14.25664,0 29.27601,1.40794 43.41539,-0.35947c12.86634,-0.01541 25.7206,0.35947 38.54165,0.35947h1.45056c0,0 1.63538,0 1.63538,1.63538z" fill="#00ddff" stroke-width="0.5"/><path d="M275.17227,104.79954c0,1.63538 -1.63538,1.63538 -1.63538,1.63538h-1.45056c-12.75273,0 -25.54132,-0.3492 -38.33841,-0.3658c-14.20637,1.7758 -29.29499,0.3658 -43.61863,0.3658c0,0 -1.63538,0 -1.63538,-1.63538c0,-1.63538 1.63538,-1.63537 1.63538,-1.63537c14.25664,0 29.27601,1.40794 43.41539,-0.35947c12.86634,-0.01541 25.72059,0.35947 38.54164,0.35947h1.45056c0,0 1.63538,0 1.63538,1.63537z" fill="#00ddff" stroke-width="0.5"/><path d="M275.18391,118.95419c0,1.63538 -1.63537,1.63538 -1.63537,1.63538h-1.45057c-12.75273,0 -25.54132,-0.34922 -38.33841,-0.36581c-14.20637,1.7758 -29.29499,0.36581 -43.61863,0.36581c0,0 -1.63538,0 -1.63538,-1.63538c0,-1.63538 1.63538,-1.63537 1.63538,-1.63537c14.25664,0 29.27601,1.40794 43.41539,-0.35947c12.86634,-0.01541 25.72059,0.35947 38.54164,0.35947h1.45057c0,0 1.63537,0 1.63537,1.63537z" fill="#00ddff" stroke-width="0.5"/><path d="M276.62285,130.54709c0,1.63538 -1.63538,1.63538 -1.63538,1.63538h-1.45057c-12.75273,0 -25.54131,-0.34922 -38.3384,-0.36581c-14.20637,1.7758 -29.29499,0.36581 -43.61863,0.36581c0,0 -1.63538,0 -1.63538,-1.63538c0,-1.63538 1.63538,-1.63538 1.63538,-1.63538c14.25664,0 29.27601,1.40794 43.41539,-0.35949c12.86634,-0.01541 25.72058,0.35949 38.54163,0.35949h1.45057c0,0 1.63538,0 1.63538,1.63538z" fill="#00ddff" stroke-width="0.5"/><path d="M276.63446,144.70176c0,1.63538 -1.63538,1.63538 -1.63538,1.63538h-1.45056c-12.75273,0 -25.54133,-0.3492 -38.33842,-0.3658c-14.20637,1.7758 -29.29499,0.3658 -43.61863,0.3658c0,0 -1.63537,0 -1.63537,-1.63538c0,-1.63538 1.63537,-1.63538 1.63537,-1.63538c14.25664,0 29.27601,1.40794 43.41539,-0.35947c12.86634,-0.01541 25.7206,0.35947 38.54165,0.35947h1.45056c0,0 1.63538,0 1.63538,1.63538z" fill="#00ddff" stroke-width="0.5"/><path d="M278.08358,154.49308c0,1.63538 -1.65593,1.63538 -1.65593,1.63538h-1.4688c-12.91302,0 -25.86233,-0.3492 -38.82025,-0.3658c-14.38493,1.7758 -29.66316,0.3658 -44.16683,0.3658c0,0 -1.65594,0 -1.65594,-1.63538c0,-1.63538 1.65594,-1.63538 1.65594,-1.63538c14.43582,0 29.64395,1.40794 43.96105,-0.35947c13.02804,-0.01541 26.04386,0.35947 39.02604,0.35947h1.4688c0,0 1.65593,0 1.65593,1.63538z" fill="#00ddff" stroke-width="0.5"/><path d="M276.86967,168.64773c0,1.63538 -1.61225,1.63538 -1.61225,1.63538h-1.43006c-12.57242,0 -25.18019,-0.34922 -37.79633,-0.36581c-14.00552,1.7758 -28.88078,0.36581 -43.00189,0.36581c0,0 -1.61226,0 -1.61226,-1.63538c0,-1.63538 1.61226,-1.63538 1.61226,-1.63538c14.05506,0 28.86208,1.40794 42.80154,-0.35949c12.68442,-0.01541 25.35692,0.35949 37.9967,0.35949h1.43006c0,0 1.61225,0 1.61225,1.63538z" fill="#00ddff" stroke-width="0.5"/><path d="M258.068,72.32915c0.26381,-2.66756 0.36701,-5.31549 0.37797,-8.00288c3.88321,0 7.82713,0.0012 11.66547,0.0012c0.0203,3.43084 0.22917,6.898 0.45761,10.30322l-0.27262,-0.0997c-3.26378,0 -6.58897,0.00832 -9.85275,0.00832c-0.87201,0 -1.8553,0.82211 -2.59705,0.36364c-0.72965,-0.45097 0.13694,-1.72019 0.22136,-2.5738z" data-paper-data="{&quot;noHover&quot;:false,&quot;origItem&quot;:[&quot;Path&quot;,{&quot;applyMatrix&quot;:true,&quot;segments&quot;:[[[267.27664,92.85476],[0,0],[-0.09535,0.96407]],[[267.01919,95.74965],[-0.82407,-0.50933],[0.83774,0.51779]],[[269.9439,95.33101],[-0.98485,0],[3.68612,0]],[[281.00226,95.33101],[-3.68612,0],[0,0]],[[281.30983,95.44404],[0,0],[-0.258,-3.84587]],[[280.79537,83.87096],[0.02293,3.8748],[-4.33504,0]],[[267.69396,83.87096],[4.38571,0],[-0.01238,3.03514]],[[267.27664,92.85474],[0.29795,-3.01275],[0,0]]],&quot;closed&quot;:true,&quot;fillColor&quot;:[0,0,0,1],&quot;strokeWidth&quot;:0.5}]}" fill="#51ca71" stroke-width="0.25"/><path d="M270.25542,77.96457l0.00608,-0.18999c-3.26378,0 -6.52756,0 -9.79133,0c-0.92246,0 -4.14422,0.07795 -4.66323,-0.37066c-0.77385,-0.66889 -0.77591,-1.9094 -0.95325,-2.91677c-0.53668,-3.0486 0.25949,-6.89569 0.34701,-10.1303c-4.67929,0 -9.35041,0 -13.95054,0c-8.14098,0 -16.51564,0.54858 -24.60762,-0.38962c-9.20307,-1.06702 -20.03247,-4.05567 -29.24829,-1.59138c-0.05533,4.50222 -0.40459,9.17757 0.00154,13.62849c0.24885,2.72729 1.00173,5.30572 1.09289,8.06869c0.21225,6.43344 0.0444,12.75524 0.68619,19.16432c0.19687,16.64108 -0.03447,32.88478 3.28412,49.16837c0.72489,6.54025 0.20884,13.15921 0.73908,19.69867c0.15852,1.9551 0.2624,5.52594 1.21776,7.26278c0.72039,1.30967 3.78113,0.66541 4.76792,0.66541c5.19787,0 10.39572,0 15.59359,0c14.65917,0 29.23924,0.36264 43.87966,0.36264c5.13093,0 10.26186,0 15.39279,0c-0.06542,-4.43249 -0.29465,-8.94411 0.01917,-13.33454c0.20003,-2.79843 0.92199,-5.51294 1.08583,-8.31695c0.34532,-5.90972 -0.36371,-11.79474 -0.36371,-17.69163c0,-6.94015 0.94956,-14.67097 0.0158,-21.53167c-0.79854,-5.86718 -1.72773,-11.81399 -2.53629,-17.75426c-0.6246,-4.58869 -0.19922,-9.36748 -1.09798,-13.86125c-0.0053,-3.26852 -0.18742,-6.52564 -0.40171,-9.78365c-0.30322,-0.05054 -0.51546,-0.15667 -0.51546,-0.15667zM258.1085,72.3113c-0.08443,0.85361 -0.95761,2.11223 -0.22796,2.5632c0.74175,0.45846 1.7176,-0.37067 2.58961,-0.37067c3.26378,0 6.52756,0 9.79133,0l0.27233,0.10008c-0.22844,-3.40522 -0.43521,-6.81624 -0.45552,-10.24708c-3.83835,0 -7.71709,0 -11.6003,0c-0.01096,2.68738 -0.10568,5.28689 -0.3695,7.95445zM274.43536,62.72147c0,1.0001 -0.61162,1.38861 -1.08678,1.53952c0.03974,7.81918 1.09195,15.5446 1.07882,23.32161c0.8887,4.44349 0.46365,9.16425 1.07787,13.69952c0.80601,5.95136 1.77164,11.90444 2.54069,17.78463c0.92135,7.04467 0.01581,14.86868 0.01581,21.98533c0,5.95656 0.71205,11.90275 0.35867,17.87332c-0.16658,2.81443 -0.88687,5.53295 -1.08711,8.3385c-0.34563,4.8422 -0.01666,9.83745 0.00232,14.70288c0.00057,0.02098 0.00085,0.04225 0.00085,0.06379c0,0.01597 -0.00015,0.03179 -0.00047,0.04746c0.0003,0.10514 0.00047,0.21019 0.00047,0.31519c0,0 0,1.63538 -1.63538,1.63538c-0.49805,0 -0.84441,-0.15167 -1.08529,-0.36265c-5.16434,0 -10.878,0 -15.95887,0c-14.64068,0 -29.22039,-0.36264 -43.87966,-0.36264c-4.59346,0 -9.18692,0 -13.78039,0c-1.80369,0 -5.07388,0.63431 -6.70623,-0.09219c-3.51998,-1.56662 -2.75974,-3.56704 -3.57206,-6.54216c-2.09098,-7.65829 -0.61158,-15.86206 -1.4917,-23.76149c-3.22802,-16.42271 -3.13546,-32.71564 -3.31781,-49.48867c-0.64285,-6.43727 -0.49178,-12.79358 -0.69001,-19.25719c-0.08277,-2.6988 -0.84118,-5.21948 -1.08295,-7.88754c-0.41319,-4.55975 -0.06364,-9.33886 -0.01178,-13.94682c-0.10651,-0.14358 -0.19974,-0.32092 -0.27251,-0.53922c-0.51715,-1.55145 1.0343,-2.06861 1.0343,-2.06861c10.15019,-3.32387 21.8118,-0.20652 32.13437,0.99894c7.96115,0.92969 16.21935,0.3677 24.22962,0.3677c9.64067,0 19.28135,0 28.92202,0c0.15065,-0.47532 0.53897,-1.08792 1.53988,-1.08792c1.05349,0 1.42834,0.67864 1.56171,1.16158c0.48294,0.13337 1.1616,0.50821 1.1616,1.56171z" fill="#9966ff" stroke-width="0.5"/></g></g></svg>