<svg version="1.1" xmlns="http://www.w3.org/2000/svg" xmlns:xlink="http://www.w3.org/1999/xlink" width="154.13674" height="108.96919" viewBox="0,0,154.13674,108.96919"><defs><radialGradient cx="234.6085" cy="139.5811" r="71.97205" gradientUnits="userSpaceOnUse" id="color-1"><stop offset="0" stop-color="#4a4d00"/><stop offset="1" stop-color="#000000"/></radialGradient><linearGradient x1="237.27897" y1="139.34385" x2="237.27897" y2="159.77966" gradientUnits="userSpaceOnUse" id="color-2"><stop offset="0" stop-color="#f8ff00"/><stop offset="1" stop-color="#f8ff00" stop-opacity="0"/></linearGradient><linearGradient x1="237.16151" y1="130.69728" x2="237.16151" y2="151.1331" gradientUnits="userSpaceOnUse" id="color-3"><stop offset="0" stop-color="#f8ff00" stop-opacity="0"/><stop offset="1" stop-color="#f8ff00"/></linearGradient></defs><g transform="translate(-160.42527,-73.98232)"><g data-paper-data="{&quot;isPaintingLayer&quot;:true}" fill-rule="nonzero" stroke-linecap="butt" stroke-linejoin="miter" stroke-miterlimit="10" stroke-dasharray="" stroke-dashoffset="0" style="mix-blend-mode: normal"><path d="M288.77515,175.59404c0,0 -0.04576,0.00006 -0.12484,0.00624c-0.07908,-0.00619 -0.12484,-0.00615 -0.12484,-0.00615l-2.74655,0.00101c-14.3586,0.00747 -28.66839,1.02941 -43.05093,1.51399c-5.3272,0.17948 -10.55328,0.99757 -15.90118,0.9959c-7.44642,0 -15.07754,0.42431 -22.50234,-0.24659c-3.38863,-0.30619 -6.56017,-1.37964 -9.92065,-1.74434c-9.53569,-1.03487 -18.94485,-1.79618 -28.38853,-0.55367c-0.17251,-2.83094 -0.42294,-5.69356 -0.13092,-8.47729c1.57214,-14.98648 4.64366,-29.21117 12.82847,-42.07426c1.48562,-2.27972 1.67475,-5.38912 3.20467,-7.4337c1.57472,-2.10444 4.09547,-2.80538 6.46895,-3.49094c12.4301,-3.59035 15.80104,11.28858 20.6133,19.5455c1.51544,2.60021 3.63297,4.69137 5.35091,7.15314l-0.12776,0.17093c0,0 0.60321,2.42015 3.02856,1.81381c2.42536,-0.60634 1.73484,-2.97781 1.73484,-2.97781l-0.62895,-1.82961c-1.63105,-2.32356 -3.71918,-4.36657 -5.13208,-6.82658c-2.22979,-3.88232 -4.10792,-8.67461 -6.5693,-12.84485c0.29544,-0.48715 0.37996,-0.95064 0.37996,-0.95064c1.11939,-6.20845 4.83871,-11.14129 8.35601,-16.28087c1.41382,-2.06592 2.57522,-4.94461 4.12039,-6.81944c1.86195,-2.25919 4.81743,-4.17474 6.88437,-6.36347c2.93279,-3.1056 6.08327,-6.63793 9.79301,-8.77919c1.1233,0.03569 3.45766,0.0242 4.51347,0.42282c2.52964,0.95505 4.80545,3.42663 7.48336,4.06884c1.19056,0.28552 4.71809,-0.04523 6.16773,0.07321c2.54209,0.20769 5.19954,1.20319 7.57179,2.09885c10.48173,3.95746 17.42363,13.00541 25.03219,20.60629c4.08642,4.5917 2.12088,9.84928 3.96265,15.35562c0.97825,2.9247 3.55729,4.88332 5.38458,7.21308c1.61871,2.06382 2.86284,4.60309 3.93594,6.98881c2.07477,4.61263 4.38107,10.3532 4.77644,15.44307c0.25449,3.2762 0.17809,5.83771 1.04614,9.04775c0.69688,3.75824 2.50521,7.11807 3.21853,10.86842c0.14398,0.757 0.14976,1.53475 0.22452,2.30169c0.02859,0.29334 0.34607,0.74414 0.08476,0.88046c-1.18212,0.61671 -5.49891,-0.12538 -6.83498,-0.12312c-3.88959,0.00659 -7.41319,1.28715 -11.23523,1.25213l-2.74647,0.00097z" data-paper-data="{&quot;noHover&quot;:false,&quot;origItem&quot;:[&quot;Path&quot;,{&quot;applyMatrix&quot;:true,&quot;segments&quot;:[[310.79688,202.98877],[[313.54248,202.98877],[0,0],[3.82204,0.03502]],[[324.77447,201.74077],[-3.88959,0.00659],[1.33607,-0.00226]],[[331.6082,201.86576],[-1.18212,0.61671],[0.26131,-0.13632]],[[331.52322,200.98565],[0.02859,0.29334],[-0.07476,-0.76694]],[[331.29813,198.6849],[0.14398,0.757],[-0.71332,-3.75035]],[[328.07721,187.821],[0.69688,3.75824],[-0.86805,-3.21004]],[[327.02904,178.77833],[0.25449,3.2762],[-0.39537,-5.08987]],[[322.25031,163.34548],[2.07477,4.61263],[-1.0731,-2.38572]],[[318.31404,156.36221],[1.61871,2.06382],[-1.82729,-2.32976]],[[312.92988,149.15583],[0.97825,2.9247],[-1.84177,-5.50634]],[[308.97126,133.81437],[4.08642,4.5917],[-7.60856,-7.60088]],[[283.96005,113.231],[10.48173,3.95746],[-2.37225,-0.89566]],[[276.39549,111.1355],[2.54209,0.20769],[-1.44964,-0.11844]],[[270.23379,111.06409],[1.19056,0.28552],[-2.67791,-0.64221]],[[262.75871,106.99645],[2.52964,0.95505],[-1.05581,-0.39862]],[[258.24981,106.5737],[1.1233,0.03569],[-3.70974,2.14126]],[[248.46863,115.35109],[2.93279,-3.1056],[-2.06694,2.18873]],[[241.59426,121.71058],[1.86195,-2.25919],[-1.54517,1.87483]],[[237.48194,128.5247],[1.41382,-2.06592],[-3.5173,5.13958]],[[229.14139,144.78401],[1.11939,-6.20845],[0,0]],[[228.76195,145.73318],[0.29544,-0.48715],[2.46138,4.17024]],[[235.33358,158.55718],[-2.22979,-3.88232],[1.4129,2.46001]],[[240.46099,165.36714],[-1.63105,-2.32356],[0,0]],[241.08786,167.19286],[[239.26884,170.22455],[2.42536,-0.60634],[-2.42535,0.60634]],[236.23715,168.40554],[[236.36483,168.23445],[0,0],[-1.71794,-2.46177]],[[231.00904,161.06681],[1.51544,2.60021],[-4.81226,-8.25692]],[[210.39706,141.49863],[12.4301,-3.59035],[-2.37348,0.68556]],[[204.0251,145.01349],[1.57472,-2.10444],[-1.52992,2.04458]],[[200.82129,152.44054],[1.48562,-2.27972],[-8.18481,12.86309]],[[187.98701,194.48813],[1.57214,-14.98648],[-0.29202,2.78373]],[[188.11568,202.96163],[-0.17251,-2.83094],[9.44368,-1.24251]],[[216.49608,203.50574],[-9.53569,-1.03487],[3.36048,0.3647]],[[226.4111,205.24564],[-3.38863,-0.30619],[7.4248,0.6709]],[[248.89612,205.48477],[-7.44642,0],[5.3479,0.00167]],[[264.7814,204.48796],[-5.3272,0.17948],[14.38254,-0.48458]],[[307.8017,202.98877],[-14.3586,0.00747],[0,0]],[310.54729,202.98877],[[310.67209,202.99496],[-0.07908,-0.00619],[0.07908,-0.00618]],[310.79689,202.98877]],&quot;closed&quot;:true,&quot;fillColor&quot;:[0,0,0,1]}]}" fill="#810082" stroke="none" stroke-width="0.5"/><path d="M288.73832,175.32211h2.7456c3.82204,0.03502 7.3424,-1.24141 11.23199,-1.248c1.33607,-0.00226 5.65161,0.7417 6.83373,0.12499c0.26131,-0.13632 -0.05639,-0.58677 -0.08498,-0.88011c-0.07476,-0.76694 -0.08111,-1.54375 -0.22509,-2.30075c-0.71332,-3.75035 -2.52404,-7.10566 -3.22092,-10.8639c-0.86805,-3.21004 -0.79368,-5.76647 -1.04817,-9.04267c-0.39537,-5.08987 -2.70396,-10.82022 -4.77873,-15.43285c-1.0731,-2.38572 -2.31756,-4.91945 -3.93627,-6.98327c-1.82729,-2.32976 -4.40591,-4.28168 -5.38416,-7.20638c-1.84177,-5.50634 0.1278,-10.74976 -3.95862,-15.34146c-7.60856,-7.60088 -14.52948,-16.62591 -25.01121,-20.58337c-2.37225,-0.89566 -5.02247,-1.88781 -7.56456,-2.0955c-1.44964,-0.11844 -4.97114,0.21411 -6.1617,-0.07141c-2.67791,-0.64221 -4.94544,-3.11259 -7.47508,-4.06764c-1.05581,-0.39862 -3.3856,-0.38706 -4.5089,-0.42275c-3.70974,2.14126 -6.84839,5.67179 -9.78118,8.77739c-2.06694,2.18873 -5.01242,4.1003 -6.87437,6.35949c-1.54517,1.87483 -2.6985,4.7482 -4.11232,6.81412c-3.5173,5.13958 -7.22116,10.05086 -8.34055,16.25931c0,0 -0.084,0.46202 -0.37944,0.94917c2.46138,4.17024 1.11973,2.687 3.34952,6.56932c3.87354,6.74425 8.82703,4.66359 1.28176,6.54991c-7.40265,1.85067 -2.52222,2.93133 -6.36444,-3.66121c-6.50422,-6.90382 -4.91374,-13.44726 -15.54151,-13.98172c-0.35962,-0.01808 -0.71331,0.18027 -1.09022,0.28914c-2.37348,0.68556 -4.79724,1.41042 -6.37196,3.51486c-1.52992,2.04458 -1.71819,5.14733 -3.20381,7.42705c-8.18481,12.86309 -11.26214,27.06111 -12.83428,42.04759c-0.29202,2.78373 -0.04384,5.64256 0.12867,8.4735c9.44368,-1.24251 18.84471,-0.49076 28.3804,0.54411c3.36048,0.3647 6.52639,1.43371 9.91502,1.7399c7.4248,0.6709 15.0386,0.23913 22.48502,0.23913c5.3479,0.00167 10.55808,-0.81733 15.88528,-0.99681c14.38254,-0.48458 28.6617,-1.49172 43.0203,-1.49919h2.74559c0,0 0.04572,0 0.1248,0.00619c0.07908,-0.00618 0.1248,-0.00619 0.1248,-0.00619zM211.29493,98.03745c1.48519,-2.17112 2.7462,-5.18562 4.37408,-7.16348c1.94299,-2.3607 4.95822,-4.34874 7.10322,-6.6197c3.70099,-3.91831 7.40651,-7.66454 12.18361,-10.1922c2.64452,-0.04778 4.9063,-0.33258 7.4719,0.57565c2.31737,0.82035 4.60169,3.35463 7.00172,3.91956c1.72628,0.40634 3.55376,-0.23242 5.31989,-0.07141c3.01344,0.27472 6.0935,1.31643 8.90904,2.39729c11.25543,4.32089 18.70299,13.63822 26.90557,21.84862c1.86542,2.15877 2.53534,2.5495 3.53427,5.38942c1.31205,3.73012 0.35523,7.92015 1.49272,11.71711c0.65473,2.1855 3.26648,4.04639 4.59983,5.77282c1.85323,2.39957 3.30751,5.2325 4.55012,7.99273c2.31465,5.14155 4.70561,11.34685 5.20527,17.01513c0.28168,3.19548 0.09658,5.33327 0.94863,8.42932c0.83934,4.72 4.36925,9.86289 3.54278,14.79054c-0.24293,1.44841 -0.47327,3.14943 -1.58258,4.11189c-1.54329,1.33899 -5.39857,1.12041 -7.39347,1.12339c-4.80919,0.00719 -9.24926,1.21401 -13.9776,1.248h-2.7456c0,0 -0.04572,0 -0.1248,-0.00618c-0.07908,0.00618 -0.1248,0.00618 -0.1248,0.00618h-2.74559c-14.29861,-0.007 -28.51649,1.02396 -42.84207,1.49601c-5.38486,0.17744 -10.65567,0.99838 -16.06351,0.99999c-7.59906,0 -15.36595,0.4325 -22.94216,-0.26007c-3.43711,-0.3142 -6.65099,-1.39517 -10.05298,-1.7545c-9.47369,-1.00066 -18.78237,-1.80045 -28.16095,-0.40774c-0.35599,0.49961 -0.96179,0.92471 -1.99268,0.92471c-0.87016,0 -1.43745,-0.30288 -1.80729,-0.69778c-0.5999,-0.23731 -1.1948,-0.75327 -1.39869,-1.8407c-0.20596,-1.09849 0.17123,-1.79797 0.65134,-2.23566c-0.14876,-3.39108 -0.52754,-6.82649 -0.18423,-10.18761c1.61281,-15.79015 5.00905,-30.77856 13.62331,-44.31397c2.70502,-3.93852 2.35548,-7.53771 6.67204,-10.68176c1.71123,-1.24641 3.73056,-1.77533 5.71698,-2.33792c2.89956,-0.82121 3.3104,-1.10503 6.36996,-0.83809c4.10969,0.35856 7.17731,2.18705 9.64136,4.78296c1.72625,-5.47625 5.01415,-10.09788 8.32137,-14.93253z" fill="#fff700" stroke="#00a916" stroke-width="0"/><path d="M288.77514,175.35595c0,0 -0.04576,0.00006 -0.12484,0.00624c-0.07908,-0.00619 -0.12484,-0.00615 -0.12484,-0.00615l-2.74655,0.00101c-14.3586,0.00747 -28.66839,1.02941 -43.05093,1.51399c-5.3272,0.17948 -10.55328,0.99757 -15.90118,0.9959c-7.44642,0 -15.07754,0.42431 -22.50234,-0.24659c-3.38863,-0.30619 -6.56017,-1.37964 -9.92065,-1.74434c-9.53569,-1.03487 -18.94485,-1.79618 -28.38853,-0.55367c-0.17251,-2.83094 -0.42294,-5.69356 -0.13092,-8.47729c1.57214,-14.98648 4.64366,-29.21117 12.82847,-42.07426c1.48562,-2.27972 1.67475,-5.38912 3.20467,-7.4337c1.57472,-2.10444 4.09547,-2.80538 6.46895,-3.49094c12.4301,-3.59035 15.80104,9.01415 20.6133,17.27107c1.57755,2.70678 2.7533,-6.22359 3.65691,-1.3589c-2.22979,-3.88232 -3.53932,-7.5374 -6.0007,-11.70764c0.29544,-0.48715 0.37996,-0.95064 0.37996,-0.95064c1.11939,-6.20845 4.83871,-11.14129 8.35601,-16.28087c1.41382,-2.06592 2.57522,-4.94461 4.12039,-6.81944c1.86195,-2.25919 4.81743,-4.17474 6.88437,-6.36347c2.93279,-3.1056 6.08327,-6.63793 9.79301,-8.77919c1.1233,0.03569 3.45766,0.0242 4.51347,0.42282c2.52964,0.95505 4.80545,3.42663 7.48336,4.06884c1.19056,0.28552 4.71809,-0.04523 6.16773,0.07321c2.54209,0.20769 5.19954,1.20319 7.57179,2.09885c10.48173,3.95746 17.42363,13.00541 25.03219,20.60629c4.08642,4.5917 2.12088,9.84928 3.96265,15.35562c0.97825,2.9247 3.55729,4.88332 5.38458,7.21308c1.61871,2.06382 2.86284,4.60309 3.93594,6.98881c2.07477,4.61263 4.38107,10.3532 4.77644,15.44307c0.25449,3.2762 0.17809,5.83771 1.04614,9.04775c0.69688,3.75824 2.50521,7.11807 3.21853,10.86842c0.14398,0.757 0.14976,1.53475 0.22452,2.30169c0.02859,0.29334 0.34607,0.74414 0.08476,0.88046c-1.18212,0.61671 -5.49891,-0.12538 -6.83498,-0.12312c-3.88959,0.00659 -7.41319,1.28715 -11.23523,1.25213l-2.74647,0.00097z" data-paper-data="{&quot;noHover&quot;:false,&quot;origItem&quot;:[&quot;Path&quot;,{&quot;applyMatrix&quot;:true,&quot;segments&quot;:[[288.73832,175.32211],[[291.48392,175.32211],[0,0],[3.82204,0.03502]],[[302.71591,174.07411],[-3.88959,0.00659],[1.33607,-0.00226]],[[309.54964,174.1991],[-1.18212,0.61671],[0.26131,-0.13632]],[[309.46466,173.31899],[0.02859,0.29334],[-0.07476,-0.76694]],[[309.23957,171.01824],[0.14398,0.757],[-0.71332,-3.75035]],[[306.01865,160.15434],[0.69688,3.75824],[-0.86805,-3.21004]],[[304.97048,151.11167],[0.25449,3.2762],[-0.39537,-5.08987]],[[300.19175,135.67882],[2.07477,4.61263],[-1.0731,-2.38572]],[[296.25548,128.69555],[1.61871,2.06382],[-1.82729,-2.32976]],[[290.87132,121.48917],[0.97825,2.9247],[-1.84177,-5.50634]],[[286.9127,106.14771],[4.08642,4.5917],[-7.60856,-7.60088]],[[261.90149,85.56434],[10.48173,3.95746],[-2.37225,-0.89566]],[[254.33693,83.46884],[2.54209,0.20769],[-1.44964,-0.11844]],[[248.17523,83.39743],[1.19056,0.28552],[-2.67791,-0.64221]],[[240.70015,79.32979],[2.52964,0.95505],[-1.05581,-0.39862]],[[236.19125,78.90704],[1.1233,0.03569],[-3.70974,2.14126]],[[226.41007,87.68443],[2.93279,-3.1056],[-2.06694,2.18873]],[[219.5357,94.04392],[1.86195,-2.25919],[-1.54517,1.87483]],[[215.42338,100.85804],[1.41382,-2.06592],[-3.5173,5.13958]],[[207.08283,117.11735],[1.11939,-6.20845],[0,0]],[[206.70339,118.06652],[0.29544,-0.48715],[2.46138,4.17024]],[[210.05291,124.63584],[-2.22979,-3.88232],[3.87354,6.74425]],[[211.33468,131.18575],[7.54527,-1.88632],[-7.40265,1.85067]],[[204.97023,127.52455],[3.84222,6.59253],[-6.50422,-6.90382]],[[189.42872,113.54283],[10.62776,0.53445],[-0.35962,-0.01808]],[[188.3385,113.83197],[0.37692,-0.10887],[-2.37348,0.68556]],[[181.96654,117.34683],[1.57472,-2.10444],[-1.52992,2.04458]],[[178.76273,124.77388],[1.48562,-2.27972],[-8.18481,12.86309]],[[165.92845,166.82147],[1.57214,-14.98648],[-0.29202,2.78373]],[[166.05712,175.29497],[-0.17251,-2.83094],[9.44368,-1.24251]],[[194.43752,175.83908],[-9.53569,-1.03487],[3.36048,0.3647]],[[204.35254,177.57898],[-3.38863,-0.30619],[7.4248,0.6709]],[[226.83756,177.81811],[-7.44642,0],[5.3479,0.00167]],[[242.72284,176.8213],[-5.3272,0.17948],[14.38254,-0.48458]],[[285.74314,175.32211],[-14.3586,0.00747],[0,0]],[288.48873,175.32211],[[288.61353,175.3283],[-0.07908,-0.00619],[0.07908,-0.00618]],[288.73833,175.32211]],&quot;closed&quot;:true,&quot;fillColor&quot;:[0,0,0,1]}]}" fill="url(#color-1)" stroke="none" stroke-width="0.5"/><path d="M222.55193,139.75367c2.74227,1.80473 5.24538,3.66619 8.34639,4.94601c1.16281,0.4799 2.46481,0.45499 3.72566,0.59669c3.21888,-1.46342 6.42017,-2.97391 9.75133,-4.13593c2.72992,-0.95228 5.66228,-1.47895 8.34971,-2.58718c3.56654,-1.47076 7.28578,-3.34234 11.17571,-3.76817c5.55802,-0.60843 10.60288,2.82914 9.98492,8.91381c-0.14416,1.41949 -0.94371,2.69301 -1.41557,4.03951c-5.52025,6.62643 -13.59691,7.12315 -21.71646,6.28068c-4.21607,-0.43745 -9.27244,-0.80401 -13.27146,-2.23193c-0.84105,-0.30031 -1.55965,-0.89148 -2.37077,-1.25809c-2.07282,0.93423 -4.16146,1.82567 -6.30674,2.55963c-3.85262,1.31809 -8.4232,1.59352 -12.44599,2.05003c-4.77878,-1.08045 -10.98954,-3.85744 -14.19212,-7.90352c-0.99674,-1.25926 -2.68568,-2.56443 -2.44394,-4.15213c0.35541,-2.33425 4.45072,-4.43714 6.44174,-5.37929c5.96534,-2.82281 11.59873,-1.54705 16.3876,2.02987zM241.30051,147.74264c3.19629,0.78105 6.89008,1.00369 9.96913,1.32316c5.55407,0.57628 12.95579,0.98793 16.86104,-3.79125c0.25792,-0.66291 0.69713,-1.28155 0.77376,-1.98873c0.64872,-5.98667 -9.01967,-2.67195 -11.71559,-1.42936c-3.68101,1.69663 -7.34642,2.71405 -11.167,4.0251c-1.59898,0.5487 -3.1671,1.18496 -4.72134,1.86108zM218.45894,142.90594c-2.30626,-1.50361 -4.98793,-2.39029 -7.79707,-1.75685c-1.10711,0.24964 -3.46051,1.81576 -4.51405,2.21863c-0.45878,0.17543 -1.07929,-0.06861 -1.45192,0.25139c-0.26032,0.22355 0.72473,-0.05295 1.02272,0.1172c1.44793,0.82675 2.71077,1.9422 4.05588,2.92742c2.39465,1.75395 3.91729,2.79558 6.8503,3.5021c3.35391,-0.44553 7.17883,-0.65497 10.39838,-1.7315c-0.41106,-0.20744 -0.81452,-0.42427 -1.21221,-0.64865c-1.30798,0.43799 -2.43885,-0.60898 -2.43885,-0.60898l-1.51852,-1.41032c-0.54657,-0.57177 -1.139,-1.13231 -1.77061,-1.65732c-0.3378,-0.22202 -0.67821,-0.44278 -1.02249,-0.66106c0,0 -0.29994,-0.191 -0.60155,-0.54206z" fill="#f8ff00" stroke="none" stroke-width="0.5"/><path d="M223.00371,144.36484c2.74401,1.80587 5.2487,3.66851 8.35168,4.94914c1.16355,0.4802 2.46637,0.45528 3.72802,0.59707c3.22092,-1.46435 6.42424,-2.97579 9.75751,-4.13855c2.73165,-0.95288 5.66587,-1.47989 8.355,-2.58882c3.5688,-1.47169 7.2904,-3.34446 11.18279,-3.77056c5.56154,-0.60882 10.6096,2.83093 9.99125,8.91946c-0.14425,1.42039 -0.94431,2.69472 -1.41647,4.04207c-5.52375,6.63063 -13.60553,7.12766 -21.73022,6.28466c-4.21874,-0.43773 -9.27832,-0.80452 -13.27987,-2.23334c-0.84158,-0.3005 -1.56064,-0.89205 -2.37227,-1.25889c-2.07413,0.93482 -4.1641,1.82683 -6.31074,2.56125c-3.85506,1.31893 -8.42854,1.59453 -12.45388,2.05133c-4.78181,-1.08113 -10.99651,-3.85988 -14.20111,-7.90853c-0.99737,-1.26006 -2.68738,-2.56606 -2.44549,-4.15476c0.35564,-2.33573 4.45354,-4.43995 6.44582,-5.3827c5.96912,-2.8246 11.60608,-1.54803 16.39799,2.03116zM241.76417,152.35887c3.19832,0.78155 6.89445,1.00433 9.97545,1.324c5.55759,0.57665 12.964,0.98856 16.87173,-3.79365c0.25808,-0.66333 0.69757,-1.28236 0.77425,-1.98999c0.64913,-5.99046 -9.02539,-2.67364 -11.72302,-1.43027c-3.68334,1.69771 -7.35108,2.71577 -11.17408,4.02765c-1.59999,0.54905 -3.16911,1.18571 -4.72433,1.86226zM218.90812,147.51911c-2.30772,-1.50456 -4.99109,-2.3918 -7.80201,-1.75796c-1.10781,0.2498 -3.4627,1.81691 -4.51691,2.22004c-0.45907,0.17554 -1.07997,-0.06865 -1.45284,0.25155c-0.26048,0.22369 0.72519,-0.05298 1.02337,0.11727c1.44885,0.82727 2.71249,1.94343 4.05845,2.92928c2.39617,1.75506 3.91977,2.79735 6.85464,3.50432c3.35604,-0.44581 7.18338,-0.65539 10.40497,-1.7326c-0.41132,-0.20757 -0.81504,-0.42454 -1.21298,-0.64906c-1.30881,0.43827 -2.4404,-0.60937 -2.4404,-0.60937l-1.51948,-1.41121c-0.54692,-0.57213 -1.13972,-1.13303 -1.77173,-1.65837c-0.33801,-0.22216 -0.67864,-0.44306 -1.02314,-0.66148c0,0 -0.30013,-0.19112 -0.60193,-0.5424z" fill="url(#color-2)" stroke="none" stroke-width="0.5"/><path d="M222.88624,135.71827c2.74401,1.80587 5.24871,3.66852 8.35168,4.94915c1.16354,0.48021 2.46637,0.45528 3.72802,0.59707c3.22092,-1.46435 6.42425,-2.9758 9.75752,-4.13855c2.73165,-0.95289 5.66586,-1.47989 8.355,-2.58882c3.5688,-1.47169 7.2904,-3.34446 11.18279,-3.77056c5.56155,-0.60881 10.6096,2.83093 9.99124,8.91946c-0.14425,1.42039 -0.9443,2.69472 -1.41647,4.04207c-5.52375,6.63063 -13.60553,7.12767 -21.73022,6.28466c-4.21874,-0.43773 -9.27832,-0.80452 -13.27987,-2.23334c-0.84159,-0.3005 -1.56064,-0.89205 -2.37228,-1.25889c-2.07414,0.93482 -4.1641,1.82683 -6.31073,2.56125c-3.85506,1.31893 -8.42854,1.59453 -12.45388,2.05133c-4.78181,-1.08113 -10.99651,-3.85988 -14.20112,-7.90853c-0.99737,-1.26006 -2.68738,-2.56606 -2.44549,-4.15476c0.35564,-2.33573 4.45354,-4.43995 6.44582,-5.3827c5.96912,-2.8246 11.60608,-1.54803 16.39799,2.03116zM241.64671,143.71231c3.19832,0.78154 6.89444,1.00432 9.97544,1.32399c5.55759,0.57665 12.964,0.98856 16.87173,-3.79365c0.25808,-0.66333 0.69757,-1.28236 0.77425,-1.98999c0.64913,-5.99046 -9.02539,-2.67364 -11.72302,-1.43026c-3.68334,1.69771 -7.35108,2.71577 -11.17408,4.02765c-1.6,0.54905 -3.1691,1.18571 -4.72433,1.86226zM218.79066,138.87254c-2.30772,-1.50457 -4.99109,-2.39181 -7.80201,-1.75797c-1.10781,0.2498 -3.4627,1.81691 -4.51691,2.22003c-0.45907,0.17554 -1.07998,-0.06865 -1.45284,0.25155c-0.26048,0.22369 0.72519,-0.05299 1.02337,0.11728c1.44885,0.82727 2.71249,1.94343 4.05845,2.92927c2.39617,1.75506 3.91977,2.79735 6.85464,3.50432c3.35603,-0.44581 7.18338,-0.65539 10.40497,-1.7326c-0.41132,-0.20757 -0.81504,-0.42454 -1.21298,-0.64906c-1.30881,0.43827 -2.4404,-0.60936 -2.4404,-0.60936l-1.51948,-1.41121c-0.54692,-0.57213 -1.13972,-1.13303 -1.77174,-1.65837c-0.33802,-0.22216 -0.67863,-0.44306 -1.02313,-0.66148c0,0 -0.30014,-0.19111 -0.60193,-0.5424z" fill="url(#color-3)" stroke="none" stroke-width="0.5"/></g></g></svg>