<svg version="1.1" xmlns="http://www.w3.org/2000/svg" xmlns:xlink="http://www.w3.org/1999/xlink" width="102.55832" height="127.58082" viewBox="0,0,102.55832,127.58082"><g transform="translate(-184.80409,-58.26904)"><g data-paper-data="{&quot;isPaintingLayer&quot;:true}" fill-rule="nonzero" stroke="none" stroke-width="0.5" stroke-linecap="butt" stroke-linejoin="miter" stroke-miterlimit="10" stroke-dasharray="" stroke-dashoffset="0" style="mix-blend-mode: normal"><path d="M214.98504,171.40534c-4.07802,0 -4.07802,-3.67023 -4.07802,-3.67023v-2.93621c0.04917,-9.988 0.4078,-20.02885 0.4078,-30.09585c0,-9.17928 -0.06801,-18.5193 0.412,-27.69301c0.17727,-3.38776 1.03582,-7.28112 0.44683,-10.67842c-1.88388,-10.8664 -1.66501,-22.45276 -1.67445,-33.56498c0,0 0,-3.67023 4.07802,-3.67023c4.07802,0 4.07802,3.67023 4.07802,3.67023c-0.00981,10.78293 -0.10833,21.95482 1.58799,32.49904c0.63053,3.91929 -0.15931,8.16334 -0.36877,12.07698c-0.48501,9.06184 -0.40362,18.29168 -0.40362,27.36039c0,10.03724 -0.46748,20.14858 -0.4078,30.09585v2.93621c0,0 0,3.67023 -4.07802,3.67023z" fill="#000000"/><path d="M284.31152,131.39986c-0.06648,3.31204 -2.28035,5.83181 -2.44681,9.05226c-0.30338,5.86857 2.97494,17.59584 -0.71365,22.87869c-0.73773,1.0566 -2.54055,1.06482 -3.61154,1.85736c-1.70815,1.26401 -12.63895,4.90686 -18.25458,3.51424c-4.27083,-0.11023 -9.78508,-1.82033 -13.3612,-2.06838c-5.18356,-0.35954 -14.08849,2.64252 -19.1124,1.8351c-3.50727,-0.56367 -8.80129,-2.5073 -10.70482,-5.50533c-5.51031,-8.6788 0.45103,-13.55371 0.91757,-21.31742c0.11928,-1.98481 -1.33484,-13.83243 -0.4078,-17.58697c1.44828,-5.86547 4.05684,-9.95521 3.67023,-16.41419c-0.63884,-10.67259 -5.85919,-16.62132 -2.80823,-28.97769c-0.81282,-1.4733 -1.26979,-3.13373 -1.26979,-4.89021c0,-3.58318 1.90179,-6.76664 4.84647,-8.7773c0.37666,-0.32815 0.7966,-0.6171 1.27058,-0.85706c0.96516,-0.48864 1.97944,-0.81081 3.02241,-1.02103c0.98841,-0.23189 2.02553,-0.35531 3.09464,-0.35531c0.07329,0 0.14641,0.00058 0.21939,0.00173c2.26685,-0.07688 4.56725,0.09023 6.71325,-0.00173c9.99409,-0.42831 38.80456,-2.63869 44.96027,8.44153c2.18116,3.9261 0.95995,17.66537 -0.90009,24.25121c4.8156,9.31726 4.97738,30.8982 4.87618,35.94046z" fill="#00ecff"/><path d="M274.79614,170.15765c-5.16647,0.25841 -11.22767,1.21463 -16.37105,0.49735c-8.13682,-1.1347 -16.73292,-3.62812 -24.98546,-4.3216c-4.55791,-0.38303 -5.51236,1.71128 -10.49469,-0.64349c-4.36978,-2.06528 -9.05781,-7.79606 -4.94769,-12.40486c0.34188,-0.38333 0.69683,-0.71151 1.06257,-0.99022c-0.29768,-0.17896 -0.59404,-0.35943 -0.889,-0.54135l-1.77778,-3.24066c0,0 0,-3.67023 4.31679,-3.67023c2.02286,0 3.09783,0.80596 3.66904,1.66251c15.449,9.23793 35.00732,14.11419 53.67564,15.23805c0,0 4.30583,0.26147 3.99826,3.92237c-0.2581,3.07211 -3.33181,3.38206 -4.3138,3.40229c-1.20363,1.00289 -2.94288,1.08987 -2.94288,1.08987z" data-paper-data="{&quot;index&quot;:null}" fill="#00b4c1"/><path d="M285.60601,170.5158c-0.05326,3.66935 -2.49126,3.58922 -2.49126,3.58922l-1.95042,-0.06411c-6.63405,-0.26228 -13.29912,-0.80422 -19.9863,-1.02397c-6.09749,-0.2004 -12.30262,-0.3431 -18.39013,-0.9753c-2.24807,-0.23347 -4.82307,-1.09098 -7.08747,-0.63518c-7.24275,1.45786 -14.93633,1.00796 -22.3179,0.77384c0,0 -2.43801,-0.08013 -2.38478,-3.74947c0.05321,-3.66935 2.49126,-3.58923 2.49126,-3.58923c7.16261,0.24424 14.5824,0.57678 21.60872,-0.71934c2.6117,-0.48178 5.42054,0.32154 8.0175,0.59548c6.01314,0.63424 12.14527,0.76251 18.16927,0.96047c5.74107,0.18868 11.51413,0.69043 17.22645,0.93057c1.13327,0.24074 2.31218,0.3751 3.52302,0.39069c1.10153,0.7883 2.23917,1.42023 3.39803,1.90299c0.11649,0.44069 0.18327,0.97221 0.17395,1.61329z" fill="#000000"/><path d="M224.28801,62.25076c5.16647,-0.25841 11.22768,-1.21464 16.37105,-0.49735c8.13682,1.1347 16.73292,3.62814 24.98546,4.3216c4.55791,0.38303 5.51234,-1.71128 10.49469,0.64349c4.36978,2.06528 9.05781,7.79606 4.94769,12.40486c-0.34188,0.38333 -0.69683,0.71151 -1.06259,0.99022c0.29768,0.17896 0.59404,0.35943 0.889,0.54135l1.77778,3.24066c0,0 0,3.67023 -4.31679,3.67023c-2.02289,0 -3.0978,-0.80596 -3.66904,-1.66251c-15.449,-9.23793 -35.00732,-14.11419 -53.67564,-15.23805c0,0 -4.30583,-0.26147 -3.99827,-3.92237c0.2581,-3.07211 3.3318,-3.38206 4.31379,-3.40229c1.20363,-1.00289 2.94288,-1.08987 2.94288,-1.08987z" fill="#71f6ff"/><path d="M241.14032,71.25416c0,1.8351 -2.03903,1.8351 -2.03903,1.8351h-2.17495c-4.6119,0 -8.72884,0.48988 -13.28337,1.12049c0,0 -2.01531,0.27903 -2.32535,-1.53472c-0.31004,-1.81377 1.70524,-2.0928 1.70524,-2.0928c4.74325,-0.65675 9.09578,-1.16317 13.90346,-1.16317h2.17495c0,0 2.03903,0 2.03903,1.8351z" fill="#0004ff"/><path d="M255.0892,72.40673c0.16932,1.82879 -1.86264,1.98118 -1.86264,1.98118c-0.72499,0.05436 -3.6249,0.27188 -4.3499,0.32624c0,0 -2.03198,0.15239 -2.2013,-1.67638c-0.16932,-1.82879 1.86264,-1.98118 1.86264,-1.98118c0.72499,-0.05436 1.44997,-0.10873 2.17495,-0.16313l2.17493,-0.16313c0,0 2.03198,-0.15239 2.2013,1.67638z" fill="#0004ff"/><path d="M271.5896,73.04846c0,1.8351 -2.03903,1.8351 -2.03903,1.8351l-1.42266,-0.02496c-2.16074,-0.33093 -4.18226,-0.30129 -6.37088,-0.30129c0,0 -2.03903,0 -2.03903,-1.8351c0,-1.8351 2.03903,-1.8351 2.03903,-1.8351c2.41389,0 4.65374,-0.00045 7.0413,0.35119l0.75225,-0.02496c0,0 2.03903,0 2.03903,1.8351z" fill="#0004ff"/><path d="M252.71956,83.25839c-0.28833,1.81668 -2.30689,1.55714 -2.30689,1.55714l-1.31556,-0.16964c-7.82788,-1.19888 -16.58512,-0.25339 -24.32233,0.97577c0,0 -2.00799,0.31892 -2.36234,-1.48828c-0.35436,-1.8072 1.65365,-2.1261 1.65365,-2.1261c8.21979,-1.30517 17.38462,-2.2067 25.70145,-0.98167l1.22188,0.1566c0,0 2.01851,0.25952 1.73017,2.07619z" fill="#6a6a6a"/><path d="M270.83687,84.60552c-0.33522,1.81013 -2.34648,1.50846 -2.34648,1.50846l-0.92161,-0.14448c-2.72482,-0.20643 -5.43457,-0.15679 -8.16796,-0.15679c0,0 -2.03903,0 -2.03903,-1.8351c0,-1.8351 2.03903,-1.8351 2.03903,-1.8351c2.84719,0 5.66789,-0.04146 8.50665,0.16948l1.25337,0.18175c0,0 2.01127,0.30169 1.67605,2.11183z" fill="#0004ff"/><path d="M233.34678,93.11237c0,1.8351 -2.03903,1.8351 -2.03903,1.8351h-0.72499c-1.47907,-0.00338 -2.96027,0.11673 -4.42402,0.3078c0,0 -2.01851,0.25952 -2.30689,-1.55714c-0.28833,-1.81668 1.73017,-2.07619 1.73017,-2.07619c1.65545,-0.20994 3.32895,-0.34136 5.00077,-0.34468h0.72499c0,0 2.03903,0 2.03903,1.8351z" fill="#6a6a6a"/><path d="M255.82122,93.92799c0,1.8351 -2.03903,1.8351 -2.03903,1.8351h-1.26872c-3.10636,0 -6.18891,-0.02815 -9.28914,0.15905c0,0 -2.0345,0.12206 -2.17013,-1.70898c-0.13563,-1.83105 1.89887,-1.95311 1.89887,-1.95311c3.19136,-0.19034 6.36314,-0.16719 9.56043,-0.16719h1.26872c0,0 2.03903,0 2.03903,1.8351z" fill="#6a6a6a"/><path d="M276.30198,95.55918c0,1.8351 -2.03903,1.8351 -2.03903,1.8351h-0.72499c-3.93038,-0.01052 -7.70287,-1.00043 -11.59973,-0.97873c0,0 -2.03903,0 -2.03903,-1.8351c0,-1.8351 2.03903,-1.8351 2.03903,-1.8351c3.91778,0.01813 7.66846,0.99097 11.59973,0.97873h0.72499c0,0 2.03903,0 2.03903,1.8351z" fill="#0004ff"/><path d="M242.22778,103.38901c0,1.8351 -2.03903,1.8351 -2.03903,1.8351l-2.27094,-0.047c-4.7714,-1.01812 -8.8291,-0.38344 -13.28387,1.22071c0,0 -1.89319,0.68155 -2.65044,-1.02231c-0.75727,-1.70386 1.13591,-2.38538 1.13591,-2.38538c5.24984,-1.88945 10.12106,-2.52495 15.71543,-1.38922l1.35396,-0.047c0,0 2.03903,0 2.03903,1.8351z" fill="#6a6a6a"/><path d="M262.10396,105.62843c-0.49454,1.78033 -2.47266,1.33521 -2.47266,1.33521l-1.44997,-0.32624c-1.37021,-0.31835 -2.80275,-0.44307 -4.21785,-0.43458c0,0 -2.03903,0 -2.03903,-1.8351c0,-1.8351 2.03903,-1.8351 2.03903,-1.8351c1.74729,0.00863 3.50924,0.1721 5.20694,0.54414l1.44997,0.32624c0,0 1.97811,0.44507 1.48359,2.2254z" fill="#0004ff"/><path d="M270.59276,105.50958c0,-1.0135 0.91288,-1.8351 2.03903,-1.8351c1.1261,0 2.03903,0.82159 2.03903,1.8351c0,1.0135 -0.91289,1.8351 -2.03903,1.8351c-1.12612,0 -2.03903,-0.82159 -2.03903,-1.8351z" fill="#0004ff"/><path d="M224.19386,113.17625c0,-1.0135 0.91288,-1.8351 2.03903,-1.8351c1.12612,0 2.03903,0.82159 2.03903,1.8351c0,1.0135 -0.91288,1.8351 -2.03903,1.8351c-1.12612,0 -2.03903,-0.82159 -2.03903,-1.8351z" fill="#6a6a6a"/><path d="M242.3813,113.80421c-0.33522,1.81013 -2.34648,1.50846 -2.34648,1.50846l-2.0079,-0.30753c-1.57514,0.00448 -3.15028,0.00625 -4.72545,0.00625c0,0 -2.03903,0 -2.03903,-1.8351c0,-1.8351 2.03903,-1.8351 2.03903,-1.8351c1.68727,0 3.37454,0.00209 5.06181,0.00625l2.34198,0.34494c0,0 2.01127,0.30169 1.67605,2.11183z" fill="#6a6a6a"/><path d="M247.21205,113.50251c0,-1.0135 0.91288,-1.8351 2.03903,-1.8351c1.12612,0 2.03903,0.82159 2.03903,1.8351c0,1.0135 -0.91288,1.8351 -2.03903,1.8351c-1.12612,0 -2.03903,-0.82159 -2.03903,-1.8351z" fill="#6a6a6a"/><path d="M274.3083,115.13373c0,1.8351 -2.03903,1.8351 -2.03903,1.8351l-2.36363,-0.00786c-2.74709,-0.45674 -5.17774,-0.81275 -7.96736,-0.80774c0,0 -2.03903,0 -2.03903,-1.8351c0,-1.8351 2.03903,-1.8351 2.03903,-1.8351c2.90735,0.00471 5.49218,0.33426 8.34473,0.8235l1.98626,-0.00786c0,0 2.03903,0 2.03903,1.8351z" fill="#0004ff"/><path d="M252.37754,123.12665c0,1.8351 -2.03903,1.8351 -2.03903,1.8351h-0.90624c-7.30291,0 -16.58652,-0.86786 -23.56918,0.91406c0,0 -1.96719,0.48284 -2.50367,-1.28761c-0.5365,-1.77045 1.43068,-2.25331 1.43068,-2.25331c7.46779,-1.77735 16.88486,-1.04339 24.64217,-1.04339h0.90624c0,0 2.03903,0 2.03903,1.8351z" fill="#6a6a6a"/><path d="M276.45549,123.91773c-0.33522,1.81013 -2.34648,1.50846 -2.34648,1.50846l-2.09223,-0.3154c-2.22189,-0.16669 -4.40489,-0.14901 -6.63485,-0.14901c0,0 -2.03903,0 -2.03903,-1.8351c0,-1.8351 2.03903,-1.8351 2.03903,-1.8351c2.40204,0 4.74562,-0.00225 7.13983,0.17724l2.25768,0.33709c0,0 2.01127,0.30172 1.67605,2.11184z" fill="#0004ff"/><path d="M222.56263,131.60896c0,-1.0135 0.91288,-1.8351 2.03903,-1.8351c1.12612,0 2.03903,0.82159 2.03903,1.8351c0,1.0135 -0.91288,1.8351 -2.03903,1.8351c-1.12612,0 -2.03903,-0.82159 -2.03903,-1.8351z" fill="#6a6a6a"/><path d="M243.13402,130.79334c0,1.8351 -2.03903,1.8351 -2.03903,1.8351h-0.54372c-1.51548,-0.00098 -3.03295,0.04237 -4.54307,0.15679c0,0 -2.03198,0.15239 -2.2013,-1.67638c-0.16932,-1.82879 1.86264,-1.98118 1.86264,-1.98118c1.62291,-0.12057 3.25327,-0.16849 4.88171,-0.16948h0.54372c0,0 2.03903,0 2.03903,1.8351z" fill="#6a6a6a"/><path d="M266.86147,131.18409c-0.25293,1.82092 -2.27617,1.59333 -2.27617,1.59333l-1.36638,-0.15528c-3.71753,-0.2788 -6.87069,-0.2445 -10.55143,0.30759c0,0 -2.01127,0.30169 -2.34648,-1.50846c-0.33522,-1.81013 1.67605,-2.11183 1.67605,-2.11183c4.00011,-0.6 7.52362,-0.64765 11.56052,-0.34489l1.53354,0.17095c0,0 2.02327,0.22763 1.77035,2.04856z" fill="#0004ff"/><path d="M232.80302,139.60189c0,1.8351 -2.03903,1.8351 -2.03903,1.8351h-0.18126c-2.28238,-0.00607 -4.42606,-0.33276 -6.70607,-0.32624c0,0 -2.03903,0 -2.03903,-1.8351c0,-1.8351 2.03903,-1.8351 2.03903,-1.8351c2.28494,0.00566 4.42967,0.33334 6.70607,0.32624h0.18126c0,0 2.03903,0 2.03903,1.8351z" fill="#6a6a6a"/><path d="M267.23969,138.46004c0,1.8351 -2.03903,1.8351 -2.03903,1.8351h-1.9937c-7.09973,0 -14.12103,0.32624 -21.20575,0.32624c0,0 -2.03903,0 -2.03903,-1.8351c0,-1.8351 2.03903,-1.8351 2.03903,-1.8351c7.0832,0 14.10651,-0.32624 21.20575,-0.32624h1.9937c0,0 2.03903,0 2.03903,1.8351z" fill="#0004ff"/><path d="M232.03273,148.36966c-1.22341,1.46809 -2.85463,0.36702 -2.85463,0.36702l0.0039,-0.17713c-2.21517,-0.51469 -2.94885,-0.68413 -5.00532,0.21654c0,0 -1.85625,0.75936 -2.7,-0.91127c-0.84377,-1.67062 1.01251,-2.42998 1.01251,-2.42998c2.91516,-1.13721 4.61328,-1.10838 7.68188,-0.43592l1.45387,0.80158c0,0 1.63121,1.10107 0.4078,2.56917z" fill="#6a6a6a"/><path d="M244.375,146.64066c0.33522,1.81013 -1.67605,2.11183 -1.67605,2.11183l-1.27743,0.18342c-0.84582,0.05436 -1.69164,0.10873 -2.53744,0.16313c0,0 -2.03381,0.13075 -2.17911,-1.69972c-0.14528,-1.83045 1.88857,-1.9612 1.88857,-1.9612c0.84582,-0.05436 1.69164,-0.10876 2.53744,-0.16313l0.89756,-0.14281c0,0 2.01127,-0.30169 2.34648,1.50846z" fill="#6a6a6a"/><path d="M264.59763,148.17515c-0.64477,1.74095 -2.57918,1.16062 -2.57918,1.16062l-0.75275,-0.25339c-3.08968,-0.43537 -6.1717,-0.3049 -9.29596,-0.3049c0,0 -2.03903,0 -2.03903,-1.8351c0,-1.8351 2.03903,-1.8351 2.03903,-1.8351c3.34004,0 6.60904,-0.10317 9.91607,0.3476l1.42222,0.39907c0,0 1.93439,0.58032 1.28957,2.32125z" fill="#0004ff"/><path d="M269.86775,148.08419c0,-1.0135 0.91289,-1.8351 2.03903,-1.8351c1.12612,0 2.03903,0.82159 2.03903,1.8351c0,1.0135 -0.91288,1.8351 -2.03903,1.8351c-1.1261,0 -2.03903,-0.82159 -2.03903,-1.8351z" fill="#0004ff"/><path d="M237.87789,155.26152c0,1.8351 -2.03903,1.8351 -2.03903,1.8351h-0.18126c-3.32275,0 -6.58338,-0.09067 -9.88027,0.31014c0,0 -2.02112,0.24254 -2.29061,-1.57648c-0.26948,-1.81902 1.75164,-2.06154 1.75164,-2.06154c3.48226,-0.41291 6.91241,-0.34234 10.41924,-0.34234h0.18126c0,0 2.03903,0 2.03903,1.8351z" fill="#6a6a6a"/><path d="M245.94334,155.75088c0,-1.0135 0.91288,-1.8351 2.03903,-1.8351c1.12612,0 2.03903,0.82159 2.03903,1.8351c0,1.0135 -0.91288,1.8351 -2.03903,1.8351c-1.12612,0 -2.03903,-0.82159 -2.03903,-1.8351z" fill="#6a6a6a"/><path d="M256.27433,155.75088c0,-1.0135 0.91288,-1.8351 2.03903,-1.8351c1.1261,0 2.03903,0.82159 2.03903,1.8351c0,1.0135 -0.91289,1.8351 -2.03903,1.8351c-1.12612,0 -2.03903,-0.82159 -2.03903,-1.8351z" fill="#6a6a6a"/><path d="M274.12704,156.40336c0,1.8351 -2.03903,1.8351 -2.03903,1.8351l-0.69771,-0.02496c-1.60468,-0.24089 -3.21532,-0.45025 -4.8279,-0.64361c0,0 -2.02112,-0.24254 -1.75164,-2.06155c0.26948,-1.81902 2.29061,-1.57648 2.29061,-1.57648c1.65648,0.19892 3.3109,0.41427 4.95936,0.66137l0.02729,-0.02496c0,0 2.03903,0 2.03903,1.8351z" fill="#0004ff"/><path d="M258.61963,143.14459c-0.06762,3.31204 -2.31915,5.83181 -2.48848,9.05226c-0.30853,5.86857 3.02559,17.59584 -0.72579,22.87869c-0.75029,1.0566 -2.58378,1.06482 -3.67299,1.85736c-1.73724,1.26401 -12.85415,4.90683 -18.56539,3.51424c-4.34353,-0.11023 -9.95164,-1.82035 -13.58866,-2.06838c-5.27183,-0.35954 -14.32833,2.64252 -19.43778,1.8351c-3.56698,-0.56367 -8.95114,-2.5073 -10.88708,-5.50533c-5.60414,-8.6788 0.45873,-13.55371 0.93317,-21.31742c0.12129,-1.98481 -1.35758,-13.83243 -0.41474,-17.58697c1.47293,-5.86547 4.12591,-9.95521 3.73272,-16.41419c-0.64969,-10.67259 -5.95894,-16.62132 -2.85603,-28.97769c-0.82665,-1.4733 -1.29143,-3.13373 -1.29143,-4.89021c0,-3.58318 1.93415,-6.76664 4.92897,-8.7773c0.38306,-0.32815 0.81017,-0.6171 1.29222,-0.85706c0.9816,-0.48864 2.01314,-0.81081 3.07388,-1.02103c1.00526,-0.23189 2.06002,-0.35531 3.14732,-0.35531c0.07452,0 0.14892,0.00058 0.22314,0.00173c2.30545,-0.07688 4.645,0.09023 6.82755,-0.00173c10.16424,-0.42831 39.46522,-2.63869 45.72568,8.44153c2.2183,3.9261 0.97628,17.66537 -0.91542,24.25121c4.89758,9.31726 5.0621,30.8982 4.95919,35.94046z" fill="#00ecff"/><path d="M246.35852,181.88795c-5.16647,0.25841 -11.22768,1.21464 -16.37105,0.49735c-8.13682,-1.1347 -16.7329,-3.62814 -24.98546,-4.3216c-4.55791,-0.38303 -5.51236,1.7113 -10.49469,-0.64348c-4.36978,-2.06528 -9.05781,-7.7961 -4.94769,-12.40486c0.34188,-0.38333 0.69686,-0.71151 1.06259,-0.99022c-0.29768,-0.17896 -0.59405,-0.35943 -0.889,-0.54135l-1.77778,-3.2407c0,0 0,-3.67023 4.31679,-3.67023c2.02286,0 3.09783,0.80596 3.66904,1.66251c15.449,9.23793 35.00732,14.11416 53.67564,15.23805c0,0 4.30583,0.26147 3.99827,3.92237c-0.2581,3.07211 -3.33181,3.38206 -4.3138,3.40229c-1.20363,1.00289 -2.94288,1.08987 -2.94288,1.08987z" data-paper-data="{&quot;index&quot;:null}" fill="#00b4c1"/><path d="M197.36389,74.25349c5.16647,-0.25841 11.22768,-1.21463 16.37105,-0.49735c8.13682,1.1347 16.7329,3.62814 24.98546,4.3216c4.55791,0.38303 5.51236,-1.7113 10.49469,0.64348c4.36978,2.06528 9.05781,7.79606 4.94769,12.40486c-0.34188,0.38333 -0.69686,0.71151 -1.06259,0.99022c0.29768,0.17896 0.59404,0.35943 0.889,0.54135l1.77778,3.24066c0,0 0,3.67023 -4.31679,3.67023c-2.02286,0 -3.09783,-0.80596 -3.66904,-1.66251c-15.449,-9.23793 -35.00732,-14.11419 -53.67564,-15.23805c0,0 -4.30583,-0.26147 -3.99826,-3.92237c0.2581,-3.07211 3.3318,-3.38206 4.31379,-3.40229c1.20363,-1.00289 2.94288,-1.08987 2.94288,-1.08987z" fill="#71f6ff"/><path d="M215.44874,82.99887c0,1.8351 -2.03903,1.8351 -2.03903,1.8351h-2.17493c-4.6119,0 -8.72884,0.48988 -13.28337,1.12049c0,0 -2.01531,0.27903 -2.32536,-1.53472c-0.31004,-1.81377 1.70524,-2.09283 1.70524,-2.09283c4.74325,-0.65675 9.09578,-1.16317 13.90346,-1.16317h2.17493c0,0 2.03903,0 2.03903,1.8351z" fill="#0004ff"/><path d="M229.3976,84.15143c0.16934,1.82879 -1.86265,1.98118 -1.86265,1.98118c-0.72499,0.05436 -3.6249,0.27188 -4.3499,0.32624c0,0 -2.03198,0.15241 -2.2013,-1.67638c-0.16934,-1.82879 1.86265,-1.98118 1.86265,-1.98118c0.72499,-0.05436 1.44997,-0.10873 2.17493,-0.16312l2.17493,-0.16313c0,0 2.03198,-0.15241 2.2013,1.67638z" fill="#0004ff"/><path d="M245.89802,84.7932c0,1.8351 -2.03903,1.8351 -2.03903,1.8351l-1.42268,-0.02496c-2.16077,-0.33093 -4.18226,-0.30126 -6.37088,-0.30126c0,0 -2.03903,0 -2.03903,-1.8351c0,-1.8351 2.03903,-1.8351 2.03903,-1.8351c2.41389,0 4.65374,-0.00045 7.0413,0.35121l0.75227,-0.02496c0,0 2.03903,0 2.03903,1.8351z" fill="#0004ff"/><path d="M227.02798,95.0031c-0.28837,1.81668 -2.30687,1.55714 -2.30687,1.55714l-1.31556,-0.16964c-7.82788,-1.19889 -16.58512,-0.25339 -24.32233,0.97577c0,0 -2.00799,0.31892 -2.36234,-1.48828c-0.35436,-1.8072 1.65365,-2.1261 1.65365,-2.1261c8.2198,-1.30517 17.38464,-2.2067 25.70145,-0.98167l1.22188,0.15661c0,0 2.01851,0.25952 1.73017,2.07617z" fill="#0004ff"/><path d="M245.14531,96.35024c-0.33522,1.81013 -2.34648,1.50846 -2.34648,1.50846l-0.9216,-0.14448c-2.72482,-0.20643 -5.43457,-0.15679 -8.16796,-0.15679c0,0 -2.03903,0 -2.03903,-1.8351c0,-1.8351 2.03903,-1.8351 2.03903,-1.8351c2.84719,0 5.66789,-0.04146 8.50665,0.16948l1.25337,0.18175c0,0 2.01127,0.30169 1.67605,2.11183z" fill="#0004ff"/><path d="M207.65518,104.85708c0,1.8351 -2.03903,1.8351 -2.03903,1.8351h-0.72499c-1.47907,-0.00338 -2.96027,0.11673 -4.42402,0.3078c0,0 -2.01851,0.25952 -2.30687,-1.55714c-0.28837,-1.81668 1.73017,-2.07617 1.73017,-2.07617c1.65545,-0.20994 3.32895,-0.34136 5.00077,-0.34469h0.72499c0,0 2.03903,0 2.03903,1.8351z" fill="#0004ff"/><path d="M230.12965,105.6727c0,1.8351 -2.03903,1.8351 -2.03903,1.8351h-1.26872c-3.10636,0 -6.18891,-0.02815 -9.28914,0.15905c0,0 -2.0345,0.12206 -2.17013,-1.70898c-0.13563,-1.83105 1.89887,-1.95311 1.89887,-1.95311c3.19136,-0.19031 6.36311,-0.16719 9.56043,-0.16719h1.26872c0,0 2.03903,0 2.03903,1.8351z" fill="#0004ff"/><path d="M250.61041,107.30391c0,1.8351 -2.03903,1.8351 -2.03903,1.8351h-0.72499c-3.93038,-0.01048 -7.70287,-1.00043 -11.59973,-0.97873c0,0 -2.03903,0 -2.03903,-1.8351c0,-1.8351 2.03903,-1.8351 2.03903,-1.8351c3.91778,0.01813 7.66846,0.99097 11.59973,0.97873h0.72499c0,0 2.03903,0 2.03903,1.8351z" fill="#0004ff"/><path d="M216.53622,115.13373c0,1.8351 -2.03903,1.8351 -2.03903,1.8351l-2.27094,-0.047c-4.7714,-1.01812 -8.82906,-0.38344 -13.28389,1.22071c0,0 -1.89319,0.68155 -2.65044,-1.02231c-0.75727,-1.70386 1.13591,-2.38538 1.13591,-2.38538c5.24984,-1.88945 10.12106,-2.52495 15.71543,-1.38922l1.35396,-0.047c0,0 2.03903,0 2.03903,1.8351z" fill="#0004ff"/><path d="M236.41236,117.37314c-0.49454,1.78033 -2.47266,1.33524 -2.47266,1.33524l-1.44997,-0.32624c-1.37022,-0.31835 -2.80275,-0.44307 -4.21785,-0.43458c0,0 -2.03903,0 -2.03903,-1.8351c0,-1.8351 2.03903,-1.8351 2.03903,-1.8351c1.74729,0.0086 3.50924,0.17212 5.20694,0.54415l1.44997,0.32624c0,0 1.97813,0.44507 1.4836,2.2254z" fill="#0004ff"/><path d="M244.90118,117.25432c0,-1.0135 0.91288,-1.8351 2.03903,-1.8351c1.12612,0 2.03903,0.82159 2.03903,1.8351c0,1.0135 -0.91288,1.8351 -2.03903,1.8351c-1.12612,0 -2.03903,-0.82159 -2.03903,-1.8351z" fill="#0004ff"/><path d="M198.50228,124.92101c0,-1.0135 0.91288,-1.8351 2.03903,-1.8351c1.12612,0 2.03903,0.82159 2.03903,1.8351c0,1.0135 -0.91288,1.8351 -2.03903,1.8351c-1.12612,0 -2.03903,-0.82159 -2.03903,-1.8351z" fill="#0004ff"/><path d="M216.68972,125.54895c-0.33522,1.81013 -2.34648,1.50846 -2.34648,1.50846l-2.00791,-0.30753c-1.57514,0.0045 -3.15032,0.00625 -4.72545,0.00625c0,0 -2.03903,0 -2.03903,-1.8351c0,-1.8351 2.03903,-1.8351 2.03903,-1.8351c1.68727,0 3.37455,0.00209 5.06181,0.00625l2.34198,0.34494c0,0 2.01127,0.30169 1.67605,2.11183z" fill="#0004ff"/><path d="M221.52048,125.24722c0,-1.0135 0.91288,-1.8351 2.03903,-1.8351c1.12612,0 2.03903,0.82159 2.03903,1.8351c0,1.0135 -0.91288,1.8351 -2.03903,1.8351c-1.12612,0 -2.03903,-0.82159 -2.03903,-1.8351z" fill="#0004ff"/><path d="M248.61671,126.87845c0,1.8351 -2.03903,1.8351 -2.03903,1.8351l-2.36363,-0.00786c-2.74709,-0.45674 -5.17773,-0.81274 -7.96736,-0.80771c0,0 -2.03903,0 -2.03903,-1.8351c0,-1.8351 2.03903,-1.8351 2.03903,-1.8351c2.90735,0.00469 5.49218,0.33429 8.34474,0.8235l1.98626,-0.00786c0,0 2.03903,0 2.03903,1.8351z" fill="#0004ff"/><path d="M226.68597,134.87139c0,1.8351 -2.03903,1.8351 -2.03903,1.8351h-0.90624c-7.30291,0 -16.58652,-0.86786 -23.56918,0.91406c0,0 -1.96717,0.48287 -2.50367,-1.28761c-0.53651,-1.77045 1.43068,-2.25331 1.43068,-2.25331c7.46775,-1.77735 16.88486,-1.04339 24.64217,-1.04339h0.90624c0,0 2.03903,0 2.03903,1.8351z" fill="#0004ff"/><path d="M250.76393,135.66245c-0.33522,1.81013 -2.34648,1.50846 -2.34648,1.50846l-2.09223,-0.31539c-2.22189,-0.16669 -4.40489,-0.14901 -6.63485,-0.14901c0,0 -2.03903,0 -2.03903,-1.8351c0,-1.8351 2.03903,-1.8351 2.03903,-1.8351c2.40202,0 4.74562,-0.00225 7.13983,0.17724l2.25768,0.33709c0,0 2.01127,0.30169 1.67605,2.11183z" fill="#0004ff"/><path d="M196.87105,143.35367c0,-1.0135 0.91288,-1.8351 2.03903,-1.8351c1.12612,0 2.03903,0.82159 2.03903,1.8351c0,1.0135 -0.91288,1.8351 -2.03903,1.8351c-1.12612,0 -2.03903,-0.82159 -2.03903,-1.8351z" fill="#0004ff"/><path d="M217.44246,142.53808c0,1.8351 -2.03903,1.8351 -2.03903,1.8351h-0.54372c-1.51546,-0.001 -3.03294,0.04237 -4.54305,0.15679c0,0 -2.03198,0.15241 -2.2013,-1.6764c-0.16934,-1.82879 1.86265,-1.98118 1.86265,-1.98118c1.62291,-0.12057 3.25327,-0.16849 4.88171,-0.16948h0.54372c0,0 2.03903,0 2.03903,1.8351z" fill="#0004ff"/><path d="M241.16988,142.92882c-0.25293,1.82093 -2.27617,1.59333 -2.27617,1.59333l-1.36638,-0.15529c-3.71753,-0.2788 -6.87069,-0.2445 -10.55143,0.30759c0,0 -2.01127,0.30169 -2.34648,-1.50846c-0.33522,-1.81013 1.67605,-2.11183 1.67605,-2.11183c4.00011,-0.6 7.52362,-0.64765 11.56052,-0.34486l1.53354,0.17096c0,0 2.02327,0.22761 1.77035,2.04856z" fill="#0004ff"/><path d="M207.11145,151.34663c0,1.8351 -2.03903,1.8351 -2.03903,1.8351h-0.18126c-2.28238,-0.00607 -4.42606,-0.33276 -6.70607,-0.32624c0,0 -2.03903,0 -2.03903,-1.8351c0,-1.8351 2.03903,-1.8351 2.03903,-1.8351c2.28494,0.00566 4.42967,0.33334 6.70607,0.32624h0.18126c0,0 2.03903,0 2.03903,1.8351z" fill="#0004ff"/><path d="M241.54812,150.20475c0,1.8351 -2.03903,1.8351 -2.03903,1.8351h-1.9937c-7.09973,0 -14.12103,0.32624 -21.20575,0.32624c0,0 -2.03903,0 -2.03903,-1.8351c0,-1.8351 2.03903,-1.8351 2.03903,-1.8351c7.0832,0 14.10651,-0.32624 21.20575,-0.32624h1.9937c0,0 2.03903,0 2.03903,1.8351z" fill="#0004ff"/><path d="M206.34116,160.11437c-1.22341,1.46809 -2.85463,0.36702 -2.85463,0.36702l0.0039,-0.17715c-2.21517,-0.51469 -2.94885,-0.68413 -5.00532,0.21654c0,0 -1.85625,0.75936 -2.7,-0.91123c-0.84374,-1.67062 1.01249,-2.42998 1.01249,-2.42998c2.91516,-1.13719 4.61328,-1.10841 7.68188,-0.43592l1.45386,0.80158c0,0 1.63121,1.10107 0.4078,2.56917z" fill="#0004ff"/><path d="M218.68343,158.38537c0.33522,1.81013 -1.67605,2.11183 -1.67605,2.11183l-1.27743,0.18342c-0.84582,0.05436 -1.69164,0.10873 -2.53744,0.16312c0,0 -2.03381,0.13075 -2.17911,-1.69971c-0.14528,-1.83044 1.88856,-1.9612 1.88856,-1.9612c0.84582,-0.05436 1.69164,-0.10873 2.53744,-0.16313l0.89756,-0.14281c0,0 2.01127,-0.30169 2.34648,1.50846z" fill="#0004ff"/><path d="M238.90605,159.91989c-0.64477,1.74094 -2.57918,1.16064 -2.57918,1.16064l-0.75272,-0.25339c-3.08968,-0.43538 -6.17172,-0.3049 -9.29597,-0.3049c0,0 -2.03903,0 -2.03903,-1.8351c0,-1.8351 2.03903,-1.8351 2.03903,-1.8351c3.34004,0 6.60904,-0.10317 9.91607,0.3476l1.42222,0.39907c0,0 1.93439,0.58031 1.28957,2.32125z" fill="#0004ff"/><path d="M244.17617,159.82891c0,-1.0135 0.91288,-1.8351 2.03903,-1.8351c1.12612,0 2.03903,0.82159 2.03903,1.8351c0,1.0135 -0.91288,1.8351 -2.03903,1.8351c-1.12612,0 -2.03903,-0.82159 -2.03903,-1.8351z" fill="#0004ff"/><path d="M212.18632,167.00627c0,1.8351 -2.03903,1.8351 -2.03903,1.8351h-0.18126c-3.32278,0 -6.58338,-0.09067 -9.88027,0.31014c0,0 -2.02112,0.24254 -2.29061,-1.57648c-0.26948,-1.81902 1.75164,-2.06155 1.75164,-2.06155c3.48226,-0.41292 6.9124,-0.34234 10.41924,-0.34234h0.18126c0,0 2.03903,0 2.03903,1.8351z" fill="#0004ff"/><path d="M220.25176,167.49562c0,-1.0135 0.91288,-1.8351 2.03903,-1.8351c1.12612,0 2.03903,0.82159 2.03903,1.8351c0,1.0135 -0.91288,1.8351 -2.03903,1.8351c-1.12612,0 -2.03903,-0.82159 -2.03903,-1.8351z" fill="#0004ff"/><path d="M230.58276,167.49562c0,-1.0135 0.91288,-1.8351 2.03903,-1.8351c1.12612,0 2.03903,0.82159 2.03903,1.8351c0,1.0135 -0.91288,1.8351 -2.03903,1.8351c-1.12612,0 -2.03903,-0.82159 -2.03903,-1.8351z" fill="#0004ff"/><path d="M248.43546,168.14807c0,1.8351 -2.03903,1.8351 -2.03903,1.8351l-0.6977,-0.02496c-1.60468,-0.24088 -3.21532,-0.45025 -4.82791,-0.64361c0,0 -2.02112,-0.24254 -1.75164,-2.06155c0.26948,-1.81902 2.29061,-1.57648 2.29061,-1.57648c1.65651,0.19892 3.3109,0.41427 4.95936,0.66137l0.02729,-0.02496c0,0 2.03903,0 2.03903,1.8351z" fill="#0004ff"/><g fill="#000000"><path d="M189.29346,183.15004c-4.07802,0 -4.07802,-3.67023 -4.07802,-3.67023v-2.93617c0.04917,-9.988 0.4078,-20.02885 0.4078,-30.09585c0,-9.17928 -0.06801,-18.5193 0.412,-27.69301c0.17727,-3.38776 1.03582,-7.28112 0.44683,-10.67842c-1.88388,-10.8664 -1.66501,-22.45276 -1.67445,-33.56498c0,0 0,-3.67023 4.07802,-3.67023c4.07802,0 4.07802,3.67023 4.07802,3.67023c-0.00981,10.78293 -0.10833,21.95482 1.58799,32.49905c0.63053,3.91929 -0.15931,8.16334 -0.36877,12.07698c-0.48501,9.06184 -0.40362,18.29168 -0.40362,27.36039c0,10.03724 -0.46748,20.14858 -0.4078,30.09585v2.93617c0,0 0,3.67023 -4.07802,3.67023z"/><path d="M256.17312,183.15004c-4.07802,0 -4.07802,-3.67023 -4.07802,-3.67023v-2.93617c0.04917,-9.988 0.4078,-20.02885 0.4078,-30.09585c0,-9.17928 -0.06801,-18.5193 0.412,-27.69301c0.17727,-3.38776 1.03582,-7.28112 0.44683,-10.67842c-1.88388,-10.8664 -1.66501,-22.45276 -1.67445,-33.56498c0,0 0,-1.08312 0.65376,-2.07257c1.40029,0.37394 2.87926,0.58322 4.40918,0.60293c1.00465,0.71898 2.03937,1.30784 3.0928,1.77215c-0.01121,10.68925 -0.09217,21.75088 1.58828,32.19656c0.6305,3.91929 -0.15931,8.16334 -0.36874,12.07698c-0.48501,9.06184 -0.40362,18.29168 -0.40362,27.36039c0,10.03724 -0.46748,20.14858 -0.4078,30.09585v2.93617c0,0 0,3.67023 -4.07802,3.67023z"/><path d="M260.32225,76.55797c-0.05326,3.66935 -2.49126,3.58922 -2.49126,3.58922l-1.95042,-0.06411c-6.63405,-0.26228 -13.29913,-0.80422 -19.9863,-1.02397c-6.09749,-0.2004 -12.30262,-0.3431 -18.39013,-0.9753c-2.24807,-0.23347 -4.82307,-1.09098 -7.08747,-0.63518c-7.24275,1.45786 -14.93633,1.00796 -22.3179,0.77383c0,0 -2.43801,-0.08013 -2.38478,-3.74947c0.05321,-3.66935 2.49126,-3.58923 2.49126,-3.58923c7.16261,0.24424 14.5824,0.57678 21.60872,-0.71934c2.6117,-0.48178 5.42054,0.32154 8.0175,0.59548c6.01314,0.63424 12.14527,0.76251 18.16927,0.96047c5.74107,0.18868 11.51415,0.69043 17.22645,0.93057c1.13327,0.24074 2.31218,0.3751 3.52302,0.39069c1.10153,0.7883 2.23917,1.42023 3.39803,1.90299c0.11649,0.44069 0.18327,0.97221 0.17395,1.61329z"/><path d="M259.91444,182.2605c-0.05326,3.66935 -2.49126,3.58922 -2.49126,3.58922l-1.95042,-0.06411c-6.63405,-0.26228 -13.29913,-0.80422 -19.9863,-1.02397c-6.09749,-0.2004 -12.30262,-0.3431 -18.39013,-0.9753c-2.24807,-0.23347 -4.82307,-1.09098 -7.08747,-0.63518c-7.24275,1.45786 -14.93633,1.00796 -22.3179,0.77384c0,0 -2.43801,-0.08013 -2.38478,-3.74947c0.05321,-3.66935 2.49126,-3.58922 2.49126,-3.58922c7.16261,0.24424 14.5824,0.57678 21.60872,-0.71934c2.6117,-0.48178 5.42054,0.32154 8.0175,0.59548c6.01314,0.63424 12.14527,0.76251 18.16927,0.96047c5.74107,0.18868 11.51415,0.69043 17.22645,0.93057c1.13327,0.24074 2.31218,0.3751 3.52302,0.39069c1.10153,0.7883 2.23917,1.42021 3.39806,1.90299c0.11649,0.44069 0.18323,0.97221 0.17395,1.61329z"/></g><path d="M286.01382,64.81327c-0.05326,3.66935 -2.49126,3.58923 -2.49126,3.58923l-1.95042,-0.06411c-6.63405,-0.26228 -13.29912,-0.80422 -19.9863,-1.02397c-6.09749,-0.2004 -12.30262,-0.3431 -18.39013,-0.9753c-2.24807,-0.23347 -4.82307,-1.09098 -7.08747,-0.63518c-7.24275,1.45786 -14.93633,1.00796 -22.3179,0.77384c0,0 -2.43801,-0.08013 -2.38478,-3.74947c0.05321,-3.66935 2.49126,-3.58922 2.49126,-3.58922c7.16261,0.24424 14.5824,0.57678 21.60872,-0.71934c2.6117,-0.48178 5.42054,0.32154 8.0175,0.59548c6.01314,0.63424 12.14527,0.76251 18.16927,0.96047c5.74107,0.18868 11.51413,0.69043 17.22645,0.93057c1.13327,0.24074 2.31218,0.3751 3.52302,0.39069c1.10153,0.7883 2.23917,1.42021 3.39803,1.90299c0.11649,0.44069 0.18327,0.97221 0.17395,1.61329z" fill="#000000"/><path d="M281.86469,171.40534c-4.07802,0 -4.07802,-3.67023 -4.07802,-3.67023v-2.93621c0.04917,-9.988 0.4078,-20.02885 0.4078,-30.09585c0,-9.17928 -0.06801,-18.5193 0.412,-27.69301c0.17727,-3.38776 1.03582,-7.28112 0.44683,-10.67842c-1.88388,-10.8664 -1.66501,-22.45276 -1.67445,-33.56498c0,0 0,-1.08312 0.65376,-2.07257c1.40029,0.37394 2.87926,0.58322 4.40918,0.60293c1.00465,0.71898 2.03937,1.30784 3.0928,1.77215c-0.01121,10.68925 -0.09217,21.75088 1.58828,32.19656c0.6305,3.91929 -0.15931,8.16334 -0.36874,12.07698c-0.48501,9.06184 -0.40362,18.29168 -0.40362,27.36039c0,10.03724 -0.46748,20.14858 -0.4078,30.09585v2.93621c0,0 0,3.67023 -4.07802,3.67023z" fill="#000000"/></g></g></svg>