<svg version="1.1" xmlns="http://www.w3.org/2000/svg" xmlns:xlink="http://www.w3.org/1999/xlink" width="166.19641" height="152.01904" viewBox="0,0,166.19641,152.01904"><g transform="translate(-150.87871,-30.99395)"><g data-paper-data="{&quot;isPaintingLayer&quot;:true}" fill-rule="nonzero" stroke="none" stroke-width="0.5" stroke-linecap="butt" stroke-linejoin="miter" stroke-miterlimit="10" stroke-dasharray="" stroke-dashoffset="0" style="mix-blend-mode: normal"><g fill="#000000"><path d="M208.6069,52.99986c-0.57821,-2.70027 -1.50069,-5.35284 -2.75535,-7.81283c0,0 -0.0639,-0.12779 -0.14551,-0.34877c-0.99565,-0.88191 -2.03786,-2.47059 -1.00051,-4.89106c1.7249,-4.02475 5.74965,-2.29985 5.74965,-2.29985l3.44485,1.48143c8.01865,3.04808 15.29697,8.42851 20.21821,15.60934c1.15084,1.67925 2.13311,3.48018 2.97485,5.33378c0.55029,1.2118 0.32837,4.27208 1.52522,3.68993c6.70812,-3.26287 13.11113,-8.33289 20.06256,-11.48688c4.73208,-2.14703 10.10299,-4.03301 14.4484,1.56621c1.53093,1.97266 0.22404,4.99379 0.14731,7.48965c-0.15166,4.93254 -1.54619,9.47238 -1.58903,14.40578c1.22209,3.75918 6.76927,12.8564 11.55104,12.93795c3.31561,0.05654 7.83997,-2.7224 10.62298,-4.17504c3.69894,-1.93072 11.07164,-7.34245 15.45004,-1.80631c3.64166,4.60457 -4.1833,11.73561 -5.66057,14.9615c-1.30908,2.85864 -0.42187,9.25124 -0.25985,12.29328c0.4858,9.12153 -0.36719,18.20622 2.88941,26.83973c2.20905,7.3635 5.55176,14.23513 3.74158,22.13499c-3.77105,16.45738 -17.3316,17.24749 -31.15381,15.79259c-5.21503,-0.54892 -11.35593,-0.07466 -16.0034,-3.3058c-5.06272,-3.51982 -6.85557,-9.50921 -9.31862,-14.74968c-2.79448,-5.94557 -6.1647,-11.36083 -10.09184,-16.60987c-5.8434,-10.47912 -12.9218,-20.75217 -17.50204,-31.8574c-3.10813,-7.53595 -4.61489,-15.46958 -6.89069,-23.24326c-2.54417,-8.69034 -7.04137,-16.66947 -10.70061,-24.89415c0,0 -1.26727,-2.85139 0.74473,-4.80992z"/><path d="M256.19829,151.72531c2.59232,5.01434 10.88621,11.54186 6.28395,18.25451c-1.53389,2.23729 -5.16982,1.71959 -7.84716,2.15558c-9.34528,1.52183 -20.37458,0.0332 -29.86018,-0.01944c-6.36439,1.44762 -12.33567,5.52295 -18.76268,6.23498c-6.53963,0.7245 -15.91536,-1.53664 -21.65327,-4.64749c-7.26381,-3.93815 -12.2695,-11.40017 -13.19537,-19.5188c-0.19025,-1.66818 0.27187,-6.98084 -0.36092,-9.05028c-1.65539,-5.41379 -5.01488,-11.25641 -7.87453,-16.13929c-0.90389,-1.54339 -2.42694,-2.82329 -2.81194,-4.56996c-0.04209,-0.19093 -0.08038,-0.38237 -0.11518,-0.57427l-0.08973,0.02693l-1.52743,-5.09146c-0.13886,-0.42688 -0.21391,-0.88254 -0.21391,-1.35573c0,-2.41834 1.96046,-4.37879 4.3788,-4.37879c0.66714,0 1.29944,0.14919 1.86534,0.41604l4.58309,2.03693l-0.00077,0.00173c1.57288,0.70874 3.87543,2.58351 4.71819,1.19555c0.97412,-1.60427 -1.14982,-7.57619 -1.77462,-9.14962c-4.09258,-10.91352 -8.67295,-18.82022 -2.36753,-30.04395c3.05677,-5.44111 3.28467,-8.42632 11.492,-7.43689c6.07684,0.73259 8.40983,9.85761 14.48109,10.30064c3.94749,0.28805 4.78566,-3.08523 6.32004,-5.67396c2.30768,-3.89338 5.07117,-7.02714 7.09933,-11.11532c0,0 -3.23067,-11.69992 0.68585,-9.74167c1.41838,0.70919 37.56402,80.50709 46.54755,97.88402z"/><path d="M281.00658,84.21282c0.32924,-0.08424 0.68852,-0.19849 1.08047,-0.34398zM280.99315,84.21624c0.07608,-0.07524 3.57294,-3.49561 7.0698,0.00126c3.53553,3.53553 0,7.07107 0,7.07107l-2.81362,2.0671c-2.80985,0.87967 -4.49917,1.78002 -7.62858,1.03557c-2.01495,-0.47934 -4.07526,-1.14156 -5.74505,-2.36696c-7.38693,-5.42104 -2.8125,-16.2569 -5.04421,-23.51892c0,0 -1.37361,-4.80762 3.43401,-6.18123c4.80762,-1.3736 6.18123,3.43401 6.18123,3.43401c1.2239,4.49826 1.12694,8.75582 1.0516,13.40269c-0.0617,3.80556 0.27355,5.87359 3.49481,5.05541z"/><g><path d="M195.75792,87.5624c-4.21113,0 -4.37237,-4.04988 -4.37855,-4.36002c-3.17574,-2.41624 -6.92162,-4.57187 -9.6145,-7.30037c-1.00961,-1.02298 -2.05441,-2.11136 -2.75165,-3.36697c-0.80668,0.69082 -1.78624,1.2357 -2.59255,1.92683c-7.82581,7.38846 -2.59819,18.83135 0.16163,27.63698c0.76663,2.44603 3.27933,9.71162 2.13841,12.28427c-4.83556,10.90367 -6.43726,6.88354 -12.67128,2.84198c-0.13075,-0.08477 -1.27097,-0.59981 -2.57167,-1.24889c0.31601,0.5099 0.59475,0.99643 0.81456,1.38805c4.30213,7.6646 5.82454,16.09542 6.77966,24.73111c-0.05939,15.13096 11.58282,29.17797 26.94405,31.72356c9.91398,1.64291 20.81084,-1.54605 29.93251,-4.96668c0,0 4.1,-1.5375 5.6375,2.56249c1.5375,4.09999 -2.5625,5.6375 -2.5625,5.6375c-10.52421,3.94657 -22.99832,7.32111 -34.41031,5.4112c-19.27961,-3.22663 -34.21666,-20.69648 -34.28544,-39.88378c-1.0797,-9.66403 -3.91141,-16.2756 -8.08902,-24.79054c-1.1818,-2.40878 -4.23523,-4.98076 -3.11871,-7.42047c2.78209,-6.07915 10.78027,-4.92168 15.16349,-3.21703c0.91611,0.35627 2.13966,0.94591 3.20271,1.65517c-0.80088,-2.83089 -1.879,-5.93586 -2.78932,-8.67165c-3.84537,-11.55658 -5.17822,-22.81818 3.77339,-32.09889c1.90228,-1.6305 8.552,-7.64882 10.4222,-7.33617c2.64849,0.44277 3.46853,4.10176 5.12551,6.2148c3.47591,4.43257 8.268,7.17075 12.58959,10.86852l1.52911,5.40022c0,0 0,4.3788 -4.3788,4.3788zM191.78085,83.51175l1.12739,0.92089c-0.36397,-0.31256 -0.74079,-0.61898 -1.12739,-0.92089z"/><path d="M239.16597,69.83498c-4.29377,0.85876 -5.15251,-3.43501 -5.15251,-3.43501l-0.57714,-2.96967c-0.63267,-6.14706 -2.73777,-9.57664 -6.75602,-14.23847c-3.5365,-4.17697 -7.75319,-7.6756 -13.26054,-8.96883c-0.10899,-0.02559 -2.31539,-0.02215 -4.42424,-0.23614c0.57238,0.70854 1.07642,1.45462 1.41052,2.0211c2.76043,4.68037 2.8854,5.44945 3.21523,10.83765c0.84369,13.78318 -3.21088,25.02554 -15.02367,32.49453c0,0 -3.71322,2.32077 -6.03396,-1.39245c-2.32076,-3.71322 1.39245,-6.03397 1.39245,-6.03397c9.1966,-5.66644 13.71039,-17.445 10.57472,-28.25581c-0.90302,-3.11333 -8.54495,-10.51246 -7.90617,-12.83836c1.7134,-6.23868 8.98647,-5.94827 13.3856,-5.74627c9.57298,0.43956 17.20848,5.36112 23.31935,12.41918c5.13137,6.01588 7.88203,11.0742 8.81079,18.97073l0.46065,2.21928c0,0 0.85876,4.29376 -3.43501,5.15251z"/><path d="M273.55665,72.48771c-4.35202,0.48356 -4.83558,-3.86846 -4.83558,-3.86846l-0.53898,-4.91146c0,-1.51074 -0.13224,-6.45382 0.26731,-9.068c-2.46519,0.29505 -6.53402,0.12807 -8.16938,0.57865c-6.34591,1.74846 -11.62641,6.65255 -15.2963,11.83011c0,0 -2.54513,3.56317 -6.1083,1.01805c-3.56317,-2.54514 -1.01806,-6.1083 -1.01806,-6.1083c6.38063,-8.87474 15.00364,-14.65513 25.9588,-15.82208c2.81385,-0.29974 11.81626,-1.5104 13.55359,0.39466c1.478,1.6207 -0.44348,13.62272 -0.44348,16.69261l0.49881,4.42863c0,0 0.48356,4.35202 -3.86845,4.83558z"/><path d="M255.37154,168.11703c1.20295,-4.21032 5.41326,-3.00738 5.41326,-3.00738l4.38757,1.3316c2.60794,1.30397 5.06354,2.95961 7.8091,3.94123c9.00858,3.22081 28.05982,3.14623 30.14106,-8.53598c1.77335,-4.52098 1.37543,-7.88711 1.37543,-12.76337c0,-4.39667 0.48862,-9.16243 0.02615,-13.53233c-0.81297,-7.68155 -4.84132,-15.02401 -5.70783,-22.83132c-1.01351,-9.13178 1.26166,-16.0349 4.40381,-24.32773c0.59967,-1.58267 0.78844,-3.35528 0.94489,-5.08898c-5.34422,5.10801 -11.53442,7.86069 -19.17651,10.72648c0,0 -4.09999,1.5375 -5.6375,-2.56249c-1.5375,-4.09999 2.56249,-5.6375 2.56249,-5.6375c8.18694,-3.0701 14.47386,-5.52555 19.67067,-12.83434l2.50145,-4.00231c0.7662,-1.27174 2.16046,-2.12233 3.7534,-2.12233c2.1524,0 3.94209,1.55298 4.30966,3.59958l1.02187,5.10939l-0.03335,0.00668c0.02247,0.05997 0.04466,0.12006 0.06654,0.1803c3.66722,10.08982 -5.27228,18.06568 -5.6627,27.37753c-0.47465,11.32084 4.43396,20.55719 5.6884,31.45146c1.03329,8.97374 1.3208,21.34967 -1.71178,29.74481c-4.25624,16.85116 -27.06536,19.32826 -41.46628,14.29534c-0.31653,-0.11062 -8.22608,-4.07637 -8.7955,-4.36107l-2.87694,-0.74399c0,0 -4.21032,-1.20294 -3.00737,-5.41326z"/></g></g><path d="M291.28825,174.38624c0,0 -0.04576,0.00006 -0.12484,0.00624c-0.07908,-0.00619 -0.12484,-0.00615 -0.12484,-0.00615l-2.74655,0.00101c-14.3586,0.00747 -28.66839,1.02941 -43.05093,1.51399c-5.3272,0.17948 -10.55328,0.99757 -15.90118,0.9959c-7.44642,0 -15.07754,0.42431 -22.50234,-0.24659c-3.38863,-0.30619 -6.56017,-1.37964 -9.92065,-1.74434c-9.53569,-1.03487 -18.94485,-1.79618 -28.38853,-0.55367c-0.17251,-2.83094 -0.42294,-5.69356 -0.13092,-8.47729c1.57214,-14.98648 4.64366,-29.21117 12.82847,-42.07426c1.48562,-2.27972 1.67475,-5.38912 3.20467,-7.4337c1.57472,-2.10444 4.09547,-2.80538 6.46895,-3.49094c12.4301,-3.59035 15.80104,11.28858 20.6133,19.5455c1.51544,2.60021 3.63297,4.69137 5.35091,7.15314l-0.12776,0.17093c0,0 0.60321,2.42015 3.02856,1.81381c2.42536,-0.60634 1.73484,-2.97781 1.73484,-2.97781l-0.62895,-1.82961c-1.63105,-2.32356 -3.71918,-4.36657 -5.13208,-6.82658c-2.22979,-3.88232 -4.10792,-8.67461 -6.5693,-12.84485c0.29544,-0.48715 0.37996,-0.95064 0.37996,-0.95064c1.11939,-6.20845 4.83871,-11.14129 8.35601,-16.28087c1.41382,-2.06592 2.57522,-4.94461 4.12039,-6.81944c1.86195,-2.25919 4.81743,-4.17474 6.88437,-6.36347c2.93279,-3.1056 6.08327,-6.63793 9.79301,-8.77919c1.1233,0.03569 3.45766,0.0242 4.51347,0.42282c2.52964,0.95505 4.80545,3.42663 7.48336,4.06884c1.19056,0.28552 4.71809,-0.04523 6.16773,0.07321c2.54209,0.20769 5.19954,1.20319 7.57179,2.09885c10.48173,3.95746 17.42363,13.00541 25.03219,20.60629c4.08642,4.5917 2.12088,9.84928 3.96265,15.35562c0.97825,2.9247 3.55729,4.88332 5.38458,7.21308c1.61871,2.06382 2.86284,4.60309 3.93594,6.98881c2.07477,4.61263 4.38107,10.3532 4.77644,15.44307c0.25449,3.2762 0.17809,5.83771 1.04614,9.04775c0.69688,3.75824 2.50521,7.11807 3.21853,10.86842c0.14398,0.757 0.14976,1.53475 0.22452,2.30169c0.02859,0.29334 0.34607,0.74414 0.08476,0.88046c-1.18212,0.61671 -5.49891,-0.12538 -6.83498,-0.12312c-3.88959,0.00659 -7.41319,1.28715 -11.23523,1.25213l-2.74647,0.00097z" data-paper-data="{&quot;noHover&quot;:false,&quot;origItem&quot;:[&quot;Path&quot;,{&quot;applyMatrix&quot;:true,&quot;segments&quot;:[[310.79688,202.98877],[[313.54248,202.98877],[0,0],[3.82204,0.03502]],[[324.77447,201.74077],[-3.88959,0.00659],[1.33607,-0.00226]],[[331.6082,201.86576],[-1.18212,0.61671],[0.26131,-0.13632]],[[331.52322,200.98565],[0.02859,0.29334],[-0.07476,-0.76694]],[[331.29813,198.6849],[0.14398,0.757],[-0.71332,-3.75035]],[[328.07721,187.821],[0.69688,3.75824],[-0.86805,-3.21004]],[[327.02904,178.77833],[0.25449,3.2762],[-0.39537,-5.08987]],[[322.25031,163.34548],[2.07477,4.61263],[-1.0731,-2.38572]],[[318.31404,156.36221],[1.61871,2.06382],[-1.82729,-2.32976]],[[312.92988,149.15583],[0.97825,2.9247],[-1.84177,-5.50634]],[[308.97126,133.81437],[4.08642,4.5917],[-7.60856,-7.60088]],[[283.96005,113.231],[10.48173,3.95746],[-2.37225,-0.89566]],[[276.39549,111.1355],[2.54209,0.20769],[-1.44964,-0.11844]],[[270.23379,111.06409],[1.19056,0.28552],[-2.67791,-0.64221]],[[262.75871,106.99645],[2.52964,0.95505],[-1.05581,-0.39862]],[[258.24981,106.5737],[1.1233,0.03569],[-3.70974,2.14126]],[[248.46863,115.35109],[2.93279,-3.1056],[-2.06694,2.18873]],[[241.59426,121.71058],[1.86195,-2.25919],[-1.54517,1.87483]],[[237.48194,128.5247],[1.41382,-2.06592],[-3.5173,5.13958]],[[229.14139,144.78401],[1.11939,-6.20845],[0,0]],[[228.76195,145.73318],[0.29544,-0.48715],[2.46138,4.17024]],[[235.33358,158.55718],[-2.22979,-3.88232],[1.4129,2.46001]],[[240.46099,165.36714],[-1.63105,-2.32356],[0,0]],[241.08786,167.19286],[[239.26884,170.22455],[2.42536,-0.60634],[-2.42535,0.60634]],[236.23715,168.40554],[[236.36483,168.23445],[0,0],[-1.71794,-2.46177]],[[231.00904,161.06681],[1.51544,2.60021],[-4.81226,-8.25692]],[[210.39706,141.49863],[12.4301,-3.59035],[-2.37348,0.68556]],[[204.0251,145.01349],[1.57472,-2.10444],[-1.52992,2.04458]],[[200.82129,152.44054],[1.48562,-2.27972],[-8.18481,12.86309]],[[187.98701,194.48813],[1.57214,-14.98648],[-0.29202,2.78373]],[[188.11568,202.96163],[-0.17251,-2.83094],[9.44368,-1.24251]],[[216.49608,203.50574],[-9.53569,-1.03487],[3.36048,0.3647]],[[226.4111,205.24564],[-3.38863,-0.30619],[7.4248,0.6709]],[[248.89612,205.48477],[-7.44642,0],[5.3479,0.00167]],[[264.7814,204.48796],[-5.3272,0.17948],[14.38254,-0.48458]],[[307.8017,202.98877],[-14.3586,0.00747],[0,0]],[310.54729,202.98877],[[310.67209,202.99496],[-0.07908,-0.00619],[0.07908,-0.00618]],[310.79689,202.98877]],&quot;closed&quot;:true,&quot;fillColor&quot;:[0,0,0,1]}]}" fill="#26feff"/><g><path d="M306.01786,153.80544l-1.96713,-0.38683c-5.68872,-2.71284 -11.96367,-3.65279 -18.26924,-4.40711c4.11751,-0.00472 8.2354,-0.06665 12.35268,-0.02376c0.15285,0.00159 0.30644,0.00574 0.46071,0.01222c0.664,0.40257 1.3786,0.73004 2.13202,0.97062c0.8469,0.27043 1.74284,0.43107 2.6711,0.4652c1.94179,0.86931 3.5231,1.8034 5.02703,2.40672c-0.81197,1.19083 -2.40716,0.96295 -2.40716,0.96295z" fill="#73291d"/><g fill="#29878f"><path d="M249.98494,177.18541l-2.01317,0.59553c-1.17234,0.24527 -2.33836,0.39593 -3.50415,0.48716c-4.15981,-1.40017 -9.61047,-0.79823 -13.45113,-0.82322c-0.5068,-0.0033 -1.01509,-0.00351 -1.5247,-0.00105c-0.09062,-0.11312 -0.17161,-0.2343 -0.24173,-0.36227c-0.91027,0.13079 -1.83003,0.25688 -2.76477,0.3712c-0.11876,0.01452 -0.23749,0.02836 -0.35618,0.04152c-2.17702,0.0519 -4.37169,0.13605 -6.57222,0.22214c-2.55133,-0.04329 -5.10059,-0.15792 -7.6649,-0.06342c-2.82649,0.10416 -5.70627,0.46407 -8.52586,-0.03651c-0.40353,-0.07164 -0.80602,-0.15835 -1.20762,-0.25643c-0.29647,0.08575 -0.59517,0.16775 -0.89399,0.24432c-2.29752,-0.37537 -4.54698,-0.83596 -6.93952,-0.40568l-1.588,-0.88222c-0.51573,-0.27375 -0.92419,-0.72277 -1.14599,-1.26765c-0.41446,-0.14135 -0.82641,-0.28709 -1.23519,-0.43695c-4.62535,-0.22118 -9.4741,0.36952 -13.95044,0.49577c-1.85287,0.05226 -3.72628,0.9459 -5.53463,0.53884c-1.59204,-0.35836 -3.4952,-0.83232 -4.36773,-2.21134c-0.75548,-1.19403 0.12453,-2.82586 0.29296,-4.22875c0.08789,-0.73199 0.26696,-1.44583 0.47703,-2.15382c-0.48543,-1.11044 -0.73573,-2.29212 -0.5546,-4.00445c0.13644,-1.28983 0.75729,-2.79616 1.47518,-4.29483c-0.22795,-1.92149 -0.44744,-3.83579 0.15384,-5.53524c0.36483,-1.03114 1.28716,-1.76372 1.96659,-2.62637c-0.06804,-2.68931 -0.06214,-5.50286 0.7548,-7.90309c0.58635,-1.72276 1.91739,-3.11685 2.57718,-4.81284c0.05034,-0.1294 0.10021,-0.25923 0.14973,-0.38939c-1.2889,-2.36814 -0.79784,-3.92205 1.26873,-7.53858c0.47593,-0.83289 1.99763,-1.3195 3.72865,-1.63189c2.13924,-3.71399 0.98222,-7.7057 5.09553,-10.54378c0.8375,-0.57785 1.88603,-0.7643 2.82905,-1.14644c0,0 0.11653,-0.04482 0.30752,-0.08839c0.14991,-0.18852 0.30887,-0.33919 0.47253,-0.45839c1.58545,1.49635 4.32941,3.87494 6.29486,4.92401c0.56634,0.30228 2.13676,0.42771 2.47399,1.11694c0.99973,2.04331 4.11025,4.96836 5.70983,6.33942c0.70652,0.60559 3.30839,1.04047 3.67883,1.91059c3.68763,8.66186 12.27633,6.34223 19.7077,8.66893c1.49777,0.46894 2.80977,0.68091 4.14397,0.77645c0.80923,0.44751 2.34669,1.5707 3.03165,1.3752c0.91414,-0.26091 1.75434,-0.75901 2.61513,-1.1801c1.54921,0.34699 3.07209,1.36326 4.64189,1.50869c5.52011,0.51138 10.95817,1.54706 16.51584,2.06637l0.01115,0.01951c0.76189,1.3333 4.39143,1.36582 6.1805,1.56371c6.37152,0.70475 12.43897,3.73093 18.89972,3.81911c5.5766,0.07612 11.15454,-0.05809 16.73136,0c0.15285,0.00159 0.30644,0.00574 0.46071,0.01222c0.664,0.40257 1.3786,0.73004 2.13202,0.97062c0.8469,0.27043 1.74284,0.43107 2.6711,0.4652c1.50251,0.67265 2.78919,1.38409 3.9912,1.95106c0.49261,1.58377 0.75053,3.26511 1.09464,5.12596c0.92136,4.9825 9.12257,7.69136 4.95954,14.97664c-0.28409,0.49716 -1.08659,0.44738 -1.49148,0.85227c-0.40489,0.40489 -0.35511,1.20739 -0.85227,1.49148c-3.49347,1.99627 -4.15307,0.03419 -7.3682,0.03245c-10.20367,-0.00552 -18.54927,0.0602 -28.07125,0.65301c-7.16812,0.44627 -14.36379,0.09378 -21.5458,0.09579c-0.80706,0.00023 -1.61689,0.00309 -2.42926,0.00824c-0.39301,1.17061 -1.70018,1.56276 -1.70018,1.56276z"/></g></g><path d="M198.97341,170.67982c5.30758,3.36947 11.13025,5.20756 17.17815,6.27105c-3.12321,-0.00817 -6.17418,-0.02168 -9.25772,-0.30031c-3.38863,-0.30619 -6.57111,-1.36786 -9.93159,-1.73256c-9.53569,-1.03487 -18.98725,-1.80384 -28.43093,-0.56133c-0.17251,-2.83094 -0.42743,-5.70077 -0.13541,-8.4845c1.18935,-11.33749 3.25608,-22.28436 7.72797,-32.48276c0.01231,1.26627 0.15927,2.60373 0.32074,3.84843c1.07782,8.30813 6.45455,16.47734 11.2526,23.06183c3.34914,3.77291 6.98854,7.65816 11.27623,10.38015z" data-paper-data="{&quot;noHover&quot;:false,&quot;origItem&quot;:[&quot;Path&quot;,{&quot;applyMatrix&quot;:true,&quot;segments&quot;:[[[218.53882,199.36205],[0,0],[-4.28769,-2.72199]],[[207.20934,188.97333],[3.34914,3.77291],[-4.79805,-6.58449]],[[195.95704,165.83667],[1.07782,8.30813],[-0.16147,-1.2447]],[[195.69904,162.06599],[0.01231,1.26627],[-4.47189,10.1984]],[[187.987,194.48814],[1.18935,-11.33749],[-0.29202,2.78373]],[[188.11567,202.96164],[-0.17251,-2.83094],[9.44368,-1.24251]],[[216.49607,203.50575],[-9.53569,-1.03487],[3.36048,0.3647]],[[226.41109,205.24565],[-3.38863,-0.30619],[3.08354,0.27863]],[[235.734,205.62089],[-3.12321,-0.00817],[-6.0479,-1.06349]],[[218.5388,199.36205],[5.30758,3.36947],[0,0]]],&quot;closed&quot;:true,&quot;fillColor&quot;:[0,0,0,1]}]}" fill="#49317a"/><path d="M297.36676,127.08908c0,0 0.63775,1.59482 2.17598,1.61369c1.27407,1.8546 2.30459,3.98216 3.21145,5.99829c2.07477,4.61263 4.38374,10.35617 4.77911,15.44604c0.25449,3.2762 0.17891,5.83951 1.04696,9.04955c0.69688,3.75824 2.50545,7.12019 3.21877,10.87054c0.14398,0.757 0.14977,1.53514 0.22453,2.30208c0.02859,0.29334 0.34607,0.74428 0.08476,0.8806c-1.18212,0.61671 -5.49854,-0.12539 -6.83461,-0.12313c-3.88959,0.00659 -7.41266,1.28776 -11.2347,1.25274l-2.74635,0.00115c0,0 -0.04576,0.00007 -0.12484,0.00625c-0.07908,-0.00619 -0.12483,-0.00614 -0.12483,-0.00614l-2.74647,0.00123c-9.99988,0.0052 -19.9842,0.51257 -29.96878,0.97331c-0.73232,-0.88311 -1.98388,-0.88233 -1.98388,-0.88233l-2.6288,0.00105c-3.44028,0 -6.87939,0.07958 -10.3087,-0.20914c-13.74293,-1.13433 -29.5596,0.06047 -41.78452,-7.74215c-3.81646,-2.43587 -7.12035,-5.9493 -10.11155,-9.30908c-3.72005,-5.12606 -6.3507,-10.01816 -8.5762,-15.94757c-0.65758,-1.752 -1.38987,-2.82879 -1.60969,-4.68222c-0.86401,-7.2849 1.15945,-15.16965 4.91687,-21.39251c0,0 0.16729,-0.27892 0.28065,-0.69529c1.30201,-0.78454 2.80438,-1.23013 4.28593,-1.65806c12.4301,-3.59035 15.89102,11.35088 20.70328,19.6078c1.51544,2.60021 3.63978,4.69748 5.35772,7.15925l-0.12764,0.17078c0,0 0.14226,0.56654 0.56389,1.08416c0.09191,0.24094 0.18051,0.38788 0.18051,0.38788c3.74582,6.07076 10.85171,8.16349 17.42463,10.05687c2.99462,0.86263 6.74512,1.47076 9.85501,0.90531c0.11252,-0.02046 0.22269,-0.04329 0.33415,-0.06761c0.51711,0.1364 0.94095,0.09989 0.94095,0.09989c3.62928,-0.30556 7.24692,-0.05846 10.82261,-0.91304c9.2733,-2.2163 17.43421,-7.26712 25.41494,-12.06217c3.66692,-2.20319 6.49407,-3.67354 9.48085,-6.99857c1.44851,-2.39566 3.46,-4.63055 4.5569,-7.22938c0.09965,0.10897 0.29342,0.18254 0.3937,0.29089z" data-paper-data="{&quot;noHover&quot;:false,&quot;origItem&quot;:[&quot;Path&quot;,{&quot;applyMatrix&quot;:true,&quot;segments&quot;:[[316.86476,155.74114],[[316.20793,153.98376],[0,0],[-0.10028,-0.10835]],[[315.9079,153.65786],[0.09965,0.10897],[-1.0969,2.59883]],[[311.35267,160.89252],[1.44851,-2.39566],[-2.98678,3.32503]],[[301.87298,167.89716],[3.66692,-2.20319],[-7.98073,4.79505]],[[276.44868,179.99534],[9.2733,-2.2163],[-3.57569,0.85458]],[[265.58211,180.92856],[3.62928,-0.30556],[0,0]],[[264.63562,180.82794],[0.51711,0.1364],[-0.11146,0.02432]],[[264.29967,180.89518],[0.11252,-0.02046],[-3.10989,0.56545]],[[254.41355,179.96798],[2.99462,0.86263],[-6.57292,-1.89338]],[[236.98128,169.87987],[3.74582,6.07076],[0,0]],[[236.80083,169.49136],[0.09191,0.24094],[-0.42163,-0.51762]],[236.23714,168.40552],[[236.36482,168.23443],[0,0],[-1.71794,-2.46177]],[[231.00903,161.06679],[1.51544,2.60021],[-4.81226,-8.25692]],[[210.39705,141.49861],[12.4301,-3.59035],[-1.48155,0.42793]],[[206.11234,143.15433],[1.30201,-0.78454],[-0.11336,0.41637]],[[205.83193,143.84912],[0,0],[-3.75742,6.22286]],[[200.91957,165.22572],[-0.86401,-7.2849],[0.21982,1.85343]],[[202.52952,169.90444],[-0.65758,-1.752],[2.2255,5.92941]],[[211.10435,185.83821],[-3.72005,-5.12606],[2.9912,3.35978]],[[221.21196,195.13659],[-3.81646,-2.43587],[12.22492,7.80262]],[[262.95716,202.85153],[-13.74293,-1.13433],[3.42931,0.28872]],[[273.24934,203.06165],[-3.44028,0],[0,0]],[275.87429,203.06165],[[277.85588,203.94476],[-0.73232,-0.88311],[9.98458,-0.46074]],[[307.80169,202.98875],[-9.99988,0.0052],[0,0]],[310.54728,202.98875],[[310.67208,202.99494],[-0.07908,-0.00619],[0.07908,-0.00618]],[310.79688,202.98875],[[313.54247,202.98875],[0,0],[3.82204,0.03502]],[[324.77446,201.74075],[-3.88959,0.00659],[1.33607,-0.00226]],[[331.60819,201.86574],[-1.18212,0.61671],[0.26131,-0.13632]],[[331.52321,200.98563],[0.02859,0.29334],[-0.07476,-0.76694]],[[331.29812,198.68488],[0.14398,0.757],[-0.71332,-3.75035]],[[328.0772,187.82098],[0.69688,3.75824],[-0.86805,-3.21004]],[[327.02903,178.77831],[0.25449,3.2762],[-0.39537,-5.08987]],[[322.2503,163.34545],[2.07477,4.61263],[-0.90686,-2.01613]],[[319.04013,157.35288],[1.27407,1.8546],[-1.53823,-0.01887]],[316.86474,155.74112]],&quot;closed&quot;:true,&quot;fillColor&quot;:[0,0,0,1]}]}" fill="#6d49b5"/><path d="M285.04685,114.84592c2.58658,1.23808 5.19952,3.15404 7.44605,5.34232c-0.08884,0.93869 -0.27155,1.8448 -0.6003,2.66659c-0.92762,2.31885 -2.78395,4.29713 -4.05649,6.43626c-2.54384,2.81914 -4.92047,3.84067 -8.02752,5.70256c-5.68935,3.40932 -11.50943,7.04459 -17.75873,9.52427c0.18755,-0.24221 0.38723,-0.59593 0.55741,-0.8666c1.99239,-3.1689 1.67582,-6.89311 1.67794,-10.42669c-0.00096,-1.53196 0.04937,-4.97062 -0.34429,-6.38645c-2.95466,-10.62666 -13.88893,-16.73999 -24.23221,-18.31842c5.22009,-0.96237 10.4531,-0.88655 15.93924,-0.88655c4.88996,-0.00307 8.29192,1.61777 12.88508,2.95373c5.37365,1.56297 11.39371,1.80822 16.51382,4.25898z" data-paper-data="{&quot;noHover&quot;:false,&quot;origItem&quot;:[&quot;Path&quot;,{&quot;applyMatrix&quot;:true,&quot;segments&quot;:[[[304.54929,143.50777],[0,0],[-5.12011,-2.45076]],[[288.07072,139.2727],[5.37365,1.56297],[-4.59316,-1.33596]],[[275.21806,136.31308],[4.88996,-0.00307],[-5.48614,0]],[[259.2958,137.18382],[5.22009,-0.96237],[10.34328,1.57843]],[[283.53349,155.4578],[-2.95466,-10.62666],[0.39366,1.41583]],[[283.84295,161.81253],[-0.00096,-1.53196],[-0.00212,3.53358]],[[282.143,172.33673],[1.99239,-3.1689],[-0.17018,0.27067]],[[281.60604,173.10545],[0.18755,-0.24221],[6.2493,-2.47968]],[[299.31215,163.60275],[-5.68935,3.40932],[3.10705,-1.86189]],[[307.33212,157.92013],[-2.54384,2.81914],[1.27254,-2.13913]],[[311.38845,151.49739],[-0.92762,2.31885],[0.32875,-0.82179]],[[311.98956,148.83549],[-0.08884,0.93869],[-2.24653,-2.18828]],[[304.54929,143.50778],[2.58658,1.23808],[0,0]]],&quot;closed&quot;:true,&quot;fillColor&quot;:[0,0,0,1]}]}" fill="#6d49b5"/><path d="M225.24033,109.07866c-1.49636,0.78447 -3.08338,1.52931 -4.40427,2.57605c-1.69391,1.18686 -3.20515,2.72411 -4.45645,4.69997c-1.51926,2.39897 -1.61518,6.01458 -2.0699,8.74322c-0.07759,0.51239 -0.14565,1.00012 -0.20084,1.47176c-0.00313,0.01636 -0.08947,0.08835 -0.09244,0.10529c-1.54595,-3.11533 -3.04321,-6.5052 -4.84702,-9.56133c0.29544,-0.48715 0.37915,-0.95 0.37915,-0.95c1.11939,-6.20845 4.82076,-11.13937 8.33806,-16.27895c1.41382,-2.06592 2.56942,-4.95095 4.11459,-6.82578c1.86195,-2.25919 4.81437,-4.18454 6.88131,-6.37327c2.93279,-3.1056 6.09003,-6.65189 9.79977,-8.79315c1.1233,0.03569 3.46026,0.02127 4.51607,0.41989c2.52964,0.95505 4.81208,3.42316 7.48999,4.06537c1.19056,0.28552 4.72692,-0.04477 6.17656,0.07367c2.54209,0.20769 5.20809,1.20807 7.58034,2.10373c10.48173,3.95746 17.42186,13.02571 25.03042,20.62659c1.28991,1.44941 1.97575,2.96891 2.36917,4.53597c-0.64786,1.01314 -0.18389,2.25445 -0.18389,2.25445l0.50416,1.06494c0.00973,0.1253 -0.07653,0.22663 -0.06552,0.35482c-1.60855,-1.19649 -3.29378,-2.23252 -4.99571,-3.04597c-5.38781,-2.57511 -11.56659,-2.86219 -17.20863,-4.51303c-5.03194,-1.47233 -8.78677,-3.1492 -14.17279,-3.15235c-7.9045,0 -15.34896,-0.11632 -22.91764,2.53393c-2.69614,0.94408 -5.06072,2.55158 -7.56446,3.86418z" data-paper-data="{&quot;noHover&quot;:false,&quot;origItem&quot;:[&quot;Path&quot;,{&quot;applyMatrix&quot;:true,&quot;segments&quot;:[[[244.73749,137.72792],[0,0],[2.50374,-1.3126]],[[252.30092,133.85892],[-2.69614,0.94408],[7.56868,-2.65025]],[[275.21805,131.31308],[-7.9045,0],[5.38602,0.00315]],[[289.48986,134.47833],[-5.03194,-1.47233],[5.64204,1.65084]],[[306.69814,138.99309],[-5.38781,-2.57511],[1.70193,0.81345]],[[311.69333,142.04121],[-1.60855,-1.19649],[-0.01101,-0.12819]],[[311.66215,141.66091],[0.00973,0.1253],[0,0]],[311.15773,140.59701],[[311.34108,138.34518],[-0.64786,1.01314],[-0.39342,-1.56706]],[[308.97125,133.81437],[1.28991,1.44941],[-7.60856,-7.60088]],[[283.96004,113.231],[10.48173,3.95746],[-2.37225,-0.89566]],[[276.39548,111.1355],[2.54209,0.20769],[-1.44964,-0.11844]],[[270.23378,111.06409],[1.19056,0.28552],[-2.67791,-0.64221]],[[262.7587,106.99645],[2.52964,0.95505],[-1.05581,-0.39862]],[[258.2498,106.5737],[1.1233,0.03569],[-3.70974,2.14126]],[[248.46862,115.35109],[2.93279,-3.1056],[-2.06694,2.18873]],[[241.59425,121.71058],[1.86195,-2.25919],[-1.54517,1.87483]],[[237.48193,128.5247],[1.41382,-2.06592],[-3.5173,5.13958]],[[229.14138,144.78401],[1.11939,-6.20845],[0,0]],[[228.76194,145.73317],[0.29544,-0.48715],[1.80381,3.05613]],[[233.60351,155.28364],[-1.54595,-3.11533],[0.00297,-0.01694]],[[233.61266,155.23369],[-0.00313,0.01636],[0.05519,-0.47164]],[[233.8128,153.76083],[-0.07759,0.51239],[0.45472,-2.72864]],[[235.8788,145.01002],[-1.51926,2.39897],[1.2513,-1.97586]],[[240.33381,140.30605],[-1.69391,1.18686],[1.32089,-1.04674]],[[244.73748,137.72792],[-1.49636,0.78447],[0,0]]],&quot;closed&quot;:true,&quot;fillColor&quot;:[0,0,0,1]}]}" fill="#5d3e9a"/><path d="M223.79666,115.57602c3.2407,-2.22359 7.38185,-2.60343 11.44821,-2.48056c9.26723,0.28002 21.14937,5.07015 23.97429,15.05529c0.18384,0.64981 0.12812,4.58874 0.12783,5.03242c0.0015,2.35571 0.41202,5.69611 -0.93081,7.86772c-1.77596,2.87206 -6.14646,3.25326 -8.99962,4.24049c-1.8675,0.64617 -3.62028,1.73104 -5.56173,2.09962c-2.33702,0.44368 -5.39709,-0.16604 -7.63567,-0.82171c-5.03715,-1.47536 -11.76049,-3.05382 -14.54092,-7.8766c0,0 -0.08965,-0.14963 -0.26019,-0.34515l-0.54966,-1.60014c-0.35217,-0.50169 -0.72669,-0.99374 -1.10974,-1.47507c0.20984,-0.80256 -0.04408,-1.56565 -0.04408,-1.56565l-0.21901,-0.65795c-0.72977,-2.09368 -0.80045,-3.52607 -0.59036,-5.36901c1.51755,-3.9352 1.54661,-8.36535 4.45817,-11.67013c0.13556,-0.15387 0.28117,-0.29854 0.4333,-0.43357z" data-paper-data="{&quot;noHover&quot;:false,&quot;origItem&quot;:[&quot;Path&quot;,{&quot;applyMatrix&quot;:true,&quot;segments&quot;:[[[485.89166,289.35919],[0.27112,-0.30774],[-5.82312,6.60955]],[[477.00045,312.64511],[3.03509,-7.87041],[-0.42018,3.68589]],[[478.18105,323.35638],[-1.45955,-4.18737],[0,0]],[478.61854,324.66886],[[478.70506,327.79257],[0.41968,-1.60511],[0.76609,0.96267]],[[480.92198,330.73428],[-0.70433,-1.00337],[0,0]],[[482.01804,333.92648],[0,0],[0.34109,0.39104]],[[482.5375,334.6148],[0,0],[5.56085,9.64557]],[[511.54671,350.31289],[-10.07429,-2.95071],[4.47716,1.31134]],[[526.77378,351.95842],[-4.67404,0.88737],[3.8829,-0.73717]],[[537.86733,347.77315],[-3.735,1.29235],[5.70633,-1.97446]],[[555.83588,339.32594],[-3.55192,5.74412],[2.68566,-4.34321]],[[557.68588,323.62505],[0.003,4.71141],[0.00059,-0.88737]],[[557.42981,313.58494],[0.36768,1.29962],[-5.64983,-19.97029]],[[509.60255,283.56127],[18.53446,0.56005],[-8.13273,-0.24574]],[[486.75629,288.49415],[6.48141,-4.44719],[-0.30426,0.27005]]],&quot;closed&quot;:true}]}" fill="#9966ff"/><path d="M221.64959,91.80714c-0.01291,-0.53531 0.15754,-1.37215 1.26483,-1.68852c1.68267,-0.48076 2.16343,1.2019 2.16343,1.2019c0.9005,3.19178 2.48684,7.54381 4.8881,9.90999c1.22131,1.20347 4.06582,0.92474 3.46575,3.97284c-0.17732,0.90069 -5.27271,3.18071 -6.29288,3.97729c-1.11898,0.87374 -3.9083,2.14883 -4.52093,3.42141c-0.29316,0.60897 -0.02594,1.39809 -0.33333,2c-1.09857,2.15116 -3.5749,4.79156 -5.48391,6.24191c-0.5749,1.63736 -1.23414,3.23319 -1.89345,4.83842l-0.21733,0.15465l0.07184,0.05747l-1.32323,1.65404c-0.3204,0.40761 -0.81794,0.66941 -1.37662,0.66941c-0.9665,0 -1.75,-0.7835 -1.75,-1.75v-2h0.21724c-0.1275,-0.47162 -0.2699,-0.9384 -0.4428,-1.39535c-0.96098,-2.53976 -3.68167,-5.66411 -2.71345,-8.72931c0.39285,-1.2437 2.41067,-2.85692 3.177,-4.08976c0.99671,-1.60349 0.8856,-3.93237 1.53545,-5.72083c1.0124,-2.78621 3.10245,-4.41434 4.43932,-6.90104c1.64849,-3.06636 1.34794,-3.82324 4.84788,-5.43887z" fill="#49317a"/><path d="M261.59333,125.55774c-0.60984,-0.64685 -1.20622,-1.29115 -1.76892,-1.85234c0,0 -1.23744,-1.23744 0,-2.47487c1.23744,-1.23744 2.47487,0 2.47487,0c1.32358,1.32755 2.77921,3.06689 4.19608,4.20985c2.20619,1.77969 5.11105,1.93668 7.72243,2.68071c3.35377,0.95554 6.04844,1.72714 9.43933,2.2832l2.31888,0.33127l-0.08193,0.57354l1.49464,0.60547c-0.28186,0.45991 -0.54211,0.93502 -0.80612,1.40747l0.38336,0.38336l-1.66667,1.66667l-0.00988,-0.00988c-0.01999,0.02558 -0.04014,0.05105 -0.06044,0.07642c-1.60875,2.00977 -3.78309,2.35797 -6.00839,3.04209c-3.78102,1.16239 -7.86762,2.80295 -11.39781,4.56318c-1.91726,0.95599 -5.3721,4.79068 -7.89207,2.75937c-0.96552,-0.77829 -0.48881,-2.43531 -0.61884,-3.66862c-0.45632,-4.32804 1.65862,-8.49731 1.67263,-12.85566l-0.31549,-1.85664c0,0 -0.22599,-1.35592 0.92434,-1.86459z" fill="#8056d6"/><path d="M225.81184,116.80129c0,0.09462 -0.00512,0.18412 -0.01479,0.26878c0.25834,0.38099 0.32432,0.77686 0.32432,0.77686c0.77329,4.6414 2.20521,7.66029 4.18976,11.87416c1.91338,4.06273 3.11341,6.90543 6.96514,9.23487c3.06828,1.85562 4.93412,4.52204 8.78557,4.42868h2.33333c0.9665,0 1.75,0.7835 1.75,1.75c0,0.75117 -0.47328,1.39181 -1.13791,1.63997l-1.62882,0.65153l-0.02541,-0.06353c-0.09528,0.05626 -0.19302,0.1088 -0.29358,0.15712c-0.08764,0.04211 -5.24445,0.03158 -5.33094,0.03158c-6.10933,0 -10.43819,-2.52134 -15.77764,-5.18227c-2.20071,-1.09673 -4.73314,-2.04678 -6.06397,-4.34693c-2.07627,-3.58853 -1.04071,-10.56783 -0.55676,-14.47324c0.23463,-1.40932 0.25712,-5.53667 0.87551,-6.60979c0.46851,-0.81302 1.5261,-1.09226 2.28915,-1.63839l1.56703,-0.24939c0,0 1.75,0 1.75,1.75z" fill="#8056d6"/><path d="M183.29791,119.68692c-0.07492,-0.42591 0.01125,-0.94116 0.5265,-1.4564c0.71856,-0.71856 1.43712,-0.60261 1.91339,-0.37902c0.49108,-0.20932 1.35299,-0.37273 2.05738,0.56646c0.46758,0.62344 0.44931,1.17748 0.28518,1.60029c0.61332,0.65179 1.18721,1.3344 1.51872,1.94675c1.79567,3.31687 1.79718,7.59851 3.66667,11c0.92587,1.6846 2.33689,3.25222 3.3115,4.96106c2.987,5.23727 5.29928,10.88175 10.13497,14.76123c3.96398,2.36461 5.89855,6.47059 10.62345,8.13939c10.48226,3.70224 21.89154,4.13536 32.77769,5.93414c3.07266,0.88373 5.85993,2.27459 9,3c3.86563,0.89303 7.70026,0.53547 11.57953,1.40823l0.19748,0.18234l0.03971,-0.0695l2.30384,1.31648c0.543,0.29709 0.91125,0.87368 0.91125,1.53628c0,0.81324 -0.55473,1.49693 -1.30644,1.6933l-2.29613,0.65604l-0.00956,-0.03347c-0.0755,0.02941 -0.15164,0.05742 -0.22847,0.08389c-0.65886,0.22701 -3.79083,-0.13749 -4.62907,-0.00568c-7.95962,1.25161 -16.25304,1.92627 -24.42466,1.34997c-4.46013,-0.31455 -8.88939,-1.6789 -13.33333,-1.66667c-2.32116,-0.38624 -5.56626,-0.82125 -7.65643,-1.85466c-0.4133,-0.20434 -0.69921,-0.58597 -1.00681,-0.94183c-0.31251,0.29106 -0.73167,0.46912 -1.19242,0.46912c-0.09436,0 -0.18698,-0.00747 -0.27729,-0.02185l-2.30353,-0.32908l0.01107,-0.07747c-0.11616,0.0015 -0.23252,-0.0003 -0.34909,-0.0058c-0.69897,-0.03297 -1.17494,-0.77066 -1.8124,-1.05925c-1.42068,-0.64316 -2.81606,-1.3365 -4.19165,-2.06567c-0.68543,-0.20977 -1.34964,-0.47375 -1.96383,-0.86403l-1.96172,-0.65391c-0.62861,-0.19332 -1.1063,-0.73121 -1.21265,-1.39323c-0.60916,-0.36379 -1.21565,-0.73126 -1.81999,-1.10105c-2.92277,-1.78838 -6.90013,-2.10869 -9.74893,-4.05104c-1.91488,-1.30559 -2.54573,-3.33128 -3.80678,-5.12859c-1.83102,-2.60968 -3.43255,-5.15469 -4.86082,-8.0313c-0.66826,-2.36735 -1.88578,-4.1761 -2.4139,-6.60278c-0.716,-3.29001 -0.79492,-6.90524 -1.03408,-10.24092c-0.3637,-5.0727 -0.8336,-9.0112 2.98166,-12.57176z" fill="#5d3e9a"/><path d="M169.12767,152.94316c-0.10384,-1.26166 -0.14917,-2.5341 -0.14917,-3.80853c0,0 0,-1.75 1.75,-1.75c1.75,0 1.75,1.75 1.75,1.75c0,2.67964 -0.21099,5.56911 0.59606,8.17461c0.87393,2.8214 2.67256,6.47698 4.63829,8.67379c1.02217,1.14232 2.47924,1.86865 3.40638,3.08936c1.12517,1.48144 2.0737,3.07189 3.19889,4.575c0.07432,0.02269 0.14813,0.04813 0.22138,0.07653c0.04599,0.01784 0.0917,0.03624 0.13714,0.05517l0.00622,-0.03732l1.97162,0.3286c0.84352,0.1253 1.49068,0.85253 1.49068,1.73092c0,0.9665 -0.7835,1.75 -1.75,1.75h-2.33333v-0.22471c-1.135,0.5976 -2.67859,-0.10862 -4,-0.10862c-2.95072,0 -5.88074,-0.09105 -8.81101,-0.3393c-0.88223,-0.07474 -4.83785,-0.79756 -5.19094,-1.27955c-1.8656,-2.54663 0.19764,-5.69273 0.64878,-7.93162c0.86534,-4.29446 0.12827,-9.0037 1.72833,-13.1828l-0.12517,-0.01673c0,0 0,-1.05216 0.81583,-1.5248z" fill="#392660"/><path d="M297.3193,127.10477l-0.65683,-1.75738c-0.10028,-0.10835 -0.20038,-0.21693 -0.30003,-0.3259c-1.0969,2.59883 -3.10672,4.839 -4.55523,7.23466c-2.98678,3.32503 -5.81277,4.80145 -9.47969,7.00464c-7.98073,4.79505 -16.151,9.88188 -25.4243,12.09818c-3.57569,0.85458 -7.23729,0.62766 -10.86657,0.93322c0,0 -0.42938,0.03578 -0.94649,-0.10062c-0.11146,0.02432 -0.22343,0.04678 -0.33595,0.06724c-3.10989,0.56545 -6.8915,-0.06457 -9.88612,-0.9272c-6.57292,-1.89338 -13.68645,-4.01735 -17.43227,-10.08811c0,0 -0.08854,-0.14757 -0.18045,-0.38851c-0.42163,-0.51762 -0.56369,-1.08584 -0.56369,-1.08584l0.12768,-0.17109c-1.71794,-2.46177 -3.84035,-4.56743 -5.35579,-7.16764c-4.81226,-8.25692 -8.18188,-23.15853 -20.61198,-19.56818c-1.48155,0.42793 -2.9827,0.87118 -4.28471,1.65572c-0.11336,0.41637 -0.28041,0.69479 -0.28041,0.69479c-3.75742,6.22286 -5.77637,14.0917 -4.91236,21.3766c0.21982,1.85343 0.95237,2.92672 1.60995,4.67872c2.2255,5.92941 4.85478,10.80771 8.57483,15.93377c2.9912,3.35978 6.29115,6.86251 10.10761,9.29838c12.22492,7.80262 28.00227,6.58061 41.7452,7.71494c3.42931,0.28872 6.8519,0.21012 10.29218,0.21012h2.62495c0,0 1.24927,0 1.98159,0.88311c9.98458,-0.46074 19.94593,-0.95081 29.94581,-0.95601h2.74559c0,0 0.04572,0 0.1248,0.00619c0.07908,-0.00618 0.1248,-0.00619 0.1248,-0.00619h2.74559c3.82204,0.03502 7.3424,-1.24141 11.23199,-1.248c1.33607,-0.00226 5.65161,0.7417 6.83373,0.12499c0.26131,-0.13632 -0.05639,-0.58677 -0.08498,-0.88011c-0.07476,-0.76694 -0.08111,-1.54375 -0.22509,-2.30075c-0.71332,-3.75035 -2.52404,-7.10566 -3.22092,-10.8639c-0.86805,-3.21004 -0.79368,-5.76647 -1.04817,-9.04267c-0.39537,-5.08987 -2.70396,-10.82022 -4.77873,-15.43285c-0.90686,-2.01613 -1.9361,-4.13797 -3.21017,-5.99257c-1.53823,-0.01887 -2.17539,-1.61177 -2.17539,-1.61177zM285.00383,114.8714c-5.12011,-2.45076 -11.10492,-2.6721 -16.47857,-4.23507c-4.59316,-1.33596 -7.9627,-2.96269 -12.85266,-2.95962c-5.48614,0 -10.70217,-0.09163 -15.92226,0.87074c10.34328,1.57843 21.28303,7.64732 24.23769,18.27398c0.39366,1.41583 0.3085,4.82277 0.30946,6.35473c-0.00212,3.53358 0.29244,7.3553 -1.69995,10.5242c-0.17018,0.27067 -0.34941,0.52651 -0.53696,0.76872c6.2493,-2.47968 12.01676,-6.09338 17.70611,-9.5027c3.10705,-1.86189 5.47613,-2.86347 8.01997,-5.68261c1.27254,-2.13913 3.12871,-4.1039 4.05633,-6.42275c0.32875,-0.82179 0.51227,-1.72321 0.60111,-2.6619c-2.24653,-2.18828 -4.85369,-4.08963 -7.44027,-5.32771zM223.40037,116.04323c-2.91156,3.30478 -2.92806,7.70775 -4.44561,11.64296c-0.21009,1.84294 -0.13947,3.26195 0.5903,5.35564l0.21874,0.65624c0,0 0.2531,0.7593 0.04326,1.56186c0.38305,0.48134 0.75629,0.96917 1.10846,1.47086l0.54803,1.5961c0.17055,0.19552 0.25973,0.34416 0.25973,0.34416c2.78043,4.82279 9.46746,6.37369 14.5046,7.84904c2.23858,0.65567 5.27651,1.26645 7.61353,0.82277c1.94145,-0.36858 3.67928,-1.44646 5.54678,-2.09264c2.85316,-0.98723 7.20831,-1.35154 8.98427,-4.2236c1.34283,-2.1716 0.9265,-5.49474 0.925,-7.85045c0.00029,-0.44368 0.0558,-4.37024 -0.12804,-5.02005c-2.82491,-9.98514 -14.6464,-14.73181 -23.91363,-15.01184c-4.06636,-0.12287 -8.18243,0.24285 -11.42313,2.46644c-0.15213,0.13503 -0.29675,0.27865 -0.43231,0.43252zM225.19203,109.09155c2.50374,-1.3126 4.86729,-2.92492 7.56343,-3.869c7.56868,-2.65025 15.01263,-2.54584 22.91713,-2.54584c5.38602,0.00315 9.23987,1.69292 14.27181,3.16525c5.64204,1.65084 11.82047,1.93965 17.20828,4.51476c1.70193,0.81345 3.38664,1.85163 4.99519,3.04812c-0.01101,-0.12819 -0.02145,-0.255 -0.03118,-0.3803l-0.50442,-1.0639c0,0 -0.46451,-1.23869 0.18335,-2.25183c-0.39342,-1.56706 -1.07992,-3.0814 -2.36983,-4.53081c-7.60856,-7.60088 -14.52948,-16.62591 -25.01121,-20.58337c-2.37225,-0.89566 -5.02247,-1.88781 -7.56456,-2.0955c-1.44964,-0.11844 -4.97114,0.21411 -6.1617,-0.07141c-2.67791,-0.64221 -4.94544,-3.11259 -7.47508,-4.06764c-1.05581,-0.39862 -3.3856,-0.38706 -4.5089,-0.42275c-3.70974,2.14126 -6.84839,5.67179 -9.78118,8.77739c-2.06694,2.18873 -5.01242,4.1003 -6.87437,6.35949c-1.54517,1.87483 -2.6985,4.7482 -4.11232,6.81412c-3.5173,5.13958 -7.22116,10.05086 -8.34055,16.25931c0,0 -0.084,0.46202 -0.37944,0.94917c1.80381,3.05613 3.29562,6.43513 4.84157,9.55046c0.00297,-0.01694 0.00602,-0.03359 0.00915,-0.04995c0.05519,-0.47164 0.12255,-0.96046 0.20014,-1.47285c0.45472,-2.72864 0.54674,-6.35185 2.066,-8.75082c1.2513,-1.97586 2.7611,-3.51711 4.45501,-4.70397c1.32089,-1.04674 2.90731,-1.79366 4.40367,-2.57813zM300.87466,122.64665l0.01851,0.04429c0.66896,0.67416 1.32475,1.32126 1.81071,1.95049c1.85323,2.39957 3.30751,5.2325 4.55012,7.99273c2.31465,5.14155 4.70561,11.34685 5.20527,17.01513c0.28168,3.19548 0.09658,5.33327 0.94863,8.42932c0.83934,4.72 4.36925,9.86289 3.54278,14.79054c-0.24293,1.44841 -0.47327,3.14943 -1.58258,4.11189c-1.54329,1.33899 -5.39857,1.12041 -7.39347,1.12339c-4.80919,0.00719 -9.24926,1.21401 -13.9776,1.248h-2.7456c0,0 -0.04572,0 -0.1248,-0.00618c-0.07908,0.00618 -0.1248,0.00618 -0.1248,0.00618h-2.74559c-14.29861,-0.007 -28.51649,1.02396 -42.84207,1.49601c-5.38486,0.17744 -10.65567,0.99838 -16.06351,0.99999c-7.59906,0 -15.36595,0.4325 -22.94216,-0.26007c-3.43711,-0.3142 -6.65099,-1.39517 -10.05298,-1.7545c-9.47369,-1.00066 -18.78237,-1.80045 -28.16095,-0.40774c-0.35599,0.49961 -0.96179,0.92471 -1.99268,0.92471c-0.87016,0 -1.43745,-0.30288 -1.80729,-0.69778c-0.5999,-0.23731 -1.1948,-0.75327 -1.39869,-1.8407c-0.20596,-1.09849 0.17123,-1.79797 0.65134,-2.23566c-0.14876,-3.39108 -0.52754,-6.82649 -0.18423,-10.18761c1.61281,-15.79015 5.00905,-30.77856 13.62331,-44.31397c2.70502,-3.93852 2.35548,-7.53771 6.67204,-10.68176c1.71123,-1.24641 3.73056,-1.77533 5.71698,-2.33792c2.89956,-0.82121 3.3104,-1.10503 6.36996,-0.83809c4.10969,0.35856 7.17731,2.18705 9.64136,4.78296c1.72625,-5.47625 5.01415,-10.09788 8.32137,-14.93253l-0.00001,-0.00002c1.48519,-2.17112 2.7462,-5.18562 4.37408,-7.16348c1.94299,-2.3607 4.95822,-4.34874 7.10322,-6.6197c3.70099,-3.91831 7.40651,-7.66454 12.18361,-10.1922c2.64452,-0.04778 4.9063,-0.33258 7.4719,0.57565c2.31737,0.82035 4.60169,3.35463 7.00172,3.91956c1.72628,0.40634 3.55376,-0.23242 5.31989,-0.07141c3.01344,0.27472 6.0935,1.31643 8.90904,2.39729c11.25543,4.32089 18.70299,13.63822 26.90557,21.84862c1.86542,2.15877 2.53534,2.5495 3.53427,5.38942c1.31205,3.73012 0.35523,7.92015 1.49272,11.71711c0.01393,0.0465 0.02875,0.09287 0.04442,0.13908c1.01477,1.18188 1.93302,2.40561 2.72618,3.63897zM198.99336,170.72568c-4.28769,-2.72199 -7.98034,-6.61581 -11.32948,-10.38872c-4.79805,-6.58449 -10.17448,-14.82853 -11.2523,-23.13666c-0.16147,-1.2447 -0.24569,-2.5044 -0.258,-3.77067c-4.47189,10.1984 -6.52269,21.08465 -7.71204,32.42214c-0.29202,2.78373 -0.04384,5.64256 0.12867,8.4735c9.44368,-1.24251 18.84471,-0.49076 28.3804,0.54411c3.36048,0.3647 6.52639,1.43371 9.91502,1.7399c3.08354,0.27863 6.1997,0.36707 9.32291,0.37524c-6.0479,-1.06349 -11.88762,-2.88937 -17.1952,-6.25884z" fill="#000000"/></g></g></svg>