<svg version="1.1" xmlns="http://www.w3.org/2000/svg" xmlns:xlink="http://www.w3.org/1999/xlink" width="125.35333" height="150.753" viewBox="0,0,125.35333,150.753"><g transform="translate(-179.17919,-31.2621)"><g data-paper-data="{&quot;isPaintingLayer&quot;:true}" fill-rule="nonzero" stroke="none" stroke-width="0.5" stroke-linecap="butt" stroke-linejoin="miter" stroke-miterlimit="10" stroke-dasharray="" stroke-dashoffset="0" style="mix-blend-mode: normal"><g><path d="M295.82372,53.67884c0.24202,3.6796 0.45337,7.3642 0.45935,11.05567c1.01505,5.07528 0.54298,10.48564 1.24838,15.66814c0.91318,6.70896 1.96837,13.44936 2.87024,20.07577c1.05459,7.74849 -0.02351,16.50751 -0.02351,24.34573c0,6.65998 0.79155,13.32087 0.40155,19.99533c-0.18504,3.16686 -1.00521,6.2376 -1.23111,9.39814c-0.35443,4.95857 -0.10145,10.05885 -0.02756,15.06493c-5.79489,0 -11.59996,0.00595 -17.39484,0.00595c-16.53492,0 -33.04399,-0.40615 -49.60009,-0.40615c-5.87049,0 -11.7538,-0.00519 -17.62429,-0.00519c-1.11448,0 -4.57475,0.7256 -5.38837,-0.75355c-1.07898,-1.9616 -1.20021,-5.99719 -1.37924,-8.20529c-0.59884,-7.38568 -0.02709,-14.87174 -0.84579,-22.25833c-3.74803,-18.39074 -3.49573,-36.7991 -3.71807,-55.59359c-0.72482,-7.23843 -0.52513,-14.39463 -0.76484,-21.66058c-0.10295,-3.1205 -0.94963,-6.03646 -1.23069,-9.11667c-0.45868,-5.0269 -0.05812,-10.31245 0.00437,-15.39727c10.40837,-2.78317 22.66076,0.58186 33.05472,1.78696c9.13912,1.0596 18.62349,0.43905 27.81795,0.43905c5.19538,0 10.48425,0.00394 15.76906,0.00394c-0.09884,3.65318 -0.99414,7.99991 -0.38801,11.44301c0.20029,1.13773 0.20498,2.54003 1.07897,3.29548c0.58618,0.50667 4.22908,0.42128 5.27092,0.42128c3.68612,0 7.379,0.00531 11.06512,0.00531l-0.00677,0.21467c0,0 0.24009,0.1202 0.58254,0.17729z" data-paper-data="{&quot;noHover&quot;:false,&quot;origItem&quot;:[&quot;Path&quot;,{&quot;applyMatrix&quot;:true,&quot;segments&quot;:[[249.18284,121.87669],[[249.18842,121.70243],[0,0],[-2.9936,0]],[[240.20761,121.70243],[2.9936,0],[-0.8461,0]],[[235.9304,121.36244],[0.47605,0.41148],[-0.70979,-0.61352]],[[235.05606,118.68712],[0.16266,0.92398],[-0.49226,-2.79624]],[[235.37434,109.3954],[-0.08027,2.96685],[-4.29194,0]],[[222.57862,109.3954],[4.21932,0],[-7.46708,0]],[[200.008,109.03803],[7.42214,0.86053],[-8.44124,-0.9787]],[[173.18087,107.57838],[8.45294,-2.26029],[-0.05075,4.12953]],[[173.18228,120.07871],[-0.37251,-4.08249],[0.22825,2.50153]],[[174.1847,127.47948],[-0.08361,-2.53425],[0.19468,5.90089]],[[174.81408,145.05739],[-0.58865,-5.87854],[0.18057,15.26354]],[[177.82634,190.15564],[-3.04388,-14.93565],[0.66488,5.99885]],[[178.50424,208.22365],[-0.48634,-5.99812],[0.1454,1.79326]],[[179.62118,214.88523],[-0.87627,-1.59307],[0.66076,1.20126]],[[183.99442,215.49556],[-0.9051,0],[4.76759,0]],[[198.29718,215.49556],[-4.76759,0],[13.44569,0]],[[238.5445,215.82818],[-13.42848,0],[4.7062,0]],[[252.66308,215.82818],[-4.7062,0],[-0.06001,-4.06557]],[[252.68065,203.59745],[-0.28784,4.027],[0.18347,-2.56677]],[[253.67661,195.96897],[-0.15028,2.5719],[0.31673,-5.42052]],[[253.343,179.74184],[0,5.40876],[0,-6.36565]],[[253.3575,159.99255],[0.85646,6.29277],[-0.73244,-5.3815]],[[251.03116,143.70798],[0.74162,5.44854],[-0.57289,-4.20884]],[[250.02407,130.99415],[0.82435,4.12178],[-0.00486,-2.99796]],[[249.65563,122.02039],[0.19655,2.98831],[-0.27812,-0.04636]]],&quot;closed&quot;:true}]}" fill="#ffffff"/><path d="M225.17042,170.46916c-1.847,0 -1.847,-1.84699 -1.847,-1.84699v-0.81913c0,-8.21281 -0.12496,-16.96627 -1.60495,-25.04396c-0.99451,-5.42799 -2.08118,-10.18905 -2.08118,-15.9129c0,-4.53497 0.37121,-9.25739 0.00629,-13.77299c-0.21756,-2.69223 -1.62982,-5.03109 -2.03028,-7.63828c-0.08601,-0.56002 0.0263,-5.66429 -0.01486,-6.25739c-0.09483,-1.36635 -0.93614,-2.5853 -1.20437,-3.9284c-1.21615,-6.08953 -0.85246,-12.57031 -0.85246,-18.77987c0,-7.40687 -0.9666,-14.23537 -1.62929,-21.52513c-0.615,-6.76506 -0.00899,-13.86526 -0.00899,-20.66042c0,0 0,-1.84699 1.847,-1.84699c1.847,0 1.84699,1.84699 1.84699,1.84699c0,6.67141 -0.61268,13.65613 -0.00899,20.29643c0.67322,7.40518 1.64726,14.36591 1.64726,21.88913c0,5.96871 -0.38568,12.23384 0.78581,18.08131c0.29095,1.45225 1.1304,2.78695 1.25304,4.26296c0.16644,2.00299 -0.32108,4.04324 -0.01486,6.02967c0.41495,2.69175 1.82626,5.12741 2.0654,7.92532c0.39406,4.61059 0.00629,9.44571 0.00629,14.07768c0,5.51004 1.06874,9.97515 2.01451,15.21432c1.50267,8.32427 1.67161,17.28473 1.67161,25.74254v0.81913c0,0 0,1.84699 -1.847,1.84699z" fill="#ff0000"/><path d="M297.87278,56.80994c0,1.847 -1.847,1.84699 -1.847,1.84699h-1.63828c-14.40297,0 -28.84643,-0.3944 -43.2995,-0.41315c-16.04472,2.00559 -33.08584,0.41315 -49.263,0.41315c0,0 -1.847,0 -1.847,-1.84699c0,-1.847 1.847,-1.847 1.847,-1.847c16.10149,0 33.06441,1.59013 49.03347,-0.40601c14.53128,-0.0174 29.0489,0.40601 43.52903,0.40601h1.63828c0,0 1.847,0 1.847,1.847z" fill="#00ddff"/><path d="M297.88592,72.79625c0,1.847 -1.847,1.84699 -1.847,1.84699h-1.63827c-14.40297,0 -28.84645,-0.39439 -43.29952,-0.41314c-16.04472,2.00559 -33.08584,0.41314 -49.263,0.41314c0,0 -1.84699,0 -1.84699,-1.84699c0,-1.847 1.84699,-1.847 1.84699,-1.847c16.10149,0 33.06441,1.59013 49.03347,-0.40599c14.53128,-0.0174 29.04892,0.40599 43.52905,0.40599h1.63827c0,0 1.847,0 1.847,1.847z" fill="#00ddff"/><path d="M300.75289,83.8546c0,1.847 -1.847,1.847 -1.847,1.847h-1.63827c-14.40297,0 -28.84644,-0.39439 -43.29951,-0.41314c-16.04472,2.00559 -33.08584,0.41314 -49.263,0.41314c0,0 -1.847,0 -1.847,-1.847c0,-1.847 1.847,-1.84699 1.847,-1.84699c16.10149,0 33.06441,1.59013 49.03347,-0.40599c14.53128,-0.0174 29.04891,0.40599 43.52904,0.40599h1.63827c0,0 1.847,0 1.847,1.84699z" fill="#00ddff"/><path d="M300.76603,99.84091c0,1.847 -1.84699,1.847 -1.84699,1.847h-1.63828c-14.40297,0 -28.84644,-0.39441 -43.29951,-0.41315c-16.04472,2.00559 -33.08584,0.41315 -49.263,0.41315c0,0 -1.847,0 -1.847,-1.847c0,-1.847 1.847,-1.84699 1.847,-1.84699c16.10149,0 33.06441,1.59013 49.03347,-0.40599c14.53128,-0.0174 29.04891,0.40599 43.52904,0.40599h1.63828c0,0 1.84699,0 1.84699,1.84699z" fill="#00ddff"/><path d="M302.39117,112.93397c0,1.847 -1.847,1.847 -1.847,1.847h-1.63828c-14.40297,0 -28.84643,-0.39441 -43.2995,-0.41315c-16.04472,2.00559 -33.08584,0.41315 -49.263,0.41315c0,0 -1.847,0 -1.847,-1.847c0,-1.847 1.847,-1.847 1.847,-1.847c16.10149,0 33.06441,1.59013 49.03347,-0.40601c14.53128,-0.0174 29.0489,0.40601 43.52903,0.40601h1.63828c0,0 1.847,0 1.847,1.847z" fill="#00ddff"/><path d="M302.4043,128.92028c0,1.847 -1.847,1.847 -1.847,1.847h-1.63827c-14.40297,0 -28.84645,-0.39439 -43.29952,-0.41314c-16.04472,2.00559 -33.08584,0.41314 -49.263,0.41314c0,0 -1.84699,0 -1.84699,-1.847c0,-1.847 1.84699,-1.847 1.84699,-1.847c16.10149,0 33.06441,1.59013 49.03347,-0.40599c14.53128,-0.0174 29.04892,0.40599 43.52905,0.40599h1.63827c0,0 1.847,0 1.847,1.847z" fill="#00ddff"/><path d="M304.04093,139.97863c0,1.847 -1.87021,1.847 -1.87021,1.847h-1.65887c-14.584,0 -29.20899,-0.39439 -43.8437,-0.41314c-16.24638,2.00559 -33.50166,0.41314 -49.88214,0.41314c0,0 -1.87022,0 -1.87022,-1.847c0,-1.847 1.87022,-1.847 1.87022,-1.847c16.30386,0 33.47996,1.59013 49.64973,-0.40599c14.71391,-0.0174 29.41401,0.40599 44.07612,0.40599h1.65887c0,0 1.87021,0 1.87021,1.847z" fill="#00ddff"/><path d="M302.66993,155.96493c0,1.847 -1.82088,1.847 -1.82088,1.847h-1.61511c-14.19933,0 -28.43858,-0.39441 -42.68728,-0.41315c-15.81787,2.00559 -32.61803,0.41315 -48.56646,0.41315c0,0 -1.82089,0 -1.82089,-1.847c0,-1.847 1.82089,-1.847 1.82089,-1.847c15.87382,0 32.59691,1.59013 48.34018,-0.40601c14.32582,-0.0174 28.63818,0.40601 42.91358,0.40601h1.61511c0,0 1.82088,0 1.82088,1.847z" fill="#00ddff"/><path d="M295.19978,53.54712l0.00687,-0.21457c-3.68612,0 -7.37224,0 -11.05836,0c-1.04183,0 -4.68049,0.08804 -5.26666,-0.41863c-0.87399,-0.75545 -0.87632,-2.15648 -1.0766,-3.29421c-0.60613,-3.4431 0.29307,-7.78801 0.39191,-11.44119c-5.2848,0 -10.56038,0 -15.75578,0c-9.19445,0 -18.65281,0.61957 -27.79192,-0.44004c-10.39397,-1.2051 -22.62473,-4.58048 -33.0331,-1.79731c-0.06249,5.08482 -0.45695,10.36517 0.00174,15.39205c0.28105,3.08021 1.13136,5.9923 1.23431,9.1128c0.23972,7.26595 0.05015,14.40581 0.77498,21.64424c0.22234,18.79448 -0.03893,37.14016 3.70909,55.5309c0.81869,7.38658 0.23586,14.86205 0.83472,22.24773c0.17903,2.2081 0.29635,6.24101 1.37534,8.20261c0.81361,1.47915 4.27042,0.75152 5.3849,0.75152c5.87049,0 11.74096,0 17.61144,0c16.55611,0 33.02288,0.40957 49.55781,0.40957c5.79489,0 11.58977,0 17.38466,0c-0.07389,-5.00607 -0.33278,-10.1015 0.02165,-15.06007c0.22591,-3.16055 1.0413,-6.22633 1.22634,-9.39319c0.39,-6.67446 -0.41078,-13.32101 -0.41078,-19.98098c0,-7.83823 1.07244,-16.56944 0.01785,-24.31793c-0.90187,-6.62641 -1.9513,-13.34275 -2.86449,-20.05171c-0.70542,-5.18248 -0.225,-10.57966 -1.24006,-15.65494c-0.00599,-3.69148 -0.21167,-7.37008 -0.45369,-11.04968c-0.34246,-0.05708 -0.58216,-0.17694 -0.58216,-0.17694zM281.48104,47.16229c-0.09535,0.96407 -1.08153,2.38556 -0.25746,2.89489c0.83774,0.51779 1.93986,-0.41864 2.92471,-0.41864c3.68612,0 7.37224,0 11.05836,0l0.30757,0.11303c-0.258,-3.84587 -0.49153,-7.69828 -0.51446,-11.57308c-4.33504,0 -8.7157,0 -13.10141,0c-0.01238,3.03514 -0.11936,5.97103 -0.41731,8.98378zM299.92062,36.33151c0,1.12952 -0.69076,1.5683 -1.22741,1.73874c0.04488,8.831 1.23325,17.55611 1.21842,26.33949c1.0037,5.01849 0.52365,10.35013 1.21735,15.47228c0.91031,6.72148 2.0009,13.44491 2.86946,20.08601c1.04057,7.95627 0.01786,16.79273 0.01786,24.83029c0,6.72736 0.80419,13.443 0.40508,20.18618c-0.18814,3.17862 -1.00163,6.24893 -1.22778,9.41753c-0.39035,5.4688 -0.01882,11.11044 0.00262,16.60548c0.00064,0.0237 0.00096,0.04772 0.00096,0.07205c0,0.01804 -0.00017,0.0359 -0.00053,0.0536c0.00034,0.11874 0.00053,0.23739 0.00053,0.35598c0,0 0,1.847 -1.847,1.847c-0.5625,0 -0.95368,-0.1713 -1.22573,-0.40958c-5.83262,0 -12.28564,0 -18.02399,0c-16.53523,0 -33.00159,-0.40957 -49.55781,-0.40957c-5.18787,0 -10.37573,0 -15.56361,0c-2.03709,0 -5.73045,0.71639 -7.57403,-0.10412c-3.97548,-1.76934 -3.11686,-4.02862 -4.03429,-7.38873c-2.36156,-8.64929 -0.69072,-17.91466 -1.68473,-26.83629c-3.64574,-18.54785 -3.5412,-36.94914 -3.74714,-55.89265c-0.72604,-7.27027 -0.55542,-14.44911 -0.7793,-21.74913c-0.09348,-3.04803 -0.95003,-5.8949 -1.22309,-8.90821c-0.46666,-5.14979 -0.07187,-10.54734 -0.0133,-15.75158c-0.12029,-0.16216 -0.22559,-0.36245 -0.30777,-0.609c-0.58407,-1.75221 1.16814,-2.33629 1.16814,-2.33629c11.46365,-3.75399 24.63431,-0.23324 36.29265,1.12821c8.99134,1.04999 18.31818,0.41528 27.365,0.41528c10.8882,0 21.77641,0 32.66461,0c0.17015,-0.53683 0.60871,-1.2287 1.73915,-1.2287c1.18981,0 1.61317,0.76646 1.7638,1.31189c0.54543,0.15063 1.31191,0.57397 1.31191,1.7638z" fill="#000000"/></g><g><path d="M277.50671,62.35779c0.24202,3.6796 0.45337,7.3642 0.45935,11.05567c1.01505,5.07528 0.54298,10.48564 1.24838,15.66814c0.91318,6.70896 1.96837,13.44936 2.87024,20.07577c1.05459,7.74849 -0.02351,16.50751 -0.02351,24.34573c0,6.65998 0.79155,13.32087 0.40155,19.99533c-0.18504,3.16686 -1.00521,6.2376 -1.23111,9.39814c-0.35443,4.95857 -0.10145,10.05885 -0.02756,15.06493c-5.79489,0 -11.59996,0.00595 -17.39484,0.00595c-16.53492,0 -33.04399,-0.40615 -49.60009,-0.40615c-5.87049,0 -11.7538,-0.00519 -17.62429,-0.00519c-1.11448,0 -4.57475,0.7256 -5.38837,-0.75355c-1.07898,-1.9616 -1.20021,-5.99719 -1.37924,-8.20529c-0.59884,-7.38568 -0.02709,-14.87174 -0.84579,-22.25833c-3.74803,-18.39074 -3.49573,-36.7991 -3.71807,-55.59359c-0.72482,-7.23843 -0.52513,-14.39463 -0.76484,-21.66058c-0.10295,-3.1205 -0.94963,-6.03646 -1.23069,-9.11667c-0.45868,-5.0269 -0.05812,-10.31245 0.00437,-15.39727c10.40837,-2.78317 22.66076,0.58186 33.05472,1.78696c9.13912,1.0596 18.62349,0.43905 27.81795,0.43905c5.19538,0 10.48425,0.00394 15.76906,0.00394c-0.09884,3.65318 -0.99414,7.99991 -0.38801,11.44301c0.20029,1.13773 0.20498,2.54003 1.07897,3.29548c0.58618,0.50667 4.22908,0.42128 5.27092,0.42128c3.68612,0 7.379,0.00531 11.06512,0.00531l-0.00677,0.21467c0,0 0.24009,0.1202 0.58254,0.17729z" data-paper-data="{&quot;noHover&quot;:false,&quot;origItem&quot;:[&quot;Path&quot;,{&quot;applyMatrix&quot;:true,&quot;segments&quot;:[[249.18284,121.87669],[[249.18842,121.70243],[0,0],[-2.9936,0]],[[240.20761,121.70243],[2.9936,0],[-0.8461,0]],[[235.9304,121.36244],[0.47605,0.41148],[-0.70979,-0.61352]],[[235.05606,118.68712],[0.16266,0.92398],[-0.49226,-2.79624]],[[235.37434,109.3954],[-0.08027,2.96685],[-4.29194,0]],[[222.57862,109.3954],[4.21932,0],[-7.46708,0]],[[200.008,109.03803],[7.42214,0.86053],[-8.44124,-0.9787]],[[173.18087,107.57838],[8.45294,-2.26029],[-0.05075,4.12953]],[[173.18228,120.07871],[-0.37251,-4.08249],[0.22825,2.50153]],[[174.1847,127.47948],[-0.08361,-2.53425],[0.19468,5.90089]],[[174.81408,145.05739],[-0.58865,-5.87854],[0.18057,15.26354]],[[177.82634,190.15564],[-3.04388,-14.93565],[0.66488,5.99885]],[[178.50424,208.22365],[-0.48634,-5.99812],[0.1454,1.79326]],[[179.62118,214.88523],[-0.87627,-1.59307],[0.66076,1.20126]],[[183.99442,215.49556],[-0.9051,0],[4.76759,0]],[[198.29718,215.49556],[-4.76759,0],[13.44569,0]],[[238.5445,215.82818],[-13.42848,0],[4.7062,0]],[[252.66308,215.82818],[-4.7062,0],[-0.06001,-4.06557]],[[252.68065,203.59745],[-0.28784,4.027],[0.18347,-2.56677]],[[253.67661,195.96897],[-0.15028,2.5719],[0.31673,-5.42052]],[[253.343,179.74184],[0,5.40876],[0,-6.36565]],[[253.3575,159.99255],[0.85646,6.29277],[-0.73244,-5.3815]],[[251.03116,143.70798],[0.74162,5.44854],[-0.57289,-4.20884]],[[250.02407,130.99415],[0.82435,4.12178],[-0.00486,-2.99796]],[[249.65563,122.02039],[0.19655,2.98831],[-0.27812,-0.04636]]],&quot;closed&quot;:true}]}" fill="#ffffff"/><path d="M206.85341,179.1481c-1.847,0 -1.847,-1.84699 -1.847,-1.84699v-0.81913c0,-8.21281 -0.12496,-16.96627 -1.60495,-25.04396c-0.99451,-5.42799 -2.08118,-10.18905 -2.08118,-15.9129c0,-4.53497 0.37121,-9.25739 0.00629,-13.77299c-0.21756,-2.69223 -1.62982,-5.03109 -2.03028,-7.63828c-0.08601,-0.56002 0.0263,-5.66429 -0.01486,-6.25739c-0.09483,-1.36635 -0.93614,-2.5853 -1.20437,-3.9284c-1.21615,-6.08953 -0.85246,-12.57031 -0.85246,-18.77987c0,-7.40687 -0.9666,-14.23537 -1.62929,-21.52513c-0.615,-6.76506 -0.00899,-13.86526 -0.00899,-20.66042c0,0 0,-1.84699 1.847,-1.84699c1.847,0 1.84699,1.84699 1.84699,1.84699c0,6.67141 -0.61268,13.65613 -0.00899,20.29643c0.67322,7.40518 1.64726,14.36591 1.64726,21.88913c0,5.96871 -0.38568,12.23384 0.78581,18.08131c0.29095,1.45225 1.1304,2.78695 1.25304,4.26296c0.16644,2.00299 -0.32108,4.04324 -0.01486,6.02967c0.41495,2.69175 1.82626,5.12741 2.0654,7.92532c0.39406,4.61059 0.00629,9.44571 0.00629,14.07768c0,5.51004 1.06874,9.97515 2.01451,15.21432c1.50267,8.32427 1.67161,17.28473 1.67161,25.74254v0.81913c0,0 0,1.84699 -1.847,1.84699z" fill="#ff0000"/><path d="M279.55577,65.48888c0,1.847 -1.847,1.84699 -1.847,1.84699h-1.63828c-14.40297,0 -28.84643,-0.3944 -43.2995,-0.41315c-16.04472,2.00559 -33.08584,0.41315 -49.263,0.41315c0,0 -1.847,0 -1.847,-1.84699c0,-1.847 1.847,-1.847 1.847,-1.847c16.10149,0 33.06441,1.59013 49.03347,-0.40601c14.53128,-0.0174 29.0489,0.40601 43.52903,0.40601h1.63828c0,0 1.847,0 1.847,1.847z" fill="#00ddff"/><path d="M279.56891,81.47519c0,1.847 -1.847,1.84699 -1.847,1.84699h-1.63827c-14.40297,0 -28.84645,-0.39439 -43.29952,-0.41314c-16.04472,2.00559 -33.08584,0.41314 -49.263,0.41314c0,0 -1.84699,0 -1.84699,-1.84699c0,-1.847 1.84699,-1.847 1.84699,-1.847c16.10149,0 33.06441,1.59013 49.03347,-0.40599c14.53128,-0.0174 29.04892,0.40599 43.52905,0.40599h1.63827c0,0 1.847,0 1.847,1.847z" fill="#00ddff"/><path d="M282.43588,92.53355c0,1.847 -1.847,1.847 -1.847,1.847h-1.63827c-14.40297,0 -28.84644,-0.39439 -43.29951,-0.41314c-16.04472,2.00559 -33.08584,0.41314 -49.263,0.41314c0,0 -1.847,0 -1.847,-1.847c0,-1.847 1.847,-1.84699 1.847,-1.84699c16.10149,0 33.06441,1.59013 49.03347,-0.40599c14.53128,-0.0174 29.04891,0.40599 43.52904,0.40599h1.63827c0,0 1.847,0 1.847,1.84699z" fill="#00ddff"/><path d="M282.44902,108.51985c0,1.847 -1.84699,1.847 -1.84699,1.847h-1.63828c-14.40297,0 -28.84644,-0.39441 -43.29951,-0.41315c-16.04472,2.00559 -33.08584,0.41315 -49.263,0.41315c0,0 -1.847,0 -1.847,-1.847c0,-1.847 1.847,-1.84699 1.847,-1.84699c16.10149,0 33.06441,1.59013 49.03347,-0.40599c14.53128,-0.0174 29.04891,0.40599 43.52904,0.40599h1.63828c0,0 1.84699,0 1.84699,1.84699z" fill="#00ddff"/><path d="M284.07416,121.61292c0,1.847 -1.847,1.847 -1.847,1.847h-1.63828c-14.40297,0 -28.84643,-0.39441 -43.2995,-0.41315c-16.04472,2.00559 -33.08584,0.41315 -49.263,0.41315c0,0 -1.847,0 -1.847,-1.847c0,-1.847 1.847,-1.847 1.847,-1.847c16.10149,0 33.06441,1.59013 49.03347,-0.40601c14.53128,-0.0174 29.0489,0.40601 43.52903,0.40601h1.63828c0,0 1.847,0 1.847,1.847z" fill="#00ddff"/><path d="M284.08729,137.59923c0,1.847 -1.847,1.847 -1.847,1.847h-1.63827c-14.40297,0 -28.84645,-0.39439 -43.29952,-0.41314c-16.04472,2.00559 -33.08584,0.41314 -49.263,0.41314c0,0 -1.84699,0 -1.84699,-1.847c0,-1.847 1.84699,-1.847 1.84699,-1.847c16.10149,0 33.06441,1.59013 49.03347,-0.40599c14.53128,-0.0174 29.04892,0.40599 43.52905,0.40599h1.63827c0,0 1.847,0 1.847,1.847z" fill="#00ddff"/><path d="M285.72392,148.65757c0,1.847 -1.87021,1.847 -1.87021,1.847h-1.65887c-14.584,0 -29.20899,-0.39439 -43.8437,-0.41314c-16.24638,2.00559 -33.50166,0.41314 -49.88214,0.41314c0,0 -1.87022,0 -1.87022,-1.847c0,-1.847 1.87022,-1.847 1.87022,-1.847c16.30386,0 33.47996,1.59013 49.64973,-0.40599c14.71391,-0.0174 29.41401,0.40599 44.07612,0.40599h1.65887c0,0 1.87021,0 1.87021,1.847z" fill="#00ddff"/><path d="M284.35292,164.64388c0,1.847 -1.82088,1.847 -1.82088,1.847h-1.61511c-14.19933,0 -28.43858,-0.39441 -42.68728,-0.41315c-15.81787,2.00559 -32.61803,0.41315 -48.56646,0.41315c0,0 -1.82089,0 -1.82089,-1.847c0,-1.847 1.82089,-1.847 1.82089,-1.847c15.87382,0 32.59691,1.59013 48.34018,-0.40601c14.32582,-0.0174 28.63818,0.40601 42.91358,0.40601h1.61511c0,0 1.82088,0 1.82088,1.847z" fill="#00ddff"/><path d="M276.88277,62.22606l0.00687,-0.21457c-3.68612,0 -7.37224,0 -11.05836,0c-1.04183,0 -4.68049,0.08804 -5.26666,-0.41863c-0.87399,-0.75545 -0.87632,-2.15648 -1.0766,-3.29421c-0.60613,-3.4431 0.29307,-7.78801 0.39191,-11.44119c-5.2848,0 -10.56038,0 -15.75578,0c-9.19445,0 -18.65281,0.61957 -27.79192,-0.44004c-10.39397,-1.2051 -22.62473,-4.58048 -33.0331,-1.79731c-0.06249,5.08482 -0.45695,10.36517 0.00174,15.39205c0.28105,3.08021 1.13136,5.9923 1.23431,9.1128c0.23972,7.26595 0.05015,14.40581 0.77498,21.64424c0.22234,18.79448 -0.03893,37.14016 3.70909,55.5309c0.81869,7.38658 0.23586,14.86205 0.83472,22.24773c0.17903,2.2081 0.29635,6.24101 1.37534,8.20261c0.81361,1.47915 4.27042,0.75152 5.3849,0.75152c5.87049,0 11.74096,0 17.61144,0c16.55611,0 33.02288,0.40957 49.55781,0.40957c5.79489,0 11.58977,0 17.38466,0c-0.07389,-5.00607 -0.33278,-10.1015 0.02165,-15.06007c0.22591,-3.16055 1.0413,-6.22633 1.22634,-9.39319c0.39,-6.67446 -0.41078,-13.32101 -0.41078,-19.98098c0,-7.83823 1.07244,-16.56944 0.01785,-24.31793c-0.90187,-6.62641 -1.9513,-13.34275 -2.86449,-20.05171c-0.70542,-5.18248 -0.225,-10.57966 -1.24006,-15.65494c-0.00599,-3.69148 -0.21167,-7.37008 -0.45369,-11.04968c-0.34246,-0.05708 -0.58216,-0.17694 -0.58216,-0.17694zM263.16403,55.84124c-0.09535,0.96407 -1.08153,2.38556 -0.25746,2.89489c0.83774,0.51779 1.93986,-0.41864 2.92471,-0.41864c3.68612,0 7.37224,0 11.05836,0l0.30757,0.11303c-0.258,-3.84587 -0.49153,-7.69828 -0.51446,-11.57308c-4.33504,0 -8.7157,0 -13.10141,0c-0.01238,3.03514 -0.11936,5.97103 -0.41731,8.98378zM281.60361,45.01046c0,1.12952 -0.69076,1.5683 -1.22741,1.73874c0.04488,8.831 1.23325,17.55611 1.21842,26.33949c1.0037,5.01849 0.52365,10.35013 1.21735,15.47228c0.91031,6.72148 2.0009,13.44491 2.86946,20.08601c1.04057,7.95627 0.01786,16.79273 0.01786,24.83029c0,6.72736 0.80419,13.443 0.40508,20.18618c-0.18814,3.17862 -1.00163,6.24893 -1.22778,9.41753c-0.39035,5.4688 -0.01882,11.11044 0.00262,16.60548c0.00064,0.0237 0.00096,0.04772 0.00096,0.07205c0,0.01804 -0.00017,0.0359 -0.00053,0.0536c0.00034,0.11874 0.00053,0.23739 0.00053,0.35598c0,0 0,1.847 -1.847,1.847c-0.5625,0 -0.95368,-0.1713 -1.22573,-0.40958c-5.83262,0 -12.28564,0 -18.02399,0c-16.53523,0 -33.00159,-0.40957 -49.55781,-0.40957c-5.18787,0 -10.37573,0 -15.56361,0c-2.03709,0 -5.73045,0.71639 -7.57403,-0.10412c-3.97548,-1.76934 -3.11686,-4.02862 -4.03429,-7.38873c-2.36156,-8.64929 -0.69072,-17.91466 -1.68473,-26.83629c-3.64574,-18.54785 -3.5412,-36.94914 -3.74714,-55.89265c-0.72604,-7.27027 -0.55542,-14.44911 -0.7793,-21.74913c-0.09348,-3.04803 -0.95003,-5.8949 -1.22309,-8.90821c-0.46666,-5.14979 -0.07187,-10.54734 -0.0133,-15.75158c-0.12029,-0.16216 -0.22559,-0.36245 -0.30777,-0.609c-0.58407,-1.75221 1.16814,-2.33629 1.16814,-2.33629c11.46365,-3.75399 24.63431,-0.23324 36.29265,1.12821c8.99134,1.04999 18.31818,0.41528 27.365,0.41528c10.8882,0 21.77641,0 32.66461,0c0.17015,-0.53683 0.60871,-1.2287 1.73915,-1.2287c1.18981,0 1.61317,0.76646 1.7638,1.31189c0.54543,0.15063 1.31191,0.57397 1.31191,1.7638z" fill="#000000"/></g></g></g></svg>