<svg version="1.1" xmlns="http://www.w3.org/2000/svg" xmlns:xlink="http://www.w3.org/1999/xlink" width="149.32335" height="82.86521" viewBox="0,0,149.32335,82.86521"><g transform="translate(-160.69987,-98.21355)"><g data-paper-data="{&quot;isPaintingLayer&quot;:true}" fill-rule="nonzero" stroke-linejoin="miter" stroke-miterlimit="10" stroke-dasharray="" stroke-dashoffset="0" style="mix-blend-mode: normal"><path d="M162.67774,179.1009h145.59547" fill="none" stroke="#000000" stroke-width="3.5" stroke-linecap="round"/><path d="M262.69047,178.22598c-6.85966,-0.05157 -13.79324,-0.50881 -20.64684,-1.05086c0.19861,-6.25582 -1.31731,-12.39911 -3.66185,-18.13409c3.80158,-1.78969 8.94675,-3.04027 12.45659,-0.82253c2.22577,1.40638 5.91507,5.35791 7.38338,7.64566c1.14151,1.77858 1.37507,4.27814 2.2464,6.14716c0.57699,1.23764 1.32953,2.48035 1.44625,3.8409c0.25976,0.78991 0.5163,1.58386 0.77606,2.37376z" data-paper-data="{&quot;noHover&quot;:false,&quot;origItem&quot;:[&quot;Path&quot;,{&quot;applyMatrix&quot;:true,&quot;segments&quot;:[[[273.92006,211.9648],[0.22983,0.69891],[-0.10327,-1.20379]],[[272.63521,208.57551],[0.51052,1.09506],[-0.77095,-1.6537]],[[270.64464,203.16794],[1.01,1.57368],[-1.29915,-2.02419]],[[264.159,196.44185],[1.96935,1.24436],[-3.10548,-1.96225]],[[253.17991,197.14851],[3.36361,-1.58351],[2.07443,5.07428]],[[256.41231,213.12723],[0.17573,-5.53511],[6.06401,0.47961]],[[274.60955,214.06151],[-6.06938,-0.04563],[-0.22983,-0.69891]]],&quot;closed&quot;:true}]}" fill="#c0ad00" stroke="none" stroke-width="0.5" stroke-linecap="butt"/><path d="M266.47547,177.36778l-0.03575,-0.16882c-0.24624,-0.72711 -0.49781,-1.45823 -0.74405,-2.18532c-0.98201,-7.49263 -5.88986,-13.09404 -11.12986,-18.23077c-0.12066,-0.11829 -0.23156,-0.24794 -0.33791,-0.38213c3.66673,-2.2552 7.53234,-5.12463 11.49351,-6.4427c9.2771,-3.08695 17.90031,2.17713 24.73344,7.95809c3.82159,5.42827 5.63615,12.26566 6.73565,18.55711c-8.46448,0.53082 -10.08068,-1.18387 -20.15058,0.19467c-2.42754,0.33233 -8.21592,0.02301 -10.56446,0.69988z" data-paper-data="{&quot;noHover&quot;:false,&quot;origItem&quot;:[&quot;Path&quot;,{&quot;applyMatrix&quot;:true,&quot;segments&quot;:[[[287.33865,212.66602],[-2.14787,0.29404],[8.90978,-1.21972]],[[305.13012,212.51726],[-7.48932,0.46967],[-0.97283,-5.56664]],[[299.16593,196.1412],[3.38132,4.8029],[-6.04591,-5.11497]],[[277.35911,189.12297],[8.20832,-2.73131],[-3.50481,1.16622]],[[267.20729,194.79861],[3.2443,-1.99539],[0.0941,0.11873]],[[267.50645,195.13615],[-0.10676,-0.10466],[4.63632,4.54495]],[[277.33858,211.21396],[-0.86888,-6.62943],[0.21787,0.64334]],[[277.99218,213.14398],[-0.21787,-0.64334],[0,0]],[[278.0235,213.29315],[0,0],[2.07797,-0.59889]]],&quot;closed&quot;:true}]}" fill="#ceba00" stroke="none" stroke-width="0.5" stroke-linecap="butt"/><path d="M301.3909,175.02912c-1.19256,-7.37931 -3.62114,-13.72101 -8.12369,-19.95522c-7.93978,-6.87601 -17.92351,-12.5647 -28.72662,-8.95898c-4.73967,1.58195 -9.31265,5.12333 -13.63967,7.59561c0,0 -0.05413,0.03062 -0.13706,0.09059c-4.41564,-1.51302 -9.73797,-0.40927 -13.97368,1.53629c-0.27003,-0.56692 -0.54992,-1.13329 -0.83249,-1.69255c-1.24226,-4.46565 -3.5792,-6.8443 -6.87095,-9.96632c-2.31981,-2.2002 -4.22604,-5.18026 -7.18907,-6.5426c-6.40994,-2.94715 -15.08709,-4.89773 -22.89091,-4.79731c3.61653,-6.37681 6.85745,-12.60053 12.60523,-17.36043c2.50491,-2.51594 4.10044,-5.80859 7.15275,-7.74679c4.46851,-2.83749 9.01976,-3.32895 14.10913,-4.22787c7.32565,-1.29391 14.58373,-1.61925 21.90621,0.20798c3.52851,1.17617 7.70091,1.40788 10.8712,3.46651c11.94745,7.75811 19.57216,18.92276 27.30847,30.52359c6.29206,8.08977 10.9092,18.95964 12.61828,29.10909c0.49578,2.94419 0.27543,5.96795 0.34969,8.9609l-0.78471,-0.13871c-1.22052,0.00185 -2.53238,-0.07874 -3.75213,-0.10375z" data-paper-data="{&quot;noHover&quot;:false,&quot;origItem&quot;:[&quot;Path&quot;,{&quot;applyMatrix&quot;:true,&quot;segments&quot;:[[[312.16791,211.47893],[-1.07991,0.00164],[0,0]],[[312.86207,211.60188],[0,0],[-0.0657,-2.64816]],[[312.54957,203.67848],[0.43866,2.605],[-1.51219,-8.98017]],[[301.37936,177.94781],[5.56717,7.15778],[-6.84504,-10.26433]],[[277.2479,150.98521],[10.57103,6.86433],[-2.80505,-1.82147]],[[267.64495,147.92173],[3.122,1.04067],[-6.47889,-1.61672]],[[248.28983,147.73162],[6.48169,-1.14484],[-4.50304,0.79536]],[[235.81865,151.46268],[3.95371,-2.51059],[-2.70067,1.71491]],[[229.49663,158.30796],[2.21633,-2.22609],[-5.08561,4.21154]],[[218.34997,173.64916],[3.19988,-5.64216],[6.90477,-0.08885]],[[238.60399,177.89037],[-5.67147,-2.60762],[2.62167,1.20538]],[[244.96375,183.66622],[-2.05255,-1.94672],[2.91253,2.76235]],[[251.03124,192.46129],[-1.09914,-3.95118],[0.25001,0.49484]],[[251.76504,193.95603],[-0.23892,-0.50161],[3.74772,-1.72142]],[[264.10024,192.58352],[-3.90693,-1.33871],[0.07338,-0.05306]],[[264.2211,192.50333],[0,0],[3.82852,-2.18746]],[[276.24175,185.80612],[-4.19363,1.3997],[9.55852,-3.19032]],[[301.74771,193.77807],[-7.02507,-6.08385],[3.98384,5.51599]],[[308.92925,211.44547],[-1.05517,-6.52917],[1.07923,0.02214]]],&quot;closed&quot;:true}]}" fill="#ffe500" stroke="none" stroke-width="0.5" stroke-linecap="butt"/><path d="M164.71166,176.08805c0.50841,-7.39601 2.84393,-16.56765 7.14559,-21.98195c2.35225,-2.96067 5.11563,-5.54345 7.58932,-8.38051c2.20143,-2.52481 3.28271,-4.46715 6.23647,-6.15671c2.38728,-0.78475 4.88529,-2.02333 7.32623,-2.53505c8.61552,-1.80621 19.44947,0.63014 27.44139,3.87878c2.15226,0.87487 4.44583,4.27308 6.017,5.76807c2.93506,2.79274 4.83291,4.53151 5.89307,8.50462c3.93495,7.93699 6.31925,13.35871 5.86459,21.65965c-9.27502,-0.75838 -18.57899,-0.46447 -27.87502,-0.46447c-15.17256,0.00858 -30.49931,-0.34101 -45.63863,-0.2924z" data-paper-data="{&quot;noHover&quot;:false,&quot;origItem&quot;:[&quot;Path&quot;,{&quot;applyMatrix&quot;:true,&quot;segments&quot;:[[[228.31653,212.41582],[-13.42458,0.00759],[8.22507,0]],[[252.95683,212.84831],[-8.20648,-0.67101],[0.40228,-7.34462]],[[247.76174,193.71044],[3.48162,7.0226],[-0.93802,-3.51538]],[[242.55109,186.20178],[2.59692,2.471],[-1.39015,-1.32275]],[[237.23526,181.11164],[1.90431,0.77408],[-7.07119,-2.87437]],[[213.01363,177.69368],[7.62296,-1.59812],[-2.15972,0.45278]],[[206.54555,179.92748],[2.11225,-0.69434],[-2.61347,1.49491]],[[201.03839,185.3604],[1.94781,-2.23394],[-2.1887,2.51021]],[[194.32841,192.75751],[2.08126,-2.61958],[-3.80608,4.79053]],[[188.00043,212.17936],[0.44984,-6.54394],[13.39518,-0.04301]]],&quot;closed&quot;:true}]}" fill="#e3cc00" stroke="none" stroke-width="0.5" stroke-linecap="butt"/><path d="M276.44292,147.23516c-0.11234,0.05677 -0.22568,0.11174 -0.3401,0.16473c0,0 -1.28273,0.59203 -1.87475,-0.6907c-0.59203,-1.28273 0.6907,-1.87475 0.6907,-1.87475c2.4765,-1.1389 4.36359,-3.14216 6.77986,-4.23629c1.82715,-0.82737 3.91186,-0.76787 5.814,-1.26583c3.08201,-0.80683 6.72725,-1.88241 9.20558,1.10689c1.42421,1.71784 1.91916,3.83895 2.30432,5.96578c0.47958,0.04876 0.88823,0.33739 1.10408,0.74402l0.83293,1.49928l-0.30103,0.16724l0.4788,0.51339c-0.14152,0.18149 -0.28305,0.36299 -0.42457,0.54448l0.25208,0.1375l-0.06823,0.12509c0.89332,0.92514 1.61949,2.30401 2.12663,3.31404c1.34006,2.66887 1.56418,5.72003 1.83087,8.59907c0.24732,2.67013 1.45078,5.1334 1.69455,7.80123c0.16927,1.85251 1.775,2.97172 0.93536,5.03462c-1.34712,3.30971 -4.07789,2.13052 -6.3007,0.9272c-1.50988,-4.27212 -3.16181,-8.35616 -4.80782,-12.59006c-0.89217,-2.29487 -1.71476,-5.55917 -3.66588,-7.22708c-3.33933,-2.8546 -6.86666,-4.31536 -10.77813,-6.27506c-1.35909,-0.86357 -2.7066,-1.21007 -4.20749,-1.772z" fill="#bdaa00" stroke="none" stroke-width="0.5" stroke-linecap="butt"/><path d="M236.30337,165.00042c1.68715,2.96357 4.03652,6.7415 2.61842,10.01044c-1.36986,3.15773 -4.17572,2.32062 -6.92806,2.32062c-4.25211,0 -8.67173,0.3038 -12.79918,-0.57686c-0.03752,0.01264 -0.07514,0.02518 -0.11285,0.03764l-0.031,-0.06883c-0.04546,-0.01002 -0.09088,-0.02019 -0.13626,-0.0305l0.01235,0.12358l-0.14058,0.01406v0.16229h-1.69326v0c-0.78025,0 -3.61401,0.21412 -3.61401,-0.56612c0,-0.73812 2.7673,-2.19065 3.48898,-2.25394l1.55943,-0.15595c9.4646,-3.21932 11.7869,-16.84084 9.7167,-25.89993c0,0 -0.2744,2.15173 0.86451,1.75931l-0.0406,-0.36542c-0.0072,-0.0578 -0.01091,-0.11667 -0.01091,-0.17641c0,-0.78025 0.63251,-1.41276 1.41276,-1.41276c0.56397,0 1.05076,0.33047 1.27729,0.80832l0.66362,1.32724l-0.07367,0.03683l0.14635,0.13648c0.13807,0.67163 0.26997,1.35966 0.40006,2.05811c0.76885,1.25852 1.38392,2.95871 1.77042,3.95623c1.04468,2.69617 1.32806,5.77726 1.6495,8.75558z" fill="#b8a500" stroke="none" stroke-width="0.5" stroke-linecap="butt"/><path d="M193.62279,150.7129c0,-1.09235 0.88552,-1.97786 1.97786,-1.97786c1.09235,0 1.97786,0.88552 1.97786,1.97786c0,1.09235 -0.88552,1.97786 -1.97786,1.97786c-1.09235,0 -1.97786,-0.88552 -1.97786,-1.97786z" fill="#000000" stroke="none" stroke-width="0.5" stroke-linecap="butt"/><path d="M173.84417,164.55793c0,-1.09235 0.88552,-1.97786 1.97786,-1.97786c1.09235,0 1.97786,0.88552 1.97786,1.97786c0,1.09235 -0.88552,1.97786 -1.97786,1.97786c-1.09235,0 -1.97786,-0.88552 -1.97786,-1.97786z" fill="#000000" stroke="none" stroke-width="0.5" stroke-linecap="butt"/><path d="M193.34024,171.05663c0,-1.09235 0.88552,-1.97786 1.97786,-1.97786c1.09235,0 1.97786,0.88552 1.97786,1.97786c0,1.09235 -0.88552,1.97786 -1.97786,1.97786c-1.09235,0 -1.97786,-0.88552 -1.97786,-1.97786z" fill="#000000" stroke="none" stroke-width="0.5" stroke-linecap="butt"/><path d="M214.53162,149.30014c0,-1.09235 0.88552,-1.97786 1.97786,-1.97786c1.09235,0 1.97786,0.88552 1.97786,1.97786c0,1.09235 -0.88552,1.97786 -1.97786,1.97786c-1.09235,0 -1.97786,-0.88552 -1.97786,-1.97786z" fill="#000000" stroke="none" stroke-width="0.5" stroke-linecap="butt"/><path d="M225.83369,166.25325c0,-1.09235 0.88552,-1.97786 1.97786,-1.97786c1.09235,0 1.97786,0.88552 1.97786,1.97786c0,1.09235 -0.88552,1.97786 -1.97786,1.97786c-1.09235,0 -1.97786,-0.88552 -1.97786,-1.97786z" fill="#000000" stroke="none" stroke-width="0.5" stroke-linecap="butt"/><path d="M208.31548,163.42773c0,-1.09235 0.88552,-1.97786 1.97786,-1.97786c1.09235,0 1.97786,0.88552 1.97786,1.97786c0,1.09235 -0.88552,1.97786 -1.97786,1.97786c-1.09235,0 -1.97786,-0.88552 -1.97786,-1.97786z" fill="#000000" stroke="none" stroke-width="0.5" stroke-linecap="butt"/><path d="M237.13576,111.72075c0,-1.09235 0.88552,-1.97786 1.97786,-1.97786c1.09235,0 1.97786,0.88552 1.97786,1.97786c0,1.09235 -0.88552,1.97786 -1.97786,1.97786c-1.09235,0 -1.97786,-0.88552 -1.97786,-1.97786z" fill="#000000" stroke="none" stroke-width="0.5" stroke-linecap="butt"/><path d="M242.2217,137.15041c0,-1.09235 0.88552,-1.97786 1.97786,-1.97786c1.09235,0 1.97786,0.88552 1.97786,1.97786c0,1.09235 -0.88552,1.97786 -1.97786,1.97786c-1.09235,0 -1.97786,-0.88552 -1.97786,-1.97786z" fill="#000000" stroke="none" stroke-width="0.5" stroke-linecap="butt"/><path d="M215.37928,126.97855c0,-1.09235 0.88552,-1.97786 1.97786,-1.97786c1.09235,0 1.97786,0.88552 1.97786,1.97786c0,1.09235 -0.88552,1.97786 -1.97786,1.97786c-1.09235,0 -1.97786,-0.88552 -1.97786,-1.97786z" fill="#000000" stroke="none" stroke-width="0.5" stroke-linecap="butt"/><path d="M250.4157,119.91475c0,-1.09235 0.88552,-1.97786 1.97786,-1.97786c1.09235,0 1.97786,0.88552 1.97786,1.97786c0,1.09235 -0.88552,1.97786 -1.97786,1.97786c-1.09235,0 -1.97786,-0.88552 -1.97786,-1.97786z" fill="#000000" stroke="none" stroke-width="0.5" stroke-linecap="butt"/><path d="M282.6266,143.084c0,-1.09235 0.88552,-1.97786 1.97786,-1.97786c1.09235,0 1.97786,0.88552 1.97786,1.97786c0,1.09235 -0.88552,1.97786 -1.97786,1.97786c-1.09235,0 -1.97786,-0.88552 -1.97786,-1.97786z" fill="#000000" stroke="none" stroke-width="0.5" stroke-linecap="butt"/><path d="M260.02246,134.60745c0,-1.09235 0.88552,-1.97786 1.97786,-1.97786c1.09235,0 1.97786,0.88552 1.97786,1.97786c0,1.09235 -0.88552,1.97786 -1.97786,1.97786c-1.09235,0 -1.97786,-0.88552 -1.97786,-1.97786z" fill="#000000" stroke="none" stroke-width="0.5" stroke-linecap="butt"/><path d="M297.60184,158.62435c0,-1.09235 0.88552,-1.97786 1.97786,-1.97786c1.09235,0 1.97786,0.88552 1.97786,1.97786c0,1.09235 -0.88552,1.97786 -1.97786,1.97786c-1.09235,0 -1.97786,-0.88552 -1.97786,-1.97786z" fill="#000000" stroke="none" stroke-width="0.5" stroke-linecap="butt"/><path d="M270.75943,123.58793c0,-1.09235 0.88552,-1.97786 1.97786,-1.97786c1.09235,0 1.97786,0.88552 1.97786,1.97786c0,1.09235 -0.88552,1.97786 -1.97786,1.97786c-1.09235,0 -1.97786,-0.88552 -1.97786,-1.97786z" fill="#000000" stroke="none" stroke-width="0.5" stroke-linecap="butt"/><path d="M243.63446,162.86262c0,-1.09235 0.88552,-1.97786 1.97786,-1.97786c1.09235,0 1.97786,0.88552 1.97786,1.97786c0,1.09235 -0.88552,1.97786 -1.97786,1.97786c-1.09235,0 -1.97786,-0.88552 -1.97786,-1.97786z" fill="#000000" stroke="none" stroke-width="0.5" stroke-linecap="butt"/><path d="M250.13315,172.75194c0,-1.09235 0.88552,-1.97786 1.97786,-1.97786c1.09235,0 1.97786,0.88552 1.97786,1.97786c0,1.09235 -0.88552,1.97786 -1.97786,1.97786c-1.09235,0 -1.97786,-0.88552 -1.97786,-1.97786z" fill="#000000" stroke="none" stroke-width="0.5" stroke-linecap="butt"/><path d="M266.2386,156.36393c0,-1.09235 0.88552,-1.97786 1.97786,-1.97786c1.09235,0 1.97786,0.88552 1.97786,1.97786c0,1.09235 -0.88552,1.97786 -1.97786,1.97786c-1.09235,0 -1.97786,-0.88552 -1.97786,-1.97786z" fill="#000000" stroke="none" stroke-width="0.5" stroke-linecap="butt"/><path d="M282.90915,169.36132c0,-1.09235 0.88552,-1.97786 1.97786,-1.97786c1.09235,0 1.97786,0.88552 1.97786,1.97786c0,1.09235 -0.88552,1.97786 -1.97786,1.97786c-1.09235,0 -1.97786,-0.88552 -1.97786,-1.97786z" fill="#000000" stroke="none" stroke-width="0.5" stroke-linecap="butt"/><path d="M269.06412,171.33918c0,-1.09235 0.88552,-1.97786 1.97786,-1.97786c1.09235,0 1.97786,0.88552 1.97786,1.97786c0,1.09235 -0.88552,1.97786 -1.97786,1.97786c-1.09235,0 -1.97786,-0.88552 -1.97786,-1.97786z" fill="#000000" stroke="none" stroke-width="0.5" stroke-linecap="butt"/><path d="M277.82322,157.77669c0,-1.09235 0.88552,-1.97786 1.97786,-1.97786c1.09235,0 1.97786,0.88552 1.97786,1.97786c0,1.09235 -0.88552,1.97786 -1.97786,1.97786c-1.09235,0 -1.97786,-0.88552 -1.97786,-1.97786z" fill="#000000" stroke="none" stroke-width="0.5" stroke-linecap="butt"/><path d="M306.03229,179.45204l-0.93571,-0.22631c-1.19365,-0.00165 -2.3863,-0.01785 -3.57821,-0.04312c-0.58593,0.57255 -1.45145,0.57255 -1.45145,0.57255l-0.80993,-0.63001c-8.37651,-0.24298 -16.72441,-0.76297 -25.13055,0.34723c-3.59722,0.47508 -6.78208,0.35704 -10.39585,1.06731c-17.72012,0.07376 -35.66188,-0.2551 -53.40343,-0.2551c-15.2801,-0.00914 -30.63969,-0.30643 -45.88468,-0.26636c-0.23474,0.51714 -0.72806,1.06052 -1.76475,1.06052c-1.97786,0 -1.97786,-1.97786 -1.97786,-1.97786c0.01323,-8.67652 2.65437,-20.49173 8.09575,-27.42439c2.38638,-3.04039 5.24497,-5.67865 7.77005,-8.58176c2.52885,-2.90746 4.11154,-5.13721 7.54116,-7.09562c2.60778,-0.87957 5.36143,-2.20314 8.04344,-2.76972c0.78219,-0.16524 1.58773,-0.30053 2.41213,-0.40735c-0.15418,-0.95527 0.60082,-1.71026 0.60082,-1.71026l0.21073,-0.11217c3.95627,-6.89787 7.42626,-13.55411 13.61947,-18.74481c2.71753,-2.70248 4.36998,-5.99777 7.67907,-8.14656c4.90542,-3.18538 9.94859,-3.79544 15.55351,-4.78358c7.93688,-1.39926 15.73746,-1.66843 23.65639,0.31458c3.96469,1.32156 8.32069,1.65934 11.91252,3.94977c12.3881,7.89962 20.35456,19.5228 28.31744,31.47093c6.63442,8.52997 11.54884,20.03581 13.31782,30.74552c0.64174,3.88522 0.10469,7.84592 0.54409,11.75343c0,0 0.21842,1.96577 -1.74735,2.18418c-0.60463,0.06718 -1.04394,-0.07227 -1.36244,-0.29759c-0.45498,0.08201 -0.83218,0.00657 -0.83218,0.00657zM210.32716,176.32888c9.29603,0 18.57361,-0.26958 27.84863,0.4888c0.45466,-8.30094 -1.93656,-13.69275 -5.87153,-21.62975c-1.06016,-3.97311 -2.95406,-5.6936 -5.88911,-8.48634c-1.57116,-1.49498 -3.85572,-4.87804 -6.00799,-5.75291c-7.99191,-3.24863 -18.75993,-5.66921 -27.37546,-3.863c-2.44093,0.51174 -4.923,1.73991 -7.31027,2.52466c-2.95376,1.68956 -4.02279,3.61552 -6.22423,6.14032c-2.47368,2.83706 -5.23141,5.39959 -7.58366,8.36026c-4.30166,5.41429 -6.64353,14.55472 -7.15193,21.95072c15.13933,-0.04861 30.39299,0.27583 45.56554,0.26725zM277.03438,176.61166c10.0699,-1.37854 11.64356,0.36269 20.10805,-0.16814c-1.0995,-6.29146 -2.91918,-13.08007 -6.74077,-18.50833c-6.83313,-5.78098 -15.36912,-11.01901 -24.64622,-7.93206c-3.96116,1.31807 -7.80693,4.15944 -11.47366,6.41465c0.10635,0.13419 0.21745,0.26321 0.33811,0.3815c5.24,5.13673 10.13033,10.67863 11.11234,18.17126c0.24624,0.72711 0.49248,1.45421 0.7387,2.18131l0.0354,0.16859c2.34854,-0.67687 8.1005,-0.37646 10.52805,-0.70878zM305.09659,175.27l0.78454,0.13896c-0.07425,-2.99297 0.14259,-6.01089 -0.35319,-8.95508c-1.70909,-10.14945 -6.3326,-20.99121 -12.62465,-29.08099c-7.73631,-11.60082 -15.32611,-22.71521 -27.27356,-30.47332c-3.17029,-2.05864 -7.32482,-2.28619 -10.85332,-3.46237c-7.32249,-1.82723 -14.54964,-1.50877 -21.87528,-0.21486c-5.08937,0.89892 -9.62651,1.37938 -14.09502,4.21687c-3.05232,1.9382 -4.64028,5.22064 -7.1452,7.73658c-5.74779,4.75991 -8.9815,10.96191 -12.59802,17.33873c7.80382,-0.10042 16.48129,1.84631 22.89124,4.79345c2.96303,1.36233 4.86804,4.32771 7.18785,6.52791c3.29176,3.12203 5.61526,5.47459 6.85751,9.94024c0.28256,0.55927 0.55932,1.12244 0.82936,1.68937c4.2357,-1.94556 9.5257,-3.06424 13.94133,-1.55122c0.08293,-0.05997 0.1366,-0.09063 0.1366,-0.09063c4.32702,-2.47228 8.84615,-5.98728 13.58582,-7.56923c10.80311,-3.60572 20.88724,2.13394 28.82703,9.00995c4.50256,6.23421 6.92407,12.58851 8.11662,19.96782c1.21975,0.02502 2.43983,0.03966 3.66036,0.03782zM261.8686,175.81914c-0.11672,-1.36053 -0.87515,-2.59294 -1.45215,-3.83059c-0.87133,-1.86902 -1.10825,-4.3331 -2.24976,-6.11169c-1.46831,-2.28775 -5.10434,-6.19548 -7.33012,-7.60186c-3.50984,-2.21775 -8.60707,-0.99102 -12.40865,0.79866c2.34454,5.73499 3.8519,11.80344 3.65328,18.05926c6.85359,0.54206 13.707,1.00436 20.56665,1.05594c-0.25976,-0.78991 -0.51951,-1.57981 -0.77927,-2.36973z" fill="#000000" stroke="none" stroke-width="0.5" stroke-linecap="butt"/></g></g></svg>