<svg version="1.1" xmlns="http://www.w3.org/2000/svg" xmlns:xlink="http://www.w3.org/1999/xlink" width="160.90156" height="145.1226" viewBox="0,0,160.90156,145.1226"><g transform="translate(-151.09221,-38.60065)"><g data-paper-data="{&quot;isPaintingLayer&quot;:true}" fill-rule="nonzero" stroke="none" stroke-width="0.5" stroke-linecap="butt" stroke-linejoin="miter" stroke-miterlimit="10" stroke-dasharray="" stroke-dashoffset="0" style="mix-blend-mode: normal"><path d="M276.26484,85.11157c-0.01344,-1.04049 -0.06388,-1.96711 -0.11122,-2.43389c-0.63491,-6.26003 -2.19818,-12.33849 -3.11786,-18.53787c-0.23169,-1.7573 -0.38139,-3.54127 -0.45263,-5.31236l-0.2943,-1.28976c0,0 -0.13182,-0.47622 -0.49365,-0.92613c0.06193,-0.04499 0.12444,-0.09003 0.18705,-0.13418c1.62113,-1.1432 2.34864,-0.48902 4.34826,-1.11064c1.25668,-0.39067 2.42431,-1.05232 3.63079,-1.5779c4.27077,-1.8605 8.41737,-4.14266 12.7425,-5.85801c1.7959,-0.71225 3.47925,-1.69598 5.21254,-2.54936c1.55541,-0.7658 2.40736,-0.4586 2.90801,-1.09471c0.18374,0.64542 0.63397,1.21535 0.88045,1.84696c0.59653,1.52868 0.96537,3.15679 1.20811,4.77968c-0.33842,6.81803 0.52343,14.5992 1.63813,21.35495c0.12349,0.74844 0.30138,1.48814 0.51334,2.2166c-1.79101,-0.09057 -3.59578,-0.13553 -5.21951,0.24864c-4.55598,1.07791 -7.90783,5.55316 -11.86256,7.63116c-3.50078,1.83949 -7.81063,2.02668 -11.71744,2.74684z" data-paper-data="{&quot;noHover&quot;:false,&quot;origItem&quot;:[&quot;Path&quot;,{&quot;applyMatrix&quot;:true,&quot;segments&quot;:[[[604.09529,174.22259],[-7.36445,4.34861],[8.31938,-4.91247]],[[628.82421,156.50509],[-9.72531,2.81673],[3.46606,-1.00387]],[[640.06127,155.42433],[-3.87829,-0.00362],[-0.53593,-1.55072]],[[638.71089,150.69994],[0.34698,1.60338],[-3.13205,-14.47288]],[[632.90664,104.85962],[0,14.7632],[-0.69832,-3.4794]],[[629.79957,94.67675],[1.45238,3.23797],[-0.60009,-1.33785]],[[627.70627,90.78551],[0.46606,1.37441],[-1.01323,1.42767]],[[621.5504,93.46575],[3.27758,-1.82088],[-3.65241,2.02912]],[[610.58444,99.53736],[3.80276,-1.73101],[-9.15834,4.16886]],[[583.77376,113.53445],[9.02538,-4.47655],[-2.54966,1.26462]],[[576.1173,117.31322],[2.67253,-0.97858],[-4.25251,1.55711]],[[566.85355,120.1616],[3.37905,-2.6431],[-0.1305,0.10208]],[[566.46436,120.47046],[0.12896,-0.10382],[0.8298,0.93302]],[567.63124,122.41473],[[568.40728,125.16315],[0,0],[0.34375,3.81789]],[[569.95909,136.55798],[-0.68885,-3.77093],[2.65116,13.292]],[[578.63353,176.18155],[-2.04258,-13.45357],[0.1523,1.00315]],[[579.12938,181.42374],[-0.14059,-2.24603],[8.36148,-1.97442]]],&quot;closed&quot;:true}]}" fill="#fa00ff"/><path d="M306.6391,79.06884c0.27019,0.57607 0.75172,1.09691 0.75194,1.724c0.00075,2.19197 -4.39134,5.2014 -5.16801,7.27749c-0.32702,0.87415 0.1275,1.90823 -0.15963,2.79628c-0.91247,2.82206 -3.2965,5.47777 -4.17925,8.35036c-0.43779,1.42462 -0.37879,2.96959 -0.78566,4.40336c-1.12048,3.94858 -2.60668,7.24478 -2.78052,11.49056c-2.13723,5.35654 -4.5447,10.80257 -7.13302,15.94569c-1.57568,3.13095 -4.12701,5.85938 -5.41735,9.14173c-2.36796,6.02362 -4.51632,12.6657 -5.91545,18.98647c-0.51674,2.33448 -0.35076,4.79416 -0.93706,7.11215c-1.01445,4.01073 -3.0505,7.52082 -4.75439,11.23503c-0.81493,2.31943 -2.43144,1.06429 -4.63344,0.60445c-5.62701,-1.17507 -11.41563,-1.14058 -17.14488,-1.42496c-4.6069,-0.22867 -9.40729,-0.80054 -14.11385,-0.96432c1.3728,-2.76452 2.40096,-5.66366 3.7719,-8.4674c3.63777,-7.43965 7.12295,-15.22709 10.19088,-22.91348c0.92409,-2.31521 1.20826,-4.85759 2.11069,-7.18133c2.23483,-5.75457 6.17682,-10.21858 7.60918,-16.33409c1.73393,-4.8828 5.04665,-9.32626 7.3546,-14.04739c1.88532,-3.85663 2.71897,-8.13786 4.7853,-11.87579c1.30208,-2.35542 4.38585,-3.04765 5.67756,-5.06877c4.71491,-1.16009 9.98006,-1.19057 14.37478,-3.4836c3.58839,-1.87232 6.82021,-6.32377 10.91588,-7.25287c1.68036,-0.38119 3.67229,-0.1837 5.5798,-0.05355z" data-paper-data="{&quot;noHover&quot;:false,&quot;origItem&quot;:[&quot;Path&quot;,{&quot;applyMatrix&quot;:true,&quot;segments&quot;:[[[631.9479,166.0047],[3.58869,-1.00352],[-8.74702,2.44596]],[[609.15807,182.84629],[7.55017,-4.42891],[-9.24672,5.42411]],[[578.51169,191.919],[10.05979,-3.01129],[-2.57339,4.50412]],[[566.8067,203.47628],[2.55995,-5.22731],[-4.0625,8.29545]],[[557.76641,229.63666],[3.6588,-8.53244],[-4.47896,10.44507]],[[543.44613,260.71683],[3.22178,-10.73272],[-2.43822,13.36305]],[[528.76152,296.72448],[4.21023,-12.66945],[-1.70012,5.11602]],[[524.96127,312.44501],[1.7478,-5.09993],[-5.80261,16.9315]],[[505.38779,363.01316],[7.05993,-16.45962],[-2.66063,6.20303]],[[498.14488,381.70461],[2.66885,-6.11854],[10.1837,-0.15083]],[[528.71462,382.26386],[-9.97539,0],[12.40565,0]],[[565.86845,383.49651],[-12.28031,-1.93484],[4.80562,0.75716]],[[575.80265,381.69404],[-1.51157,5.09733],[3.28215,-8.20536]],[[584.85561,356.91785],[-1.76119,8.77192],[1.01788,-5.06971]],[[586.11184,341.45615],[-0.86588,5.09787],[2.34442,-13.80283]],[[596.80365,299.83836],[-4.46896,13.26486],[2.4352,-7.2282]],[[607.49649,279.56942],[-3.06777,6.93177],[5.03934,-11.38662]],[[621.20841,244.42756],[-4.0421,11.79925],[-0.07969,-9.18951]],[[625.99769,219.32891],[-1.99689,8.64907],[0.72508,-3.14053]],[[627.22762,209.73801],[-0.79288,3.1241],[1.59876,-6.29942]],[[635.36376,191.25663],[-1.66837,6.19346],[0.525,-1.94897]],[[635.41143,185.20149],[-0.61264,1.92322],[1.45502,-4.56762]],[[645.79462,168.92847],[0.23662,4.73458],[-0.06769,-1.3545]],[[643.98785,165.28677],[0.64537,1.21534],[-4.1342,-0.07661]]],&quot;closed&quot;:true}]}" fill="#b100b4"/><path d="M223.4023,176.6372c-1.28905,0.28388 -2.57475,0.59976 -3.86477,0.8848c-1.15073,0.25425 -4.61737,0.57495 -5.63804,0.85801c-1.36346,0.37812 -2.77015,0.86657 -4.18078,0.75643c-7.07542,-0.26097 -10.62966,-4.66107 -14.45339,-10.61999c-0.65546,-1.02148 -0.8018,-2.31738 -1.46612,-3.33314c-0.70025,-1.07068 -1.87996,-1.77377 -2.58022,-2.84445c-0.66432,-1.01574 -2.01619,-2.16747 -2.66303,-3.19443c-5.49775,-8.72859 -6.40291,-14.64075 -13.76333,-21.8683c-2.0078,-1.97155 -3.44998,-4.94232 -5.39613,-7.06335c-1.38786,-3.24742 -3.84527,-5.74201 -5.42884,-8.80652c-1.57768,-3.05311 -2.4442,-4.79397 -4.33969,-7.66063c-2.81312,-4.25443 -6.63995,-6.72794 -5.45138,-11.68789c5.79315,1.96892 12.60046,3.87542 18.13588,6.515c1.47454,0.70315 2.81216,0.25294 3.90861,1.46392c2.63634,2.91173 1.62634,5.97786 3.53624,9.41017c4.16565,7.48617 9.33289,14.34524 14.14059,21.46018c2.98237,3.6259 5.97355,7.98107 9.3492,11.20168c2.49611,2.38148 5.32283,4.50974 7.48896,7.24015c4.31779,5.44257 7.0397,12.94012 12.66623,17.28839z" data-paper-data="{&quot;noHover&quot;:false,&quot;origItem&quot;:[&quot;Path&quot;,{&quot;applyMatrix&quot;:true,&quot;segments&quot;:[[[445.42,348.82948],[9.90991,11.29301],[-4.97157,-5.66544]],[[428.46514,333.99718],[5.64693,4.87635],[-7.63668,-6.59458]],[[407.0528,310.87017],[6.83067,7.51216],[-11.14745,-14.85277]],[[374.35117,266.113],[9.8004,15.72348],[-3.19305,-5.12283]],[[366.25674,249.4867],[1.852,5.77356],[-0.34269,-1.06834]],[[365.70297,246.1667],[0.79334,0.79334],[-0.79334,-0.79334]],[[362.38297,245.61294],[1.06867,0.34165],[-1.81294,-0.57959]],[[357.11092,243.41986],[1.75651,0.73306],[-12.23947,-5.10799]],[[318.97028,232.13259],[12.72428,3.63177],[-0.32067,1.7079]],[[318.01184,237.21315],[0.32206,-1.6732],[0,0]],[[318.61015,238.1714],[0,0],[2.1693,2.21744]],[[325.11805,244.82371],[-1.77927,-2.54108],[2.34286,3.34598]],[[330.29366,255.93112],[-2.41905,-3.29132],[2.01898,2.74699]],[[336.92717,263.71551],[-1.82652,-2.87855],[1.61184,2.54022]],[[340.49376,272.00623],[-1.5119,-2.60094],[3.74906,6.44955]],[[353.17236,290.43261],[-3.34593,-6.8656],[4.43106,4.37279]],[[365.59336,305.08796],[-4.54822,-4.04328],[4.97401,4.42181]],[[380.22159,318.67668],[-3.8035,-5.46137],[4.47939,6.43187]],[[390.90428,338.81011],[-4.15767,-6.54136],[2.63416,4.14439]],[[400.12621,350.29877],[-2.81992,-4.0203],[1.50727,2.14888]],[[403.64775,357.34184],[-1.54383,-2.12277],[1.62734,2.2376]],[[409.51698,363.21107],[-1.62734,-2.2376],[1.54383,2.12277]],[[413.03852,370.25415],[-1.52532,-2.13611],[5.79752,8.11908]],[[438.55325,387.67178],[-8.25118,-4.95071],[0,0]],[[441.0594,391.34458],[-0.2885,-2.3422],[1.43135,0.21488]],[[445.37154,391.65463],[-1.4391,0.01833],[3.05877,0.08667]],[[454.31347,389.57757],[-2.90454,0.96293],[2.1743,-0.72084]],[[466.39128,387.12674],[-2.4583,0.67256],[2.75587,-0.75397]],[[474.63925,384.80627],[-2.75389,0.75137],[-12.61948,-8.78897]]],&quot;closed&quot;:true}]}" fill="#8e0090"/><path d="M229.69003,174.84025c-1.18889,-0.49802 -2.35132,-1.06923 -3.3298,-1.80116c-5.30353,-3.9672 -7.93607,-11.48552 -11.97404,-16.54989c-2.30525,-2.89122 -5.26538,-5.19872 -7.93903,-7.70432c-3.20846,-3.00681 -6.06699,-7.19008 -8.88536,-10.61057c-4.70271,-6.95406 -9.68967,-13.63444 -13.78554,-20.93453c-1.26209,-2.24944 -2.12929,-4.60659 -2.99759,-7.0254c-0.15966,-0.44475 -0.25336,-0.93 -0.36238,-1.40482c0.42069,-0.37159 0.62896,-0.79759 0.62896,-0.79759c1.98124,-4.04725 4.63347,-7.92275 6.03409,-12.19428c0.65074,-1.9846 0.76575,-4.11165 1.16391,-6.16169l0.22506,-0.2524c1.00776,1.00119 2.09494,1.96598 3.4732,2.71584l1.04609,1.64286c0.37213,0.85221 0.6101,1.78485 1.17723,2.5189c1.13591,1.47026 3.12082,2.12413 4.27573,3.5796c0.81173,1.02298 1.19352,2.34132 2.01323,3.35796c0.58164,0.72138 1.50417,1.10287 2.13545,1.78142c1.08045,1.16135 1.34889,2.88565 2.27654,4.17181c0.88577,1.22811 2.25809,2.06968 3.0637,3.35158c1.35777,2.16048 1.61634,4.84852 2.84884,7.08249c0.69122,1.25291 1.82753,2.24302 2.36103,3.57046c0.43856,1.09122 -0.01279,2.41533 0.47297,3.48647c1.07192,2.36367 4.15228,5.02475 5.7965,7.08498c0.81478,1.02093 0.97324,3.04212 2.27325,3.1846c4.76136,0.52182 4.89509,-2.80208 5.71242,-5.56531c2.13922,-3.7102 3.74884,-7.62464 5.85595,-11.35311c1.70081,-3.00951 3.89282,-6.0577 4.98263,-9.36443c1.07708,-3.26807 0.93304,-6.72757 2.55109,-9.8418c1.3861,-2.6678 3.74391,-4.66068 5.23561,-7.28568c2.98834,-5.25873 5.17974,-11.22631 8.38289,-16.32268c0.93376,-1.48567 2.12725,-2.94239 2.81927,-4.55442c5.55628,-3.42052 7.22626,-8.91285 11.33903,-13.9721c0.09265,1.50793 -0.03666,4.58547 0.15894,6.08312c0.74755,4.99 1.87791,9.83952 2.52135,14.85336c0.2655,2.06878 0.53209,4.14425 0.66186,6.22589c0.03326,0.5336 0.49154,1.15859 0.18174,1.59473c-0.42422,0.59725 -1.38585,0.52569 -1.98592,0.94686c-1.61627,1.13443 -2.82308,2.59016 -3.79622,4.28874c-2.18007,3.80522 -2.99333,8.20979 -4.92264,12.15262c-2.44612,4.99904 -5.70315,9.57916 -7.61426,14.75162c-1.38939,5.95534 -5.3174,10.35093 -7.51988,15.98245c-0.90098,2.30371 -1.18187,4.82881 -2.10485,7.12384c-3.0474,7.57752 -6.50506,15.2525 -10.09727,22.59526c-1.55092,3.17021 -2.62688,6.50931 -4.35382,9.56876z" data-paper-data="{&quot;noHover&quot;:false,&quot;origItem&quot;:[&quot;Path&quot;,{&quot;applyMatrix&quot;:true,&quot;segments&quot;:[[[496.19112,359.08615],[-3.00352,7.01389],[6.9567,-16.24543]],[[515.49662,309.21694],[-5.75734,16.69412],[1.74374,-5.0562]],[[519.25618,293.61828],[-1.69542,5.07261],[4.14451,-12.40017]],[[533.7308,258.34781],[-2.3574,13.01245],[3.56562,-11.37738]],[[548.56975,225.70965],[-4.73727,11.06015],[3.73637,-8.72332]],[[557.88899,198.95141],[-4.29157,8.45299],[1.91568,-3.77326]],[[565.614,189.28361],[-3.36215,2.62366],[1.24823,-0.97406]],[[569.79264,187.02511],[-0.85043,1.33553],[0.62103,-0.97527]],[[569.23185,183.60211],[0.12879,1.14902],[-0.5024,-4.48239]],[[567.14526,170.23258],[0.79354,4.4401],[-1.92318,-10.76089]],[[560.13646,138.43306],[2.14503,10.69822],[-0.58183,-3.21393]],[[558.71898,128.73595],[0.36099,3.24719],[-1.23058,1.68093]],[[555.30516,133.93787],[1.04992,-1.77394],[0,0]],[[554.73498,134.68367],[0.3741,-0.41901],[0,0]],[[554.01769,136.53924],[0,0],[-5.64249,3.88042]],[[545.46568,149.82913],[4.33163,-5.11918],[-1.25854,1.48735]],[[536.20474,156.7099],[2.13361,-1.46732],[-1.31903,3.55618]],[[530.72575,166.68271],[1.85358,-3.30915],[-6.35845,11.35157]],[[514.41231,202.84413],[5.8781,-11.67923],[-2.93417,5.82992]],[[503.91103,219.14545],[2.70204,-5.91105],[-3.1542,6.9002]],[[499.48814,240.70652],[1.97179,-7.17449],[-1.99511,7.25935]],[[489.75444,261.55069],[3.34375,-6.68286],[-4.14257,8.27939]],[[478.27321,286.76192],[4.21371,-8.24336],[-1.46593,6.05622]],[[466.52585,299.39625],[10.31788,0.61665],[-2.81712,-0.16836]],[[461.27071,292.75818],[1.86529,2.11783],[-3.76417,-4.27379]],[[447.9756,278.04959],[2.56316,4.99059],[-1.16154,-2.26157]],[[446.57023,270.55295],[1.06196,2.31],[-1.29184,-2.81004]],[[441.08801,263.0675],[1.62384,2.63218],[-2.89535,-4.69325]],[[434.18812,248.03161],[3.15748,4.52105],[-1.87344,-2.6825]],[[427.22917,241.10894],[2.04047,2.55775],[-2.13692,-2.67865]],[[421.88062,232.33016],[2.45289,2.39268],[-1.43318,-1.39801]],[[417.0885,228.70916],[1.33078,1.49582],[-1.87547,-2.10805]],[[412.39312,221.66609],[1.85897,2.12262],[-2.64485,-3.01997]],[[402.79586,214.39067],[2.60551,3.05397],[-1.30083,-1.52473]],[[399.99106,209.07286],[0.8932,1.80088],[0,0]],[[397.56165,205.63492],[0,0],[-3.05076,-1.47193]],[[389.7856,200.14081],[2.27911,2.05452],[0,0]],[[389.49502,200.81947],[0,0],[-0.63883,4.47075]],[[387.65203,214.242],[1.19022,-4.35649],[-2.56176,9.37665]],[[375.96017,241.19926],[3.83713,-8.95445],[0,0]],[[374.69015,242.98752],[0.86694,-0.84774],[0.28577,1.01394]],[[375.62178,245.98015],[-0.39169,-0.94355],[2.1302,5.13153]],[[382.83412,260.81777],[-2.9608,-4.72345],[9.60868,15.32903]],[[414.76107,304.49972],[-10.87958,-14.51654],[6.44029,7.08606]],[[435.01716,326.44264],[-7.23679,-6.1507],[6.03048,5.12543]],[[452.92773,342.22388],[-5.27776,-5.99786],[9.24474,10.50609]],[[480.47737,376.68563],[-11.85501,-8.00052],[2.18718,1.47605]],[[487.84112,380.21965],[-2.61569,-0.94824],[3.39472,-6.79355]]],&quot;closed&quot;:true}]}" fill="#d400d8"/><path d="M177.20481,105.52683c-0.95426,-0.34931 -1.97458,-0.61652 -2.87166,-1.04306c-5.70754,-2.71373 -11.94057,-4.28139 -17.90797,-6.31317l0.062,-0.09104c0,0 -0.13397,-0.0998 -0.35593,-0.2088c0.19937,-0.702 0.40706,-1.39727 0.63075,-2.07016c0.55733,-1.67658 2.43516,-2.5724 3.56386,-3.93163c2.0806,-2.50552 2.99676,-6.157 4.5619,-8.96681c0.54438,-0.97732 1.0501,-1.99756 1.40424,-3.05873c0.33833,-1.0138 0.51245,-2.08104 0.67672,-3.1371c0.04176,-0.26845 -0.32593,-0.7773 -0.05662,-0.81316c1.07887,-0.14363 1.8134,1.21847 2.75943,1.75663c3.99188,2.27088 8.15613,3.72577 11.76185,6.625c1.44788,0.36506 2.59879,1.02044 3.60952,1.80723c-0.31108,0.34807 -0.45706,0.68811 -0.45706,0.68811l-0.81368,2.02569c-0.35751,1.84435 -0.40454,3.78487 -0.99848,5.56719c-1.29648,3.89059 -3.70859,7.47521 -5.56887,11.1638z" data-paper-data="{&quot;noHover&quot;:false,&quot;origItem&quot;:[&quot;Path&quot;,{&quot;applyMatrix&quot;:true,&quot;segments&quot;:[[[378.03702,211.494],[-2.38327,8.54265],[1.0918,-3.91349]],[[379.59553,199.40525],[-0.57446,4.02212],[0,0]],[381.1392,194.95524],[[382.05384,193.42331],[-0.63462,0.78518],[-2.26752,-1.59112]],[[374.07376,189.92685],[3.16654,0.63331],[-8.09918,-5.87574]],[[348.05393,176.92214],[8.86592,4.4771],[-2.10111,-1.06101]],[[341.92214,173.42005],[2.31495,-0.4259],[-0.57785,0.10631]],[[342.1326,175.17007],[0.06141,-0.58433],[-0.24159,2.29872]],[[341.01891,182.01421],[0.62209,-2.22609],[-0.65116,2.33008]],[[338.33539,188.75798],[1.07108,-2.16935],[-3.07941,6.23697]],[[329.47799,208.52144],[4.22545,-5.63499],[-2.29229,3.05696]],[[322.19487,217.37315],[1.02408,-3.68115],[-0.41102,1.47745]],[[321.04969,221.90281],[0.35537,-1.53768],[0.49112,0.21163]],[321.83981,222.31377],[[321.71548,222.51678],[0,0],[13.10736,3.74884]],[[360.95707,234.18909],[-12.61921,-5.24973],[1.98343,0.82513]],[[367.25736,236.14002],[-2.09865,-0.65221],[3.62272,-8.16678]]],&quot;closed&quot;:true}]}" fill="#fa00ff"/><path d="M201.4284,143.4237c-1.45751,-1.37959 -2.95875,-2.73361 -4.32914,-4.15283c-1.05185,-1.08934 -0.84722,-2.11848 -1.95686,-3.00484c0,0 -0.86577,-0.766 -0.09977,-1.63177c0.766,-0.86577 1.63177,-0.09977 1.63177,-0.09977c1.12847,1.05978 1.0795,2.16274 2.0958,3.1385c1.29819,1.24639 2.64031,2.59113 4.02969,3.94533c0.16496,0.08726 0.26632,0.18062 0.26632,0.18062l1.25041,1.16798c0.05291,0.08772 0.10617,0.17519 0.15979,0.26241c3.32644,3.14072 6.91669,6.1412 10.81288,7.87651c0.82229,0.36624 1.78214,0.35909 2.59614,0.74342c1.83993,0.71472 3.79617,1.39127 5.41879,2.54507c1.32679,0.94344 2.5103,2.1365 4.11852,2.6468c1.4173,0.44972 3.02979,0.4216 4.46905,0.80443c0.9294,0.24721 4.04808,0.56649 4.46826,1.41954c0.31241,0.63423 -0.44395,1.34355 -0.62151,2.0279c-0.79531,3.06554 -2.80305,5.82242 -3.36209,8.87946c-0.08579,1.69888 -0.02279,5.4203 -2.47806,5.69664c-1.41106,0.15882 -2.403,-1.81878 -3.27274,-2.55026c-1.95705,-1.64595 -4.73246,-2.34155 -6.61204,-4.15823c-2.76429,-2.67181 -2.2157,-5.346 -3.247,-8.49678c-0.40349,-1.23274 -2.60294,-2.33085 -3.51529,-3.13887c-3.71589,-4.12074 -7.77459,-8.14953 -10.65579,-12.97685c-0.30207,-0.29758 -0.60825,-0.59288 -0.91686,-0.88681l-0.17878,-0.16184c0,0 -0.02907,-0.02676 -0.0715,-0.07577z" fill="#b100b4"/><path d="M159.69318,90.82812c-0.01302,-0.02907 -0.02599,-0.05827 -0.03892,-0.08761c0,0 -0.46509,-1.05831 0.59322,-1.52339c1.0583,-0.46509 1.52338,0.59322 1.52338,0.59322c1.99385,4.54972 5.34844,5.34666 9.09877,8.12157c0.91009,0.67338 1.19806,1.28397 2.16159,1.81887c1.60497,0.89099 3.81751,0.70873 4.94417,2.24122c3.08392,4.19475 -2.09073,3.85872 -4.63073,3.10123c-1.82726,-0.62445 -3.56976,-1.88514 -5.47586,-2.22181c-3.44942,-0.60925 -8.27414,-1.13835 -11.16577,-3.27384c-3.74692,-2.76714 -1.36637,-6.86509 2.18817,-7.93565l-0.26191,-0.22488c0,0 0.37782,-0.67033 1.06386,-0.60895z" fill="#d400d8"/><path d="M286.46568,55.01824c-0.13901,-0.13853 -0.25299,-0.33782 -0.30943,-0.62304c-0.22443,-1.134 0.90957,-1.35842 0.90957,-1.35842c1.53068,-0.30206 3.70709,-0.19581 5.13942,-0.83895c1.66678,-0.7484 2.68173,-2.57961 4.09318,-3.39943c0.71486,-0.41521 1.64282,-1.07219 2.37989,-0.69783c0.87692,0.44539 1.0279,1.6896 1.38053,2.60776c0.6729,1.75213 0.11891,4.99438 -0.09376,6.86457c-0.06994,0.61499 0.11555,1.3716 -0.29708,1.83294c-0.16981,0.18986 -2.92448,1.18981 -3.50517,1.40517c-1.17787,0.5128 -5.7084,2.39617 -6.98342,1.52306c-0.52604,-0.36022 -0.17946,-1.26665 -0.35642,-1.87915c-0.45384,-1.57087 -1.07504,-3.27502 -1.82229,-4.73394l0.07791,0.26677c0,0 -0.60905,-0.34327 -0.6129,-0.96954z" fill="#ffffff"/><path d="M181.66716,147.52027c0.28582,-0.38582 0.61318,-0.49266 0.89826,-0.48572c-0.322,-0.33786 -0.64965,-0.65473 -0.98345,-0.94379c0,0 -0.86577,-0.766 -0.09977,-1.63176c0.766,-0.86577 1.63176,-0.09977 1.63176,-0.09977c2.31941,2.08633 4.38978,5.27119 6.30122,7.78689c3.86347,5.08486 9.0239,9.56359 13.63197,14.01627c2.73834,2.42837 6.53949,8.95705 10.72148,9.91307c0.15014,-0.02956 0.29886,-0.05857 0.44564,-0.08696c0.48603,-0.094 0.97701,-0.0661 1.46575,0.03401l0.00958,-0.19298l1.58069,0.07846c0.63765,0.03165 1.12891,0.57422 1.09725,1.21187c-0.02876,0.57952 -0.47954,1.03811 -1.04016,1.09316l-1.13068,0.13124c-0.62861,0.13384 -1.2359,0.1756 -1.82385,0.13859c-1.08447,0.3251 -2.44246,0.32741 -3.48248,0.56873c-2.94495,0.6833 -3.11921,0.09829 -5.54989,-1.36257c-2.87961,-1.73068 -5.55152,-3.5347 -8.30919,-5.39915c-2.30927,-1.56129 -3.71651,-4.12479 -5.76907,-5.91865c-1.59003,-1.51665 -1.51945,-2.57361 -2.44039,-4.42304c-0.49772,-0.99953 -1.50712,-1.71659 -1.89064,-2.76526c-0.34333,-0.93879 -0.05097,-2.04433 -0.43547,-2.96703c-0.97116,-2.33048 -2.7166,-4.85463 -4.25022,-6.88778l-0.33761,-0.19083c0,0 -0.92887,-0.68813 -0.24075,-1.617z" fill="#640066"/><path d="M270.67724,176.74524c-0.12513,1.06375 -0.73773,2.12542 -1.56407,2.80688l-0.9314,0.20739c0,0 -0.03339,-0.00166 -0.08854,-0.01009c-1.76234,0.74704 -5.8,-0.47779 -7.30472,-0.99409c-4.80525,-1.64878 -11.08473,-0.50721 -16.08999,-0.75566c-2.43689,-0.12095 -4.87395,-0.23857 -7.31067,-0.36288c-0.79451,-0.04053 -2.69859,-0.02137 -3.29511,-0.63911c-1.15742,-1.19862 -0.6581,-3.04962 -0.10604,-4.29484c0.71452,-1.61162 2.13807,-2.79671 2.75699,-4.49824c0.72864,-2.0031 0.45352,-4.35501 1.1095,-6.29872c0.33101,-0.98081 1.16896,-1.73355 1.5235,-2.7061c0.60813,-1.66823 0.53834,-2.9335 1.71343,-4.32524c0.70831,-1.44967 1.36448,-2.28744 2.67658,-3.22358l0.73262,-1.01192c0,0 0.36682,-0.49515 0.92634,-0.4946c0.20316,-0.12788 0.47938,-0.19603 0.85144,-0.11488c1.12944,0.24634 0.88309,1.37577 0.88309,1.37577c-0.66032,2.56899 1.50264,5.08005 2.76768,7.132c2.40559,3.90197 5.22091,6.64665 8.64606,9.56043c2.59852,2.21057 4.71116,4.51929 7.94154,5.77724c0.60423,0.30488 1.20846,0.60976 1.8127,0.91464l0.01907,0.01962l0.00394,-0.007l1.13427,0.6393c0.05229,0.02804 0.10211,0.05996 0.14911,0.09538c1.09811,0.09045 1.04263,1.20828 1.04263,1.20828z" fill="#8e0090"/><path d="M311.46587,78.00015c0.35758,1.06131 0.58552,2.09716 0.51516,3.05852c-0.29924,4.08871 -4.28377,5.12085 -5.39703,8.50175c-0.27398,0.83206 0.16622,1.79391 -0.10827,2.6258c-0.95964,2.90851 -3.38727,5.67268 -4.26952,8.62222c-0.40893,1.36716 -0.33762,2.84597 -0.72689,4.21885c-1.09626,3.86631 -2.44243,6.92431 -2.67989,11.07205c-2.19361,5.73564 -4.76641,11.57834 -7.54095,17.05009c-1.53035,3.01805 -4.04892,5.66281 -5.27005,8.83188c-2.21636,5.75186 -4.26148,12.02071 -5.60433,18.03844c-0.54056,2.42244 -0.38952,4.97222 -0.99477,7.37931c-1.09396,4.35075 -3.26192,8.16142 -5.10894,12.18767c-0.64695,0.98959 -0.93759,2.34323 -1.94086,2.96878c-3.77742,2.35527 -10.30511,-0.58351 -14.40896,-0.78344c-8.22002,-0.40046 -16.81349,-1.56775 -25.11829,-1.51914c-0.84413,0.38631 -1.7618,0.06905 -1.86207,0.03225c-0.50918,0.01492 -1.01707,0.03503 -1.52352,0.0608c-6.75484,0.3436 -13.33178,3.57061 -19.95943,3.36814c-2.26569,-0.13446 -4.51238,-0.72799 -6.63376,-1.53497l0.18221,0.12783c0,0 -5.42533,-4.80616 -8.72468,-8.06398c-1.87719,-1.85357 -2.93768,-4.38284 -4.38166,-6.59066c-3.0918,-4.72734 -5.38603,-7.02545 -8.18098,-11.93416c-1.73836,-3.05303 -2.52259,-6.37527 -4.37113,-9.37317c-3.68953,-5.98355 -7.11388,-8.35636 -11.801,-13.5953c-1.50239,-3.33955 -3.96852,-5.9507 -5.63249,-9.13918c-1.53695,-2.94511 -2.39141,-4.61589 -4.19673,-7.40456c-1.90831,-2.94773 -2.08857,-5.22521 -4.48164,-7.79502c0,0 -0.79057,-9.01091 1.22014,-14.22234c1.76296,-4.56935 4.51348,-6.23784 6.55889,-10.68793c0.46983,-1.02218 1.29798,-1.84201 1.85564,-2.81904c1.37959,-2.41708 1.18018,-7.77511 4.22033,-8.99307c1.39268,-0.55794 3.01177,0.23769 4.45303,0.65439c0.22207,0.06421 4.0281,2.27223 4.42197,2.47114c3.37444,1.70424 6.61947,2.85997 9.51251,5.36166c6.67315,1.68256 13.39529,11.1713 13.39529,11.1713c0,0 0.04407,0.06526 0.10389,0.17983c0.06497,0.11172 0.09665,0.18381 0.09665,0.18381c1.08943,2.71618 2.96806,2.87811 4.79169,5.11676c7.92588,9.72965 10.91289,16.39597 15.83355,27.94035c0.6835,1.60358 2.21717,2.69085 3.29627,4.05986c0.25237,0.32016 1.21947,0.97573 1.7986,1.74285c0.06942,-0.29237 0.14208,-0.58435 0.19815,-0.87831c2.17415,-3.92413 3.94448,-8.02636 6.14598,-11.93478c1.53841,-2.73121 3.64067,-5.59028 4.6156,-8.59805c1.14892,-3.54453 1.07135,-7.1201 2.82258,-10.52895c1.41132,-2.74719 3.78716,-4.72553 5.28802,-7.40716c2.99422,-5.34984 5.27265,-11.33405 8.48458,-16.53124c1.03657,-1.67726 2.28816,-3.23378 3.14652,-5.00884c3.31693,-2.36613 4.28865,-4.68877 6.90898,-7.80879c0.82447,-0.98169 1.50953,-1.31931 2.39079,-2.25035c1.81306,-2.62362 4.00372,-5.23684 6.70424,-7.00663c1.6224,-1.06325 3.72095,-1.09807 5.57595,-1.66522c4.25856,-1.30203 8.45045,-3.85735 12.44396,-5.75511c1.96024,-0.93152 4.1093,-1.43211 6.05493,-2.39376c1.66991,-0.82538 3.27919,-1.7888 5.01356,-2.46839c1.32322,-0.51849 2.55736,-2.06524 3.92264,-1.67056c1.37173,0.39655 1.72113,2.28594 2.45112,3.51314c1.54582,2.59864 2.09192,5.61258 2.52642,8.5408c-0.32946,6.63734 0.49944,14.09815 1.55553,20.67505c0.11922,0.74253 0.3769,1.53273 0.6925,2.34722zM301.03501,79.16174c-4.09567,0.9291 -7.32262,5.38316 -10.91101,7.25547c-4.39472,2.29304 -9.64637,2.32741 -14.36128,3.4875c-1.29171,2.02113 -4.36852,2.71371 -5.67061,5.06914c-2.06633,3.73793 -2.8894,8.01769 -4.77474,11.87432c-2.30793,4.72114 -5.59201,9.14257 -7.32595,14.02538c-1.43236,6.11552 -5.37234,10.53809 -7.60716,16.29267c-0.90244,2.32374 -1.19134,4.85782 -2.11543,7.17304c-3.06792,7.6864 -6.56098,15.46536 -10.19874,22.90502c-1.37095,2.80374 -2.40063,5.70164 -3.77343,8.46617c4.70656,0.16379 9.4982,0.73037 14.10509,0.95904c5.72926,0.28438 11.50334,0.24589 17.13036,1.42096c2.20201,0.45983 3.81426,1.71473 4.62919,-0.60471c1.70388,-3.71422 3.73439,-7.22404 4.74885,-11.23477c0.5863,-2.31799 0.41786,-4.77734 0.9346,-7.11182c1.39912,-6.32076 3.52382,-12.95148 5.89177,-18.9751c1.29033,-3.28235 3.8272,-5.98467 5.40287,-9.11562c2.58832,-5.14313 5.00087,-10.55857 7.13809,-15.91512c0.17385,-4.24579 1.66668,-7.53284 2.78716,-11.48142c0.40685,-1.43377 0.35008,-2.97652 0.78787,-4.40114c0.88275,-2.87259 3.26866,-5.52662 4.18114,-8.34868c0.28714,-0.88806 -0.1662,-1.92118 0.16082,-2.79533c0.77668,-2.0761 5.16901,-5.08532 5.16827,-7.27729c-0.0002,-0.62709 -0.48074,-1.14718 -0.75094,-1.72325c-1.90753,-0.13015 -3.89647,-0.32562 -5.57682,0.05557zM287.98357,82.31851c3.95472,-2.078 7.27063,-6.53764 11.82661,-7.61554c1.62373,-0.38417 3.42334,-0.33211 5.21434,-0.24154c-0.21196,-0.72845 -0.39185,-1.46437 -0.51534,-2.2128c-1.1147,-6.75576 -1.96816,-14.48529 -1.62974,-21.30332c-0.24274,-1.62289 -0.60499,-3.24527 -1.20151,-4.77395c-0.24648,-0.63161 -0.69381,-1.19964 -0.87754,-1.84507c-0.50067,0.63612 -1.34897,0.3309 -2.90439,1.09669c-1.7333,0.85338 -3.40766,1.8404 -5.20355,2.55266c-4.32513,1.71535 -8.43197,3.98914 -12.70274,5.84964c-1.20649,0.52559 -2.3659,1.17896 -3.62258,1.56962c-1.99962,0.62163 -2.72242,-0.04009 -4.34353,1.1031c-0.06261,0.04415 -0.12487,0.08872 -0.18682,0.13372c0.36183,0.44992 0.49433,0.92467 0.49433,0.92467l0.2954,1.28709c0.07124,1.77108 0.22377,3.5407 0.45546,5.298c0.91968,6.19937 2.46286,12.23802 3.09778,18.49806c0.04734,0.46678 0.09538,1.39185 0.10883,2.43235c3.90681,-0.72016 8.19421,-0.9139 11.695,-2.75339zM233.91288,165.21986c3.58519,-7.34309 7.01738,-15.01056 10.05896,-22.58836c0.92121,-2.29512 1.19457,-4.81388 2.09384,-7.11769c2.19829,-5.63172 6.10628,-10.00158 7.49328,-15.95703c1.90751,-5.17264 5.15987,-9.73373 7.60119,-14.733c1.92551,-3.94301 2.74153,-8.33859 4.91726,-12.14404c0.97121,-1.69868 2.17636,-3.15315 3.78922,-4.28776c0.5988,-0.42123 1.55822,-0.34995 1.98158,-0.94724c0.30917,-0.43617 -0.14738,-1.06009 -0.18052,-1.59369c-0.12927,-2.08161 -0.39247,-4.15348 -0.65717,-6.22223c-0.6415,-5.01375 -1.7625,-9.85663 -2.5079,-14.84652c-0.19503,-1.49762 -0.34006,-3.00296 -0.43234,-4.51088c-0.60685,0.74808 -1.17029,1.52895 -1.69583,2.32413c0,0 -0.09805,0.14643 -0.28042,0.33136l-0.37379,0.84051c-2.6948,1.66274 -2.13638,3.6767 -4.25419,5.94158c-0.61532,0.65804 -3.41568,2.33669 -4.43467,2.96543c-0.69068,1.6121 -1.82707,2.99435 -2.75895,4.48011c-3.19671,5.0967 -5.38053,11.06731 -8.36292,16.32634c-1.48872,2.62515 -3.84008,4.61972 -5.22344,7.28766c-1.61487,3.11439 -1.46177,6.58792 -2.53686,9.85609c-1.08781,3.30683 -3.27567,6.39358 -4.97309,9.40325c-2.10294,3.72868 -3.7453,7.66962 -5.88026,11.38003c-0.81584,2.76332 -0.96393,6.08688 -5.71486,5.56558c-1.29716,-0.14233 -1.4619,-2.16528 -2.2748,-3.1861c-1.64042,-2.06004 -4.73354,-4.73405 -5.80287,-7.09758c-0.48459,-1.07108 -0.0397,-2.4032 -0.47719,-3.49436c-0.53219,-1.32736 -1.67065,-2.32982 -2.36024,-3.58265c-1.22957,-2.23383 -1.4873,-4.94182 -2.84187,-7.10214c-0.80372,-1.2818 -2.17143,-2.12858 -3.05514,-3.3566c-0.92548,-1.28606 -1.1909,-3.01565 -2.26886,-4.17688c-0.62984,-0.67849 -1.54982,-1.06081 -2.13012,-1.78213c-0.81782,-1.01654 -1.19714,-2.33741 -2.007,-3.36031c-1.15224,-1.45533 -3.13221,-2.10985 -4.26549,-3.57998c-0.56581,-0.73399 -0.80221,-1.66803 -1.17343,-2.5202l-1.04316,-1.64343c-1.37518,-0.74971 -2.45978,-1.71451 -3.46523,-2.71558l-0.14975,0.30676c-0.39751,2.05007 -0.50928,4.17198 -1.15883,6.15662c-1.39803,4.27167 -4.04021,8.13412 -6.01756,12.18155c0,0 -0.20772,0.42512 -0.62753,0.79675c0.10874,0.47481 0.20239,0.95869 0.36165,1.40343c0.86615,2.4187 1.73162,4.76845 2.99072,7.01773c4.08615,7.29961 9.05167,13.95183 13.74338,20.90536c2.81186,3.42016 5.65064,7.59171 8.85178,10.59816c2.66755,2.50529 5.60991,4.80781 7.90982,7.69877c4.02863,5.06391 6.64162,12.58027 11.93317,16.54687c0.97626,0.73181 2.13351,1.30302 3.31976,1.80091c1.7235,-3.05962 2.79281,-6.39825 4.3407,-9.5686zM182.7295,94.34942c0.59393,-1.78232 0.63938,-3.70283 0.99688,-5.54719l0.81492,-2.01974c0,0 0.14644,-0.33845 0.45752,-0.68653c-1.01073,-0.7868 -2.15739,-1.43262 -3.60526,-1.79769c-3.60572,-2.89923 -7.72664,-4.33149 -11.71854,-6.60237c-0.94603,-0.53817 -1.67268,-1.90155 -2.75154,-1.75792c-0.26931,0.03585 0.09884,0.54458 0.05708,0.81303c-0.16426,1.05607 -0.3329,2.12147 -0.67123,3.13528c-0.35414,1.06117 -0.84953,2.07563 -1.39391,3.05294c-1.56512,2.80981 -2.46303,6.41873 -4.54362,8.92425c-1.12872,1.35924 -3.00912,2.24442 -3.56645,3.921c-0.22369,0.6729 -0.43334,1.36367 -0.63271,2.06567c0.22196,0.109 0.35548,0.2079 0.35548,0.2079l-0.06207,0.09091c5.96739,2.03178 12.14769,3.57639 17.85523,6.29013c0.89708,0.42654 1.91065,0.6961 2.86493,1.04541c1.86028,-3.68859 4.24681,-7.24448 5.5433,-11.13508zM210.70055,159.31921c-2.16613,-2.73041 -4.99407,-4.85714 -7.4902,-7.23861c-3.37565,-3.22061 -6.37626,-7.54562 -9.35863,-11.17151c-4.80771,-7.11495 -9.91083,-13.9335 -14.07649,-21.41967c-1.3572,-2.43906 -2.63414,-5.15518 -3.3571,-7.86402c-0.13378,-0.50125 0.16856,-1.16139 -0.17963,-1.54596c-0.3482,-0.38457 -1.03486,-0.14956 -1.52057,-0.33184c-0.82398,-0.30922 -1.5901,-0.75486 -2.3845,-1.13367c-5.53541,-2.63958 -11.56245,-4.11814 -17.35562,-6.08708c-0.18725,0.7814 -0.37201,1.55902 -0.5591,2.32437l0.25434,0.45625c0.95101,1.0738 2.08956,2.00707 2.85302,3.2214c1.00529,1.59897 1.09388,3.67286 2.13562,5.24833c0.86945,1.31492 2.10753,2.37584 2.88509,3.7471c0.68616,1.21009 0.81848,2.67479 1.4571,3.91063c1.58357,3.06451 4.04507,5.55301 5.43292,8.80042c1.94614,2.12105 3.39259,5.08141 5.40039,7.05296c2.19577,2.15613 4.81284,4.00156 6.4442,6.61095c1.92126,3.0731 2.70185,6.42675 4.47203,9.54304c1.12152,1.97437 2.78541,3.59584 3.99556,5.51717c0.64684,1.02696 0.80056,2.31766 1.46489,3.33341c0.70025,1.07068 1.87577,1.77442 2.57603,2.84512c0.66432,1.01574 0.80942,2.31193 1.46489,3.33341c2.49133,3.88251 7.68698,6.15329 11.3841,8.62881c0,0 0.99366,0.66534 1.07321,1.75364c0.65611,0.13205 1.31931,0.21751 1.98435,0.24204c1.41063,0.11015 2.81378,-0.37614 4.17724,-0.75426c1.02067,-0.28306 4.48331,-0.60074 5.63403,-0.85499c1.29002,-0.28502 2.57328,-0.59871 3.86233,-0.88259c-5.62653,-4.34826 -8.35173,-11.84226 -12.66951,-17.28483z" fill="#0021ff"/></g></g></svg>