<svg version="1.1" xmlns="http://www.w3.org/2000/svg" xmlns:xlink="http://www.w3.org/1999/xlink" width="146.78137" height="126.89508" viewBox="0,0,146.78137,126.89508"><g transform="translate(-165.77087,-59.86475)"><g data-paper-data="{&quot;isPaintingLayer&quot;:true}" fill-rule="nonzero" stroke="none" stroke-width="0.5" stroke-linecap="butt" stroke-linejoin="miter" stroke-miterlimit="10" stroke-dasharray="" stroke-dashoffset="0" style="mix-blend-mode: normal"><g><path d="M242.57758,113.56239c-9.03947,0 -18.10694,0.29418 -27.15256,0.34275c1.38967,4.16671 4.05055,8.66712 8.44369,13.8009c4.74172,8.26382 9.49708,17.63548 12.50744,27.33094c2.49057,-7.90787 5.78933,-15.75446 7.52359,-20.58406c2.66604,-7.10976 4.23967,-14.00171 4.99245,-20.80582c-2.12097,-0.05337 -4.22718,-0.08481 -6.31452,-0.08481zM242.57758,107.51028c2.23819,0 4.49832,0.03657 6.77501,0.09772c0.53324,-12.46611 -1.44861,-24.76496 -4.24533,-37.71044c-3.96849,0.49564 -7.6967,1.00363 -10.92532,1.2813c-2.06485,0.27454 -4.45401,0.2764 -7.00713,0.16916c-5.59364,15.47045 -13.62091,25.23294 -12.93737,36.53598c9.44395,-0.03238 18.9141,-0.3737 28.34023,-0.3737zM302.91069,107.89439l1.51431,-0.00275c-7.48429,-11.60345 -11.74958,-27.57668 -23.16247,-34.9862c-7.72576,-5.01573 -19.3024,-4.81205 -30.11668,-3.7055c2.80729,13.15556 4.72586,25.83322 4.20455,38.6166c15.86768,0.65526 32.30282,1.98504 47.56032,0.07784zM249.57704,136.54968c-3.58704,9.75753 -6.44864,17.38614 -7.38361,27.88725c-0.1997,2.24295 -1.87958,4.3221 -2.75827,6.24607c0.00992,0.14884 0.01922,0.29766 0.02783,0.44646c0.08841,0.39739 0.08849,0.68453 0.08849,0.68453l-0.0521,0.01951c0.03373,0.75089 0.05144,1.50096 0.0521,2.25l-0.35509,-0.13313c0.06288,0.12461 0.13679,0.2484 0.22253,0.37141c2.96178,-5.15944 7.54913,-14.04254 10.01474,-15.83316c16.91672,-12.28548 37.9174,-25.66427 51.88739,-44.32633c-14.95931,1.5974 -30.95717,0.3062 -46.40278,-0.31423c-0.77109,7.46215 -2.44978,14.99108 -5.34131,22.7015zM218.92156,131.19237c-5.51449,-6.42278 -8.55145,-12.04421 -9.87098,-17.30071c-9.97949,-0.10686 -19.9181,-0.6685 -29.74872,-2.41281c19.25543,19.39914 35.31432,42.61531 54.04528,62.91465c-0.24889,-1.57121 -0.2675,-3.34574 -0.10785,-5.25888c-1.37705,-13.28395 -7.99276,-26.80977 -14.31774,-37.94224zM220.86725,70.96844c-6.89244,-0.4504 -14.02175,-0.76642 -18.75654,1.73747c-6.77508,3.58294 -19.37708,20.55656 -25.79195,32.02356c10.52014,2.2591 21.19665,2.98228 31.92617,3.12734c-0.20814,-11.56054 7.06106,-22.09895 12.62233,-36.8884zM167.94148,113.88289c-3.37422,-1.91015 -1.80727,-6.00522 -1.80727,-6.00522c4.70913,-11.83332 22.70187,-38.13321 32.9509,-43.48408c9.33923,-4.87588 24.27652,-0.88571 34.41296,-2.25541c13.35752,-1.15263 29.35345,-3.80322 42.65412,-1.09496c17.77455,3.61925 29.63148,29.67161 36.40005,47.43678c-3.62426,11.20376 -9.37165,13.27853 -16.54298,20.5129c-14.49088,14.61823 -26.56157,25.6525 -42.63928,37.23358c-9.65243,6.95286 -5.57154,18.86283 -18.71035,20.53336c-23.95893,-19.94155 -40.47118,-49.43572 -63.06893,-71.16601l-2.38485,-0.79167c0,0 -0.63186,-0.27713 -1.26432,-0.91931z" fill="#fff101"/><path d="M214.03179,108.10602c-0.68354,-11.30308 7.47187,-21.58015 13.0655,-37.0506c2.55311,0.10723 5.05975,0.09801 7.12465,-0.17655c3.22859,-0.2777 7.09025,-0.73367 11.05879,-1.22932c2.79672,12.94553 4.81201,25.71317 4.27878,38.17928c-2.27668,-0.06116 -4.59231,-0.05657 -6.83046,-0.05657c-9.42613,0 -19.25317,0.30136 -28.69717,0.33374z" data-paper-data="{&quot;noHover&quot;:false,&quot;origItem&quot;:[&quot;Path&quot;,{&quot;applyMatrix&quot;:true,&quot;segments&quot;:[[[728.42112,606.00227],[-3.11498,0],[0.73964,0]],[[730.66,606.03456],[-0.75236,-0.02021],[0.17621,-4.11959]],[[729.25707,593.57265],[0.92422,4.27801],[-1.31144,0.16379]],[[725.64666,593.99607],[1.06693,-0.09176],[-0.68236,0.09073]],[[723.33106,594.05197],[0.84371,0.03543],[-1.84849,5.11241]],[[719.05574,606.12576],[-0.22589,-3.73525],[3.12088,-0.0107]]],&quot;closed&quot;:true}]}" fill="#cc4b00"/><path d="M255.11998,108.01269c0.52139,-12.78333 -1.4109,-25.83602 -4.21824,-38.99157c10.81428,-1.10656 22.70003,-1.42697 30.42582,3.58876c11.41289,7.40952 15.85878,23.85503 23.34307,35.45848l-1.5194,0.00959c-15.2575,1.9072 -32.16357,0.58996 -48.03129,-0.06529z" data-paper-data="{&quot;noHover&quot;:false,&quot;origItem&quot;:[&quot;Path&quot;,{&quot;applyMatrix&quot;:true,&quot;segments&quot;:[[[748.35898,606.1292],[-5.04204,0.63026],[0,0]],[[748.8594,606.12829],[0,0],[-2.47329,-3.83451]],[[741.20507,594.56666],[3.77153,2.44856],[-2.55308,-1.65751]],[[731.25262,593.34214],[3.57372,-0.36568],[0.92771,4.34742]],[[732.64206,606.10348],[0.17229,-4.22441],[5.24368,0.21654]]],&quot;closed&quot;:true}]}" fill="#cc4b00"/><path d="M208.38433,108.12549c-10.72952,-0.14506 -21.79391,-0.96423 -32.31405,-3.22334c6.41483,-11.46704 19.3283,-28.90929 26.10339,-32.49223c4.73475,-2.50389 12.03507,-2.08391 18.92746,-1.63348c-5.56126,14.78945 -12.92495,25.78855 -12.71681,37.349z" data-paper-data="{&quot;noHover&quot;:false,&quot;origItem&quot;:[&quot;Path&quot;,{&quot;applyMatrix&quot;:true,&quot;segments&quot;:[[[721.24666,593.92656],[-1.83778,4.88737],[-2.27769,-0.14884]],[[715.04833,594.50073],[1.56466,-0.82744],[-2.23892,1.18402]],[[706.52505,605.08333],[2.11987,-3.78943],[3.47652,0.74654]],[[717.07546,606.1168],[-3.54571,-0.04794],[-0.06878,-3.82032]]],&quot;closed&quot;:true}]}" fill="#ff6a00"/><path d="M254.7814,113.5783c15.44561,0.62042 31.79832,1.97156 46.75762,0.37415c-13.96998,18.6621 -34.93976,32.07869 -51.85648,44.36417c-2.4656,1.79063 -7.08575,10.63392 -10.04753,15.79341c-0.08575,-0.12301 -0.59386,0.17478 -0.65673,0.05017l0.35673,0.1349c-0.00074,-0.74904 -0.0266,-1.50788 -0.06033,-2.25877l0.05223,-0.01943c0,0 -0.00279,-0.29029 -0.0912,-0.68768c-0.00865,-0.14884 -0.01968,-0.29963 -0.0296,-0.44847c0.87869,-1.92392 2.5427,-4.02321 2.7424,-6.26616c0.93493,-10.50108 3.75722,-18.41092 7.34426,-28.16844c2.89153,-7.71047 4.71761,-15.40565 5.48871,-22.86775z" data-paper-data="{&quot;noHover&quot;:false,&quot;origItem&quot;:[&quot;Path&quot;,{&quot;applyMatrix&quot;:true,&quot;segments&quot;:[[[730.73419,615.59871],[0.95554,-2.54801],[-1.18538,3.2245]],[[728.29418,624.81441],[0.30897,-3.47023],[-0.06599,0.74121]],[[727.38268,626.8785],[0.29037,-0.63579],[0.00327,0.04919]],[[727.39188,627.02605],[-0.00286,-0.04918],[0.02923,0.13132]],[727.42112,627.25227],[[727.40389,627.25873],[0,0],[0.01115,0.24813]],[[727.42112,628.00227],[-0.00024,-0.24753],[0,0]],[[727.30378,627.95827],[0,0],[0.02078,0.04117]],[[727.37732,628.08101],[-0.02834,-0.04066],[0.97876,-1.70501]],[[730.68682,622.84875],[-0.8148,0.59173],[5.59034,-4.0599]],[[747.83367,608.20055],[-4.61656,6.16713],[-4.94349,0.52788]],[[732.49929,608.09671],[5.1042,0.20502],[-0.25481,2.46597]]],&quot;closed&quot;:true}]}" fill="#6f2900"/><path d="M249.08267,113.41208c-0.75273,6.8041 -2.21434,13.93514 -4.88038,21.04487c-1.73423,4.82959 -5.27532,12.96877 -7.76589,20.87665c-3.01036,-9.69546 -8.06281,-19.55206 -12.80453,-27.81589c-4.39314,-5.13378 -7.00917,-9.67973 -8.39881,-13.84645c9.04562,-0.04853 18.44088,-0.3792 27.48039,-0.3792c2.08736,0 4.24832,0.06669 6.36925,0.12002z" data-paper-data="{&quot;noHover&quot;:false,&quot;origItem&quot;:[&quot;Path&quot;,{&quot;applyMatrix&quot;:true,&quot;segments&quot;:[[[728.42112,608.00227],[0.6898,0],[-2.98721,0]],[[719.4482,608.11554],[2.98925,-0.01605],[0.45923,1.37695]],[[722.23853,612.67622],[-1.45176,-1.69652],[1.56696,2.73089]],[[726.37177,621.70809],[-0.99481,-3.204],[0.82304,-2.61326]],[[728.85804,614.90583],[-0.5731,1.59599],[0.88103,-2.34951]],[[730.50785,608.03029],[-0.24875,2.24851],[-0.70089,-0.01763]]],&quot;closed&quot;:true}]}" fill="#973700"/><path d="M233.45613,169.34571c-0.15966,1.91319 -0.16064,3.70611 0.08821,5.27732c-18.73097,-20.29935 -35.18422,-43.97455 -54.43964,-63.37369c9.83061,1.74435 19.99471,2.23422 29.9742,2.34108c1.31954,5.25646 4.5496,10.97286 10.06408,17.39565c6.32498,11.13248 12.9361,25.07574 14.31319,38.35968z" data-paper-data="{&quot;noHover&quot;:false,&quot;origItem&quot;:[&quot;Path&quot;,{&quot;applyMatrix&quot;:true,&quot;segments&quot;:[[[720.6037,613.82832],[2.09018,3.67887],[-1.82233,-2.12248]],[[717.34171,608.11108],[0.43605,1.73707],[-3.29784,-0.03532]],[[707.51086,607.31373],[3.24866,0.57644],[6.36321,6.41069]],[[725.37082,628.10468],[-6.18989,-6.70818],[-0.08224,-0.51923]],[[725.33518,626.36682],[-0.05276,0.63223],[-0.45507,-4.38984]]],&quot;closed&quot;:true}]}" fill="#973700"/></g></g></g></svg>