<svg version="1.1" xmlns="http://www.w3.org/2000/svg" xmlns:xlink="http://www.w3.org/1999/xlink" width="176.56866" height="121.7606" viewBox="0,0,176.56866,121.7606"><g transform="translate(-149.23906,-61.58484)"><g data-paper-data="{&quot;isPaintingLayer&quot;:true}" fill-rule="nonzero" stroke="none" stroke-width="0.5" stroke-linecap="butt" stroke-linejoin="miter" stroke-miterlimit="10" stroke-dasharray="" stroke-dashoffset="0" style="mix-blend-mode: normal"><path d="M285.20579,96.07573c1.49446,-2.21885 1.93823,-4.63897 3.08393,-6.93112c1.27097,-2.54276 3.24205,-4.99771 3.59604,-8.0417c0.19423,-1.67028 0.61387,-6.01506 0.03749,-7.60013c-0.17645,-0.48524 -0.71884,-0.79195 -0.85922,-1.28883c-0.61139,-2.16405 -0.2733,-4.57875 -0.72215,-6.81187c-0.22001,0.93848 -0.79228,1.55356 -1.32386,2.3966c-1.18369,1.87725 -1.47163,3.6521 -2.55025,5.53967c-1.85665,3.24914 -2.78724,7.24094 -4.19134,10.50799c-0.99392,2.31265 -2.88198,3.7799 -4.42856,5.52131c2.45054,2.10196 4.76114,4.38354 7.03078,6.71237zM279.90463,83.05605c1.92535,-4.50314 3.73389,-9.61101 5.60493,-14.23274c0.4854,-1.19901 1.84087,-3.54899 2.58871,-4.75332c0.55026,-0.88614 0.85882,-2.47118 1.90181,-2.48504c1.16828,-0.01552 1.68651,1.61745 2.52976,2.42617c0.63069,2.44897 0.24813,5.132 0.92691,7.47836c0.14349,0.49599 0.70611,0.79573 0.85922,1.28883c0.64413,2.07445 0.31576,6.61247 0.03749,8.72505c-0.42856,3.25361 -2.45063,6.00606 -3.82354,8.75095c-1.18737,2.37394 -1.71534,4.89513 -3.24402,7.20816l-0.66206,0.42199c0.11557,0.12015 0.23111,0.24033 0.34661,0.36053c1.04856,-0.25251 1.93646,-0.77796 3.11316,-1.24864v0.00001c2.83215,-1.13286 6.17244,-2.27941 8.62057,-3.92952c0.77126,-0.51985 1.42652,-1.29857 2.32329,-1.54538c2.3066,-2.37645 5.67222,-1.98903 7.86868,-4.23433c1.07721,-1.10117 2.20582,-2.78055 3.26821,-4.00347c0.79355,-0.91345 1.11407,-2.15037 1.74165,-3.1849c1.08611,-1.79038 3.55458,-3.25345 4.30426,-5.26778c0.36392,-0.97781 -0.02713,-2.16143 0.42703,-3.10073c0.88881,-1.8382 2.34618,-3.64654 3.88795,-5.23244l-0.11837,-0.07458l1.08186,-1.71709c0.21924,-0.36077 0.61597,-0.60175 1.06898,-0.60175c0.69036,0 1.25,0.55964 1.25,1.25c0,0.0674 -0.00533,0.13355 -0.0156,0.19806l-0.35051,2.45359l-0.01827,-0.00261l0.00752,0.06613c-1.11604,4.4801 -1.61846,8.66014 -2.20515,13.22703c-0.35796,2.78644 0.29019,5.70766 0,8.50654c-0.19563,1.88687 -1.18903,3.61688 -1.52434,5.48531c-0.49923,2.78181 -0.90108,5.54833 -1.45554,8.32063c-0.4559,1.77504 -0.27749,3.45985 -0.76078,5.25363c-1.63205,6.05757 -4.2372,12.14439 -8.02822,17.12052c-1.44198,1.89276 -4.51196,3.61277 -7.05751,4.917c0.53306,1.02508 1.02682,2.06639 1.49103,3.09756c2.31465,5.14155 4.70561,11.34685 5.20527,17.01513c0.28168,3.19548 0.09658,5.33327 0.94863,8.42932c0.83934,4.72 4.36925,9.86289 3.54278,14.79054c-0.24293,1.44841 -0.47327,3.14943 -1.58258,4.11189c-1.54329,1.33899 -5.39857,1.12041 -7.39347,1.12339c-4.80919,0.00719 -9.24926,1.21401 -13.9776,1.248h-2.7456c0,0 -0.04572,0 -0.1248,-0.00618c-0.07908,0.00618 -0.1248,0.00618 -0.1248,0.00618h-2.74559c-14.29861,-0.007 -28.51649,1.02396 -42.84207,1.49601c-5.38486,0.17744 -10.65567,0.99838 -16.06351,0.99999c-7.59906,0 -15.36595,0.4325 -22.94216,-0.26007c-3.43711,-0.3142 -6.65099,-1.39517 -10.05298,-1.7545c-9.47369,-1.00066 -18.78237,-1.80045 -28.16095,-0.40774c-0.35599,0.49961 -0.96179,0.92471 -1.99268,0.92471c-0.87016,0 -1.43745,-0.30288 -1.80729,-0.69778c-0.5999,-0.23731 -1.1948,-0.75327 -1.39869,-1.8407c-0.20596,-1.09849 0.17123,-1.79797 0.65134,-2.23566c-0.14876,-3.39108 -0.52754,-6.82649 -0.18423,-10.18761c0.00715,-0.06996 0.01433,-0.13991 0.02154,-0.20984c-0.73581,-2.01942 -3.61342,-3.63782 -4.9193,-5.46952c-3.68024,-5.16209 -7.05578,-12.19151 -7.06482,-18.89339c-0.19088,-0.2806 -0.32057,-0.50237 -0.34102,-0.61184c-0.01032,-0.05524 -0.01915,-0.11058 -0.02663,-0.16602l-0.03633,0.01211l-0.42038,-1.26115c-0.04749,-0.1321 -0.07337,-0.27451 -0.07337,-0.42297c0,-0.69036 0.55964,-1.25 1.25,-1.25c0.44077,0 0.82825,0.22813 1.05082,0.57276l0.84847,1.2727l-0.14322,0.09548l0.29952,0.23567c0.00389,0.15092 0.00895,0.3017 0.01517,0.45233c1.12731,0.81732 2.00383,2.82969 2.80029,3.89172c2.07916,2.77243 4.86514,7.64537 8.70976,8.05855c1.41094,-7.28213 3.45757,-14.33819 6.51292,-21.09746c-0.10825,-0.10735 -0.1666,-0.19488 -0.1666,-0.19488c-6.6075,-10.01059 -7.23708,-22.70013 -7.23708,-34.3497c0,-1.89227 -0.29123,-2.77839 -0.70626,-4.52086c-0.36399,-1.52822 -0.03344,-3.92465 -0.03344,-5.46509c0,-4.7784 0,-9.55679 0,-14.33519c0,-1.87016 -0.24178,-4.15038 0,-6.00654c0.11346,-0.87102 -0.21812,-2.30606 0.62259,-2.56054c3.01646,-0.91304 6.56876,4.23584 7.86227,6.16639c2.16412,3.2465 4.13141,6.58185 6.35408,9.71755c3.26034,4.59963 4.66468,10.56956 8.77041,14.66586c2.96261,2.9558 6.85232,5.76374 10.54846,7.61181c1.61502,1.73195 3.11369,1.02758 5.34377,1.25336c2.20754,0.2235 4.34448,0.33841 6.57854,0.35718c1.23575,-1.9693 2.57872,-3.9019 3.92488,-5.86979l-0.00001,-0.00002c1.48519,-2.17112 2.7462,-5.18562 4.37408,-7.16348c1.16933,-1.42072 2.72701,-2.70646 4.24964,-4.00013c-1.69684,-0.87417 -3.63168,-1.78675 -4.20717,-3.54256c-1.52154,-4.64221 1.1305,-9.83255 -1.12975,-14.49918l0.09402,-0.28719h-0.12746v-1.4794c0,-0.69036 0.55964,-1.25 1.25,-1.25c0.53655,0 0.99415,0.33806 1.17141,0.8128l0.41002,1.02504c0.54142,0.5369 1.03863,1.10288 1.36991,1.78114c0.56931,1.16556 0.25889,2.62761 0.79246,3.80997c1.23928,2.7462 3.39244,4.84308 5.82597,6.46544l0.81146,0.22406c0,0 0.27692,0.09231 0.51851,0.32152c2.49489,-2.38818 5.14951,-4.54874 8.2578,-6.1934c2.64452,-0.04778 4.9063,-0.33258 7.4719,0.57565c2.31737,0.82035 4.60169,3.35463 7.00172,3.91956c1.72628,0.40634 3.55376,-0.23242 5.31989,-0.07141c1.30496,0.11897 2.62242,0.38177 3.92548,0.72929c0.79236,-0.73155 1.73426,-1.33765 2.52744,-1.99125v-0.00002c0.69632,-0.57379 1.93808,-0.484 2.39443,-1.26236c1.14385,-1.95098 2.29579,-3.76911 3.5401,-5.60987l0.7249,-2.1747c0.15709,-0.51078 0.63267,-0.88206 1.19497,-0.88206c0.69036,0 1.25,0.55964 1.25,1.25v1.4794c0,4.6105 -0.84645,9.02552 -1.06072,13.5559c1.98432,1.16037 3.85162,2.47349 5.63689,3.89256c1.43226,-1.49438 3.02733,-2.8343 3.87234,-4.81066zM153.20883,146.20777c1.03736,4.87886 3.20547,9.47106 6.03364,13.42167c0.93684,1.30865 2.18567,2.29512 3.27573,3.3841c0.30921,-2.52563 0.67189,-5.02906 1.10246,-7.50756c-4.68803,-0.68161 -7.72674,-5.50973 -10.41184,-9.29821zM268.82137,73.83212c-0.05395,0.07544 -0.1087,0.15473 -0.16413,0.2383c-0.72066,1.08661 -1.19063,2.77705 -1.86754,3.72518c-0.91395,1.28015 -2.38142,2.00266 -3.7817,2.81455c0.60952,0.21615 1.21049,0.44069 1.79986,0.66694c1.08948,0.41825 2.14329,0.88331 3.16556,1.38965c0.21092,-2.95496 0.6319,-5.86864 0.84796,-8.83462zM225.13079,82.18395c-2.33259,-1.55506 -4.44838,-3.54073 -5.9116,-5.97926c-0.15012,2.27154 -0.40528,4.55955 0.03449,6.79607c0.19945,1.01434 2.35823,1.87835 3.76892,2.54162c0.31208,-0.29407 0.61331,-0.59161 0.8991,-0.89418c0.68509,-0.72532 1.37034,-1.44474 2.06251,-2.15163zM309.58265,124.32876c3.51886,-4.785 5.88364,-10.33547 7.48574,-16.10609c0.48139,-1.73393 0.31163,-3.41458 0.73835,-5.16202c0.54877,-2.74387 0.93734,-5.48418 1.43807,-8.23616c0.32818,-1.80365 1.32649,-3.5147 1.49964,-5.32678c0.26785,-2.80326 -0.34094,-5.70907 0,-8.50654c0.41736,-3.42455 0.8207,-6.66085 1.4654,-9.9518c-0.49772,0.55742 -0.98155,1.12957 -1.31519,1.76535c-0.43899,0.83653 0.02053,1.93285 -0.31267,2.81687c-0.8623,2.28779 -3.38592,3.81393 -4.57213,5.82772c-1.49569,2.53918 -3.20244,5.49885 -5.34593,7.60562c-2.48235,2.43983 -5.89539,2.19778 -8.4047,4.64206c-0.82794,0.18294 -1.40737,0.94614 -2.11491,1.41342c-0.48099,0.31766 -1.14665,0.21902 -1.66224,0.47675c-2.9115,1.45537 -6.13892,3.74267 -9.48442,4.76576c0.9001,0.93237 1.80327,1.85945 2.71577,2.77283c1.86542,2.15877 2.53534,2.5495 3.53427,5.38942c1.31205,3.73012 0.35523,7.92015 1.49272,11.71711c0.65473,2.1855 3.26648,4.04639 4.59983,5.77282c0.66355,0.85917 1.27595,1.77389 1.84581,2.72094c2.31822,-1.17023 5.18758,-2.75324 6.39659,-4.39727zM195.13544,104.71876c-3.82731,-1.91365 -7.83664,-4.85037 -10.90282,-7.92188c-4.19339,-4.20067 -5.61966,-10.25704 -8.98238,-14.92212c-2.26814,-3.14658 -4.22334,-6.51875 -6.4061,-9.79258c-0.73807,-1.11327 -2.73677,-2.70866 -3.83048,-4.12497c-0.01158,0.44894 -0.07425,0.90388 -0.07425,1.35147c0,2.58895 0,5.1779 0,7.76684c0,3.45193 0,6.90386 0,10.35579c0,1.25356 -0.36992,3.61788 -0.03344,4.89071c0.48381,1.83013 0.77314,3.10557 0.77314,5.09524c0,10.66313 0.3932,22.59069 6.14702,31.92409c1.16389,-2.3394 2.45741,-4.64128 3.89657,-6.9026c2.70502,-3.93852 2.35548,-7.53771 6.67204,-10.68176c1.71123,-1.24641 3.73056,-1.77533 5.71698,-2.33792c2.89956,-0.82121 3.3104,-1.10503 6.36996,-0.83809c4.10969,0.35856 7.17731,2.18705 9.64136,4.78296c0.7237,-2.29583 1.72188,-4.44145 2.88088,-6.51554c-4.06909,0.1226 -9.29271,0.30966 -11.86847,-2.12964zM292.63339,175.71606c3.82204,0.03502 7.3424,-1.24141 11.23199,-1.248c1.33607,-0.00226 5.65161,0.7417 6.83373,0.12499c0.26131,-0.13632 -0.05639,-0.58677 -0.08498,-0.88011c-0.07476,-0.76694 -0.08111,-1.54375 -0.22509,-2.30075c-0.71332,-3.75035 -2.52404,-7.10566 -3.22092,-10.8639c-0.86805,-3.21004 -0.79368,-5.76647 -1.04817,-9.04267c-0.39537,-5.08987 -2.70396,-10.82022 -4.77873,-15.43285c-1.0731,-2.38572 -2.31756,-4.91945 -3.93627,-6.98327c-1.82729,-2.32976 -4.40591,-4.28168 -5.38416,-7.20638c-1.84177,-5.50634 0.1278,-10.74976 -3.95862,-15.34146c-7.60856,-7.60088 -14.52948,-16.62591 -25.01121,-20.58337c-2.37225,-0.89566 -5.02247,-1.88781 -7.56456,-2.0955c-1.44964,-0.11844 -4.97114,0.21411 -6.1617,-0.07141c-2.67791,-0.64221 -4.94544,-3.11259 -7.47508,-4.06764c-1.05581,-0.39862 -3.3856,-0.38706 -4.5089,-0.42275c-3.70974,2.14126 -6.84839,5.67179 -9.78118,8.77739c-2.06694,2.18873 -5.01242,4.1003 -6.87437,6.35949c-1.54517,1.87483 -2.6985,4.7482 -4.11232,6.81412c-3.5173,5.13958 -7.22116,10.05086 -8.34055,16.25931c0,0 -0.084,0.46202 -0.37944,0.94917c2.46138,4.17024 4.34184,8.94168 6.57163,12.824c1.4129,2.46001 3.49636,4.4864 5.12741,6.80996l0.62687,1.82572c0,0 0.60634,2.42535 -1.81902,3.03169c-2.42535,0.60634 -3.03169,-1.81901 -3.03169,-1.81901l0.12768,-0.17109c-1.71794,-2.46177 -3.84035,-4.56743 -5.35579,-7.16764c-4.81226,-8.25692 -8.18188,-23.15853 -20.61198,-19.56818c-2.37348,0.68556 -4.79724,1.41042 -6.37196,3.51486c-1.52992,2.04458 -1.71819,5.14733 -3.20381,7.42705c-8.18481,12.86309 -11.26214,27.06111 -12.83428,42.04759c-0.29202,2.78373 -0.04384,5.64256 0.12867,8.4735c9.44368,-1.24251 18.84471,-0.49076 28.3804,0.54411c3.36048,0.3647 6.52639,1.43371 9.91502,1.7399c7.4248,0.6709 15.0386,0.23913 22.48502,0.23913c5.3479,0.00167 10.55808,-0.81733 15.88528,-0.99681c14.38254,-0.48458 28.6617,-1.49172 43.0203,-1.49919h2.74559c0,0 0.04572,0 0.1248,0.00619c0.07908,-0.00618 0.1248,-0.00619 0.1248,-0.00619z" fill="#000000"/><path d="M284.87816,96.13001c-2.26964,-2.32883 -4.61174,-4.62199 -7.06228,-6.72395c1.54658,-1.74141 3.43345,-3.20968 4.42737,-5.52233c1.40409,-3.26704 2.37739,-7.34533 4.23404,-10.59447c1.07861,-1.88757 1.37175,-3.66111 2.55544,-5.53837c0.53158,-0.84305 1.10549,-1.45759 1.3255,-2.39607c0.44886,2.23311 0.12328,4.65425 0.73467,6.8183c0.14038,0.49688 0.68838,0.80819 0.86482,1.29344c0.57637,1.58508 0.17219,5.9687 -0.02204,7.63898c-0.35398,3.04399 -2.35693,5.54292 -3.62789,8.08568c-1.1457,2.29214 -1.60698,4.71564 -3.10144,6.93449z" data-paper-data="{&quot;noHover&quot;:false,&quot;origItem&quot;:[&quot;Path&quot;,{&quot;applyMatrix&quot;:true,&quot;segments&quot;:[[[285.20579,96.07573],[0,0],[1.49446,-2.21885]],[[288.28972,89.14462],[-1.1457,2.29214],[1.27097,-2.54276]],[[291.88576,81.10292],[-0.35398,3.04399],[0.19423,-1.67028]],[[291.92325,73.50278],[0.57637,1.58508],[-0.17645,-0.48524]],[[291.06403,72.21395],[0.14038,0.49688],[-0.61139,-2.16405]],[[290.34188,65.40208],[0.44886,2.23311],[-0.22001,0.93848]],[[289.01802,67.79869],[0.53158,-0.84305],[-1.18369,1.87725]],[[286.46777,73.33835],[1.07861,-1.88757],[-1.85665,3.24914]],[[282.27644,83.84634],[1.40409,-3.26704],[-0.99392,2.31265]],[[277.84788,89.36765],[1.54658,-1.74141],[2.45054,2.10196]],[[284.87866,96.08002],[-2.26964,-2.32883],[0,0]]],&quot;closed&quot;:true}]}" fill="#230000"/><path d="M163.66995,155.51445c-0.43057,2.4785 -0.82059,5.01838 -1.1298,7.54401c-1.09006,-1.08898 -2.35269,-2.07105 -3.28953,-3.37969c-2.82817,-3.9506 -5.03075,-8.63465 -6.06811,-13.51351c2.6851,3.78848 5.79942,8.66758 10.48745,9.34919z" data-paper-data="{&quot;noHover&quot;:false,&quot;origItem&quot;:[&quot;Path&quot;,{&quot;applyMatrix&quot;:true,&quot;segments&quot;:[[[153.20883,146.20777],[2.6851,3.78848],[1.03736,4.87886]],[[159.24248,159.62943],[-2.82817,-3.9506],[0.93684,1.30865]],[[162.51821,163.01353],[-1.09006,-1.08898],[0.30921,-2.52563]],[[163.62067,155.50598],[-0.43057,2.4785],[-4.68803,-0.68161]]],&quot;closed&quot;:true}]}" fill="#230000"/><path d="M267.99454,82.71206c-1.02227,-0.50634 -2.11436,-0.96976 -3.20384,-1.38801c-0.58938,-0.22626 -1.21199,-0.46623 -1.82151,-0.68238c1.40028,-0.81188 2.86218,-1.5429 3.77613,-2.82305c0.67691,-0.94813 1.16384,-2.61979 1.88449,-3.7064c0.05543,-0.08357 0.1651,-0.24643 0.21904,-0.32187c-0.21606,2.96598 -0.6434,5.96674 -0.85432,8.92171z" data-paper-data="{&quot;noHover&quot;:false,&quot;origItem&quot;:[&quot;Path&quot;,{&quot;applyMatrix&quot;:true,&quot;segments&quot;:[[[289.73046,101.10484],[-0.21606,2.96598],[-0.05395,0.07544]],[[289.56633,101.34314],[0.05543,-0.08357],[-0.72066,1.08661]],[[287.69879,105.06832],[0.67691,-0.94813],[-0.91395,1.28015]],[[283.91709,107.88287],[1.40028,-0.81188],[0.60952,0.21615]],[[285.71695,108.54982],[-0.58938,-0.22626],[1.08948,0.41825]],[[288.88251,109.93946],[-1.02227,-0.50634],[0.21092,-2.95496]]],&quot;closed&quot;:true}]}" fill="#230000"/><path d="M226.02954,82.51767c-0.69217,0.70689 -1.40508,1.45199 -2.09017,2.17731c-0.28578,0.30256 -0.59908,0.60302 -0.91116,0.89709c-1.41069,-0.66327 -3.61688,-1.54955 -3.81633,-2.56388c-0.43978,-2.23652 -0.17153,-4.59288 -0.02141,-6.86442c1.46322,2.43853 3.6525,4.48739 5.98509,6.04245z" data-paper-data="{&quot;noHover&quot;:false,&quot;origItem&quot;:[&quot;Path&quot;,{&quot;applyMatrix&quot;:true,&quot;segments&quot;:[[[246.03988,109.45667],[0,0],[-2.33259,-1.55506]],[[240.12828,103.47741],[1.46322,2.43853],[-0.15012,2.27154]],[[240.16277,110.27348],[-0.43978,-2.23652],[0.19945,1.01434]],[[243.93169,112.8151],[-1.41069,-0.66327],[0.31208,-0.29407]],[[244.83079,111.92093],[-0.28578,0.30256],[0.68509,-0.72532]],[[246.8933,109.76929],[-0.69217,0.70689],[0,0]]],&quot;closed&quot;:true}]}" fill="#230000"/><path d="M303.18188,128.77585c-0.56986,-0.94705 -1.18614,-1.86225 -1.84969,-2.72142c-1.33335,-1.72643 -3.95701,-3.59083 -4.61174,-5.77633c-1.13749,-3.79696 -0.19911,-8.00082 -1.51116,-11.73094c-0.99893,-2.83992 -1.67913,-3.2513 -3.54455,-5.41007c-0.91251,-0.91338 -1.81696,-1.85041 -2.71706,-2.78278c3.3455,-1.02309 6.58008,-3.33763 9.49158,-4.79299c0.51559,-0.25773 1.18642,-0.16618 1.66741,-0.48383c0.70754,-0.46727 1.30083,-1.24155 2.12878,-1.42449c2.50931,-2.44428 5.96731,-2.20355 8.44965,-4.64338c2.14349,-2.10678 3.85365,-5.06468 5.34934,-7.60387c1.18621,-2.01379 3.65899,-3.45384 4.52129,-5.74163c0.3332,-0.88401 -0.12465,-1.97934 0.31435,-2.81588c0.33364,-0.63578 0.867,-1.2948 1.36473,-1.85222c-0.64471,3.29095 -1.04172,6.53157 -1.45908,9.95612c-0.34094,2.79747 0.27782,5.71401 0.00996,8.51728c-0.17315,1.81208 -1.16581,3.53403 -1.49399,5.33768c-0.50073,2.75197 -0.88779,5.52227 -1.43657,8.26614c-0.42672,1.74744 -0.26491,3.4449 -0.74631,5.17884c-1.6021,5.77062 -3.99928,11.34103 -7.51814,16.12603c-1.20901,1.64403 -4.09059,3.22752 -6.4088,4.39774z" data-paper-data="{&quot;noHover&quot;:false,&quot;origItem&quot;:[&quot;Path&quot;,{&quot;applyMatrix&quot;:true,&quot;segments&quot;:[[[330.49174,151.60148],[-1.20901,1.64403],[3.51886,-4.785]],[[337.97748,135.49538],[-1.6021,5.77062],[0.48139,-1.73393]],[[338.71584,130.33336],[-0.42672,1.74744],[0.54877,-2.74387]],[[340.15391,122.0972],[-0.50073,2.75197],[0.32818,-1.80365]],[[341.65355,116.77043],[-0.17315,1.81208],[0.26785,-2.80326]],[[341.65355,108.26388],[-0.34094,2.79747],[0.41736,-3.42455]],[[343.11895,98.31208],[-0.64471,3.29095],[-0.49772,0.55742]],[[341.80376,100.07743],[0.33364,-0.63578],[-0.43899,0.83653]],[[341.49109,102.8943],[0.3332,-0.88401],[-0.8623,2.28779]],[[336.91896,108.72202],[1.18621,-2.01379],[-1.49569,2.53918]],[[331.57303,116.32764],[2.14349,-2.10678],[-2.48235,2.43983]],[[323.16832,120.9697],[2.50931,-2.44428],[-0.82794,0.18294]],[[321.05341,122.38312],[0.70754,-0.46727],[-0.48099,0.31766]],[[319.39116,122.85987],[0.51559,-0.25773],[-2.9115,1.45537]],[[309.90675,127.62563],[3.3455,-1.02309],[0.9001,0.93237]],[[312.62252,130.39845],[-0.91251,-0.91338],[1.86542,2.15877]],[[316.15679,135.78787],[-0.99893,-2.83992],[1.31205,3.73012]],[[317.64951,147.50498],[-1.13749,-3.79696],[0.65473,2.1855]],[[322.24934,153.2778],[-1.33335,-1.72643],[0.66355,0.85917]],[[324.09515,155.99875],[-0.56986,-0.94705],[2.31822,-1.17023]]],&quot;closed&quot;:true}]}" fill="#230000"/><path d="M207.05053,106.8665c-1.159,2.07409 -2.16487,4.23301 -2.88857,6.52884c-2.46405,-2.59591 -5.53786,-4.41799 -9.64755,-4.77655c-3.05956,-0.26694 -3.493,0.02804 -6.39256,0.84925c-1.98642,0.56259 -4.02874,1.09086 -5.73997,2.33727c-4.31656,3.14405 -3.9738,6.7409 -6.67882,10.67942c-1.43916,2.26132 -2.73386,4.56268 -3.89775,6.90208c-5.75382,-9.3334 -6.17611,-21.30946 -6.17611,-31.97259c0,-1.98967 -0.28729,-3.2765 -0.7711,-5.10663c-0.33648,-1.27282 0.03723,-3.64632 0.03723,-4.89987c0,-3.45193 0.00925,-6.91613 0.00925,-10.36806c0,-2.58895 0.00578,-5.18272 0.00578,-7.77167c0,-0.44759 0.06361,-0.90318 0.07519,-1.35212c1.09371,1.41631 3.09353,3.01096 3.8316,4.12423c2.18277,3.27383 4.19173,6.73032 6.45987,9.87689c3.36272,4.66509 4.79549,10.71654 8.98888,14.91721c3.06619,3.07151 7.00043,5.94348 10.82774,7.85713c2.57576,2.4393 7.88779,2.29776 11.95689,2.17516z" data-paper-data="{&quot;noHover&quot;:false,&quot;origItem&quot;:[&quot;Path&quot;,{&quot;applyMatrix&quot;:true,&quot;segments&quot;:[[[216.04453,131.9915],[2.57576,2.4393],[-3.82731,-1.91365]],[[205.14171,124.06962],[3.06619,3.07151],[-4.19339,-4.20067]],[[196.15933,109.1475],[3.36272,4.66509],[-2.26814,-3.14658]],[[189.75323,99.35492],[2.18277,3.27383],[-0.73807,-1.11327]],[[185.92275,95.22995],[1.09371,1.41631],[-0.01158,0.44894]],[[185.8485,96.58142],[0,-0.44759],[0,2.58895]],[[185.8485,104.34826],[0,-2.58895],[0,3.45193]],[[185.8485,114.70406],[0,-3.45193],[0,1.25356]],[[185.81506,119.59476],[-0.33648,-1.27282],[0.48381,1.83013]],[[186.5882,124.69],[0,-1.98967],[0,10.66313]],[[192.73522,156.61409],[-5.75382,-9.3334],[1.16389,-2.3394]],[[196.63179,149.71148],[-1.43916,2.26132],[2.70502,-3.93852]],[[203.30383,139.02972],[-4.31656,3.14405],[1.71123,-1.24641]],[[209.02081,136.6918],[-1.98642,0.56259],[2.89956,-0.82121]],[[215.39077,135.85371],[-3.05956,-0.26694],[4.10969,0.35856]],[[225.03213,140.63667],[-2.46405,-2.59591],[0.7237,-2.29583]],[[227.91301,134.12114],[-1.159,2.07409],[-4.06909,0.1226]]],&quot;closed&quot;:true}]}" fill="#230000"/><path d="M289.92461,175.7499c0,0 -0.04576,0.00006 -0.12484,0.00624c-0.07908,-0.00619 -0.12484,-0.00615 -0.12484,-0.00615l-2.74655,0.00101c-14.3586,0.00747 -28.66839,1.02941 -43.05093,1.51399c-5.3272,0.17948 -10.55328,0.99757 -15.90118,0.9959c-7.44642,0 -15.07754,0.42431 -22.50234,-0.24659c-3.38863,-0.30619 -6.56017,-1.37964 -9.92065,-1.74434c-9.53569,-1.03487 -18.94485,-1.79618 -28.38853,-0.55367c-0.17251,-2.83094 -0.42294,-5.69356 -0.13092,-8.47729c1.57214,-14.98648 4.64366,-29.21117 12.82847,-42.07426c1.48562,-2.27972 1.67475,-5.38912 3.20467,-7.4337c1.57472,-2.10444 4.09547,-2.80538 6.46895,-3.49094c12.4301,-3.59035 15.80104,11.28858 20.6133,19.5455c1.51544,2.60021 3.63297,4.69137 5.35091,7.15314l-0.12776,0.17093c0,0 0.60321,2.42015 3.02856,1.81381c2.42536,-0.60634 1.73484,-2.97781 1.73484,-2.97781l-0.62895,-1.82961c-1.63105,-2.32356 -3.71918,-4.36657 -5.13208,-6.82658c-2.22979,-3.88232 -4.10792,-8.67461 -6.5693,-12.84485c0.29544,-0.48715 0.37996,-0.95064 0.37996,-0.95064c1.11939,-6.20845 4.83871,-11.14129 8.35601,-16.28087c1.41382,-2.06592 2.57522,-4.94461 4.12039,-6.81944c1.86195,-2.25919 4.81743,-4.17474 6.88437,-6.36347c2.93279,-3.1056 6.08327,-6.63793 9.79301,-8.77919c1.1233,0.03569 3.45766,0.0242 4.51347,0.42282c2.52964,0.95505 4.80545,3.42663 7.48336,4.06884c1.19056,0.28552 4.71809,-0.04523 6.16773,0.07321c2.54209,0.20769 5.19954,1.20319 7.57179,2.09885c10.48173,3.95746 17.42363,13.00541 25.03219,20.60629c4.08642,4.5917 2.12088,9.84928 3.96265,15.35562c0.97825,2.9247 3.55729,4.88332 5.38458,7.21308c1.61871,2.06382 2.86284,4.60309 3.93594,6.98881c2.07477,4.61263 4.38107,10.3532 4.77644,15.44307c0.25449,3.2762 0.17809,5.83771 1.04614,9.04775c0.69688,3.75824 2.50521,7.11807 3.21853,10.86842c0.14398,0.757 0.14976,1.53475 0.22452,2.30169c0.02859,0.29334 0.34607,0.74414 0.08476,0.88046c-1.18212,0.61671 -5.49891,-0.12538 -6.83498,-0.12312c-3.88959,0.00659 -7.41319,1.28715 -11.23523,1.25213l-2.74647,0.00097z" data-paper-data="{&quot;noHover&quot;:false,&quot;origItem&quot;:[&quot;Path&quot;,{&quot;applyMatrix&quot;:true,&quot;segments&quot;:[[310.79688,202.98878],[[313.54248,202.98878],[0,0],[3.82204,0.03502]],[[324.77447,201.74078],[-3.88959,0.00659],[1.33607,-0.00226]],[[331.6082,201.86577],[-1.18212,0.61671],[0.26131,-0.13632]],[[331.52322,200.98566],[0.02859,0.29334],[-0.07476,-0.76694]],[[331.29813,198.68491],[0.14398,0.757],[-0.71332,-3.75035]],[[328.07721,187.82101],[0.69688,3.75824],[-0.86805,-3.21004]],[[327.02904,178.77834],[0.25449,3.2762],[-0.39537,-5.08987]],[[322.25031,163.34549],[2.07477,4.61263],[-1.0731,-2.38572]],[[318.31404,156.36222],[1.61871,2.06382],[-1.82729,-2.32976]],[[312.92988,149.15584],[0.97825,2.9247],[-1.84177,-5.50634]],[[308.97126,133.81438],[4.08642,4.5917],[-7.60856,-7.60088]],[[283.96005,113.23101],[10.48173,3.95746],[-2.37225,-0.89566]],[[276.39549,111.13551],[2.54209,0.20769],[-1.44964,-0.11844]],[[270.23379,111.0641],[1.19056,0.28552],[-2.67791,-0.64221]],[[262.75871,106.99646],[2.52964,0.95505],[-1.05581,-0.39862]],[[258.24981,106.57371],[1.1233,0.03569],[-3.70974,2.14126]],[[248.46863,115.3511],[2.93279,-3.1056],[-2.06694,2.18873]],[[241.59426,121.71059],[1.86195,-2.25919],[-1.54517,1.87483]],[[237.48194,128.52471],[1.41382,-2.06592],[-3.5173,5.13958]],[[229.14139,144.78402],[1.11939,-6.20845],[0,0]],[[228.76195,145.73319],[0.29544,-0.48715],[2.46138,4.17024]],[[235.33358,158.55719],[-2.22979,-3.88232],[1.4129,2.46001]],[[240.46099,165.36715],[-1.63105,-2.32356],[0,0]],[241.08786,167.19287],[[239.26884,170.22456],[2.42536,-0.60634],[-2.42535,0.60634]],[236.23715,168.40555],[[236.36483,168.23446],[0,0],[-1.71794,-2.46177]],[[231.00904,161.06682],[1.51544,2.60021],[-4.81226,-8.25692]],[[210.39706,141.49864],[12.4301,-3.59035],[-2.37348,0.68556]],[[204.0251,145.0135],[1.57472,-2.10444],[-1.52992,2.04458]],[[200.82129,152.44055],[1.48562,-2.27972],[-8.18481,12.86309]],[[187.98701,194.48814],[1.57214,-14.98648],[-0.29202,2.78373]],[[188.11568,202.96164],[-0.17251,-2.83094],[9.44368,-1.24251]],[[216.49608,203.50575],[-9.53569,-1.03487],[3.36048,0.3647]],[[226.4111,205.24565],[-3.38863,-0.30619],[7.4248,0.6709]],[[248.89612,205.48478],[-7.44642,0],[5.3479,0.00167]],[[264.7814,204.48797],[-5.3272,0.17948],[14.38254,-0.48458]],[[307.8017,202.98878],[-14.3586,0.00747],[0,0]],[310.54729,202.98878],[[310.67209,202.99497],[-0.07908,-0.00619],[0.07908,-0.00618]],[310.79689,202.98878]],&quot;closed&quot;:true,&quot;fillColor&quot;:[0,0,0,1]}]}" fill="#230000"/></g></g></svg>