<svg version="1.1" xmlns="http://www.w3.org/2000/svg" xmlns:xlink="http://www.w3.org/1999/xlink" width="163.20622" height="152.01904" viewBox="0,0,163.20622,152.01904"><g transform="translate(-150.87871,-30.99395)"><g data-paper-data="{&quot;isPaintingLayer&quot;:true}" fill-rule="nonzero" stroke="none" stroke-width="0.5" stroke-linecap="butt" stroke-linejoin="miter" stroke-miterlimit="10" stroke-dasharray="" stroke-dashoffset="0" style="mix-blend-mode: normal"><g><path d="M208.6069,52.99986c-0.57821,-2.70027 -1.50069,-5.35284 -2.75535,-7.81283c0,0 -0.0639,-0.12779 -0.14551,-0.34877c-0.99565,-0.88191 -2.03786,-2.47059 -1.00051,-4.89106c1.7249,-4.02475 5.74965,-2.29985 5.74965,-2.29985l3.44485,1.48143c8.01865,3.04808 15.29697,8.42851 20.21821,15.60934c1.15084,1.67925 2.13311,3.48018 2.97485,5.33378c0.55029,1.2118 0.32837,4.27208 1.52522,3.68993c6.70812,-3.26287 13.11113,-8.33289 20.06256,-11.48688c4.73208,-2.14703 10.10299,-4.03301 14.4484,1.56621c1.53093,1.97266 0.22404,4.99379 0.14731,7.48965c-0.15166,4.93254 -1.54619,9.47238 -1.58903,14.40578c1.22209,3.75918 6.76927,12.8564 11.55104,12.93795c3.31561,0.05654 7.83997,-2.7224 10.62298,-4.17504c3.69894,-1.93072 11.07164,-7.34245 15.45004,-1.80631c3.64166,4.60457 -4.1833,11.73561 -5.66057,14.9615c-1.30908,2.85864 -0.42187,9.25124 -0.25985,12.29328c0.4858,9.12153 -0.36719,18.20622 2.88941,26.83973c2.20905,7.3635 5.55176,14.23513 3.74158,22.13499c-3.77105,16.45738 -17.3316,17.24749 -31.15381,15.79259c-5.21503,-0.54892 -11.35593,-0.07466 -16.0034,-3.3058c-5.06272,-3.51982 -6.85557,-9.50921 -9.31862,-14.74968c-2.79448,-5.94557 -6.1647,-11.36083 -10.09184,-16.60987c-5.8434,-10.47912 -12.9218,-20.75217 -17.50204,-31.8574c-3.10813,-7.53595 -4.61489,-15.46958 -6.89069,-23.24326c-2.54417,-8.69034 -7.04137,-16.66947 -10.70061,-24.89415c0,0 -1.26727,-2.85139 0.74473,-4.80992z" fill="#ffe3e3"/><path d="M256.19829,151.72531c2.59232,5.01434 10.88621,11.54186 6.28395,18.25451c-1.53389,2.23729 -5.16982,1.71959 -7.84716,2.15558c-9.34528,1.52183 -20.37458,0.0332 -29.86018,-0.01944c-6.36439,1.44762 -12.33567,5.52295 -18.76268,6.23498c-6.53963,0.7245 -15.91536,-1.53664 -21.65327,-4.64749c-7.26381,-3.93815 -12.2695,-11.40017 -13.19537,-19.5188c-0.19025,-1.66818 0.27187,-6.98084 -0.36092,-9.05028c-1.65539,-5.41379 -5.01488,-11.25641 -7.87453,-16.13929c-0.90389,-1.54339 -2.42694,-2.82329 -2.81194,-4.56996c-0.04209,-0.19093 -0.08038,-0.38237 -0.11518,-0.57427l-0.08973,0.02693l-1.52743,-5.09146c-0.13886,-0.42688 -0.21391,-0.88254 -0.21391,-1.35573c0,-2.41834 1.96046,-4.37879 4.3788,-4.37879c0.66714,0 1.29944,0.14919 1.86534,0.41604l4.58309,2.03693l-0.00077,0.00173c1.57288,0.70874 3.87543,2.58351 4.71819,1.19555c0.97412,-1.60427 -1.14982,-7.57619 -1.77462,-9.14962c-4.09258,-10.91352 -8.67295,-18.82022 -2.36753,-30.04395c3.05677,-5.44111 3.28467,-8.42632 11.492,-7.43689c6.07684,0.73259 8.40983,9.85761 14.48109,10.30064c3.94749,0.28805 4.78566,-3.08523 6.32004,-5.67396c2.30768,-3.89338 5.07117,-7.02714 7.09933,-11.11532c0,0 -3.23067,-11.69992 0.68585,-9.74167c1.41838,0.70919 37.56402,80.50709 46.54755,97.88402z" fill="#ffe3e3"/><path d="M281.00658,84.21282c0.32924,-0.08424 0.68852,-0.19849 1.08047,-0.34398zM280.99315,84.21624c0.07608,-0.07524 3.57294,-3.49561 7.0698,0.00126c3.53553,3.53553 0,7.07107 0,7.07107l-2.81362,2.0671c-2.80985,0.87967 -4.49917,1.78002 -7.62858,1.03557c-2.01495,-0.47934 -4.07526,-1.14156 -5.74505,-2.36696c-7.38693,-5.42104 -2.8125,-16.2569 -5.04421,-23.51892c0,0 -1.37361,-4.80762 3.43401,-6.18123c4.80762,-1.3736 6.18123,3.43401 6.18123,3.43401c1.2239,4.49826 1.12694,8.75582 1.0516,13.40269c-0.0617,3.80556 0.27355,5.87359 3.49481,5.05541z" fill="#b3b3b3"/><g fill="#b3b3b3"><path d="M195.75792,87.5624c-4.21113,0 -4.37237,-4.04988 -4.37855,-4.36002c-3.17574,-2.41624 -6.92162,-4.57187 -9.6145,-7.30037c-1.00961,-1.02298 -2.05441,-2.11136 -2.75165,-3.36697c-0.80668,0.69082 -1.78624,1.2357 -2.59255,1.92683c-7.82581,7.38846 -2.59819,18.83135 0.16163,27.63698c0.76663,2.44603 3.27933,9.71162 2.13841,12.28427c-4.83556,10.90367 -6.43726,6.88354 -12.67128,2.84198c-0.13075,-0.08477 -1.27097,-0.59981 -2.57167,-1.24889c0.31601,0.5099 0.59475,0.99643 0.81456,1.38805c4.30213,7.6646 5.82454,16.09542 6.77966,24.73111c-0.05939,15.13096 11.58282,29.17797 26.94405,31.72356c9.91398,1.64291 20.81084,-1.54605 29.93251,-4.96668c0,0 4.1,-1.5375 5.6375,2.56249c1.5375,4.09999 -2.5625,5.6375 -2.5625,5.6375c-10.52421,3.94657 -22.99832,7.32111 -34.41031,5.4112c-19.27961,-3.22663 -34.21666,-20.69648 -34.28544,-39.88378c-1.0797,-9.66403 -3.91141,-16.2756 -8.08902,-24.79054c-1.1818,-2.40878 -4.23523,-4.98076 -3.11871,-7.42047c2.78209,-6.07915 10.78027,-4.92168 15.16349,-3.21703c0.91611,0.35627 2.13966,0.94591 3.20271,1.65517c-0.80088,-2.83089 -1.879,-5.93586 -2.78932,-8.67165c-3.84537,-11.55658 -5.17822,-22.81818 3.77339,-32.09889c1.90228,-1.6305 8.552,-7.64882 10.4222,-7.33617c2.64849,0.44277 3.46853,4.10176 5.12551,6.2148c3.47591,4.43257 8.268,7.17075 12.58959,10.86852l1.52911,5.40022c0,0 0,4.3788 -4.3788,4.3788zM191.78085,83.51175l1.12739,0.92089c-0.36397,-0.31256 -0.74079,-0.61898 -1.12739,-0.92089z"/><path d="M239.16597,69.83498c-4.29377,0.85876 -5.15251,-3.43501 -5.15251,-3.43501l-0.57714,-2.96967c-0.63267,-6.14706 -2.73777,-9.57664 -6.75602,-14.23847c-3.5365,-4.17697 -7.75319,-7.6756 -13.26054,-8.96883c-0.10899,-0.02559 -2.31539,-0.02215 -4.42424,-0.23614c0.57238,0.70854 1.07642,1.45462 1.41052,2.0211c2.76043,4.68037 2.8854,5.44945 3.21523,10.83765c0.84369,13.78318 -3.21088,25.02554 -15.02367,32.49453c0,0 -3.71322,2.32077 -6.03396,-1.39245c-2.32076,-3.71322 1.39245,-6.03397 1.39245,-6.03397c9.1966,-5.66644 13.71039,-17.445 10.57472,-28.25581c-0.90302,-3.11333 -8.54495,-10.51246 -7.90617,-12.83836c1.7134,-6.23868 8.98647,-5.94827 13.3856,-5.74627c9.57298,0.43956 17.20848,5.36112 23.31935,12.41918c5.13137,6.01588 7.88203,11.0742 8.81079,18.97073l0.46065,2.21928c0,0 0.85876,4.29376 -3.43501,5.15251z"/><path d="M273.55665,72.48771c-4.35202,0.48356 -4.83558,-3.86846 -4.83558,-3.86846l-0.53898,-4.91146c0,-1.51074 -0.13224,-6.45382 0.26731,-9.068c-2.46519,0.29505 -6.53402,0.12807 -8.16938,0.57865c-6.34591,1.74846 -11.62641,6.65255 -15.2963,11.83011c0,0 -2.54513,3.56317 -6.1083,1.01805c-3.56317,-2.54514 -1.01806,-6.1083 -1.01806,-6.1083c6.38063,-8.87474 15.00364,-14.65513 25.9588,-15.82208c2.81385,-0.29974 11.81626,-1.5104 13.55359,0.39466c1.478,1.6207 -0.44348,13.62272 -0.44348,16.69261l0.49881,4.42863c0,0 0.48356,4.35202 -3.86845,4.83558z"/><path d="M255.37154,168.11703c1.20295,-4.21032 5.41326,-3.00738 5.41326,-3.00738l4.38757,1.3316c2.60794,1.30397 5.06354,2.95961 7.8091,3.94123c9.00858,3.22081 28.05982,3.14623 30.14106,-8.53598c1.77335,-4.52098 1.37543,-7.88711 1.37543,-12.76337c0,-4.39667 0.48862,-9.16243 0.02615,-13.53233c-0.81297,-7.68155 -4.84132,-15.02401 -5.70783,-22.83132c-1.01351,-9.13178 1.26166,-16.0349 4.40381,-24.32773c0.59967,-1.58267 0.78844,-3.35528 0.94489,-5.08898c-5.34422,5.10801 -11.53442,7.86069 -19.17651,10.72648c0,0 -4.09999,1.5375 -5.6375,-2.56249c-1.5375,-4.09999 2.56249,-5.6375 2.56249,-5.6375c8.18694,-3.0701 14.47386,-5.52555 19.67067,-12.83434l2.50145,-4.00231c0.7662,-1.27174 2.16046,-2.12233 3.7534,-2.12233c2.1524,0 3.94209,1.55298 4.30966,3.59958l1.02187,5.10939l-0.03335,0.00668c0.02247,0.05997 0.04466,0.12006 0.06654,0.1803c3.66722,10.08982 -5.27228,18.06568 -5.6627,27.37753c-0.47465,11.32084 4.43396,20.55719 5.6884,31.45146c1.03329,8.97374 1.3208,21.34967 -1.71178,29.74481c-4.25624,16.85116 -27.06536,19.32826 -41.46628,14.29534c-0.31653,-0.11062 -8.22608,-4.07637 -8.7955,-4.36107l-2.87694,-0.74399c0,0 -4.21032,-1.20294 -3.00737,-5.41326z"/></g></g><path d="M219.92103,122.68493c-3.67658,-1.17087 -2.55894,-4.632 -2.50797,-4.78376c-0.46662,-0.25339 -0.87409,-0.59465 -1.19779,-1.00024l-1.13908,-1.3992c-3.04423,1.30536 -5.25171,-0.78576 -6.82535,-3.50059l-0.43585,0.29148l-2.50037,-3.41266c-0.46832,-0.62171 -0.74416,-1.38464 -0.74416,-2.2091c0,-0.53256 0.11509,-1.03946 0.32281,-1.49918c-0.73151,-0.54979 -1.4621,-1.01706 -2.18328,-1.36407c-1.44371,-0.69469 -3.57555,-0.09758 -4.67573,-1.22909c-0.85992,-0.88441 -1.84156,-1.8569 -2.69897,-2.89343c-1.0068,1.77349 -2.48454,3.16759 -4.32993,3.70016c-8.05869,2.3257 -16.70089,-9.0528 -14.39173,-15.0387c1.36842,-3.54729 4.30517,-5.07728 7.67289,-5.94241l1.16538,-1.20378c1.2039,-0.5751 2.40781,-1.15021 3.61172,-1.72532c0,0 3.54433,-1.69314 5.31649,1.69312c0.27557,0.52653 0.42257,1.01213 0.47435,1.45678c0.26967,0.37445 0.48203,0.8436 0.60241,1.43054c0.04972,0.24245 0.07678,0.47101 0.08411,0.68636c1.82483,0.33318 4.35611,0.9672 5.74462,1.30868c2.05946,-4.06317 -1.5874,-8.61671 1.20931,-12.9226c4.39745,-6.7704 15.03703,-6.96572 17.17389,1.71194c0.48147,1.95521 -0.83036,3.93423 -1.24556,5.90133l-1.30362,0.55632l0.34746,0.39603l-3.22266,2.22205c-0.17143,0.12054 -0.35437,0.22881 -0.54715,0.32323c-0.03587,0.4619 -0.07358,0.92321 -0.11793,1.38297c-0.10718,1.11135 0.54198,1.78765 1.42118,2.13479c1.51429,0.59795 3.08149,1.19501 4.35183,2.18374c2.34224,1.82299 3.94115,3.97186 6.00337,5.91328c0.71181,0.47145 1.46161,0.96596 1.90902,1.60072c0.18604,0.13651 0.37683,0.27086 0.57292,0.40286l3.33876,1.59494c0.66663,0.30192 1.23098,0.77635 1.62991,1.36297c2.15403,0.03808 3.88792,1.71823 3.88792,3.78534c0,1.46143 -0.86671,2.72945 -2.1358,3.3605l-3.90222,2.03358l-0.19236,-0.33695c-2.0665,2.17843 -3.6264,4.38859 -4.74437,8.36141l-0.78607,2.27147c0,0 -1.25311,3.5917 -5.01243,2.39447z" fill="#cccccc"/><path d="M252.98486,119.23575l-9.62503,-12.32948c-1.26911,-0.63106 -2.1358,-1.89909 -2.1358,-3.3605c0,-2.06707 1.73389,-3.74724 3.88792,-3.78534c0.39893,-0.58662 0.9633,-1.06106 1.62992,-1.36297l3.33875,-1.59494c0.19611,-0.13203 0.3869,-0.26638 0.57293,-0.40286c0.44742,-0.63475 1.19722,-1.12928 1.90902,-1.60072c2.0622,-1.94143 3.66112,-4.0903 6.00337,-5.91328c1.27035,-0.98874 2.83755,-1.58582 4.35185,-2.18374c1.22872,-0.48513 1.42418,-1.9609 1.30327,-3.51777c-0.19277,-0.09441 -0.37571,-0.20267 -0.54715,-0.32323l-3.22266,-2.22205l0.34746,-0.39603l-1.30362,-0.55632c-0.41519,-1.96716 -1.72703,-3.94614 -1.24556,-5.90133c2.13686,-8.67766 12.77644,-8.48234 17.1739,-1.71194c2.79671,4.30585 -0.85013,8.85944 1.20931,12.9226c1.38851,-0.34143 3.9198,-0.97552 5.74463,-1.30868c0.00732,-0.21539 0.03436,-0.4439 0.08409,-0.68636c0.12036,-0.58697 0.33275,-1.05609 0.60242,-1.43054c0.05178,-0.44465 0.1988,-0.93025 0.47435,-1.45678c1.77216,-3.38628 5.31649,-1.69312 5.31649,-1.69312c1.2039,0.5751 2.4078,1.15022 3.61171,1.72532l1.16539,1.2038c3.36774,0.86513 6.30447,2.39511 7.67289,5.94237c2.30916,5.98589 -6.33305,17.36441 -14.39173,15.0387c-1.8454,-0.53258 -3.32315,-1.92672 -4.32994,-3.70016c-0.85741,1.03655 -1.83906,2.00905 -2.69897,2.89343c-1.10019,1.13151 -3.232,0.53438 -4.67573,1.22909c-0.72118,0.34701 -1.45177,0.81428 -2.18328,1.36407c0.20773,0.45971 0.32281,0.96663 0.32281,1.49918c0,0.82446 -0.27585,1.58738 -0.74416,2.2091l-2.50037,3.41266l-0.43585,-0.29148c-1.57364,2.71483 -3.78112,4.80595 -6.82535,3.50059l-1.13908,1.3992c-0.32371,0.40558 -0.73119,0.74685 -1.19779,1.00024c0.05095,0.15177 1.16863,3.61289 -2.50797,4.78376c-3.75932,1.19723 -5.01243,-2.39447 -5.01243,-2.39447z" data-paper-data="{&quot;index&quot;:null}" fill="#cccccc"/><path d="M258.33803,123.59279c5.6616,1.80304 12.10604,10.39229 12.10604,10.39229c0,0 6.01803,5.84429 9.78073,9.71407c0.85992,0.88441 1.84156,1.8569 2.69897,2.89343c1.0068,-1.77349 2.48454,-3.16759 4.32993,-3.70016c8.05869,-2.3257 16.70089,9.0528 14.39173,15.0387c-1.36842,3.54729 -4.30516,5.07728 -7.67289,5.94241l-1.16538,1.2038c-1.2039,0.5751 -2.40781,1.15022 -3.61172,1.72532c0,0 -3.54433,1.69312 -5.31649,-1.69314c-0.27555,-0.52653 -0.42257,-1.01213 -0.47435,-1.45677c-0.26966,-0.37445 -0.48203,-0.8436 -0.60242,-1.43054c-0.04972,-0.24245 -0.07678,-0.47101 -0.08409,-0.68636c-4.66622,-0.85195 -4.03821,7.12482 -6.95392,11.61392c-4.39745,6.7704 -15.03703,6.96572 -17.1739,-1.71194c-0.48147,-1.95521 0.83036,-3.93423 1.24556,-5.90138l1.30362,-0.55632l-0.34746,-0.39603l3.22266,-2.22205c0.17143,-0.12054 0.35437,-0.22882 0.54715,-0.32323c0.03587,-0.4619 0.07358,-0.92321 0.11791,-1.38297c0.06056,-0.62795 0.94607,-1.27323 0.59183,-1.80533c-0.36536,-0.54881 -1.38386,-0.08105 -2.01302,-0.32945c-1.51429,-0.59795 -3.08149,-1.19501 -4.35183,-2.18374c-2.34224,-1.82299 -3.94115,-3.97186 -6.00337,-5.91328c-0.71181,-0.47145 -1.46158,-0.96596 -1.90902,-1.60072c-0.18604,-0.13651 -0.37683,-0.27086 -0.57293,-0.40286l-3.33875,-1.59494c-0.66663,-0.30192 -1.23099,-0.77635 -1.62992,-1.36297c-2.15403,-0.03808 -3.88792,-1.71823 -3.88792,-3.78531c0,-1.46143 0.86671,-2.72945 2.1358,-3.3605c0,0 7.29533,-4.57252 8.83896,-10.05802l0.78607,-2.27147c0,0 1.25311,-3.5917 5.01243,-2.39447z" data-paper-data="{&quot;index&quot;:null}" fill="#cccccc"/><path d="M225.59453,124.58747l0.78607,2.27147c1.11796,3.97281 2.67788,6.18297 4.74438,8.36141l0.19236,-0.33695l3.90222,2.03358c1.26911,0.63106 2.1358,1.89909 2.1358,3.3605c0,2.06707 -1.73389,3.74724 -3.88792,3.78534c-0.39893,0.58662 -0.9633,1.06106 -1.62991,1.36297l-3.33876,1.59494c-0.19611,0.13203 -0.3869,0.26638 -0.57293,0.40286c-0.44742,0.63475 -1.19721,1.12928 -1.90902,1.60072c-2.0622,1.94143 -3.66112,4.0903 -6.00337,5.91328c-1.27035,0.98874 -2.83754,1.58582 -4.35183,2.18374c-0.62917,0.24841 -1.64766,-0.21936 -2.01302,0.32945c-0.35423,0.53209 0.53127,1.17739 0.59183,1.80533c0.04433,0.45975 0.08205,0.92108 0.11791,1.38297c0.19275,0.09441 0.37571,0.20267 0.54715,0.32323l3.22266,2.22205l-0.34746,0.39603l1.30362,0.55632c0.41519,1.96716 1.72703,3.94614 1.24556,5.90133c-2.13686,8.67766 -12.77644,8.48234 -17.1739,1.71194c-2.79671,-4.30585 0.85013,-8.85944 -1.20931,-12.9226c-1.38851,0.34143 -3.91979,0.97552 -5.74462,1.30868c-0.00732,0.21539 -0.03436,0.4439 -0.08411,0.68636c-0.12036,0.58697 -0.33275,1.05609 -0.60241,1.43054c-0.05181,0.44465 -0.1988,0.93025 -0.47436,1.45677c-1.77215,3.38628 -5.31649,1.69314 -5.31649,1.69314c-1.2039,-0.5751 -2.4078,-1.15022 -3.61171,-1.72532l-1.16538,-1.20378c-3.36772,-0.86513 -6.30447,-2.39511 -7.67289,-5.94237c-2.30916,-5.98589 6.33305,-17.36441 14.39173,-15.0387c1.84538,0.53258 3.32315,1.92672 4.32994,3.70016c0.85741,-1.03655 1.83907,-2.00905 2.69897,-2.89343c1.10019,-1.13151 3.232,-0.53438 4.67571,-1.22909c0.72118,-0.34701 1.4518,-0.81428 2.18331,-1.36407c-0.20773,-0.45971 -0.32281,-0.96663 -0.32281,-1.49918c0,-0.82446 0.27585,-1.58738 0.74416,-2.2091l2.50037,-3.41266l0.43585,0.29148c1.57364,-2.71483 3.78112,-4.80595 6.82535,-3.50059l1.13908,-1.3992c0.32371,-0.40558 0.73119,-0.74685 1.19779,-1.00024c-0.05095,-0.15177 -1.16863,-3.61289 2.50797,-4.78376c3.75932,-1.19723 5.01243,2.39447 5.01243,2.39447z" data-paper-data="{&quot;index&quot;:null}" fill="#cccccc"/><path d="M251.94576,123.92418c0,2.09093 -2.21044,5.36945 -4.39896,5.36945c-3.78074,0 -2.86889,6.4734 -6.534,7.59592c-2.58027,0.79025 -4.87599,-2.34797 -6.98291,-3.97574c-1.01849,-0.78689 -1.23846,-2.2588 -2.19426,-3.1145c-3.57678,-3.20219 -8.1368,-1.82951 -6.96809,-9.69666c0.733,-4.93413 5.84972,-6.81477 10.69915,-6.93017c-0.03375,-0.92258 0.31572,-1.98368 1.5943,-2.93377c3.12794,-2.32434 5.56079,0.6641 5.56079,0.6641z" fill="#cccccc"/><path d="M186.7927,85.9669c0,-0.41819 0.35483,-0.75719 0.79254,-0.75719c0.4377,0 0.79254,0.339 0.79254,0.75719c0,0.41819 -0.35483,0.75719 -0.79254,0.75719c-0.4377,0 -0.79254,-0.339 -0.79254,-0.75719z" fill="#90551d"/><path d="M213.88054,139.45216c0,-0.41819 0.35483,-0.75719 0.79254,-0.75719c0.4377,0 0.79254,0.339 0.79254,0.75719c0,0.41819 -0.35483,0.75719 -0.79254,0.75719c-0.4377,0 -0.79254,-0.339 -0.79254,-0.75719z" fill="#90551d"/><path d="M219.29809,141.17747c0,-0.41819 0.35483,-0.75719 0.79254,-0.75719c0.4377,0 0.79254,0.339 0.79254,0.75719c0,0.41819 -0.35483,0.75719 -0.79254,0.75719c-0.4377,0 -0.79254,-0.339 -0.79254,-0.75719z" fill="#90551d"/><path d="M191.12676,148.42384c0,-0.41819 0.35483,-0.75719 0.79254,-0.75719c0.4377,0 0.79254,0.339 0.79254,0.75719c0,0.41819 -0.35483,0.75719 -0.79254,0.75719c-0.4377,0 -0.79254,-0.339 -0.79254,-0.75719z" fill="#90551d"/><path d="M207.37945,155.67022c0,-0.41819 0.35483,-0.75719 0.79254,-0.75719c0.4377,0 0.79254,0.339 0.79254,0.75719c0,0.41819 -0.35483,0.75719 -0.79254,0.75719c-0.4377,0 -0.79254,-0.339 -0.79254,-0.75719z" fill="#90551d"/><path d="M260.69714,72.94566l-0.83235,-1.80306c-0.15403,-1.04529 -0.935,-2.18187 -0.4621,-3.13587c2.2421,-4.52318 11.13253,-3.09144 14.76159,-1.73272c3.83207,1.43474 6.33353,7.11973 6.72896,10.62175c-0.05478,1.56898 5.09667,0.50399 6.9852,0.6281c2.92704,0.19235 9.10343,1.95584 11.09978,4.1396c4.61793,5.05141 2.30488,10.79973 -0.49403,15.80169c-1.34983,2.4123 -3.78373,6.18518 -7.51371,4.71647c-1.01339,-0.39903 -1.05756,-1.83458 -1.58633,-2.75186c-2.07669,-3.96578 -5.01845,-6.25214 -7.98019,-9.54523c-5.34765,-5.94597 -11.63119,-11.83193 -19.58498,-14.32729c0,0 -1.84475,-0.58749 -1.22984,-2.34999c0.03267,-0.09369 0.06884,-0.1807 0.108,-0.26155z" fill="#ffffff"/><path d="M233.10228,142.86663c1.09905,1.57506 -0.54953,2.62509 -0.54953,2.62509l-1.78298,1.10295c-2.52864,1.06074 -4.60017,2.53105 -6.72059,4.21691c-1.49857,2.58989 -5.27523,4.97202 -5.01015,8.12984c0.22334,2.66064 1.84358,3.25029 2.8019,5.28097c0.95314,2.0197 0.44434,7.71676 -0.91075,9.44748c-4.49685,5.74323 -18.11411,4.33134 -21.10428,-1.59168c-0.69876,-1.79799 -2.44855,-3.58386 -3.00891,-5.30189c-0.29388,-0.90101 0.89861,-2.53202 -0.03828,-2.831c-0.85892,-0.27409 -1.10527,1.47009 -1.93061,1.82608c-2.06288,0.8898 -5.66944,0.93542 -7.83315,0.64248c-11.2382,-1.52155 -14.26094,-14.56055 -8.03254,-22.45008c0.52789,-0.343 4.20035,-2.79531 4.92869,-3.02027c2.95831,-0.9137 4.4817,0.4154 7.20381,0.87302c2.93277,0.49302 7.15739,0.65181 10.05762,0.03357c4.65385,-0.99209 7.28312,-10.09622 10.27227,-13.02038c0,0 0.68736,-0.65672 1.58063,-0.59017c0.16428,-0.12107 0.36617,-0.22929 0.61333,-0.31782c1.85518,-0.66466 2.55088,1.10776 2.55088,1.10776c2.10152,5.81685 8.30311,11.05216 14.22304,13.11473l0.13478,0.09486c0.46681,-0.21988 1.68352,-0.62114 2.55483,0.62757z" fill="#9b9b9b"/><path d="M278.53541,163.46666l0.49643,1.47691c0.46027,1.55991 0.7839,3.18568 0.79909,4.8107c-0.00331,2.5305 0.20465,5.38731 -1.69485,7.43659c-3.95935,4.27156 -12.79789,2.86131 -16.08259,-1.28025c-4.35868,-5.49567 -3.10624,-10.98015 -0.486,-16.59722c-0.3746,-0.42987 -0.70356,-1.13946 -0.1681,-2.09349c0.92873,-1.65479 2.60049,-0.73544 2.60049,-0.73544c0.19401,0.10674 0.38706,0.20918 0.57927,0.30761c0.0985,0.03381 0.2002,0.07616 0.30514,0.1281c0.10317,0.05107 0.19701,0.1052 0.28226,0.16187c3.58814,1.70631 6.92107,2.12503 10.78925,3.55149l1.23613,0.48895c0,0 1.48231,0.58691 1.19646,2.02882c0.1021,0.18197 0.14701,0.31536 0.14701,0.31536z" fill="#9b9b9b"/><path d="M255.65234,121.16278c2.35222,1.40458 0.88209,3.65196 0.88209,3.65196l-1.50986,2.30633c-9.49694,12.96631 -22.23811,22.28693 -35.11339,31.95004c0.62631,0.28152 1.21139,0.61123 1.6572,1.10385c1.66861,1.84387 1.76209,5.09873 1.54728,7.33713c-0.73874,7.69793 -5.87764,13.2454 -14.38007,12.7834c-6.60937,-0.35916 -11.78665,-6.35115 -12.02255,-12.56123c-0.84569,0.89499 -1.62434,1.89761 -2.78087,2.29364c-5.87271,2.01104 -17.74586,-6.02362 -19.44801,-11.21292c-2.04463,-6.23341 2.48217,-18.41013 8.75851,-21.03892c1.05099,-0.4402 6.14952,-0.07439 7.39563,0.18538c2.69498,0.5618 4.75988,1.82212 6.75373,3.35755c3.10097,-3.81221 5.63608,-8.33666 9.20555,-11.60343c8.71111,-7.97237 21.08823,-13.46565 27.85035,-23.22853l2.61202,-2.21421c0,0 2.08755,-1.74516 3.91416,0.24931c1.82662,1.99448 -0.26095,3.73963 -0.26095,3.73963l-2.09434,1.72021c-6.90556,9.82686 -19.20645,15.40679 -28.03761,23.42255c-4.04035,3.66731 -6.77628,9.10362 -10.5079,13.12466c0,0 -0.08158,0.08768 -0.22969,0.20974c-0.01635,0.01856 -0.03306,0.03714 -0.05011,0.05576c-1.82662,1.99448 -3.91415,0.24931 -3.91415,0.24931c-2.39229,-2.00808 -7.08348,-5.70931 -10.77163,-4.27606c-3.43582,1.3352 -6.43086,11.18417 -5.36054,14.37094c1.17588,3.50113 10.89416,9.67752 13.5261,6.39096c0.70709,-0.8648 1.19165,-1.94989 2.12128,-2.5944c1.63046,-1.13047 3.49162,-3.25886 5.38939,-2.61305c1.80833,0.61535 1.64648,3.34927 2.04561,5.14319c0.91253,4.10139 -1.4758,9.09693 4.13625,11.15841c2.19452,0.80613 6.74661,0.47123 8.43672,-1.3292c2.56524,-2.73267 3.75635,-8.98846 -0.11168,-10.4181l-0.5191,-0.13724c0,0 -2.63153,-0.83805 -1.75436,-3.35225c0.46022,-1.31911 1.40339,-1.71545 2.19604,-1.79416c-0.32666,-1.4909 1.07491,-2.54301 1.07491,-2.54301c12.46295,-9.35518 24.91085,-18.30298 34.10999,-30.85422l1.43162,-2.19015c0,0 1.47015,-2.24736 3.82239,-0.84277z" fill="#000000"/><path d="M227.5218,123.02122l1.43161,2.19015c9.19914,12.55126 21.64704,21.49907 34.10999,30.85422c0,0 1.40159,1.05214 1.07491,2.54301c0.79265,0.07871 1.73581,0.47504 2.19604,1.79416c0.87717,2.51419 -1.75436,3.35225 -1.75436,3.35225l-0.5191,0.13724c-3.86803,1.42963 -2.67692,7.68543 -0.11168,10.4181c1.69012,1.80045 6.24222,2.13533 8.43672,1.3292c5.61205,-2.06148 3.22373,-7.057 4.13625,-11.15839c0.39912,-1.7939 0.2373,-4.52782 2.04561,-5.14319c1.89777,-0.64583 3.75895,1.4826 5.38939,2.61305c0.92961,0.64453 1.41419,1.72961 2.12127,2.5944c2.63195,3.28656 12.3502,-2.88982 13.5261,-6.39096c1.07032,-3.18679 -1.92474,-13.03576 -5.36054,-14.37094c-3.68814,-1.43325 -8.37934,2.26801 -10.77163,4.27606c0,0 -2.08754,1.74516 -3.91415,-0.24931c-0.01704,-0.01863 -0.03375,-0.0372 -0.05012,-0.05576c-0.14814,-0.12207 -0.22969,-0.20974 -0.22969,-0.20974c-3.73162,-4.02105 -6.46753,-9.45735 -10.5079,-13.12466c-8.83116,-8.01578 -21.13205,-13.59568 -28.03761,-23.42255l-2.09435,-1.72021c0,0 -2.08755,-1.74516 -0.26095,-3.73963c1.82662,-1.99448 3.91415,-0.24931 3.91415,-0.24931l2.61202,2.21425c6.76211,9.76289 19.13925,15.25618 27.85036,23.22853c3.56948,3.26679 6.10457,7.79123 9.20555,11.60343c1.99385,-1.53542 4.05876,-2.79573 6.75373,-3.35755c1.24612,-0.25975 6.34463,-0.62559 7.39563,-0.18538c6.27634,2.62878 10.80315,14.80549 8.75851,21.03892c-1.70214,5.18927 -13.57528,13.22394 -19.44799,11.21292c-1.15654,-0.39603 -1.93519,-1.3987 -2.78089,-2.29364c-0.23593,6.21009 -5.41318,12.2021 -12.02255,12.56123c-8.50243,0.462 -13.64135,-5.08546 -14.38007,-12.7834c-0.21481,-2.2384 -0.12132,-5.49327 1.54729,-7.33713c0.4458,-0.4926 1.03088,-0.82231 1.65717,-1.10385c-12.87528,-9.66309 -25.61647,-18.98372 -35.11339,-31.95004l-1.50983,-2.30633c0,0 -1.47014,-2.24735 0.88209,-3.65196c2.35222,-1.40458 3.82239,0.84277 3.82239,0.84277z" data-paper-data="{&quot;index&quot;:null}" fill="#000000"/><path d="M222.95666,122.67843c-2.35222,-1.40458 -0.88209,-3.65196 -0.88209,-3.65196l1.50986,-2.30633c9.49694,-12.96631 22.23811,-22.28693 35.11339,-31.95004c-0.62631,-0.28152 -1.21139,-0.61123 -1.6572,-1.10385c-1.66861,-1.84387 -1.76209,-5.09872 -1.54728,-7.33713c0.73874,-7.69793 5.87764,-13.2454 14.38008,-12.7834c6.60937,0.35916 11.78665,6.35113 12.02255,12.56123c0.84569,-0.89499 1.62434,-1.89761 2.78089,-2.29364c5.87271,-2.01104 17.74585,6.02362 19.44799,11.21292c2.04463,6.23341 -2.48217,18.41013 -8.75851,21.03892c-1.05101,0.4402 -6.14952,0.07439 -7.39563,-0.18538c-2.69498,-0.5618 -4.75988,-1.82214 -6.75373,-3.35755c-3.10097,3.81221 -5.63608,8.33666 -9.20555,11.60343c-8.71111,7.97237 -21.08823,13.46565 -27.85036,23.22853l-2.61202,2.21421c0,0 -2.08755,1.74516 -3.91416,-0.24931c-1.82662,-1.99448 0.26095,-3.73963 0.26095,-3.73963l2.09434,-1.72021c6.90556,-9.82686 19.20643,-15.40679 28.03759,-23.42255c4.04035,-3.66731 6.77629,-9.10362 10.5079,-13.12466c0,0 0.08158,-0.08768 0.22971,-0.20974c0.01636,-0.01856 0.03308,-0.03714 0.05011,-0.05576c1.36595,-1.49147 2.8778,-0.89172 3.5535,-0.49434c0.22787,0.134 0.36065,0.24502 0.36065,0.24502c2.39229,2.00808 7.0835,5.70931 10.77163,4.27606c3.43582,-1.3352 6.43086,-11.18417 5.36054,-14.37094c-1.17588,-3.50113 -10.89416,-9.67752 -13.52608,-6.39096c-0.70709,0.8648 -1.19165,1.94989 -2.12127,2.5944c-1.63046,1.13047 -3.49164,3.25886 -5.38939,2.61305c-1.80833,-0.61535 -1.64648,-3.34927 -2.04562,-5.14319c-0.91253,-4.10139 1.47581,-9.0969 -4.13624,-11.15839c-2.19452,-0.80613 -6.74662,-0.47123 -8.43675,1.3292c-2.56524,2.73267 -3.75635,8.98846 0.11168,10.4181l0.5191,0.13724c0,0 2.63152,0.83805 1.75434,3.35225c-0.46022,1.31911 -1.40339,1.71545 -2.19604,1.79416c0.32666,1.4909 -1.0749,2.54301 -1.0749,2.54301c-12.46295,9.35518 -24.91085,18.30298 -34.10999,30.85422l-1.43162,2.19015c0,0 -1.47015,2.24736 -3.82239,0.84277z" data-paper-data="{&quot;index&quot;:null}" fill="#000000"/><path d="M201.64564,105.65132l-0.69244,-1.32963c-1.18375,-2.00188 -4.62914,-5.72975 -7.54162,-3.43322c-2.33757,1.84315 -2.75947,3.8169 -6.46211,3.67379c-3.42051,-0.13217 -4.9196,-1.79069 -7.1914,-3.80658c-5.55998,-4.93369 -4.37425,-10.128 -2.57691,-16.63767c3.60777,-2.87096 8.91714,-8.47908 14.07658,-7.97741c1.4296,0.13901 5.49366,1.56384 6.62842,3.48086c0.37744,-0.94451 0.94398,-2.17605 1.1513,-2.85253c1.13186,-3.69347 2.16443,-6.10087 5.3239,-8.72066c0,0 1.50434,-1.23195 2.79377,0.20533c0.78037,0.86984 0.53747,1.66447 0.22404,2.15633l-0.01044,0.96971c-0.43866,3.35274 -1.5751,6.63261 -1.98439,9.95224c-1.07495,8.71871 0.97658,17.48412 2.94494,25.90676c0,0 0.42981,1.84789 -1.50434,2.25855c-1.93416,0.41064 -2.36397,-1.43725 -2.36397,-1.43725c-0.11412,-0.49284 -0.22836,-0.98664 -0.34215,-1.48138c-1.64874,0.64802 -2.47312,-0.92722 -2.47312,-0.92722z" fill="#9b9b9b"/><path d="M251.0872,122.85135l-1.43161,-2.19015c-9.19914,-12.55126 -21.64704,-21.49907 -34.10999,-30.85422c0,0 -2.53122,-2.21685 -3.27096,-4.33716c-0.87717,-2.51419 1.75436,-3.35225 1.75436,-3.35225l0.5191,-0.13724c3.86803,-1.42963 2.67692,-7.68543 0.11168,-10.4181c-1.69012,-1.80045 -6.24222,-2.13534 -8.43672,-1.3292c-5.61205,2.06148 -3.22372,7.057 -4.13624,11.15841c-0.39912,1.7939 -0.2373,4.52782 -2.04562,5.14319c-1.89777,0.64583 -3.75895,-1.4826 -5.38939,-2.61305c-0.92963,-0.64453 -1.41419,-1.72961 -2.12128,-2.5944c-2.63195,-3.28656 -12.3502,2.88983 -13.52608,6.39096c-1.07032,3.18679 1.92472,13.03576 5.36054,14.37094c3.68815,1.43325 8.37934,-2.26801 10.77163,-4.27606c0,0 2.08754,-1.74516 3.91415,0.24931c0.01704,0.01863 0.03375,0.0372 0.05011,0.05576c0.14814,0.12207 0.22969,0.20974 0.22969,0.20974c3.73162,4.02105 6.46753,9.45735 10.50791,13.12466c8.83116,8.01578 21.13205,13.59568 28.03759,23.42255l2.09435,1.72021c0,0 2.08755,1.74516 0.26095,3.73963c-1.82662,1.99448 -3.91415,0.24931 -3.91415,0.24931l-2.61202,-2.21421c-6.76211,-9.76289 -19.13924,-15.25618 -27.85036,-23.22853c-3.56948,-3.26679 -6.10457,-7.79123 -9.20555,-11.60343c-1.99385,1.53542 -4.05876,2.79573 -6.75373,3.35755c-1.24612,0.25975 -6.34464,0.62559 -7.39563,0.18538c-6.27634,-2.62878 -10.80315,-14.80549 -8.75851,-21.03892c1.70214,-5.18927 13.5753,-13.22394 19.44801,-11.21292c1.15654,0.39603 1.93519,1.3987 2.78087,2.29364c0.2359,-6.2101 5.41321,-12.2021 12.02256,-12.56123c8.50243,-0.462 13.64135,5.08546 14.38008,12.7834c0.21481,2.2384 0.12132,5.49327 -1.54729,7.33713c-0.4458,0.4926 -1.03088,0.82231 -1.65717,1.10385c12.87528,9.66312 25.61647,18.98372 35.11339,31.95004l1.50983,2.30633c0,0 1.47014,2.24735 -0.88209,3.65196c-2.35222,1.40458 -3.82239,-0.84277 -3.82239,-0.84277z" data-paper-data="{&quot;index&quot;:null}" fill="#000000"/><path d="M218.20934,95.81624c-0.35442,0.8576 -1.0633,0.4288 -1.0633,0.4288l-0.48961,-0.29932c-2.66433,-1.93757 -4.69049,-5.72165 -6.55238,-8.69218c0,0 -0.47552,-0.76706 0.1585,-1.34237c0.63402,-0.57529 1.10954,0.19176 1.10954,0.19176c1.68524,2.75486 3.63768,6.41458 6.09985,8.1984l0.38296,0.22849c0,0 0.70886,0.42881 0.35442,1.2864z" fill="#000000"/><path d="M243.6808,118.88198c-0.65941,0.53186 -1.09905,-0.26594 -1.09905,-0.26594l-0.1313,-0.466c-0.9982,-0.63175 -4.31601,-6.73785 -3.87029,-1.64935c0,0 0,0.95884 -0.79254,0.95884c-0.79254,0 -0.79254,-0.95884 -0.79254,-0.95884c0.04793,-1.13025 1.37148,-4.50094 2.75582,-4.38974c1.31838,0.10593 2.09964,3.58436 3.40843,4.32385l0.74128,1.11749c0,0 0.43963,0.79779 -0.21982,1.32967z" fill="#000000"/><path d="M220.47441,149.49006c0,0.95884 -0.79254,0.95884 -0.79254,0.95884l-0.02593,-0.02862c-1.82734,0.50335 -4.10348,2.30738 -5.22986,4.13167c0,0 -0.47552,0.76706 -1.10954,0.19176c-0.63402,-0.57529 -0.1585,-1.34237 -0.1585,-1.34237c1.37035,-2.20256 3.91098,-4.13312 6.1135,-4.84146l0.41035,-0.02862c0,0 0.79254,0 0.79254,0.95884z" fill="#000000"/><path d="M187.31687,99.34616c0,0.95884 -0.79254,0.95884 -0.79254,0.95884h-0.43629c-1.90978,0 -3.07829,-0.12259 -3.19208,-2.80623c0,0 0,-0.95884 0.79254,-0.95884c0.79254,0 0.79254,0.95884 0.79254,0.95884c-0.12204,1.39313 0.6801,0.88858 1.60702,0.88858h0.43629c0,0 0.79254,0 0.79254,0.95884z" fill="#000000"/><path d="M295.37705,94.49887c-0.79254,0 -0.79254,-0.95884 -0.79254,-0.95884v-0.79174c0,-2.86533 -4.129,-11.97674 -6.93645,-8.29514c0,0 -0.5604,0.67802 -1.12082,0c-0.5604,-0.67802 0,-1.356 0,-1.356c4.34639,-4.99898 9.64234,5.18655 9.64234,9.65114v0.79174c0,0 0,0.95884 -0.79254,0.95884z" fill="#000000"/><path d="M287.42994,148.81209c0.5604,0.678 0,1.356 0,1.356l-0.21813,0.26392c-4.13907,4.91116 -8.70214,1.65721 -11.44709,-2.74185c0,0 -0.47552,-0.76706 0.1585,-1.34237c0.63402,-0.57529 1.10954,0.19176 1.10954,0.19176c2.12073,3.44067 5.66438,6.74905 9.05822,2.53646l0.21813,-0.26392c0,0 0.5604,-0.678 1.12082,0z" fill="#000000"/><path d="M256.40972,96.17921c0,-0.95884 0.79254,-0.95884 0.79254,-0.95884h0.21813c1.08838,0.13955 1.25999,-1.33088 1.69069,-2.37304c0,0 0.35444,-0.8576 1.0633,-0.42881c0.70886,0.42881 0.35444,1.2864 0.35444,1.2864c-0.79534,1.92449 -1.15691,3.31196 -3.10844,3.43312h-0.21813c0,0 -0.79254,0 -0.79254,-0.95884z" fill="#000000"/></g></g></svg>