<svg version="1.1" xmlns="http://www.w3.org/2000/svg" xmlns:xlink="http://www.w3.org/1999/xlink" width="154.5792" height="109.25606" viewBox="0,0,154.5792,109.25606"><g transform="translate(-161.9692,-73.0277)"><g data-paper-data="{&quot;isPaintingLayer&quot;:true}" fill-rule="nonzero" stroke-linecap="butt" stroke-linejoin="miter" stroke-miterlimit="10" stroke-dasharray="" stroke-dashoffset="0" style="mix-blend-mode: normal"><path d="M290.88541,174.57158c0,0 -0.04576,0.00006 -0.12484,0.00624c-0.07908,-0.00619 -0.12484,-0.00615 -0.12484,-0.00615l-2.74655,0.00101c-14.3586,0.00747 -28.6684,1.02941 -43.05094,1.51399c-5.3272,0.17948 -10.55328,0.99757 -15.90118,0.9959c-7.44642,0 -15.07755,0.4243 -22.50235,-0.2466c-3.38863,-0.30619 -6.56017,-1.37964 -9.92065,-1.74434c-9.53569,-1.03487 -18.94485,-1.79618 -28.38853,-0.55367c-0.17251,-2.83094 -0.42293,-5.69356 -0.13091,-8.47729c1.57214,-14.98648 4.64365,-29.21117 12.82846,-42.07426c1.48562,-2.27972 1.67476,-5.38912 3.20468,-7.4337c1.57472,-2.10444 4.09547,-2.80538 6.46895,-3.49094c12.4301,-3.59035 15.80104,11.28858 20.6133,19.5455c1.51544,2.60021 3.63297,4.69137 5.35091,7.15314l-0.12776,0.17093c0,0 0.60321,2.42015 3.02856,1.81382c2.42536,-0.60634 1.73485,-2.97781 1.73485,-2.97781l-0.62895,-1.82961c-1.63105,-2.32356 -3.71918,-4.36657 -5.13208,-6.82658c-2.22979,-3.88232 -4.10793,-8.67461 -6.56931,-12.84485c0.29544,-0.48715 0.37996,-0.95065 0.37996,-0.95065c1.11939,-6.20845 4.83871,-11.14128 8.35601,-16.28086c1.41382,-2.06592 2.57521,-4.94461 4.12038,-6.81945c1.86195,-2.25919 4.81743,-4.17473 6.88437,-6.36347c2.93279,-3.1056 6.08327,-6.63793 9.79301,-8.77919c1.1233,0.03569 3.45766,0.0242 4.51347,0.42281c2.52964,0.95505 4.80545,3.42664 7.48336,4.06885c1.19056,0.28552 4.71809,-0.04523 6.16773,0.07321c2.54209,0.20769 5.19954,1.20319 7.57179,2.09885c10.48173,3.95746 17.42363,13.00541 25.03219,20.60629c4.08642,4.5917 2.12088,9.84928 3.96265,15.35562c0.97825,2.9247 3.55729,4.88332 5.38458,7.21308c1.61871,2.06382 2.86283,4.60309 3.93593,6.98881c2.07477,4.61263 4.38108,10.3532 4.77645,15.44306c0.25449,3.2762 0.17809,5.83772 1.04613,9.04775c0.69688,3.75824 2.50522,7.11807 3.21854,10.86842c0.14398,0.757 0.14975,1.53474 0.22451,2.30168c0.02859,0.29334 0.34607,0.74414 0.08476,0.88046c-1.18212,0.61671 -5.4989,-0.12538 -6.83497,-0.12312c-3.88959,0.00659 -7.41319,1.28715 -11.23523,1.25213l-2.74647,0.00097z" data-paper-data="{&quot;noHover&quot;:false,&quot;origItem&quot;:[&quot;Path&quot;,{&quot;applyMatrix&quot;:true,&quot;segments&quot;:[[580.94943,349.07548],[[586.44063,349.07548],[0,0],[7.64408,0.07004]],[[608.90461,346.57948],[-7.77918,0.01318],[2.67214,-0.00452]],[[622.57207,346.82946],[-2.36424,1.23342],[0.52262,-0.27264]],[[622.40211,345.06924],[0.05718,0.58668],[-0.14952,-1.53388]],[[621.95193,340.46774],[0.28796,1.514],[-1.42664,-7.5007]],[[615.51009,318.73994],[1.39376,7.51648],[-1.7361,-6.42008]],[[613.41375,300.6546],[0.50898,6.5524],[-0.79074,-10.17974]],[[603.85629,269.7889],[4.14954,9.22526],[-2.1462,-4.77144]],[[595.98375,255.82236],[3.23742,4.12764],[-3.65458,-4.65952]],[[585.21543,241.4096],[1.9565,5.8494],[-3.68354,-11.01268]],[[577.29819,210.72668],[8.17284,9.1834],[-15.21712,-15.20176]],[[527.27577,169.55994],[20.96346,7.91492],[-4.7445,-1.79132]],[[512.14665,165.36894],[5.08418,0.41538],[-2.89928,-0.23688]],[[499.82325,165.22612],[2.38112,0.57104],[-5.35582,-1.28442]],[[484.87309,157.09084],[5.05928,1.9101],[-2.11162,-0.79724]],[[475.85529,156.24534],[2.2466,0.07138],[-7.41948,4.28252]],[[456.29293,173.80012],[5.86558,-6.2112],[-4.13388,4.37746]],[[442.54419,186.5191],[3.7239,-4.51838],[-3.09034,3.74966]],[[434.31955,200.14734],[2.82764,-4.13184],[-7.0346,10.27916]],[[417.63845,232.66596],[2.23878,-12.4169],[0,0]],[[416.87957,234.5643],[0.59088,-0.9743],[4.92276,8.34048]],[[430.02283,260.2123],[-4.45958,-7.76464],[2.8258,4.92002]],[[440.27765,273.83222],[-3.2621,-4.64712],[0,0]],[441.53139,277.48366],[[437.89335,283.54704],[4.85072,-1.21268],[-4.8507,1.21268]],[431.82997,279.90902],[[432.08533,279.56684],[0,0],[-3.43588,-4.92354]],[[421.37375,265.23156],[3.03088,5.20042],[-9.62452,-16.51384]],[[380.14979,226.0952],[24.8602,-7.1807],[-4.74696,1.37112]],[[367.40587,233.12492],[3.14944,-4.20888],[-3.05984,4.08916]],[[360.99825,247.97902],[2.97124,-4.55944],[-16.36962,25.72618]],[[335.32969,332.0742],[3.14428,-29.97296],[-0.58404,5.56746]],[[335.58703,349.0212],[-0.34502,-5.66188],[18.88736,-2.48502]],[[392.34783,350.10942],[-19.07138,-2.06974],[6.72096,0.7294]],[[412.17787,353.58922],[-6.77726,-0.61238],[14.8496,1.3418]],[[457.14791,354.06748],[-14.89284,0],[10.6958,0.00334]],[[488.91847,352.07386],[-10.6544,0.35896],[28.76508,-0.96916]],[[574.95907,349.07548],[-28.7172,0.01494],[0,0]],[580.45025,349.07548],[[580.69985,349.08786],[-0.15816,-0.01238],[0.15816,-0.01236]],[580.94945,349.07548]],&quot;closed&quot;:true,&quot;fillColor&quot;:[0,0,0,1],&quot;strokeWidth&quot;:0.5}]}" fill="#00cc2a" stroke="none" stroke-width="0.25"/><g stroke="none" stroke-width="0.5"><g fill="#00941e"><g><path d="M249.20823,177.37075l-2.01317,0.59553c-1.17234,0.24527 -2.33836,0.39593 -3.50415,0.48716c-4.15981,-1.40017 -9.61047,-0.79823 -13.45113,-0.82322c-0.5068,-0.0033 -1.01509,-0.00351 -1.5247,-0.00105c-0.09062,-0.11312 -0.17161,-0.2343 -0.24173,-0.36227c-0.91027,0.13079 -1.83003,0.25688 -2.76477,0.3712c-0.11876,0.01452 -0.23749,0.02836 -0.35618,0.04152c-2.17702,0.0519 -4.37169,0.13605 -6.57222,0.22214c-2.55133,-0.04329 -5.10059,-0.15792 -7.6649,-0.06342c-2.82649,0.10416 -5.70627,0.46407 -8.52586,-0.03651c-0.40353,-0.07164 -0.80602,-0.15835 -1.20762,-0.25643c-0.29647,0.08575 -0.59517,0.16775 -0.89399,0.24432c-2.29752,-0.37537 -4.54698,-0.83596 -6.93952,-0.40568l-1.588,-0.88222c-0.51573,-0.27375 -0.92419,-0.72277 -1.14599,-1.26765c-0.41446,-0.14135 -0.82641,-0.28709 -1.23519,-0.43695c-4.62535,-0.22118 -9.4741,0.36952 -13.95044,0.49577c-1.85287,0.05226 -3.72628,0.9459 -5.53463,0.53884c-1.59204,-0.35836 -3.4952,-0.83232 -4.36773,-2.21134c-0.75548,-1.19403 0.12453,-2.82586 0.29296,-4.22875c0.08789,-0.73199 0.26696,-1.44583 0.47703,-2.15382c-0.48543,-1.11044 -0.73573,-2.29212 -0.5546,-4.00445c0.13644,-1.28983 0.75729,-2.79616 1.47518,-4.29483c-0.22795,-1.92149 -0.44744,-3.83579 0.15384,-5.53524c0.36483,-1.03114 1.28716,-1.76372 1.96659,-2.62637c-0.06804,-2.68931 -0.06214,-5.50286 0.7548,-7.90309c0.58635,-1.72276 1.91739,-3.11685 2.57718,-4.81284c0.05034,-0.1294 0.10021,-0.25923 0.14973,-0.38939c-1.2889,-2.36814 -0.79784,-3.92205 1.26873,-7.53858c0.47593,-0.83289 1.99763,-1.3195 3.72865,-1.63189c2.13924,-3.71399 0.98222,-7.7057 5.09553,-10.54378c0.8375,-0.57785 1.88603,-0.7643 2.82905,-1.14644c0,0 0.11653,-0.04482 0.30752,-0.08839c0.14991,-0.18852 0.30887,-0.33919 0.47253,-0.45839c12.61144,11.9027 21.31602,17.77848 37.86521,22.95989c21.22469,6.64528 33.80125,9.64541 56.03985,9.94894c6.56674,0.08964 14.0043,1.77811 19.46229,3.23525c3.88599,1.03746 6.7685,0.69192 7.61874,5.28981c0.92136,4.9825 9.12257,7.69136 4.95954,14.97664c-0.28409,0.49716 -1.08659,0.44738 -1.49148,0.85227c-0.40489,0.40489 -0.35511,1.20739 -0.85227,1.49148c-3.49347,1.99627 -4.15307,0.03419 -7.3682,0.03245c-10.20367,-0.00552 -18.54927,0.0602 -28.07125,0.65301c-7.16812,0.44627 -14.36379,0.09378 -21.5458,0.09579c-0.80706,0.00023 -1.61689,0.00309 -2.42926,0.00824c-0.39301,1.17061 -1.70018,1.56276 -1.70018,1.56276z"/></g></g><path d="M212.77751,137.45412c-0.65742,-0.03398 -1.28167,-0.23748 -1.74194,-0.64243c-0.26945,-0.12855 -0.51227,-0.30392 -0.71794,-0.51558c1.51862,0.68381 3.19413,1.05688 4.94499,1.32961c-0.82113,-0.07047 -1.64869,-0.12837 -2.4851,-0.1716z" fill="#000000"/></g><path d="M290.47472,174.53774h2.7456c3.82204,0.03502 7.3424,-1.24141 11.23199,-1.248c1.33607,-0.00226 5.65161,0.7417 6.83373,0.12499c0.26131,-0.13632 -0.05639,-0.58677 -0.08498,-0.88011c-0.07476,-0.76694 -0.08111,-1.54375 -0.22509,-2.30075c-0.71332,-3.75035 -2.52404,-7.10566 -3.22092,-10.8639c-0.86805,-3.21004 -0.79368,-5.76647 -1.04817,-9.04267c-0.39537,-5.08987 -2.70396,-10.82022 -4.77873,-15.43285c-1.0731,-2.38572 -2.31756,-4.91945 -3.93627,-6.98327c-1.82729,-2.32976 -4.40591,-4.28168 -5.38416,-7.20638c-1.84177,-5.50634 0.1278,-10.74976 -3.95862,-15.34146c-7.60856,-7.60088 -14.52948,-16.62591 -25.01121,-20.58337c-2.37225,-0.89566 -5.02247,-1.88781 -7.56456,-2.0955c-1.44964,-0.11844 -4.97114,0.21411 -6.1617,-0.07141c-2.67791,-0.64221 -4.94544,-3.11259 -7.47508,-4.06764c-1.05581,-0.39862 -3.3856,-0.38706 -4.5089,-0.42275c-3.70974,2.14126 -6.84839,5.67179 -9.78118,8.77739c-2.06694,2.18873 -5.01242,4.1003 -6.87437,6.35949c-1.54517,1.87483 -2.6985,4.7482 -4.11232,6.81412c-3.5173,5.13958 -7.22116,10.05086 -8.34055,16.25931c0,0 -0.084,0.46202 -0.37944,0.94917c2.46138,4.17024 4.34184,8.94168 6.57163,12.824c1.4129,2.46001 3.49636,4.4864 5.12741,6.80996l0.62687,1.82572c0,0 0.60634,2.42535 -1.81902,3.03169c-2.42535,0.60634 -3.03169,-1.81901 -3.03169,-1.81901l0.12768,-0.17109c-1.71794,-2.46177 -3.84035,-4.56743 -5.35579,-7.16764c-4.81226,-8.25692 -8.18188,-23.15853 -20.61198,-19.56818c-2.37348,0.68556 -4.79724,1.41042 -6.37196,3.51486c-1.52992,2.04458 -1.71819,5.14733 -3.20381,7.42705c-8.18481,12.86309 -11.26214,27.06111 -12.83428,42.04759c-0.29202,2.78373 -0.04384,5.64256 0.12867,8.4735c9.44368,-1.24251 18.84471,-0.49076 28.3804,0.54411c3.36048,0.3647 6.52639,1.43371 9.91502,1.7399c7.4248,0.6709 15.0386,0.23913 22.48502,0.23913c5.3479,0.00167 10.55808,-0.81733 15.88528,-0.99681c14.38254,-0.48458 28.6617,-1.49172 43.0203,-1.49919h2.74559c0,0 0.04572,0 0.1248,0.00619c0.07908,-0.00618 0.1248,-0.00619 0.1248,-0.00619zM213.03132,97.25308c1.48519,-2.17112 2.7462,-5.18562 4.37408,-7.16348c1.94299,-2.3607 4.95822,-4.34874 7.10322,-6.6197c3.70099,-3.91831 7.40651,-7.66454 12.18361,-10.1922c2.64452,-0.04778 4.9063,-0.33258 7.4719,0.57565c2.31737,0.82035 4.60169,3.35463 7.00172,3.91956c1.72628,0.40634 3.55376,-0.23242 5.31989,-0.07141c3.01344,0.27472 6.0935,1.31643 8.90904,2.39729c11.25543,4.32089 18.70299,13.63822 26.90557,21.84862c1.86542,2.15877 2.53534,2.5495 3.53427,5.38942c1.31205,3.73012 0.35523,7.92015 1.49272,11.71711c0.65473,2.1855 3.26648,4.04639 4.59983,5.77282c1.85323,2.39957 3.30751,5.2325 4.55012,7.99273c2.31465,5.14155 4.70561,11.34685 5.20527,17.01513c0.28168,3.19548 0.09658,5.33327 0.94863,8.42932c0.83934,4.72 4.36925,9.86289 3.54278,14.79054c-0.24293,1.44841 -0.47327,3.14943 -1.58258,4.11189c-1.54329,1.33899 -5.39857,1.12041 -7.39347,1.12339c-4.80919,0.00719 -9.24926,1.21401 -13.9776,1.248h-2.7456c0,0 -0.04572,0 -0.1248,-0.00618c-0.07908,0.00618 -0.1248,0.00618 -0.1248,0.00618h-2.74559c-14.29861,-0.007 -28.51649,1.02396 -42.84207,1.49601c-5.38486,0.17744 -10.65567,0.99838 -16.06351,0.99999c-7.59906,0 -15.36595,0.4325 -22.94216,-0.26007c-3.43711,-0.3142 -6.65099,-1.39517 -10.05298,-1.7545c-9.47369,-1.00066 -18.78237,-1.80045 -28.16095,-0.40774c-0.35599,0.49961 -0.96179,0.92471 -1.99268,0.92471c-0.87016,0 -1.43745,-0.30288 -1.80729,-0.69778c-0.5999,-0.23731 -1.1948,-0.75327 -1.39869,-1.8407c-0.20596,-1.09849 0.17123,-1.79797 0.65134,-2.23566c-0.14876,-3.39108 -0.52754,-6.82649 -0.18423,-10.18761c1.61281,-15.79015 5.00905,-30.77856 13.62331,-44.31397c2.70502,-3.93852 2.35548,-7.53771 6.67204,-10.68176c1.71123,-1.24641 3.73056,-1.77533 5.71698,-2.33792c2.89956,-0.82121 3.3104,-1.10503 6.36996,-0.83809c4.10969,0.35856 7.17731,2.18705 9.64136,4.78296c1.72625,-5.47625 5.01415,-10.09788 8.32137,-14.93253z" fill="#000000" stroke="#000000" stroke-width="0.5"/><path d="M247.3687,110.01478c0,-0.9665 0.7835,-1.75 1.75,-1.75c0.9665,0 1.75,0.7835 1.75,1.75c0,0.9665 -0.7835,1.75 -1.75,1.75c-0.9665,0 -1.75,-0.7835 -1.75,-1.75z" fill="#000000" stroke="none" stroke-width="0.5"/><path d="M284.10641,135.05085c0,-0.9665 0.7835,-1.75 1.75,-1.75c0.9665,0 1.75,0.7835 1.75,1.75c0,0.9665 -0.7835,1.75 -1.75,1.75c-0.9665,0 -1.75,-0.7835 -1.75,-1.75z" fill="#000000" stroke="none" stroke-width="0.5"/><path d="M188.04411,126.61479c0,-0.9665 0.7835,-1.75 1.75,-1.75c0.9665,0 1.75,0.7835 1.75,1.75c0,0.9665 -0.7835,1.75 -1.75,1.75c-0.9665,0 -1.75,-0.7835 -1.75,-1.75z" fill="#000000" stroke="none" stroke-width="0.5"/><path d="M181.51296,159.54266c0,-0.9665 0.7835,-1.75 1.75,-1.75c0.9665,0 1.75,0.7835 1.75,1.75c0,0.9665 -0.7835,1.75 -1.75,1.75c-0.9665,0 -1.75,-0.7835 -1.75,-1.75z" fill="#000000" stroke="none" stroke-width="0.5"/><path d="M229.95231,162.80823c0,-0.9665 0.7835,-1.75 1.75,-1.75c0.9665,0 1.75,0.7835 1.75,1.75c0,0.9665 -0.7835,1.75 -1.75,1.75c-0.9665,0 -1.75,-0.7835 -1.75,-1.75z" fill="#000000" stroke="none" stroke-width="0.5"/><path d="M232.94575,123.34921c0,-0.9665 0.7835,-1.75 1.75,-1.75c0.9665,0 1.75,0.7835 1.75,1.75c0,0.9665 -0.7835,1.75 -1.75,1.75c-0.9665,0 -1.75,-0.7835 -1.75,-1.75z" fill="#000000" stroke="none" stroke-width="0.5"/><path d="M268.86706,160.90331c0,-0.9665 0.7835,-1.75 1.75,-1.75c0.9665,0 1.75,0.7835 1.75,1.75c0,0.9665 -0.7835,1.75 -1.75,1.75c-0.9665,0 -1.75,-0.7835 -1.75,-1.75z" fill="#000000" stroke="none" stroke-width="0.5"/><path d="M272.6769,105.38855c0,-0.9665 0.7835,-1.75 1.75,-1.75c0.9665,0 1.75,0.7835 1.75,1.75c0,0.9665 -0.7835,1.75 -1.75,1.75c-0.9665,0 -1.75,-0.7835 -1.75,-1.75z" fill="#000000" stroke="none" stroke-width="0.5"/><path d="M228.31952,98.58528c0,-0.9665 0.7835,-1.75 1.75,-1.75c0.9665,0 1.75,0.7835 1.75,1.75c0,0.9665 -0.7835,1.75 -1.75,1.75c-0.9665,0 -1.75,-0.7835 -1.75,-1.75z" fill="#000000" stroke="none" stroke-width="0.5"/><path d="M249.54575,143.21479c0,-0.9665 0.7835,-1.75 1.75,-1.75c0.9665,0 1.75,0.7835 1.75,1.75c0,0.9665 -0.7835,1.75 -1.75,1.75c-0.9665,0 -1.75,-0.7835 -1.75,-1.75z" fill="#000000" stroke="none" stroke-width="0.5"/><path d="M209.8146,147.29675c0,-0.9665 0.7835,-1.75 1.75,-1.75c0.9665,0 1.75,0.7835 1.75,1.75c0,0.9665 -0.7835,1.75 -1.75,1.75c-0.9665,0 -1.75,-0.7835 -1.75,-1.75z" fill="#000000" stroke="none" stroke-width="0.5"/></g></g></svg>