<svg version="1.1" xmlns="http://www.w3.org/2000/svg" xmlns:xlink="http://www.w3.org/1999/xlink" width="154.13674" height="108.96919" viewBox="0,0,154.13674,108.96919"><g transform="translate(-160.0514,-76.22556)"><g data-paper-data="{&quot;isPaintingLayer&quot;:true}" fill-rule="nonzero" stroke="none" stroke-width="0.5" stroke-linecap="butt" stroke-linejoin="miter" stroke-miterlimit="10" stroke-dasharray="" stroke-dashoffset="0" style="mix-blend-mode: normal"><path d="M288.40128,177.98806c0,0 -0.04576,0.00006 -0.12484,0.00624c-0.07908,-0.00619 -0.12484,-0.00615 -0.12484,-0.00615l-2.74655,0.00101c-14.3586,0.00747 -28.66839,1.02941 -43.05093,1.51399c-5.3272,0.17948 -10.55328,0.99757 -15.90118,0.9959c-7.44642,0 -15.07754,0.42431 -22.50234,-0.24659c-3.38863,-0.30619 -6.56017,-1.37964 -9.92065,-1.74434c-9.53569,-1.03487 -18.94485,-1.79618 -28.38853,-0.55367c-0.17251,-2.83094 -0.42294,-5.69356 -0.13092,-8.47729c1.57214,-14.98648 4.64366,-29.21117 12.82847,-42.07426c1.48562,-2.27972 1.67475,-5.38912 3.20467,-7.4337c1.57472,-2.10444 4.09547,-2.80538 6.46895,-3.49094c12.4301,-3.59035 15.80104,11.28858 20.6133,19.5455c1.51544,2.60021 3.63297,4.69137 5.35091,7.15314l-0.12776,0.17093c0,0 0.60321,2.42015 3.02856,1.81381c2.42536,-0.60634 1.73484,-2.97781 1.73484,-2.97781l-0.62895,-1.82961c-1.63105,-2.32356 -3.71918,-4.36657 -5.13208,-6.82658c-2.22979,-3.88232 -4.10792,-8.67461 -6.5693,-12.84485c0.29544,-0.48715 0.37996,-0.95064 0.37996,-0.95064c1.11939,-6.20845 4.83871,-11.14129 8.35601,-16.28087c1.41382,-2.06592 2.57522,-4.94461 4.12039,-6.81944c1.86195,-2.25919 4.81743,-4.17474 6.88437,-6.36347c2.93279,-3.1056 6.08327,-6.63793 9.79301,-8.77919c1.1233,0.03569 3.45766,0.0242 4.51347,0.42282c2.52964,0.95505 4.80545,3.42663 7.48336,4.06884c1.19056,0.28552 4.71809,-0.04523 6.16773,0.07321c2.54209,0.20769 5.19954,1.20319 7.57179,2.09885c10.48173,3.95746 17.42363,13.00541 25.03219,20.60629c4.08642,4.5917 2.12088,9.84928 3.96265,15.35562c0.97825,2.9247 3.55729,4.88332 5.38458,7.21308c1.61871,2.06382 2.86284,4.60309 3.93594,6.98881c2.07477,4.61263 4.38107,10.3532 4.77644,15.44307c0.25449,3.2762 0.17809,5.83771 1.04614,9.04775c0.69688,3.75824 2.50521,7.11807 3.21853,10.86842c0.14398,0.757 0.14976,1.53475 0.22452,2.30169c0.02859,0.29334 0.34607,0.74414 0.08476,0.88046c-1.18212,0.61671 -5.49891,-0.12538 -6.83498,-0.12312c-3.88959,0.00659 -7.41319,1.28715 -11.23523,1.25213l-2.74647,0.00097z" data-paper-data="{&quot;noHover&quot;:false,&quot;origItem&quot;:[&quot;Path&quot;,{&quot;applyMatrix&quot;:true,&quot;segments&quot;:[[310.79688,202.98877],[[313.54248,202.98877],[0,0],[3.82204,0.03502]],[[324.77447,201.74077],[-3.88959,0.00659],[1.33607,-0.00226]],[[331.6082,201.86576],[-1.18212,0.61671],[0.26131,-0.13632]],[[331.52322,200.98565],[0.02859,0.29334],[-0.07476,-0.76694]],[[331.29813,198.6849],[0.14398,0.757],[-0.71332,-3.75035]],[[328.07721,187.821],[0.69688,3.75824],[-0.86805,-3.21004]],[[327.02904,178.77833],[0.25449,3.2762],[-0.39537,-5.08987]],[[322.25031,163.34548],[2.07477,4.61263],[-1.0731,-2.38572]],[[318.31404,156.36221],[1.61871,2.06382],[-1.82729,-2.32976]],[[312.92988,149.15583],[0.97825,2.9247],[-1.84177,-5.50634]],[[308.97126,133.81437],[4.08642,4.5917],[-7.60856,-7.60088]],[[283.96005,113.231],[10.48173,3.95746],[-2.37225,-0.89566]],[[276.39549,111.1355],[2.54209,0.20769],[-1.44964,-0.11844]],[[270.23379,111.06409],[1.19056,0.28552],[-2.67791,-0.64221]],[[262.75871,106.99645],[2.52964,0.95505],[-1.05581,-0.39862]],[[258.24981,106.5737],[1.1233,0.03569],[-3.70974,2.14126]],[[248.46863,115.35109],[2.93279,-3.1056],[-2.06694,2.18873]],[[241.59426,121.71058],[1.86195,-2.25919],[-1.54517,1.87483]],[[237.48194,128.5247],[1.41382,-2.06592],[-3.5173,5.13958]],[[229.14139,144.78401],[1.11939,-6.20845],[0,0]],[[228.76195,145.73318],[0.29544,-0.48715],[2.46138,4.17024]],[[235.33358,158.55718],[-2.22979,-3.88232],[1.4129,2.46001]],[[240.46099,165.36714],[-1.63105,-2.32356],[0,0]],[241.08786,167.19286],[[239.26884,170.22455],[2.42536,-0.60634],[-2.42535,0.60634]],[236.23715,168.40554],[[236.36483,168.23445],[0,0],[-1.71794,-2.46177]],[[231.00904,161.06681],[1.51544,2.60021],[-4.81226,-8.25692]],[[210.39706,141.49863],[12.4301,-3.59035],[-2.37348,0.68556]],[[204.0251,145.01349],[1.57472,-2.10444],[-1.52992,2.04458]],[[200.82129,152.44054],[1.48562,-2.27972],[-8.18481,12.86309]],[[187.98701,194.48813],[1.57214,-14.98648],[-0.29202,2.78373]],[[188.11568,202.96163],[-0.17251,-2.83094],[9.44368,-1.24251]],[[216.49608,203.50574],[-9.53569,-1.03487],[3.36048,0.3647]],[[226.4111,205.24564],[-3.38863,-0.30619],[7.4248,0.6709]],[[248.89612,205.48477],[-7.44642,0],[5.3479,0.00167]],[[264.7814,204.48796],[-5.3272,0.17948],[14.38254,-0.48458]],[[307.8017,202.98877],[-14.3586,0.00747],[0,0]],[310.54729,202.98877],[[310.67209,202.99496],[-0.07908,-0.00619],[0.07908,-0.00618]],[310.79689,202.98877]],&quot;closed&quot;:true,&quot;fillColor&quot;:[0,0,0,1]}]}" fill="#ff2626"/><path d="M294.4798,130.30202c0,0 0.63775,1.59482 2.17598,1.61369c1.27407,1.8546 2.30459,3.98216 3.21145,5.99829c2.07477,4.61263 4.38374,10.35617 4.77911,15.44604c0.25449,3.2762 0.17891,5.83951 1.04696,9.04955c0.69688,3.75824 2.50545,7.12019 3.21877,10.87054c0.14398,0.757 0.14977,1.53514 0.22453,2.30208c0.02859,0.29334 0.34607,0.74428 0.08476,0.8806c-1.18212,0.61671 -5.49854,-0.12539 -6.83461,-0.12313c-3.88959,0.00659 -7.41266,1.28776 -11.2347,1.25274l-2.74635,0.00115c0,0 -0.04576,0.00007 -0.12484,0.00625c-0.07908,-0.00619 -0.12483,-0.00614 -0.12483,-0.00614l-2.74647,0.00123c-9.99988,0.0052 -19.9842,0.51257 -29.96878,0.97331c-0.73232,-0.88311 -1.98388,-0.88233 -1.98388,-0.88233l-2.6288,0.00105c-3.44028,0 -6.87939,0.07958 -10.3087,-0.20914c-13.74293,-1.13433 -29.5596,0.06047 -41.78452,-7.74215c-3.81646,-2.43587 -7.12035,-5.9493 -10.11155,-9.30908c-3.72005,-5.12606 -6.3507,-10.01816 -8.5762,-15.94757c-0.65758,-1.752 -1.38987,-2.82879 -1.60969,-4.68222c-0.86401,-7.2849 1.15945,-15.16965 4.91687,-21.39251c0,0 0.16729,-0.27892 0.28065,-0.69529c1.30201,-0.78454 2.80438,-1.23013 4.28593,-1.65806c12.4301,-3.59035 15.89102,11.35088 20.70328,19.6078c1.51544,2.60021 3.63978,4.69748 5.35772,7.15925l-0.12764,0.17078c0,0 0.14226,0.56654 0.56389,1.08416c0.09191,0.24094 0.18051,0.38788 0.18051,0.38788c3.74582,6.07076 10.85171,8.16349 17.42463,10.05687c2.99462,0.86263 6.74512,1.47076 9.85501,0.90531c0.11252,-0.02046 0.22269,-0.04329 0.33415,-0.06761c0.51711,0.1364 0.94095,0.09989 0.94095,0.09989c3.62928,-0.30556 7.24692,-0.05846 10.82261,-0.91304c9.2733,-2.2163 17.43421,-7.26712 25.41494,-12.06217c3.66692,-2.20319 6.49407,-3.67354 9.48085,-6.99857c1.44851,-2.39566 3.46,-4.63055 4.5569,-7.22938c0.09965,0.10897 0.29342,0.18254 0.3937,0.29089z" data-paper-data="{&quot;noHover&quot;:false,&quot;origItem&quot;:[&quot;Path&quot;,{&quot;applyMatrix&quot;:true,&quot;segments&quot;:[[294.43232,130.31771],[[293.77549,128.56033],[0,0],[-0.10028,-0.10835]],[[293.47546,128.23443],[0.09965,0.10897],[-1.0969,2.59883]],[[288.92023,135.46909],[1.44851,-2.39566],[-2.98678,3.32503]],[[279.44054,142.47373],[3.66692,-2.20319],[-7.98073,4.79505]],[[254.01624,154.57191],[9.2733,-2.2163],[-3.57569,0.85458]],[[243.14967,155.50513],[3.62928,-0.30556],[0,0]],[[242.20318,155.40451],[0.51711,0.1364],[-0.11146,0.02432]],[[241.86723,155.47175],[0.11252,-0.02046],[-3.10989,0.56545]],[[231.98111,154.54455],[2.99462,0.86263],[-6.57292,-1.89338]],[[214.54884,144.45644],[3.74582,6.07076],[0,0]],[[214.36839,144.06793],[0.09191,0.24094],[-0.42163,-0.51762]],[213.8047,142.98209],[[213.93238,142.811],[0,0],[-1.71794,-2.46177]],[[208.57659,135.64336],[1.51544,2.60021],[-4.81226,-8.25692]],[[187.96461,116.07518],[12.4301,-3.59035],[-1.48155,0.42793]],[[183.6799,117.7309],[1.30201,-0.78454],[-0.11336,0.41637]],[[183.39949,118.42569],[0,0],[-3.75742,6.22286]],[[178.48713,139.80229],[-0.86401,-7.2849],[0.21982,1.85343]],[[180.09708,144.48101],[-0.65758,-1.752],[2.2255,5.92941]],[[188.67191,160.41478],[-3.72005,-5.12606],[2.9912,3.35978]],[[198.77952,169.71316],[-3.81646,-2.43587],[12.22492,7.80262]],[[240.52472,177.4281],[-13.74293,-1.13433],[3.42931,0.28872]],[[250.8169,177.63822],[-3.44028,0],[0,0]],[253.44185,177.63822],[[255.42344,178.52133],[-0.73232,-0.88311],[9.98458,-0.46074]],[[285.36925,177.56532],[-9.99988,0.0052],[0,0]],[288.11484,177.56532],[[288.23964,177.57151],[-0.07908,-0.00619],[0.07908,-0.00618]],[288.36444,177.56532],[[291.11003,177.56532],[0,0],[3.82204,0.03502]],[[302.34202,176.31732],[-3.88959,0.00659],[1.33607,-0.00226]],[[309.17575,176.44231],[-1.18212,0.61671],[0.26131,-0.13632]],[[309.09077,175.5622],[0.02859,0.29334],[-0.07476,-0.76694]],[[308.86568,173.26145],[0.14398,0.757],[-0.71332,-3.75035]],[[305.64476,162.39755],[0.69688,3.75824],[-0.86805,-3.21004]],[[304.59659,153.35488],[0.25449,3.2762],[-0.39537,-5.08987]],[[299.81786,137.92203],[2.07477,4.61263],[-0.90686,-2.01613]],[[296.60769,131.92946],[1.27407,1.8546],[-1.53823,-0.01887]],[294.4323,130.31769]],&quot;closed&quot;:true,&quot;fillColor&quot;:[0,0,0,1]}]}" fill="#3bffff"/><path d="M247.09797,180.66522l-2.01317,0.44874c-1.17234,0.18481 -2.33836,0.29834 -3.50415,0.36708c-4.15981,-1.05505 -9.61047,-0.60148 -13.45113,-0.62031c-0.5068,-0.00249 -1.01509,-0.00264 -1.5247,-0.00079c-0.09062,-0.08524 -0.17161,-0.17655 -0.24173,-0.27298c-0.91027,0.09855 -1.83003,0.19356 -2.76477,0.2797c-0.11876,0.01094 -0.23749,0.02137 -0.35618,0.03129c-2.17702,0.03911 -4.37169,0.10252 -6.57222,0.16739c-2.55133,-0.03262 -5.10059,-0.11899 -7.6649,-0.04779c-2.82649,0.07849 -5.70627,0.34968 -8.52586,-0.02751c-0.40353,-0.05398 -0.80602,-0.11932 -1.20762,-0.19322c-0.29647,0.06461 -0.59517,0.1264 -0.89399,0.1841c-2.29752,-0.28285 -4.54698,-0.62991 -6.93952,-0.30569l-1.588,-0.66476c-0.51573,-0.20627 -0.92419,-0.54462 -1.14599,-0.95519c-0.41446,-0.10651 -0.82641,-0.21633 -1.23519,-0.32925c-4.62535,-0.16666 -9.4741,0.27844 -13.95044,0.37357c-1.85287,0.03938 -3.72628,0.71275 -5.53463,0.40602c-1.59204,-0.27003 -3.4952,-0.62716 -4.36773,-1.66627c-0.75548,-0.89972 0.12453,-2.12932 0.29296,-3.18642c0.08789,-0.55156 0.26696,-1.08945 0.47703,-1.62293c-0.48543,-0.83673 -0.73573,-1.72714 -0.5546,-3.01741c0.13644,-0.9719 0.75729,-2.10694 1.47518,-3.23621c-0.22795,-1.44787 -0.44744,-2.89032 0.15384,-4.17088c0.36483,-0.77698 1.28716,-1.32899 1.96659,-1.979c-0.06804,-2.02643 -0.06214,-4.14648 0.7548,-5.95508c0.58635,-1.29812 1.91739,-2.34859 2.57718,-3.62654c0.05034,-0.0975 0.10021,-0.19533 0.14973,-0.29341c-1.2889,-1.78442 -0.79784,-2.95532 1.26873,-5.68042c0.47593,-0.62759 1.99763,-0.99426 3.72865,-1.22965c2.88564,-3.77497 -2.43276,-12.93074 2.25011,-13.7357c39.69683,37.62906 115.57771,31.12005 130.4316,46.20442c0.92136,3.75438 6.13158,-4.67293 1.96855,0.81662c-0.28409,0.37462 -1.08659,0.33711 -1.49148,0.6422c-0.40489,0.30509 -0.35511,0.90978 -0.85227,1.12385c-3.49347,1.50422 -4.15307,0.02576 -7.3682,0.02445c-10.20367,-0.00416 -18.54927,0.04536 -28.07125,0.49205c-7.16812,0.33627 -14.36379,0.07066 -21.5458,0.07218c-0.80706,0.00017 -1.61689,0.00233 -2.42926,0.00621c-0.39301,0.88207 -1.70018,1.17756 -1.70018,1.17756z" fill="#30d0d0"/><path d="M282.15988,118.05886c2.58658,1.23808 5.19952,3.15404 7.44605,5.34232c-0.08884,0.93869 -0.27155,1.8448 -0.6003,2.66659c-0.92762,2.31885 -2.78395,4.29713 -4.05649,6.43626c-2.54384,2.81914 -4.92047,3.84067 -8.02752,5.70256c-5.68935,3.40932 -11.50943,7.04459 -17.75873,9.52427c0.18755,-0.24221 0.38723,-0.59593 0.55741,-0.8666c1.99239,-3.1689 1.67582,-6.89311 1.67794,-10.42669c-0.00096,-1.53196 0.04937,-4.97062 -0.34429,-6.38645c-2.95466,-10.62666 -13.88893,-16.73999 -24.23221,-18.31842c5.22009,-0.96237 10.4531,-0.88655 15.93924,-0.88655c4.88996,-0.00307 8.29192,1.61777 12.88508,2.95373c5.37365,1.56297 11.39371,1.80822 16.51382,4.25898z" data-paper-data="{&quot;noHover&quot;:false,&quot;origItem&quot;:[&quot;Path&quot;,{&quot;applyMatrix&quot;:true,&quot;segments&quot;:[[[282.11685,118.08434],[0,0],[-5.12011,-2.45076]],[[265.63828,113.84927],[5.37365,1.56297],[-4.59316,-1.33596]],[[252.78562,110.88965],[4.88996,-0.00307],[-5.48614,0]],[[236.86336,111.76039],[5.22009,-0.96237],[10.34328,1.57843]],[[261.10105,130.03437],[-2.95466,-10.62666],[0.39366,1.41583]],[[261.41051,136.3891],[-0.00096,-1.53196],[-0.00212,3.53358]],[[259.71056,146.9133],[1.99239,-3.1689],[-0.17018,0.27067]],[[259.1736,147.68202],[0.18755,-0.24221],[6.2493,-2.47968]],[[276.87971,138.17932],[-5.68935,3.40932],[3.10705,-1.86189]],[[284.89968,132.49671],[-2.54384,2.81914],[1.27254,-2.13913]],[[288.95601,126.07396],[-0.92762,2.31885],[0.32875,-0.82179]],[[289.55712,123.41206],[-0.08884,0.93869],[-2.24653,-2.18828]],[[282.11685,118.08435],[2.58658,1.23808],[0,0]]],&quot;closed&quot;:true,&quot;fillColor&quot;:[0,0,0,1]}]}" fill="#b3732a"/><path d="M222.35336,112.2916c-1.49636,0.78447 -3.08338,1.52931 -4.40427,2.57605c-1.69391,1.18686 -3.20515,2.72411 -4.45645,4.69997c-1.51926,2.39897 -1.61518,6.01458 -2.0699,8.74322c-0.07759,0.51239 -0.14565,1.00012 -0.20084,1.47176c-0.00313,0.01636 -0.08947,0.08835 -0.09244,0.10529c-1.54595,-3.11533 -3.04321,-6.5052 -4.84702,-9.56133c0.29544,-0.48715 0.37915,-0.95 0.37915,-0.95c1.11939,-6.20845 4.82076,-11.13937 8.33806,-16.27895c1.41382,-2.06592 2.56942,-4.95095 4.11459,-6.82578c1.86195,-2.25919 4.81437,-4.18454 6.88131,-6.37327c2.93279,-3.1056 6.09003,-6.65189 9.79977,-8.79315c1.1233,0.03569 3.46026,0.02127 4.51607,0.41989c2.52964,0.95505 4.81208,3.42316 7.48999,4.06537c1.19056,0.28552 4.72692,-0.04477 6.17656,0.07367c2.54209,0.20769 5.20809,1.20807 7.58034,2.10373c10.48173,3.95746 17.42186,13.02571 25.03042,20.62659c1.28991,1.44941 1.97575,2.96891 2.36917,4.53597c-0.64786,1.01314 -0.18389,2.25445 -0.18389,2.25445l0.50416,1.06494c0.00973,0.1253 -0.07653,0.22663 -0.06552,0.35482c-1.60855,-1.19649 -3.29378,-2.23252 -4.99571,-3.04597c-5.38781,-2.57511 -11.56659,-2.86219 -17.20863,-4.51303c-5.03194,-1.47233 -8.78677,-3.1492 -14.17279,-3.15235c-7.9045,0 -15.34896,-0.11632 -22.91764,2.53393c-2.69614,0.94408 -5.06072,2.55158 -7.56446,3.86418z" data-paper-data="{&quot;noHover&quot;:false,&quot;origItem&quot;:[&quot;Path&quot;,{&quot;applyMatrix&quot;:true,&quot;segments&quot;:[[[222.30505,112.30449],[0,0],[2.50374,-1.3126]],[[229.86848,108.43549],[-2.69614,0.94408],[7.56868,-2.65025]],[[252.78561,105.88965],[-7.9045,0],[5.38602,0.00315]],[[267.05742,109.0549],[-5.03194,-1.47233],[5.64204,1.65084]],[[284.2657,113.56966],[-5.38781,-2.57511],[1.70193,0.81345]],[[289.26089,116.61778],[-1.60855,-1.19649],[-0.01101,-0.12819]],[[289.22971,116.23748],[0.00973,0.1253],[0,0]],[288.72529,115.17358],[[288.90864,112.92175],[-0.64786,1.01314],[-0.39342,-1.56706]],[[286.53881,108.39094],[1.28991,1.44941],[-7.60856,-7.60088]],[[261.5276,87.80757],[10.48173,3.95746],[-2.37225,-0.89566]],[[253.96304,85.71207],[2.54209,0.20769],[-1.44964,-0.11844]],[[247.80134,85.64066],[1.19056,0.28552],[-2.67791,-0.64221]],[[240.32626,81.57302],[2.52964,0.95505],[-1.05581,-0.39862]],[[235.81736,81.15027],[1.1233,0.03569],[-3.70974,2.14126]],[[226.03618,89.92766],[2.93279,-3.1056],[-2.06694,2.18873]],[[219.16181,96.28715],[1.86195,-2.25919],[-1.54517,1.87483]],[[215.04949,103.10127],[1.41382,-2.06592],[-3.5173,5.13958]],[[206.70894,119.36058],[1.11939,-6.20845],[0,0]],[[206.3295,120.30975],[0.29544,-0.48715],[1.80381,3.05613]],[[211.17107,129.86021],[-1.54595,-3.11533],[0.00297,-0.01694]],[[211.18022,129.81026],[-0.00313,0.01636],[0.05519,-0.47164]],[[211.38036,128.33741],[-0.07759,0.51239],[0.45472,-2.72864]],[[213.44636,119.58659],[-1.51926,2.39897],[1.2513,-1.97586]],[[217.90137,114.88262],[-1.69391,1.18686],[1.32089,-1.04674]],[[222.30504,112.30449],[-1.49636,0.78447],[0,0]]],&quot;closed&quot;:true,&quot;fillColor&quot;:[0,0,0,1]}]}" fill="#ffffff"/><path d="M220.90969,118.78897c3.2407,-2.22359 7.38185,-2.60343 11.44821,-2.48056c9.26723,0.28002 21.14937,5.07015 23.97429,15.05529c0.18384,0.64981 0.12812,4.58874 0.12783,5.03242c0.0015,2.35571 0.41202,5.69611 -0.93081,7.86772c-1.77596,2.87206 -6.14646,3.25326 -8.99962,4.24049c-1.8675,0.64617 -3.62028,1.73104 -5.56173,2.09962c-2.33702,0.44368 -5.39709,-0.16604 -7.63567,-0.82171c-5.03715,-1.47536 -11.76049,-3.05382 -14.54092,-7.8766c0,0 -0.08965,-0.14963 -0.26019,-0.34515l-0.54966,-1.60014c-0.35217,-0.50169 -0.72669,-0.99374 -1.10974,-1.47507c0.20984,-0.80256 -0.04408,-1.56565 -0.04408,-1.56565l-0.21901,-0.65795c-0.72977,-2.09368 -0.80045,-3.52607 -0.59036,-5.36901c1.51755,-3.9352 1.54661,-8.36535 4.45817,-11.67013c0.13556,-0.15387 0.28117,-0.29854 0.4333,-0.43357z" data-paper-data="{&quot;noHover&quot;:false,&quot;origItem&quot;:[&quot;Path&quot;,{&quot;applyMatrix&quot;:true,&quot;segments&quot;:[[[485.89166,289.35919],[0.27112,-0.30774],[-5.82312,6.60955]],[[477.00045,312.64511],[3.03509,-7.87041],[-0.42018,3.68589]],[[478.18105,323.35638],[-1.45955,-4.18737],[0,0]],[478.61854,324.66886],[[478.70506,327.79257],[0.41968,-1.60511],[0.76609,0.96267]],[[480.92198,330.73428],[-0.70433,-1.00337],[0,0]],[[482.01804,333.92648],[0,0],[0.34109,0.39104]],[[482.5375,334.6148],[0,0],[5.56085,9.64557]],[[511.54671,350.31289],[-10.07429,-2.95071],[4.47716,1.31134]],[[526.77378,351.95842],[-4.67404,0.88737],[3.8829,-0.73717]],[[537.86733,347.77315],[-3.735,1.29235],[5.70633,-1.97446]],[[555.83588,339.32594],[-3.55192,5.74412],[2.68566,-4.34321]],[[557.68588,323.62505],[0.003,4.71141],[0.00059,-0.88737]],[[557.42981,313.58494],[0.36768,1.29962],[-5.64983,-19.97029]],[[509.60255,283.56127],[18.53446,0.56005],[-8.13273,-0.24574]],[[486.75629,288.49415],[6.48141,-4.44719],[-0.30426,0.27005]]],&quot;closed&quot;:true}]}" fill="#ff0000"/><path d="M196.08644,173.89276c5.30758,3.36947 11.13025,5.20756 17.17815,6.27105c-3.12321,-0.00817 -6.17418,-0.02168 -9.25772,-0.30031c-3.38863,-0.30619 -6.57111,-1.36786 -9.93159,-1.73256c-9.53569,-1.03487 -18.98725,-1.80384 -28.43093,-0.56133c-0.17251,-2.83094 -0.42743,-5.70077 -0.13541,-8.4845c1.18935,-11.33749 3.25608,-22.28436 7.72797,-32.48276c0.01231,1.26627 0.15927,2.60373 0.32074,3.84843c1.07782,8.30813 6.45455,16.47734 11.2526,23.06183c3.34914,3.77291 6.98854,7.65816 11.27623,10.38015z" data-paper-data="{&quot;noHover&quot;:false,&quot;origItem&quot;:[&quot;Path&quot;,{&quot;applyMatrix&quot;:true,&quot;segments&quot;:[[[196.10638,173.93862],[0,0],[-4.28769,-2.72199]],[[184.7769,163.5499],[3.34914,3.77291],[-4.79805,-6.58449]],[[173.5246,140.41324],[1.07782,8.30813],[-0.16147,-1.2447]],[[173.2666,136.64257],[0.01231,1.26627],[-4.47189,10.1984]],[[165.55456,169.06471],[1.18935,-11.33749],[-0.29202,2.78373]],[[165.68323,177.53821],[-0.17251,-2.83094],[9.44368,-1.24251]],[[194.06363,178.08232],[-9.53569,-1.03487],[3.36048,0.3647]],[[203.97865,179.82222],[-3.38863,-0.30619],[3.08354,0.27863]],[[213.30156,180.19746],[-3.12321,-0.00817],[-6.0479,-1.06349]],[[196.10636,173.93862],[5.30758,3.36947],[0,0]]],&quot;closed&quot;:true,&quot;fillColor&quot;:[0,0,0,1]}]}" fill="#ff3b3b"/><path d="M220.47637,119.22256c0.13556,-0.15387 0.28116,-0.29854 0.43329,-0.43357c3.2407,-2.22359 7.38185,-2.60343 11.44821,-2.48056c9.26723,0.28003 21.14938,5.07015 23.97429,15.05529c0.18384,0.64981 0.12812,4.58873 0.12783,5.03241c0.0015,2.35571 0.41202,5.69613 -0.93081,7.86773c-1.77596,2.87206 -6.14646,3.25325 -8.99962,4.24048c-1.8675,0.64618 -3.62028,1.73104 -5.56173,2.09962c-2.33702,0.44368 -5.39708,-0.16604 -7.63566,-0.82171c-5.03714,-1.47535 -11.76049,-3.0538 -14.54092,-7.87659c0,0 -0.08964,-0.14963 -0.26019,-0.34515l-0.54966,-1.60014c-0.35217,-0.50169 -0.72669,-0.99374 -1.10974,-1.47508c0.20984,-0.80256 -0.04408,-1.56566 -0.04408,-1.56566l-0.21901,-0.65795c-0.72977,-2.09369 -0.80045,-3.52607 -0.59036,-5.36901c1.51755,-3.93521 1.54662,-8.36535 4.45818,-11.67013z" data-paper-data="{&quot;noHover&quot;:false,&quot;origItem&quot;:[&quot;Path&quot;,{&quot;applyMatrix&quot;:true,&quot;segments&quot;:[[[220.51339,119.25617],[0,0],[-2.91156,3.30478]],[[216.06778,130.89913],[1.51755,-3.93521],[-0.21009,1.84294]],[[216.65808,136.25477],[-0.72977,-2.09369],[0,0]],[216.87682,136.91101],[[216.92008,138.47287],[0.20984,-0.80256],[0.38305,0.48134]],[[218.02854,139.94373],[-0.35217,-0.50169],[0,0]],[[218.57657,141.53983],[0,0],[0.17055,0.19552]],[[218.8363,141.88399],[0,0],[2.78043,4.82279]],[[233.3409,149.73303],[-5.03714,-1.47535],[2.23858,0.65567]],[[240.95443,150.5558],[-2.33702,0.44368],[1.94145,-0.36858]],[[246.50121,148.46316],[-1.8675,0.64618],[2.85316,-0.98723]],[[255.48548,144.23956],[-1.77596,2.87206],[1.34283,-2.1716]],[[256.41048,136.38911],[0.0015,2.35571],[0.00029,-0.44368]],[[256.28244,131.36906],[0.18384,0.64981],[-2.82491,-9.98514]],[[232.36881,116.35722],[9.26723,0.28003],[-4.06636,-0.12287]],[[220.94568,118.82366],[3.2407,-2.22359],[-0.15213,0.13503]],[[220.51337,119.25618],[0.13556,-0.15387],[0,0]]],&quot;closed&quot;:true,&quot;fillColor&quot;:[0,0,0,1]}]}" fill="#7f511d"/><path d="M294.43233,130.31771l-0.65683,-1.75738c-0.10028,-0.10835 -0.20038,-0.21693 -0.30003,-0.3259c-1.0969,2.59883 -3.10672,4.839 -4.55523,7.23466c-2.98678,3.32503 -5.81277,4.80145 -9.47969,7.00464c-7.98073,4.79505 -16.151,9.88188 -25.4243,12.09818c-3.57569,0.85458 -7.23729,0.62766 -10.86657,0.93322c0,0 -0.42938,0.03578 -0.94649,-0.10062c-0.11146,0.02432 -0.22343,0.04678 -0.33595,0.06724c-3.10989,0.56545 -6.8915,-0.06457 -9.88612,-0.9272c-6.57292,-1.89338 -13.68645,-4.01735 -17.43227,-10.08811c0,0 -0.08854,-0.14757 -0.18045,-0.38851c-0.42163,-0.51762 -0.56369,-1.08584 -0.56369,-1.08584l0.12768,-0.17109c-1.71794,-2.46177 -3.84035,-4.56743 -5.35579,-7.16764c-4.81226,-8.25692 -8.18188,-23.15853 -20.61198,-19.56818c-1.48155,0.42793 -2.9827,0.87118 -4.28471,1.65572c-0.11336,0.41637 -0.28041,0.69479 -0.28041,0.69479c-3.75742,6.22286 -5.77637,14.0917 -4.91236,21.3766c0.21982,1.85343 0.95237,2.92672 1.60995,4.67872c2.2255,5.92941 4.85478,10.80771 8.57483,15.93377c2.9912,3.35978 6.29115,6.86251 10.10761,9.29838c12.22492,7.80262 28.00227,6.58061 41.7452,7.71494c3.42931,0.28872 6.8519,0.21012 10.29218,0.21012h2.62495c0,0 1.24927,0 1.98159,0.88311c9.98458,-0.46074 19.94593,-0.95081 29.94581,-0.95601h2.74559c0,0 0.04572,0 0.1248,0.00619c0.07908,-0.00618 0.1248,-0.00619 0.1248,-0.00619h2.74559c3.82204,0.03502 7.3424,-1.24141 11.23199,-1.248c1.33607,-0.00226 5.65161,0.7417 6.83373,0.12499c0.26131,-0.13632 -0.05639,-0.58677 -0.08498,-0.88011c-0.07476,-0.76694 -0.08111,-1.54375 -0.22509,-2.30075c-0.71332,-3.75035 -2.52404,-7.10566 -3.22092,-10.8639c-0.86805,-3.21004 -0.79368,-5.76647 -1.04817,-9.04267c-0.39537,-5.08987 -2.70396,-10.82022 -4.77873,-15.43285c-0.90686,-2.01613 -1.9361,-4.13797 -3.21017,-5.99257c-1.53823,-0.01887 -2.17539,-1.61177 -2.17539,-1.61177zM282.11686,118.08434c-5.12011,-2.45076 -11.10492,-2.6721 -16.47857,-4.23507c-4.59316,-1.33596 -7.9627,-2.96269 -12.85266,-2.95962c-5.48614,0 -10.70217,-0.09163 -15.92226,0.87074c10.34328,1.57843 21.28303,7.64732 24.23769,18.27398c0.39366,1.41583 0.3085,4.82277 0.30946,6.35473c-0.00212,3.53358 0.29244,7.3553 -1.69995,10.5242c-0.17018,0.27067 -0.34941,0.52651 -0.53696,0.76872c6.2493,-2.47968 12.01676,-6.09338 17.70611,-9.5027c3.10705,-1.86189 5.47613,-2.86347 8.01997,-5.68261c1.27254,-2.13913 3.12871,-4.1039 4.05633,-6.42275c0.32875,-0.82179 0.51227,-1.72321 0.60111,-2.6619c-2.24653,-2.18828 -4.85369,-4.08963 -7.44027,-5.32771zM220.5134,119.25617c-2.91156,3.30478 -2.92806,7.70775 -4.44561,11.64296c-0.21009,1.84294 -0.13947,3.26195 0.5903,5.35564l0.21874,0.65624c0,0 0.2531,0.7593 0.04326,1.56186c0.38305,0.48134 0.75629,0.96917 1.10846,1.47086l0.54803,1.5961c0.17055,0.19552 0.25973,0.34416 0.25973,0.34416c2.78043,4.82279 9.46746,6.37369 14.5046,7.84904c2.23858,0.65567 5.27651,1.26645 7.61353,0.82277c1.94145,-0.36858 3.67928,-1.44646 5.54678,-2.09264c2.85316,-0.98723 7.20831,-1.35154 8.98427,-4.2236c1.34283,-2.1716 0.9265,-5.49474 0.925,-7.85045c0.00029,-0.44368 0.0558,-4.37024 -0.12804,-5.02005c-2.82491,-9.98514 -14.6464,-14.73181 -23.91363,-15.01184c-4.06636,-0.12287 -8.18243,0.24285 -11.42313,2.46644c-0.15213,0.13503 -0.29675,0.27865 -0.43231,0.43252zM222.30506,112.30449c2.50374,-1.3126 4.86729,-2.92492 7.56343,-3.869c7.56868,-2.65025 15.01263,-2.54584 22.91713,-2.54584c5.38602,0.00315 9.23987,1.69292 14.27181,3.16525c5.64204,1.65084 11.82047,1.93965 17.20828,4.51476c1.70193,0.81345 3.38664,1.85163 4.99519,3.04812c-0.01101,-0.12819 -0.02145,-0.255 -0.03118,-0.3803l-0.50442,-1.0639c0,0 -0.46451,-1.23869 0.18335,-2.25183c-0.39342,-1.56706 -1.07992,-3.0814 -2.36983,-4.53081c-7.60856,-7.60088 -14.52948,-16.62591 -25.01121,-20.58337c-2.37225,-0.89566 -5.02247,-1.88781 -7.56456,-2.0955c-1.44964,-0.11844 -4.97114,0.21411 -6.1617,-0.07141c-2.67791,-0.64221 -4.94544,-3.11259 -7.47508,-4.06764c-1.05581,-0.39862 -3.3856,-0.38706 -4.5089,-0.42275c-3.70974,2.14126 -6.84839,5.67179 -9.78118,8.77739c-2.06694,2.18873 -5.01242,4.1003 -6.87437,6.35949c-1.54517,1.87483 -2.6985,4.7482 -4.11232,6.81412c-3.5173,5.13958 -7.22116,10.05086 -8.34055,16.25931c0,0 -0.084,0.46202 -0.37944,0.94917c1.80381,3.05613 3.29562,6.43513 4.84157,9.55046c0.00297,-0.01694 0.00602,-0.03359 0.00915,-0.04995c0.05519,-0.47164 0.12255,-0.96046 0.20014,-1.47285c0.45472,-2.72864 0.54674,-6.35185 2.066,-8.75082c1.2513,-1.97586 2.7611,-3.51711 4.45501,-4.70397c1.32089,-1.04674 2.90731,-1.79366 4.40367,-2.57813zM297.98769,125.85959l0.01851,0.04429c0.66896,0.67416 1.32475,1.32126 1.81071,1.95049c1.85323,2.39957 3.30751,5.2325 4.55012,7.99273c2.31465,5.14155 4.70561,11.34685 5.20527,17.01513c0.28168,3.19548 0.09658,5.33327 0.94863,8.42932c0.83934,4.72 4.36925,9.86289 3.54278,14.79054c-0.24293,1.44841 -0.47327,3.14943 -1.58258,4.11189c-1.54329,1.33899 -5.39857,1.12041 -7.39347,1.12339c-4.80919,0.00719 -9.24926,1.21401 -13.9776,1.248h-2.7456c0,0 -0.04572,0 -0.1248,-0.00618c-0.07908,0.00618 -0.1248,0.00618 -0.1248,0.00618h-2.74559c-14.29861,-0.007 -28.51649,1.02396 -42.84207,1.49601c-5.38486,0.17744 -10.65567,0.99838 -16.06351,0.99999c-7.59906,0 -15.36595,0.4325 -22.94216,-0.26007c-3.43711,-0.3142 -6.65099,-1.39517 -10.05298,-1.7545c-9.47369,-1.00066 -18.78237,-1.80045 -28.16095,-0.40774c-0.35599,0.49961 -0.96179,0.92471 -1.99268,0.92471c-0.87016,0 -1.43745,-0.30288 -1.80729,-0.69778c-0.5999,-0.23731 -1.1948,-0.75327 -1.39869,-1.8407c-0.20596,-1.09849 0.17123,-1.79797 0.65134,-2.23566c-0.14876,-3.39108 -0.52754,-6.82649 -0.18423,-10.18761c1.61281,-15.79015 5.00905,-30.77856 13.62331,-44.31397c2.70502,-3.93852 2.35548,-7.53771 6.67204,-10.68176c1.71123,-1.24641 3.73056,-1.77533 5.71698,-2.33792c2.89956,-0.82121 3.3104,-1.10503 6.36996,-0.83809c4.10969,0.35856 7.17731,2.18705 9.64136,4.78296c1.72625,-5.47625 5.01415,-10.09788 8.32137,-14.93253l-0.00001,-0.00002c1.48519,-2.17112 2.7462,-5.18562 4.37408,-7.16348c1.94299,-2.3607 4.95822,-4.34874 7.10322,-6.6197c3.70099,-3.91831 7.40651,-7.66454 12.18361,-10.1922c2.64452,-0.04778 4.9063,-0.33258 7.4719,0.57565c2.31737,0.82035 4.60169,3.35463 7.00172,3.91956c1.72628,0.40634 3.55376,-0.23242 5.31989,-0.07141c3.01344,0.27472 6.0935,1.31643 8.90904,2.39729c11.25543,4.32089 18.70299,13.63822 26.90557,21.84862c1.86542,2.15877 2.53534,2.5495 3.53427,5.38942c1.31205,3.73012 0.35523,7.92015 1.49272,11.71711c0.01393,0.0465 0.02875,0.09287 0.04442,0.13908c1.01477,1.18188 1.93302,2.40561 2.72618,3.63897zM196.10639,173.93862c-4.28769,-2.72199 -7.98034,-6.61581 -11.32948,-10.38872c-4.79805,-6.58449 -10.17448,-14.82853 -11.2523,-23.13666c-0.16147,-1.2447 -0.24569,-2.5044 -0.258,-3.77067c-4.47189,10.1984 -6.52269,21.08465 -7.71204,32.42214c-0.29202,2.78373 -0.04384,5.64256 0.12867,8.4735c9.44368,-1.24251 18.84471,-0.49076 28.3804,0.54411c3.36048,0.3647 6.52639,1.43371 9.91502,1.7399c3.08354,0.27863 6.1997,0.36707 9.32291,0.37524c-6.0479,-1.06349 -11.88762,-2.88937 -17.1952,-6.25884z" fill="#000000"/></g></g></svg>