<svg version="1.1" xmlns="http://www.w3.org/2000/svg" xmlns:xlink="http://www.w3.org/1999/xlink" width="103.92262" height="129.27797" viewBox="0,0,103.92262,129.27797"><g transform="translate(-182.56084,-61.26004)"><g data-paper-data="{&quot;isPaintingLayer&quot;:true}" fill-rule="nonzero" stroke="none" stroke-width="0.5" stroke-linecap="butt" stroke-linejoin="miter" stroke-miterlimit="10" stroke-dasharray="" stroke-dashoffset="0" style="mix-blend-mode: normal"><path d="M213.1433,175.90134c-4.13227,0 -4.13227,-3.71905 -4.13227,-3.71905v-2.97527c0.04982,-10.12087 0.41322,-20.29528 0.41322,-30.49621c0,-9.30139 -0.06892,-18.76566 0.41748,-28.0614c0.17963,-3.43283 1.0496,-7.37798 0.45277,-10.82047c-1.90894,-11.01095 -1.68716,-22.75145 -1.69673,-34.01148c0,0 0,-3.71905 4.13227,-3.71905c4.13227,0 4.13227,3.71905 4.13227,3.71905c-0.00994,10.92637 -0.10977,22.24688 1.60911,32.93137c0.63892,3.97143 -0.16143,8.27193 -0.37367,12.23763c-0.49146,9.18238 -0.40899,18.53501 -0.40899,27.72436c0,10.17076 -0.4737,20.41661 -0.41322,30.49621v2.97527c0,0 0,3.71905 -4.13227,3.71905z" fill="#000000"/><path d="M283.392,135.36369c-0.06736,3.3561 -2.31068,5.90939 -2.47936,9.17268c-0.30742,5.94664 3.01452,17.82991 -0.72315,23.18304c-0.74755,1.07065 -2.57434,1.07898 -3.65958,1.88206c-1.73088,1.28083 -12.80708,4.97213 -18.49741,3.56099c-4.32764,-0.11169 -9.91524,-1.84455 -13.53894,-2.0959c-5.25252,-0.36432 -14.2759,2.67767 -19.36664,1.85951c-3.55393,-0.57117 -8.91837,-2.54065 -10.84723,-5.57856c-5.58361,-8.79425 0.45703,-13.73401 0.92977,-21.60099c0.12087,-2.01122 -1.35259,-14.01644 -0.41322,-17.82092c1.46755,-5.94349 4.11081,-10.08764 3.71905,-16.63254c-0.64734,-10.81456 -5.93713,-16.84243 -2.84559,-29.36317c-0.82363,-1.4929 -1.28669,-3.17542 -1.28669,-4.95526c0,-3.63084 1.92709,-6.85666 4.91094,-8.89406c0.38167,-0.33252 0.8072,-0.62531 1.28749,-0.86846c0.978,-0.49514 2.00577,-0.82159 3.06261,-1.03462c1.00156,-0.23498 2.05247,-0.36003 3.13581,-0.36003c0.07426,0 0.14836,0.00058 0.22231,0.00175c2.297,-0.0779 4.628,0.09143 6.80255,-0.00175c10.12704,-0.43401 39.32077,-2.6738 45.55837,8.55383c2.21018,3.97833 0.97272,17.90036 -0.91206,24.57381c4.87966,9.4412 5.04359,31.30923 4.94105,36.41856z" fill="#c0851f"/><path d="M273.75004,174.63706c-5.2352,0.26185 -11.37703,1.23079 -16.58883,0.50397c-8.24506,-1.1498 -16.95551,-3.67639 -25.31784,-4.37909c-4.61854,-0.38812 -5.58569,1.73405 -10.63429,-0.65205c-4.42791,-2.09275 -9.1783,-7.89977 -5.0135,-12.56988c0.34643,-0.38843 0.7061,-0.72097 1.07671,-1.00339c-0.30164,-0.18134 -0.60194,-0.36421 -0.90083,-0.54855l-1.80143,-3.28377c0,0 0,-3.71905 4.37422,-3.71905c2.04977,0 3.13904,0.81668 3.71785,1.68462c15.65451,9.36082 35.47301,14.30194 54.38967,15.44076c0,0 4.36311,0.26495 4.05144,3.97455c-0.26153,3.11298 -3.37613,3.42705 -4.37118,3.44755c-1.21964,1.01623 -2.98203,1.10437 -2.98203,1.10437z" data-paper-data="{&quot;index&quot;:null}" fill="#aa751b"/><path d="M284.70371,174.99998c-0.05397,3.71816 -2.5244,3.63696 -2.5244,3.63696l-1.97637,-0.06496c-6.7223,-0.26576 -13.47604,-0.81492 -20.25218,-1.03759c-6.1786,-0.20307 -12.46628,-0.34767 -18.63477,-0.98827c-2.27797,-0.23658 -4.88723,-1.10549 -7.18175,-0.64363c-7.33909,1.47725 -15.13502,1.02137 -22.61479,0.78414c0,0 -2.47044,-0.08119 -2.41651,-3.79935c0.05392,-3.71816 2.5244,-3.63698 2.5244,-3.63698c7.25789,0.24749 14.77638,0.58445 21.89617,-0.72891c2.64644,-0.48819 5.49265,0.32582 8.12416,0.6034c6.09313,0.64267 12.30684,0.77265 18.41097,0.97325c5.81744,0.19119 11.6673,0.69961 17.45561,0.94295c1.14835,0.24395 2.34293,0.38009 3.56989,0.39589c1.11619,0.79879 2.26896,1.43912 3.44323,1.92831c0.11804,0.44655 0.1857,0.98515 0.17626,1.63475z" fill="#000000"/><path d="M222.57002,65.29473c5.2352,-0.26185 11.37704,-1.2308 16.58883,-0.50397c8.24506,1.1498 16.95551,3.6764 25.31784,4.37909c4.61854,0.38812 5.58567,-1.73405 10.63429,0.65205c4.42791,2.09275 9.1783,7.89977 5.0135,12.56988c-0.34643,0.38843 -0.7061,0.72097 -1.07673,1.00339c0.30164,0.18134 0.60194,0.36421 0.90083,0.54855l1.80143,3.28377c0,0 0,3.71905 -4.37422,3.71905c-2.0498,0 -3.13901,-0.81668 -3.71785,-1.68462c-15.65451,-9.36082 -35.47301,-14.30194 -54.38967,-15.44076c0,0 -4.36311,-0.26495 -4.05146,-3.97455c0.26153,-3.11298 3.37612,-3.42705 4.37117,-3.44755c1.21964,-1.01623 2.98203,-1.10437 2.98203,-1.10437z" fill="#f1a727"/><path d="M239.64651,74.41789c0,1.85951 -2.06615,1.85951 -2.06615,1.85951h-2.20389c-4.67325,0 -8.84496,0.49639 -13.46008,1.1354c0,0 -2.04212,0.28274 -2.35629,-1.55514c-0.31417,-1.8379 1.72792,-2.12064 1.72792,-2.12064c4.80635,-0.66549 9.21678,-1.17864 14.08842,-1.17864h2.20389c0,0 2.06615,0 2.06615,1.85951z" fill="#6a6a6a"/><path d="M253.78094,75.58579c0.17157,1.85312 -1.88742,2.00753 -1.88742,2.00753c-0.73463,0.05509 -3.67312,0.2755 -4.40776,0.33057c0,0 -2.05901,0.15441 -2.23059,-1.69868c-0.17157,-1.85312 1.88742,-2.00753 1.88742,-2.00753c0.73463,-0.05509 1.46925,-0.11017 2.20389,-0.1653l2.20386,-0.1653c0,0 2.05901,-0.15441 2.23059,1.69868z" fill="#6a6a6a"/><path d="M270.50084,76.23606c0,1.85951 -2.06615,1.85951 -2.06615,1.85951l-1.44159,-0.0253c-2.18948,-0.33533 -4.23789,-0.3053 -6.45563,-0.3053c0,0 -2.06615,0 -2.06615,-1.85951c0,-1.85951 2.06615,-1.85951 2.06615,-1.85951c2.446,0 4.71565,-0.00046 7.13497,0.35586l0.76226,-0.0253c0,0 2.06615,0 2.06615,1.85951z" fill="#6a6a6a"/><path d="M251.37979,86.58181c-0.29217,1.84084 -2.33758,1.57786 -2.33758,1.57786l-1.33307,-0.17189c-7.93201,-1.21483 -16.80574,-0.25676 -24.64589,0.98875c0,0 -2.0347,0.32316 -2.39376,-1.50808c-0.35907,-1.83124 1.67565,-2.15438 1.67565,-2.15438c8.32914,-1.32253 17.61588,-2.23606 26.04335,-0.99473l1.23813,0.15868c0,0 2.04537,0.26297 1.75319,2.1038z" fill="#6a6a6a"/><path d="M269.7381,87.94686c-0.33968,1.83421 -2.37769,1.52853 -2.37769,1.52853l-0.93387,-0.1464c-2.76106,-0.20918 -5.50687,-0.15888 -8.27661,-0.15888c0,0 -2.06615,0 -2.06615,-1.85951c0,-1.85951 2.06615,-1.85951 2.06615,-1.85951c2.88507,0 5.74329,-0.04201 8.61981,0.17173l1.27004,0.18417c0,0 2.03802,0.3057 1.69835,2.13992z" fill="#6a6a6a"/><path d="M231.74929,96.56687c0,1.85951 -2.06615,1.85951 -2.06615,1.85951h-0.73463c-1.49875,-0.00342 -2.99965,0.11828 -4.48287,0.31189c0,0 -2.04537,0.26297 -2.33758,-1.57786c-0.29217,-1.84084 1.75319,-2.1038 1.75319,-2.1038c1.67747,-0.21274 3.37324,-0.34591 5.0673,-0.34927h0.73463c0,0 2.06615,0 2.06615,1.85951z" fill="#6a6a6a"/><path d="M254.5227,97.39334c0,1.85951 -2.06615,1.85951 -2.06615,1.85951h-1.2856c-3.14769,0 -6.27124,-0.02852 -9.41271,0.16116c0,0 -2.06157,0.12368 -2.199,-1.73171c-0.13744,-1.85541 1.92413,-1.97909 1.92413,-1.97909c3.23381,-0.19288 6.44778,-0.16941 9.68761,-0.16941h1.2856c0,0 2.06615,0 2.06615,1.85951z" fill="#6a6a6a"/><path d="M275.27592,99.04623c0,1.85951 -2.06615,1.85951 -2.06615,1.85951h-0.73463c-3.98266,-0.01066 -7.80534,-1.01374 -11.75404,-0.99175c0,0 -2.06615,0 -2.06615,-1.85951c0,-1.85951 2.06615,-1.85951 2.06615,-1.85951c3.9699,0.01837 7.77047,1.00415 11.75404,0.99175h0.73463c0,0 2.06615,0 2.06615,1.85951z" fill="#6a6a6a"/><path d="M240.74843,106.98022c0,1.85951 -2.06615,1.85951 -2.06615,1.85951l-2.30115,-0.04763c-4.83487,-1.03166 -8.94655,-0.38854 -13.46058,1.23695c0,0 -1.91838,0.69062 -2.68569,-1.03591c-0.76734,-1.72653 1.15102,-2.41711 1.15102,-2.41711c5.31968,-1.91459 10.25569,-2.55854 15.92449,-1.4077l1.37197,-0.04763c0,0 2.06615,0 2.06615,1.85951z" fill="#6a6a6a"/><path d="M260.88902,109.24943c-0.50112,1.80402 -2.50555,1.35297 -2.50555,1.35297l-1.46925,-0.33057c-1.38844,-0.32259 -2.84004,-0.44896 -4.27396,-0.44036c0,0 -2.06615,0 -2.06615,-1.85951c0,-1.85951 2.06615,-1.85951 2.06615,-1.85951c1.77053,0.00874 3.55592,0.17439 5.2762,0.55138l1.46925,0.33057c0,0 2.00442,0.45099 1.50332,2.255z" fill="#6a6a6a"/><path d="M269.49075,109.12899c0,-1.02698 0.92503,-1.85951 2.06615,-1.85951c1.14108,0 2.06615,0.83252 2.06615,1.85951c0,1.02698 -0.92504,1.85951 -2.06615,1.85951c-1.1411,0 -2.06615,-0.83252 -2.06615,-1.85951z" fill="#6a6a6a"/><path d="M222.47461,116.89766c0,-1.02698 0.92503,-1.85951 2.06615,-1.85951c1.1411,0 2.06615,0.83252 2.06615,1.85951c0,1.02698 -0.92503,1.85951 -2.06615,1.85951c-1.1411,0 -2.06615,-0.83252 -2.06615,-1.85951z" fill="#6a6a6a"/><path d="M240.904,117.53397c-0.33968,1.83421 -2.37769,1.52853 -2.37769,1.52853l-2.03461,-0.31162c-1.59609,0.00454 -3.19219,0.00634 -4.78831,0.00634c0,0 -2.06615,0 -2.06615,-1.85951c0,-1.85951 2.06615,-1.85951 2.06615,-1.85951c1.70971,0 3.41943,0.00212 5.12914,0.00634l2.37314,0.34953c0,0 2.03802,0.3057 1.69835,2.13992z" fill="#6a6a6a"/><path d="M245.799,117.22826c0,-1.02698 0.92503,-1.85951 2.06615,-1.85951c1.1411,0 2.06615,0.83252 2.06615,1.85951c0,1.02698 -0.92503,1.85951 -2.06615,1.85951c-1.1411,0 -2.06615,-0.83252 -2.06615,-1.85951z" fill="#6a6a6a"/><path d="M273.25571,118.88118c0,1.85951 -2.06615,1.85951 -2.06615,1.85951l-2.39507,-0.00796c-2.78364,-0.46282 -5.24662,-0.82356 -8.07335,-0.81848c0,0 -2.06615,0 -2.06615,-1.85951c0,-1.85951 2.06615,-1.85951 2.06615,-1.85951c2.94602,0.00477 5.56524,0.33871 8.45574,0.83445l2.01268,-0.00796c0,0 2.06615,0 2.06615,1.85951z" fill="#6a6a6a"/><path d="M251.03322,126.98043c0,1.85951 -2.06615,1.85951 -2.06615,1.85951h-0.9183c-7.40006,0 -16.80716,-0.8794 -23.88271,0.92622c0,0 -1.99336,0.48927 -2.53698,-1.30474c-0.54363,-1.79401 1.44971,-2.28328 1.44971,-2.28328c7.56713,-1.801 17.10948,-1.05727 24.96998,-1.05727h0.9183c0,0 2.06615,0 2.06615,1.85951z" fill="#6a6a6a"/><path d="M275.43146,127.78202c-0.33968,1.83421 -2.37769,1.52853 -2.37769,1.52853l-2.12006,-0.31959c-2.25144,-0.16891 -4.46349,-0.15099 -6.72311,-0.15099c0,0 -2.06615,0 -2.06615,-1.85951c0,-1.85951 2.06615,-1.85951 2.06615,-1.85951c2.43399,0 4.80875,-0.00228 7.23481,0.17959l2.28771,0.34157c0,0 2.03802,0.30574 1.69835,2.13993z" fill="#6a6a6a"/><path d="M220.82168,135.57557c0,-1.02698 0.92503,-1.85951 2.06615,-1.85951c1.1411,0 2.06615,0.83252 2.06615,1.85951c0,1.02698 -0.92503,1.85951 -2.06615,1.85951c-1.1411,0 -2.06615,-0.83252 -2.06615,-1.85951z" fill="#6a6a6a"/><path d="M241.66673,134.7491c0,1.85951 -2.06615,1.85951 -2.06615,1.85951h-0.55095c-1.53564,-0.001 -3.0733,0.04294 -4.60351,0.15888c0,0 -2.05901,0.15441 -2.23059,-1.69868c-0.17157,-1.85312 1.88742,-2.00753 1.88742,-2.00753c1.6445,-0.12217 3.29655,-0.17073 4.94664,-0.17173h0.55095c0,0 2.06615,0 2.06615,1.85951z" fill="#6a6a6a"/><path d="M265.70981,135.14505c-0.25629,1.84514 -2.30645,1.61453 -2.30645,1.61453l-1.38456,-0.15734c-3.76699,-0.28251 -6.96209,-0.24776 -10.69179,0.31169c0,0 -2.03802,0.3057 -2.37769,-1.52853c-0.33968,-1.83421 1.69835,-2.13992 1.69835,-2.13992c4.05332,-0.60799 7.6237,-0.65626 11.71431,-0.34947l1.55394,0.17322c0,0 2.05018,0.23065 1.7939,2.07581z" fill="#6a6a6a"/><path d="M231.1983,143.67483c0,1.85951 -2.06615,1.85951 -2.06615,1.85951h-0.18367c-2.31274,-0.00616 -4.48494,-0.33719 -6.79528,-0.33057c0,0 -2.06615,0 -2.06615,-1.85951c0,-1.85951 2.06615,-1.85951 2.06615,-1.85951c2.31534,0.00573 4.4886,0.33777 6.79528,0.33057h0.18367c0,0 2.06615,0 2.06615,1.85951z" fill="#6a6a6a"/><path d="M266.09307,142.5178c0,1.85951 -2.06615,1.85951 -2.06615,1.85951h-2.02022c-7.19418,0 -14.30888,0.33057 -21.48785,0.33057c0,0 -2.06615,0 -2.06615,-1.85951c0,-1.85951 2.06615,-1.85951 2.06615,-1.85951c7.17743,0 14.29416,-0.33057 21.48785,-0.33057h2.02022c0,0 2.06615,0 2.06615,1.85951z" fill="#6a6a6a"/><path d="M230.41776,152.55923c-1.23969,1.48762 -2.89261,0.3719 -2.89261,0.3719l0.00395,-0.17949c-2.24464,-0.52154 -2.98808,-0.69323 -5.07191,0.21942c0,0 -1.88094,0.76946 -2.73592,-0.92339c-0.855,-1.69285 1.02598,-2.46231 1.02598,-2.46231c2.95394,-1.15234 4.67465,-1.12312 7.78407,-0.44172l1.47321,0.81225c0,0 1.65291,1.11572 0.41322,2.60334z" fill="#6a6a6a"/><path d="M242.92422,150.80723c0.33968,1.83421 -1.69835,2.13992 -1.69835,2.13992l-1.29442,0.18586c-0.85707,0.05509 -1.71414,0.11017 -2.5712,0.1653c0,0 -2.06087,0.13249 -2.2081,-1.72233c-0.14722,-1.8548 1.9137,-1.98729 1.9137,-1.98729c0.85707,-0.05509 1.71414,-0.11021 2.5712,-0.1653l0.9095,-0.14471c0,0 2.03802,-0.3057 2.37769,1.52853z" fill="#6a6a6a"/><path d="M263.41586,152.36214c-0.65335,1.76411 -2.61349,1.17605 -2.61349,1.17605l-0.76276,-0.25676c-3.13078,-0.44116 -6.2538,-0.30895 -9.41962,-0.30895c0,0 -2.06615,0 -2.06615,-1.85951c0,-1.85951 2.06615,-1.85951 2.06615,-1.85951c3.38447,0 6.69696,-0.10454 10.04798,0.35222l1.44114,0.40438c0,0 1.96012,0.58804 1.30673,2.35213z" fill="#6a6a6a"/><path d="M268.75609,152.26996c0,-1.02698 0.92504,-1.85951 2.06615,-1.85951c1.1411,0 2.06615,0.83252 2.06615,1.85951c0,1.02698 -0.92503,1.85951 -2.06615,1.85951c-1.14108,0 -2.06615,-0.83252 -2.06615,-1.85951z" fill="#6a6a6a"/><path d="M236.34068,159.54277c0,1.85951 -2.06615,1.85951 -2.06615,1.85951h-0.18367c-3.36696,0 -6.67095,-0.09188 -10.0117,0.31426c0,0 -2.04801,0.24577 -2.32108,-1.59746c-0.27306,-1.84322 1.77495,-2.08897 1.77495,-2.08897c3.52859,-0.4184 7.00437,-0.34689 10.55785,-0.34689h0.18367c0,0 2.06615,0 2.06615,1.85951z" fill="#6a6a6a"/><path d="M244.51342,160.03865c0,-1.02698 0.92503,-1.85951 2.06615,-1.85951c1.1411,0 2.06615,0.83252 2.06615,1.85951c0,1.02698 -0.92503,1.85951 -2.06615,1.85951c-1.1411,0 -2.06615,-0.83252 -2.06615,-1.85951z" fill="#6a6a6a"/><path d="M254.98184,160.03865c0,-1.02698 0.92503,-1.85951 2.06615,-1.85951c1.14108,0 2.06615,0.83252 2.06615,1.85951c0,1.02698 -0.92504,1.85951 -2.06615,1.85951c-1.1411,0 -2.06615,-0.83252 -2.06615,-1.85951z" fill="#6a6a6a"/><path d="M273.07204,160.6998c0,1.85951 -2.06615,1.85951 -2.06615,1.85951l-0.70699,-0.0253c-1.62602,-0.2441 -3.25809,-0.45624 -4.89212,-0.65217c0,0 -2.04801,-0.24577 -1.77495,-2.08898c0.27306,-1.84322 2.32108,-1.59746 2.32108,-1.59746c1.67851,0.20157 3.35494,0.41978 5.02533,0.67016l0.02765,-0.0253c0,0 2.06615,0 2.06615,1.85951z" fill="#6a6a6a"/><path d="M257.35833,147.26466c-0.06852,3.3561 -2.35,5.90939 -2.52158,9.17268c-0.31264,5.94664 3.06584,17.82991 -0.73544,23.18304c-0.76027,1.07065 -2.61815,1.07898 -3.72185,1.88206c-1.76035,1.28083 -13.02514,4.9721 -18.81236,3.56099c-4.40131,-0.11169 -10.08403,-1.84456 -13.76943,-2.0959c-5.34196,-0.36432 -14.51894,2.67767 -19.69636,1.85951c-3.61443,-0.57117 -9.07021,-2.54065 -11.03191,-5.57856c-5.67869,-8.79425 0.46483,-13.73401 0.94558,-21.60099c0.12291,-2.01122 -1.37564,-14.01644 -0.42026,-17.82092c1.49252,-5.94349 4.18079,-10.08764 3.78237,-16.63254c-0.65834,-10.81456 -6.03821,-16.84243 -2.89403,-29.36317c-0.83764,-1.4929 -1.30861,-3.17542 -1.30861,-4.95526c0,-3.63084 1.95988,-6.85666 4.99454,-8.89406c0.38816,-0.33252 0.82095,-0.62531 1.30941,-0.86846c0.99465,-0.49514 2.03992,-0.82159 3.11477,-1.03462c1.01863,-0.23498 2.08742,-0.36003 3.18919,-0.36003c0.07551,0 0.1509,0.00058 0.22611,0.00175c2.33612,-0.0779 4.70679,0.09143 6.91838,-0.00175c10.29945,-0.43401 39.99021,-2.6738 46.33396,8.55383c2.24781,3.97833 0.98926,17.90036 -0.9276,24.57381c4.96273,9.4412 5.12944,31.30923 5.02516,36.41856z" fill="#ce8e21"/><path d="M244.93412,186.52341c-5.2352,0.26185 -11.37704,1.2308 -16.58883,0.50397c-8.24506,-1.1498 -16.95549,-3.6764 -25.31784,-4.37909c-4.61854,-0.38812 -5.58569,1.73407 -10.63429,-0.65204c-4.42791,-2.09275 -9.1783,-7.89981 -5.0135,-12.56988c0.34643,-0.38843 0.70613,-0.72097 1.07673,-1.00339c-0.30164,-0.18134 -0.60196,-0.36421 -0.90083,-0.54855l-1.80143,-3.28381c0,0 0,-3.71905 4.37422,-3.71905c2.04977,0 3.13904,0.81668 3.71785,1.68462c15.65451,9.36082 35.47301,14.30192 54.38967,15.44076c0,0 4.36311,0.26495 4.05146,3.97455c-0.26153,3.11298 -3.37613,3.42705 -4.37118,3.44755c-1.21964,1.01623 -2.98203,1.10437 -2.98203,1.10437z" data-paper-data="{&quot;index&quot;:null}" fill="#b9801e"/><path d="M195.28773,77.45712c5.2352,-0.26185 11.37704,-1.23079 16.58883,-0.50397c8.24506,1.1498 16.95549,3.6764 25.31784,4.37909c4.61854,0.38812 5.58569,-1.73407 10.63429,0.65204c4.42791,2.09275 9.1783,7.89977 5.0135,12.56988c-0.34643,0.38843 -0.70613,0.72097 -1.07673,1.00339c0.30164,0.18134 0.60194,0.36421 0.90083,0.54855l1.80143,3.28377c0,0 0,3.71905 -4.37422,3.71905c-2.04977,0 -3.13904,-0.81668 -3.71785,-1.68462c-15.65451,-9.36082 -35.47301,-14.30194 -54.38967,-15.44076c0,0 -4.36311,-0.26495 -4.05144,-3.97455c0.26153,-3.11298 3.37612,-3.42705 4.37117,-3.44755c1.21964,-1.01623 2.98203,-1.10437 2.98203,-1.10437z" fill="#e49e25"/><path d="M213.61316,86.31884c0,1.85951 -2.06615,1.85951 -2.06615,1.85951h-2.20386c-4.67325,0 -8.84496,0.49639 -13.46008,1.1354c0,0 -2.04212,0.28274 -2.3563,-1.55514c-0.31417,-1.8379 1.72792,-2.12067 1.72792,-2.12067c4.80635,-0.66549 9.21678,-1.17864 14.08842,-1.17864h2.20386c0,0 2.06615,0 2.06615,1.85951z" fill="#6a6a6a"/><path d="M227.74758,87.48672c0.1716,1.85312 -1.88743,2.00753 -1.88743,2.00753c-0.73463,0.05509 -3.67312,0.2755 -4.40776,0.33057c0,0 -2.05901,0.15444 -2.23059,-1.69868c-0.1716,-1.85312 1.88743,-2.00753 1.88743,-2.00753c0.73463,-0.05509 1.46925,-0.11017 2.20386,-0.16529l2.20386,-0.1653c0,0 2.05901,-0.15444 2.23059,1.69868z" fill="#6a6a6a"/><path d="M244.46749,88.13704c0,1.85951 -2.06615,1.85951 -2.06615,1.85951l-1.4416,-0.0253c-2.18952,-0.33533 -4.23789,-0.30527 -6.45563,-0.30527c0,0 -2.06615,0 -2.06615,-1.85951c0,-1.85951 2.06615,-1.85951 2.06615,-1.85951c2.446,0 4.71565,-0.00046 7.13497,0.35588l0.76227,-0.0253c0,0 2.06615,0 2.06615,1.85951z" fill="#6a6a6a"/><path d="M225.34643,98.48276c-0.2922,1.84084 -2.33756,1.57786 -2.33756,1.57786l-1.33307,-0.17189c-7.93201,-1.21484 -16.80574,-0.25676 -24.64589,0.98875c0,0 -2.0347,0.32316 -2.39376,-1.50808c-0.35907,-1.83124 1.67565,-2.15438 1.67565,-2.15438c8.32915,-1.32253 17.61591,-2.23606 26.04335,-0.99473l1.23813,0.15869c0,0 2.04537,0.26297 1.75319,2.10379z" fill="#6a6a6a"/><path d="M243.70477,99.84781c-0.33968,1.83421 -2.37769,1.52853 -2.37769,1.52853l-0.93386,-0.1464c-2.76106,-0.20918 -5.50687,-0.15888 -8.27661,-0.15888c0,0 -2.06615,0 -2.06615,-1.85951c0,-1.85951 2.06615,-1.85951 2.06615,-1.85951c2.88507,0 5.74329,-0.04201 8.61981,0.17173l1.27004,0.18417c0,0 2.03802,0.3057 1.69835,2.13992z" fill="#6a6a6a"/><path d="M205.71593,108.46782c0,1.85951 -2.06615,1.85951 -2.06615,1.85951h-0.73463c-1.49875,-0.00342 -2.99965,0.11828 -4.48287,0.31189c0,0 -2.04537,0.26297 -2.33756,-1.57786c-0.2922,-1.84084 1.75319,-2.10379 1.75319,-2.10379c1.67747,-0.21274 3.37324,-0.34591 5.0673,-0.34928h0.73463c0,0 2.06615,0 2.06615,1.85951z" fill="#6a6a6a"/><path d="M228.48936,109.29429c0,1.85951 -2.06615,1.85951 -2.06615,1.85951h-1.2856c-3.14769,0 -6.27124,-0.02852 -9.41271,0.16116c0,0 -2.06157,0.12368 -2.199,-1.73171c-0.13744,-1.85541 1.92413,-1.97909 1.92413,-1.97909c3.23381,-0.19284 6.44776,-0.16941 9.68761,-0.16941h1.2856c0,0 2.06615,0 2.06615,1.85951z" fill="#6a6a6a"/><path d="M249.24258,110.9472c0,1.85951 -2.06615,1.85951 -2.06615,1.85951h-0.73463c-3.98266,-0.01062 -7.80534,-1.01374 -11.75404,-0.99175c0,0 -2.06615,0 -2.06615,-1.85951c0,-1.85951 2.06615,-1.85951 2.06615,-1.85951c3.9699,0.01837 7.77047,1.00415 11.75404,0.99175h0.73463c0,0 2.06615,0 2.06615,1.85951z" fill="#6a6a6a"/><path d="M214.7151,118.88118c0,1.85951 -2.06615,1.85951 -2.06615,1.85951l-2.30115,-0.04763c-4.83487,-1.03166 -8.94652,-0.38854 -13.4606,1.23695c0,0 -1.91838,0.69062 -2.68569,-1.03591c-0.76734,-1.72653 1.15102,-2.41711 1.15102,-2.41711c5.31968,-1.91459 10.25569,-2.55854 15.92449,-1.4077l1.37197,-0.04763c0,0 2.06615,0 2.06615,1.85951z" fill="#6a6a6a"/><path d="M234.85565,121.15038c-0.50112,1.80402 -2.50555,1.35301 -2.50555,1.35301l-1.46925,-0.33057c-1.38845,-0.32259 -2.84004,-0.44896 -4.27396,-0.44036c0,0 -2.06615,0 -2.06615,-1.85951c0,-1.85951 2.06615,-1.85951 2.06615,-1.85951c1.77053,0.00872 3.55592,0.17441 5.2762,0.55139l1.46925,0.33057c0,0 2.00444,0.45099 1.50333,2.255z" fill="#6a6a6a"/><path d="M243.45739,121.02998c0,-1.02698 0.92503,-1.85951 2.06615,-1.85951c1.1411,0 2.06615,0.83252 2.06615,1.85951c0,1.02698 -0.92503,1.85951 -2.06615,1.85951c-1.1411,0 -2.06615,-0.83252 -2.06615,-1.85951z" fill="#6a6a6a"/><path d="M196.44126,128.79865c0,-1.02698 0.92503,-1.85951 2.06615,-1.85951c1.1411,0 2.06615,0.83252 2.06615,1.85951c0,1.02698 -0.92503,1.85951 -2.06615,1.85951c-1.1411,0 -2.06615,-0.83252 -2.06615,-1.85951z" fill="#6a6a6a"/><path d="M214.87065,129.43494c-0.33968,1.83421 -2.37769,1.52853 -2.37769,1.52853l-2.03462,-0.31162c-1.59609,0.00456 -3.19222,0.00634 -4.78831,0.00634c0,0 -2.06615,0 -2.06615,-1.85951c0,-1.85951 2.06615,-1.85951 2.06615,-1.85951c1.70971,0 3.41944,0.00212 5.12914,0.00634l2.37314,0.34953c0,0 2.03802,0.3057 1.69835,2.13992z" fill="#6a6a6a"/><path d="M219.76567,129.1292c0,-1.02698 0.92503,-1.85951 2.06615,-1.85951c1.1411,0 2.06615,0.83252 2.06615,1.85951c0,1.02698 -0.92503,1.85951 -2.06615,1.85951c-1.1411,0 -2.06615,-0.83252 -2.06615,-1.85951z" fill="#6a6a6a"/><path d="M247.22236,130.78213c0,1.85951 -2.06615,1.85951 -2.06615,1.85951l-2.39507,-0.00796c-2.78364,-0.46282 -5.2466,-0.82355 -8.07335,-0.81846c0,0 -2.06615,0 -2.06615,-1.85951c0,-1.85951 2.06615,-1.85951 2.06615,-1.85951c2.94602,0.00475 5.56524,0.33873 8.45575,0.83445l2.01268,-0.00796c0,0 2.06615,0 2.06615,1.85951z" fill="#6a6a6a"/><path d="M224.99988,138.8814c0,1.85951 -2.06615,1.85951 -2.06615,1.85951h-0.9183c-7.40006,0 -16.80716,-0.8794 -23.88271,0.92622c0,0 -1.99333,0.48929 -2.53698,-1.30474c-0.54364,-1.79401 1.44971,-2.28328 1.44971,-2.28328c7.56709,-1.801 17.10948,-1.05727 24.96998,-1.05727h0.9183c0,0 2.06615,0 2.06615,1.85951z" fill="#6a6a6a"/><path d="M249.39813,139.68298c-0.33968,1.83421 -2.37769,1.52853 -2.37769,1.52853l-2.12006,-0.31958c-2.25144,-0.16891 -4.46349,-0.15099 -6.72311,-0.15099c0,0 -2.06615,0 -2.06615,-1.85951c0,-1.85951 2.06615,-1.85951 2.06615,-1.85951c2.43398,0 4.80875,-0.00228 7.23481,0.17959l2.28771,0.34157c0,0 2.03802,0.3057 1.69835,2.13992z" fill="#6a6a6a"/><path d="M194.78834,147.47651c0,-1.02698 0.92503,-1.85951 2.06615,-1.85951c1.1411,0 2.06615,0.83252 2.06615,1.85951c0,1.02698 -0.92503,1.85951 -2.06615,1.85951c-1.1411,0 -2.06615,-0.83252 -2.06615,-1.85951z" fill="#6a6a6a"/><path d="M215.6334,146.65007c0,1.85951 -2.06615,1.85951 -2.06615,1.85951h-0.55095c-1.53562,-0.00102 -3.07329,0.04294 -4.60349,0.15888c0,0 -2.05901,0.15444 -2.23059,-1.69871c-0.1716,-1.85312 1.88743,-2.00753 1.88743,-2.00753c1.6445,-0.12217 3.29655,-0.17073 4.94664,-0.17173h0.55095c0,0 2.06615,0 2.06615,1.85951z" fill="#6a6a6a"/><path d="M239.67646,147.04602c-0.25629,1.84516 -2.30645,1.61453 -2.30645,1.61453l-1.38456,-0.15735c-3.76699,-0.28251 -6.96209,-0.24776 -10.69179,0.31169c0,0 -2.03802,0.3057 -2.37769,-1.52853c-0.33968,-1.83421 1.69835,-2.13992 1.69835,-2.13992c4.05332,-0.60799 7.6237,-0.65626 11.71431,-0.34945l1.55394,0.17323c0,0 2.05018,0.23064 1.7939,2.07581z" fill="#6a6a6a"/><path d="M205.16496,155.5758c0,1.85951 -2.06615,1.85951 -2.06615,1.85951h-0.18367c-2.31274,-0.00616 -4.48494,-0.33719 -6.79528,-0.33057c0,0 -2.06615,0 -2.06615,-1.85951c0,-1.85951 2.06615,-1.85951 2.06615,-1.85951c2.31534,0.00573 4.4886,0.33777 6.79528,0.33057h0.18367c0,0 2.06615,0 2.06615,1.85951z" fill="#6a6a6a"/><path d="M240.05973,154.41874c0,1.85951 -2.06615,1.85951 -2.06615,1.85951h-2.02022c-7.19418,0 -14.30888,0.33057 -21.48785,0.33057c0,0 -2.06615,0 -2.06615,-1.85951c0,-1.85951 2.06615,-1.85951 2.06615,-1.85951c7.17743,0 14.29416,-0.33057 21.48785,-0.33057h2.02022c0,0 2.06615,0 2.06615,1.85951z" fill="#6a6a6a"/><path d="M204.38443,164.46018c-1.23969,1.48762 -2.89261,0.3719 -2.89261,0.3719l0.00395,-0.1795c-2.24464,-0.52154 -2.98808,-0.69323 -5.07191,0.21942c0,0 -1.88094,0.76946 -2.73592,-0.92336c-0.85496,-1.69285 1.02595,-2.46231 1.02595,-2.46231c2.95394,-1.15232 4.67465,-1.12315 7.78407,-0.44172l1.4732,0.81225c0,0 1.65291,1.11572 0.41322,2.60334z" fill="#6a6a6a"/><path d="M216.89088,162.70817c0.33968,1.83421 -1.69835,2.13992 -1.69835,2.13992l-1.29442,0.18586c-0.85707,0.05509 -1.71414,0.11017 -2.5712,0.16529c0,0 -2.06087,0.13249 -2.2081,-1.72232c-0.14722,-1.85479 1.91368,-1.98729 1.91368,-1.98729c0.85707,-0.05509 1.71414,-0.11017 2.5712,-0.1653l0.9095,-0.14471c0,0 2.03802,-0.3057 2.37769,1.52853z" fill="#6a6a6a"/><path d="M237.38252,164.26311c-0.65335,1.7641 -2.61349,1.17608 -2.61349,1.17608l-0.76273,-0.25676c-3.13078,-0.44117 -6.25382,-0.30895 -9.41963,-0.30895c0,0 -2.06615,0 -2.06615,-1.85951c0,-1.85951 2.06615,-1.85951 2.06615,-1.85951c3.38447,0 6.69696,-0.10454 10.04798,0.35222l1.44114,0.40438c0,0 1.96012,0.58803 1.30673,2.35213z" fill="#6a6a6a"/><path d="M242.72274,164.17092c0,-1.02698 0.92503,-1.85951 2.06615,-1.85951c1.1411,0 2.06615,0.83252 2.06615,1.85951c0,1.02698 -0.92503,1.85951 -2.06615,1.85951c-1.1411,0 -2.06615,-0.83252 -2.06615,-1.85951z" fill="#6a6a6a"/><path d="M210.30734,171.44376c0,1.85951 -2.06615,1.85951 -2.06615,1.85951h-0.18367c-3.36698,0 -6.67095,-0.09188 -10.0117,0.31426c0,0 -2.04801,0.24577 -2.32108,-1.59746c-0.27306,-1.84322 1.77495,-2.08898 1.77495,-2.08898c3.52859,-0.41842 7.00435,-0.34689 10.55785,-0.34689h0.18367c0,0 2.06615,0 2.06615,1.85951z" fill="#6a6a6a"/><path d="M218.48007,171.93962c0,-1.02698 0.92503,-1.85951 2.06615,-1.85951c1.1411,0 2.06615,0.83252 2.06615,1.85951c0,1.02698 -0.92503,1.85951 -2.06615,1.85951c-1.1411,0 -2.06615,-0.83252 -2.06615,-1.85951z" fill="#6a6a6a"/><path d="M228.9485,171.93962c0,-1.02698 0.92503,-1.85951 2.06615,-1.85951c1.1411,0 2.06615,0.83252 2.06615,1.85951c0,1.02698 -0.92503,1.85951 -2.06615,1.85951c-1.1411,0 -2.06615,-0.83252 -2.06615,-1.85951z" fill="#6a6a6a"/><path d="M247.03869,172.60074c0,1.85951 -2.06615,1.85951 -2.06615,1.85951l-0.70698,-0.0253c-1.62602,-0.24408 -3.25809,-0.45624 -4.89213,-0.65217c0,0 -2.04801,-0.24577 -1.77495,-2.08898c0.27306,-1.84322 2.32108,-1.59746 2.32108,-1.59746c1.67855,0.20157 3.35494,0.41978 5.02533,0.67016l0.02765,-0.0253c0,0 2.06615,0 2.06615,1.85951z" fill="#6a6a6a"/><g fill="#000000"><path d="M187.10994,187.80228c-4.13227,0 -4.13227,-3.71905 -4.13227,-3.71905v-2.97523c0.04982,-10.12087 0.41322,-20.29528 0.41322,-30.49621c0,-9.30139 -0.06892,-18.76566 0.41748,-28.0614c0.17963,-3.43283 1.0496,-7.37798 0.45277,-10.82047c-1.90894,-11.01095 -1.68716,-22.75145 -1.69673,-34.01148c0,0 0,-3.71905 4.13227,-3.71905c4.13227,0 4.13227,3.71905 4.13227,3.71905c-0.00994,10.92637 -0.10977,22.24688 1.60911,32.93138c0.63892,3.97143 -0.16143,8.27193 -0.37367,12.23763c-0.49146,9.18238 -0.40899,18.53501 -0.40899,27.72436c0,10.17076 -0.4737,20.41661 -0.41322,30.49621v2.97523c0,0 0,3.71905 -4.13227,3.71905z"/><path d="M254.87928,187.80228c-4.13227,0 -4.13227,-3.71905 -4.13227,-3.71905v-2.97523c0.04982,-10.12087 0.41322,-20.29528 0.41322,-30.49621c0,-9.30139 -0.06892,-18.76566 0.41748,-28.0614c0.17963,-3.43283 1.0496,-7.37798 0.45277,-10.82047c-1.90894,-11.01095 -1.68716,-22.75145 -1.69673,-34.01148c0,0 0,-1.09753 0.66245,-2.10014c1.41891,0.37891 2.91756,0.59097 4.46783,0.61095c1.01802,0.72855 2.0665,1.32524 3.13395,1.79572c-0.01136,10.83145 -0.0934,22.04022 1.60941,32.62486c0.63889,3.97143 -0.16143,8.27193 -0.37365,12.23763c-0.49146,9.18238 -0.40899,18.53501 -0.40899,27.72436c0,10.17076 -0.4737,20.41661 -0.41322,30.49621v2.97523c0,0 0,3.71905 -4.13227,3.71905z"/><path d="M259.0836,79.79226c-0.05397,3.71816 -2.5244,3.63696 -2.5244,3.63696l-1.97637,-0.06496c-6.7223,-0.26576 -13.47605,-0.81492 -20.25218,-1.03759c-6.1786,-0.20307 -12.46628,-0.34767 -18.63477,-0.98827c-2.27797,-0.23658 -4.88723,-1.10549 -7.18175,-0.64363c-7.33909,1.47725 -15.13502,1.02137 -22.61479,0.78412c0,0 -2.47044,-0.08119 -2.41651,-3.79935c0.05392,-3.71816 2.5244,-3.63698 2.5244,-3.63698c7.25789,0.24749 14.77638,0.58445 21.89617,-0.72891c2.64644,-0.48819 5.49265,0.32582 8.12416,0.6034c6.09313,0.64267 12.30684,0.77265 18.41097,0.97325c5.81744,0.19119 11.66732,0.69961 17.45561,0.94295c1.14835,0.24395 2.34293,0.38009 3.56989,0.39589c1.11619,0.79879 2.26896,1.43912 3.44323,1.92831c0.11804,0.44655 0.1857,0.98515 0.17626,1.63475z"/><path d="M258.67037,186.90091c-0.05397,3.71816 -2.5244,3.63696 -2.5244,3.63696l-1.97637,-0.06496c-6.7223,-0.26576 -13.47605,-0.81492 -20.25218,-1.03759c-6.1786,-0.20307 -12.46628,-0.34767 -18.63477,-0.98827c-2.27797,-0.23658 -4.88723,-1.10549 -7.18175,-0.64363c-7.33909,1.47725 -15.13502,1.02137 -22.61479,0.78414c0,0 -2.47044,-0.08119 -2.41651,-3.79935c0.05392,-3.71816 2.5244,-3.63696 2.5244,-3.63696c7.25789,0.24749 14.77638,0.58445 21.89617,-0.72891c2.64644,-0.48819 5.49265,0.32582 8.12416,0.6034c6.09313,0.64267 12.30684,0.77265 18.41097,0.97325c5.81744,0.19119 11.66732,0.69961 17.45561,0.94295c1.14835,0.24395 2.34293,0.38009 3.56989,0.39589c1.11619,0.79879 2.26896,1.43911 3.44326,1.92831c0.11804,0.44655 0.18567,0.98515 0.17626,1.63475z"/></g><path d="M285.11695,67.89131c-0.05397,3.71816 -2.5244,3.63698 -2.5244,3.63698l-1.97637,-0.06496c-6.7223,-0.26576 -13.47604,-0.81492 -20.25218,-1.03759c-6.1786,-0.20307 -12.46628,-0.34767 -18.63477,-0.98827c-2.27797,-0.23658 -4.88723,-1.10549 -7.18175,-0.64363c-7.33909,1.47725 -15.13502,1.02137 -22.61479,0.78414c0,0 -2.47044,-0.08119 -2.41651,-3.79935c0.05392,-3.71816 2.5244,-3.63696 2.5244,-3.63696c7.25789,0.24749 14.77638,0.58445 21.89617,-0.72891c2.64644,-0.48819 5.49265,0.32582 8.12416,0.6034c6.09313,0.64267 12.30684,0.77265 18.41097,0.97325c5.81744,0.19119 11.6673,0.69961 17.45561,0.94295c1.14835,0.24395 2.34293,0.38009 3.56989,0.39589c1.11619,0.79879 2.26896,1.43911 3.44323,1.92831c0.11804,0.44655 0.1857,0.98515 0.17626,1.63475z" fill="#000000"/><path d="M280.91262,175.90134c-4.13227,0 -4.13227,-3.71905 -4.13227,-3.71905v-2.97527c0.04982,-10.12087 0.41322,-20.29528 0.41322,-30.49621c0,-9.30139 -0.06892,-18.76566 0.41748,-28.0614c0.17963,-3.43283 1.0496,-7.37798 0.45277,-10.82047c-1.90894,-11.01095 -1.68716,-22.75145 -1.69673,-34.01148c0,0 0,-1.09753 0.66245,-2.10014c1.41891,0.37891 2.91756,0.59097 4.46783,0.61095c1.01802,0.72855 2.0665,1.32524 3.13395,1.79572c-0.01136,10.83145 -0.0934,22.04022 1.60941,32.62486c0.63889,3.97143 -0.16143,8.27193 -0.37365,12.23763c-0.49146,9.18238 -0.40899,18.53501 -0.40899,27.72436c0,10.17076 -0.4737,20.41661 -0.41322,30.49621v2.97527c0,0 0,3.71905 -4.13227,3.71905z" fill="#000000"/></g></g></svg>