<svg version="1.1" xmlns="http://www.w3.org/2000/svg" xmlns:xlink="http://www.w3.org/1999/xlink" width="154.13674" height="108.96919" viewBox="0,0,154.13674,108.96919"><g transform="translate(-158.92978,-74.3562)"><g data-paper-data="{&quot;isPaintingLayer&quot;:true}" fill-rule="nonzero" stroke="none" stroke-width="0.5" stroke-linecap="butt" stroke-linejoin="miter" stroke-miterlimit="10" stroke-dasharray="" stroke-dashoffset="0" style="mix-blend-mode: normal"><path d="M287.41688,175.72982c0,0 -0.04588,0.00006 -0.12517,0.00624c-0.07929,-0.00619 -0.12517,-0.00615 -0.12517,-0.00615l-2.75378,0.00101c-14.39641,0.00747 -28.74389,1.02941 -43.1643,1.51399c-5.34123,0.17948 -10.58107,0.99757 -15.94306,0.9959c-7.46603,0 -15.11725,0.42431 -22.5616,-0.24659c-3.39755,-0.30619 -6.57745,-1.37964 -9.94678,-1.74434c-9.5608,-1.03487 -18.99474,-1.79618 -28.46329,-0.55367c-0.17296,-2.83094 -0.42405,-5.69356 -0.13126,-8.47729c1.57628,-14.98648 4.65589,-29.21117 12.86225,-42.07426c1.48953,-2.27972 1.67916,-5.38912 3.21311,-7.4337c1.57887,-2.10444 4.10626,-2.80538 6.48599,-3.49094c12.46283,-3.59035 15.84265,11.28858 20.66758,19.5455c1.51943,2.60021 3.64254,4.69137 5.365,7.15314l-0.1281,0.17093c0,0 0.6048,2.42015 3.03654,1.81381c2.43175,-0.60634 1.73941,-2.97781 1.73941,-2.97781l-0.63061,-1.82961c-1.63535,-2.32356 -3.72897,-4.36657 -5.1456,-6.82658c-2.23566,-3.88232 -4.11874,-8.67461 -6.5866,-12.84485c0.29622,-0.48715 0.38096,-0.95064 0.38096,-0.95064c1.12234,-6.20845 4.85145,-11.14129 8.37802,-16.28087c1.41754,-2.06592 2.582,-4.94461 4.13124,-6.81944c1.86685,-2.25919 4.83012,-4.17474 6.9025,-6.36347c2.94051,-3.1056 6.09929,-6.63793 9.8188,-8.77919c1.12626,0.03569 3.46677,0.0242 4.52536,0.42282c2.5363,0.95505 4.8181,3.42663 7.50307,4.06884c1.1937,0.28552 4.73051,-0.04523 6.18397,0.07321c2.54878,0.20769 5.21323,1.20319 7.59173,2.09885c10.50933,3.95746 17.46951,13.00541 25.09811,20.60629c4.09718,4.5917 2.12647,9.84928 3.97309,15.35562c0.98083,2.9247 3.56666,4.88332 5.39876,7.21308c1.62297,2.06382 2.87038,4.60309 3.94631,6.98881c2.08023,4.61263 4.39261,10.3532 4.78902,15.44307c0.25516,3.2762 0.17856,5.83771 1.04889,9.04775c0.69872,3.75824 2.51181,7.11807 3.22701,10.86842c0.14436,0.757 0.15015,1.53475 0.22511,2.30169c0.02867,0.29334 0.34698,0.74414 0.08498,0.88046c-1.18523,0.61671 -5.51339,-0.12538 -6.85298,-0.12312c-3.89983,0.00659 -7.43271,1.28715 -11.26482,1.25213l-2.7537,0.00097z" data-paper-data="{&quot;noHover&quot;:false,&quot;origItem&quot;:[&quot;Path&quot;,{&quot;applyMatrix&quot;:true,&quot;segments&quot;:[[310.79688,202.98877],[[313.54248,202.98877],[0,0],[3.82204,0.03502]],[[324.77447,201.74077],[-3.88959,0.00659],[1.33607,-0.00226]],[[331.6082,201.86576],[-1.18212,0.61671],[0.26131,-0.13632]],[[331.52322,200.98565],[0.02859,0.29334],[-0.07476,-0.76694]],[[331.29813,198.6849],[0.14398,0.757],[-0.71332,-3.75035]],[[328.07721,187.821],[0.69688,3.75824],[-0.86805,-3.21004]],[[327.02904,178.77833],[0.25449,3.2762],[-0.39537,-5.08987]],[[322.25031,163.34548],[2.07477,4.61263],[-1.0731,-2.38572]],[[318.31404,156.36221],[1.61871,2.06382],[-1.82729,-2.32976]],[[312.92988,149.15583],[0.97825,2.9247],[-1.84177,-5.50634]],[[308.97126,133.81437],[4.08642,4.5917],[-7.60856,-7.60088]],[[283.96005,113.231],[10.48173,3.95746],[-2.37225,-0.89566]],[[276.39549,111.1355],[2.54209,0.20769],[-1.44964,-0.11844]],[[270.23379,111.06409],[1.19056,0.28552],[-2.67791,-0.64221]],[[262.75871,106.99645],[2.52964,0.95505],[-1.05581,-0.39862]],[[258.24981,106.5737],[1.1233,0.03569],[-3.70974,2.14126]],[[248.46863,115.35109],[2.93279,-3.1056],[-2.06694,2.18873]],[[241.59426,121.71058],[1.86195,-2.25919],[-1.54517,1.87483]],[[237.48194,128.5247],[1.41382,-2.06592],[-3.5173,5.13958]],[[229.14139,144.78401],[1.11939,-6.20845],[0,0]],[[228.76195,145.73318],[0.29544,-0.48715],[2.46138,4.17024]],[[235.33358,158.55718],[-2.22979,-3.88232],[1.4129,2.46001]],[[240.46099,165.36714],[-1.63105,-2.32356],[0,0]],[241.08786,167.19286],[[239.26884,170.22455],[2.42536,-0.60634],[-2.42535,0.60634]],[236.23715,168.40554],[[236.36483,168.23445],[0,0],[-1.71794,-2.46177]],[[231.00904,161.06681],[1.51544,2.60021],[-4.81226,-8.25692]],[[210.39706,141.49863],[12.4301,-3.59035],[-2.37348,0.68556]],[[204.0251,145.01349],[1.57472,-2.10444],[-1.52992,2.04458]],[[200.82129,152.44054],[1.48562,-2.27972],[-8.18481,12.86309]],[[187.98701,194.48813],[1.57214,-14.98648],[-0.29202,2.78373]],[[188.11568,202.96163],[-0.17251,-2.83094],[9.44368,-1.24251]],[[216.49608,203.50574],[-9.53569,-1.03487],[3.36048,0.3647]],[[226.4111,205.24564],[-3.38863,-0.30619],[7.4248,0.6709]],[[248.89612,205.48477],[-7.44642,0],[5.3479,0.00167]],[[264.7814,204.48796],[-5.3272,0.17948],[14.38254,-0.48458]],[[307.8017,202.98877],[-14.3586,0.00747],[0,0]],[310.54729,202.98877],[[310.67209,202.99496],[-0.07908,-0.00619],[0.07908,-0.00618]],[310.79689,202.98877]],&quot;closed&quot;:true,&quot;fillColor&quot;:[0,0,0,1]}]}" fill="#00378e"/><path d="M181.66465,114.60381c-0.17815,-0.17833 -0.79537,-0.8985 -0.09094,-1.72033c0.81349,-0.94907 1.76256,-0.13558 1.76256,-0.13558l0.92501,1.16564c0.92811,-0.69616 1.68887,0.21675 1.68887,0.21675c4.3675,5.25416 7.49496,11.63206 11.83369,16.95063c2.44506,2.99723 5.258,5.51262 7.69795,8.56797c4.12994,4.12156 7.74867,6.37739 12.99399,8.86629c4.64767,2.20531 8.94026,5.65062 13.70951,7.56135c1.82995,0.73315 3.69634,0.76586 5.55932,1.37842c3.03301,1.14423 6.17923,1.26982 9.32271,1.88699c4.05517,0.79616 8.20101,2.38812 12.35685,2.625c1.2986,0.07402 2.58553,-0.3586 3.88621,-0.35189c2.33805,0.01206 4.66604,1.26635 6.81912,1.99431c1.93308,0.65358 4.13631,0.61161 6.13768,1.04822c4.60862,1.68005 9.47161,2.40632 14.13932,3.8925c5.01242,1.59593 8.92308,4.1482 14.39001,4.17379l0.13609,0.08535l0.01435,-0.0574l1.3844,0.3461c0.55665,0.12632 0.9722,0.62414 0.9722,1.21902c0,0.58089 -0.39623,1.06923 -0.93317,1.2095l-1.20698,0.34485l-0.11319,-0.39617c-3.19668,1.17685 -6.89164,0.79651 -10.38875,0.97137c-7.42165,0.37111 -14.9607,-0.41328 -22.25054,1.04408c-5.89014,0.65862 -11.59921,2.16321 -17.55996,2.47947c-6.58705,0.34949 -13.22425,-0.17381 -19.8144,-0.17381c-10.34946,0 -20.72368,-1.41089 -31.008,-1.40979c-3.1664,0.00034 -5.98063,1.08776 -9.20747,0.68656c-2.88448,-0.641 -5.69067,-1.86873 -8.6094,-2.28674c-3.49926,-0.50115 -7.09888,-0.33064 -10.6182,-0.51574c-3.168,-0.16662 -6.55922,-0.79147 -9.79739,-1.32212c0.00141,0.02429 0.00212,0.04876 0.00212,0.0734c0,0.69036 -0.55964,1.25 -1.25,1.25c-0.26266,0 -0.5064,-0.08101 -0.7076,-0.21942l-1.0431,-0.6954l0.09005,-0.13507l-0.36734,-0.1174c-0.01803,-0.1259 -0.03607,-0.25179 -0.0541,-0.37769l-0.13583,0.05433l-0.69436,-1.73589c-0.06433,-0.15061 -0.09993,-0.31643 -0.09993,-0.49056c0,-0.28523 0.09553,-0.54815 0.25635,-0.7585c-0.62273,-1.86742 -0.87835,-4.38189 -0.95377,-5.44905c-0.20351,-2.87957 1.71162,-3.75263 2.51989,-6.33512c1.15055,-3.67608 0.37083,-7.35265 0.83292,-11.06807c0.17627,-1.41729 0.9941,-2.86822 1.44304,-4.21337c0.45054,-2.02387 0.10951,-4.08307 0.50336,-6.05709c0.55553,-2.78433 3.51366,-5.59777 5.1437,-7.90021c1.91365,-2.70304 2.87843,-5.97898 4.51315,-8.87892c1.56014,-2.76765 1.03962,-5.52621 4.22912,-6.91978c0.53155,-0.14134 1.09023,-0.32268 1.64083,-0.37079z" fill="#00235b"/><path d="M287.24283,175.69598h2.7456c3.82204,0.03502 7.3424,-1.24141 11.23199,-1.248c1.33607,-0.00226 5.65161,0.7417 6.83373,0.12499c0.26131,-0.13632 -0.05639,-0.58677 -0.08498,-0.88011c-0.07476,-0.76694 -0.08111,-1.54375 -0.22509,-2.30075c-0.71332,-3.75035 -2.52404,-7.10566 -3.22092,-10.8639c-0.86805,-3.21004 -0.79368,-5.76647 -1.04817,-9.04267c-0.39537,-5.08987 -2.70396,-10.82022 -4.77873,-15.43285c-1.0731,-2.38572 -2.31756,-4.91945 -3.93627,-6.98327c-1.82729,-2.32976 -4.40591,-4.28168 -5.38416,-7.20638c-1.84177,-5.50634 0.1278,-10.74976 -3.95862,-15.34146c-7.60856,-7.60088 -14.52948,-16.62591 -25.01121,-20.58337c-2.37225,-0.89566 -5.02247,-1.88781 -7.56456,-2.0955c-1.44964,-0.11844 -4.97114,0.21411 -6.1617,-0.07141c-2.67791,-0.64221 -4.94544,-3.11259 -7.47508,-4.06764c-1.05581,-0.39862 -3.3856,-0.38706 -4.5089,-0.42275c-3.70974,2.14126 -6.84839,5.67179 -9.78118,8.77739c-2.06694,2.18873 -5.01242,4.1003 -6.87437,6.35949c-1.54517,1.87483 -2.6985,4.7482 -4.11232,6.81412c-3.5173,5.13958 -7.22116,10.05086 -8.34055,16.25931c0,0 -0.084,0.46202 -0.37944,0.94917c2.46138,4.17024 4.34184,8.94168 6.57163,12.824c1.4129,2.46001 3.49636,4.4864 5.12741,6.80996l0.62687,1.82572c0,0 0.60634,2.42535 -1.81902,3.03169c-2.42535,0.60634 -3.03169,-1.81901 -3.03169,-1.81901l0.12768,-0.17109c-1.71794,-2.46177 -3.84035,-4.56743 -5.35579,-7.16764c-4.81226,-8.25692 -8.18188,-23.15853 -20.61198,-19.56818c-2.37348,0.68556 -4.79724,1.41042 -6.37196,3.51486c-1.52992,2.04458 -1.71819,5.14733 -3.20381,7.42705c-8.18481,12.86309 -11.26214,27.06111 -12.83428,42.04759c-0.29202,2.78373 -0.04384,5.64256 0.12867,8.4735c9.44368,-1.24251 18.84471,-0.49076 28.3804,0.54411c3.36048,0.3647 6.52639,1.43371 9.91502,1.7399c7.4248,0.6709 15.0386,0.23913 22.48502,0.23913c5.3479,0.00167 10.55808,-0.81733 15.88528,-0.99681c14.38254,-0.48458 28.6617,-1.49172 43.0203,-1.49919h2.74559c0,0 0.04572,0 0.1248,0.00619c0.07908,-0.00618 0.1248,-0.00619 0.1248,-0.00619zM209.79944,98.41132c1.48519,-2.17112 2.7462,-5.18562 4.37408,-7.16348c1.94299,-2.3607 4.95822,-4.34874 7.10322,-6.6197c3.70099,-3.91831 7.40651,-7.66454 12.18361,-10.1922c2.64452,-0.04778 4.9063,-0.33258 7.4719,0.57565c2.31737,0.82035 4.60169,3.35463 7.00172,3.91956c1.72628,0.40634 3.55376,-0.23242 5.31989,-0.07141c3.01344,0.27472 6.0935,1.31643 8.90904,2.39729c11.25543,4.32089 18.70299,13.63822 26.90557,21.84862c1.86542,2.15877 2.53534,2.5495 3.53427,5.38942c1.31205,3.73012 0.35523,7.92015 1.49272,11.71711c0.65473,2.1855 3.26648,4.04639 4.59983,5.77282c1.85323,2.39957 3.30751,5.2325 4.55012,7.99273c2.31465,5.14155 4.70561,11.34685 5.20527,17.01513c0.28168,3.19548 0.09658,5.33327 0.94863,8.42932c0.83934,4.72 4.36925,9.86289 3.54278,14.79054c-0.24293,1.44841 -0.47327,3.14943 -1.58258,4.11189c-1.54329,1.33899 -5.39857,1.12041 -7.39347,1.12339c-4.80919,0.00719 -9.24926,1.21401 -13.9776,1.248h-2.7456c0,0 -0.04572,0 -0.1248,-0.00618c-0.07908,0.00618 -0.1248,0.00618 -0.1248,0.00618h-2.74559c-14.29861,-0.007 -28.51649,1.02396 -42.84207,1.49601c-5.38486,0.17744 -10.65567,0.99838 -16.06351,0.99999c-7.59906,0 -15.36595,0.4325 -22.94216,-0.26007c-3.43711,-0.3142 -6.65099,-1.39517 -10.05298,-1.7545c-9.47369,-1.00066 -18.78237,-1.80045 -28.16095,-0.40774c-0.35599,0.49961 -0.96179,0.92471 -1.99268,0.92471c-0.87016,0 -1.43745,-0.30288 -1.80729,-0.69778c-0.5999,-0.23731 -1.1948,-0.75327 -1.39869,-1.8407c-0.20596,-1.09849 0.17123,-1.79797 0.65134,-2.23566c-0.14876,-3.39108 -0.52754,-6.82649 -0.18423,-10.18761c1.61281,-15.79015 5.00905,-30.77856 13.62331,-44.31397c2.70502,-3.93852 2.35548,-7.53771 6.67204,-10.68176c1.71123,-1.24641 3.73056,-1.77533 5.71698,-2.33792c2.89956,-0.82121 3.3104,-1.10503 6.36996,-0.83809c4.10969,0.35856 7.17731,2.18705 9.64136,4.78296c1.72625,-5.47625 5.01415,-10.09788 8.32137,-14.93253z" fill="#00fff0"/></g></g></svg>