<svg version="1.1" xmlns="http://www.w3.org/2000/svg" xmlns:xlink="http://www.w3.org/1999/xlink" width="154.13674" height="108.96919" viewBox="0,0,154.13674,108.96919"><g transform="translate(-158.92978,-74.35619)"><g data-paper-data="{&quot;isPaintingLayer&quot;:true}" fill-rule="nonzero" stroke="none" stroke-width="0.5" stroke-linecap="butt" stroke-linejoin="miter" stroke-miterlimit="10" stroke-dasharray="" stroke-dashoffset="0" style="mix-blend-mode: normal"><path d="M287.41687,81.95175l2.7537,0.00097c3.83211,-0.03502 7.36499,1.24554 11.26482,1.25213c1.33959,0.00226 5.66775,-0.73983 6.85298,-0.12312c0.262,0.13632 -0.05631,0.58712 -0.08498,0.88046c-0.07496,0.76694 -0.08075,1.54469 -0.22511,2.30169c-0.7152,3.75035 -2.52829,7.11018 -3.22701,10.86842c-0.87033,3.21004 -0.79373,5.77155 -1.04889,9.04775c-0.39641,5.08987 -2.70879,10.83044 -4.78902,15.44307c-1.07593,2.38572 -2.32334,4.92499 -3.94631,6.98881c-1.8321,2.32976 -4.41793,4.28838 -5.39876,7.21308c-1.84662,5.50634 0.12409,10.76392 -3.97309,15.35562c-7.6286,7.60088 -14.58878,16.64883 -25.09811,20.60629c-2.3785,0.89566 -5.04295,1.89116 -7.59173,2.09885c-1.45346,0.11844 -4.99027,-0.21231 -6.18397,0.07321c-2.68497,0.64221 -4.96677,3.11379 -7.50307,4.06884c-1.05859,0.39862 -3.3991,0.38713 -4.52536,0.42282c-3.71951,-2.14126 -6.87829,-5.67359 -9.8188,-8.77919c-2.07238,-2.18873 -5.03565,-4.10428 -6.9025,-6.36347c-1.54924,-1.87483 -2.7137,-4.75352 -4.13124,-6.81944c-3.52657,-5.13958 -7.25568,-10.07242 -8.37802,-16.28087c0,0 -0.08474,-0.46349 -0.38096,-0.95064c2.46786,-4.17024 4.35094,-8.96253 6.5866,-12.84485c1.41663,-2.46001 3.51025,-4.50302 5.1456,-6.82658l0.63061,-1.82961c0,0 0.69234,-2.37147 -1.73941,-2.97781c-2.43174,-0.60634 -3.03654,1.81381 -3.03654,1.81381l0.1281,0.17093c-1.72246,2.46177 -3.84557,4.55293 -5.365,7.15314c-4.82493,8.25692 -8.20475,23.13585 -20.66758,19.5455c-2.37973,-0.68556 -4.90712,-1.3865 -6.48599,-3.49094c-1.53395,-2.04458 -1.72358,-5.15398 -3.21311,-7.4337c-8.20636,-12.86309 -11.28597,-27.08778 -12.86225,-42.07426c-0.29279,-2.78373 -0.0417,-5.64635 0.13126,-8.47729c9.46855,1.24251 18.90249,0.4812 28.46329,-0.55367c3.36933,-0.3647 6.54923,-1.43815 9.94678,-1.74434c7.44435,-0.6709 15.09557,-0.24659 22.5616,-0.24659c5.36199,-0.00167 10.60183,0.81642 15.94306,0.9959c14.42041,0.48458 28.76789,1.50652 43.1643,1.51399l2.75378,0.00101c0,0 0.04588,0.00004 0.12517,-0.00615c0.07929,0.00618 0.12517,0.00624 0.12517,0.00624z" data-paper-data="{&quot;noHover&quot;:false,&quot;origItem&quot;:[&quot;Path&quot;,{&quot;applyMatrix&quot;:true,&quot;segments&quot;:[[310.79688,202.98877],[[313.54248,202.98877],[0,0],[3.82204,0.03502]],[[324.77447,201.74077],[-3.88959,0.00659],[1.33607,-0.00226]],[[331.6082,201.86576],[-1.18212,0.61671],[0.26131,-0.13632]],[[331.52322,200.98565],[0.02859,0.29334],[-0.07476,-0.76694]],[[331.29813,198.6849],[0.14398,0.757],[-0.71332,-3.75035]],[[328.07721,187.821],[0.69688,3.75824],[-0.86805,-3.21004]],[[327.02904,178.77833],[0.25449,3.2762],[-0.39537,-5.08987]],[[322.25031,163.34548],[2.07477,4.61263],[-1.0731,-2.38572]],[[318.31404,156.36221],[1.61871,2.06382],[-1.82729,-2.32976]],[[312.92988,149.15583],[0.97825,2.9247],[-1.84177,-5.50634]],[[308.97126,133.81437],[4.08642,4.5917],[-7.60856,-7.60088]],[[283.96005,113.231],[10.48173,3.95746],[-2.37225,-0.89566]],[[276.39549,111.1355],[2.54209,0.20769],[-1.44964,-0.11844]],[[270.23379,111.06409],[1.19056,0.28552],[-2.67791,-0.64221]],[[262.75871,106.99645],[2.52964,0.95505],[-1.05581,-0.39862]],[[258.24981,106.5737],[1.1233,0.03569],[-3.70974,2.14126]],[[248.46863,115.35109],[2.93279,-3.1056],[-2.06694,2.18873]],[[241.59426,121.71058],[1.86195,-2.25919],[-1.54517,1.87483]],[[237.48194,128.5247],[1.41382,-2.06592],[-3.5173,5.13958]],[[229.14139,144.78401],[1.11939,-6.20845],[0,0]],[[228.76195,145.73318],[0.29544,-0.48715],[2.46138,4.17024]],[[235.33358,158.55718],[-2.22979,-3.88232],[1.4129,2.46001]],[[240.46099,165.36714],[-1.63105,-2.32356],[0,0]],[241.08786,167.19286],[[239.26884,170.22455],[2.42536,-0.60634],[-2.42535,0.60634]],[236.23715,168.40554],[[236.36483,168.23445],[0,0],[-1.71794,-2.46177]],[[231.00904,161.06681],[1.51544,2.60021],[-4.81226,-8.25692]],[[210.39706,141.49863],[12.4301,-3.59035],[-2.37348,0.68556]],[[204.0251,145.01349],[1.57472,-2.10444],[-1.52992,2.04458]],[[200.82129,152.44054],[1.48562,-2.27972],[-8.18481,12.86309]],[[187.98701,194.48813],[1.57214,-14.98648],[-0.29202,2.78373]],[[188.11568,202.96163],[-0.17251,-2.83094],[9.44368,-1.24251]],[[216.49608,203.50574],[-9.53569,-1.03487],[3.36048,0.3647]],[[226.4111,205.24564],[-3.38863,-0.30619],[7.4248,0.6709]],[[248.89612,205.48477],[-7.44642,0],[5.3479,0.00167]],[[264.7814,204.48796],[-5.3272,0.17948],[14.38254,-0.48458]],[[307.8017,202.98877],[-14.3586,0.00747],[0,0]],[310.54729,202.98877],[[310.67209,202.99496],[-0.07908,-0.00619],[0.07908,-0.00618]],[310.79689,202.98877]],&quot;closed&quot;:true,&quot;fillColor&quot;:[0,0,0,1]}],&quot;index&quot;:null}" fill="#737373"/><path d="M181.6646,143.07778c-0.5506,-0.04811 -1.10928,-0.22945 -1.64083,-0.37079c-3.1895,-1.39357 -2.66898,-4.15213 -4.22912,-6.91978c-1.63472,-2.89994 -2.5995,-6.17588 -4.51315,-8.87892c-1.63004,-2.30244 -4.58817,-5.11588 -5.1437,-7.90021c-0.39385,-1.97402 -0.05282,-4.03322 -0.50336,-6.05709c-0.44894,-1.34515 -1.26677,-2.79608 -1.44304,-4.21337c-0.46209,-3.71542 0.31763,-7.39199 -0.83292,-11.06807c-0.80827,-2.58249 -2.7234,-3.45555 -2.51989,-6.33512c0.07542,-1.06716 0.33104,-3.58163 0.95377,-5.44905c-0.16082,-0.21035 -0.25635,-0.47327 -0.25635,-0.7585c0,-0.17413 0.0356,-0.33995 0.09993,-0.49056l0.69436,-1.73589l0.13583,0.05433c0.01803,-0.1259 0.03607,-0.25179 0.0541,-0.37769l0.36734,-0.1174l-0.09005,-0.13507l1.0431,-0.6954c0.2012,-0.13841 0.44494,-0.21942 0.7076,-0.21942c0.69036,0 1.25,0.55964 1.25,1.25c0,0.02464 -0.00071,0.04911 -0.00212,0.0734c3.23817,-0.53065 6.62939,-1.1555 9.79739,-1.32212c3.51932,-0.1851 7.11894,-0.01459 10.6182,-0.51574c2.91873,-0.41801 5.72492,-1.64574 8.6094,-2.28674c3.22684,-0.4012 6.04107,0.68622 9.20747,0.68656c10.28432,0.0011 20.65854,-1.40979 31.008,-1.40979c6.59015,0 13.22735,-0.5233 19.8144,-0.17381c5.96075,0.31626 11.66982,1.82085 17.55996,2.47947c7.28984,1.45736 14.82889,0.67297 22.25054,1.04408c3.49711,0.17486 7.19207,-0.20548 10.38875,0.97137l0.11319,-0.39617l1.20698,0.34485c0.53694,0.14027 0.93317,0.62861 0.93317,1.2095c0,0.59488 -0.41555,1.0927 -0.9722,1.21902l-1.3844,0.3461l-0.01435,-0.0574l-0.13609,0.08535c-5.46693,0.02559 -9.37759,2.57786 -14.39001,4.17379c-4.66771,1.48618 -9.5307,2.21245 -14.13932,3.8925c-2.00137,0.43661 -4.2046,0.39464 -6.13768,1.04822c-2.15308,0.72796 -4.48107,1.98225 -6.81912,1.99431c-1.30068,0.00671 -2.58761,-0.42591 -3.88621,-0.35189c-4.15584,0.23688 -8.30168,1.82884 -12.35685,2.625c-3.14348,0.61717 -6.2897,0.74276 -9.32271,1.88699c-1.86298,0.61256 -3.72937,0.64527 -5.55932,1.37842c-4.76925,1.91073 -9.06184,5.35604 -13.70951,7.56135c-5.24532,2.4889 -8.86405,4.74473 -12.99399,8.86629c-2.43995,3.05535 -5.25289,5.57074 -7.69795,8.56797c-4.33873,5.31857 -7.46619,11.69647 -11.83369,16.95063c0,0 -0.76076,0.91291 -1.68887,0.21675l-0.92501,1.16564c0,0 -0.94907,0.81349 -1.76256,-0.13558c-0.70443,-0.82183 -0.08721,-1.542 0.09094,-1.72033z" data-paper-data="{&quot;index&quot;:null}" fill="#ffffff"/><path d="M287.24284,81.9856c0,0 -0.04572,-0.00001 -0.1248,-0.00619c-0.07908,0.00619 -0.1248,0.00619 -0.1248,0.00619h-2.74559c-14.3586,-0.00747 -28.63776,-1.01461 -43.0203,-1.49919c-5.3272,-0.17948 -10.53738,-0.99848 -15.88528,-0.99681c-7.44642,0 -15.06022,-0.43177 -22.48502,0.23913c-3.38863,0.30619 -6.55454,1.3752 -9.91502,1.7399c-9.53569,1.03487 -18.93672,1.78662 -28.3804,0.54411c-0.17251,2.83094 -0.42069,5.68977 -0.12867,8.4735c1.57214,14.98648 4.64947,29.1845 12.83428,42.04759c1.48562,2.27972 1.67389,5.38247 3.20381,7.42705c1.57472,2.10444 3.99848,2.8293 6.37196,3.51486c12.4301,3.59035 15.79972,-11.31126 20.61198,-19.56818c1.51544,-2.60021 3.63785,-4.70587 5.35579,-7.16764l-0.12768,-0.17109c0,0 0.60634,-2.42535 3.03169,-1.81901c2.42536,0.60634 1.81902,3.03169 1.81902,3.03169l-0.62687,1.82572c-1.63105,2.32356 -3.71451,4.34995 -5.12741,6.80996c-2.22979,3.88232 -4.11025,8.65376 -6.57163,12.824c0.29544,0.48715 0.37944,0.94917 0.37944,0.94917c1.11939,6.20845 4.82325,11.11973 8.34055,16.25931c1.41382,2.06592 2.56715,4.93929 4.11232,6.81412c1.86195,2.25919 4.80743,4.17076 6.87437,6.35949c2.93279,3.1056 6.07144,6.63613 9.78118,8.77739c1.1233,-0.03569 3.45309,-0.02413 4.5089,-0.42275c2.52964,-0.95505 4.79717,-3.42543 7.47508,-4.06764c1.19056,-0.28552 4.71206,0.04703 6.1617,-0.07141c2.54209,-0.20769 5.19231,-1.19984 7.56456,-2.0955c10.48173,-3.95746 17.40265,-12.98249 25.01121,-20.58337c4.08642,-4.5917 2.11685,-9.83512 3.95862,-15.34146c0.97825,-2.9247 3.55687,-4.87662 5.38416,-7.20638c1.61871,-2.06382 2.86317,-4.59755 3.93627,-6.98327c2.07477,-4.61263 4.38336,-10.34298 4.77873,-15.43285c0.25449,-3.2762 0.18012,-5.83263 1.04817,-9.04267c0.69688,-3.75824 2.5076,-7.11355 3.22092,-10.8639c0.14398,-0.757 0.15033,-1.53381 0.22509,-2.30075c0.02859,-0.29334 0.34629,-0.74379 0.08498,-0.88011c-1.18212,-0.61671 -5.49766,0.12725 -6.83373,0.12499c-3.88959,-0.00659 -7.40995,-1.28302 -11.23199,-1.248h-2.7456zM209.79945,159.27024c-3.30722,-4.83465 -6.59512,-9.45628 -8.32137,-14.93253c-2.46405,2.59591 -5.53167,4.4244 -9.64136,4.78296c-3.05956,0.26694 -3.4704,-0.01688 -6.36996,-0.83809c-1.98642,-0.56259 -4.00575,-1.09151 -5.71698,-2.33792c-4.31656,-3.14405 -3.96702,-6.74324 -6.67204,-10.68176c-8.61426,-13.53541 -12.0105,-28.52382 -13.62331,-44.31397c-0.34331,-3.36112 0.03547,-6.79653 0.18423,-10.18761c-0.48011,-0.43769 -0.8573,-1.13717 -0.65134,-2.23566c0.20389,-1.08743 0.79879,-1.60339 1.39869,-1.8407c0.36984,-0.3949 0.93713,-0.69778 1.80729,-0.69778c1.03089,0 1.63669,0.4251 1.99268,0.92471c9.37858,1.39271 18.68726,0.59292 28.16095,-0.40774c3.40199,-0.35933 6.61587,-1.4403 10.05298,-1.7545c7.57621,-0.69257 15.3431,-0.26007 22.94216,-0.26007c5.40784,0.00161 10.67865,0.82255 16.06351,0.99999c14.32558,0.47205 28.54346,1.50301 42.84207,1.49601h2.74559c0,0 0.04572,0 0.1248,0.00618c0.07908,-0.00618 0.1248,-0.00618 0.1248,-0.00618h2.7456c4.72834,0.03399 9.16841,1.24081 13.9776,1.248c1.9949,0.00298 5.85018,-0.2156 7.39347,1.12339c1.10931,0.96246 1.33965,2.66348 1.58258,4.11189c0.82647,4.92765 -2.70344,10.07054 -3.54278,14.79054c-0.85205,3.09605 -0.66695,5.23384 -0.94863,8.42932c-0.49966,5.66828 -2.89062,11.87358 -5.20527,17.01513c-1.24261,2.76023 -2.69689,5.59316 -4.55012,7.99273c-1.33335,1.72643 -3.9451,3.58732 -4.59983,5.77282c-1.13749,3.79696 -0.18067,7.98699 -1.49272,11.71711c-0.99893,2.83992 -1.66885,3.23065 -3.53427,5.38942c-8.20258,8.2104 -15.65014,17.52773 -26.90557,21.84862c-2.81554,1.08086 -5.8956,2.12257 -8.90904,2.39729c-1.76613,0.16101 -3.59361,-0.47775 -5.31989,-0.07141c-2.40003,0.56493 -4.68435,3.09921 -7.00172,3.91956c-2.5656,0.90823 -4.82738,0.62343 -7.4719,0.57565c-4.7771,-2.52766 -8.48262,-6.27389 -12.18361,-10.1922c-2.145,-2.27096 -5.16023,-4.259 -7.10322,-6.6197c-1.62788,-1.97786 -2.88889,-4.99236 -4.37408,-7.16348z" data-paper-data="{&quot;index&quot;:null}" fill="#c1c1c1"/></g></g></svg>