<svg version="1.1" xmlns="http://www.w3.org/2000/svg" xmlns:xlink="http://www.w3.org/1999/xlink" width="163.58017" height="129.84101" viewBox="0,0,163.58017,129.84101"><g transform="translate(-155.22846,-59.88467)"><g data-paper-data="{&quot;isPaintingLayer&quot;:true}" fill-rule="nonzero" stroke="none" stroke-width="0.5" stroke-linecap="butt" stroke-linejoin="miter" stroke-miterlimit="10" stroke-dasharray="" stroke-dashoffset="0" style="mix-blend-mode: normal"><path d="M289.88779,172.07973h2.7456c3.82204,0.03502 7.3424,-1.24141 11.23199,-1.248c1.33607,-0.00226 5.65161,0.7417 6.83373,0.12499c0.26131,-0.13632 -0.05639,-0.58677 -0.08498,-0.88011c-0.07476,-0.76694 -0.08111,-1.54375 -0.22509,-2.30075c-0.71332,-3.75035 -2.52404,-7.10566 -3.22092,-10.8639c-0.86805,-3.21004 -0.79368,-5.76647 -1.04817,-9.04267c-0.39537,-5.08987 -2.70396,-10.82022 -4.77873,-15.43285c-1.0731,-2.38572 -2.31756,-4.91945 -3.93627,-6.98327c-1.82729,-2.32976 -4.40591,-4.28168 -5.38416,-7.20638c-1.84177,-5.50634 0.1278,-10.74976 -3.95862,-15.34146c-7.60856,-7.60088 -14.52948,-16.62591 -25.01121,-20.58337c-2.37225,-0.89566 -5.02247,-1.88781 -7.56456,-2.0955c-1.44964,-0.11844 -4.97114,0.21411 -6.1617,-0.07141c-2.67791,-0.64221 -4.94544,-3.11259 -7.47508,-4.06764c-1.05581,-0.39862 -3.3856,-0.38706 -4.5089,-0.42275c-3.70974,2.14126 -6.84839,5.67179 -9.78118,8.77739c-2.06694,2.18873 -5.01242,4.1003 -6.87437,6.35949c-1.54517,1.87483 -2.6985,4.7482 -4.11232,6.81412c-3.5173,5.13958 -7.22116,10.05086 -8.34055,16.25931c0,0 -0.084,0.46202 -0.37944,0.94917c2.46138,4.17024 4.34184,8.94168 6.57163,12.824c1.4129,2.46001 3.49636,4.4864 5.12741,6.80996l0.62687,1.82572c0,0 0.60634,2.42535 -1.81902,3.03169c-2.42535,0.60634 -3.03169,-1.81901 -3.03169,-1.81901l0.12768,-0.17109c-1.71794,-2.46177 -3.84035,-4.56743 -5.35579,-7.16764c-4.81226,-8.25692 -8.18188,-23.15853 -20.61198,-19.56818c-2.37348,0.68556 -4.79724,1.41042 -6.37196,3.51486c-1.52992,2.04458 -1.71819,5.14733 -3.20381,7.42705c-8.18481,12.86309 -11.26214,27.06111 -12.83428,42.04759c-0.29202,2.78373 -0.04384,5.64256 0.12867,8.4735c9.44368,-1.24251 18.84471,-0.49076 28.3804,0.54411c3.36048,0.3647 6.52639,1.43371 9.91502,1.7399c7.4248,0.6709 15.0386,0.23913 22.48502,0.23913c5.3479,0.00167 10.55808,-0.81733 15.88528,-0.99681c14.38254,-0.48458 28.6617,-1.49172 43.0203,-1.49919h2.74559c0,0 0.04572,0 0.1248,0.00619c0.07908,-0.00618 0.1248,-0.00619 0.1248,-0.00619zM212.4444,94.79507c1.48519,-2.17112 2.7462,-5.18562 4.37408,-7.16348c1.94299,-2.3607 4.95822,-4.34874 7.10322,-6.6197c3.70099,-3.91831 7.40651,-7.66454 12.18361,-10.1922c2.64452,-0.04778 4.9063,-0.33258 7.4719,0.57565c2.31737,0.82035 4.60169,3.35463 7.00172,3.91956c1.72628,0.40634 3.55376,-0.23242 5.31989,-0.07141c3.01344,0.27472 6.0935,1.31643 8.90904,2.39729c11.25543,4.32089 18.70299,13.63822 26.90557,21.84862c1.86542,2.15877 2.53534,2.5495 3.53427,5.38942c1.31205,3.73012 0.35523,7.92015 1.49272,11.71711c0.65473,2.1855 3.26648,4.04639 4.59983,5.77282c1.85323,2.39957 3.30751,5.2325 4.55012,7.99273c2.31465,5.14155 4.70561,11.34685 5.20527,17.01513c0.28168,3.19548 0.09658,5.33327 0.94863,8.42932c0.83934,4.72 4.36925,9.86289 3.54278,14.79054c-0.24293,1.44841 -0.47327,3.14943 -1.58258,4.11189c-1.54329,1.33899 -5.39857,1.12041 -7.39347,1.12339c-4.80919,0.00719 -9.24926,1.21401 -13.9776,1.248h-2.7456c0,0 -0.04572,0 -0.1248,-0.00618c-0.07908,0.00618 -0.1248,0.00618 -0.1248,0.00618h-2.74559c-14.29861,-0.007 -28.51649,1.02396 -42.84207,1.49601c-5.38486,0.17744 -10.65567,0.99838 -16.06351,0.99999c-7.59906,0 -15.36595,0.4325 -22.94216,-0.26007c-3.43711,-0.3142 -6.65099,-1.39517 -10.05298,-1.7545c-9.47369,-1.00066 -18.78237,-1.80045 -28.16095,-0.40774c-0.35599,0.49961 -0.96179,0.92471 -1.99268,0.92471c-0.87016,0 -1.43745,-0.30288 -1.80729,-0.69778c-0.5999,-0.23731 -1.1948,-0.75327 -1.39869,-1.8407c-0.20596,-1.09849 0.17123,-1.79797 0.65134,-2.23566c-0.14876,-3.39108 -0.52754,-6.82649 -0.18423,-10.18761c1.61281,-15.79015 5.00905,-30.77856 13.62331,-44.31397c2.70502,-3.93852 2.35548,-7.53771 6.67204,-10.68176c1.71123,-1.24641 3.73056,-1.77533 5.71698,-2.33792c2.89956,-0.82121 3.3104,-1.10503 6.36996,-0.83809c4.10969,0.35856 7.17731,2.18705 9.64136,4.78296c1.72625,-5.47625 5.01415,-10.09788 8.32137,-14.93253z" fill="#55c790"/><path d="M207.73723,109.09607c0.62905,-0.22474 1.29408,-0.26875 1.96961,-0.25997c1.35019,-3.18979 3.28481,-6.10275 5.2868,-9.01245c-0.18146,-0.01107 -0.31217,-0.02406 -0.3767,-0.03929c-1.85715,-0.43823 -3.49697,-1.6286 -5.37387,-1.97251l-1.95041,-0.61962c0,0 -3.55757,-1.18586 -2.37171,-4.74341c1.18586,-3.55756 4.74341,-2.37171 4.74341,-2.37171l1.04958,0.38039c1.95036,0.41221 3.70218,1.50577 5.62614,2.02749c1.00757,0.27322 2.06377,0.13186 3.11953,0.01114c0.38049,-0.63041 0.77679,-1.22265 1.20218,-1.73879c1.28734,-1.56199 3.09742,-2.95971 4.77516,-4.39703c-1.28084,-1.91451 -2.57342,-3.80797 -4.13939,-5.55101c-1.08106,-0.20185 -3.06905,-0.94425 -3.06905,-3.67462c0,-3.75 3.75,-3.75 3.75,-3.75l3.65165,1.09835c2.01551,2.02314 3.59835,4.25349 5.14235,6.51795c2.01757,-2.04881 4.176,-4.0064 6.56667,-5.38629c0.75961,0.02414 2.07302,0.02669 3.17037,0.14908c-0.06513,-3.57556 0.21896,-7.22088 0.21896,-10.62909v-1.5c0,0 0,-3.75 3.75,-3.75c3.75,0 3.75,3.75 3.75,3.75v1.5c0,4.2853 -0.93104,10.06082 -0.0364,14.5861c0.37415,0.1603 0.75478,0.29225 1.1439,0.38556c1.19056,0.28552 4.71809,-0.04523 6.16772,0.07322c1.69517,0.1385 3.44163,0.62731 5.12062,1.20323c0.77879,-1.53688 1.66312,-2.9443 2.27291,-4.86042c0.65309,-2.05217 1.28066,-4.1303 2.22714,-6.06475l1.20245,-1.4746c0,0 2.65165,-2.65165 5.3033,0c2.65165,2.65165 0,5.3033 0,5.3033l0.20245,-0.4746c-1.57891,3.06821 -1.94592,6.08557 -3.60763,9.19989c-0.23469,0.43985 -0.5067,0.87239 -0.75932,1.31224c3.52267,1.96102 6.64627,4.48614 9.58292,7.24574c2.75106,-1.58149 5.67022,-2.9203 8.69448,-3.6121l1.82593,-0.46086c0,0 3.63803,-0.90951 4.54754,2.72853c0.90951,3.63804 -2.72852,4.54754 -2.72852,4.54754l-2.17408,0.53914c-1.50635,0.21756 -3.14963,0.88828 -4.73528,1.72201c1.87835,1.97269 3.733,3.95669 5.62905,5.85083c1.00165,1.12551 1.63968,2.29101 2.0593,3.49039c1.75921,-0.2677 3.52495,-0.45782 5.31149,-0.49041h2.5c0,0 3.75,0 3.75,3.75c0,3.75 -3.75,3.75 -3.75,3.75h-2.5c-1.43426,-0.04237 -2.82345,0.47119 -4.22661,0.80825c0.13879,1.32955 0.36138,2.68081 0.81847,4.04739c0.8397,2.51049 2.85888,4.30916 4.56966,6.24175c2.05118,-0.75489 4.10101,-1.50814 6.26994,-1.94193l2.17583,-0.88725c0,0 3.48179,-1.39271 4.8745,2.08908c1.39272,3.48179 -2.08907,4.8745 -2.08907,4.8745l-2.82416,1.11275c-1.48661,0.29732 -2.92466,0.73234 -4.34676,1.21645c0.23874,0.50171 0.46833,1.00241 0.69059,1.49654c1.1134,2.4753 2.29346,5.27543 3.20912,8.12551c1.8997,-1.77556 4.04314,-3.34911 6.44344,-4.89757l3.19962,-0.71263c0,0 3.67718,-0.73543 4.41262,2.94174c0.73543,3.67718 -2.94175,4.41261 -2.94175,4.41261l-1.80037,0.28737c-3.03555,2.13499 -5.70132,4.38407 -7.60819,7.44002c0.13095,2.32898 0.23875,4.41859 0.90808,6.89378c0.21125,1.1393 0.52465,2.24197 0.87872,3.33003c0.45186,0.22172 0.72893,0.44337 0.72893,0.44337c4.81262,3.85125 7.79322,7.20505 9.1239,13.15282c0.61328,0.82318 1.73708,2.87514 -0.31486,4.92709c-2.65165,2.65165 -5.3033,0 -5.3033,0l-1.54733,-2.53516c-0.31984,-2.13991 -0.92902,-3.69997 -1.81929,-5.02282c-1.75534,-0.01123 -4.12504,-0.36946 -5.05394,-0.36789c-3.18026,0.00539 -6.11584,0.86246 -9.16993,1.15574c0.00464,3.5831 0.00458,7.16625 -0.02611,10.74896l0.44543,2.13408c0,0 0.73543,3.67718 -2.94175,4.41261c-3.67718,0.73543 -4.41261,-2.94174 -4.41261,-2.94174l-0.55457,-2.86592c-0.02414,-3.79644 -0.02537,-7.59304 -0.02281,-11.38964l-0.29557,0.0001c-4.60261,0.0024 -9.2002,0.10903 -13.79679,0.26879c-0.14539,3.58299 -0.40309,7.12735 -0.40309,10.75124v1.5c0,0 0,3.75 -3.75,3.75c-3.75,0 -3.75,-3.75 -3.75,-3.75v-1.5c0,-3.52598 0.24331,-6.97338 0.39048,-10.45108c-5.15744,0.22717 -10.31636,0.48617 -15.48241,0.7048c0.13849,3.20887 -0.00926,6.42137 0.54091,9.62978l0.05102,1.1165c0,0 0,3.75 -3.75,3.75c-1.06805,0 -1.8319,-0.30419 -2.3782,-0.7393c-0.0011,0.34229 -0.01299,0.69405 -0.03655,1.05935l-1.44801,1.25096c0,0 -1,0.75 -1.75,-0.25c-0.75,-1 0.25,-1.75 0.25,-1.75l0.71194,-0.369c-0.2826,-1.54074 -0.52145,-3.00998 -0.90462,-4.53767c0,0 -0.30317,-1.21268 0.90951,-1.51585c0.24182,-0.06045 0.44745,-0.06063 0.62175,-0.02218c-0.12395,-2.44904 -0.04123,-4.9039 -0.21393,-7.33478c-4.93536,0.24433 -9.79721,0.9499 -14.76413,0.94835c-0.24905,0 -0.49831,0.00047 -0.74776,0.00136c0,2.33625 0,4.67251 0,7.00876l0.40165,-1.15165c0,0 2.65165,2.65165 0,5.3033c-2.65165,2.65165 -5.3033,0 -5.3033,0l-2.59835,-4.15165c0,-2.30462 0,-4.60925 0,-6.91387c-3.87768,0.05503 -7.76632,0.07479 -11.6125,-0.14827c-0.1464,0.70602 -0.31893,1.41646 -0.54296,2.13068c-0.72496,2.31121 -2.17363,4.36637 -3.66628,6.27406c0,0 -2.34261,2.92826 -5.27087,0.58566c-2.92826,-2.3426 -0.58565,-5.27087 -0.58565,-5.27087c1.1952,-1.44809 1.94903,-3.0599 2.50823,-4.75241c-1.65509,-0.35601 -3.30599,-0.72163 -5.00521,-0.90604c-3.07987,-0.33425 -6.14653,-0.63995 -9.20542,-0.85882c-2.04764,2.95292 -4.00848,5.94124 -5.42256,9.33707c0,0 -1.47719,3.44679 -4.92399,1.9696c-3.4468,-1.47719 -1.96959,-4.92399 -1.96959,-4.92399c1.04638,-2.38924 2.30803,-4.59072 3.66323,-6.72135c-2.79782,-0.00255 -5.59341,0.11438 -8.39096,0.39584c-3.34487,1.21538 -6.80363,2.00211 -10.32547,2.05271c0,0 -3.75,0 -3.75,-3.75c0,-3.75 3.75,-3.75 3.75,-3.75c2.62946,0.05407 5.32813,-0.57719 7.96043,-1.563c0.02143,-0.40778 0.05242,-0.81423 0.09489,-1.21902c0.41949,-3.99878 0.94572,-7.94332 1.64736,-11.82224c-2.84484,-0.75158 -5.69226,-1.46873 -8.70268,-1.39575c0,0 -3.75,0 -3.75,-3.75c0,-3.75 3.75,-3.75 3.75,-3.75c2.26423,0.0364 4.47544,0.69538 6.70915,1.06766c1.15079,0.1918 2.35108,-0.20272 3.5,0c0.06173,0.0109 0.1229,0.02229 0.18351,0.03416c1.34315,-5.23538 3.11099,-10.33039 5.48524,-15.25486c-0.1023,-0.04273 -0.20517,-0.08624 -0.30864,-0.13062c-0.81313,-0.34879 -1.43911,-1.21553 -2.32092,-1.28798c-2.16712,-0.17806 -4.33259,0.37556 -6.4989,0.56334c0,0 -3.7417,0.24945 -3.99115,-3.49225c-0.24945,-3.7417 3.49225,-3.99114 3.49225,-3.99114c2.82262,-0.14482 5.65691,-0.72879 8.46788,-0.43445c1.35496,0.14187 2.44912,1.19946 3.7123,1.70981c0.36906,0.14911 0.73286,0.29276 1.09234,0.43314c0.11912,-0.19132 0.23935,-0.38235 0.36071,-0.57307c1.48562,-2.27972 1.67476,-5.38913 3.20468,-7.43371c0.19804,-0.26466 0.41104,-0.50712 0.63684,-0.73015c-0.85413,-4.00198 -1.36602,-8.19844 -1.93761,-12.19954c0,0 -0.53033,-3.71231 3.18198,-4.24264c3.71231,-0.53033 4.24264,3.18198 4.24264,3.18198c0.47657,3.33596 0.89309,6.83141 1.53852,10.20502c4.71245,-0.95724 8.04609,0.87747 10.66171,3.92512c1.74387,-2.20381 3.75183,-4.21152 6.34618,-5.13841zM215.50013,137.30239l-0.12776,0.17094c0,0 0.60321,2.42015 3.02856,1.81382c2.42536,-0.60634 1.73485,-2.97781 1.73485,-2.97781l-0.62895,-1.82961c-1.19595,-1.70373 -2.63766,-3.25663 -3.87872,-4.93368c-1.5517,0.31679 -3.09647,1.05875 -4.58995,1.98871c1.39023,1.99469 3.0593,3.75763 4.46198,5.76764zM209.07531,117.09646c-1.35853,0.8738 -2.46255,2.39508 -3.46091,3.8866c0.68233,1.36271 1.32829,2.7524 1.96507,4.10407c1.4117,-0.83679 2.86697,-1.56816 4.37833,-2.12021c-0.93336,-1.93575 -1.86674,-3.93757 -2.8825,-5.87047z" fill="#ffffff"/></g></g></svg>