<svg version="1.1" xmlns="http://www.w3.org/2000/svg" xmlns:xlink="http://www.w3.org/1999/xlink" width="86.24929" height="76.88024" viewBox="0,0,86.24929,76.88024"><g transform="translate(-196.87535,-141.55988)"><g data-paper-data="{&quot;isPaintingLayer&quot;:true}" fill-rule="nonzero" stroke="none" stroke-width="0.5" stroke-linecap="butt" stroke-linejoin="miter" stroke-miterlimit="10" stroke-dasharray="" stroke-dashoffset="0" style="mix-blend-mode: normal"><path d="M235.3778,202.77492c1.85594,0.15583 3.76315,0.22612 5.62709,0.25449c-0.00045,0.00979 -0.00043,0.01515 -0.00043,0.01515l0.00137,0.62545c0,0.25 0.00198,0.50074 0.00198,0.75074c0.01004,1.86524 0.04448,5.13841 2.23409,5.77973c2.98956,0.87562 9.79862,-3.11975 9.79862,3.09145c-0.0894,0.53643 0.08435,2.12418 -0.28552,2.53952c-0.29647,0.33292 -2.15849,-0.02736 -2.57545,0.04127c-0.62598,0.10303 -1.13897,0.58227 -1.74165,0.78039c-2.55856,0.84115 -6.99799,-0.01092 -9.69924,-0.01092c-3.58675,0 -7.21734,-0.14909 -10.79212,-0.14909c-0.42231,0 -3.07782,0.26627 -3.21641,-0.10891c-0.59183,-1.60225 1.26422,-3.72827 1.88038,-4.95037c1.16317,-2.66246 5.12588,-0.84074 7.20206,-1.63496c2.4571,-0.93993 1.98152,-4.62846 1.5652,-7.02396z" data-paper-data="{&quot;noHover&quot;:false,&quot;origItem&quot;:[&quot;Path&quot;,{&quot;applyMatrix&quot;:true,&quot;segments&quot;:[[[472.87151,439.54044],[4.91419,-1.87987],[-4.15235,1.58843]],[[458.46664,442.79582],[2.32635,-5.32493],[-1.23233,2.44419]],[[454.69751,452.66721],[-1.18365,-3.2045],[0.27717,0.75037]],[[461.125,452.875],[-0.84463,0],[7.14955,0]],[[482.625,453.125],[-7.17349,0],[5.40249,0]],[[501.94032,453.18936],[-5.11713,1.68229],[1.20535,-0.39626]],[[505.41695,451.6395],[-1.25197,0.20606],[0.83391,-0.13725]],[[510.56434,451.56434],[-0.59295,0.66584],[0.73974,-0.83068]],[[511.13011,446.50128],[-0.17881,1.07285],[0,-12.42241]],[[491.53037,440.33487],[5.97912,1.75124],[-4.37924,-1.28265]],[[487.125,428.875],[0.02008,3.73048],[0,-0.5]],[[487.125,427.375],[0,0.5],[0,0]],[487.125,426.125],[[487.1259,426.09472],[-0.0009,0.01959],[-3.72789,-0.05674]],[[475.94546,425.58044],[3.71188,0.31166],[0.83264,4.791]]],&quot;closed&quot;:true}]}" fill="#ffde00"/><path d="M232.99805,198.07066c2.65528,0.43429 5.97821,-0.2382 8.55169,-0.2382c1.00665,0 2.45991,0.10394 3.91419,0.08358l0.02808,0.24934c0.12153,0.24032 2.11796,3.28055 1.09599,3.51284c-0.94535,0.21487 -2.42715,-0.06608 -3.42779,-0.06608c-2.8218,0 -5.67934,-0.17029 -8.48336,-0.35664c-0.08574,-0.02404 -0.18588,-0.03423 -0.30185,-0.02124c-0.00565,-0.00038 -0.01132,-0.00081 -0.01697,-0.00119c-0.45449,-0.03038 -2.5987,-0.60913 -3.23877,-0.40197c0.1827,-0.24009 0.44172,-0.6386 0.52113,-0.84613c0.34062,-0.89019 0.77148,-1.34648 1.35765,-1.91431z" data-paper-data="{&quot;noHover&quot;:false,&quot;origItem&quot;:[&quot;Path&quot;,{&quot;applyMatrix&quot;:true,&quot;segments&quot;:[[[468.52708,419.90807],[0.68125,-1.78038],[-0.15882,0.41506]],[[467.48401,421.58986],[0.36541,-0.48018],[1.28012,-0.41432]],[[473.95795,422.3773],[-0.90898,-0.06076],[0.0113,0.00076]],[[473.99184,422.37956],[-0.0113,-0.00076],[0.23194,-0.02598]],[[474.59481,422.41975],[-0.17148,-0.04808],[5.60803,0.3727]],[[491.375,423.125],[-5.64359,0],[2.00128,0]],[[498.22522,423.27305],[-1.89069,0.42974],[2.04394,-0.46457]],[[496.03336,416.29582],[0.24306,0.48064],[0,0]],[[495.97818,415.80071],[0,0],[-2.90856,0.04071]],[[488.16667,415.66667],[2.0133,0],[-5.14696,0]],[[471.23849,416.10966],[5.31057,0.86859],[-1.17234,1.13566]]],&quot;closed&quot;:true}]}" fill="#ffde00"/><path d="M232.59176,196.49854c-0.07681,-0.01891 -0.1534,-0.03908 -0.22892,-0.06034c-2.61072,-0.73488 -5.28254,-5.2812 -6.56316,-7.44024c-1.47738,-2.92102 -3.23541,-5.7729 -5.03901,-8.43807c-1.35163,-1.99731 -1.3434,-4.20014 -1.904,-6.4472c-0.78804,-3.15876 -1.63775,-5.81475 -1.65266,-9.11407c-0.67663,-2.36821 -0.62674,-4.64799 -1.09661,-7.09316c-0.38342,-1.99533 -1.11003,-4.08549 -1.40154,-6.12985c-0.2767,-1.94049 -0.31533,-4.26315 -0.31676,-6.32402c5.92566,-0.72746 11.7533,-2.43964 17.84691,-2.43964c8.68222,0 17.34674,0.25063 25.93625,1.59539c1.4314,0.72425 2.91204,0.72705 4.26066,0.8832c1.31854,0.15267 2.51921,0.45941 3.4338,1.73716c0.76367,1.0669 -0.94408,4.74263 -1.25095,6.04712c-0.77949,3.31362 -1.14077,6.76297 -1.14077,10.15818c0.01103,4.55923 -1.40848,7.85478 -2.63673,12.15034c-0.85379,2.98597 -2.06548,6.8772 -3.94483,9.36245c-1.49532,3.73829 -4.4553,8.52985 -7.77996,10.92177c-1.42427,1.02469 -5.86886,0.54543 -7.6009,0.54543c-2.42581,0 -5.42445,0.58355 -7.9436,0.26427c-0.01866,-0.02226 -0.03922,-0.04459 -0.06152,-0.06689c-0.36001,-0.36001 -0.72161,-0.23167 -0.91572,-0.11183z" data-paper-data="{&quot;noHover&quot;:false,&quot;origItem&quot;:[&quot;Path&quot;,{&quot;applyMatrix&quot;:true,&quot;segments&quot;:[[[472.18566,413.06434],[-0.72001,-0.72001],[0.04459,0.04459]],[[472.30843,413.19804],[-0.03733,-0.04451],[5.03831,0.63856]],[[488.16667,412.66667],[-4.85162,0],[3.46406,0]],[[503.34093,411.58107],[-2.84854,2.04938],[6.64931,-4.78384]],[[518.85902,389.76511],[-2.99064,7.47659],[3.75869,-4.97051]],[[526.72649,371.08062],[-1.70759,5.97194],[2.4565,-8.59111]],[[532,346.83333],[0.02205,9.11846],[0,-6.79041]],[[534.29525,326.54651],[-1.55897,6.62724],[0.61373,-2.60898]],[[536.80486,314.4622],[1.52735,2.13381],[-1.82918,-2.5555]],[[529.94488,310.99561],[2.63708,0.30533],[-2.69725,-0.3123]],[[521.43299,309.2368],[2.86279,1.44851],[-17.17901,-2.68952]],[[469.64686,306.06033],[17.36444,0],[-12.18723,0]],[[433.99719,310.91247],[11.85132,-1.45492],[0.00285,4.12174]],[[434.6396,323.54967],[-0.5534,-3.88099],[0.58302,4.08872]],[[437.45069,335.796],[-0.76685,-3.99065],[0.93973,4.89036]],[[439.65217,349.95861],[-1.35326,-4.73642],[0.02982,6.59864]],[[442.95777,368.14658],[-1.57608,-6.31751],[1.12119,4.49412]],[[446.75536,381.01231],[-2.70327,-3.99461],[3.60719,5.33033]],[[456.80593,397.85669],[-2.95476,-5.84203],[2.56124,4.31807]],[[469.9004,412.72109],[-5.22144,-1.46976],[0.15104,0.04252]],[[470.35742,412.84154],[-0.15362,-0.03782],[0.38822,-0.23968]]],&quot;closed&quot;:true}]}" fill="#ffde00"/><path d="M215.92243,180.37116c0.0488,0.04567 0.09697,0.09192 0.14484,0.13854c0.08709,-0.60054 0.08912,-1.2228 0.02004,-1.84261c-0.00061,-0.01873 -0.00357,-0.06901 -0.01644,-0.13527c-0.43953,-3.41061 -3.06181,-6.54776 -6.49368,-5.02661c-4.15636,1.13993 -8.51599,-1.44082 -10.38569,-5.29471c-0.66291,-1.36642 -0.68853,-3.04928 -0.90431,-4.53551c-0.65635,-4.52075 0.07611,-9.0804 2.54828,-13.04368c0.77522,-1.2428 1.26904,-2.34327 2.73269,-2.66418c1.98975,-0.55049 4.74887,-0.5392 6.895,0.36008c0.07324,-0.07709 0.14854,-0.15272 0.2248,-0.22699c0.78395,0.20043 1.57191,0.45371 2.12908,0.97362c0.5389,0.5673 0.47304,0.82966 0.52366,1.57271c0.01783,0.26167 0.40078,1.97668 0.21527,2.19273c-0.05477,0.06378 -1.25834,-0.22583 -1.31655,-0.24967c-1.69976,-0.69617 -2.98234,-1.83808 -4.72704,-2.43751c0,0 -0.30017,-0.09996 -0.54151,0.06108c-1.59259,-0.27419 -3.14082,-0.00033 -4.53609,1.46372c-0.9496,0.99642 -1.42965,2.22244 -2.00795,3.43652c-1.4371,3.16339 -0.9849,6.43083 -0.2191,9.71458c0.52452,2.24911 0.42779,3.77582 2.7771,4.91011c0.94454,0.31245 1.85216,0.82048 2.8094,1.06288c3.14899,0.79744 9.12015,-0.91908 10.50933,3.12042c1.39877,1.3302 2.13584,4.70298 1.79066,7.32256c-0.32731,0.2084 -0.32875,0.64084 -0.32875,0.64084l0.0387,-0.1123c-0.24644,0.76369 -0.86268,2.62347 -1.76251,2.89783c-0.74689,0.22773 -2.43363,-0.00392 -2.93564,-0.60055c-0.08715,-0.10358 -0.21239,-1.28524 -0.192,-1.29221c1.75091,-0.59846 2.65996,-1.0372 3.0084,-2.40643z" data-paper-data="{&quot;noHover&quot;:false,&quot;origItem&quot;:[&quot;Path&quot;,{&quot;applyMatrix&quot;:true,&quot;segments&quot;:[[[431.00207,385.59186],[3.50183,-1.19691],[-0.04077,0.01394]],[[431.33158,387.98385],[-0.1743,-0.20716],[1.00402,1.19327]],[[437.19032,389.18936],[-1.49379,0.45547],[1.79966,-0.54873]],[[440.70198,383.40066],[-0.49288,1.52738],[0,0]],[440.625,383.625],[[441.27963,382.34516],[-0.65463,0.41681],[0.69036,-5.23916]],[[437.82605,367.85222],[2.79754,2.66039],[-2.77836,-8.079]],[[416.68971,361.63186],[6.29798,1.59487],[-1.91448,-0.48481]],[[411.03378,359.47374],[1.88908,0.62491],[-4.69862,-2.26858]],[[405.46322,349.57984],[1.04903,4.49822],[-1.5316,-6.56749]],[[405.94285,330.08539],[-2.8742,6.32678],[1.1566,-2.42817]],[[409.97934,323.20133],[-1.8992,1.99284],[2.79053,-2.92811]],[[419.08083,320.26723],[-3.18517,-0.54838],[0.48267,-0.32208]],[[420.16724,320.14488],[0,0],[3.48939,1.19886]],[[429.65411,325.02411],[-3.39951,-1.39234],[0.11643,0.04769]],[[432.29594,325.52654],[-0.10954,0.12757],[0.37102,-0.43211]],[[431.79591,321.32851],[0.03566,0.52335],[-0.10125,-1.48611]],[[430.75396,318.18472],[1.07781,1.13459],[-1.11435,-1.03982]],[[426.50821,316.24006],[1.5679,0.40087],[-0.15251,0.14853]],[[426.05967,316.69416],[0.14649,-0.15417],[-4.29226,-1.79857]],[[412.30692,315.97185],[3.9795,-1.10098],[-2.9273,0.64183]],[[406.85972,321.29374],[1.55043,-2.4856],[-4.94433,7.92656]],[[401.81761,347.3152],[-1.3127,-9.04149],[0.43156,2.97246]],[[403.62682,356.33939],[-1.32583,-2.73284],[3.73939,7.70778]],[[424.28131,366.8529],[-8.31273,2.27986],[6.86375,-3.04231]],[[437.34213,377.08835],[-0.87905,-6.82122],[0.02574,0.13251]],[[437.37467,377.35911],[-0.00121,-0.03747],[0.13816,1.23963]],[[437.3293,381.04747],[0.17418,-1.20107],[-0.09574,-0.09326]],[[437.0393,380.77056],[0.09759,0.09134],[-0.69689,2.73847]]],&quot;closed&quot;:true}]}" fill="#ffde00"/><path d="M267.06551,183.6455c0.02038,0.00699 -0.10592,1.18854 -0.19316,1.29204c-0.50256,0.59617 -2.1895,0.82628 -2.93619,0.59786c-0.89958,-0.27519 -1.51412,-2.13554 -1.75986,-2.89945l0.0386,0.11234c0,0 -0.00104,-0.43243 -0.32816,-0.64113c-0.34277,-2.6199 0.39738,-5.99203 1.79737,-7.32094c1.3929,-4.03822 7.36248,-2.31619 10.5122,-3.11073c0.95747,-0.24152 1.86556,-0.74873 2.81038,-1.06031c2.35035,-1.13213 2.25503,-2.65894 2.78161,-4.90757c0.76882,-3.28304 1.22402,-6.55006 -0.21017,-9.71477c-0.57718,-1.21462 -1.05611,-2.44107 -2.0048,-3.43837c-1.39392,-1.46534 -2.9419,-1.74061 -4.53473,-1.46788c-0.24118,-0.16126 -0.54146,-0.06158 -0.54146,-0.06158c-1.74525,0.59783 -3.02887,1.73856 -4.72927,2.43317c-0.05824,0.02379 -1.26207,0.3123 -1.31678,0.24846c-0.18531,-0.21623 0.19923,-1.93088 0.2173,-2.19254c0.05131,-0.74301 -0.01432,-1.00543 0.52511,-1.57223c0.55766,-0.5194 1.34584,-0.77194 2.12998,-0.97165c0.07619,0.07433 0.15141,0.15004 0.22458,0.22718c2.14695,-0.89731 4.90609,-0.90606 6.89534,-0.35374c1.46335,0.32226 1.95617,1.42319 2.73024,2.6667c2.46852,3.96555 3.19678,8.52589 2.53627,13.04603c-0.21715,1.48603 -0.24431,3.16885 -0.90848,4.53466c-1.87324,3.85217 -6.23521,6.42891 -10.39053,5.28516c-3.43048,-1.52431 -6.05568,1.61042 -6.49834,5.02062c-0.01293,0.06625 -0.01594,0.11652 -0.01657,0.13526c-0.06965,0.61975 -0.06819,1.24202 0.01835,1.84263c0.04791,-0.04658 0.09613,-0.09279 0.14497,-0.13841c0.34719,1.36955 1.25582,1.80914 3.00618,2.40921z" data-paper-data="{&quot;noHover&quot;:false,&quot;origItem&quot;:[&quot;Path&quot;,{&quot;applyMatrix&quot;:true,&quot;segments&quot;:[[[533.2168,382.5008],[0.69437,2.73911],[-0.09767,0.09125]],[[532.92655,382.77744],[0.09583,-0.09317],[-0.17308,-1.20123]],[[532.88457,379.08904],[-0.1393,1.2395],[0.00124,-0.03747]],[[532.91736,378.81831],[-0.02586,0.13249],[0.88532,-6.82041]],[[545.98759,368.59487],[-6.86095,-3.04862],[8.31063,2.2875]],[[566.65174,358.10036],[-3.74648,7.70434],[1.32834,-2.73162]],[[568.46924,349.07784],[-0.43429,2.97206],[1.32101,-9.04028]],[[563.45107,323.05176],[4.93704,7.9311],[-1.54814,-2.48702]],[[558.00876,317.72486],[2.92671,0.64452],[-3.97849,-1.10464]],[[544.25535,318.43452],[4.29391,-1.79462],[-0.14635,-0.1543]],[[543.80723,317.98001],[0.15237,0.14867],[-1.56827,0.39943]],[[539.5597,319.92076],[1.11531,-1.03879],[-1.07885,1.1336]],[[538.51486,323.06359],[0.10262,-1.48602],[-0.03614,0.52332]],[[538.01096,327.26116],[-0.37062,-0.43245],[0.10942,0.12767]],[[540.65326,326.76116],[-0.11647,0.04758],[3.40079,-1.38921]],[[550.14461,321.89066],[-3.49049,1.19565],[0,0]],[[551.23091,322.01401],[-0.48237,-0.32252],[3.18567,-0.54545]],[[560.32969,324.95648],[-2.78784,-2.93068],[1.89737,1.99459]],[[564.35985,331.84425],[-1.15437,-2.42923],[2.86838,6.32942]],[[564.82155,351.33913],[1.53764,-6.56608],[-1.05317,4.49725]],[[559.2419,361.2279],[4.7007,-2.26426],[-1.88965,0.62317]],[[553.58398,363.38082],[1.91493,-0.48305],[-6.29944,1.58908]],[[532.44193,369.58174],[2.78579,-8.07644],[-2.79999,2.65782]],[[528.97502,384.0715],[-0.68554,-5.23979],[0.65425,0.41741]],[529.62848,385.35194],[[529.5517,385.12753],[0,0],[0.49148,1.52783]],[[533.05804,390.91945],[-1.79915,-0.55038],[1.49337,0.45684]],[[538.91788,389.71933],[-1.00512,1.19235],[0.17449,-0.207]],[[539.24959,387.32765],[0.04076,0.01398],[-3.50073,-1.20013]]],&quot;closed&quot;:true}]}" fill="#ffde00"/><path d="M214.10771,172.20316c0.06606,0.05285 0.1319,0.10702 0.19721,0.16189c0.04168,-0.01054 0.08474,-0.01758 0.12887,-0.02081c-0.10957,-0.05933 -0.21772,-0.10539 -0.32609,-0.14108zM215.91717,171.58537c1.1917,1.76723 3.53718,6.20074 2.77989,8.3801c-0.13557,0.39014 -0.35956,0.55222 -0.54985,0.7529c0.30329,0.47334 -0.12754,0.90417 -0.12754,0.90417l-0.24137,0.20031c-0.02087,1.01992 0.40147,2.01459 -0.50863,2.92469c-0.95891,0.95891 -2.44459,0.94187 -3.39321,0.2798c-0.53393,-0.00922 -0.99962,-0.26889 -1.27965,-0.92327c-0.45231,-1.05696 0.10019,-1.69673 0.95588,-1.97233c0.822,-1.09375 2.21917,-1.80818 1.9439,-3.5605c-0.47464,-3.02147 -4.06402,-4.19627 -5.42807,-6.89362c0,0 -0.33541,-0.67082 0.33541,-1.00623c0.39474,-0.19737 0.67333,-0.04632 0.83579,0.11145c0.13264,-0.11855 0.30772,-0.19063 0.49962,-0.19063h0.75c1.44071,0 2.26033,0.06422 3.42783,0.99316z" fill="#d2b600"/><path d="M262.1621,176.60556c0,0 -0.26335,-0.70225 0.4389,-0.96559c0.70225,-0.26334 0.96559,0.4389 0.96559,0.4389c0.16897,0.45484 0.9635,2.05911 1.03307,2.49065c0.08373,0.51935 -0.44072,1.05863 -0.26749,1.55535c0.45366,1.30085 2.81543,2.46146 3.10765,3.82431c0.35767,1.6681 -2.10469,2.77307 -3.49138,2.37445c-1.57206,-0.45191 -1.00245,-1.22415 -1.79474,-2.1379c-1.29235,-1.69904 -0.66737,-4.11121 -0.6618,-6.15538l0.03305,-0.05721l-0.0254,-0.00423l0.12297,-0.73784c0.04395,-0.29591 0.26075,-0.53543 0.54444,-0.61262c-0.00162,-0.0043 -0.00324,-0.0086 -0.00486,-0.0129zM266.05487,184.46772c0.17052,-0.00506 0.13483,-0.09256 0.00588,-0.22155c-0.03476,0.0867 -0.08524,0.1654 -0.14792,0.23257c0.04717,-0.00581 0.09452,-0.00961 0.14204,-0.01102z" fill="#d2b600"/><path d="M249.59776,196.00103c-2.81585,1.57663 -7.21938,2.33467 -10.82014,1.91815c-0.29178,0.01887 -0.57435,0.032 -0.84488,0.0397l-0.01086,0.13031l-1.48775,-0.12398c-0.38843,-0.02827 -0.69478,-0.35235 -0.69478,-0.748c0,-0.08778 0.01508,-0.17205 0.0428,-0.25034c-1.43605,-0.03578 -2.80841,-0.21061 -4.03793,-0.63434c-1.97364,0.00655 -5.36692,-2.40614 -2.41688,-3.93323c4.32289,-2.23775 10.0665,-1.82969 13.92789,-5.12991c1.59085,-1.36337 3.03043,-2.95256 4.64942,-4.26755c1.76264,-1.43167 3.8623,-2.12079 5.59331,-3.60122c2.2539,-1.92763 3.5128,-4.86646 5.37536,-7.11118c3.04138,-5.35801 4.99765,-11.33591 4.99104,-17.57223c0,0 0,-0.75 0.75,-0.75c0.75,0 0.75,0.75 0.75,0.75c-0.00314,3.18896 -0.48719,6.3165 -1.35634,9.33461c0.23281,0.33951 0.02716,0.7508 0.02716,0.7508l-0.17082,0.16459c-0.01146,1.97016 -0.42543,5.45969 -1.69326,6.93761c-0.30371,1.85145 -1.60022,3.93571 -2.21947,5.79727c-0.72769,2.18755 -1.01136,5.55194 -2.20552,7.41933c-0.1969,0.30791 -0.58304,0.80122 -1.04279,1.11329c-0.15974,0.60259 -0.66995,1.39186 -1.2494,2.15479c-0.27348,1.35842 -0.69945,2.50689 -1.78886,3.45865l0.21412,0.26765l-1.16664,0.93331c-0.12907,0.10508 -0.29377,0.16808 -0.47319,0.16808c-0.03196,0 -0.06346,-0.002 -0.09437,-0.00588c-0.67147,1.13173 -1.49141,2.19853 -2.54722,2.78969z" fill="#d2b600"/><path d="M219.23934,181.84221l-0.03849,0.36217c-0.16688,0.48847 -0.37247,1.05266 -0.63623,1.60008c-0.04286,0.09315 -0.08743,0.18385 -0.13372,0.27194c-0.00045,-0.00114 -0.00089,-0.00226 -0.00133,-0.0034c-0.46435,0.88366 -1.09342,1.6815 -1.97288,1.98703c-1.77485,0.61658 -4.58763,-0.2477 -4.95766,-2.22268c-0.56968,-3.04065 2.34407,-1.54824 3.16011,-3.50046c0.2083,-0.49831 -0.04479,-1.07958 -0.04479,-1.61968c0,0 0,-0.3824 0.27305,-0.60109c-0.65885,-2.37573 -2.49145,-4.60456 -4.90356,-3.50328c-4.76031,1.31349 -9.69078,-1.43798 -11.8477,-5.87291c-0.72719,-1.49519 -0.78113,-3.25092 -1.01707,-4.876c-0.69639,-4.79656 0.06906,-9.63538 2.69128,-13.83264c0.96748,-1.54859 1.62702,-2.73798 3.46381,-3.20626c1.57724,-0.43184 3.4826,-0.53223 5.29703,-0.22308c0.18591,-0.09083 0.38503,-0.06396 0.38503,-0.06396l0.78149,0.10697c1.404,0.39278 2.82668,0.63699 3.93524,1.60772c1.23399,1.42086 2.10583,6.154 -0.98841,5.66597c-1.70528,-0.26897 -3.26131,-1.64532 -4.88092,-2.38339c-1.63509,-0.47957 -3.23529,-0.43959 -4.50355,0.94986c-0.84184,0.92228 -1.26661,2.00916 -1.79158,3.11516c-1.42122,2.80426 -0.82391,6.01704 -0.15219,8.94299c0.41045,1.78784 0.15948,3.20529 2.04528,4.08244c0.88754,0.2936 1.75906,0.79164 2.65323,1.02366c1.05643,0.27413 2.19571,-0.11008 3.26864,-0.09671c2.56377,0.03195 7.27791,1.05114 8.05525,3.74587c1.70684,1.56743 2.31575,5.32585 1.82362,8.31503c0.037,0.12777 0.037,0.22866 0.037,0.22866zM212.92788,182.82564c-0.02039,0.00697 0.0776,1.09242 0.16475,1.196c0.50201,0.59663 2.18248,0.83049 2.92937,0.60276c0.89983,-0.27436 1.50939,-2.13066 1.75583,-2.89435l-0.03849,0.11217c0,0 0,-0.43151 0.32731,-0.63992c0.34518,-2.61958 -0.32802,-5.91628 -1.72679,-7.24647c-1.38918,-4.0395 -7.41918,-2.31274 -10.56817,-3.11018c-0.95724,-0.2424 -1.88343,-0.7666 -2.82797,-1.07906c-2.34931,-1.13429 -2.26076,-2.69784 -2.78528,-4.94695c-0.7658,-3.28375 -1.19728,-6.58383 0.23982,-9.74722c0.5783,-1.21409 1.06864,-2.44561 2.01824,-3.44203c1.39526,-1.46406 2.95816,-1.74124 4.55075,-1.46705c0.24133,-0.16104 0.54321,-0.06117 0.54321,-0.06117c1.7447,0.59943 3.04368,1.74345 4.74344,2.43962c0.05821,0.02384 1.26614,0.315 1.32091,0.25122c0.18551,-0.21606 -0.23218,-1.83734 -0.25001,-2.09902c-0.05062,-0.74305 0.01793,-1.0046 -0.52097,-1.57189c-0.55718,-0.51991 -1.33892,-0.7719 -2.12287,-0.97233c-0.07626,0.07426 -0.15103,0.14996 -0.22427,0.22705c-2.14613,-0.89928 -4.88663,-0.91164 -6.87637,-0.36115c-1.46365,0.32092 -1.94839,1.41815 -2.7236,2.66094c-2.47216,3.96328 -3.1774,8.48998 -2.52105,13.01073c0.21578,1.48623 0.24169,3.14567 0.90461,4.51209c1.8697,3.85389 6.17088,6.39668 10.32725,5.25675c3.43187,-1.52115 6.09088,1.70712 6.53041,5.11773c0.01287,0.06626 0.01566,0.11665 0.01627,0.13538c0.06908,0.61981 0.0644,1.24364 -0.02268,1.84418c-0.04787,-0.04663 -0.0962,-0.09278 -0.145,-0.13845c-0.34844,1.36924 -1.2677,1.8122 -3.01862,2.41065z" fill="#000000"/><path d="M260.77829,182.47568c-0.48938,-2.98963 0.12298,-6.74748 1.83126,-8.31335c0.77983,-2.69401 5.49489,-3.70887 8.0587,-3.73846c1.07294,-0.01238 2.21187,0.37287 3.26855,0.09971c0.89438,-0.2312 1.76636,-0.72843 2.65417,-1.02122c1.8866,-0.87542 1.63695,-2.2931 2.04904,-4.08055c0.67442,-2.92532 1.27469,-6.13756 -0.14396,-8.94313c-0.52395,-1.10648 -0.94773,-2.19376 -1.78872,-3.11681c-1.26698,-1.39061 -2.86715,-1.43207 -4.50267,-0.954c-1.62029,0.73658 -3.1776,2.11151 -4.88312,2.37891c-3.09468,0.48519 -2.21848,-4.24715 -0.98319,-5.66688c1.10945,-0.96972 2.53235,-1.21261 3.93671,-1.6041l0.78159,-0.10624c0,0 0.19914,-0.02669 0.38497,0.06432c1.81472,-0.30748 3.71999,-0.20533 5.29683,0.22796c1.83637,0.46997 2.49481,1.65997 3.46086,3.20944c2.61836,4.19967 3.37936,9.03919 2.67856,13.83511c-0.23744,1.62486 -0.29298,3.38054 -1.02155,4.87507c-2.16101,4.43294 -7.094,7.17988 -11.8531,5.86201c-2.41109,-1.10351 -4.24574,1.12363 -4.90677,3.49876c0.27285,0.21894 0.27249,0.60134 0.27249,0.60134c-0.0005,0.5401 -0.25412,1.12113 -0.04629,1.61964c0.81425,1.95297 3.72937,0.46323 3.15689,3.50336c-0.37184,1.97464 -3.18541,2.83634 -4.95969,2.21813c-0.87917,-0.30633 -1.50753,-1.10476 -1.97106,-1.98884c-0.00045,0.00114 -0.00089,0.00226 -0.00133,0.00339c-0.04622,-0.08813 -0.0907,-0.17887 -0.13348,-0.27206c-0.26326,-0.54766 -0.46833,-1.11204 -0.63476,-1.60066l-0.03816,-0.36221c0,0 0.0001,-0.10089 0.03721,-0.22862zM264.03524,181.28011c-0.04883,0.04563 -0.09721,0.09173 -0.14513,0.13832c-0.08654,-0.60062 -0.09064,-1.22445 -0.02099,-1.8442c0.00062,-0.01873 0.00347,-0.06912 0.01639,-0.13537c0.44266,-3.4102 3.10464,-6.63603 6.53511,-5.11172c4.15531,1.14375 8.45884,-1.39508 10.33208,-5.24725c0.66417,-1.36581 0.6916,-3.02523 0.90875,-4.51126c0.66051,-4.52014 -0.04057,-9.04749 -2.50909,-13.01304c-0.77407,-1.24351 -1.2578,-2.34119 -2.72115,-2.66345c-1.98924,-0.55232 -4.72975,-0.54248 -6.87671,0.35483c-0.07317,-0.07715 -0.14787,-0.15292 -0.22406,-0.22726c-0.78413,0.19971 -1.56611,0.45098 -2.12376,0.97037c-0.53942,0.5668 -0.47111,0.82841 -0.52242,1.57142c-0.01807,0.26166 -0.43726,1.88256 -0.25195,2.09879c0.05471,0.06384 1.26292,-0.22621 1.32115,-0.25c1.7004,-0.6946 3.00043,-1.83742 4.74567,-2.43525c0,0 0.30197,-0.09959 0.54315,0.06167c1.59283,-0.27273 3.15547,0.0059 4.54939,1.47124c0.94869,0.9973 1.4379,2.22927 2.01508,3.44388c1.43419,3.16471 0.99967,6.4644 0.23085,9.74744c-0.52659,2.24863 -0.43948,3.81225 -2.78983,4.94438c-0.94482,0.31159 -1.87149,0.83494 -2.82896,1.07646c-3.14972,0.79454 -9.17813,-0.93776 -10.57103,3.10046c-1.39999,1.32891 -2.07622,4.62498 -1.73345,7.24488c0.32713,0.20871 0.32673,0.64022 0.32673,0.64022l-0.03839,-0.11221c0.24574,0.76391 0.85359,2.62077 1.75317,2.89596c0.74669,0.22842 2.42736,-0.00388 2.92992,-0.60006c0.08724,-0.1035 0.18624,-1.18885 0.16586,-1.19584c-1.75036,-0.60007 -2.66921,-1.04387 -3.01639,-2.41342z" data-paper-data="{&quot;index&quot;:null}" fill="#000000"/><path d="M243.38086,202.03563c-0.42981,0.16608 -0.88647,0.32245 -1.37817,0.50882c0,0 -0.70225,0.26334 -0.96559,-0.4389c-0.26334,-0.70225 0.4389,-0.96559 0.4389,-0.96559c1.40551,-0.52214 2.45549,-0.65997 3.42769,-1.89127l0.49567,-0.61959c0.13732,-0.17469 0.35054,-0.28689 0.58998,-0.28689c0.41421,0 0.75,0.33579 0.75,0.75v0.75h-0.08105c0.27238,1.37645 -0.09427,2.25 -2.16895,2.25l-0.16459,0.17082c0,0 -0.59437,0.29718 -0.94389,-0.2274z" fill="#d2b600"/><path d="M238.73934,217.09221c0,0 -2.125,0.75 -2.125,0c0,-0.75 2.125,-1.5 2.125,-1.5c3.16682,0 8.01727,-1.79492 10.34467,-4.03033c0.59929,-0.5756 0.53202,-1.94697 1.24246,-2.3458c1.4757,-0.82843 1.69042,0.20431 2.21825,1.06057c0.40606,0.98347 1.26319,4.64416 0.42805,5.62909c-1.0287,1.21321 -2.37121,0.02149 -3.58263,0.29615c-1.16765,0.26473 -2.1031,1.63848 -3.21176,1.8661c-1.34678,0.27651 -2.51524,-0.94964 -4.06404,-0.87014v0.01935h-1.125c-0.22932,0 -0.4346,-0.10292 -0.57217,-0.26508c-0.58918,0.09027 -1.15446,0.14008 -1.67783,0.14008z" fill="#d2b600"/><path d="M242.48934,203.09221c0,0.25 0,1.125 0,1.375c-0.00639,0.95354 -0.03993,3.32757 0.65533,4.09467c0.81197,0.89588 3.11314,-0.27542 3.93825,-0.45318c3.65845,-0.78815 7.40386,1.35621 7.40386,5.29537c-0.16334,0.98006 0.06853,2.70638 -0.71712,3.46847c-0.90097,0.87394 -2.3575,0.31499 -3.4263,0.46242c-0.55362,0.07637 -0.97544,0.5677 -1.51168,0.72507c-2.84877,0.83602 -7.13467,0.03218 -10.09234,0.03218c-3.88152,0 -7.75365,-0.125 -11.625,-0.125c-1.21189,0 -2.88384,0.41244 -3.66126,-0.89611c-1.15496,-1.94404 1.11418,-4.79692 1.86544,-6.3143c1.88137,-3.49251 5.15045,-1.4454 8.04756,-2.37231c1.46848,-0.46982 0.80901,-4.04082 0.49066,-5.71443c-0.23764,-0.02636 -0.47494,-0.05427 -0.71186,-0.08382c-0.67333,-0.08397 -3.05448,-0.27554 -3.41853,-0.84973c-0.69066,-1.08934 0.61947,-2.88081 1.7096,-4.10195c-2.96147,-1.27625 -5.8623,-5.31149 -7.34962,-7.81182c-1.4612,-2.89223 -2.78614,-5.80624 -4.53716,-8.46584c-1.4233,-2.16184 -1.4953,-4.48254 -2.1012,-6.90047c-0.79968,-3.19119 -1.69789,-5.89736 -1.68053,-9.23935c-0.67124,-2.34933 -0.79104,-4.58969 -1.2326,-7.01393c-0.3597,-1.97487 -0.97028,-4.08215 -1.26112,-6.11494c-0.33044,-2.30953 -0.33996,-5.1266 -0.34687,-7.47516c0,0 0,-0.75 0.75,-0.75c0.21176,0 0.36373,0.05979 0.47279,0.1456c6.01715,-0.7242 11.91103,-2.44877 18.10064,-2.44877c8.81141,0 17.65587,0.15614 26.35693,1.66176l4.02627,0.98495c0.9376,0.17359 4.09588,1.47113 4.5576,2.42536c0.51022,1.05445 -0.45085,3.32763 -0.60511,4.4205c-0.59238,4.19679 -1.65913,8.11211 -1.65913,12.39393c-0.00997,4.68184 -1.43843,8.13607 -2.69657,12.54303c-0.88358,3.09497 -2.13426,7.0615 -4.06627,9.65776c-1.51196,3.77991 -4.70606,9.18248 -8.24095,11.42535c-0.72249,0.45842 -1.78953,0.68287 -2.95612,0.78488c0.81948,1.5275 2.34996,3.93626 0.22232,5.1608c-0.82834,0.47674 -3.1089,0.07403 -4.07489,0.07403c-0.20817,0 -0.41652,-0.00037 -0.62501,-0.00118c0.00001,0.00079 0.00001,0.00118 0.00001,0.00118zM233.8626,209.79993c-2.07618,0.79422 -6.03926,-1.03477 -7.20244,1.62769c-0.61616,1.22209 -2.47639,3.33345 -1.88456,4.9357c0.13859,0.37518 2.79143,0.10389 3.21374,0.10389c3.57477,0 7.16325,0.125 10.75,0.125c2.70125,0 7.0991,0.87333 9.65766,0.03218c0.60268,-0.19813 1.11233,-0.6719 1.73832,-0.77493c0.41696,-0.06862 2.27722,0.29534 2.5737,-0.03758c0.36987,-0.41534 0.19348,-1.9951 0.28288,-2.53153c0,-6.21121 -6.81031,-2.20758 -9.79987,-3.0832c-2.18962,-0.64132 -2.19264,-3.8647 -2.20269,-5.72994c0,-0.25 0,-0.5 0,-0.75v-0.625c0,0 0,-0.00535 0.00045,-0.01514c-1.86395,-0.02837 -3.73428,-0.10131 -5.59022,-0.25714c0.41632,2.3955 0.92012,6.04006 -1.53698,6.98zM233.51967,196.56188c0.0223,0.0223 0.04272,0.04459 0.06139,0.06685c2.51916,0.31928 5.50331,-0.26568 7.92912,-0.26568c1.73203,0 6.16286,0.48189 7.58713,-0.5428c3.32466,-2.39192 6.26372,-7.16969 7.75904,-10.90798c1.87935,-2.48525 3.07994,-6.35627 3.93374,-9.34224c1.22825,-4.29556 2.64778,-7.56441 2.63675,-12.12365c0,-3.39521 0.36814,-6.82979 1.14763,-10.14341c0.30687,-1.30449 2.01848,-4.97525 1.2548,-6.04216c-0.91459,-1.27775 -2.11145,-1.58063 -3.42999,-1.73329c-1.34863,-0.15615 -2.82455,-0.15515 -4.25594,-0.8794c-8.58951,-1.34476 -17.21085,-1.58823 -25.89307,-1.58823c-6.09361,0 -11.89918,1.69861 -17.82484,2.42607c0.00143,2.06087 0.0445,4.37811 0.3212,6.3186c0.29151,2.04436 1.02212,4.12784 1.40555,6.12317c0.46986,2.44518 0.42411,4.7131 1.10074,7.08131c0.01491,3.29932 0.86476,5.93523 1.6528,9.09398c0.5606,2.24706 0.54716,4.43556 1.8988,6.43287c1.8036,2.66517 3.5479,5.50117 5.02528,8.42219c1.28062,2.15903 3.93652,6.69732 6.54724,7.4322c0.07552,0.02126 0.1517,0.04131 0.22851,0.06023c0.19411,-0.11984 0.55411,-0.2486 0.91412,0.1114zM231.69038,199.98375c-0.07941,0.20753 -0.33883,0.6008 -0.52154,0.84089c0.64006,-0.20716 2.78248,0.36334 3.23697,0.39372c0.00565,0.00038 0.0113,0.00075 0.01695,0.00113c0.11597,-0.01299 0.21574,-0.00395 0.30148,0.02009c2.80401,0.18635 5.5683,0.35262 8.3901,0.35262c1.00064,0 2.47976,0.28889 3.42511,0.07403c1.02197,-0.23228 -0.9744,-3.2483 -1.09593,-3.48862l-0.02759,-0.24756c-1.45428,0.02035 -2.8991,-0.06702 -3.90575,-0.06702c-2.57348,0 -5.80881,0.65579 -8.46409,0.2215c-0.58617,0.56783 -1.01508,1.00902 -1.35571,1.8992z" fill="#000000"/></g></g></svg>