<svg version="1.1" xmlns="http://www.w3.org/2000/svg" xmlns:xlink="http://www.w3.org/1999/xlink" width="65.80403" height="66.35137" viewBox="0,0,65.80403,66.35137"><g transform="translate(-207.09798,-146.82431)"><g data-paper-data="{&quot;isPaintingLayer&quot;:true}" fill-rule="nonzero" stroke="none" stroke-linecap="butt" stroke-linejoin="miter" stroke-miterlimit="10" stroke-dasharray="" stroke-dashoffset="0" style="mix-blend-mode: normal"><path d="M242.67794,189.64615c1.99073,-0.95339 7.84656,-6.38181 9.96097,-8.13825c0.33962,-0.28212 1.63593,-1.55815 2.63783,-1.68525c0.09041,-0.07122 0.20628,-0.13198 0.3542,-0.17518c0.88194,-0.25753 1.13947,0.62441 1.13947,0.62441l0.24134,0.82871c1.5512,4.66893 3.54894,9.12323 4.85548,13.86364c0.61197,2.22037 1.62212,3.77091 1.83909,5.81492l0.2137,-0.03871l0.16388,0.90454c0.06839,0.33705 -0.05614,0.69885 -0.34969,0.91873c-0.33079,0.24778 -0.77418,0.23892 -1.09166,0.00765l-0.80125,-0.55545l0.00644,-0.00929l-0.03503,-0.01135c-2.65563,-2.18675 -5.88855,-3.92692 -8.85044,-5.73221c-3.06355,-1.86725 -6.02179,-3.81334 -9.49705,-4.82114c0,0 -0.01612,-0.00471 -0.04336,-0.01504c-0.02947,-0.00903 -0.05872,-0.01942 -0.08766,-0.03108c-0.18362,-0.06588 -0.34241,-0.17816 -0.4645,-0.32106c-0.36495,-0.38005 -0.53591,-0.95746 -0.19628,-1.37592zM254.03941,183.21138c-1.94066,1.50719 -4.97188,3.20078 -6.51578,5.03809c-0.38253,0.45523 -1.03964,1.3169 -1.77193,2.03448c2.89595,1.12577 5.4981,2.78318 8.17233,4.41336c2.51409,1.53256 5.17713,3.02628 7.57686,4.75366c-0.44585,-1.07789 -0.82632,-2.3965 -1.0511,-2.93812c-0.82739,-1.99362 -1.33322,-4.17479 -1.86857,-6.24956c-0.71405,-2.76729 -2.15767,-5.35461 -3.1274,-8.04745c-0.54408,0.44359 -1.16871,0.80473 -1.41441,0.99555z" fill="#040000" stroke-width="0.5"/><path d="M255.53188,182.18982c0.96973,2.69284 2.4448,5.31675 3.15885,8.08404c0.53536,2.07477 1.03019,4.28194 1.85758,6.27556c0.22478,0.54162 0.60216,1.86295 1.04801,2.94084c-2.39974,-1.72737 -5.0884,-3.2134 -7.60249,-4.74596c-2.67423,-1.63018 -5.31016,-3.32402 -8.20611,-4.44979c0.73229,-0.71758 1.39088,-1.58982 1.77341,-2.04505c1.54391,-1.83731 4.6091,-3.55726 6.54976,-5.06445c0.24569,-0.19082 0.87691,-0.5516 1.42099,-0.99519z" data-paper-data="{&quot;noHover&quot;:false,&quot;origItem&quot;:[&quot;Path&quot;,{&quot;applyMatrix&quot;:true,&quot;segments&quot;:[[[506.48206,357.87072],[0.58872,-0.60823],[-4.6501,4.80422]],[[490.86071,373.94078],[3.45474,-5.5414],[-0.85598,1.37299]],[[486.8673,380.10076],[1.6976,-2.21382],[8.23297,1.92246]],[[510.57466,388.85682],[-7.82907,-3.3663],[7.36023,3.16471]],[[532.80836,398.75788],[-7.12687,-3.73336],[-1.6143,-2.73279]],[[528.8504,391.24586],[0.81319,1.37289],[-2.99321,-5.0534]],[[521.42073,375.12657],[2.23761,5.38397],[-2.98449,-7.18103]],[[509.91065,354.64657],[3.64472,6.88246],[-1.29562,1.40356]]],&quot;closed&quot;:true}]}" fill="#9500d8" stroke-width="0.5"/><path d="M230.39057,193.4816c0.0767,-0.99705 1.07375,-0.92036 1.07375,-0.92036c4.32032,0.33486 9.51589,-1.4959 13.59469,0.06858l0.24484,0.07979c0,0 0.76316,0.25439 0.69235,0.99133c0.19325,0.34513 0.00827,0.74066 0.00827,0.74066l-0.32152,0.68618c-1.68521,3.97698 -2.95163,8.07145 -4.83956,11.95367c-0.88429,1.8184 -1.11768,3.4262 -2.16005,4.89928l0.16331,0.09842l-0.41655,0.69123c-0.15038,0.26182 -0.44228,0.42808 -0.76329,0.40277c-0.36173,-0.02852 -0.64883,-0.2915 -0.72397,-0.62805l-0.206,-0.83078l0.00962,-0.00238l-0.0165,-0.0278c-0.48222,-2.98141 -1.60394,-6.00325 -2.50924,-8.91085c-0.89123,-2.86237 -1.67816,-5.71649 -3.22304,-8.2955c-0.28512,-0.11052 -0.65492,-0.37437 -0.60709,-0.99619zM235.76264,202.29904c0.76832,2.46813 1.65732,4.99705 2.23729,7.52728c0.33123,-0.96902 0.84515,-2.05879 1.01109,-2.54614c0.6108,-1.79387 1.54233,-3.52487 2.39268,-5.20287c1.20913,-2.38596 1.75311,-5.11795 2.79363,-7.57839l0.02398,-0.05137c-3.1093,-1.25383 -7.66752,-0.02545 -11.32646,0.12523c1.28037,2.44354 2.04173,5.07272 2.86777,7.72627z" fill="#000000" stroke-width="0.5"/><path d="M232.86418,194.53329c3.65894,-0.15068 8.27821,-1.37931 11.38751,-0.12548l-0.02393,0.05141c-1.04053,2.46043 -1.56507,5.23596 -2.7742,7.62192c-0.85035,1.678 -1.82756,3.45498 -2.43837,5.24885c-0.16594,0.48736 -0.68752,1.57718 -1.01875,2.5462c-0.57997,-2.53023 -1.51487,-5.10122 -2.28319,-7.56936c-0.82604,-2.65355 -1.5687,-5.33 -2.84907,-7.77354z" data-paper-data="{&quot;noHover&quot;:false,&quot;origItem&quot;:[&quot;Path&quot;,{&quot;applyMatrix&quot;:true,&quot;segments&quot;:[[[236.67422,201.11479],[-0.82604,-2.65355],[0.76832,2.46813]],[[238.91151,208.64206],[-0.57997,-2.53023],[0.33123,-0.96902]],[[239.92261,206.09592],[-0.16594,0.48736],[0.6108,-1.79387]],[[242.31529,200.89305],[-0.85035,1.678],[1.20913,-2.38596]],[[245.10892,193.31466],[-1.04053,2.46043],[0,0]],[[245.13291,193.26329],[0,0],[-3.1093,-1.25383]],[[233.80645,193.38852],[3.65894,-0.15068],[1.28037,2.44354]]],&quot;closed&quot;:true}]}" fill="#9500d8" stroke-width="0.5"/><path d="M224.65729,185.02797c0.30439,-0.30439 0.60879,-0.25936 0.8129,-0.16574c0.10579,-0.44348 -0.53761,-2.43786 -0.71929,-3.36342c-0.45272,-2.30624 -1.98366,-4.36664 -3.35904,-6.28113c-1.71091,2.05358 -3.83715,3.59789 -5.96425,5.21587c-1.78521,1.35791 -3.58425,2.83226 -5.47591,4.05497c0.88843,-0.01699 1.92945,0.07924 2.37608,0.07017c1.64397,-0.03339 3.33169,0.2134 4.95213,0.40971c2.30412,0.27912 4.69338,-0.08674 7.00828,0.03283l0.3637,0.0322c0.00179,-0.00181 0.00359,-0.00362 0.0054,-0.00543zM221.05752,173.44387c0.61442,-0.4301 1.04452,0.18433 1.04452,0.18433c1.86893,2.67012 3.73021,5.24185 4.22796,8.52346c0.32557,2.1465 1.60393,3.77692 -1.04238,4.25664l-0.03431,-0.0174c-0.19129,0.08422 -0.38293,0.06712 -0.38293,0.06712l-0.65488,-0.05891c-3.74274,-0.19597 -7.45722,-0.01558 -11.18274,-0.40496c-1.745,-0.18238 -3.12539,0.10368 -4.63562,-0.30994l-0.03187,0.16234l-0.68716,-0.1349c-0.25808,-0.04506 -0.48016,-0.23386 -0.55463,-0.50316c-0.08392,-0.30346 0.04547,-0.61552 0.29767,-0.77653l0.6165,-0.41417l0.0048,0.00715l0.01778,-0.0217c2.28859,-1.27668 4.42067,-3.08687 6.5237,-4.68672c2.17521,-1.65476 4.37709,-3.21293 6.05694,-5.39838c0,0 0.04563,-0.0591 0.12638,-0.12379c0.04543,-0.12 0.13412,-0.2412 0.29026,-0.35049zM225.41823,184.94462l-0.13061,-0.03632c0.05697,0.04019 0.09984,0.05085 0.13061,0.03632z" fill="#000000" stroke-width="0.5"/><path d="M224.69277,185.0622l-0.36436,-0.03129c-2.31491,-0.11956 -4.74888,0.26639 -7.05301,-0.01274c-1.62044,-0.1963 -3.34234,-0.46122 -4.98631,-0.42783c-0.44663,0.00907 -1.49261,-0.09443 -2.38104,-0.07744c1.89166,-1.22271 3.68472,-2.71525 5.46994,-4.07316c2.12711,-1.61797 4.33284,-3.20859 6.04375,-5.26216c1.37538,1.9145 2.92554,4.02441 3.37826,6.33066c0.18169,0.92556 0.81871,2.93648 0.71291,3.37996c-0.20411,-0.09362 -0.51033,-0.13587 -0.81472,0.16852c-0.00181,0.00181 -0.00364,0.00366 -0.00542,0.00547z" data-paper-data="{&quot;noHover&quot;:false,&quot;origItem&quot;:[&quot;Path&quot;,{&quot;applyMatrix&quot;:true,&quot;segments&quot;:[[[225.56887,183.84372],[-0.00181,0.00181],[0.30439,-0.30439]],[[226.38177,183.67798],[-0.20411,-0.09362],[0.10579,-0.44348]],[[225.66248,180.31455],[0.18169,0.92556],[-0.45272,-2.30624]],[[222.30344,174.03342],[1.37538,1.9145],[-1.71091,2.05358]],[[216.33918,179.24928],[2.12711,-1.61797],[-1.78521,1.35791]],[[210.86327,183.30426],[1.89166,-1.22271],[0.88843,-0.01699]],[[213.23936,183.37442],[-0.44663,0.00907],[1.64397,-0.03339]],[[218.19149,183.78413],[-1.62044,-0.1963],[2.30412,0.27912]],[[225.19977,183.81695],[-2.31491,-0.11956],[0,0]],[[225.56347,183.84915],[0,0],[0.00179,-0.00181]]],&quot;closed&quot;:true}]}" fill="#9500d8" stroke-width="0.5"/><path d="M232.39913,168.02113c0.07879,0.23636 0.05288,0.42038 -0.01685,0.56075c-0.15544,0.65973 -0.82004,0.59749 -0.89449,0.58837c-3.13848,1.92102 -6.97408,6.48989 -8.41739,9.69841c0,0 -0.22411,0.49305 -0.71043,0.45073c-0.62434,0.16309 -0.90405,-0.46658 -0.90405,-0.46658l-0.30713,-0.69274c-1.89699,-3.88043 -4.15734,-7.52177 -5.84985,-11.49308c-0.79275,-1.86013 -1.85341,-3.09078 -2.28181,-4.84377l-0.1814,0.05873l-0.24863,-0.76779c-0.09902,-0.28524 -0.03308,-0.61463 0.19655,-0.84036c0.25877,-0.25436 0.64558,-0.29863 0.94892,-0.13464l0.76226,0.38935l-0.00451,0.00884l0.0318,0.00577c2.56693,1.5913 5.58379,2.72636 8.37247,3.94986c2.81144,1.23349 5.54463,2.54387 8.59053,3.04408c0.14543,-0.03645 0.70825,-0.13325 0.91402,0.48406zM222.24134,165.96804c-2.36709,-1.0387 -4.85922,-2.02614 -7.14965,-3.24775c0.51428,0.88557 0.9999,1.98824 1.25897,2.43314c0.95361,1.63759 1.64941,3.47605 2.35843,5.21848c0.94177,2.3144 2.49214,4.38868 3.65004,6.60751c1.61864,-2.85024 4.43619,-6.18596 7.10868,-8.2305c-2.49939,-0.65409 -4.8361,-1.73197 -7.22647,-2.78088z" fill="#000000" stroke-width="0.5"/><path d="M229.51723,168.74135c-2.67249,2.04454 -5.53891,5.43783 -7.15754,8.28807c-1.1579,-2.21883 -2.7583,-4.33588 -3.70007,-6.65028c-0.70902,-1.74242 -1.39455,-3.61917 -2.34815,-5.25675c-0.25907,-0.4449 -0.741,-1.55174 -1.25528,-2.43731c2.29044,1.22161 4.81756,2.19426 7.18465,3.23296c2.39036,1.04891 4.77699,2.16922 7.27639,2.82331z" data-paper-data="{&quot;noHover&quot;:false,&quot;origItem&quot;:[&quot;Path&quot;,{&quot;applyMatrix&quot;:true,&quot;segments&quot;:[[[223.15292,164.78379],[2.39036,1.04891],[-2.36709,-1.0387]],[[216.00327,161.53604],[2.29044,1.22161],[0.51428,0.88557]],[[217.26224,163.96917],[-0.25907,-0.4449],[0.95361,1.63759]],[[219.62067,169.18765],[-0.70902,-1.74242],[0.94177,2.3144]],[[223.27071,175.79516],[-1.1579,-2.21883],[1.61864,-2.85024]],[[230.37938,167.56467],[-2.67249,2.04454],[-2.49939,-0.65409]]],&quot;closed&quot;:true}]}" fill="#9500d8" stroke-width="0.5"/><path d="M233.25865,191.6101c0.81782,1.16062 4.12203,2.09131 4.12203,3.79656c0,0.04068 -0.00094,0.08088 -0.0028,0.1206c0.15695,0.12198 0.29594,0.30857 0.38649,0.58966c0.3561,1.10548 -0.74938,1.46159 -0.74938,1.46159l-1.03879,0.33379c-5.84584,2.12257 -11.40493,4.80194 -17.34962,6.61784c-2.78444,0.85055 -4.70861,2.18094 -7.28394,2.52622l0.05635,0.26869l-1.1373,0.23855c-0.42352,0.09815 -0.88504,-0.04662 -1.17311,-0.40992c-0.3246,-0.40938 -0.32884,-0.96997 -0.04765,-1.37919l0.67401,-1.03181l0.01196,0.00781l0.01313,-0.04465c2.67086,-3.43181 4.75732,-7.57757 6.93551,-11.38311c2.04853,-3.57903 4.18246,-7.05031 5.41929,-10.97842c-0.00418,-0.04394 -0.00631,-0.08848 -0.00631,-0.13351c0,-0.32435 0.1108,-0.62281 0.2966,-0.85962c0.01766,-0.06551 0.03505,-0.13116 0.05218,-0.19694c0,0 0.29509,-1.12332 1.4184,-0.82823c0.83599,0.21961 0.88638,0.89795 0.85747,1.23059c0.00449,0.00843 0.0089,0.01691 0.01322,0.02545c3.22652,1.17175 6.96864,7.80903 8.53225,10.02806zM226.61486,187.1052c-0.36247,-0.56201 -1.77348,-1.51854 -2.88222,-2.43389c-1.31689,3.43601 -3.19729,6.58435 -5.0451,9.81226c-1.84913,3.2302 -3.644,6.64726 -5.74328,9.73974c1.34655,-0.60088 2.99955,-1.12753 3.67614,-1.43042c2.49042,-1.11487 5.22902,-1.82993 7.83214,-2.57861c3.37378,-0.97032 6.50885,-2.80521 9.77464,-4.1185c-2.99476,-2.54216 -5.43626,-5.6166 -7.61232,-8.99058z" fill="#000000" stroke-width="0.5"/><path d="M234.27308,196.10289c-3.26579,1.31329 -6.43987,3.18701 -9.81365,4.15733c-2.60312,0.74867 -5.3784,1.45346 -7.86881,2.56833c-0.67659,0.30289 -2.33404,0.8253 -3.68058,1.42618c2.09928,-3.09248 3.88191,-6.54063 5.73104,-9.77083c1.84781,-3.2279 3.77537,-6.42304 5.09226,-9.85905c1.10874,0.91535 2.53677,1.87539 2.89924,2.43739c2.17606,3.37398 4.64575,6.49848 7.64051,9.04064z" data-paper-data="{&quot;noHover&quot;:false,&quot;origItem&quot;:[&quot;Path&quot;,{&quot;applyMatrix&quot;:true,&quot;segments&quot;:[[[227.52644,185.92095],[2.17606,3.37398],[-0.36247,-0.56201]],[[224.64422,183.48706],[1.10874,0.91535],[-1.31689,3.43601]],[[219.59911,193.29932],[1.84781,-3.2279],[-1.84913,3.2302]],[[213.85583,203.03906],[2.09928,-3.09248],[1.34655,-0.60088]],[[217.53197,201.60864],[-0.67659,0.30289],[2.49042,-1.11487]],[[225.36411,199.03003],[-2.60312,0.74867],[3.37378,-0.97032]],[[235.13875,194.91153],[-3.26579,1.31329],[-2.99476,-2.54216]]],&quot;closed&quot;:true}]}" fill="#9500d8" stroke-width="0.5"/><path d="M227.11351,171.49824c0.05008,-0.08765 0.11026,-0.17025 0.17989,-0.24804c-0.07147,-0.41533 0.18224,-0.78166 0.18224,-0.78166c2.28343,-3.28179 3.4705,-7.00979 4.80281,-10.74331c1.2881,-3.60964 2.8542,-7.35179 3.61409,-11.07603l0.02218,-0.0341l-0.01199,-0.0035l0.30182,-1.03408c0.11182,-0.41934 0.48639,-0.73523 0.94272,-0.75247c0.40496,-0.0153 0.76346,0.20878 0.93909,0.54576l0.48822,0.89066l-0.21042,0.11534c1.23492,1.90604 1.44563,3.93984 2.46399,6.27196c2.17417,4.97901 3.55587,10.19293 5.47024,15.28066l0.36898,0.87941c0,0 0.39208,0.93637 -0.54429,1.32846c-0.18841,0.07889 -0.35478,0.104 -0.50036,0.09377c-0.46024,0.66095 -1.70721,0.73658 -2.41614,0.73658c-3.5612,0 -7.14699,-0.36862 -10.65188,-0.33244c-0.08989,0.00093 -4.59061,0.35157 -4.84129,-0.08712zM241.15651,170.60491c0.60352,-0.00195 2.04111,-0.29517 3.15659,-0.19049c-1.12381,-3.08579 -1.67423,-6.45584 -3.03799,-9.4442c-0.98291,-2.15383 -2.06517,-4.37848 -2.74089,-6.66568c-0.18358,-0.62138 -0.77372,-2.01821 -1.14035,-3.25378c-0.85956,3.15185 -2.10768,6.28615 -3.20089,9.35022c-1.20855,3.38734 -2.32978,6.74581 -4.15264,9.82224c3.51706,-0.43287 9.0306,0.38841 11.11616,0.38168z" fill="#000000" stroke-width="0.5"/><path d="M230.01579,170.25557c1.82286,-3.07643 2.92846,-6.47299 4.137,-9.86033c1.09321,-3.06407 2.38242,-6.23322 3.24199,-9.38507c0.36663,1.23558 0.96414,2.63325 1.14772,3.25463c0.67572,2.2872 1.79029,4.55301 2.7732,6.70684c1.36375,2.98835 1.89784,6.38957 3.02165,9.47536c-1.11548,-0.10468 -2.56201,0.19357 -3.16553,0.19552c-2.08556,0.00673 -7.63897,-0.81982 -11.15603,-0.38695z" data-paper-data="{&quot;noHover&quot;:false,&quot;origItem&quot;:[&quot;Path&quot;,{&quot;applyMatrix&quot;:true,&quot;selected&quot;:true,&quot;segments&quot;:[[[242.06809,169.42066],[-2.08556,0.00673],[0.60352,-0.00195]],[[245.22468,169.23017],[-1.11548,-0.10468],[-1.12381,-3.08579]],[[242.1867,159.78598],[1.36375,2.98835],[-0.98291,-2.15383]],[[239.44581,153.1203],[0.67572,2.2872],[-0.18358,-0.62138]],[[238.30546,149.86652],[0.36663,1.23558],[-0.85956,3.15185]],[[235.10457,159.21674],[1.09321,-3.06407],[-1.20855,3.38734]],[[230.95193,169.03898],[1.82286,-3.07643],[3.51706,-0.43287]]],&quot;closed&quot;:true}]}" fill="#9500d8" stroke-width="0.5"/><path d="M246.29599,167.04027c0.31265,0.00359 0.62982,0.12915 0.90517,0.42095c0.00446,0.00473 0.00892,0.00949 0.01336,0.01427c5.50519,-0.53719 10.90454,-1.54606 16.43402,-1.75644c2.69507,-0.10254 4.73329,-0.83849 7.12146,-0.53802l0.01314,-0.25397l1.07502,0.0556c0.40254,0.01236 0.78159,0.25129 0.95357,0.64485c0.19379,0.44348 0.06487,0.94653 -0.28384,1.24646l-0.84791,0.76451l-0.00886,-0.00983l-0.02233,0.03689c-3.20444,2.44118 -6.05453,5.66009 -8.90622,8.55261c-2.94957,2.99179 -5.96078,5.84242 -8.04097,9.53387c0,0 -0.53021,0.93616 -1.46637,0.40595c-0.5004,-0.28341 -0.58184,-0.68281 -0.54923,-0.99322c-0.23798,-0.1817 -0.45723,-0.42462 -0.63879,-0.71193c-1.27633,-2.01968 -5.74435,-11.601 -6.95412,-14.82331c-0.27209,-0.12202 -0.54763,-0.37665 -0.57584,-0.90643c-0.03044,-0.57178 0.25961,-0.85546 0.53765,-0.99574c0.29083,-0.40998 0.76061,-0.69255 1.2411,-0.68704zM249.11452,171.54555c1.70985,3.28808 3.79535,6.42439 4.87615,9.96847c0.0542,0.17774 0.20062,0.47048 0.36697,0.80444c1.99593,-2.7753 4.43208,-5.15609 6.85784,-7.61628c2.42078,-2.45515 4.83721,-5.09049 7.44942,-7.36308c-1.3482,0.21935 -2.95329,0.29968 -3.63094,0.41076c-2.49432,0.40887 -5.11625,0.40092 -7.62482,0.45515c-3.04676,0.06586 -6.08553,0.86132 -9.11853,1.29277c0.27565,0.72535 0.52485,1.4727 0.8239,2.04777z" fill="#000000" stroke-width="0.5"/><path d="M248.24908,169.47604c3.03299,-0.43145 6.10585,-1.25146 9.15261,-1.31733c2.50856,-0.05423 5.16983,-0.03439 7.66415,-0.44326c0.67765,-0.11108 2.28865,-0.18478 3.63685,-0.40413c-2.61221,2.27259 -5.01958,4.93355 -7.44036,7.38869c-2.42575,2.4602 -4.93136,4.88424 -6.92729,7.65954c-0.16635,-0.33396 -0.3163,-0.62886 -0.37051,-0.80659c-1.0808,-3.54408 -3.18441,-6.73484 -4.89427,-10.02293c-0.29904,-0.57506 -0.54554,-1.32865 -0.82119,-2.05399z" data-paper-data="{&quot;noHover&quot;:false,&quot;origItem&quot;:[&quot;Path&quot;,{&quot;applyMatrix&quot;:true,&quot;segments&quot;:[[[250.0261,170.3613],[-0.29904,-0.57506],[1.70985,3.28808]],[[254.90225,180.32977],[-1.0808,-3.54408],[0.0542,0.17774]],[[255.26923,181.13421],[-0.16635,-0.33396],[1.99593,-2.7753]],[[262.12707,173.51793],[-2.42575,2.4602],[2.42078,-2.45515]],[[269.57649,166.15485],[-2.61221,2.27259],[-1.3482,0.21935]],[[265.94555,166.56561],[0.67765,-0.11108],[-2.49432,0.40887]],[[258.32073,167.02076],[2.50856,-0.05423],[-3.04676,0.06586]],[[249.20221,168.31353],[3.03299,-0.43145],[0.27565,0.72535]]],&quot;closed&quot;:true}]}" fill="#9500d8" stroke-width="0.5"/><path d="M222.09875,181.62571c0.54599,0.43039 0.48895,1.26358 0.48895,1.26358c-0.13048,1.89316 -0.53135,3.83594 0.51152,5.5391c0.67508,1.10252 1.82281,1.72324 2.74405,2.57151c5.37028,4.94489 14.50147,7.46894 21.1333,4.14063c2.68084,-1.33104 6.23404,-3.85754 7.87497,-6.68105c1.21449,-2.08974 1.09744,-4.92214 1.09699,-7.28287c-0.00031,-1.65007 0.39741,-4.23629 -0.08494,-5.83686c-1.35956,-4.51141 -5.47759,-7.92377 -9.28445,-9.34095c-2.17828,-0.54253 -5.38793,-2.03909 -7.6385,-1.27792c-3.26562,1.10448 -6.55249,2.67831 -9.56025,4.52047c-4.6558,2.85153 -8.12101,4.50742 -7.36677,11.31266c0.02838,0.35724 0.05676,0.71447 0.08513,1.07171zM219.98523,184.24022c-0.00479,-0.01962 -0.00694,-0.03051 -0.00694,-0.03051l-0.30056,-1.53279c-0.05049,-0.61356 -0.10096,-1.22712 -0.15145,-1.84068c-0.27144,-3.01959 0.07645,-6.93981 1.85599,-9.38759c1.71026,-2.35249 4.50569,-3.2655 6.77723,-4.65831c3.13781,-1.92396 6.69809,-3.76935 10.15404,-4.78837c2.82981,-0.8344 6.21424,0.60968 8.93293,1.29004c4.58018,1.72394 9.40221,5.75335 11.00127,11.20268c0.56565,1.92762 0.20114,4.68345 0.20078,6.68192c-0.00053,2.91467 0.0048,6.20184 -1.47443,8.76686c-1.90245,3.29888 -5.86388,6.19881 -8.98218,7.76369c-7.49958,3.7277 -17.61443,1.09885 -23.72384,-4.52622c-1.11626,-1.02777 -2.46112,-1.85299 -3.25595,-3.20639c-1.11902,-1.90539 -1.15092,-3.7348 -1.02688,-5.73433z" fill="#000000" stroke-width="0.5"/><path d="M221.96362,180.55391c-0.75424,-6.80524 2.72861,-8.49917 7.38441,-11.3507c3.00776,-1.84215 6.32678,-3.42787 9.5924,-4.53235c2.25056,-0.76117 5.48346,0.74102 7.66174,1.28355c3.80686,1.41718 7.94959,4.85908 9.30915,9.37049c0.48235,1.60057 0.08685,4.20339 0.08716,5.85346c0.00044,2.36073 0.1123,5.21363 -1.10219,7.30337c-1.64093,2.82351 -5.21489,5.37161 -7.89572,6.70265c-6.63182,3.32832 -15.82623,0.79143 -21.19651,-4.15346c-0.92124,-0.84826 -2.0746,-1.47791 -2.74968,-2.58042c-1.04287,-1.70317 -0.64668,-3.6611 -0.5162,-5.55426c0,0 0.05665,-0.83707 -0.48934,-1.26746c-0.02838,-0.35724 -0.05685,-0.71764 -0.08522,-1.07488z" data-paper-data="{&quot;noHover&quot;:false,&quot;origItem&quot;:[&quot;Path&quot;,{&quot;applyMatrix&quot;:true,&quot;segments&quot;:[[[446.02066,360.88291],[-0.05675,-0.71448],[1.09198,0.86078]],[[446.99855,363.41006],[0,0],[-0.26096,3.78632]],[[448.02159,374.48826],[-2.08573,-3.40633],[1.35016,2.20503]],[[453.50969,379.63128],[-1.84248,-1.69653],[10.74056,9.88978]],[[495.77628,387.91254],[-13.26365,6.65663],[5.36168,-2.66208]],[[511.52621,374.55043],[-3.28186,5.64703],[2.42898,-4.17949]],[[513.7202,359.9847],[0.00088,4.72146],[-0.00061,-3.30014]],[[513.55032,348.31098],[0.9647,3.20115],[-2.71912,-9.02282]],[[494.98143,329.62907],[7.61372,2.83436],[-4.35656,-1.08505]],[[479.70444,327.07323],[4.50113,-1.52234],[-6.53124,2.20895]],[[460.58394,336.11416],[6.01551,-3.6843],[-9.31161,5.70306]],[[445.8504,358.73948],[-1.50848,-13.61048],[0.05675,0.71448]]],&quot;closed&quot;:true}]}" fill="#4e00b1" stroke-width="0.5"/><path d="M228.16987,175.82634c-0.66863,2.26709 -1.33727,4.53419 -2.0059,6.80128l-0.1543,0.52318c0,0 -0.06023,0.20423 -0.23536,0.30683c-0.28749,0.25165 -0.59857,-0.0102 -0.59857,-0.0102l-0.33856,-0.2854c-1.98922,-1.55347 -4.10818,-2.88837 -6.01322,-4.54189c-0.8923,-0.77449 -1.76434,-1.14975 -2.43781,-1.96115l-0.08028,0.07726l-0.32702,-0.33978c-0.12498,-0.12453 -0.17459,-0.31445 -0.11169,-0.49179c0.07089,-0.19982 0.26278,-0.32203 0.4641,-0.31346l0.50007,0.00958l-0.00011,0.00579l0.01819,-0.0051c1.75565,0.17944 3.63099,0.00409 5.40906,-0.06642c1.8391,-0.07294 3.65563,-0.08228 5.42637,-0.6393c0,0 0.44992,-0.14046 0.59038,0.30946c0.06625,0.21222 0.00116,0.35559 -0.08612,0.44784c0.00271,0.09885 -0.01924,0.17328 -0.01924,0.17328zM222.29257,176.47712c-1.50931,0.05977 -3.0712,0.17845 -4.58703,0.12251c0.49671,0.33371 1.0339,0.78882 1.28381,0.95629c0.91988,0.61643 1.75571,1.40435 2.57391,2.13842c1.10375,0.99025 2.47394,1.68981 3.66271,2.57863c0.58419,-1.98077 1.25924,-4.26961 1.84016,-6.2393c-1.56614,0.34802 -3.15818,0.37948 -4.77356,0.44345z" fill="#0c0000" stroke-width="0.5"/><path d="M227.11452,176.02107c-0.58092,1.96969 -1.28465,4.31708 -1.86884,6.29786c-1.18877,-0.88882 -2.60289,-1.5906 -3.70663,-2.58085c-0.8182,-0.73407 -1.67947,-1.55998 -2.59935,-2.17642c-0.24991,-0.16747 -0.78722,-0.63294 -1.28393,-0.96666c1.51582,0.05594 3.08964,-0.09078 4.59895,-0.15054c1.61538,-0.06397 3.29368,-0.07538 4.85981,-0.4234z" data-paper-data="{&quot;noHover&quot;:false,&quot;origItem&quot;:[&quot;Path&quot;,{&quot;applyMatrix&quot;:true,&quot;segments&quot;:[[[223.20415,175.29287],[1.61538,-0.06397],[-1.50931,0.05977]],[[218.61712,175.41538],[1.51582,0.05594],[0.49671,0.33371]],[[219.90094,176.37167],[-0.24991,-0.16747],[0.91988,0.61643]],[[222.47485,178.51009],[-0.8182,-0.73407],[1.10375,0.99025]],[[226.13756,181.08872],[-1.18877,-0.88882],[0.58419,-1.98077]],[[227.97771,174.84942],[-0.58092,1.96969],[-1.56614,0.34802]]],&quot;closed&quot;:true}]}" fill="#9500d8" stroke-width="0.5"/><path d="M248.29679,190.79228c0.41602,0.27735 0.13868,0.69338 0.13868,0.69338l-0.0154,0.02308l-0.02037,0.35282c-0.05123,2.52342 0.15024,5.01969 -0.03154,7.53569c-0.08515,1.17847 0.13714,2.10143 -0.10871,3.12686l0.10996,0.01796l-0.07598,0.46543c-0.02478,0.17469 -0.14706,0.32823 -0.32672,0.38416c-0.20244,0.06303 -0.41528,-0.01734 -0.52908,-0.18363l-0.29206,-0.40604l0.00471,-0.00338l-0.01499,-0.0115c-0.90865,-1.5129 -2.17301,-2.90897 -3.29519,-4.29c-1.13159,-1.39263 -2.20193,-2.80431 -3.65156,-3.87832c-0.14759,0.00341 -0.33762,-0.04952 -0.44686,-0.30442c-0.19696,-0.45958 0.26261,-0.65653 0.26261,-0.65653c1.64496,-0.7038 6.43735,-0.69163 7.229,-2.17144l0.37011,-0.55543c0,0 0.27735,-0.41603 0.69338,-0.13868zM244.57376,197.90515c0.95247,1.17234 1.98362,2.35147 2.84738,3.59837c-0.03059,-0.59762 0.01174,-1.30041 -0.004,-1.60083c-0.05791,-1.10582 0.07183,-2.24712 0.16904,-3.34205c0.114,-1.28421 -0.06861,-2.59793 -0.11892,-3.89461c-1.459,1.09361 -4.23789,1.12321 -6.18421,1.62025c1.25205,1.0575 2.25055,2.33861 3.29071,3.61888z" fill="#0c0000" stroke-width="0.5"/><path d="M241.24556,194.25318c1.94633,-0.49704 4.79087,-0.53485 6.24987,-1.62846c0.05031,1.29668 0.25405,2.64347 0.14005,3.92767c-0.09721,1.09493 -0.24002,2.27893 -0.18211,3.38475c0.01574,0.30042 -0.03495,1.01027 -0.00436,1.60789c-0.86376,-1.2469 -1.9155,-2.41807 -2.86798,-3.59041c-1.04016,-1.28027 -2.08342,-2.64393 -3.33547,-3.70143z" data-paper-data="{&quot;noHover&quot;:false,&quot;origItem&quot;:[&quot;Path&quot;,{&quot;applyMatrix&quot;:true,&quot;segments&quot;:[[[245.48534,196.7209],[-1.04016,-1.28027],[0.95247,1.17234]],[[248.33272,200.31927],[-0.86376,-1.2469],[-0.03059,-0.59762]],[[248.32872,198.71844],[0.01574,0.30042],[-0.05791,-1.10582]],[[248.49776,195.37639],[-0.09721,1.09493],[0.114,-1.28421]],[[248.37884,191.48178],[0.05031,1.29668],[-1.459,1.09361]],[[242.19463,193.10203],[1.94633,-0.49704],[1.25205,1.0575]]],&quot;closed&quot;:true}]}" fill="#9500d8" stroke-width="0.5"/><path d="M250.55481,175.10731c-0.35356,0.35356 -0.7071,0 -0.7071,0l-0.18182,-0.18182c-1.77185,-1.79826 -3.76248,-4.03616 -6.05187,-5.17907c0,0 -0.44721,-0.22361 -0.22361,-0.67082c0.12668,-0.25335 0.32511,-0.29142 0.47335,-0.2768l0.34671,-0.17202c2.21744,-1.20549 4.28612,-2.61706 6.56178,-3.70547c1.0659,-0.5098 1.75755,-1.1601 2.77012,-1.45449l-0.03886,-0.10441l0.44195,-0.16455c0.16402,-0.06501 0.35798,-0.03484 0.49556,0.09351c0.15503,0.14463 0.19064,0.36935 0.10256,0.55058l-0.20804,0.45484l-0.00527,-0.00241l-0.00257,0.01871c-0.86414,1.53876 -1.45056,3.32865 -2.09437,4.98758c-0.66591,1.71586 -1.38116,3.38568 -1.57584,5.23173c0,0 -0.0005,0.00462 -0.00185,0.01289c0.06846,0.13567 0.11234,0.34884 -0.10083,0.56201zM251.3557,168.95658c0.54658,-1.40813 1.06009,-2.88797 1.71538,-4.25597c-0.504,0.32261 -1.13547,0.63396 -1.38864,0.79645c-0.93193,0.59808 -1.98763,1.05074 -2.98693,1.50868c-1.33849,0.61338 -2.51881,1.5819 -3.79716,2.31621c1.82668,1.13467 3.42116,2.82738 4.93152,4.35297c0.29351,-1.63693 0.92064,-3.15925 1.52582,-4.71834z" fill="#0c0000" stroke-width="0.5"/><path d="M249.83913,173.72405c-1.51037,-1.52559 -3.16407,-3.26579 -4.99075,-4.40046c1.27835,-0.73432 2.50206,-1.75404 3.84056,-2.36742c0.9993,-0.45794 2.09108,-0.9014 3.02301,-1.49948c0.25318,-0.16249 0.88881,-0.47045 1.39281,-0.79305c-0.65529,1.368 -1.15271,2.87995 -1.69929,4.28809c-0.60518,1.55909 -1.27282,3.1354 -1.56633,4.77233z" data-paper-data="{&quot;noHover&quot;:false,&quot;origItem&quot;:[&quot;Path&quot;,{&quot;applyMatrix&quot;:true,&quot;segments&quot;:[[[252.26728,167.77233],[-0.60518,1.55909],[0.54658,-1.40813]],[[253.98267,163.51636],[-0.65529,1.368],[-0.504,0.32261]],[[252.59402,164.31281],[0.25318,-0.16249],[-0.93193,0.59808]],[[249.60709,165.82149],[0.9993,-0.45794],[-1.33849,0.61338]],[[245.80994,168.1377],[1.27835,-0.73432],[1.82668,1.13467]],[[250.74146,172.49067],[-1.51037,-1.52559],[0.29351,-1.63693]]],&quot;closed&quot;:true}]}" fill="#9500d8" stroke-width="0.5"/><path d="M233.44159,181.91964c-0.40614,-3.25394 1.90245,-6.22103 5.15639,-6.62717c3.25394,-0.40614 6.22103,1.90245 6.62717,5.15639c0.40614,3.25394 -1.90245,6.22103 -5.15639,6.62717c-3.25394,0.40614 -6.22103,-1.90245 -6.62717,-5.15639z" fill="#cf96ff" stroke-width="0"/><path d="M229.71586,181.68369c0.11112,-0.41139 0.57734,-0.50946 0.57734,-0.50946c2.73431,-0.56723 5.20975,-2.07342 7.74142,-3.08683c2.7764,-1.11138 5.93202,-1.17569 8.87128,-1.05753c3.41246,0.16541 2.79771,3.72718 0.60163,5.3595c-1.3806,1.02618 -3.10508,0.9845 -4.61564,1.5381c-2.72852,0.99998 -4.98505,2.21241 -7.96439,2.58631c-2.67404,0.33376 -8.16516,-2.20852 -5.21163,-4.83008zM231.69057,182.38477c-0.15044,0.07988 -0.28958,0.09724 -0.28958,0.09724l-0.05799,-0.0096c-0.11591,0.02839 -0.23248,0.05609 -0.34974,0.08305c-2.252,1.34083 2.55835,2.61841 3.74845,2.46986c3.79042,-0.47035 7.71409,-2.01374 11.18466,-3.50509c1.20229,-0.51664 3.16234,-2.92133 0.91808,-2.99163c-5.913,-0.24754 -9.87606,2.4874 -15.15388,3.85616z" fill="#cf96ff" stroke-width="0.5"/></g></g></svg>