<svg version="1.1" xmlns="http://www.w3.org/2000/svg" xmlns:xlink="http://www.w3.org/1999/xlink" width="82.99523" height="110.11459" viewBox="0,0,82.99523,110.11459"><g transform="translate(-198.50238,-124.94271)"><g data-paper-data="{&quot;isPaintingLayer&quot;:true}" fill-rule="nonzero" stroke="none" stroke-width="0.5" stroke-linecap="butt" stroke-linejoin="miter" stroke-miterlimit="10" stroke-dasharray="" stroke-dashoffset="0" style="mix-blend-mode: normal"><path d="M260.72963,232.41285c-10.91319,0 -21.87136,0.00504 -32.78455,0.00504c-2.19265,0 -4.3929,-0.00361 -6.58555,-0.00361c0.22794,-0.34804 0.22772,-0.75013 0.22772,-0.75013l-0.00012,-0.20007c0,-1.46667 -0.00294,-2.93522 -0.00294,-4.40189c0,-2.26371 0.60048,-5.13097 -1.19786,-6.9138c-1.65157,-1.63732 -8.60599,-1.69237 -10.20975,0.08122c-0.95577,1.05698 -0.53427,2.07097 -0.62091,3.2727c-0.21392,2.9669 -0.53289,5.85971 -0.59662,8.83084c-2.0522,-0.0244 -4.42397,-0.18211 -6.4345,0.07031c-0.266,0.0334 -0.52667,0.55554 -0.71624,0.36597c-0.18957,-0.18957 0.32405,-0.45155 0.36591,-0.71636c0.08327,-0.52679 -0.00081,-1.06766 -0.00081,-1.60099c0,-2.2 -0.00336,-4.4048 -0.00336,-6.6048c0,-6.94066 0.19267,-13.87668 0.19267,-20.82305c0,-1.60948 -0.03934,-3.24429 -0.07289,-4.87864c-0.04217,0.00621 -0.08432,0.01206 -0.12646,0.01747c0.01249,-4.46366 0.20642,-8.94546 0.20167,-13.4238c-0.38389,-3.86767 -1.39326,-7.7314 -1.39326,-11.54705c0,-0.6 0.00734,-1.20126 0.00089,-1.80122c-0.00622,-0.57887 -0.54969,-1.58261 0.00802,-1.73779c0,0 13.6022,-0.22136 13.96245,-0.49252c4.8707,-0.11626 9.75539,-0.342 14.60408,-0.3372c1.70159,0 3.41623,-0.02909 5.12691,-0.06913c0.17631,0.06568 0.39349,0.09245 0.65825,0.05463c0.11963,-0.01709 0.22656,-0.04416 0.32119,-0.07901c7.11147,-0.18423 14.30504,-0.53453 21.36076,-0.01638c6.25691,0.45949 12.65312,2.56128 18.87771,2.5051c1.58504,6.85086 -0.30485,14.25794 0.68551,21.19166c0.53754,3.76342 1.63006,7.5888 2.39099,11.33783c-0.02574,7.09389 -0.2203,14.21586 -0.21357,21.29943c0.00167,1.76073 -0.22536,3.43767 -0.20264,5.20381c0.00987,0.76732 0.59173,2.07144 -0.14101,2.2994c-1.85435,0.57689 -5.08971,0.02385 -7.36368,-0.11468l-0.07025,-0.45059c0,-0.97046 -0.00281,-1.93918 -0.00483,-2.90964c0.30506,-2.102 1.69084,-7.17993 -0.28289,-8.86693c-0.58168,-0.49718 -1.43762,-0.11274 -2.19702,-0.2068c-2.71115,-0.33581 -6.38033,-2.3416 -8.04948,1.1758c-0.09615,0.20261 -0.12028,3.74553 -0.0962,4.15919c0.13663,2.34742 0.33466,4.71712 0.38267,7.07564z" data-paper-data="{&quot;noHover&quot;:false,&quot;origItem&quot;:[&quot;Path&quot;,{&quot;applyMatrix&quot;:true,&quot;selected&quot;:true,&quot;segments&quot;:[[[260.31505,225.29874],[0.13663,2.34742],[-0.02408,-0.41366],7],[[260.40778,221.14271],[-0.09615,0.20261],[1.66915,-3.51741],7],[[268.45124,219.97421],[-2.71115,-0.33581],[0.7594,0.09406],7],[[270.7319,220.23581],[-0.58168,-0.49718],[1.97373,1.68701],7],[[271.00949,229.10968],[0.30506,-2.102],[0.00202,0.97046],7],[[271.01263,232.02107],[0,-0.97046],[0,0],7],[[271.01263,232.40049],[0,0],[2.27397,0.13852],7],[[278.37281,232.51898],[-1.85435,0.57689],[0.73275,-0.22796],7],[[278.51263,230.22107],[0.00987,0.76732],[-0.02271,-1.76614],7],[[278.71263,225.02107],[0.00167,1.76073],[-0.00673,-7.08358],7],[[278.91871,203.74424],[-0.02574,7.09389],[-0.76093,-3.74903],7],[[276.52877,192.4213],[0.53754,3.76342],[-0.99036,-6.93372],7],[[275.85332,171.25033],[1.58504,6.85086],[-6.22459,0.05617],7],[[256.99066,168.75764],[6.25691,0.45949],[-7.05572,-0.51815],7],[[235.66009,168.77957],[7.11147,-0.18423],[-0.09464,0.03484],7],[[235.33941,168.85851],[0.11963,-0.01709],[-0.26476,0.03782],7],[[234.68214,168.80373],[0.17631,0.06568],[-1.71068,0.04003],7],[[229.56263,168.87107],[1.70159,0],[-4.84869,-0.0048],7],[[214.97417,169.19991],[4.8707,-0.11626],[-0.36026,0.27116],7],[[201.0198,169.68438],[0,0],[-0.55771,0.15519],7],[[201.01263,171.42107],[-0.00622,-0.57887],[0.00645,0.59997],7],[[201.01263,173.22107],[0,-0.6],[0,3.81565],7],[[202.41108,184.7588],[-0.38389,-3.86767],[0.00475,4.47834],7],[[202.21327,198.16636],[0.01249,-4.46366],[0.04214,-0.00541],7],[[202.33973,198.14892],[-0.04217,0.00621],[0.03355,1.63434],7],[[202.41263,203.02107],[0,-1.60948],[0,6.94637],7],[[202.21263,223.82107],[0,-6.94066],[0,2.2],7],[[202.21263,230.42107],[0,-2.2],[0,0.80182],7],[[202.56263,232.37107],[-0.79558,0.09988],[2.01053,-0.25242],7],[[208.92417,232.36899],[-2.0522,-0.0244],[0.06374,-2.97114],7],[[209.51578,223.53246],[-0.21392,2.9669],[0.08665,-1.20174],7],[[210.21831,220.20207],[-0.95577,1.05698],[1.60376,-1.77358],7],[[220.42165,220.113],[-1.65157,-1.63732],[1.79835,1.78283],7],[[221.61263,227.02107],[0,-2.26371],[0,1.46667],7],[[221.61263,231.42107],[0,-1.46667],[0,0],7],[[221.61263,231.62107],[0,0],[0,0],7],[[221.38469,232.37107],[0.22794,-0.34804],[2.19265,0],7],[[227.96263,232.37107],[-2.19265,0],[10.91319,0],7],[[260.70219,232.37107],[-10.91319,0],[-0.04801,-2.35852],7]],&quot;closed&quot;:true}]}" fill="#bdbdbd"/><path d="M202.23769,195.86299c0.14434,-0.33313 -0.47362,-2.7067 0.01382,-2.24747c5.42499,5.11111 5.61492,9.2063 10.43248,14.56082c2.89439,3.217 6.14386,6.23363 9.62863,8.84473c2.78741,2.09075 5.60427,4.6876 8.50716,6.53669c5.74489,3.65939 12.84234,5.05354 19.29232,6.66316c0.37048,0.12491 0.74097,0.24982 1.11145,0.37474l1.96432,0.62982c0.61548,0.07792 1.86919,1.27007 1.86919,1.9067c0,0.65308 -1.94528,0.07807 -2.58382,0.13406l-1.98625,0.19862l-0.04568,-0.45677c-3.9071,0.71579 -7.79327,-0.12275 -11.96731,-0.34017c-2.21377,-0.11531 -4.44705,-0.21996 -6.68587,-0.30828c-0.11207,0.59082 -0.57168,1.1896 -1.42256,1.75638c-1.44859,0.96493 -5.30454,0.35603 -7.00296,0.35504c-4.21747,-0.00247 -8.61283,-0.41974 -12.77183,-1.01187c-2.55459,-0.3637 -4.53962,-0.25083 -6.61893,-0.87508l-0.11241,0.44962l-1.90797,-0.17144c-0.55665,-0.12632 -0.63886,-0.84637 -0.63886,-1.44124c0,-0.38068 0.17017,-0.72162 0.4386,-0.95089c-0.12176,-0.16409 -0.23408,-0.34763 -0.33584,-0.55278c-1.63327,-3.29267 0.10365,-8.98305 0.09724,-12.49633c0.00522,-6.26602 0,-12.52739 0,-18.8v-1.6c0,0 0,-0.86941 0.72507,-1.15808z" fill="#828282"/><path d="M264.13504,167.07763c-2.3008,-0.32698 -4.62547,-0.59391 -6.95404,-0.76392c-3.60605,-0.26328 -7.26583,-0.3055 -10.90511,-0.25613c-1.24288,-9.89597 -2.2972,-19.73674 -2.2972,-29.87324c0,-2.26659 0.01877,-4.54014 0.00915,-6.8067c-0.00282,-0.66317 -0.75837,-1.8168 -0.11738,-1.98689c0.67147,-0.17818 2.66719,0.2331 3.47572,0.2331c4.23331,0 8.49759,0.00676 12.73089,-0.00065c1.11767,-0.00196 3.48115,-0.12205 4.49542,0.48485c0.56929,0.34064 -0.70884,1.16232 -0.81007,1.81797c-0.13486,0.87347 -0.01391,1.76943 -0.02242,2.65321c0,11.28583 0.39561,22.61091 0.39561,33.88624z" data-paper-data="{&quot;noHover&quot;:false,&quot;origItem&quot;:[&quot;Path&quot;,{&quot;applyMatrix&quot;:true,&quot;selected&quot;:true,&quot;segments&quot;:[[[264.11263,166.42107],[0,0],[0,-11.27533],7],[[263.71263,132.62107],[0,11.28583],[0.00851,-0.88378],7],[[263.73816,129.96974],[-0.13486,0.87347],[0.10123,-0.65565],7],[[264.54858,128.15196],[0.56929,0.34064],[-1.01427,-0.6069],7],[[260.06263,127.67107],[1.11767,-0.00196],[-4.2333,0.00741],7],[[247.36263,127.67107],[4.23331,0],[-0.80853,0],7],[[243.89352,127.43512],[0.67147,-0.17818],[-0.64099,0.17009],7],[[244.01263,129.42107],[-0.00282,-0.66317],[0.00963,2.26656],7],[[244.01263,136.22107],[0,-2.26659],[0,10.1365],7],[[246.29521,166.01145],[-1.24288,-9.89597],[3.63929,-0.04937],7],[[257.17322,166.26432],[-3.60605,-0.26328],[2.32858,0.17001],7],[[264.11263,167.03294],[-2.3008,-0.32698],[0,0],7]],&quot;closed&quot;:true}]}" fill="#989898"/><path d="M239.74218,166.20751c-1.17543,0.03436 -2.38631,0.0786 -3.55993,0.1097c-0.37102,-1.75307 -0.99543,-3.51331 -1.45949,-5.25264c-0.1477,-0.55361 -1.05799,-2.87549 -0.98939,-3.13408c0.04887,-0.1842 0.30236,0.26589 0.49063,0.29548c0.46101,0.07246 0.94832,0.02998 1.41359,-0.00616c0.5003,-0.03886 1.30939,-0.42612 1.82957,-0.01545c1.59091,1.25598 1.80141,5.90957 2.27501,8.00314z" data-paper-data="{&quot;noHover&quot;:false,&quot;origItem&quot;:[&quot;Path&quot;,{&quot;applyMatrix&quot;:true,&quot;selected&quot;:true,&quot;segments&quot;:[[[237.45796,158.25351],[1.59091,1.25598],[-0.52019,-0.41067],7],[[235.65124,158.26792],[0.5003,-0.03886],[-0.46526,0.03614],7],[[234.25124,158.26792],[0.46101,0.07246],[-0.18826,-0.02959],7],[[233.76263,157.97107],[0.04887,-0.1842],[-0.0686,0.25858],7],[[234.76727,161.0874],[-0.1477,-0.55361],[0.46406,1.73933],7],[[236.18878,166.26764],[-0.37102,-1.75307],[1.17362,-0.0311],7],[[239.71268,166.16716],[-1.17543,0.03436],[-0.4736,-2.09358],7]],&quot;closed&quot;:true}]}" fill="#989898"/><path d="M224.92834,166.38938c-4.10709,-0.04944 -7.64266,-0.14068 -11.324,-0.0302c0.25563,-5.50561 2.78576,-10.3659 4.51594,-15.58413c0.33684,-1.0159 0.71127,-5.43435 1.82542,-5.90143c0.68057,-0.28532 1.4824,0.14137 2.22029,0.13144c1.72796,0.59229 5.59202,0.67752 6.89681,1.81055c0.40701,0.35343 -0.20958,1.42261 -0.26676,1.62959c-0.23059,0.8347 -0.41924,1.68649 -0.59017,2.53542c-0.46737,2.32125 -0.19402,5.35372 -0.80648,7.54161c-0.25456,0.90935 -1.15985,1.53886 -1.53581,2.4051c-0.78307,1.80422 -0.9284,3.54982 -0.93523,5.46205z" data-paper-data="{&quot;noHover&quot;:false,&quot;origItem&quot;:[&quot;Path&quot;,{&quot;applyMatrix&quot;:true,&quot;selected&quot;:true,&quot;segments&quot;:[[[225.83155,160.88895],[-0.78307,1.80422],[0.37596,-0.86623],7],[[227.35451,158.50023],[-0.25456,0.90935],[0.61246,-2.18789],7],[[228.16447,151.00863],[-0.46737,2.32125],[0.17093,-0.84893],7],[[228.76008,148.47993],[-0.23059,0.8347],[0.05718,-0.20698],7],[[229.02992,146.85326],[0.40701,0.35343],[-1.30478,-1.13303],7],[[222.1624,145.05493],[1.72796,0.59229],[-0.73789,0.00993],7],[[219.95245,144.92316],[0.68057,-0.28532],[-1.11415,0.46709],7],[[218.14849,150.81635],[0.33684,-1.0159],[-1.73018,5.21823],7],[[213.63367,166.31867],[0.25563,-5.50561],[3.68134,-0.11049],7],[[224.91285,166.34184],[-4.10709,-0.04944],[0.00683,-1.91222],7]],&quot;closed&quot;:true}]}" fill="#989898"/><path d="M215.79998,156.04081c-0.01527,-0.16968 -0.02395,-0.33996 -0.02568,-0.51075c0,0 0,-0.5 0.5,-0.5c0.5,0 0.5,0.5 0.5,0.5c-0.04793,3.52981 3.62125,6.94145 6.1947,8.90047c0.45891,0.20005 0.90935,0.4561 1.26813,0.80525l0.50878,0.30527c0.14979,0.08637 0.25061,0.24814 0.25061,0.43346c0,0.27614 -0.22386,0.5 -0.5,0.5h-0.55556v-0.06814c-2.2678,0.53252 -5.37032,0.62131 -7.44444,0.62369c-0.73815,0.00085 -2.06727,0.45189 -2.71367,0.19656c-0.9941,-0.39266 -0.78633,-1.07996 -0.78633,-1.91879c0.01074,-3.15869 1.65842,-6.29892 2.81175,-9.18122c-0.00002,-0.0002 -0.00004,-0.00041 -0.00006,-0.00061l-0.03391,0.07072c0,0 0,-0.06909 0.02568,-0.15591z" fill="#767676"/><path d="M235.25167,164.90716c0.10521,-0.26383 0.25112,-0.42053 0.41961,-0.49586c-0.10058,-0.09986 -0.20238,-0.20176 -0.30609,-0.30547c0,0 -0.35355,-0.35355 0,-0.70711c0.35355,-0.35355 0.70711,0 0.70711,0c0.55409,0.55409 1.03424,1.05966 1.58861,1.45515c0.58128,0.0818 1.15915,0.34624 1.65118,0.67506l0.12845,-0.19267l0.66021,0.44014c0.13785,0.08903 0.2291,0.24402 0.2291,0.42033c0,0.27614 -0.22386,0.5 -0.5,0.5c-0.03715,0 -0.07335,-0.00405 -0.10818,-0.01173l-0.54543,-0.10909c-0.48064,-0.09694 -0.90003,-0.2424 -1.28112,-0.42795c-0.04576,-0.00077 -0.09192,-0.00187 -0.13837,-0.00331c-0.07896,0.22241 -0.32434,0.30421 -0.32434,0.30421l-0.49145,0.13677c-0.12937,0 -0.25784,-0.02037 -0.38372,-0.05585c-0.05886,0.00883 -0.11647,0.01931 -0.17184,0.03274v0.02311h-0.66667c-0.27614,0 -0.5,-0.22386 -0.5,-0.5c0,-0.19421 0.11072,-0.36255 0.27248,-0.44536c-0.25262,-0.18256 -0.36337,-0.42262 -0.23955,-0.7331z" fill="#767676"/><path d="M243.57773,143.79928c0,0 -0.15811,-0.47434 0.31623,-0.63246c0.47434,-0.15811 0.63246,0.31623 0.63246,0.31623c1.58861,4.76847 3.82381,8.11592 7.02895,11.95908c2.37986,3.18676 5.08245,6.17233 8.14648,8.7008c0.86532,0.71407 2.07628,0.71998 2.99591,1.44113c0.25676,0.21567 0.5661,0.40036 0.89682,0.4557l0.54647,0.10929c0.23369,0.04197 0.41102,0.24633 0.41102,0.49211c0,0.27614 -0.22386,0.5 -0.5,0.5h-0.66667v-0.12375c-0.0074,-0.00168 -0.01479,-0.00339 -0.02217,-0.00514c-1.70531,0.25348 -2.90426,-0.50596 -4.79105,-0.65015c-2.65473,-0.20287 -5.41396,0.00126 -8.07567,0.00126c-1.08864,0 -3.276,0.39713 -4.19303,-0.32536c-0.74098,-0.58378 -0.63925,-1.88168 -0.6403,-2.73019c-0.00114,-0.92078 -0.02641,-1.84928 -0.05929,-2.77808c-0.02054,-0.04139 -0.0355,-0.08603 -0.04393,-0.13295l-0.10929,-0.54647c-0.02635,-0.1345 -0.05795,-0.27939 -0.09235,-0.43203c-0.07619,-0.08281 -0.14777,-0.17575 -0.215,-0.27752c-0.22356,-0.00874 -0.40943,-0.16426 -0.46393,-0.37288l-0.21713,-0.75995c-0.81151,-2.50688 -0.2955,-5.66185 -0.31056,-8.4195c-0.18448,-1.43851 -0.26629,-2.89667 -0.26629,-4.39173v-0.51372c-0.10517,-0.28956 -0.20771,-0.58399 -0.30767,-0.88372zM245.20845,154.4401c0.01335,0.08812 0.02781,0.17626 0.04323,0.26443c0.0151,0.0027 0.02996,0.00607 0.04455,0.01009c-0.02979,-0.09151 -0.05905,-0.18301 -0.08778,-0.27452z" fill="#767676"/><path d="M260.31503,225.29874c-0.02408,-0.41366 -0.00341,-3.95341 0.09274,-4.15603c1.66915,-3.51741 5.33231,-1.50432 8.04346,-1.1685c0.7594,0.09406 1.69898,-0.23558 2.28065,0.2616c1.97373,1.68701 0.58265,6.77187 0.27759,8.87387c0.00202,0.97046 0.00314,1.94093 0.00314,2.91139v0.37942c2.27397,0.13852 5.50583,0.69537 7.36018,0.11849c0.73275,-0.22796 0.14969,-1.53058 0.13982,-2.29791c-0.02271,-1.76614 0.20167,-3.43927 0.2,-5.2c-0.00673,-7.08358 0.18035,-14.18293 0.20608,-21.27683c-0.76093,-3.74903 -1.8524,-7.55952 -2.38994,-11.32294c-0.99036,-6.93372 0.90959,-14.32011 -0.67546,-21.17097c-6.22459,0.05617 -12.60574,-2.03319 -18.86266,-2.49268c-7.05572,-0.51815 -14.21909,-0.16231 -21.33056,0.02192c-0.09464,0.03484 -0.20105,0.06185 -0.32069,0.07894c-0.26476,0.03782 -0.48096,0.01091 -0.65726,-0.05478c-1.71068,0.04003 -3.41793,0.06734 -5.11951,0.06734c-4.84869,-0.0048 -9.71776,0.21259 -14.58846,0.32884c-0.36026,0.27116 -13.95438,0.48447 -13.95438,0.48447c-0.55771,0.15519 -0.01338,1.15782 -0.00716,1.73669c0.00645,0.59997 0,1.2 0,1.8c0,3.81565 1.01456,7.67007 1.39845,11.53773c0.00475,4.47834 -0.18532,8.9439 -0.1978,13.40755c0.04214,-0.00541 0.08429,-0.01122 0.12646,-0.01744c0.03355,1.63434 0.0729,3.26267 0.0729,4.87215c0,6.94637 -0.2,13.85934 -0.2,20.8c0,2.2 0,4.4 0,6.6c0,0.80182 -0.44558,2.04988 0.35,1.95c2.01053,-0.25242 4.30934,-0.02648 6.36153,-0.00208c0.06374,-2.97114 0.37769,-5.86963 0.59161,-8.83653c0.08665,-1.20174 -0.25323,-2.27342 0.70254,-3.33039c1.60376,-1.77358 8.55177,-1.72638 10.20334,-0.08906c1.79835,1.78283 1.19098,4.64436 1.19098,6.90807c0,1.46667 0,2.93333 0,4.4v0.2c0,0 0,0.40196 -0.22794,0.75c2.19265,0 4.38529,0 6.57794,0c10.91319,0 21.82637,0 32.73956,0c-0.04801,-2.35852 -0.25051,-4.72491 -0.38714,-7.07233zM264.11261,166.42107c0,-11.27533 -0.4,-22.51417 -0.4,-33.8c0.00851,-0.88378 -0.10934,-1.77786 0.02553,-2.65133c0.10123,-0.65565 1.37971,-1.47714 0.81042,-1.81778c-1.01427,-0.6069 -3.36827,-0.48284 -4.48595,-0.48089c-4.2333,0.00741 -8.46669,0 -12.7,0c-0.80853,0 -2.79764,-0.41412 -3.46911,-0.23595c-0.64099,0.17009 0.1163,1.32278 0.11911,1.98595c0.00963,2.26656 0,4.53341 0,6.8c0,10.1365 1.0397,19.89441 2.28258,29.79039c3.63929,-0.04937 7.27196,-0.01042 10.87801,0.25286c2.32858,0.17001 4.63862,0.44164 6.93941,0.76862zM241.51261,136.22107c0,-2.2666 -0.00871,-4.53342 0,-6.8c0.00437,-1.13634 -0.23712,-3.15664 0.91911,-4.01405c0.8334,-0.61801 3.85127,-0.23595 4.93089,-0.23595c4.80052,0 9.97034,-0.51876 14.7364,0.00746c0.90639,0.10007 3.97708,0.86872 4.47766,1.51165c0.82129,1.05484 -0.37885,4.68563 -0.36405,5.93089c0,11.28587 0.4,22.52447 0.4,33.8v0.98724c3.55566,0.55928 7.09724,1.21111 10.65932,1.7835c3.8228,6.43174 0.69978,15.65728 1.72454,22.82903c0.54458,3.8112 1.65871,7.67244 2.41006,11.47706c0.0246,7.77696 0.28219,15.65339 -0.19706,23.41178c-0.14184,2.29612 0.65582,6.39176 -1.65703,7.81348c-0.56661,0.3483 -1.32535,0.11891 -1.98982,0.14791c-2.45712,0.10721 -4.94067,0 -7.4,0c-14.06667,0 -28.13333,0 -42.2,0c-7.06667,0 -14.13333,0 -21.2,0c-1.3128,0 -5.71269,0.60507 -6.68388,-0.36612c-0.59178,-0.59178 -0.29139,-1.65032 -0.36612,-2.48388c-0.24051,-2.68276 0,-5.50401 0,-8.2c0,-6.94085 0.2,-13.85358 0.2,-20.8c0,-1.11464 -0.01705,-2.23671 -0.03754,-3.36274c-0.16246,-0.31653 -0.16246,-0.63726 -0.16246,-0.63726v-0.4c0,-4.57408 0.19623,-9.14904 0.20155,-13.73773c-0.46142,-4.57768 -1.44308,-8.88346 -1.40155,-13.46227c0.01261,-1.39001 -0.24323,-2.87492 1.19284,-3.86331c0.96417,-0.6636 2.33109,-0.22066 3.49125,-0.37563c2.93349,-0.39185 5.50818,-0.62466 7.93246,-0.75771c0.26389,-6.36295 3.61419,-11.35174 5.01689,-17.49054c0.41823,-1.83034 0.67769,-5.18185 2.62674,-6.2149c0.39123,-0.20736 3.15773,-0.13814 3.79005,-0.13177c2.07188,0.67342 6.89969,0.90064 8.33249,2.60167c1.54625,1.83572 0.09901,4.41817 -0.27976,6.31171c-0.47762,2.38772 -0.18949,5.37712 -0.84484,7.64131c-0.79698,2.75352 -2.34606,4.12732 -2.35807,7.22332c0.69601,0.00427 1.41158,0.00653 2.14995,0.00584c1.3539,0 2.71118,-0.01692 4.0708,-0.04361c-0.62748,-2.51709 -1.79249,-4.9317 -1.90974,-7.54048c-0.03467,-0.7713 -0.43596,-1.70716 0.03894,-2.31592c0.7406,-0.94934 2.6767,-0.62855 3.71139,-0.69686c5.76984,-0.38088 5.61439,5.60608 6.70129,9.94369l0.02013,0.37928c0.52973,-0.01404 1.05948,-0.02729 1.58918,-0.03933c-1.21512,-9.91034 -2.27199,-19.68659 -2.27199,-29.83678zM237.45794,158.25351c-0.52019,-0.41067 -1.30642,-0.02445 -1.80672,0.01441c-0.46526,0.03614 -0.93899,0.07246 -1.4,0c-0.18826,-0.02959 -0.43974,-0.48106 -0.48861,-0.29686c-0.0686,0.25858 0.85694,2.56273 1.00464,3.11633c0.46406,1.73933 1.05049,3.42717 1.4215,5.18024c1.17362,-0.0311 2.34848,-0.06612 3.52391,-0.10049c-0.4736,-2.09358 -0.66381,-6.65767 -2.25473,-7.91365zM225.83153,160.88895c0.37596,-0.86623 1.2684,-1.47937 1.52296,-2.38872c0.61246,-2.18789 0.34259,-5.17035 0.80997,-7.4916c0.17093,-0.84893 0.36502,-1.694 0.59561,-2.52871c0.05718,-0.20698 0.67684,-1.27323 0.26983,-1.62667c-1.30478,-1.13303 -5.13955,-1.20604 -6.86751,-1.79833c-0.73789,0.00993 -1.52938,-0.41708 -2.20995,-0.13177c-1.11415,0.46709 -1.46713,4.87729 -1.80397,5.89319c-1.73018,5.21823 -4.25918,9.9967 -4.51481,15.50232c3.68134,-0.11049 7.17209,-0.02626 11.27917,0.02317c0.00683,-1.91222 0.13563,-3.64867 0.9187,-5.45289z" fill="#000000"/><path d="M242.01711,185.86621h-0.17258c-1.19128,-0.00248 -2.38539,0.02252 -3.58107,0.05422c0,0.60035 0,1.20069 0,1.80103l-0.54637,0.22706c0.71383,0.01041 1.42541,0.03396 2.13292,0.07767c0.83224,0.05141 4.32674,0.70144 3.6973,-0.09738c-0.17491,-0.69681 -0.42523,-1.52104 -0.7628,-2.3521c-0.31861,0.2895 -0.76741,0.2895 -0.76741,0.2895zM232.52513,186.03879c0,0 -0.36738,0 -0.67334,-0.21441c-0.40354,0.73161 -0.72007,1.48192 -0.92376,2.19852c1.61801,-0.00614 3.25414,-0.05907 4.88691,-0.07594c-0.09841,-0.22593 -0.12056,-0.51941 0.05996,-0.88046c0.0687,-0.13741 0.14719,-0.24546 0.23129,-0.32973c0,-0.25215 0,-0.5043 0,-0.75645c-1.19328,0.03213 -2.38738,0.05848 -3.58107,0.05848zM241.84453,183.70894h0.00524c-0.75729,-1.22057 -1.7561,-2.22646 -3.0434,-2.53857c-0.18036,-0.04373 -0.36149,-0.07265 -0.54291,-0.08768c0,0.89526 0,1.79052 0,2.68578c1.19498,-0.03124 2.38876,-0.05731 3.58107,-0.05953zM236.1062,181.50684c-1.06498,0.48843 -2.07446,1.34717 -2.92796,2.37235c0.9766,-0.00682 1.95263,-0.0278 2.92796,-0.05282c0,-0.77318 0,-1.54635 0,-2.31953zM230.59794,190.18074c-0.10546,0.30916 -0.36549,0.69033 -1.00669,0.69033c-1.07863,0 -1.07863,-1.07863 -1.07863,-1.07863c0.0745,-4.81937 5.40869,-12.23595 10.84747,-10.70706c3.58125,1.00672 5.50242,5.20962 6.30427,8.42874c0.00636,0.66743 0.39715,1.45224 0.01907,2.00229c-0.67456,0.98138 -2.34068,0.83424 -3.32114,0.83693c-3.89652,0.01067 -7.82154,-0.17258 -11.73554,-0.17258z" fill="#000000"/><path d="M236.15317,185.96319c0,0.25215 0.00289,0.51782 0.00289,0.76997c-0.08409,0.08427 -0.16255,0.19895 -0.23125,0.33636c-0.18052,0.36104 -0.1626,0.67185 -0.06419,0.89778c-1.63278,0.01687 -3.3606,0.069 -4.97861,0.07514c0.20368,-0.71659 0.52451,-1.51399 0.92805,-2.2456c0.30595,0.21441 0.67775,0.20867 0.67775,0.20867c1.19369,0 2.47208,-0.01019 3.66536,-0.04231z" data-paper-data="{&quot;noHover&quot;:false,&quot;origItem&quot;:[&quot;Path&quot;,{&quot;applyMatrix&quot;:true,&quot;selected&quot;:true,&quot;segments&quot;:[[[232.52515,186.03879],[1.19369,0],[0,0],7],[[231.85182,185.82438],[0.30595,0.21441],[-0.40354,0.73161],7],[[230.92806,188.02289],[0.20368,-0.71659],[1.61801,-0.00614],7],[[235.81497,187.94696],[-1.63278,0.01687],[-0.09841,-0.22593],7],[[235.87493,187.0665],[-0.18052,0.36104],[0.0687,-0.13741],7],[[236.10622,186.73676],[-0.08409,0.08427],[0,-0.25215],7],[[236.10622,185.98031],[0,0.25215],[-1.19328,0.03213],7]],&quot;closed&quot;:true}]}" fill="#00daff"/><path d="M242.82645,185.54947c0.33757,0.83105 0.5933,1.69862 0.76821,2.39543c0.62943,0.79883 -2.94272,0.17246 -3.77495,0.12105c-0.70751,-0.04371 -1.43614,-0.09102 -2.14998,-0.10143l0.54612,-0.22782c0,-0.60035 0.00165,-1.23562 0.00165,-1.83596c1.19568,-0.03169 2.47249,-0.07093 3.66377,-0.06846l0.17479,0.00256c0,0 0.45178,0.00411 0.77039,-0.28539z" data-paper-data="{&quot;noHover&quot;:false,&quot;origItem&quot;:[&quot;Path&quot;,{&quot;applyMatrix&quot;:true,&quot;selected&quot;:true,&quot;segments&quot;:[[[242.01713,185.86621],[0,0],[0,0],7],[[241.84455,185.86621],[0,0],[-1.19128,-0.00248],7],[[238.26348,185.92042],[1.19568,-0.03169],[0,0.60035],7],[[238.26348,187.72146],[0,-0.60035],[0,0],7],[[237.71712,187.94852],[0,0],[0.71383,0.01041],7],[[239.85003,188.02619],[-0.70751,-0.04371],[0.83224,0.05141],7],[[243.54734,187.9288],[0.62943,0.79883],[-0.17491,-0.69681],7],[[242.78454,185.57671],[0.33757,0.83105],[-0.31861,0.2895],7]],&quot;closed&quot;:true}]}" fill="#00aac7"/><path d="M238.22344,183.79844c0,-0.89526 0,-1.85046 0,-2.74573c0.18142,0.01504 0.36728,0.0385 0.54765,0.08223c1.28729,0.3121 2.36205,1.38252 3.11934,2.60309l-0.00528,0.00006c-1.19231,0.00222 -2.46673,0.02911 -3.66171,0.06035z" data-paper-data="{&quot;noHover&quot;:false,&quot;origItem&quot;:[&quot;Path&quot;,{&quot;applyMatrix&quot;:true,&quot;selected&quot;:true,&quot;segments&quot;:[[[241.84455,183.70894],[-1.19231,0.00222],[0,0],7],[[241.84979,183.70894],[0,0],[-0.75729,-1.22057],7],[[238.8064,181.17037],[1.28729,0.3121],[-0.18036,-0.04373],7],[[238.26348,181.08269],[0.18142,0.01504],[0,0.89526],7],[[238.26348,183.76847],[0,-0.89526],[1.19498,-0.03124],7]],&quot;closed&quot;:true}]}" fill="#00daff"/><path d="M236.14573,183.85697c-0.97533,0.02502 -2.02975,0.04687 -3.00634,0.05369c0.8535,-1.02518 1.94068,-1.94687 3.00565,-2.4353c0,0.77318 0.00069,1.60844 0.00069,2.38161z" data-paper-data="{&quot;noHover&quot;:false,&quot;origItem&quot;:[&quot;Path&quot;,{&quot;applyMatrix&quot;:true,&quot;selected&quot;:true,&quot;segments&quot;:[[[236.10622,181.50684],[0,0.77318],[-1.06498,0.48843],7],[[233.17826,183.87919],[0.8535,-1.02518],[0.9766,-0.00682],7],[[236.10622,183.82637],[-0.97533,0.02502],[0,-0.77318],7]],&quot;closed&quot;:true}]}" fill="#98f0ff"/><path d="M264.61711,186.0662h-0.17258c-1.19128,-0.00248 -2.38539,0.02253 -3.58106,0.05422c0,0.60035 0,1.20069 0,1.80103l-0.54637,0.22706c0.71383,0.0104 1.42541,0.03397 2.13292,0.07767c0.83223,0.05141 4.32673,0.70145 3.6973,-0.09739c-0.17491,-0.69681 -0.42523,-1.52104 -0.7628,-2.35209c-0.3186,0.28949 -0.76741,0.28949 -0.76741,0.28949zM255.12513,186.23879c0,0 -0.36739,0 -0.67333,-0.21441c-0.40355,0.73161 -0.72008,1.48192 -0.92376,2.19851c1.61801,-0.00614 3.25413,-0.05908 4.88691,-0.07594c-0.09841,-0.22593 -0.12056,-0.51941 0.05996,-0.88045c0.0687,-0.13741 0.1472,-0.24546 0.23129,-0.32973c0,-0.25215 0,-0.50431 0,-0.75646c-1.19328,0.03213 -2.38738,0.05848 -3.58107,0.05848zM264.44453,183.90894h0.00524c-0.75729,-1.22057 -1.7561,-2.22647 -3.0434,-2.53857c-0.18036,-0.04373 -0.36149,-0.07265 -0.54291,-0.08768c0,0.89526 0,1.79052 0,2.68578c1.19498,-0.03124 2.38875,-0.05731 3.58106,-0.05953zM258.7062,181.70684c-1.06498,0.48843 -2.07446,1.34716 -2.92795,2.37234c0.97659,-0.00681 1.95263,-0.02779 2.92795,-0.05281c0,-0.77318 0,-1.54635 0,-2.31953zM253.19794,190.38074c-0.10546,0.30916 -0.3655,0.69033 -1.0067,0.69033c-1.07863,0 -1.07863,-1.07863 -1.07863,-1.07863c0.0745,-4.81937 5.40869,-12.23595 10.84746,-10.70706c3.58125,1.00672 5.50243,5.20961 6.30428,8.42873c0.00635,0.66743 0.39715,1.45224 0.01907,2.00229c-0.67457,0.98138 -2.34068,0.83424 -3.32115,0.83693c-3.89652,0.01067 -7.82154,-0.17258 -11.73554,-0.17258z" fill="#000000"/><path d="M258.74573,184.05698c-0.97533,0.02502 -2.02975,0.04687 -3.00634,0.05368c0.8535,-1.02518 1.94067,-1.94687 3.00565,-2.4353c0,0.77318 0.00069,1.60843 0.00069,2.38161z" data-paper-data="{&quot;noHover&quot;:false,&quot;origItem&quot;:[&quot;Path&quot;,{&quot;applyMatrix&quot;:true,&quot;selected&quot;:true,&quot;segments&quot;:[[[258.70622,181.70684],[0,0.77318],[-1.06498,0.48843],7],[[255.77826,184.07918],[0.8535,-1.02518],[0.97659,-0.00681],7],[[258.70622,184.02637],[-0.97533,0.02502],[0,-0.77318],7]],&quot;closed&quot;:true}]}" fill="#98f0ff"/><path d="M260.82345,183.99844c0,-0.89526 0,-1.85046 0,-2.74572c0.18142,0.01504 0.36728,0.0385 0.54765,0.08223c1.2873,0.3121 2.36205,1.38252 3.11934,2.60309l-0.00528,0.00006c-1.19231,0.00222 -2.46673,0.02911 -3.66171,0.06035z" data-paper-data="{&quot;noHover&quot;:false,&quot;origItem&quot;:[&quot;Path&quot;,{&quot;applyMatrix&quot;:true,&quot;selected&quot;:true,&quot;segments&quot;:[[[264.44455,183.90894],[-1.19231,0.00222],[0,0],7],[[264.44979,183.90894],[0,0],[-0.75729,-1.22057],7],[[261.4064,181.37037],[1.2873,0.3121],[-0.18036,-0.04373],7],[[260.86349,181.28269],[0.18142,0.01504],[0,0.89526],7],[[260.86349,183.96847],[0,-0.89526],[1.19498,-0.03124],7]],&quot;closed&quot;:true}]}" fill="#00daff"/><path d="M265.42645,185.74947c0.33757,0.83105 0.5933,1.69862 0.7682,2.39543c0.62943,0.79883 -2.94271,0.17247 -3.77495,0.12106c-0.70751,-0.0437 -1.43615,-0.09102 -2.14998,-0.10143l0.54612,-0.22781c0,-0.60035 0.00165,-1.23562 0.00165,-1.83597c1.19568,-0.0317 2.47249,-0.07093 3.66377,-0.06846l0.17479,0.00256c0,0 0.45178,0.00411 0.77039,-0.28538z" data-paper-data="{&quot;noHover&quot;:false,&quot;origItem&quot;:[&quot;Path&quot;,{&quot;applyMatrix&quot;:true,&quot;selected&quot;:true,&quot;segments&quot;:[[[264.61713,186.0662],[0,0],[0,0],7],[[264.44455,186.0662],[0,0],[-1.19128,-0.00248],7],[[260.86349,186.12042],[1.19568,-0.0317],[0,0.60035],7],[[260.86349,187.92146],[0,-0.60035],[0,0],7],[[260.31712,188.14852],[0,0],[0.71383,0.0104],7],[[262.45004,188.22619],[-0.70751,-0.0437],[0.83223,0.05141],7],[[266.14734,188.1288],[0.62943,0.79883],[-0.17491,-0.69681],7],[[265.38454,185.77671],[0.33757,0.83105],[-0.3186,0.28949],7]],&quot;closed&quot;:true}]}" fill="#00aac7"/><path d="M258.75318,186.16319c0,0.25215 0.00289,0.51782 0.00289,0.76997c-0.08409,0.08427 -0.16255,0.19895 -0.23125,0.33636c-0.18052,0.36104 -0.1626,0.67184 -0.06419,0.89777c-1.63277,0.01686 -3.3606,0.069 -4.97861,0.07514c0.20368,-0.7166 0.52451,-1.51399 0.92805,-2.2456c0.30595,0.21441 0.67775,0.20867 0.67775,0.20867c1.19369,0 2.47208,-0.01019 3.66536,-0.04231z" data-paper-data="{&quot;noHover&quot;:false,&quot;origItem&quot;:[&quot;Path&quot;,{&quot;applyMatrix&quot;:true,&quot;selected&quot;:true,&quot;segments&quot;:[[[255.12515,186.23879],[1.19369,0],[0,0],7],[[254.45182,186.02438],[0.30595,0.21441],[-0.40355,0.73161],7],[[253.52806,188.22289],[0.20369,-0.7166],[1.61801,-0.00614],7],[[258.41497,188.14695],[-1.63278,0.01686],[-0.09841,-0.22593],7],[[258.47493,187.2665],[-0.18052,0.36104],[0.0687,-0.13741],7],[[258.70622,186.93676],[-0.08409,0.08427],[0,-0.25215],7],[[258.70622,186.18031],[0,0.25215],[-1.19328,0.03213],7]],&quot;closed&quot;:true}]}" fill="#00daff"/><path d="M219.41711,186.0662h-0.17258c-1.19128,-0.00248 -2.38538,0.02252 -3.58106,0.05422c0,0.60035 0,1.20069 0,1.80104l-0.54637,0.22706c0.71383,0.0104 1.42541,0.03397 2.13292,0.07767c0.83223,0.05141 4.32674,0.70145 3.6973,-0.09739c-0.1749,-0.69681 -0.42523,-1.52104 -0.7628,-2.3521c-0.3186,0.28949 -0.76741,0.2895 -0.76741,0.2895zM209.92513,186.23879c0,0 -0.36739,0 -0.67334,-0.21441c-0.40355,0.73161 -0.72007,1.48192 -0.92376,2.19852c1.61801,-0.00614 3.25413,-0.05908 4.88691,-0.07594c-0.09841,-0.22593 -0.12056,-0.51941 0.05996,-0.88046c0.0687,-0.13741 0.1472,-0.24546 0.23129,-0.32973c0,-0.25215 0,-0.5043 0,-0.75645c-1.19328,0.03213 -2.38738,0.05848 -3.58106,0.05848zM219.24453,183.90894h0.00524c-0.75729,-1.22057 -1.7561,-2.22647 -3.04339,-2.53857c-0.18036,-0.04373 -0.36149,-0.07265 -0.54291,-0.08768c0,0.89526 0,1.79052 0,2.68578c1.19498,-0.03124 2.38876,-0.05731 3.58106,-0.05953zM213.5062,181.70684c-1.06498,0.48843 -2.07446,1.34716 -2.92795,2.37234c0.9766,-0.00681 1.95262,-0.02779 2.92795,-0.05282c0,-0.77318 0,-1.54635 0,-2.31953zM207.99794,190.38074c-0.10546,0.30916 -0.3655,0.69033 -1.0067,0.69033c-1.07863,0 -1.07863,-1.07863 -1.07863,-1.07863c0.0745,-4.81937 5.40869,-12.23595 10.84747,-10.70706c3.58125,1.00672 5.50242,5.20962 6.30427,8.42874c0.00636,0.66743 0.39715,1.45224 0.01907,2.00229c-0.67457,0.98138 -2.34068,0.83424 -3.32115,0.83693c-3.89652,0.01067 -7.82154,-0.17258 -11.73554,-0.17258z" fill="#000000"/><path d="M213.55318,186.16319c0,0.25215 0.00289,0.51782 0.00289,0.76997c-0.08409,0.08427 -0.16255,0.19895 -0.23125,0.33636c-0.18052,0.36104 -0.1626,0.67184 -0.06419,0.89777c-1.63278,0.01686 -3.3606,0.069 -4.97861,0.07514c0.20369,-0.7166 0.52451,-1.51399 0.92805,-2.2456c0.30595,0.21441 0.67775,0.20867 0.67775,0.20867c1.19368,0 2.47208,-0.01019 3.66536,-0.04231z" data-paper-data="{&quot;noHover&quot;:false,&quot;origItem&quot;:[&quot;Path&quot;,{&quot;applyMatrix&quot;:true,&quot;selected&quot;:true,&quot;segments&quot;:[[[209.92515,186.23879],[1.19368,0],[0,0],7],[[209.25182,186.02438],[0.30595,0.21441],[-0.40355,0.73161],7],[[208.32806,188.22289],[0.20369,-0.7166],[1.61801,-0.00614],7],[[213.21497,188.14695],[-1.63278,0.01686],[-0.09841,-0.22593],7],[[213.27493,187.2665],[-0.18052,0.36104],[0.0687,-0.13741],7],[[213.50622,186.93676],[-0.08409,0.08427],[0,-0.25215],7],[[213.50622,186.18031],[0,0.25215],[-1.19328,0.03213],7]],&quot;closed&quot;:true}]}" fill="#00daff"/><path d="M220.22645,185.74947c0.33757,0.83105 0.5933,1.69862 0.7682,2.39543c0.62944,0.79883 -2.94271,0.17247 -3.77495,0.12106c-0.70751,-0.0437 -1.43615,-0.09102 -2.14998,-0.10143l0.54612,-0.22781c0,-0.60035 0.00165,-1.23562 0.00165,-1.83597c1.19568,-0.0317 2.47249,-0.07093 3.66377,-0.06846l0.17479,0.00256c0,0 0.45178,0.00411 0.77039,-0.28538z" data-paper-data="{&quot;noHover&quot;:false,&quot;origItem&quot;:[&quot;Path&quot;,{&quot;applyMatrix&quot;:true,&quot;selected&quot;:true,&quot;segments&quot;:[[[219.41713,186.0662],[0,0],[0,0],7],[[219.24455,186.0662],[0,0],[-1.19128,-0.00248],7],[[215.66349,186.12042],[1.19568,-0.0317],[0,0.60035],7],[[215.66349,187.92146],[0,-0.60035],[0,0],7],[[215.11712,188.14852],[0,0],[0.71383,0.0104],7],[[217.25004,188.22619],[-0.70751,-0.0437],[0.83223,0.05141],7],[[220.94734,188.1288],[0.62944,0.79883],[-0.1749,-0.69681],7],[[220.18454,185.77671],[0.33757,0.83105],[-0.3186,0.28949],7]],&quot;closed&quot;:true}]}" fill="#00aac7"/><path d="M215.62345,183.99844c0,-0.89526 0,-1.85046 0,-2.74572c0.18142,0.01504 0.36728,0.0385 0.54765,0.08223c1.2873,0.3121 2.36205,1.38252 3.11934,2.60309l-0.00528,0.00006c-1.19231,0.00222 -2.46673,0.02911 -3.66171,0.06035z" data-paper-data="{&quot;noHover&quot;:false,&quot;origItem&quot;:[&quot;Path&quot;,{&quot;applyMatrix&quot;:true,&quot;selected&quot;:true,&quot;segments&quot;:[[[219.24455,183.90894],[-1.19231,0.00222],[0,0],7],[[219.24979,183.90894],[0,0],[-0.75729,-1.22057],7],[[216.2064,181.37037],[1.2873,0.3121],[-0.18036,-0.04373],7],[[215.66349,181.28269],[0.18142,0.01504],[0,0.89526],7],[[215.66349,183.96847],[0,-0.89526],[1.19498,-0.03124],7]],&quot;closed&quot;:true}]}" fill="#00daff"/><path d="M213.54573,184.05698c-0.97533,0.02502 -2.02975,0.04687 -3.00634,0.05368c0.8535,-1.02518 1.94067,-1.94687 3.00565,-2.4353c0,0.77318 0.00069,1.60843 0.00069,2.38161z" data-paper-data="{&quot;noHover&quot;:false,&quot;origItem&quot;:[&quot;Path&quot;,{&quot;applyMatrix&quot;:true,&quot;selected&quot;:true,&quot;segments&quot;:[[[213.50622,181.70684],[0,0.77318],[-1.06498,0.48843],7],[[210.57826,184.07918],[0.8535,-1.02518],[0.9766,-0.00681],7],[[213.50622,184.02637],[-0.97533,0.02502],[0,-0.77318],7]],&quot;closed&quot;:true}]}" fill="#98f0ff"/><path d="M229.01711,201.8662h-0.17258c-1.19128,-0.00248 -2.38538,0.02253 -3.58106,0.05422c0,0.60035 0,1.20069 0,1.80103l-0.54637,0.22706c0.71383,0.0104 1.42541,0.03397 2.13292,0.07767c0.83223,0.05141 4.32674,0.70145 3.6973,-0.09739c-0.1749,-0.69681 -0.42523,-1.52104 -0.7628,-2.35209c-0.3186,0.28949 -0.76741,0.28949 -0.76741,0.28949zM219.52513,202.03879c0,0 -0.36739,0 -0.67334,-0.21441c-0.40355,0.73161 -0.72007,1.48192 -0.92376,2.19851c1.61801,-0.00614 3.25413,-0.05908 4.88691,-0.07594c-0.09841,-0.22593 -0.12056,-0.51941 0.05996,-0.88045c0.0687,-0.13741 0.1472,-0.24546 0.23129,-0.32973c0,-0.25215 0,-0.50431 0,-0.75646c-1.19328,0.03213 -2.38738,0.05848 -3.58106,0.05848zM228.84453,199.70894h0.00524c-0.75729,-1.22057 -1.7561,-2.22647 -3.0434,-2.53857c-0.18036,-0.04373 -0.36149,-0.07265 -0.54291,-0.08768c0,0.89526 0,1.79052 0,2.68578c1.19498,-0.03124 2.38876,-0.05731 3.58106,-0.05953zM223.1062,197.50684c-1.06498,0.48843 -2.07446,1.34716 -2.92795,2.37234c0.9766,-0.00681 1.95262,-0.02779 2.92795,-0.05281c0,-0.77318 0,-1.54635 0,-2.31953zM217.59794,206.18074c-0.10546,0.30916 -0.3655,0.69033 -1.0067,0.69033c-1.07863,0 -1.07863,-1.07863 -1.07863,-1.07863c0.0745,-4.81937 5.40869,-12.23595 10.84747,-10.70706c3.58125,1.00672 5.50242,5.20961 6.30427,8.42873c0.00636,0.66743 0.39715,1.45224 0.01907,2.00229c-0.67457,0.98138 -2.34068,0.83424 -3.32115,0.83693c-3.89652,0.01067 -7.82154,-0.17258 -11.73554,-0.17258z" fill="#000000"/><path d="M223.15318,201.96319c0,0.25215 0.00289,0.51782 0.00289,0.76997c-0.08409,0.08427 -0.16255,0.19895 -0.23125,0.33636c-0.18052,0.36104 -0.1626,0.67184 -0.06419,0.89777c-1.63278,0.01686 -3.3606,0.069 -4.97861,0.07514c0.20369,-0.7166 0.52451,-1.51399 0.92805,-2.2456c0.30595,0.21441 0.67775,0.20867 0.67775,0.20867c1.19368,0 2.47208,-0.01019 3.66536,-0.04231z" data-paper-data="{&quot;noHover&quot;:false,&quot;origItem&quot;:[&quot;Path&quot;,{&quot;applyMatrix&quot;:true,&quot;selected&quot;:true,&quot;segments&quot;:[[[219.52515,202.03879],[1.19368,0],[0,0],7],[[218.85182,201.82438],[0.30595,0.21441],[-0.40355,0.73161],7],[[217.92806,204.02289],[0.20369,-0.7166],[1.61801,-0.00614],7],[[222.81497,203.94695],[-1.63278,0.01686],[-0.09841,-0.22593],7],[[222.87493,203.0665],[-0.18052,0.36104],[0.0687,-0.13741],7],[[223.10622,202.73676],[-0.08409,0.08427],[0,-0.25215],7],[[223.10622,201.98031],[0,0.25215],[-1.19328,0.03213],7]],&quot;closed&quot;:true}]}" fill="#00daff"/><path d="M229.82645,201.54947c0.33757,0.83105 0.5933,1.69862 0.7682,2.39543c0.62944,0.79883 -2.94271,0.17247 -3.77495,0.12106c-0.70751,-0.0437 -1.43615,-0.09102 -2.14998,-0.10143l0.54612,-0.22781c0,-0.60035 0.00165,-1.23562 0.00165,-1.83597c1.19568,-0.0317 2.47249,-0.07093 3.66377,-0.06846l0.17479,0.00256c0,0 0.45178,0.00411 0.77039,-0.28538z" data-paper-data="{&quot;noHover&quot;:false,&quot;origItem&quot;:[&quot;Path&quot;,{&quot;applyMatrix&quot;:true,&quot;selected&quot;:true,&quot;segments&quot;:[[[229.01713,201.8662],[0,0],[0,0],7],[[228.84455,201.8662],[0,0],[-1.19128,-0.00248],7],[[225.26349,201.92042],[1.19568,-0.0317],[0,0.60035],7],[[225.26349,203.72146],[0,-0.60035],[0,0],7],[[224.71712,203.94852],[0,0],[0.71383,0.0104],7],[[226.85004,204.02619],[-0.70751,-0.0437],[0.83223,0.05141],7],[[230.54734,203.9288],[0.62944,0.79883],[-0.1749,-0.69681],7],[[229.78454,201.57671],[0.33757,0.83105],[-0.3186,0.28949],7]],&quot;closed&quot;:true}]}" fill="#00aac7"/><path d="M225.22345,199.79844c0,-0.89526 0,-1.85046 0,-2.74572c0.18142,0.01504 0.36728,0.0385 0.54765,0.08223c1.2873,0.3121 2.36205,1.38252 3.11934,2.60309l-0.00528,0.00006c-1.19231,0.00222 -2.46673,0.02911 -3.66171,0.06035z" data-paper-data="{&quot;noHover&quot;:false,&quot;origItem&quot;:[&quot;Path&quot;,{&quot;applyMatrix&quot;:true,&quot;selected&quot;:true,&quot;segments&quot;:[[[228.84455,199.70894],[-1.19231,0.00222],[0,0],7],[[228.84979,199.70894],[0,0],[-0.75729,-1.22057],7],[[225.8064,197.17037],[1.2873,0.3121],[-0.18036,-0.04373],7],[[225.26349,197.08269],[0.18142,0.01504],[0,0.89526],7],[[225.26349,199.76847],[0,-0.89526],[1.19498,-0.03124],7]],&quot;closed&quot;:true}]}" fill="#00daff"/><path d="M223.14573,199.85698c-0.97533,0.02502 -2.02975,0.04687 -3.00634,0.05368c0.8535,-1.02518 1.94067,-1.94687 3.00565,-2.4353c0,0.77318 0.00069,1.60843 0.00069,2.38161z" data-paper-data="{&quot;noHover&quot;:false,&quot;origItem&quot;:[&quot;Path&quot;,{&quot;applyMatrix&quot;:true,&quot;selected&quot;:true,&quot;segments&quot;:[[[223.10622,197.50684],[0,0.77318],[-1.06498,0.48843],7],[[220.17826,199.87918],[0.8535,-1.02518],[0.9766,-0.00681],7],[[223.10622,199.82637],[-0.97533,0.02502],[0,-0.77318],7]],&quot;closed&quot;:true}]}" fill="#98f0ff"/><path d="M252.41711,202.0662h-0.17258c-1.19128,-0.00248 -2.38538,0.02252 -3.58106,0.05422c0,0.60035 0,1.20069 0,1.80104l-0.54637,0.22706c0.71383,0.0104 1.42541,0.03397 2.13292,0.07767c0.83223,0.05141 4.32673,0.70145 3.6973,-0.09739c-0.1749,-0.69681 -0.42523,-1.52104 -0.76279,-2.3521c-0.31861,0.28949 -0.76741,0.2895 -0.76741,0.2895zM242.92513,202.23879c0,0 -0.36739,0 -0.67334,-0.21441c-0.40355,0.73161 -0.72007,1.48192 -0.92376,2.19852c1.61801,-0.00614 3.25413,-0.05908 4.88691,-0.07594c-0.09841,-0.22593 -0.12056,-0.51941 0.05996,-0.88046c0.0687,-0.13741 0.1472,-0.24546 0.23129,-0.32973c0,-0.25215 0,-0.5043 0,-0.75645c-1.19328,0.03213 -2.38738,0.05848 -3.58106,0.05848zM252.24453,199.90894h0.00524c-0.75729,-1.22057 -1.7561,-2.22647 -3.04339,-2.53857c-0.18036,-0.04373 -0.36149,-0.07265 -0.54291,-0.08768c0,0.89526 0,1.79052 0,2.68578c1.19498,-0.03124 2.38876,-0.05731 3.58106,-0.05953zM246.5062,197.70684c-1.06498,0.48843 -2.07446,1.34716 -2.92795,2.37234c0.9766,-0.00681 1.95262,-0.02779 2.92795,-0.05282c0,-0.77318 0,-1.54635 0,-2.31953zM240.99794,206.38074c-0.10546,0.30916 -0.3655,0.69033 -1.0067,0.69033c-1.07863,0 -1.07863,-1.07863 -1.07863,-1.07863c0.0745,-4.81937 5.40869,-12.23595 10.84747,-10.70706c3.58125,1.00672 5.50242,5.20962 6.30427,8.42874c0.00636,0.66743 0.39715,1.45224 0.01907,2.00229c-0.67456,0.98138 -2.34067,0.83424 -3.32114,0.83693c-3.89652,0.01067 -7.82154,-0.17258 -11.73554,-0.17258z" fill="#000000"/><path d="M246.55318,202.16319c0,0.25215 0.00289,0.51782 0.00289,0.76997c-0.08409,0.08427 -0.16255,0.19895 -0.23125,0.33636c-0.18052,0.36104 -0.1626,0.67184 -0.06419,0.89777c-1.63278,0.01686 -3.3606,0.069 -4.97861,0.07514c0.20369,-0.7166 0.52451,-1.51399 0.92805,-2.2456c0.30595,0.21441 0.67775,0.20867 0.67775,0.20867c1.19368,0 2.47208,-0.01019 3.66536,-0.04231z" data-paper-data="{&quot;noHover&quot;:false,&quot;origItem&quot;:[&quot;Path&quot;,{&quot;applyMatrix&quot;:true,&quot;selected&quot;:true,&quot;segments&quot;:[[[242.92515,202.23879],[1.19368,0],[0,0],7],[[242.25182,202.02438],[0.30595,0.21441],[-0.40355,0.73161],7],[[241.32806,204.22289],[0.20369,-0.7166],[1.61801,-0.00614],7],[[246.21497,204.14695],[-1.63278,0.01686],[-0.09841,-0.22593],7],[[246.27493,203.2665],[-0.18052,0.36104],[0.0687,-0.13741],7],[[246.50622,202.93676],[-0.08409,0.08427],[0,-0.25215],7],[[246.50622,202.18031],[0,0.25215],[-1.19328,0.03213],7]],&quot;closed&quot;:true}]}" fill="#00daff"/><path d="M253.22645,201.74947c0.33756,0.83105 0.5933,1.69862 0.7682,2.39543c0.62943,0.79883 -2.94271,0.17247 -3.77495,0.12106c-0.70751,-0.0437 -1.43615,-0.09102 -2.14998,-0.10143l0.54612,-0.22781c0,-0.60035 0.00165,-1.23562 0.00165,-1.83597c1.19568,-0.0317 2.47249,-0.07093 3.66377,-0.06846l0.17479,0.00256c0,0 0.45178,0.00411 0.77039,-0.28538z" data-paper-data="{&quot;noHover&quot;:false,&quot;origItem&quot;:[&quot;Path&quot;,{&quot;applyMatrix&quot;:true,&quot;selected&quot;:true,&quot;segments&quot;:[[[252.41713,202.0662],[0,0],[0,0],7],[[252.24455,202.0662],[0,0],[-1.19128,-0.00248],7],[[248.66349,202.12042],[1.19568,-0.0317],[0,0.60035],7],[[248.66349,203.92146],[0,-0.60035],[0,0],7],[[248.11712,204.14852],[0,0],[0.71383,0.0104],7],[[250.25004,204.22619],[-0.70751,-0.0437],[0.83223,0.05141],7],[[253.94734,204.1288],[0.62943,0.79883],[-0.1749,-0.69681],7],[[253.18454,201.77671],[0.33756,0.83105],[-0.31861,0.28949],7]],&quot;closed&quot;:true}]}" fill="#00aac7"/><path d="M248.62345,199.99844c0,-0.89526 0,-1.85046 0,-2.74572c0.18142,0.01504 0.36728,0.0385 0.54765,0.08223c1.2873,0.3121 2.36205,1.38252 3.11934,2.60309l-0.00528,0.00006c-1.19231,0.00222 -2.46673,0.02911 -3.66171,0.06035z" data-paper-data="{&quot;noHover&quot;:false,&quot;origItem&quot;:[&quot;Path&quot;,{&quot;applyMatrix&quot;:true,&quot;selected&quot;:true,&quot;segments&quot;:[[[252.24455,199.90894],[-1.19231,0.00222],[0,0],7],[[252.24979,199.90894],[0,0],[-0.75729,-1.22057],7],[[249.2064,197.37037],[1.2873,0.3121],[-0.18036,-0.04373],7],[[248.66349,197.28269],[0.18142,0.01504],[0,0.89526],7],[[248.66349,199.96847],[0,-0.89526],[1.19498,-0.03124],7]],&quot;closed&quot;:true}]}" fill="#00daff"/><path d="M246.54573,200.05698c-0.97533,0.02502 -2.02975,0.04687 -3.00634,0.05368c0.8535,-1.02518 1.94067,-1.94687 3.00565,-2.4353c0,0.77318 0.00069,1.60843 0.00069,2.38161z" data-paper-data="{&quot;noHover&quot;:false,&quot;origItem&quot;:[&quot;Path&quot;,{&quot;applyMatrix&quot;:true,&quot;selected&quot;:true,&quot;segments&quot;:[[[246.50622,197.70684],[0,0.77318],[-1.06498,0.48843],7],[[243.57826,200.07918],[0.8535,-1.02518],[0.9766,-0.00681],7],[[246.50622,200.02637],[-0.97533,0.02502],[0,-0.77318],7]],&quot;closed&quot;:true}]}" fill="#98f0ff"/></g></g></svg>