<svg version="1.1" xmlns="http://www.w3.org/2000/svg" xmlns:xlink="http://www.w3.org/1999/xlink" width="43.54951" height="44.05287" viewBox="0,0,43.54951,44.05287"><g transform="translate(-218.42688,-159.22855)"><g data-paper-data="{&quot;isPaintingLayer&quot;:true}" fill-rule="nonzero" stroke-linejoin="miter" stroke-miterlimit="10" stroke-dasharray="" stroke-dashoffset="0" style="mix-blend-mode: normal"><path d="M228.15117,160.74662c1.74336,-0.29539 5.97826,-1.63446 7.15158,0.10536c1.02697,1.52278 -1.82535,7.55035 -3.13201,8.53902c-1.3628,1.03116 -10.60746,2.92746 -10.65963,-0.19551z" fill="#00eaff" stroke="none" stroke-width="0.5" stroke-linecap="butt"/><path d="M258.97429,169.32523c-0.05218,3.12299 -10.53833,1.40403 -11.90113,0.37287c-1.30666,-0.98869 -4.15897,-7.31183 -3.132,-8.83461c1.17332,-1.73981 4.99436,-0.63725 6.73774,-0.34184c0,0 8.31167,7.82936 8.29539,8.80358z" data-paper-data="{&quot;index&quot;:null}" fill="#0087ff" stroke="none" stroke-width="0.5" stroke-linecap="butt"/><path d="M220.66181,172.75607c0,0 -1.33888,-0.98453 -0.64997,-1.96868c0.49744,-0.71061 1.583,-0.23384 2.33066,0.20596c0.49083,-0.59203 1.49312,-0.14328 2.55662,-0.16237c2.63483,-0.04728 7.28082,-0.21657 7.28082,-0.21657c0.66347,0 0.66926,0.95168 0.66926,1.61515c0,0.38995 -0.18577,0.73646 -0.47364,0.95595c2.63581,3.77685 1.73015,10.40807 3.1586,14.68408c0.40375,1.20858 1.30714,2.43528 1.32581,3.51713c0.14154,0.17082 0.28163,0.34379 0.41968,0.51982l-0.01019,0.22573l0.09459,-0.03151l0.44879,1.34635c0.04565,0.12695 0.0705,0.26383 0.0705,0.4065c0,0.66347 -0.06491,3.21136 -0.72838,3.21136c-0.47958,0 -1.83943,-1.87722 -2.03205,-2.28357c0,0 -1.28955,-3.14158 -2.58768,-4.76028zM233.01107,186.71275c-0.00515,-0.03005 -0.01028,-0.0601 -0.01538,-0.09018c-0.01392,0.00536 -0.02796,0.01049 -0.04212,0.01535c0.01916,0.02493 0.03834,0.04988 0.0575,0.07483z" fill="#00c5ff" stroke="none" stroke-width="0.5" stroke-linecap="butt"/><path d="M243.98228,193.16981l0.15377,0.07688l-0.67485,1.34968c-0.19263,0.40635 -0.60656,0.68736 -1.08613,0.68736c-0.66348,0 -2.26547,2.00424 -2.26547,1.34078c0,-9.77266 4.79769,-19.35944 6.0983,-24.16613c0.17329,-0.64044 0.00577,-1.7334 0.66926,-1.7334c0,0 9.56914,-1.90983 13.35048,0.173c-3.53445,7.14618 -7.99871,12.00857 -13.70581,19.35192c-0.81485,1.01609 -1.70829,1.9235 -2.53955,2.91989zM246.10354,186.86673c-0.01415,-0.00486 -0.02821,-0.00997 -0.04212,-0.01535c-0.00509,0.03008 -0.01022,0.06014 -0.0154,0.09018c0.01916,-0.02493 0.03835,-0.04988 0.0575,-0.07483z" data-paper-data="{&quot;index&quot;:null}" fill="#006dff" stroke="none" stroke-width="0.5" stroke-linecap="butt"/><path d="M235.95346,160.32871c1.64914,0.00143 5.03181,-0.33976 6.14015,0.25655c1.61761,0.87031 2.14786,3.06178 3.29692,5.09185c0.60041,1.06074 1.71263,2.04133 0.77604,3.53514c-0.19243,0.30694 -0.53734,0.54439 -0.98566,0.7261c-0.20287,0.37641 -0.60067,0.6322 -1.05824,0.6322c-0.25884,0 -0.49855,-0.08187 -0.69468,-0.22111c-2.26659,0.28536 -5.21964,0.01464 -6.39891,-0.12215c-0.77104,-0.08942 -3.58418,0.18602 -4.06316,-0.42483z" fill="#0091ff" stroke="none" stroke-width="0.5" stroke-linecap="butt"/><path d="M240.1125,194.13772c0,0.66347 -0.89257,3.21136 -1.55604,3.21136c-0.57173,0 -0.69544,-2.4094 -0.81683,-2.94439l-0.45156,-1.80622l0.32557,-0.0814c-1.50748,-3.93134 -1.07503,-7.79828 -2.15664,-12.16254c-0.41825,-1.6876 -2.29491,-4.88584 -1.45905,-6.90336c-0.18054,-0.14918 -0.33084,-0.38122 -0.39064,-0.73997c-0.19751,-1.18499 -0.19487,-2.21014 -0.19487,-2.21014c2.02949,-0.33635 12.32247,-2.26584 12.65485,1.03593c0.02579,0.25616 -0.32295,1.91905 -0.52344,2.2509c0.56057,2.5979 -2.06293,6.9985 -2.6209,9.59431l-0.06097,0.0769l0.03075,0.01183l-0.562,1.4612z" fill="#0091ff" stroke="none" stroke-width="0.5" stroke-linecap="butt"/><g fill="none" stroke="#000000" stroke-width="1.5" stroke-linecap="round"><path d="M260.31318,170.1776h-40.11637l7.98926,-10.19905h23.11793z"/><path d="M260.82312,171.36748l-22.26798,28.72741l-19.37826,-29.06736"/><path d="M242.98098,160.37025l3.62853,9.51913l-7.94352,30.08728l-6.11943,-30.25726l3.05973,-9.51914"/></g><path d="M227.38027,167.12676c-0.96106,-0.7208 -0.24027,-1.68187 -0.24027,-1.68187l0.21064,-0.23397c0.45659,-0.96332 1.11198,-1.85367 1.89731,-2.57462c0,0 0.8979,-0.79811 1.69601,0.09976c0.79811,0.8979 -0.09976,1.69601 -0.09976,1.69601c-0.55978,0.4749 -1.01793,1.09795 -1.30626,1.77308l-0.47582,0.68133c0,0 -0.7208,0.96106 -1.68188,0.24027z" fill="#f7fbff" stroke="none" stroke-width="0.5" stroke-linecap="butt"/></g></g></svg>