<svg version="1.1" xmlns="http://www.w3.org/2000/svg" xmlns:xlink="http://www.w3.org/1999/xlink" width="68.95695" height="77.936" viewBox="0,0,68.95695,77.936"><g transform="translate(-205.52153,-141.032)"><g data-paper-data="{&quot;isPaintingLayer&quot;:true}" fill-rule="nonzero" stroke-linecap="butt" stroke-linejoin="miter" stroke-miterlimit="10" stroke-dasharray="" stroke-dashoffset="0" style="mix-blend-mode: normal"><path d="M221.74772,200.97479c0.50777,0.44324 1.01406,0.86856 1.50741,1.28865c0.0408,-0.00535 0.07489,-0.00803 0.10046,-0.0065c2.19943,0.132 4.48648,0.95617 3.91729,3.77596c-0.13497,0.66866 -0.81337,1.09532 -1.22005,1.64298c-1.34176,0.70164 -2.76249,1.77163 -4.21314,2.22106c-1.92046,0.59499 -3.75309,0.46496 -5.64146,1.33835c-1.80651,0.83552 -3.16228,2.34677 -4.55387,3.75533c1.44845,-0.31468 2.93383,-0.33543 4.42262,-0.33682c5.88379,0 11.38469,-0.31088 17.13185,-1.3709c1.40161,-0.25851 2.19466,-1.38838 3.66793,-1.61296c1.56163,-0.23805 1.74465,0.29795 3.09454,-0.30928c0.75327,-0.33885 1.42712,-0.7325 2.09361,-1.10927c-0.02117,-0.02045 -0.04238,-0.04085 -0.06364,-0.06123c0.40409,-0.29318 0.83863,-0.56483 1.31852,-0.8053c4.62118,-2.31563 9.86773,-1.86011 13.84913,-5.74007c0.76559,-0.74608 0.86663,-1.99715 1.58747,-2.78655c2.03654,-2.23025 4.16278,-4.35697 6.14013,-6.7298c1.23944,-1.64801 2.79911,-3.23723 4.10236,-4.9507c-0.44499,-0.64277 0.03804,-1.36731 0.03804,-1.36731l0.71717,-1.05581c0.67864,-2.08208 1.9143,-3.90141 2.0758,-6.13599c0.18992,-2.6277 -0.28705,-5.60757 -0.40162,-8.25818c-0.12154,-2.81178 0.24696,-5.97035 -0.55486,-8.71914c-0.46801,-1.60443 -1.33078,-3.261 -1.62636,-4.91447c-0.2139,-1.1965 -0.27111,-2.44823 -0.73563,-3.57144c-1.99576,-5.32131 -5.57659,-10.43867 -11.92304,-10.80474c-2.86092,-0.16502 -6.21537,0.6758 -8.76804,-0.62507c-0.60933,-0.03582 -1.21985,-0.08748 -1.83196,-0.17493c-5.1401,0.00671 -9.9358,0.13578 -14.82066,0.78638c-0.0268,-0.08462 -0.05459,-0.16827 -0.08335,-0.25096c-3.38028,0.36867 -6.57951,0.34627 -9.8526,1.73787c-2.96901,1.26232 -4.54487,6.41938 -6.1881,8.87234c-2.99004,3.0138 -6.08376,6.08306 -6.93673,10.43054c-0.3954,2.0153 0.41901,4.51535 0.42006,6.57697c0.00093,1.83999 -0.09799,3.75366 0.18543,5.57399c0.01841,-0.01396 0.03678,-0.02798 0.05509,-0.04206c0.58747,2.32424 1.38468,4.66599 2.42842,7.11087zM245.84375,211.34123c-1.79436,0.18235 -3.19978,1.61576 -4.87108,2.30571c-1.15166,0.47543 -2.46678,0.35643 -3.70546,0.49072c-1.29288,0.14017 -2.20544,1.30482 -3.53207,1.58704c-5.8755,1.24991 -11.64286,1.4291 -17.66815,1.4291c-1.5907,-0.00161 -3.24445,-0.03098 -4.76632,0.52236c-0.90199,0.32795 -2.25859,1.43005 -3.21055,1.27743c-0.93478,-0.14987 -2.16021,-0.53024 -2.45372,-1.43031c-0.39308,-1.20544 3.15883,-3.57542 3.95689,-4.07239c2.03563,-1.26765 3.24149,-3.39689 5.54245,-4.47857c1.99761,-0.93908 3.93616,-0.84534 5.95854,-1.46165c1.17604,-0.35839 2.26656,-1.2545 3.38686,-1.77894c0.78567,-0.73826 -0.01819,-0.93518 -1.00651,-0.98899c-0.12298,0.05412 -0.24519,0.11198 -0.36656,0.17341c-0.06659,-0.06413 -0.13399,-0.12787 -0.20217,-0.19125c-1.78994,-0.02493 -3.04024,-1.06946 -3.44407,-2.81342c-1.08825,-0.87999 -2.18392,-1.84334 -3.16693,-3.02181c-3.15043,-3.77687 -4.90435,-9.15426 -7.34686,-13.42865c-0.62127,-1.44453 -1.16144,-2.85779 -1.62692,-4.25478c-1.45048,-2.9727 -1.30586,-6.24431 -1.30414,-9.50241c0.00119,-2.26018 -0.78381,-4.79331 -0.37994,-7.02303c0.85811,-4.73752 4.18931,-8.32621 7.46327,-11.56946c2.00547,-3.02755 3.48515,-7.81197 7.0119,-9.52766c3.7899,-1.84371 7.76467,-1.53425 11.778,-2.1173l0.77677,-0.01256c0,0 0.2531,0 0.53152,0.11388c4.24908,-0.43175 8.4874,-0.51617 12.9571,-0.51074c0.37138,0.05306 0.74227,0.0939 1.11274,0.1265c0.54435,-0.32611 1.09384,-0.04352 1.29723,0.08684c0.56877,0.02885 1.13679,0.04916 1.70428,0.07536c0.00572,0.24098 0.01996,0.47986 0.04244,0.71633c2.40788,0.41896 6.05169,-0.53714 8.09219,0.03825c6.63941,1.87222 10.06795,5.85749 12.42807,12.15197c3.05901,7.86237 4.08296,18.03766 3.48152,26.53679c-0.16239,2.29473 -1.23964,4.22132 -2.0444,6.29765c0.16509,0.2519 0.34682,0.49267 0.54665,0.72132c-1.47483,2.89996 -4.04783,5.3023 -5.96888,7.87122c-2.0232,2.42784 -4.12966,4.62122 -6.25986,6.8702c-1.81621,1.91749 -2.39438,3.71176 -4.86759,5.22029c-2.85444,1.74107 -5.94179,1.99559 -8.9146,2.91649c-0.27869,0.55752 -0.96163,0.65508 -0.96163,0.65508z" fill="#000000" stroke="none" stroke-width="0.5"/><path d="M211.13668,184.3553c-1.04374,-2.44487 -1.84161,-4.79858 -2.42908,-7.12282c-0.01831,0.01408 -0.03668,0.02818 -0.05509,0.04213c-0.28342,-1.82034 -0.18322,-3.74253 -0.18415,-5.58252c-0.00105,-2.06162 -0.81254,-4.57026 -0.41714,-6.58556c0.85297,-4.34749 3.9568,-7.43157 6.94684,-10.44537c1.64323,-2.45297 3.23027,-7.61854 6.19928,-8.88085c3.27309,-1.39159 6.48453,-1.37404 9.86481,-1.74272c0.02876,0.08268 0.05658,0.16633 0.08338,0.25095c4.88485,-0.6506 9.70108,-0.78048 14.84118,-0.78718c0.61211,0.08745 1.2251,0.13959 1.83443,0.17541c2.55267,1.30087 5.91781,0.46374 8.77873,0.62876c6.34645,0.36607 9.94397,5.49631 11.93973,10.81762c0.46452,1.12321 0.52446,2.37848 0.73836,3.57498c0.29559,1.65347 1.16204,3.31619 1.63005,4.92062c0.80182,2.74878 0.43753,5.91919 0.55907,8.73097c0.11457,2.65061 0.59266,5.6433 0.40274,8.271c-0.1615,2.23459 -1.39862,4.06398 -2.07726,6.14606l-0.71769,1.05772c0,0 -0.48368,0.72659 -0.03869,1.36936c-1.30326,1.71347 -2.86729,3.31213 -4.10672,4.96014c-1.97735,2.37283 -4.1137,4.51166 -6.15024,6.74191c-0.72084,0.7894 -0.82587,2.04361 -1.59146,2.78969c-3.98141,3.87997 -9.25123,3.4333 -13.87241,5.74894c-0.47989,0.24047 -0.91669,0.51232 -1.32078,0.8055c0.02126,0.02037 0.04257,0.04077 0.06373,0.06122c-0.66649,0.37678 -1.34371,0.77054 -2.09698,1.10939c-1.34988,0.60723 -1.53766,0.07101 -3.09929,0.30906c-1.47326,0.22458 -2.27132,1.35372 -3.67293,1.61223c-5.74716,1.06002 -11.2663,1.3633 -17.1501,1.3633c-1.48879,0.00139 -2.97726,0.01989 -4.4257,0.33457c1.39159,-1.40856 2.8082,-2.99915 4.61471,-3.83468c1.88837,-0.87339 3.71662,-0.74627 5.63709,-1.34126c1.45065,-0.44943 2.86789,-1.5213 4.20966,-2.22293c0.40668,-0.54766 1.04176,-0.88419 1.17674,-1.55285c0.56919,-2.81978 -1.72573,-3.6486 -3.92515,-3.7806c-0.02557,-0.00153 -0.05978,0.00107 -0.10058,0.00642c-0.49335,-0.42009 -1.00239,-0.84756 -1.51016,-1.2908z" data-paper-data="{&quot;noHover&quot;:false,&quot;origItem&quot;:[&quot;Path&quot;,{&quot;applyMatrix&quot;:true,&quot;segments&quot;:[[[221.74772,200.97479],[0,0],[0.50777,0.44324]],[[223.25512,202.26344],[-0.49335,-0.42009],[0.0408,-0.00535]],[[223.35559,202.25694],[-0.02557,-0.00153],[2.19943,0.132]],[[227.27287,206.0329],[0.56919,-2.81978],[-0.13497,0.66866]],[[226.05282,207.67588],[0.40668,-0.54766],[-1.34176,0.70164]],[[221.83969,209.89694],[1.45065,-0.44943],[-1.92046,0.59499]],[[216.19822,211.23529],[1.88837,-0.87339],[-1.80651,0.83552]],[[211.64436,214.99062],[1.39159,-1.40856],[1.44845,-0.31468]],[[216.06698,214.6538],[-1.48879,0.00139],[5.88379,0]],[[233.19882,213.2829],[-5.74716,1.06002],[1.40161,-0.25851]],[[236.86675,211.66994],[-1.47326,0.22458],[1.56163,-0.23805]],[[239.96128,211.36065],[-1.34988,0.60723],[0.75327,-0.33885]],[[242.05489,210.25138],[-0.66649,0.37678],[-0.02117,-0.02045]],[[241.99125,210.19015],[0.02126,0.02037],[0.40409,-0.29318]],[[243.30978,209.38485],[-0.47989,0.24047],[4.62118,-2.31563]],[[257.15891,203.64478],[-3.98141,3.87997],[0.76559,-0.74608]],[[258.74638,200.85822],[-0.72084,0.7894],[2.03654,-2.23025]],[[264.88651,194.12843],[-1.97735,2.37283],[1.23944,-1.64801]],[[268.98887,189.17773],[-1.30325,1.71347],[-0.44499,-0.64277]],[269.02691,187.81042],[[269.74408,186.75461],[0,0],[0.67864,-2.08208]],[[271.81988,180.61861],[-0.1615,2.23459],[0.18992,-2.6277]],[[271.41826,172.36044],[0.11458,2.65061],[-0.12154,-2.81178]],[[270.8634,163.6413],[0.80182,2.74878],[-0.46801,-1.60443]],[[269.23703,158.72683],[0.29559,1.65347],[-0.2139,-1.1965]],[[268.5014,155.15539],[0.46452,1.12321],[-1.99576,-5.32131]],[[256.57836,144.35065],[6.34645,0.36607],[-2.86092,-0.16502]],[[247.81032,143.72558],[2.55267,1.30087],[-0.60933,-0.03582]],[[245.97836,143.55065],[0.61211,0.08745],[-5.1401,0.00671]],[[231.15771,144.33703],[4.88485,-0.6506],[-0.0268,-0.08462]],[[231.07435,144.08607],[0.02876,0.08268],[-3.38028,0.36867]],[[221.22175,145.82394],[3.27309,-1.39159],[-2.96901,1.26232]],[[215.03365,154.69628],[1.64323,-2.45297],[-2.99004,3.0138]],[[208.09692,165.12683],[0.85297,-4.34749],[-0.3954,2.0153]],[[208.51697,171.7038],[-0.00105,-2.06162],[0.00093,1.83999]],[[208.70241,177.27779],[-0.28342,-1.82034],[0.01841,-0.01396]],[[208.75749,177.23573],[-0.01831,0.01408],[0.58747,2.32424]],[[211.18592,184.3466],[-1.04374,-2.44487],[0,0]]],&quot;closed&quot;:true}]}" fill="#ffffff" stroke="none" stroke-width="0.5"/><text transform="translate(229.11935,192.99781) scale(1.12657,1.12657)" font-size="40" xml:space="preserve" fill="#000000" fill-rule="nonzero" stroke="#000000" stroke-width="2" stroke-linecap="butt" stroke-linejoin="miter" stroke-miterlimit="10" stroke-dasharray="" stroke-dashoffset="0" font-family="&quot;Microsoft YaHei&quot;, &quot;微软雅黑&quot;, STXihei, &quot;华文细黑&quot;" font-weight="normal" text-anchor="start" style="mix-blend-mode: normal"><tspan x="0" dy="0">?</tspan></text></g></g></svg>