<svg version="1.1" xmlns="http://www.w3.org/2000/svg" xmlns:xlink="http://www.w3.org/1999/xlink" width="91.20415" height="89.44653" viewBox="0,0,91.20415,89.44653"><g transform="translate(-194.39793,-135.27674)"><g data-paper-data="{&quot;isPaintingLayer&quot;:true}" fill-rule="nonzero" stroke-linecap="butt" stroke-linejoin="miter" stroke-miterlimit="10" stroke-dasharray="" stroke-dashoffset="0" style="mix-blend-mode: normal"><path d="M234.31682,152.02267c4.96615,-2.16203 15.32366,-1.74622 19.49673,2.1786c2.97188,2.79509 5.42692,6.31435 7.92287,9.51922c7.01974,6.98863 6.79829,17.92886 5.5055,27.04835c-0.52163,3.67962 -1.1541,7.70752 -3.20999,10.89209c-2.33871,3.31311 -6.18174,4.13862 -9.8188,5.53745c-8.23852,3.16857 -17.61477,2.80636 -26.32192,1.75194c-3.54091,-1.2013 -7.14903,-2.59477 -9.77026,-5.43519c-2.70447,-2.93062 -3.35946,-4.99744 -5.16092,-8.55517c-1.62789,-3.21494 -2.10048,-8.05589 -2.10048,-11.524c0,-4.53432 0.62255,-10.39606 1.74203,-14.83566c1.93307,-7.66616 7.39096,-11.79935 14.08864,-15.16767c1.8871,-0.62391 3.67127,-0.77665 5.526,-1.37227l0.80601,0.06383c0,0 0.15572,-0.00013 0.35665,-0.05477c0.4672,0.15463 0.93795,-0.04675 0.93795,-0.04675zM239.80394,190.10603c5.52285,0 10,-4.47715 10,-10c0,-5.52285 -4.47715,-10 -10,-10c-5.52285,0 -10,4.47715 -10,10c0,5.52285 4.47715,10 10,10z" data-paper-data="{&quot;noHover&quot;:false,&quot;origItem&quot;:[&quot;Path&quot;,{&quot;applyMatrix&quot;:true,&quot;selected&quot;:true,&quot;segments&quot;:[[[233.38935,152.01626],[0.4672,0.15463],[-0.20094,0.05464],7],[[233.03331,152.0709],[0,0],[0,0],7],[[232.22859,152.00675],[0,0],[-1.85474,0.59563],7],[[226.71166,153.37575],[1.8871,-0.62391],[-6.69768,3.36833],7],[[212.64746,168.51813],[1.93307,-7.66616],[-1.11947,4.4396],7],[[210.90924,183.32831],[0,-4.53432],[0,3.46811],7],[[213.00371,194.83356],[-1.62789,-3.21494],[1.80146,3.55773],7],[[218.15468,203.37617],[-2.70447,-2.93062],[2.62123,2.84042],7],[[227.90982,208.80186],[-3.54091,-1.2013],[8.70715,1.05441],7],[[254.18908,207.0525],[-8.23852,3.16857],[3.63707,-1.39883],7],[[263.99423,201.52604],[-2.33871,3.31311],[2.05589,-3.18457],7],[[267.19518,190.64906],[-0.52163,3.67962],[1.29279,-9.11949],7],[[261.69621,163.64815],[7.01974,6.98863],[-2.49595,-3.20487],7],[[253.78933,154.14296],[2.97188,2.79509],[-4.17307,-3.92482],7],[[234.32571,151.96983],[4.96615,-2.16203],[0,0],7]],&quot;closed&quot;:true}]}" fill="#bfbfbf" stroke="none" stroke-width="0.5"/><path d="M266.48108,167.18723c0.79735,0.25783 0.79735,1.1841 0.79735,1.1841l-0.00318,0.01298c0.31901,4.75073 2.20701,9.20143 2.0432,14.11321c-0.16181,4.85168 -2.33614,9.38359 -3.19729,14.22801c-0.86719,2.83205 -2.5085,7.32153 -4.9561,9.17725c-3.2501,2.46416 -8.7518,2.31714 -12.51989,3.82932c-1.23658,0.49625 -3.18366,1.55092 -4.60276,0.8841c-0.07626,-0.03584 -0.1509,-0.07432 -0.2241,-0.11512l-0.01696,0.03958l-1.40209,-0.6009c-0.19822,-0.07967 -0.37131,-0.20866 -0.50407,-0.37179c-3.20859,0.9617 -6.01319,0.0481 -9.36329,-0.04899c-1.52061,-0.04407 -3.16482,0.51149 -4.70779,0.1801c-0.97373,-0.20913 -3.51642,-1.40391 -3.22528,-2.79841c0.22084,-1.05777 2.73222,-1.44479 3.67901,-1.68119c3.56431,-0.88996 6.76695,-1.88318 10.19196,-3.29198c2.96187,-1.48293 5.18837,-3.42088 7.8357,-5.37746c2.47837,-1.83171 5.13739,-3.17343 7.26255,-5.44277c1.09919,-1.17376 1.15416,-2.79789 2.29283,-4.03003c1.32123,-1.4297 2.44635,-2.84283 3.80816,-4.09732l-0.27339,-0.25236l1.22159,-1.32339c0.17723,-0.19322 0.41444,-0.33052 0.68214,-0.38241c1.97001,-4.75223 3.04627,-8.66524 2.66591,-13.98994c0,0 -0.08906,-1.24682 1.15776,-1.33588c1.24682,-0.08906 1.33588,1.15776 1.33588,1.15776c0.00798,0.11171 0.01536,0.22288 0.02215,0.33353z" fill="#9e9e9e" stroke="none" stroke-width="0.5"/><path d="M226.44544,153.37202c-0.17643,0.11939 -0.41255,0.19928 -0.72856,0.19928c-1.25,0 -1.25,-1.25 -1.25,-1.25c0.03718,-3.6861 2.56451,-6.11476 3.23344,-9.48719c0.3469,-1.74891 0.55443,-5.4059 1.91369,-6.77728c1.14156,-1.15175 2.73414,-0.73186 4.0603,-0.57557c2.88686,0.34021 5.4714,0.79005 8.44257,0.79005c2.79996,0.00217 5.01561,0.36498 7.68719,1.03344c1.02734,0.25705 2.695,0.09391 3.46204,1.00326c0.41182,0.48823 0.47936,2.71134 0.66733,3.52611c0.62602,2.71354 0.75577,5.61727 1.97658,8.11448l-0.03527,0.2073l0.07957,-0.01137l0.19696,1.37871c0.01027,0.06451 0.0156,0.13066 0.0156,0.19806c0,0.69036 -0.55964,1.25 -1.25,1.25c-0.39906,0 -0.75444,-0.187 -0.9833,-0.47815l-0.30295,-0.37869c-0.73626,-0.19755 -1.37553,-0.23691 -2.50904,-0.60731c-4.05136,-1.32389 -9.49863,-2.98306 -13.85069,-1.78704c-3.25014,0.8932 -5.87635,2.93748 -9.26884,3.84828c-0.51888,-0.06546 -1.03775,-0.13091 -1.55663,-0.19637zM227.08811,150.94206c0.00443,0.00337 0.00874,0.00669 0.01294,0.00994c0.24355,0.04074 0.4871,0.08147 0.73065,0.12221c3.1134,-0.96749 5.64635,-2.94881 8.73116,-3.75172c3.6449,-0.9487 9.63772,-0.35108 13.03238,1.04397c0.68546,0.28169 2.07848,0.45947 3.25758,0.68058c-0.68074,-2.12463 -0.85419,-4.47971 -1.3525,-6.63854c-0.18573,-0.80466 0.32177,-1.78436 -0.13267,-2.47389c-0.39382,-0.59756 -1.44363,-0.0233 -2.13796,-0.19674c-2.49953,-0.62436 -4.48573,-0.96872 -7.11281,-0.96656c-3.0619,0 -5.77944,-0.40999 -8.75743,-0.80995c-0.64343,-0.08642 -1.61154,-0.73574 -1.9397,-0.17557c-0.89471,1.52729 -0.90833,3.9605 -1.28631,5.62272c-0.61056,2.68498 -2.54046,4.84046 -3.04533,7.53357z" fill="#060000" stroke="none" stroke-width="0.5"/><path d="M230.08366,143.40389c0.37799,-1.66222 0.40166,-4.12118 1.29637,-5.64847c0.32815,-0.56017 1.29996,0.08486 1.94339,0.17127c2.97799,0.39996 5.74962,0.79798 8.81152,0.79798c2.62708,-0.00216 4.64005,0.36666 7.13958,0.99102c0.69433,0.17344 1.74598,-0.3966 2.13981,0.20096c0.45444,0.68953 -0.0504,1.67901 0.13533,2.48367c0.49831,2.15883 0.66937,4.53931 1.35011,6.66394c-1.17911,-0.22111 -2.57297,-0.39673 -3.25843,-0.67843c-3.39467,-1.39505 -9.47107,-1.97898 -13.11597,-1.03029c-3.08481,0.80292 -5.62394,2.77548 -8.73735,3.74297c-0.24355,-0.04074 -0.48785,-0.08288 -0.7314,-0.12361c-0.00419,-0.00326 -0.00853,-0.00662 -0.01296,-0.00999c0.50487,-2.6931 2.42945,-4.87605 3.04001,-7.56103z" data-paper-data="{&quot;noHover&quot;:false,&quot;origItem&quot;:[&quot;Path&quot;,{&quot;applyMatrix&quot;:true,&quot;selected&quot;:true,&quot;segments&quot;:[[[227.08811,150.94206],[0.50487,-2.6931],[0.00443,0.00337],7],[[227.10105,150.952],[-0.00419,-0.00326],[0.24355,0.04074],7],[[227.8317,151.0742],[-0.24355,-0.04074],[3.1134,-0.96749],7],[[236.56286,147.32248],[-3.08481,0.80292],[3.6449,-0.9487],7],[[249.59524,148.36645],[-3.39467,-1.39505],[0.68546,0.28169],7],[[252.85282,149.04703],[-1.17911,-0.22111],[-0.68074,-2.12463],7],[[251.50032,142.40849],[0.49831,2.15883],[-0.18573,-0.80466],7],[[251.36765,139.9346],[0.45444,0.68953],[-0.39382,-0.59756],7],[[249.22969,139.73786],[0.69433,0.17344],[-2.49953,-0.62436],7],[[242.11688,138.7713],[2.62708,-0.00216],[-3.0619,0],7],[[233.35946,137.96135],[2.97799,0.39996],[-0.64343,-0.08642],7],[[231.41976,137.78577],[0.32815,-0.56017],[-0.89471,1.52729],7],[[230.13345,143.40849],[0.37799,-1.66222],[-0.61056,2.68498],7]],&quot;closed&quot;:true}]}" fill="#929292" stroke="none" stroke-width="0.5"/><path d="M253.75273,152.84013c-0.19208,-0.09212 -0.38016,-0.2557 -0.53956,-0.52856c-0.63052,-1.07933 0.4488,-1.70985 0.4488,-1.70985c3.20155,-1.82723 6.57344,-0.87004 9.82281,-1.99355c1.6851,-0.58264 4.94745,-2.2481 6.81721,-1.76619c1.57031,0.40473 2.01108,1.99165 2.54507,3.21558c1.16242,2.6643 2.0777,5.12285 3.57641,7.68834c1.41048,2.41875 2.21481,4.51488 2.98522,7.15887c0.29625,1.01673 1.27832,2.3744 0.88004,3.4954c-0.21384,0.60187 -2.09934,1.78155 -2.70805,2.35484c-2.02725,1.9093 -4.46907,3.48602 -6.00951,5.79978l-0.19679,0.07411l0.04995,0.06297l-1.09111,0.86551c-0.05052,0.04141 -0.10495,0.07938 -0.16315,0.11338c-0.59609,0.34823 -1.36162,0.14729 -1.70985,-0.4488c-0.20129,-0.34457 -0.21909,-0.74575 -0.08313,-1.09023l0.17417,-0.4526c-0.2008,-0.73537 -0.48928,-1.30721 -0.74121,-2.47279c-0.90045,-4.16599 -2.85188,-9.07003 -6.07985,-12.22456c-2.41067,-2.35582 -4.86416,-4.22865 -7.36183,-6.69851c-0.20521,-0.48104 -0.41042,-0.9621 -0.61563,-1.44314zM256.17509,152.16934c-0.00068,0.00553 -0.00136,0.01092 -0.00206,0.01618c0.08768,0.23084 0.17536,0.46169 0.26303,0.69253c2.74828,2.51345 4.20969,4.34525 6.71576,7.10026c2.52657,2.77755 6.11445,6.84869 6.60018,10.32585c0.10253,0.73396 0.65169,2.02645 1.05552,3.15609c1.49115,-1.6595 3.43719,-2.9972 5.04989,-4.51643c0.6011,-0.56626 1.70302,-0.62223 2.06918,-1.36243c0.31732,-0.64147 -0.70807,-1.25827 -0.90854,-1.94528c-0.72169,-2.47318 -1.42623,-4.36188 -2.75324,-6.62918c-1.54447,-2.64382 -2.56123,-5.19712 -3.71803,-7.97024c-0.24994,-0.59917 -0.17761,-1.76262 -0.82682,-1.76341c-1.77007,-0.00215 -3.87791,1.21343 -5.50383,1.72551c-2.62635,0.82716 -5.461,0.24803 -8.04105,1.17054z" fill="#060000" stroke="none" stroke-width="0.5"/><path d="M264.20283,150.9506c1.62592,-0.51208 3.75774,-1.72832 5.52781,-1.72617c0.64921,0.00079 0.58212,1.1657 0.83206,1.76486c1.1568,2.77312 2.20515,5.35822 3.74963,8.00204c1.32701,2.2673 2.02998,4.19134 2.75167,6.66452c0.20047,0.68701 1.2233,1.30893 0.90599,1.9504c-0.36616,0.7402 -1.47361,0.80399 -2.07472,1.37025c-1.61271,1.51922 -3.58186,2.87204 -5.07302,4.53153c-0.40384,-1.12964 -0.9534,-2.42201 -1.05593,-3.15597c-0.48573,-3.47716 -4.13507,-7.61288 -6.66164,-10.39042c-2.50607,-2.75501 -3.95943,-4.60132 -6.70771,-7.11477c-0.08768,-0.23084 -0.17452,-0.46271 -0.26219,-0.69355c0.0007,-0.00526 0.00141,-0.01069 0.00209,-0.01622c2.58005,-0.92251 5.43961,-0.35934 8.06596,-1.1865z" data-paper-data="{&quot;noHover&quot;:false,&quot;origItem&quot;:[&quot;Path&quot;,{&quot;applyMatrix&quot;:true,&quot;selected&quot;:true,&quot;segments&quot;:[[[256.17509,152.16934],[2.58005,-0.92251],[-0.00068,0.00553],7],[[256.17303,152.18552],[0.0007,-0.00526],[0.08768,0.23084],7],[[256.43606,152.87805],[-0.08768,-0.23084],[2.74828,2.51345],7],[[263.15182,159.97831],[-2.50607,-2.75501],[2.52657,2.77755],7],[[269.752,170.30416],[-0.48573,-3.47716],[0.10253,0.73396],7],[[270.80753,173.46025],[-0.40384,-1.12964],[1.49115,-1.6595],7],[[275.85742,168.94383],[-1.61271,1.51922],[0.6011,-0.56626],7],[[277.9266,167.5814],[-0.36616,0.7402],[0.31732,-0.64147],7],[[277.01806,165.63612],[0.20047,0.68701],[-0.72169,-2.47318],7],[[274.26482,159.00694],[1.32701,2.2673],[-1.54447,-2.64382],7],[[270.54679,151.0367],[1.1568,2.77312],[-0.24994,-0.59917],7],[[269.71997,149.27328],[0.64921,0.00079],[-1.77007,-0.00215],7],[[264.21614,150.9988],[1.62592,-0.51208],[-2.62635,0.82716],7]],&quot;closed&quot;:true}]}" fill="#7b7b7b" stroke="none" stroke-width="0.5"/><path d="M269.3326,176.53303c-0.07005,-0.20117 -0.0866,-0.44989 -0.00541,-0.7553c0.32114,-1.20804 1.52918,-0.88691 1.52918,-0.88691c3.55282,0.98292 5.25068,4.04937 8.33806,5.56225c1.60109,0.78457 5.08202,1.92465 6.05817,3.5906c0.81981,1.39913 0.00487,2.83039 -0.48687,4.07189c-1.07046,2.70256 -2.16918,5.08479 -2.9325,7.95624c-0.72144,2.70543 -1.64128,4.7535 -2.97366,7.16367c-0.51236,0.92682 -0.78312,2.58042 -1.85902,3.0881c-0.57764,0.27257 -2.74349,-0.2333 -3.5792,-0.26096c-2.78329,-0.09212 -5.62289,-0.71273 -8.34992,-0.17445l-0.19128,-0.08734l-0.00946,0.07981l-1.38304,-0.16385c-0.06498,-0.00665 -0.13029,-0.01849 -0.19543,-0.0358c-0.66718,-0.17736 -1.06427,-0.862 -0.88691,-1.52918c0.10252,-0.38567 0.37454,-0.68107 0.71472,-0.82745l0.4438,-0.19549c0.38007,-0.66079 0.58234,-1.2685 1.23152,-2.2688c2.32029,-3.57526 4.42327,-8.41626 4.38547,-12.92951c-0.02823,-3.37052 -0.42924,-6.43096 -0.43791,-9.94358c0.19656,-0.48464 0.39313,-0.96929 0.58969,-1.45393zM271.5159,177.77841c-0.00439,0.00342 -0.00871,0.00673 -0.01293,0.00994c-0.10194,0.22491 -0.20388,0.44982 -0.30581,0.67473c0.1544,3.7211 -0.1148,6.04893 -0.30247,9.7685c-0.18921,3.75 -0.54789,9.16465 -2.67191,11.9602c-0.44834,0.59009 -0.97803,1.89068 -1.49464,2.9734c2.22821,-0.11206 4.5488,0.32536 6.7632,0.3984c0.82537,0.02722 1.6418,0.76938 2.42494,0.50734c0.67868,-0.22709 0.3934,-1.38919 0.7394,-2.01565c1.24555,-2.25523 2.08862,-4.08629 2.76146,-6.62575c0.78663,-2.95912 1.88103,-5.48012 3.03263,-8.2554c0.24882,-0.59963 1.12506,-1.36844 0.668,-1.82949c-1.24617,-1.25706 -3.59421,-1.89532 -5.10353,-2.68766c-2.43801,-1.27986 -4.02533,-3.69875 -6.49834,-4.87856z" fill="#060000" stroke="none" stroke-width="0.5"/><path d="M278.03137,182.61c1.50932,0.79234 3.88138,1.44919 5.12755,2.70625c0.45706,0.46105 -0.41574,1.23566 -0.66455,1.83529c-1.15161,2.77528 -2.25544,5.35441 -3.04207,8.31354c-0.67284,2.53946 -1.54365,4.38442 -2.7892,6.63965c-0.346,0.62647 -0.06462,1.789 -0.74329,2.01608c-0.78314,0.26204 -1.60899,-0.48034 -2.43436,-0.50757c-2.21439,-0.07304 -4.55711,-0.51869 -6.78531,-0.40663c0.51662,-1.08272 1.04478,-2.38438 1.49312,-2.97448c2.12402,-2.79555 2.4706,-8.27822 2.65981,-12.02823c0.18767,-3.71957 0.48398,-6.06756 0.32959,-9.78867c0.10194,-0.22491 0.2056,-0.45031 0.30754,-0.67522c0.00422,-0.00321 0.00859,-0.00654 0.01298,-0.00996c2.47301,1.17981 4.09021,3.60007 6.52822,4.87993z" data-paper-data="{&quot;noHover&quot;:false,&quot;origItem&quot;:[&quot;Path&quot;,{&quot;applyMatrix&quot;:true,&quot;selected&quot;:true,&quot;segments&quot;:[[[271.5159,177.77841],[2.47301,1.17981],[-0.00439,0.00342],7],[[271.50297,177.78836],[0.00422,-0.00321],[-0.10194,0.22491],7],[[271.19716,178.46309],[0.10194,-0.22491],[0.1544,3.7211],7],[[270.89469,188.23159],[0.18767,-3.71957],[-0.18921,3.75],7],[[268.22278,200.1918],[2.12402,-2.79555],[-0.44834,0.59009],7],[[266.72814,203.1652],[0.51662,-1.08272],[2.22821,-0.11206],7],[[273.49133,203.56359],[-2.21439,-0.07304],[0.82537,0.02722],7],[[275.91627,204.07094],[-0.78314,0.26204],[0.67868,-0.22709],7],[[276.65567,202.05528],[-0.346,0.62647],[1.24555,-2.25523],7],[[279.41713,195.42953],[-0.67284,2.53946],[0.78663,-2.95912],7],[[282.44976,187.17413],[-1.15161,2.77528],[0.24882,-0.59963],7],[[283.11776,185.34464],[0.45706,0.46105],[-1.24617,-1.25706],7],[[278.01424,182.65697],[1.50932,0.79234],[-2.43801,-1.27986],7]],&quot;closed&quot;:true}]}" fill="#626262" stroke="none" stroke-width="0.5"/><path d="M265.47817,203.58451c0.14949,-0.15176 0.36528,-0.27654 0.67511,-0.33871c1.22557,-0.24593 1.47149,0.97964 1.47149,0.97964c0.68876,3.62136 -1.31134,6.4998 -1.3037,9.93792c0.00396,1.78299 0.51998,5.40933 -0.54289,7.02133c-0.89264,1.35383 -2.53671,1.25548 -3.8677,1.36316c-2.89737,0.23441 -5.5199,0.30186 -8.433,0.88642c-2.74567,0.54875 -4.98939,0.62894 -7.74027,0.49916c-1.05783,-0.04991 -2.6608,0.43816 -3.59176,-0.30252c-0.49983,-0.39766 -1.00343,-2.56404 -1.34803,-3.3259c-1.14766,-2.53733 -1.84615,-5.35879 -3.53442,-7.567l-0.0062,-0.21019l-0.07578,0.02679l-0.46437,-1.31302c-0.02276,-0.06123 -0.041,-0.12504 -0.05427,-0.19112c-0.13582,-0.67686 0.30278,-1.33567 0.97964,-1.47149c0.39126,-0.07851 0.77648,0.03491 1.05815,0.27535l0.37153,0.31168c0.76073,0.04884 1.39525,-0.03835 2.57948,0.10181c4.23265,0.50094 9.50461,0.24746 13.53629,-1.78143c3.01088,-1.51519 5.57884,-3.22769 8.72583,-4.78814c0.52161,-0.03791 1.04322,-0.07582 1.56484,-0.11373zM265.32614,206.09342c-0.00501,-0.00243 -0.00989,-0.00484 -0.01464,-0.0072c-0.24681,0.00798 -0.4936,0.01595 -0.74041,0.02393c-3.26959,1.78332 -5.47665,2.57082 -8.89606,4.04663c-3.44739,1.48788 -8.46288,3.55957 -11.90937,2.89004c-0.72749,-0.14133 -2.12826,-0.04156 -3.32782,-0.02637c1.08545,1.94917 1.71885,4.2241 2.63215,6.2427c0.34042,0.75239 0.03559,1.81278 0.61681,2.39943c0.5037,0.5084 1.41999,-0.26118 2.13487,-0.22773c2.57351,0.12039 4.58864,0.06724 7.16396,-0.45173c3.00205,-0.60241 5.74715,-0.73508 8.74562,-0.92884c0.64785,-0.04186 1.7248,0.40429 1.93633,-0.20948c0.57674,-1.67347 0.11136,-4.0618 0.15493,-5.76589c0.07037,-2.75263 1.53848,-5.24567 1.50363,-7.98547z" fill="#060000" stroke="none" stroke-width="0.5"/><path d="M263.8725,214.07944c-0.04357,1.7041 0.4157,4.11583 -0.16104,5.7893c-0.21153,0.61378 -1.29119,0.17203 -1.93904,0.2139c-2.99847,0.19376 -5.78401,0.34808 -8.78606,0.95048c-2.57531,0.51897 -4.62551,0.55847 -7.19903,0.43808c-0.71488,-0.03344 -1.63517,0.73189 -2.13887,0.22349c-0.58122,-0.58665 -0.28205,-1.65538 -0.62246,-2.40777c-0.9133,-2.0186 -1.55257,-4.32106 -2.63802,-6.27024c1.19956,-0.01518 2.60044,-0.11617 3.32793,0.02515c3.44649,0.66954 8.54132,-1.43747 11.98871,-2.92535c3.41941,-1.47581 5.63839,-2.25088 8.90798,-4.03421c0.24681,-0.00798 0.49433,-0.01484 0.74114,-0.02281c0.00475,0.00236 0.00966,0.00481 0.01466,0.00724c0.03485,2.7398 -1.42552,5.2601 -1.4959,8.01273z" data-paper-data="{&quot;noHover&quot;:false,&quot;origItem&quot;:[&quot;Path&quot;,{&quot;applyMatrix&quot;:true,&quot;selected&quot;:true,&quot;segments&quot;:[[[265.32614,206.09342],[0.03485,2.7398],[-0.00501,-0.00243],7],[[265.3115,206.08622],[0.00475,0.00236],[-0.24681,0.00798],7],[[264.57109,206.11016],[0.24681,-0.00798],[-3.26959,1.78332],7],[[255.67503,210.15679],[3.41941,-1.47581],[-3.44739,1.48788],7],[[243.76565,213.04682],[3.44649,0.66954],[-0.72749,-0.14133],7],[[240.43783,213.02045],[1.19956,-0.01518],[1.08545,1.94917],7],[[243.06999,219.26315],[-0.9133,-2.0186],[0.34042,0.75239],7],[[243.68679,221.66258],[-0.58122,-0.58665],[0.5037,0.5084],7],[[245.82167,221.43485],[-0.71488,-0.03344],[2.57351,0.12039],7],[[252.98562,220.98312],[-2.57531,0.51897],[3.00205,-0.60241],7],[[261.73124,220.05428],[-2.99847,0.19376],[0.64785,-0.04186],7],[[263.66757,219.84479],[-0.21153,0.61378],[0.57674,-1.67347],7],[[263.82251,214.0789],[-0.04357,1.7041],[0.07037,-2.75263],7]],&quot;closed&quot;:true}]}" fill="#4c4c4c" stroke="none" stroke-width="0.5"/><path d="M237.47295,211.11587c0.21234,-0.01703 0.45719,0.02972 0.73223,0.18533c1.08794,0.61554 0.47239,1.70348 0.47239,1.70348c-1.84752,3.18988 -5.24313,4.05913 -7.48603,6.66492c-1.16316,1.35135 -3.1446,4.43201 -5.00294,4.95625c-1.56071,0.44029 -2.74005,-0.70941 -3.81732,-1.49848c-2.34504,-1.71769 -4.37299,-3.38192 -6.95895,-4.84502c-2.43588,-1.38069 -4.18561,-2.78752 -6.18164,-4.68489c-0.76756,-0.72962 -2.29936,-1.40884 -2.51915,-2.57802c-0.11801,-0.62773 0.91795,-2.59587 1.15557,-3.39757c0.79138,-2.67 2.10836,-5.26115 2.27553,-8.03577l0.13278,-0.16306l-0.07485,-0.02929l0.5075,-1.29696c0.02283,-0.06121 0.05077,-0.1214 0.08395,-0.18007c0.33996,-0.60085 1.10263,-0.81235 1.70348,-0.47239c0.34732,0.19651 0.56454,0.53426 0.62036,0.90037l0.0772,0.47877c0.54352,0.53449 1.08053,0.88355 1.88467,1.7641c2.87417,3.14728 7.02797,6.40364 11.40474,7.50577c3.2686,0.82308 6.3312,1.20721 9.73236,2.08507c0.41937,0.31249 0.83875,0.62496 1.25812,0.93744zM235.717,212.91432c-0.00219,-0.00512 -0.00432,-0.01013 -0.00637,-0.01502c-0.19192,-0.15539 -0.38382,-0.31077 -0.57574,-0.46616c-3.63967,-0.78945 -5.82428,-1.63726 -9.37616,-2.75733c-3.58094,-1.12923 -8.72991,-2.84245 -10.89912,-5.60308c-0.45788,-0.58272 -1.58275,-1.42342 -2.5001,-2.1965c-0.45375,2.1844 -1.46252,4.31955 -2.0919,6.44387c-0.23459,0.7918 -1.15872,1.39457 -1.10275,2.21848c0.04851,0.71402 1.24499,0.73117 1.76389,1.22403c1.86801,1.77426 3.42712,3.05205 5.71467,4.34384c2.66492,1.50778 4.82824,3.20284 7.22317,5.0174c0.51745,0.39206 1.04031,1.43392 1.60176,1.10798c1.5308,-0.88869 2.74084,-2.99973 3.88836,-4.26031c1.85358,-2.03622 4.5947,-2.96188 6.36029,-5.05721z" fill="#060000" stroke="none" stroke-width="0.5"/><path d="M229.39479,218.00394c-1.14752,1.26058 -2.38133,3.38712 -3.91213,4.27582c-0.56145,0.32594 -1.09081,-0.71444 -1.60826,-1.1065c-2.39494,-1.81456 -4.60713,-3.5305 -7.27205,-5.03829c-2.28754,-1.29179 -3.85556,-2.59947 -5.72356,-4.37374c-0.5189,-0.49286 -1.71506,-0.5144 -1.76357,-1.22842c-0.05597,-0.82392 0.87006,-1.43568 1.10465,-2.22747c0.62938,-2.12432 1.65078,-4.28028 2.10454,-6.46468c0.91735,0.77308 2.04299,1.61304 2.50087,2.19575c2.16921,2.76063 7.39301,4.4808 10.97395,5.61003c3.55188,1.12007 5.746,1.99862 9.38568,2.78807c0.19192,0.15539 0.38374,0.31246 0.57566,0.46785c0.00205,0.0049 0.00417,0.00996 0.00636,0.01508c-1.76559,2.09533 -4.51854,3.05028 -6.37212,5.0865z" data-paper-data="{&quot;noHover&quot;:false,&quot;origItem&quot;:[&quot;Path&quot;,{&quot;applyMatrix&quot;:true,&quot;selected&quot;:true,&quot;segments&quot;:[[[235.717,212.91432],[-1.76559,2.09533],[-0.00219,-0.00512],7],[[235.71064,212.8993],[0.00205,0.0049],[-0.19192,-0.15539],7],[[235.1349,212.43314],[0.19192,0.15539],[-3.63967,-0.78945],7],[[225.75874,209.67581],[3.55188,1.12007],[-3.58094,-1.12923],7],[[214.85962,204.07273],[2.16921,2.76063],[-0.45788,-0.58272],7],[[212.35952,201.87623],[0.91735,0.77308],[-0.45375,2.1844],7],[[210.26762,208.32011],[0.62938,-2.12432],[-0.23459,0.7918],7],[[209.16487,210.53859],[-0.05597,-0.82392],[0.04851,0.71402],7],[[210.92876,211.76263],[-0.5189,-0.49286],[1.86801,1.77426],7],[[216.64342,216.10646],[-2.28754,-1.29179],[2.66492,1.50778],7],[[223.86659,221.12386],[-2.39494,-1.81456],[0.51745,0.39206],7],[[225.46835,222.23184],[-0.56145,0.32594],[1.5308,-0.88869],7],[[229.35671,217.97153],[-1.14752,1.26058],[1.85358,-2.03622],7]],&quot;closed&quot;:true}]}" fill="#626262" stroke="none" stroke-width="0.5"/><path d="M212.46898,198.27806c0.11858,0.15475 0.19738,0.36153 0.19593,0.63785c-0.00573,1.09301 -1.25571,1.08799 -1.25571,1.08799c-3.68588,-0.04727 -6.10295,-2.26689 -9.47228,-2.86531c-1.74731,-0.31034 -5.40331,-0.50644 -6.76845,-1.70047c-1.14651,-1.00279 -0.71933,-2.39367 -0.55697,-3.55264c0.35343,-2.52291 0.81509,-4.78103 0.8287,-7.37904c0.015,-2.44829 0.38795,-4.38419 1.06863,-6.71755c0.26176,-0.89728 0.10624,-2.35614 1.0191,-3.0232c0.49011,-0.35814 2.71351,-0.40829 3.52914,-0.56939c2.71637,-0.53653 5.62066,-0.63834 8.12344,-1.69583l0.20714,0.03167l-0.011,-0.06962l1.3796,-0.16671c0.06456,-0.00872 0.13074,-0.01312 0.19814,-0.01285c0.97491,0.00391 0.38154,2.21928 0.38154,2.21928c-0.20092,0.64299 -0.2432,1.20181 -0.6188,2.19147c-1.34244,3.53722 -2.15502,8.09738 -0.97894,11.90762c0.8783,2.8455 2.03903,5.34634 2.93428,8.31639c-0.06783,0.45344 -0.13565,0.90689 -0.20349,1.36033zM210.04199,197.70638c0.00339,-0.00386 0.00672,-0.00762 0.01,-0.01127c0.04185,-0.2128 0.0837,-0.42559 0.12555,-0.63839c-1.0889,-3.11427 -1.41616,-5.14324 -2.17368,-8.33173c-0.76372,-3.21458 -1.78376,-7.87499 -0.43437,-10.70918c0.28483,-0.59824 0.46898,-1.81559 0.6955,-2.84572c-2.12773,0.58674 -4.48359,0.72896 -6.64467,1.15604c-0.8055,0.15918 -1.78286,-0.28849 -2.47447,0.10611c-0.59935,0.34197 -0.02991,1.26221 -0.20653,1.86864c-0.6358,2.18309 -0.98925,3.91845 -0.99912,6.21558c-0.01403,2.67733 -0.43646,5.05191 -0.85005,7.65427c-0.08937,0.56227 -0.74311,1.40619 -0.18445,1.69537c1.52318,0.78846 3.95629,0.8101 5.61676,1.14727c2.68217,0.54463 4.82878,2.24077 7.51955,2.69302z" fill="#060000" stroke="none" stroke-width="0.5"/><path d="M202.51718,195.06308c-1.66047,-0.33717 -4.12132,-0.37097 -5.6445,-1.15942c-0.55865,-0.28918 0.09099,-1.13714 0.18036,-1.6994c0.41359,-2.60235 0.82592,-5.02699 0.83995,-7.70432c0.00988,-2.29714 0.38636,-4.05974 1.02216,-6.24284c0.17662,-0.60643 -0.38835,-1.52886 0.211,-1.87083c0.69161,-0.3946 1.67984,0.04982 2.48534,-0.10936c2.16109,-0.42708 4.54546,-0.56603 6.6732,-1.15277c-0.22652,1.03012 -0.40833,2.24855 -0.69316,2.84679c-1.34938,2.83419 -0.30668,7.56183 0.45704,10.77641c0.75753,3.18849 1.06688,5.2373 2.15578,8.35157c-0.04185,0.2128 -0.08517,0.42648 -0.12702,0.63929c-0.00327,0.00365 -0.00665,0.00744 -0.01004,0.0113c-2.69077,-0.45224 -4.86794,-2.14179 -7.55011,-2.68642z" data-paper-data="{&quot;noHover&quot;:false,&quot;origItem&quot;:[&quot;Path&quot;,{&quot;applyMatrix&quot;:true,&quot;selected&quot;:true,&quot;segments&quot;:[[[210.04199,197.70638],[-2.69077,-0.45224],[0.00339,-0.00386],7],[[210.05198,197.69511],[-0.00327,0.00365],[0.04185,-0.2128],7],[[210.17754,197.05672],[-0.04185,0.2128],[-1.0889,-3.11427],7],[[208.00385,188.72498],[0.75753,3.18849],[-0.76372,-3.21458],7],[[207.56948,178.0158],[-1.34938,2.83419],[0.28483,-0.59824],7],[[208.26498,175.17008],[-0.22652,1.03012],[-2.12773,0.58674],7],[[201.6203,176.32613],[2.16109,-0.42708],[-0.8055,0.15918],7],[[199.14583,176.43223],[0.69161,-0.3946],[-0.59935,0.34197],7],[[198.9393,178.30087],[0.17662,-0.60643],[-0.6358,2.18309],7],[[197.94018,184.51646],[0.00988,-2.29714],[-0.01403,2.67733],7],[[197.09013,192.17072],[0.41359,-2.60235],[-0.08937,0.56227],7],[[196.90568,193.86609],[-0.55865,-0.28918],[1.52318,0.78846],7],[[202.52244,195.01336],[-1.66047,-0.33717],[2.68217,0.54463],7]],&quot;closed&quot;:true}]}" fill="#7b7b7b" stroke="none" stroke-width="0.5"/><path d="M209.76571,173.62329c-0.00838,0.20108 -0.08396,0.42545 -0.27123,0.66588c-0.74075,0.95104 -1.74762,0.2512 -1.74762,0.2512c-2.9471,-2.09202 -3.40569,-5.37461 -5.72576,-7.77167c-1.20317,-1.2431 -4.02588,-3.44842 -4.32503,-5.25038c-0.25125,-1.51336 1.03074,-2.48997 1.94252,-3.41145c1.9848,-2.00594 3.87872,-3.7205 5.63945,-5.98106c1.66101,-2.12909 3.26624,-3.61169 5.38786,-5.27006c0.81586,-0.63771 1.67269,-1.99788 2.85973,-2.07235c0.63731,-0.03999 2.46805,1.15329 3.23574,1.46644c2.55672,1.04292 4.97255,2.56992 7.7075,3.03919l0.14608,0.14289l0.038,-0.0669l1.22727,0.62204c0.05805,0.0283 0.1145,0.06129 0.16879,0.09902c0.55608,0.38651 0.67522,1.12563 0.26611,1.65087c-0.23648,0.30362 -0.59771,0.46931 -0.96785,0.48043l-0.48456,0.01848c-0.59543,0.44957 -1.00597,0.91391 -1.97604,1.56893c-3.46723,2.3412 -7.19518,5.87026 -8.81082,9.85106c-1.20657,2.97288 -1.95276,5.80199 -3.2295,8.89304c-0.36021,0.35813 -0.72041,0.71626 -1.08063,1.07439zM208.18922,171.77387c0.00534,-0.00148 0.01057,-0.00291 0.01567,-0.00428c0.17715,-0.1625 0.35427,-0.32498 0.53142,-0.48748c1.21738,-3.3247 2.31937,-5.27813 3.85455,-8.48325c1.54774,-3.23134 3.86208,-7.86756 6.86145,-9.59113c0.6331,-0.36381 1.60181,-1.32414 2.47865,-2.09744c-2.1148,-0.67158 -4.11459,-1.85816 -6.14882,-2.68768c-0.75821,-0.30919 -1.24662,-1.24381 -2.07134,-1.28411c-0.71471,-0.03492 -0.87426,1.08532 -1.42542,1.51648c-1.98414,1.55216 -3.43854,2.87053 -4.99362,4.87051c-1.81448,2.32959 -3.75515,4.16764 -5.84207,6.20946c-0.45091,0.44116 -1.54763,0.8142 -1.29089,1.37749c0.70002,1.53581 2.65189,2.90843 3.76681,4.12664c1.80093,1.96778 2.39349,4.64289 4.2636,6.53479z" fill="#060000" stroke="none" stroke-width="0.5"/><path d="M203.88686,165.27066c-1.11492,-1.21821 -3.07745,-2.61487 -3.77747,-4.15068c-0.25675,-0.56329 0.83943,-0.94241 1.29034,-1.38357c2.08692,-2.04182 4.05093,-3.92364 5.86541,-6.25323c1.55508,-1.99998 3.04191,-3.3257 5.02605,-4.87786c0.55117,-0.43116 0.71557,-1.55058 1.43028,-1.51567c0.82472,0.0403 1.32227,0.97786 2.08048,1.28705c2.03423,0.82952 4.05393,2.03163 6.16873,2.70321c-0.87684,0.7733 -1.84509,1.73423 -2.4782,2.09805c-2.99937,1.72357 -5.33267,6.43485 -6.88041,9.66619c-1.53518,3.20512 -2.66788,5.16236 -3.88525,8.48705c-0.17715,0.1625 -0.35593,0.32463 -0.53308,0.48713c-0.0051,0.00137 -0.01039,0.00278 -0.01573,0.00426c-1.8701,-1.8919 -2.49021,-4.58416 -4.29114,-6.55194z" data-paper-data="{&quot;noHover&quot;:false,&quot;origItem&quot;:[&quot;Path&quot;,{&quot;applyMatrix&quot;:true,&quot;selected&quot;:true,&quot;segments&quot;:[[[208.18922,171.77387],[-1.8701,-1.8919],[0.00534,-0.00148],7],[[208.2049,171.76959],[-0.0051,0.00137],[0.17715,-0.1625],7],[[208.73631,171.28211],[-0.17715,0.1625],[1.21738,-3.3247],7],[[212.59087,162.79887],[-1.53518,3.20512],[1.54774,-3.23134],7],[[219.45231,153.20774],[-2.99937,1.72357],[0.6331,-0.36381],7],[[221.93097,151.1103],[-0.87684,0.7733],[-2.1148,-0.67158],7],[[215.78215,148.42261],[2.03423,0.82952],[-0.75821,-0.30919],7],[[213.71082,147.1385],[0.82472,0.0403],[-0.71471,-0.03492],7],[[212.28539,148.65498],[0.55117,-0.43116],[-1.98414,1.55216],7],[[207.29178,153.52549],[1.55508,-1.99998],[-1.81448,2.32959],7],[[201.4497,159.73495],[2.08692,-2.04182],[-0.45091,0.44116],7],[[200.15882,161.11244],[-0.25675,-0.56329],[0.70002,1.53581],7],[[203.92563,165.23908],[-1.11492,-1.21821],[1.80093,1.96778],7]],&quot;closed&quot;:true}]}" fill="#929292" stroke="none" stroke-width="0.5"/><path d="M233.4265,149.63612c6.01503,-2.49423 17.05252,-1.88458 22.05079,2.66271c3.06901,2.7921 5.56114,6.43463 8.09312,9.69481c7.51347,7.54517 7.51956,19.14905 6.10104,28.99909c-0.59094,4.10337 -1.40525,8.32678 -3.59906,11.92302c-2.75691,3.82341 -6.76321,4.84595 -10.99485,6.47355c-8.68093,3.33892 -18.55031,3.02866 -27.72074,1.85063c-3.97901,-1.30699 -8.17257,-2.92787 -11.04486,-6.1743c-2.82965,-3.19824 -3.4796,-4.20852 -5.37495,-8.03517c-1.79224,-3.61848 -2.06479,-9.80598 -2.06479,-13.70215c0,-4.771 0.187,-10.73234 1.34696,-15.40464c2.09484,-8.43797 8.14663,-13.18108 15.53579,-16.85761c1.91674,-0.64361 3.8474,-0.78804 5.68307,-1.431l1.59528,-0.06415c0,0 0.17455,0 0.39319,0.06522zM233.38935,152.01626c-0.20094,0.05464 -0.35604,0.05464 -0.35604,0.05464l-0.80472,-0.06415c-1.85474,0.59563 -3.62983,0.74508 -5.51693,1.369c-6.69768,3.36833 -12.13114,7.47623 -14.06421,15.14239c-1.11947,4.4396 -1.73822,10.27585 -1.73822,14.81017c0,3.46811 0.46658,8.29032 2.09447,11.50526c1.80146,3.55773 2.44651,5.61198 5.15098,8.5426c2.62123,2.84042 6.21422,4.22439 9.75514,5.4257c8.70715,1.05441 18.04075,1.4192 26.27926,-1.74937c3.63707,-1.39883 7.46644,-2.21334 9.80515,-5.52645c2.05589,-3.18457 2.67931,-7.19736 3.20094,-10.87698c1.29279,-9.11949 1.52078,-20.01228 -5.49896,-27.00091c-2.49595,-3.20487 -4.935,-6.7101 -7.90688,-9.50519c-4.17307,-3.92482 -14.49748,-4.33517 -19.46362,-2.17313c0,0 -0.46916,0.20107 -0.93636,0.04643z" fill="#000000" stroke="none" stroke-width="0.5"/><path d="M230.0679,180.1213c0,-5.49467 4.45431,-9.94898 9.94898,-9.94898c5.49467,0 9.94898,4.45431 9.94898,9.94898c0,5.49467 -4.45431,9.94898 -9.94898,9.94898c-5.49467,0 -9.94898,-4.45431 -9.94898,-9.94898z" fill="none" stroke="#000000" stroke-width="2"/></g></g></svg>