<svg version="1.1" xmlns="http://www.w3.org/2000/svg" xmlns:xlink="http://www.w3.org/1999/xlink" width="57.43636" height="57.6296" viewBox="0,0,57.43636,57.6296"><g transform="translate(-211.28182,-151.1852)"><g data-paper-data="{&quot;isPaintingLayer&quot;:true}" fill-rule="nonzero" stroke="none" stroke-width="0.5" stroke-linecap="butt" stroke-linejoin="miter" stroke-miterlimit="10" stroke-dasharray="" stroke-dashoffset="0" style="mix-blend-mode: normal"><path d="M226.58206,162.72067c-0.29393,-1.14133 -0.5592,-3.24955 -0.29031,-4.10447c0.22673,-0.72087 3.57402,-1.58953 4.26883,-1.8867c1.41399,-0.60477 3.34509,-1.27766 4.91467,-1.11379c1.22703,0.12811 2.21202,0.93642 3.26345,1.75948c0,0 -11.68523,4.64855 -12.15664,5.34548z" data-paper-data="{&quot;noHover&quot;:false,&quot;origItem&quot;:[&quot;Path&quot;,{&quot;applyMatrix&quot;:true,&quot;selected&quot;:true,&quot;segments&quot;:[[[238.67686,157.39282],[0,0],[-1.05143,-0.82306],7],[[235.43361,155.66472],[1.22703,0.12811],[-1.56958,-0.16388],7],[[230.60014,156.78021],[1.41399,-0.60477],[-0.6948,0.29717],7],[[226.35581,158.62189],[0.22673,-0.72087],[-0.26889,0.85492],7],[[226.63708,162.68739],[-0.29393,-1.14133],[0.47141,-0.69693],7]],&quot;closed&quot;:true}]}" fill="#b37623"/><path d="M239.14518,159.81511c5.31093,-2.44643 11.79183,-5.81234 17.3663,-5.44109c0.04553,0.00256 3.40483,-0.05078 3.30135,0.49593c-0.78008,4.12127 -5.03719,4.63657 -7.84473,6.71518c-7.21905,5.34474 -14.92923,10.09602 -20.83706,17.08826c-2.76196,2.60309 -12.15881,6.58173 -16.17923,4.82183c-1.44389,-0.63205 -0.25523,-2.10255 -0.02265,-2.70541c3.10971,-8.06039 9.14639,-9.87469 15.07027,-16.16339c1.137,-1.20702 2.70179,-2.05059 4.26995,-2.73873c1.32013,-0.33733 2.69301,-0.62623 3.8275,-1.0044z" data-paper-data="{&quot;noHover&quot;:false,&quot;origItem&quot;:[&quot;Path&quot;,{&quot;applyMatrix&quot;:true,&quot;selected&quot;:true,&quot;segments&quot;:[[[238.08868,160.94707],[0,0],[-1.13449,0.37816],7],[[234.29229,161.94778],[1.32013,-0.33733],[-1.56816,0.68814],7],[[230.05357,164.66115],[1.137,-1.20702],[-5.92388,6.2887],7],[[214.98606,180.75983],[3.10971,-8.06039],[-0.23258,0.60286],7],[[215.00573,183.46018],[-1.44389,-0.63205],[4.02042,1.7599],7],[[231.16489,178.61873],[-2.76196,2.60309],[5.90782,-6.99224],7],[[251.91073,161.61416],[-7.21905,5.34474],[2.80755,-2.07861],7],[[259.75835,154.9041],[-0.78008,4.12127],[0.10348,-0.54671],7],[[256.46025,154.41287],[0.04553,0.00256],[-5.57447,-0.37125],7],[[239.13098,159.87783],[5.31093,-2.44643],[0,0],7]],&quot;closed&quot;:true}]}" fill="#b3b3b3"/><path d="M237.00415,178.79151c2.31413,-1.84813 5.11966,-3.224 7.45179,-5.08748c3.04625,3.78601 6.08436,7.50976 9.13115,11.35695c3.60188,4.45294 8.29591,7.47645 11.17389,12.6917c1.39669,2.53097 1.14335,6.79215 -2.08272,7.74918c-9.09675,-0.18075 -14.93578,-8.53073 -19.87009,-17.75846c-1.37944,-2.57971 -3.36442,-4.68091 -4.66183,-7.30226c-0.37029,-0.55638 -0.74914,-1.10871 -1.14219,-1.64963z" data-paper-data="{&quot;noHover&quot;:false,&quot;origItem&quot;:[&quot;Path&quot;,{&quot;applyMatrix&quot;:true,&quot;selected&quot;:true,&quot;segments&quot;:[[[238.19909,180.47793],[-0.37029,-0.55638],[1.29741,2.62135],7],[[242.87099,187.75721],[-1.37944,-2.57971],[4.93431,9.22772],7],[[262.64082,205.4496],[-9.09675,-0.18075],[3.22608,-0.95702],7],[[264.70597,197.71942],[1.39669,2.53097],[-2.87798,-5.21525],7],[[253.55806,185.11835],[3.60188,4.45294],[-3.04679,-3.84718],7],[[244.48133,173.76312],[3.04625,3.78601],[-2.33212,1.86348],7],[[237.05543,178.83033],[2.31413,-1.84813],[0.39305,0.54092],7]],&quot;closed&quot;:true}]}" fill="#b37623"/><path d="M241.70858,185.02848c0.55523,-0.27761 0.93179,-0.01922 1.12968,0.20023c0.11536,0.0457 0.18745,0.09376 0.18745,0.09376c1.09831,0.7377 1.722,1.71332 2.66366,2.52443c4.06941,3.50525 11.52501,5.46177 16.60048,6.58965c3.89263,1.4499 5.76768,8.80908 1.41029,11.32655c-4.06289,2.34732 -8.2425,-2.33458 -11.937,-3.22591c-4.57395,-3.7582 -6.89507,-10.26565 -9.99681,-15.2389l-0.4891,-0.97576c0,0 -0.43135,-0.86271 0.43135,-1.29406z" fill="#90601d"/><path d="M215.70747,178.48257c0.69114,-2.19196 2.46804,-4.68593 3.49543,-5.14956c0.07671,-0.03462 0.15488,-0.06359 0.23427,-0.08776l-0.01943,-0.04372l0.46283,-0.2057c-0.02428,-0.20862 0.02851,-0.45274 0.2488,-0.70974c0.62771,-0.73233 1.36004,-0.10462 1.36004,-0.10462c2.45066,2.2793 8.99053,1.13476 12.0106,0.47503l0.10525,0.03029v-0.03605h1.05222c0.5327,0 0.96454,0.43184 0.96454,0.96454c0,0.26635 -0.10796,0.50748 -0.28251,0.68203l-0.70148,0.70148l-0.04554,-0.04554c-4.12339,6.5018 -11.99113,9.60554 -19.68733,8.5652c-2.8917,-2.26772 -0.99511,-3.57869 0.80231,-5.03588z" fill="#909090"/><path d="M233.81742,180.45254c-0.11804,0.13697 -0.2347,0.27367 -0.34993,0.41005c-3.70276,3.18153 -10.38149,5.79096 -15.3686,5.84268c-0.6592,0.00684 -4.37394,-0.27441 -4.62345,-0.41752c-2.94813,-1.6909 -2.34746,-4.30851 -1.4975,-6.66295c2.02178,-5.60046 3.72441,-8.69295 9.42946,-11.07244c1.76498,-0.16615 2.57128,-1.25477 3.59524,-2.70193c0.01652,-0.04593 0.03366,-0.08856 0.05052,-0.12735c-0.69219,-1.02457 -1.13414,-2.2621 -1.16925,-3.47177c-0.02204,-0.75937 -0.00075,-4.20533 0.15866,-4.55452c1.58017,-3.46139 6.7259,-3.03729 9.56747,-3.69748c0.62988,-0.14634 1.11781,-0.77903 1.76383,-0.80773c1.46401,-0.06504 2.95819,0.82801 4.21141,1.44886l0.91081,1.1508c1.57607,-0.52424 3.11277,-1.01767 4.52678,-1.53006c3.93505,-1.42595 7.32518,-3.27838 11.62385,-3.05801c1.14901,0.06864 3.72801,0.11902 4.6086,0.73046c3.31709,2.30324 0.91997,6.97449 -1.47194,8.91704c-1.24493,1.01105 -2.90212,1.3663 -4.34291,2.07072c-2.7729,1.35571 -6.30691,3.89105 -8.81522,5.73945c-0.45476,0.33512 -0.91488,0.68325 -1.37836,1.04274c0.18842,0.12756 0.32402,0.27424 0.42003,0.42829l0.11335,0.11754c3.42158,4.30111 6.81385,8.57081 10.28838,12.86047c1.57309,1.99357 3.76827,3.23908 5.56481,5.03704c4.79236,4.79611 12.23714,17.05842 1.81384,20.415c-1.66839,0.53727 -5.15295,0.0514 -6.83348,0.0514c0,0 -11.83827,-10.61044 -16.60788,-19.39717c-1.3672,-2.5187 -3.29072,-4.55462 -4.58765,-7.12446c-0.33502,-0.5015 -0.68114,-0.99603 -1.03904,-1.4818c-0.17863,-0.0097 -0.3679,-0.05617 -0.56183,-0.15734zM238.08867,160.94706c-1.13449,0.37816 -2.47625,0.66338 -3.79638,1.00071c-1.56816,0.68814 -3.10173,1.50635 -4.23873,2.71337c-5.92388,6.2887 -11.9578,8.0383 -15.06751,16.09868c-0.23258,0.60286 -1.42421,2.0683 0.01967,2.70035c4.02042,1.7599 13.3972,-2.23837 16.15916,-4.84145c5.90782,-6.99224 13.52679,-11.65983 20.74583,-17.00456c2.80755,-2.07861 7.06754,-2.5888 7.84762,-6.71007c0.10348,-0.54671 -3.25257,-0.48866 -3.2981,-0.49122c-5.57447,-0.37125 -12.01834,3.01853 -17.32927,5.46496zM238.67685,157.39281c-1.05143,-0.82306 -2.01622,-1.59999 -3.24325,-1.7281c-1.56958,-0.16388 -3.41949,0.51072 -4.83347,1.11549c-0.6948,0.29717 -4.0176,1.12082 -4.24433,1.84169c-0.26889,0.85492 -0.01266,2.92417 0.28127,4.0655c0.47141,-0.69693 12.03978,-5.29457 12.03978,-5.29457zM238.19908,180.47792c1.29741,2.62135 3.29245,4.69956 4.67189,7.27927c4.93431,9.22772 10.67308,17.51164 19.76983,17.69239c3.22608,-0.95702 3.46185,-5.19921 2.06515,-7.73018c-2.87798,-5.21525 -7.54603,-8.14813 -11.14791,-12.60106c-3.04679,-3.84718 -6.03049,-7.56922 -9.07674,-11.35524c-2.33212,1.86348 -5.11177,3.21909 -7.4259,5.06722c0.39305,0.54092 0.77338,1.09122 1.14366,1.6476z" fill="#000000"/></g></g></svg>