<svg version="1.1" xmlns="http://www.w3.org/2000/svg" xmlns:xlink="http://www.w3.org/1999/xlink" width="62.77729" height="52.69976" viewBox="0,0,62.77729,52.69976"><g transform="translate(-208.6312,-153.31318)"><g data-paper-data="{&quot;isPaintingLayer&quot;:true}" fill-rule="nonzero" stroke-linecap="butt" stroke-linejoin="miter" stroke-miterlimit="10" stroke-dasharray="" stroke-dashoffset="0" style="mix-blend-mode: normal"><path d="M230.02106,161.35231c0.30739,-1.42785 1.0985,-2.76185 2.03384,-3.88324c0.5899,-0.70723 2.02083,-2.13526 2.93901,-2.4682c3.62307,-1.31376 6.86194,0.49984 9.28881,3.1807c0.71716,0.79222 2.12734,3.33611 3.23593,3.90603c3.04348,1.56464 8.78951,-1.18488 12.21487,-1.18131c5.29258,1.06387 12.066,4.63502 10.06612,11.00374c-0.76103,2.42354 -3.37792,2.54673 -4.01693,4.54886c-1.05987,3.32073 3.28385,5.2285 2.55899,8.15647c-0.55149,2.22765 -4.87661,4.58505 -6.49072,6.18662c-1.27078,1.15866 -2.3961,2.06516 -2.49201,3.90711c-0.05894,1.13202 1.35661,2.10355 1.11788,3.21168c-0.62656,2.9084 -3.91129,1.75516 -5.50625,3.26135c-0.75072,0.70894 -1.20785,1.74861 -2.08846,2.28775c-1.54881,0.94824 -3.11558,1.0571 -4.84702,1.29306c-4.78617,0.65227 -9.00942,1.42202 -13.52812,-0.83287c-4.04891,-1.37114 -6.37835,-5.13009 -9.92554,-7.36693c-2.34712,-1.48009 -6.94995,-1.50305 -8.79943,-3.35176c-1.73937,-1.73864 -1.49385,-4.64256 -2.65857,-6.70324c-0.78209,-1.38371 -3.01965,-2.46674 -3.24226,-4.1306c-0.55145,-4.12167 4.78004,-4.65876 7.5451,-4.93851c1.62288,-0.69169 4.18192,-1.81075 4.75415,-3.70152c0.88076,-2.91024 -0.90112,-6.84386 0.71621,-9.57649c1.72854,-2.92053 5.09404,-1.70153 7.12439,-2.80869z" fill="#4c4c4c" stroke="#001313" stroke-width="0"/><path d="M245.43731,169.72705c0.29364,-0.30359 0.74406,-0.30359 0.74406,-0.30359c0.62286,0.04143 1.34403,-0.21411 1.86859,0.12428c1.28862,0.83127 2.11583,3.22579 2.1952,4.68873c0.0536,0.98791 -0.37689,2.61117 0.51776,3.33282c1.40671,1.13468 4.51336,-0.48378 6.11562,0.12546c4.08279,1.55245 3.87413,6.19621 0.51476,8.0995c-2.86275,1.04045 -4.70613,4.95058 -8.39342,4.64561c-1.4608,-0.12082 -2.26189,-1.23568 -3.06333,-2.31101c-1.39996,-1.87838 -1.75647,-4.47757 -2.30495,-6.67395c-0.31934,-1.2788 -0.90724,-2.49941 -0.81975,-3.85333c0.09225,-1.42745 0.66746,-2.73707 0.79286,-4.15823c-0.00069,-0.71206 -0.00102,-1.42413 -0.00102,-2.13619l0.52719,-1.18587c0,0 0.47429,-0.83 1.30643,-0.39423z" fill="#323232" stroke="none" stroke-width="0.5"/><path d="M231.24106,170.73459c0.6207,-0.78301 1.55349,-0.26479 1.55349,-0.26479c0.48715,0.29925 1.10589,0.45006 1.46146,0.89776c0.62766,0.79031 2.9263,6.03899 2.47798,7.00595c-1.38962,2.99722 -6.38708,2.29014 -7.58428,-0.2273c-0.79394,-1.66948 -0.52328,-4.63423 -0.03449,-6.31791l1.13827,-1.00885c0,0 0.49276,-0.24638 0.98758,-0.08487z" fill="#252525" stroke="none" stroke-width="0.5"/><path d="M218.83595,187.67033c0.80786,-0.57705 1.4324,-0.05416 1.65522,0.18547c2.39356,-1.20031 4.76016,-5.1802 7.59435,-4.38812c2.33291,0.65198 3.45016,3.18586 5.14766,4.63078c1.44737,1.232 2.69823,-0.14581 4.19518,0.75129c1.74748,1.04723 3.76936,5.36262 4.45915,7.23784c0.17056,0.77449 1.01805,3.49029 0.38772,4.46578c-1.02675,1.58899 -4.67936,2.03047 -6.28198,1.30253c-1.36035,-0.6179 -1.43497,-2.67174 -2.49784,-3.72181c-0.71855,-0.7099 -1.71885,-1.0917 -2.43403,-1.80499c-0.64424,-0.64254 -0.86307,-1.70118 -1.63147,-2.18847c-0.9495,-0.60215 -2.91335,0.15724 -3.97882,-0.10068c-2.20695,-0.53426 -4.26404,-2.12071 -6.03104,-3.49076l-0.87474,-1.13514c0,0 -0.72655,-1.01717 0.29062,-1.74371z" fill="#5a5a5a" stroke="none" stroke-width="0.5"/><path d="M233.80158,156.95229c0.73521,-1.01092 1.74613,-0.27571 1.74613,-0.27571c2.49179,1.84043 2.01298,2.81304 3.02329,5.35899c0.33316,0.83954 2.08934,1.60022 2.19255,2.18059c0.16199,0.91087 -0.27076,1.98782 -0.96107,2.60377c-0.59625,0.53203 -1.57067,0.33167 -2.36897,0.36757c-3.10441,0.13959 -6.72399,-3.22217 -5.97644,-6.59537c0.21278,-0.96014 0.96632,-2.05654 1.96197,-2.40384c0.05328,-0.05444 0.11149,-0.10403 0.17391,-0.14805c-0.10092,-0.29241 -0.09812,-0.66619 0.20862,-1.08795zM236.16375,164.58469c-0.00078,-0.001 -0.00157,-0.00201 -0.00235,-0.00301c-0.00079,0.00056 -0.00158,0.00112 -0.00237,0.00168c0.00157,0.00045 0.00315,0.00089 0.00472,0.00133z" fill="#5a5a5a" stroke="none" stroke-width="0.5"/><path d="M260.4375,197.3125c0,1.25 -1.25,1.25 -1.25,1.25l0.17817,-0.03732c-0.28582,-0.00676 -0.67703,-0.24207 -0.85746,-0.02029c-0.2901,0.35659 0.19818,1.19727 -0.23196,1.35943c-5.76289,2.17248 -2.60871,-3.26639 -1.53562,-5.06994c0,0 0.64312,-1.07187 1.71499,-0.42875c1.07187,0.64312 0.42875,1.71499 0.42875,1.71499c-0.00176,0.00291 -0.00352,0.00583 -0.00529,0.00876l0.30842,-0.02688c0,0 1.25,0 1.25,1.25z" fill="#5a5a5a" stroke="none" stroke-width="0.5"/><path d="M215.45332,178.11522c1.19728,-0.35918 1.55647,0.8381 1.55647,0.8381c0.12169,0.66664 0.56622,1.35281 0.36508,1.99992c-0.33716,1.08468 -1.88884,2.20895 -3.44892,2.6038c-0.25113,0.14723 -0.51397,0.16177 -0.73397,0.12937c-1.23423,0.1173 -2.35057,-0.31699 -2.71928,-1.70439c-0.2197,-0.8267 0.67574,-1.57169 1.0136,-2.35754l0.40125,-0.01474l0.03536,-0.02122l-0.07465,-0.18661l1.22368,-0.48947c0.15061,-0.06433 0.31643,-0.09993 0.49056,-0.09993c0.41056,0 0.77489,0.19793 1.00277,0.50358c-0.01021,-0.38276 0.11175,-0.96798 0.88804,-1.20086z" fill="#323232" stroke="none" stroke-width="0.5"/><path d="M257.04199,162.05244c0.54111,-1.52686 5.04354,-1.78699 5.86219,-0.53243c1.35457,2.07583 -1.15032,4.44859 -2.987,4.7712c-1.76157,0.30942 -3.5173,-1.26549 -4.5454,-2.40559c0,0 -0.82313,-0.94072 0.11759,-1.76385c0.6527,-0.57111 1.24879,-0.29311 1.55262,-0.06934z" fill="#323232" stroke="none" stroke-width="0.5"/><path d="M230.02105,161.35231c0.30739,-1.42785 1.0985,-2.76185 2.03384,-3.88324c0.5899,-0.70723 2.02083,-2.13526 2.93902,-2.4682c3.62307,-1.31376 6.86194,0.49984 9.28882,3.1807c0.71716,0.79222 2.12734,3.33611 3.23593,3.90603c3.04348,1.56465 8.78951,-1.18488 12.21487,-1.1813c5.29258,1.06387 12.066,4.63502 10.06612,11.00374c-0.76103,2.42354 -3.37793,2.54673 -4.01694,4.54886c-1.05987,3.32074 3.28386,5.2285 2.55899,8.15647c-0.55149,2.22764 -4.87661,4.58504 -6.49072,6.18661c-1.27078,1.15866 -2.39611,2.06516 -2.49202,3.90712c-0.05894,1.13202 1.35661,2.10354 1.11789,3.21167c-0.62655,2.9084 -3.91129,1.75516 -5.50626,3.26135c-0.75072,0.70893 -1.20785,1.74861 -2.08846,2.28775c-1.54881,0.94824 -3.11559,1.0571 -4.84701,1.29306c-4.78617,0.65228 -9.00942,1.42201 -13.52811,-0.83288c-4.04891,-1.37115 -6.37835,-5.13009 -9.92554,-7.36694c-2.34712,-1.48009 -6.94994,-1.50305 -8.79942,-3.35176c-1.73937,-1.73864 -1.49385,-4.64257 -2.65857,-6.70324c-0.78208,-1.3837 -3.01965,-2.46675 -3.24227,-4.13059c-0.55145,-4.12167 4.78003,-4.65875 7.5451,-4.93851c1.62288,-0.69169 4.18193,-1.81075 4.75415,-3.70153c0.88076,-2.91023 -0.90113,-6.84386 0.71621,-9.5765c1.72854,-2.92053 5.09403,-1.70153 7.12439,-2.80869z" fill="none" stroke="#001313" stroke-width="2.5"/></g></g></svg>