<svg version="1.1" xmlns="http://www.w3.org/2000/svg" xmlns:xlink="http://www.w3.org/1999/xlink" width="64.24377" height="56.1545" viewBox="0,0,64.24377,56.1545"><g transform="translate(-206.42476,-152.46781)"><g data-paper-data="{&quot;isPaintingLayer&quot;:true}" fill-rule="nonzero" stroke="none" stroke-width="0.5" stroke-linecap="butt" stroke-linejoin="miter" stroke-miterlimit="10" stroke-dasharray="" stroke-dashoffset="0" style="mix-blend-mode: normal"><path d="M210.75603,194.32606c-1.44823,-1.05344 -1.92486,-1.65773 -1.74501,-3.51904c0.09991,-1.03396 0.32815,-2.05582 0.47277,-3.08449c0.66993,-2.15985 1.32481,-4.43172 2.6649,-6.29843c1.19989,-1.67142 4.2064,-3.2361 4.6859,-5.38342c0.66585,-2.98191 -1.48534,-3.46166 -2.57018,-5.67132c-1.58791,-3.23433 1.63288,-10.35433 4.60049,-11.80708c2.07251,-0.76404 1.69328,-2.47225 3.47104,-3.24144c1.5835,-0.68514 6.69268,-0.11969 8.13496,0.85433c1.41164,0.95333 1.83936,2.72742 3.55405,3.39712c6.44871,2.51865 10.16311,-4.18802 17.08294,-4.40103c1.05415,-0.03245 2.17181,-0.51394 3.16402,-0.15644c2.59419,0.93471 8.95759,4.99785 7.20843,8.03471c0.05913,0.77588 -0.05888,1.58981 0.17945,2.33055c0.78658,2.44472 4.25095,3.14184 5.56901,5.27759c1.06572,1.72687 -0.62553,4.37378 -0.09153,6.2776c0.11034,0.39338 1.18834,1.48455 1.07671,2.22406c-0.93402,6.18747 -8.20813,8.33863 -9.36798,14.3845c-0.18129,1.2974 0.39262,3.98563 -0.06431,5.01228c-0.50088,1.12537 -2.50585,2.34904 -3.3489,3.19341c-1.02838,1.02999 -1.81085,2.57762 -3.10797,3.29642c-2.24248,1.24268 -8.14016,1.48583 -10.45415,0.555c-2.96899,-1.19431 -4.93677,-4.51761 -7.24628,-6.60537c-0.21857,-0.11802 -0.47823,-0.23034 -0.7652,-0.33845c-0.01093,0.01485 -0.02195,0.02966 -0.03296,0.04444c-4.13762,-1.61845 -9.27186,-2.92831 -13.72448,-2.7311c-1.2583,0.05573 -9.34569,-1.64439 -9.34569,-1.64439z" data-paper-data="{&quot;noHover&quot;:false,&quot;origItem&quot;:[&quot;Path&quot;,{&quot;applyMatrix&quot;:true,&quot;segments&quot;:[[[440.28018,391.8768],[-2.5166,0.11146],[8.90525,-0.39442]],[[467.67779,397.30637],[-8.27525,-3.2369],[0.02202,-0.02957]],[[467.7436,397.21746],[-0.02186,0.0297],[0.57393,0.21621]],[[469.26975,397.89334],[-0.43713,-0.23605],[4.61903,4.17552]],[[483.72834,411.1027],[-5.93797,-2.38862],[4.62799,1.86166]],[[504.60075,410.00459],[-4.48496,2.48537],[2.59423,-1.43761]],[[510.80338,403.42066],[-2.05676,2.05997],[1.68611,-1.68874]],[[517.48875,397.04555],[-1.00175,2.25075],[0.91386,-2.05329]],[[517.60784,387.03355],[-0.36259,2.5948],[2.31969,-12.09174]],[[536.32801,358.32322],[-1.86804,12.37493],[0.22326,-1.47902]],[[534.17526,353.88297],[0.22068,0.78677],[-1.068,-3.80763]],[[534.363,341.34787],[2.13144,3.45374],[-2.63612,-4.27151]],[[523.23594,330.81501],[1.57316,4.88943],[-0.47666,-1.48147]],[[522.88115,326.1597],[0.11826,1.55177],[3.49832,-6.07371]],[[508.49142,310.1148],[5.18838,1.86941],[-1.98441,-0.715]],[[502.1715,310.43216],[2.1083,-0.0649],[-13.83967,0.42602]],[[468.07119,319.24225],[12.89742,5.0373],[-3.42938,-1.3394]],[[460.97343,312.44517],[2.82328,1.90666],[-2.88456,-1.94804]],[[444.72606,310.72568],[3.167,-1.37028],[-3.55552,1.53839]],[[437.79662,317.19892],[4.14501,-1.52808],[-5.93522,2.90551]],[[428.62108,340.77721],[-3.17581,-6.46867],[2.16968,4.41932]],[[433.7671,352.10153],[1.33171,-5.96381],[-0.95899,4.29464]],[[424.3973,362.84479],[2.39979,-3.34284],[-2.68019,3.73343]],[[419.06464,375.42106],[1.33985,-4.3197],[-0.28924,2.05733]],[[418.11648,381.5812],[0.19981,-2.06793],[-0.35969,3.72262]],[[421.60165,388.6077],[-2.89645,-2.10688],[0,0]]],&quot;closed&quot;:true}]}" fill="#404040"/><path d="M217.3125,158.4375c0.75319,0 1.05254,0.45383 1.17152,0.81459c3.62067,0.8276 8.40091,0.97996 9.42584,5.29897c0.37497,1.58013 -0.52872,2.76888 -0.24491,4.27505c0.53666,2.84806 4.12387,3.03726 0.67242,6.05418c-1.70361,1.48913 -5.91763,1.25985 -7.97291,1.43113c-3.99177,-0.04342 -4.78986,-1.93153 -5.75367,-5.27985c-0.21699,-0.75385 -0.76794,-2.50393 -0.50851,-3.28188c0.03784,-0.11346 2.90517,-3.25741 2.83694,-3.62187c-0.18512,-0.98888 -0.77779,-1.88707 -0.87563,-2.88836l-0.00108,-1.55195c0,0 0,-1.25 1.25,-1.25z" fill="#2f2f2f"/><path d="M249.98289,162.03505c-0.18306,-0.19448 -0.31518,-0.48279 -0.29382,-0.90997c0.06242,-1.24844 1.31086,-1.18602 1.31086,-1.18602c1.9348,0.09705 4.74528,-0.30658 6.62144,0.1622c2.39688,0.59889 4.61944,3.69873 5.78678,5.73451c0.60296,1.05154 0.41744,3.02565 1.38637,3.81676c1.74079,1.42132 2.79517,2.08873 2.51799,4.65997c-0.08087,0.75012 0.20709,1.85958 -0.45752,2.21668c-3.26997,1.75702 -6.23541,-3.26945 -8.05137,-5.0828c-2.83639,-2.83866 -6.3478,-4.09936 -8.76515,-7.54206l-0.22596,-1.21683c0,0 0,-0.33107 0.17039,-0.65245z" fill="#2f2f2f"/><path d="M244.77694,198.19901c0.15108,-0.30992 0.39314,-0.4982 0.39314,-0.4982c2.22805,-1.72958 4.63484,-5.22573 7.29018,-6.08765c6.00242,-1.94838 4.65647,7.55301 3.803,10.17177c-0.15855,0.48648 0.03753,1.08478 -0.23695,1.51658c-1.73118,2.72344 -6.13897,1.96134 -8.69061,1.48157c-1.34577,-1.44726 -1.85595,-2.68239 -2.66115,-4.45333l-0.27264,-0.67802c0,0 -0.36953,-0.92384 0.37503,-1.45273z" fill="#2f2f2f"/><path d="M214.56366,183.45202c1.63622,-1.31674 2.4695,-3.54146 4.38966,-4.60603c2.39247,-1.32643 3.86323,0.15821 6.02138,0.74995c1.5876,0.4353 2.84731,-0.82116 4.54295,0.10933c2.19549,1.20479 1.71346,3.48698 2.66776,5.43303c1.14855,2.3422 2.39541,4.39617 3.22805,6.9301c0.04656,0.61218 0.38792,3.4268 -0.09807,3.99025c-1.87801,2.17728 -7.67526,-0.57949 -9.00601,-2.37537c-1.08339,-1.46208 -0.67442,-4.46873 -1.93087,-5.62776c-0.0214,-0.01975 -2.70425,3.00025 -3.03039,3.19315c-3.28511,1.94301 -8.17117,1.53938 -9.26804,-2.22739c-0.13845,-1.88695 0.25866,-2.82757 0.94684,-4.54803l0.16756,-0.34477c0,0 0.4564,-0.9128 1.36919,-0.67647z" fill="#4e4e4e"/><path d="M231.3364,161.05333c0.35068,-0.36583 0.87242,-0.36583 0.87242,-0.36583c2.11148,0.02844 4.04915,-1.49354 6.15575,-1.24363c2.5704,0.30493 6.02797,2.60633 7.72824,4.51465c0.69596,0.78112 2.13013,2.00652 2.09417,3.19172c-0.14495,4.77614 -6.71482,1.55304 -8.43071,0.54472c-1.41142,-0.57171 -2.68395,-1.51993 -4.05865,-2.08765c-1.8639,-0.76974 -3.37549,-0.10278 -5.14584,-1.41981l-0.19118,-2.2184c0,0 0.22911,-0.84687 0.97581,-0.91576z" fill="#4e4e4e"/><path d="M255.29504,178.81258c0.02793,-0.06784 0.04977,-0.10714 0.04977,-0.10714c0.29716,-0.48532 0.44951,-1.0975 0.89149,-1.45597c6.5463,-5.30934 11.8415,13.64896 2.41918,9.44415c-0.58842,-0.26259 -1.01228,-0.80075 -1.47686,-1.24724c-1.18801,-1.14174 -2.1587,-2.47363 -2.95881,-3.90183l-0.1573,-1.48205c0,0 0,-1.23833 1.23254,-1.24992z" fill="#4e4e4e"/><path d="M233.77069,177.886c-0.44753,-1.14906 0.70257,-1.6091 0.70257,-1.6091c1.75141,-0.70054 3.27668,-1.38354 4.90696,-2.26178c0.72652,-0.39138 1.4137,-1.14599 2.23494,-1.06493c1.02773,0.10144 1.27852,1.68736 2.16638,2.21483c2.34685,1.39424 4.1128,2.74737 4.99302,5.7169c0.38437,1.29671 -0.26848,2.84271 0.00449,4.14339c0.12928,0.61602 0.79298,1.16909 0.63495,1.77837c-0.5492,2.11747 -3.38526,2.02909 -4.22046,4.00069c-1.04964,0.9578 -3.98032,3.77585 -5.61846,2.97284c-2.06402,-1.01177 0.53512,-5.26615 -0.85826,-6.92711c-0.57517,-0.68563 -1.65643,-0.7432 -2.3324,-1.32969c-1.76081,-1.52772 -2.41021,-4.13545 -2.91492,-6.30183z" fill="#1a1a1a"/><path d="M233.37849,201.18054l-0.15523,-0.08244c-3.90927,-1.56446 -8.7293,-2.79465 -12.98835,-2.6615c-5.82434,0.18209 -11.78606,0.29084 -13.61278,-5.24263c-0.55879,-1.69265 0.22076,-4.30589 0.47055,-6.0295c0.76177,-2.4931 1.53416,-5.06498 3.08367,-7.21186c1.08564,-1.50418 3.6812,-2.84596 4.3151,-4.62837c0.42052,-1.18244 -2.77982,-4.23439 -3.04005,-5.82586c-0.71854,-4.39429 2.76749,-11.3166 6.5253,-13.22283c1.74496,-0.30729 1.50111,-2.31786 3.53528,-3.26338c1.38642,-0.64443 4.96296,-0.20291 6.51414,-0.07152c2.13372,0.18073 3.71469,0.84135 5.20625,2.40047c0.26034,0.27213 1.20444,1.75458 1.60705,1.91276c6.15667,2.41881 9.53938,-4.31342 16.15041,-4.53596c1.27965,-0.04307 2.61933,-0.47762 3.84004,-0.09132c3.77624,1.19502 11.34261,6.57186 9.05513,10.97755c0.20338,2.58356 4.23383,3.64261 5.50907,5.90591c1.29498,2.29834 -0.63403,4.58911 0.09388,6.73245c0.34829,1.02555 1.26948,1.95104 1.17362,3.02988c-0.58985,6.63834 -8.39014,8.69583 -9.38991,14.64484c-0.24086,1.64362 0.42364,3.99676 -0.19046,5.494c-0.64272,1.56705 -2.74816,2.90523 -3.90731,4.06244c-1.23536,1.2333 -2.08057,2.83551 -3.64869,3.70803c-2.89774,1.61234 -9.53454,1.90793 -12.56379,0.70095c-3.20488,-1.27695 -5.12915,-4.38998 -7.5455,-6.68521c-0.02422,-0.01032 -0.0374,-0.01691 -0.0374,-0.01691zM220.14009,195.9384c4.45263,-0.19721 9.56118,1.09634 13.69881,2.71479c0.01101,-0.01478 0.02197,-0.02961 0.0329,-0.04445c0.28697,0.1081 0.54451,0.21992 0.76307,0.33794c2.30952,2.08776 4.26031,5.41037 7.2293,6.60468c2.314,0.93083 8.19373,0.69363 10.43621,-0.54906c1.29711,-0.71881 2.07294,-2.26198 3.10131,-3.29197c0.84306,-0.84437 2.84181,-2.06218 3.34268,-3.18756c0.45693,-1.02665 -0.12175,-3.7086 0.05955,-5.006c1.15985,-6.04587 8.42606,-8.1677 9.36008,-14.35516c0.11163,-0.73951 -0.96603,-1.82674 -1.07637,-2.22012c-0.534,-1.90382 1.15959,-4.54068 0.09387,-6.26755c-1.31806,-2.13575 -4.77695,-2.82172 -5.56353,-5.26643c-0.23833,-0.74074 -0.11827,-1.55177 -0.17739,-2.32765c1.74916,-3.03686 -4.60068,-7.08774 -7.19487,-8.02245c-0.99221,-0.3575 -2.10581,0.12623 -3.15996,0.15868c-6.91984,0.21301 -10.60144,6.9237 -17.05015,4.40505c-1.71469,-0.6697 -2.13724,-2.44521 -3.54888,-3.39854c-1.44228,-0.97402 -6.54019,-1.54488 -8.12368,-0.85975c-1.77776,0.76919 -1.39221,2.47258 -3.46472,3.23662c-2.96761,1.45275 -6.17568,8.55481 -4.58777,11.78915c1.08484,2.20966 3.23887,2.68025 2.57301,5.66216c-0.47949,2.14732 -3.48501,3.70021 -4.6849,5.37163c-1.34009,1.86671 -1.9964,4.12829 -2.66633,6.28814c-0.14462,1.02866 -0.37417,2.04611 -0.47408,3.08007c-0.17985,1.86131 0.29436,2.45981 1.74258,3.51325c0,0 8.08096,1.69028 9.33926,1.63455z" fill="#000000"/></g></g></svg>