<svg viewBox="0,0,45.23165,43.762" height="43.762" width="45.23165" xmlns:xlink="http://www.w3.org/1999/xlink" xmlns="http://www.w3.org/2000/svg" version="1.1"><g transform="translate(-275.11679,-155.3946)"><g style="mix-blend-mode: normal" stroke-dashoffset="0" stroke-dasharray="" stroke-miterlimit="10" stroke-linejoin="miter" stroke-linecap="butt" stroke-width="0.5" stroke="none" fill-rule="nonzero" data-paper-data="{&quot;isPaintingLayer&quot;:true}"><path fill="#5f5f5f" data-paper-data="{&quot;noHover&quot;:false,&quot;origItem&quot;:[&quot;Path&quot;,{&quot;applyMatrix&quot;:true,&quot;segments&quot;:[[[459.58333,370],[0,-1.5],[0,0.39402]],[[459.32721,370.89874],[0.15262,-0.2142],[5.59382,5.61509]],[[455.65674,390.54775],[5.19406,-5.23498],[-0.67521,0.68053]],[[451.37565,394.38571],[1.74535,-1.16188],[12.95506,-1.13043]],[[491.29295,395.83844],[-12.94349,-0.04807],[5.87254,-0.97876]],[[508.80232,394.02656],[-5.89811,1.17673],[0.25442,-0.05076]],[[513.27798,392.45502],[0.23057,0.43206],[-1.42949,-2.6787]],[[500.61554,385.76815],[2.82655,1.28518],[-4.39667,-3.88941]],[[505.9997,365.95153],[-5.724,2.3708],[4.09016,-1.69409]],[[519.6068,364.76907],[-3.84035,2.1842],[-0.03837,-2.04795]],[[519.86418,357.90736],[0.49507,1.93503],[-0.37037,-1.44763]],[[512.01536,357.16513],[0.99334,0.04474],[-7.16687,-0.32279]],[[490.46347,356.99927],[7.17971,0.002],[-14.52922,0.88282]],[[446.75,357.83333],[14.62215,0],[-3.3189,0]],[[440.99485,363.29049],[-4.68916,-4.88522],[2.69787,2.81068]],[[456.58333,368.5],[-3.74241,0.01799],[0,0]],[458.08333,368.5]],&quot;closed&quot;:true}]}" d="M287.90998,184.00863l-0.74965,-0.001c-1.87121,0.00899 -6.53999,-1.23158 -7.88892,-2.63692c-2.34458,-2.44261 1.22192,-2.73708 2.88137,-2.73708c7.31107,0 14.65989,0.00515 21.9245,-0.43626c3.58986,0.001 7.21127,-0.0603 10.7947,0.10109c0.49667,0.02237 3.74168,-0.34803 3.92687,0.37578c0.24754,0.96751 -0.14529,2.4138 -0.1261,3.43778c-1.92017,1.0921 -4.76001,-0.26029 -6.80509,0.58675c-2.862,1.1854 -4.89126,8.00255 -2.69292,9.94725c1.41327,0.64259 5.61596,2.00521 6.3307,3.34456c0.11528,0.21603 -2.11297,0.76473 -2.24018,0.79011c-2.94905,0.58837 -5.83562,0.43361 -8.77189,0.92299c-6.47174,-0.02403 -13.54889,-1.30778 -20.02642,-0.74256c0.87267,-0.58094 1.80205,-1.58017 2.13966,-1.92043c2.59703,-2.61749 4.62698,-7.05531 1.83007,-9.86285c0.07631,-0.1071 0.12868,-0.25448 0.12868,-0.45149c0,-0.75 -0.65537,-0.71773 -0.65537,-0.71773z"></path><path fill="#333333" d="M310.45468,192.19149c0.40258,0.00011 1.79959,0.37966 2.08363,0.77375c0.32085,0.44517 0.98683,0.36097 0.98188,0.68879c1.08683,0.17652 2.37962,0.44804 2.59925,1.25489c0.32972,1.21129 -1.01479,1.59964 -2.22442,1.77863c-0.0661,0.07744 -0.12367,0.12061 -0.12367,0.12061l-0.57634,0.33676c-1.37787,0.25929 -2.91568,0.38673 -4.50598,0.39553c-2.60514,0.39782 -5.12999,0.61771 -7.96768,0.61771c-1.74467,-0.01199 -3.44672,-0.53505 -5.19052,-0.66885c-3.54593,-0.27206 -7.24645,0.06885 -10.80948,0.06885c0,0 -0.75,0 -0.75,-0.75c0,-0.75 0.75,-0.75 0.75,-0.75c0.2245,0 0.44952,-0.00132 0.67502,-0.00374c0.13026,-0.52959 0.72499,-0.52959 0.72499,-0.52959c5.13927,0.00401 10.03915,-0.99202 15.09844,-1.68309c0.6225,-0.30003 1.25646,-0.58343 1.92482,-0.80965c0.27772,-0.094 0.58357,-0.12467 0.90027,-0.12541c1.16593,-0.5651 2.18996,-1.27267 3.2128,-2.29551l0.5089,-0.43911c0,0 0.56944,-0.48809 1.05754,0.08134c0.26615,0.31051 0.21786,0.59683 0.11891,0.79301c0.38832,0.03803 0.58247,0.42633 0.58247,0.42633l0.0563,0.27673c0.18883,0.14908 0.38747,0.29503 0.59283,0.43708c0.09673,0.0031 0.19029,0.00491 0.28005,0.00494zM296.41846,196.07884c0.02929,0.00406 0.05859,0.00821 0.08787,0.01243c0.00057,-0.00867 0.00129,-0.01728 0.00215,-0.02586c-0.03001,0.00448 -0.06002,0.00896 -0.09002,0.01343z"></path><path fill="#000000" d="M288.61301,184.74149c0,0.19701 -0.05175,0.34227 -0.12806,0.44937c2.79691,2.80755 0.7618,7.20702 -1.83523,9.82451c-0.3376,0.34026 -1.26787,1.33804 -2.14055,1.91898c6.47753,-0.56521 13.48691,0.70233 19.95865,0.72636c2.93627,-0.48938 5.80563,-0.31757 8.75468,-0.90594c0.12721,-0.02538 2.35311,-0.56974 2.23783,-0.78577c-0.71474,-1.33935 -4.91794,-2.70084 -6.33122,-3.34343c-2.19833,-1.9447 -0.16992,-8.72291 2.69208,-9.90831c2.04508,-0.84705 4.88338,0.50087 6.80355,-0.59123c-0.01918,-1.02398 0.37623,-2.46334 0.12869,-3.43086c-0.18518,-0.72382 -3.42774,-0.34875 -3.92441,-0.37112c-3.58344,-0.16139 -7.18609,-0.08193 -10.77595,-0.08293c-7.26461,0.44141 -14.54566,0.41703 -21.85673,0.41703c-1.65945,0 -5.22216,0.28597 -2.87758,2.72858c1.34894,1.40534 5.92303,2.61375 7.79424,2.60476h0.75c0,0 0.75,0 0.75,0.75zM286.4436,185.45859c-2.4862,-0.21668 -6.61285,-1.47671 -8.20301,-3.02901c-3.53032,-3.44627 1.03301,-5.27142 3.95576,-5.27142c7.2945,0 14.56215,0.04778 21.80993,-0.4163c3.9241,-0.00106 7.85521,0.08473 11.7734,0.08297c1.41564,-0.00063 3.61359,-0.29483 4.35958,1.29632c0.50602,1.07931 -0.04469,3.61186 -0.20464,4.73581c-2.35132,1.8969 -4.92827,0.35663 -7.52978,1.2421c-1.08462,0.36917 -2.21422,3.29618 -2.38463,4.34464c-0.17651,1.08596 -1.13949,2.07692 -0.08996,2.91372c1.14908,0.49561 2.25943,1.05939 3.3667,1.63773c0.63522,0.33178 1.22897,0.73776 1.8513,1.09315c2.48959,1.42169 1.93154,3.16261 -0.67122,3.87677c-3.33648,0.91548 -6.53838,0.63268 -9.88547,1.19053c-5.28573,0.01664 -10.53017,-0.17316 -15.78572,-0.58296c-2.82845,-0.22054 -4.73002,0.30528 -7.34803,-1.20062c0.67663,-0.90614 1.79836,-1.3717 2.69732,-2.05785c2.63054,-2.00781 6.49478,-7.19172 2.47707,-9.68668c0,0 -0.09498,-0.05936 -0.18858,-0.1689z"></path><path fill="#c49476" data-paper-data="{&quot;noHover&quot;:false,&quot;origItem&quot;:[&quot;Path&quot;,{&quot;applyMatrix&quot;:true,&quot;segments&quot;:[[[469.05968,326.87572],[1.69273,-0.42906],[-1.68542,0.4272]],[[467.6523,332.67447],[-3.22088,0.33884],[0.57195,-0.06017]],[[469.39523,332.81424],[-0.57476,-0.14679],[1.15581,-1.3582]],[[472.77982,328.64262],[-1.06438,1.43531],[-1.15023,-0.76514]]],&quot;closed&quot;:true}]}" d="M295.25001,164.04985c-0.53219,0.71766 -1.14687,1.46004 -1.72478,2.13914c-0.28738,-0.0734 -0.60916,-0.10338 -0.89513,-0.0733c-1.61044,0.16942 -0.12011,-2.76358 0.7226,-2.97718c0.84636,-0.21453 1.32219,0.52876 1.89731,0.91133z"></path><path fill="#c46d36" data-paper-data="{&quot;noHover&quot;:false,&quot;origItem&quot;:[&quot;Path&quot;,{&quot;applyMatrix&quot;:true,&quot;segments&quot;:[[[488.78051,349.91242],[-0.88609,-0.54199],[3.8384,1.99214]],[[500.28357,356.34655],[-3.62317,-2.33504],[4.59534,2.96158]],[[513.27272,366.67344],[-5.04403,-2.25046],[0,0]],[[513.36663,366.72384],[-0.05716,-0.03382],[2.04615,0.00323]],[[516.9258,361.79483],[1.02387,1.94487],[-2.0032,-3.80513]],[[506.82516,352.37873],[3.20197,2.70909],[-5.25782,-4.46669]],[[489.71319,339.63133],[5.68963,4.07865],[-1.79278,2.50312]],[[484.49884,346.34397],[2.09615,-2.02911],[1.54366,1.14618]]],&quot;closed&quot;:true}]}" d="M301.0336,172.89648c1.04808,-1.01456 1.72218,-2.11947 2.61857,-3.37103c2.84482,2.03932 5.9917,4.15944 8.62061,6.39279c1.60099,1.35455 4.04645,2.8363 5.04805,4.73887c0.51193,0.97243 -0.76507,2.47766 -1.78814,2.47604c-0.02858,-0.01691 -0.04701,-0.02514 -0.04701,-0.02514c-2.52202,-1.12523 -4.24421,-3.67645 -6.54188,-5.15724c-1.81159,-1.16752 -3.85178,-2.26982 -5.77098,-3.2659c-0.44305,-0.27099 -1.36738,-1.2153 -2.13921,-1.78839z"></path><path fill="#cccccc" data-paper-data="{&quot;noHover&quot;:false,&quot;origItem&quot;:[&quot;Path&quot;,{&quot;applyMatrix&quot;:true,&quot;segments&quot;:[[[487.99199,337.82681],[-2.13332,3.04101],[0,0]],[[488.00729,337.80225],[0,0],[0.05275,-0.39983]],[488.31041,337.1065],[[488.7211,336.62592],[0,0],[3.87817,-3.96729]],[[499.69773,323.65988],[-3.2483,4.49826],[0.40279,-0.65854]],[[501.05995,321.78704],[-0.21527,0.74133],[0.30181,-1.03939]],[[498.57068,319.70225],[0.85065,0.66919],[-2.67609,-2.10521]],[[488.31736,313.7475],[3.24409,1.03169],[-0.39273,-0.1249]],[[486.48899,315.72609],[0.11609,-0.13722],[-1.67756,1.98278]],[[481.53457,321.7492],[1.5209,-2.10609],[-1.6074,1.90242]],[[475.9086,328.44506],[2.09668,-1.40707],[-1.66997,2.50433]],[[470.28264,335.55576],[1.93809,-2.29071],[0,0]],[[469.82393,335.90001],[0.28329,-0.13692],[-2.00661,2.97038]],[[462.1823,343.38122],[2.96955,-2.09103],[-2.16346,1.52341]],[[458.38246,349.12425],[-1.02232,-3.16549],[0.64369,1.99312]],[[466.00813,355.16959],[-1.66777,-1.40542],[0.88565,0.63957]],[[469.03823,357.55495],[-1.01515,-0.36435],[1.46666,0.5264]],[[473.04073,355.20811],[-1.02252,0.74765],[2.60407,-1.90403]],[[481.62679,345.61592],[-3.3937,1.18641],[2.89414,-2.32242]]],&quot;closed&quot;:true}]}" d="M299.64321,172.58942c-1.69685,0.59321 -3.01186,3.84305 -4.3139,4.79506c-0.51126,0.37383 -1.27272,1.43476 -2.00605,1.17156c-0.50758,-0.18218 -1.0778,-0.87603 -1.52062,-1.19582c-0.83389,-0.70271 -3.50229,-2.03747 -3.82413,-3.03403c-0.51116,-1.58274 0.81535,-2.11483 1.89708,-2.87653c1.48478,-1.04551 2.81366,-2.26992 3.81697,-3.75511c0.14165,-0.06846 0.22928,-0.17351 0.22928,-0.17351c0.96904,-1.14535 1.99996,-2.3411 2.83494,-3.59327c1.04834,-0.70353 2.03452,-2.40084 2.83822,-3.35205c0.76045,-1.05304 1.64602,-2.0182 2.4848,-3.00959c0.05804,-0.06861 0.71954,-1.05108 0.9159,-0.98863c1.62205,0.51585 3.80472,1.93682 5.14276,2.98942c0.42532,0.3346 1.39851,0.52688 1.2476,1.04658c-0.10763,0.37067 -0.47894,0.60847 -0.68033,0.93774c-1.62415,2.24913 -3.54438,4.52582 -5.48346,6.50947l-0.20578,0.24266c0,0 -0.12604,0.15124 -0.15241,0.35116l-0.00769,0.0124c-1.06666,1.5205 -1.7661,2.76128 -3.21317,3.92249z"></path><path fill="#888888" d="M300.19668,170.84851c0.41422,0 0.75,0.33578 0.75,0.75c0,0.32843 -0.21111,0.60755 -0.50503,0.70908l0.05566,0.20408l-0.06038,0.10063l0.00199,0.0359l-0.03923,0.02616l-0.10126,0.16876l-0.00917,0.00918l-0.04081,0.08161l-0.03985,0.04649l-0.00208,0.03736l-0.11288,0.09675l-0.09675,0.11288l-0.00539,0.0003l-0.0264,0.04399l-0.10517,0.10517l-0.11087,0.14783l-0.0419,0.03404l-0.02777,0.04629l-0.14286,0.14285l-0.04628,0.02777l-0.03405,0.0419l-0.14783,0.11088l-0.10516,0.10516l-0.04629,0.02777l-0.03404,0.0419l-0.19048,0.14286l-0.01964,0.00827l-0.01434,0.01576l-0.01805,0.01203l-0.10727,0.16091l-0.05527,0.05025l-0.03843,0.06405l-0.09524,0.09524l-0.07917,0.0475l-0.06529,0.06529l-0.2381,0.14285l-0.02813,0.00856l-0.02233,0.01914l-0.14871,0.07436l-0.10401,0.06933l-0.09434,0.03369l-0.08451,0.05378l-0.04632,0.01544l-0.04147,0.04147l-0.10338,0.06203l-0.09154,0.07846l-0.12999,0.06499l-0.31748,0.23811l-0.46704,0.37364l-0.03039,0.01393c0.01636,0.05452 0.02616,0.10875 0.02616,0.16232c0,0.7905 -0.34554,0.69734 -0.69472,0.67392l-0.0503,0.07544l-0.05527,0.05025l-0.03843,0.06405l-0.08621,0.08621l-0.05014,0.0788l-0.00318,0.05726l-0.07317,0.06271l-0.05174,0.08131l-0.02518,0.00503l-0.07336,0.06288l-0.02395,0.0449l-0.04317,0.12087l-0.19048,0.28572l-0.05527,0.05025l-0.03843,0.06405l-0.02995,0.02995l-0.08054,0.13423l-0.03473,0.06947l-0.04436,0.05176l-0.02645,0.06283l-0.14286,0.19048l-0.03095,0.02515l-0.00576,0.02884l-0.13713,0.08727l-0.12615,0.1025l-0.02918,-0.00365l-0.03365,0.02141l-0.14286,0.04762l-0.14753,0.01135l-0.04772,0.03181l-0.09408,-0.0209l-0.09608,0.00739l-0.04274,-0.03824l-0.14444,-0.0321l-0.04756,-0.02378l-0.09229,-0.03077l-0.04555,-0.02898l-0.00819,-0.00182l-0.00321,0.00087l-0.0042,-0.00252l-0.0371,-0.00825l-0.09524,-0.04762l-0.09153,-0.07846l-0.0285,-0.01709l-0.01982,-0.00661l-0.14539,-0.09252l-0.14777,-0.08866l-0.01477,-0.01478l-0.01818,-0.01156l-0.00165,-0.00826l-0.00813,-0.00812l-0.22392,-0.14929l-0.05025,-0.05527l-0.06405,-0.03843l-0.09035,-0.09034l-0.07282,-0.04855l-0.01148,-0.00064l-0.12626,-0.14731l-0.13051,-0.14356l0.00027,-0.00405l-0.07936,-0.03968l-0.01146,0.00079l-0.14356,-0.13051l-0.14731,-0.12626l-0.00064,-0.01148l-0.12039,-0.18059l-0.13121,-0.10497l-0.3167,-0.22621l-0.04065,-0.04772l-0.05375,-0.03225l-0.07184,-0.07183l-0.22805,-0.13032l-0.07662,-0.03831l-0.03599,-0.03084l-0.04463,-0.01594l-0.10401,-0.06933l-0.10104,-0.05052l-0.04586,-0.01529l-0.00813,0.00221l-0.01847,-0.01108l-0.01982,-0.00661l-0.14539,-0.09252l-0.1324,-0.07944l-0.05554,-0.01851l-0.04555,-0.02899l-0.05269,-0.01171l-0.47619,-0.2381l-0.02233,-0.01914l-0.02813,-0.00856l-0.2381,-0.14285l-0.06529,-0.06529l-0.07917,-0.0475l-0.00917,-0.00918l-0.17686,-0.08843l-0.09154,-0.07846l-0.10338,-0.06203l-0.19048,-0.19048l-0.02777,-0.04629l-0.0419,-0.03404l-0.14285,-0.19047l-0.00728,-0.0173l-0.21067,-0.23173l-0.02877,-0.01645l-0.00525,-0.02098l-0.01455,-0.016l0.00229,-0.03306l-0.07624,-0.30496v-0.57143l0.02924,-0.11696l0.00924,-0.12021l0.04762,-0.14285l0.02898,-0.04555l0.01171,-0.05269l0.02379,-0.04757l0.01874,-0.05624l0.00277,-0.01108l0.00925,-0.12021l0.0356,-0.10681l0.00941,-0.03767l-0.01509,-0.05533l0.04958,-0.08264l0.02337,-0.09349l0.0498,-0.02846l0.07612,-0.12688l0.09524,-0.09524l0.10339,-0.06203l0.09153,-0.07846l0.05147,-0.02573l0.00418,-0.00732l0.0209,-0.00522l0.01869,-0.00934l0.0371,-0.00824l0.0042,-0.00252l0.00321,0.00088l0.10595,-0.02355c0.28423,-0.24459 0.70829,-0.37335 1.20863,-0.4274c1.63938,-0.17709 4.09775,0.44797 5.14033,0.42928c0.90754,-0.01628 1.84752,-0.76823 2.74168,-0.96152c1.03047,-0.22276 1.73631,-0.31425 2.17648,-0.30994c0.09155,-0.03981 0.19259,-0.06187 0.29879,-0.06187z"></path><path fill="#915129" d="M303.25232,174.42295c0.17556,-0.46816 0.64373,-0.2926 0.64373,-0.2926l0.39109,0.14678c0.12656,0.05155 0.2498,0.11031 0.37059,0.17414l0.0021,-0.01262l0.56332,0.09389c0.15321,0.02276 0.28375,0.11502 0.35852,0.2437c0.13735,-0.02606 0.28313,-0.03762 0.43608,-0.0363c2.1178,0.01819 5.61004,2.5041 7.13043,3.13121c0.17561,0.07243 0.44559,0.14413 0.74822,0.2225l0.10443,-0.09344l0.3854,0.02965l0.14286,0.04762l0.04554,0.02898l0.0527,0.01171l0.0216,0.0108l0.11061,0.02765l0.07288,0.03887l0.08063,0.01792l0.1428,0.0714l0.04587,0.01529l0.00813,-0.00222l0.01847,0.01108l0.01983,0.00661l0.14539,0.09252l0.13241,0.07944l0.00912,0.00304l0.00813,-0.00222l0.01847,0.01108l0.01983,0.00661l0.14539,0.09252l0.14777,0.08866l0.01478,0.01478l0.01817,0.01156l0.00165,0.00826l0.06064,0.06064l0.0536,0.08934l0.03719,0.00826l0.19048,0.09524l0.09154,0.07846l0.10338,0.06203l0.09524,0.09524l0.03843,0.06406l0.05527,0.05025l0.06256,0.09384l0.09448,0.08099l0.05624,0.01125l0.05174,0.0813l0.07317,0.06272l0.00318,0.05726l0.07944,0.12483l0.04762,0.14286l0.00925,0.12021l0.02843,0.11374l0.07018,0.06015l0.00138,0.0248l0.02385,0.00852l0.14286,0.09524l0.21145,0.23259l0.02877,0.01644l0.00524,0.02098l0.01455,0.016l-0.00228,0.03306l0.07624,0.30496v0.33333l-0.02924,0.11696l-0.00925,0.12021l-0.03214,0.09643l0.00222,0.00813l-0.01108,0.01847l-0.00661,0.01983l-0.09252,0.14539l-0.08866,0.14777l-0.01478,0.01478l-0.01156,0.01817l-0.00826,0.00165l-0.15587,0.15587l-0.10338,0.06203l-0.04386,0.0376l-0.09085,0.09085l-0.10338,0.06203l-0.09154,0.07846l-0.06948,0.03474l-0.09973,0.05984l-0.1279,0.14921l-0.02957,0.00164l-0.01469,0.02571l-0.375,0.09375l-0.27271,0.52381c-0.03504,0.02104 -0.21586,-0.00897 -0.25679,0.00467c-0.05664,0.01888 -0.23211,-0.51685 -0.43614,-0.59237c-0.10361,-0.02194 -0.19931,-0.06526 -0.28229,-0.12514c-0.01771,-0.01278 -0.03484,-0.02631 -0.05134,-0.04055l-0.01077,-0.00269l-0.16823,-0.03738l-0.01869,-0.00935l-0.0209,-0.00522l-0.00418,-0.00731l-0.14671,-0.07335l-0.09154,-0.07846l-0.10338,-0.06203l-0.09524,-0.09524l-0.07613,-0.12688l-0.04979,-0.02845l-0.01441,-0.05763l-0.01136,-0.01032l-0.4153,-0.20765l-0.05176,-0.04437l-0.06283,-0.02645l-0.13637,-0.10228l-0.32046,-0.16023l-0.04759,-0.0408l-0.05812,-0.02347l-0.52381,-0.38095l-0.01623,-0.01939l-0.02277,-0.01099l-0.28131,-0.23443c-0.06803,-0.05588 -0.12605,-0.1235 -0.17096,-0.19976c-1.47671,-0.9729 -2.92453,-2.10372 -4.21207,-3.08295c-0.26167,-0.19901 -2.03751,-1.02411 -2.05647,-1.36549c-0.01324,-0.0204 -0.02552,-0.04149 -0.03677,-0.06319c-0.17893,-0.0802 -0.32959,-0.15799 -0.43058,-0.22828c-0.09921,-0.03474 -0.19751,-0.07189 -0.29475,-0.11122l-0.04202,-0.05983l-0.01617,0.02079l-0.4245,-0.33017c-0.0626,-0.04774 -0.11361,-0.10992 -0.14803,-0.18157c-0.07541,-0.00066 -0.14829,-0.01306 -0.21095,-0.03775l-0.37082,-0.13893c0,0 -0.46816,-0.17556 -0.2926,-0.64373z"></path><path fill="#000000" d="M300.09408,173.74388c0,0 -0.1723,0.12877 -0.38905,0.13166c-0.57201,0.51909 -1.38008,1.90629 -1.61521,2.2556c-0.98096,1.45735 -3.18582,4.07216 -5.14982,3.5464c-0.62296,-0.16676 -1.34703,-1.00817 -1.86987,-1.38574c-1.04732,-0.88991 -3.63845,-2.12125 -4.14719,-3.4266c-1.22222,-3.13603 2.26557,-4.0931 4.02741,-5.76304c0.50261,-0.47639 0.96681,-1.27665 1.52235,-1.81813c-1.80265,-0.27679 -2.20175,-2.39425 -1.2088,-3.618c1.81867,-2.24139 2.34865,-1.47946 4.55131,-0.54319c0.01393,0.00592 0.02747,0.00991 0.04066,0.01214c0.01705,-0.02647 0.03402,-0.05298 0.05088,-0.07954c-0.02221,-0.16786 -0.01798,-0.54631 0.43494,-0.67684c0.06155,-0.01774 0.11852,-0.02719 0.1712,-0.0299c0.69221,-0.83813 1.4076,-1.65864 2.11021,-2.48788c0.82859,-1.14739 2.9058,-4.54779 4.48471,-4.46472c0.61218,0.03221 1.71259,0.88929 2.22611,1.18696c1.22968,0.71282 5.28476,2.20201 5.24295,4.07677c-0.00413,0.18549 -0.72622,1.32989 -0.88639,1.59105c-1.57544,2.18154 -3.41936,4.35902 -5.29538,6.31263c2.87139,2.06196 5.96316,4.18293 8.63056,6.43153c1.70858,1.44557 4.35042,3.02242 5.35408,5.0939c1.00808,2.08059 -1.43366,4.68437 -3.49451,4.15052c0,0 -0.22855,-0.06463 -0.36087,-0.25568c-2.36345,-1.25611 -3.99788,-3.61069 -6.23851,-5.04726c-1.7906,-1.14803 -3.78222,-2.18803 -5.67695,-3.17138c-0.31977,-0.19583 -2.04108,-1.79461 -2.47407,-2.05189c-0.01353,0.01021 -0.02712,0.02043 -0.04077,0.03063zM302.81734,168.6549l0.00765,-0.01228c0.02638,-0.19992 0.15156,-0.34788 0.15156,-0.34788l0.20534,-0.24029c1.93909,-1.98364 3.86417,-4.23389 5.48832,-6.48302c0.20139,-0.32927 0.57348,-0.56575 0.68111,-0.93642c0.1509,-0.5197 -0.81931,-0.7078 -1.24464,-1.04239c-1.33804,-1.0526 -3.50461,-2.46153 -5.12666,-2.97737c-0.19636,-0.06245 -0.85614,0.92068 -0.91419,0.98929c-0.83878,0.99139 -1.71676,1.95851 -2.47721,3.01155c-0.8037,0.95121 -1.76465,2.6444 -2.81298,3.34793c-0.83498,1.25216 -1.84393,2.41 -2.81298,3.55535c0,0 -0.08771,0.10367 -0.22935,0.17212c-1.00331,1.48519 -2.33604,2.69509 -3.82082,3.7406c-1.08173,0.76171 -2.41108,1.28877 -1.89992,2.87152c0.32184,0.99656 2.97895,2.31996 3.81284,3.02267c0.44282,0.31978 1.00747,1.0105 1.51505,1.19268c0.73333,0.2632 1.48999,-0.7996 2.00125,-1.17342c1.30203,-0.95201 2.59618,-4.20289 4.29303,-4.79609c1.44707,-1.16121 2.11594,-2.37405 3.1826,-3.89455zM303.2116,174.6977c1.9192,0.99607 3.93994,2.04954 5.75153,3.21706c2.29767,1.48079 3.97256,4.03822 6.49458,5.16345c0,0 0.01837,0.00829 0.04695,0.0252c1.02308,0.00161 2.29152,-1.49207 1.77958,-2.46451c-1.0016,-1.90257 -3.44933,-3.3535 -5.05032,-4.70805c-2.62891,-2.23334 -5.71117,-4.33438 -8.55598,-6.3737c-0.89639,1.25156 -1.5591,2.34177 -2.60718,3.35632c0.77183,0.57309 1.69779,1.51323 2.14084,1.78422zM293.35118,163.17935c-0.84271,0.2136 -2.31413,3.06879 -0.70369,2.89937c0.28598,-0.03009 0.58408,-0.00351 0.87147,0.06988c0.5779,-0.6791 1.1601,-1.36815 1.69229,-2.08581c-0.57512,-0.38257 -1.0137,-1.09798 -1.86007,-0.88345z"></path><path fill="#ffffff" d="M305.16767,161.59158c-0.4,0.3 -0.7,-0.1 -0.7,-0.1l-0.12998,-0.23489c-0.69511,-0.41775 -1.10964,-0.56744 -1.92457,-0.56511c0,0 -0.5,0 -0.5,-0.5c0,-0.5 0.5,-0.5 0.5,-0.5c0.98459,0.00248 1.5981,0.2038 2.43907,0.70762l0.41548,0.49238c0,0 0.3,0.4 -0.1,0.7z"></path><path fill="#00ceff" d="M282.7077,172.78694c0,0.75 -0.75,0.75 -0.75,0.75h-0.81818c-0.414,0 -0.82501,0.01444 -1.23394,0.03667c0.23464,0.18923 0.47333,0.37375 0.71872,0.55015l0.591,0.58739c0,0 0.53033,0.53033 0,1.06066c-0.53033,0.53033 -1.06066,0 -1.06066,0l-0.49991,-0.50352c-0.26252,-0.18611 -0.51633,-0.38305 -0.76522,-0.58589v0.55908c0,0 0,0.75 -0.75,0.75c-0.75,0 -0.75,-0.75 -0.75,-0.75v-0.81818c0,-0.00682 0,-0.01365 0,-0.02047c-0.25773,0.25913 -0.52743,0.53601 -0.82199,0.83367c-0.07283,0.21536 -0.25334,0.48225 -0.70074,0.48225c-0.75,0 -0.75,-0.75 -0.75,-0.75l0.21967,-0.62124c0.18848,-0.18764 0.36899,-0.36876 0.54385,-0.54378c-0.19159,-0.02382 -0.67262,-0.14343 -0.67262,-0.74408c0,-0.68592 0.62731,-0.74452 0.73451,-0.74953c-0.03624,-0.02326 -0.07267,-0.04626 -0.10928,-0.06901c0,0 -0.636,-0.3975 -0.2385,-1.0335c0.3975,-0.636 1.0335,-0.2385 1.0335,-0.2385c0.23481,0.14751 0.46251,0.30436 0.68517,0.46788c-0.02398,-0.2353 -0.05505,-0.4713 -0.09519,-0.70858c0,0 -0.1233,-0.7398 0.6165,-0.86309c0.7398,-0.1233 0.86309,0.6165 0.86309,0.6165c0.04462,0.27139 0.07902,0.5409 0.10551,0.80942c0.58855,-0.37291 1.25362,-0.70937 2.06728,-1.0225c0,0 0.70001,-0.26923 0.96924,0.43077c0.26923,0.70001 -0.43077,0.96924 -0.43077,0.96924c-0.32189,0.12373 -0.6159,0.2497 -0.88793,0.3793c0.20614,-0.00709 0.41239,-0.01113 0.61869,-0.01113h0.81818c0,0 0.75,0 0.75,0.75z"></path><path fill="#00ceff" d="M287.84839,167.15148c0.26515,0.50498 -0.23983,0.77013 -0.23983,0.77013l-0.55089,0.28925c-0.27875,0.14636 -0.55038,0.30139 -0.81786,0.46093c0.22489,0.04446 0.45083,0.08431 0.67842,0.11633l0.60559,0.18656c0,0 0.54456,0.16959 0.37497,0.71415c-0.16959,0.54456 -0.71415,0.37497 -0.71415,0.37497l-0.5146,-0.16229c-0.24255,-0.0325 -0.48307,-0.07537 -0.72236,-0.12396l0.19765,0.37643c0,0 0.26515,0.50498 -0.23983,0.77013c-0.50498,0.26515 -0.77013,-0.23983 -0.77013,-0.23983l-0.28925,-0.55089c-0.00241,-0.0046 -0.00482,-0.00919 -0.00723,-0.01378c-0.08192,0.26559 -0.16563,0.54736 -0.25873,0.85192c0.0271,0.17075 -0.00008,0.41427 -0.30132,0.57244c-0.50498,0.26515 -0.77013,-0.23983 -0.77013,-0.23983l-0.07172,-0.49595c0.06057,-0.19297 0.11808,-0.37874 0.17394,-0.5584c-0.13742,0.05169 -0.50359,0.14121 -0.71593,-0.26321c-0.24249,-0.46183 0.15916,-0.72306 0.22957,-0.76433c-0.03262,-0.00285 -0.06528,-0.00546 -0.09798,-0.00783c0,0 -0.56875,-0.0428 -0.52596,-0.61155c0.0428,-0.56875 0.61155,-0.52595 0.61155,-0.52595c0.21025,0.01631 0.41901,0.04141 0.62674,0.0728c-0.09934,-0.14995 -0.20368,-0.29787 -0.3146,-0.44344c0,0 -0.34456,-0.45452 0.10996,-0.79908c0.45452,-0.34456 0.79908,0.10996 0.79908,0.10996c0.12599,0.16695 0.24443,0.33626 0.35719,0.50769c0.26444,-0.45915 0.59329,-0.92082 1.03044,-1.4193c0,0 0.37614,-0.42875 0.80489,-0.05261c0.42875,0.37614 0.05261,0.80489 0.05261,0.80489c-0.17299,0.19711 -0.32641,0.38586 -0.46375,0.5693c0.13629,-0.07765 0.27373,-0.15329 0.41263,-0.22622l0.55089,-0.28925c0,0 0.50498,-0.26515 0.77013,0.23983z"></path><path fill="#00ceff" d="M281.66736,165.99786c-0.3961,0.0535 -0.4496,-0.34261 -0.4496,-0.34261l-0.05836,-0.43211c-0.02953,-0.21865 -0.06647,-0.43469 -0.10739,-0.64908c-0.08321,0.13743 -0.16363,0.27664 -0.23929,0.41883l-0.26807,0.35403c0,0 -0.24226,0.31792 -0.56018,0.07566c-0.31792,-0.24226 -0.07566,-0.56018 -0.07566,-0.56018l0.23027,-0.29993c0.07957,-0.15192 0.16547,-0.30002 0.25485,-0.44593l-0.29527,0.03988c0,0 -0.3961,0.0535 -0.4496,-0.34261c-0.0535,-0.3961 0.34261,-0.4496 0.34261,-0.4496l0.43211,-0.05836c0.0036,-0.00049 0.00721,-0.00097 0.01081,-0.00146c-0.15524,-0.11763 -0.3207,-0.24032 -0.49892,-0.37466c-0.11893,-0.0231 -0.27277,-0.0994 -0.30468,-0.33569c-0.0535,-0.3961 0.34261,-0.4496 0.34261,-0.4496l0.34377,0.0717c0.11254,0.08616 0.22107,0.16858 0.32598,0.24844c-0.00109,-0.10289 0.02778,-0.36547 0.345,-0.40831c0.36226,-0.04893 0.43795,0.2782 0.44825,0.33446c0.0097,-0.0208 0.01925,-0.04168 0.02865,-0.06264c0,0 0.16457,-0.36425 0.52882,-0.19968c0.36425,0.16457 0.19968,0.52882 0.19968,0.52882c-0.06116,0.13454 -0.12775,0.26598 -0.19823,0.39524c0.12256,-0.02945 0.24499,-0.06269 0.36744,-0.10082c0,0 0.38192,-0.11789 0.49981,0.26403c0.11789,0.38192 -0.26403,0.49981 -0.26403,0.49981c-0.14015,0.04293 -0.28004,0.08031 -0.41996,0.11345c0.23893,0.28424 0.46407,0.61149 0.68748,1.01888c0,0 0.19213,0.35049 -0.15837,0.54262c-0.3505,0.19213 -0.54262,-0.15837 -0.54262,-0.15837c-0.08831,-0.16118 -0.17581,-0.30747 -0.26366,-0.44189c0.01845,0.10836 0.0353,0.21701 0.05001,0.32596l0.05836,0.43211c0,0 0.0535,0.3961 -0.34261,0.4496z"></path></g></g></svg>