<svg viewBox="0,0,40.1787,42.28062" height="42.28062" width="40.1787" xmlns:xlink="http://www.w3.org/1999/xlink" xmlns="http://www.w3.org/2000/svg" version="1.1"><g transform="translate(-338.47981,-156.4673)"><g style="mix-blend-mode: normal" stroke-dashoffset="0" stroke-dasharray="" stroke-miterlimit="10" stroke-linejoin="miter" stroke-linecap="butt" fill-rule="nonzero" data-paper-data="{&quot;isPaintingLayer&quot;:true}"><g stroke-width="0.5" stroke="none"><path fill="#000000" d="M357.21792,180.89034c-2.20531,0 -4.41745,0.07177 -6.62426,0.08362c0.33903,1.01653 0.98819,2.11447 2.05996,3.36693c1.15681,2.01608 2.31695,4.30243 3.05137,6.66778c0.60761,-1.92924 1.41239,-3.84353 1.83549,-5.02178c0.65042,-1.73453 1.03433,-3.41592 1.21798,-5.07588c-0.51744,-0.01302 -1.03128,-0.02069 -1.54052,-0.02069zM357.21792,179.41384c0.54604,0 1.09743,0.00892 1.65286,0.02384c0.13009,-3.04129 -0.35341,-6.04177 -1.03571,-9.20001c-0.96817,0.12092 -1.87772,0.24485 -2.66539,0.31259c-0.50375,0.06698 -1.08662,0.06743 -1.70949,0.04127c-1.36465,3.77424 -3.32302,6.15594 -3.15626,8.91348c2.30399,-0.0079 4.61437,-0.09117 6.91401,-0.09117zM371.93706,179.50755l0.36944,-0.00067c-1.8259,-2.83083 -2.86648,-6.72773 -5.65082,-8.53539c-1.88481,-1.22366 -4.7091,-1.17397 -7.3474,-0.90401c0.68488,3.20949 1.15294,6.30239 1.02576,9.42108c3.87115,0.15986 7.88074,0.48428 11.60303,0.01899zM358.92554,186.49842c-0.87511,2.38049 -1.57324,4.2416 -1.80134,6.8035c-0.04872,0.5472 -0.45855,1.05444 -0.67292,1.52382c0.00242,0.03631 0.00469,0.07262 0.00679,0.10892c0.02157,0.09695 0.02159,0.167 0.02159,0.167l-0.01271,0.00476c0.00823,0.18319 0.01255,0.36618 0.01271,0.54892l-0.08663,-0.03248c0.01534,0.0304 0.03337,0.0606 0.05429,0.09061c0.72257,-1.25872 1.84172,-3.42588 2.44324,-3.86273c4.12708,-2.99722 9.2505,-6.26117 12.65868,-10.81405c-3.64954,0.38971 -7.55245,0.0747 -11.32063,-0.07666c-0.18812,1.8205 -0.59766,3.65729 -1.30309,5.53836zM351.44669,185.19143c-1.34534,-1.56693 -2.08625,-2.93836 -2.40817,-4.22076c-2.43464,-0.02607 -4.85931,-0.16309 -7.25763,-0.58864c4.69764,4.7327 8.61544,10.39662 13.18513,15.34894c-0.06072,-0.38332 -0.06526,-0.81624 -0.02631,-1.28298c-0.33595,-3.24081 -1.94995,-6.54063 -3.49302,-9.25656zM351.92137,170.49893c-1.68151,-0.10988 -3.42081,-0.18698 -4.57593,0.42388c-1.65288,0.87411 -4.72732,5.01507 -6.29232,7.81261c2.56654,0.55114 5.17123,0.72757 7.78885,0.76296c-0.05078,-2.82036 1.72265,-5.39136 3.0794,-8.99946zM339.00936,180.96853c-0.82319,-0.46601 -0.44091,-1.46506 -0.44091,-1.46506c1.14886,-2.88691 5.53845,-9.30315 8.03885,-10.60857c2.27844,-1.18954 5.92261,-0.21608 8.39554,-0.55024c3.25876,-0.2812 7.1612,-0.92785 10.40609,-0.26713c4.33636,0.88297 7.22903,7.23882 8.88032,11.57289c-0.88419,2.73332 -2.28635,3.23949 -4.0359,5.00442c-3.53526,3.56633 -6.48008,6.2583 -10.40247,9.08367c-2.35485,1.69625 -1.35926,4.60186 -4.56466,5.00941c-5.84513,-4.86503 -9.87353,-12.06056 -15.38658,-17.36198l-0.58182,-0.19314c0,0 -0.15415,-0.06761 -0.30845,-0.22428z"></path><path fill="#0087ff" data-paper-data="{&quot;noHover&quot;:false,&quot;origItem&quot;:[&quot;Path&quot;,{&quot;applyMatrix&quot;:true,&quot;segments&quot;:[[[728.42112,606.00227],[-3.11498,0],[0.73964,0]],[[730.66,606.03456],[-0.75236,-0.02021],[0.17621,-4.11959]],[[729.25707,593.57265],[0.92422,4.27801],[-1.31144,0.16379]],[[725.64666,593.99607],[1.06693,-0.09176],[-0.68236,0.09073]],[[723.33106,594.05197],[0.84371,0.03543],[-1.84849,5.11241]],[[719.05574,606.12576],[-0.22589,-3.73525],[3.12088,-0.0107]]],&quot;closed&quot;:true}]}" d="M350.25376,179.55918c-0.16676,-2.75755 1.82287,-5.26479 3.18752,-9.03903c0.62287,0.02616 1.2344,0.02391 1.73816,-0.04307c0.78766,-0.06775 1.72977,-0.17899 2.69795,-0.29991c0.6823,3.15825 1.17396,6.2731 1.04387,9.31439c-0.55543,-0.01492 -1.12036,-0.0138 -1.66639,-0.0138c-2.29964,0 -4.69709,0.07352 -7.00109,0.08142z"></path><path fill="#0087ff" data-paper-data="{&quot;noHover&quot;:false,&quot;origItem&quot;:[&quot;Path&quot;,{&quot;applyMatrix&quot;:true,&quot;segments&quot;:[[[748.35898,606.1292],[-5.04204,0.63026],[0,0]],[[748.8594,606.12829],[0,0],[-2.47329,-3.83451]],[[741.20507,594.56666],[3.77153,2.44856],[-2.55308,-1.65751]],[[731.25262,593.34214],[3.57372,-0.36568],[0.92771,4.34742]],[[732.64206,606.10348],[0.17229,-4.22441],[5.24368,0.21654]]],&quot;closed&quot;:true}]}" d="M360.27782,179.53641c0.1272,-3.11868 -0.34421,-6.30307 -1.0291,-9.51256c2.6383,-0.26996 5.538,-0.34813 7.42282,0.87553c2.78434,1.80766 3.86898,5.81978 5.69488,8.65061l-0.37068,0.00234c-3.72229,0.46529 -7.84677,0.14393 -11.71793,-0.01593z"></path><path fill="#0087ff" data-paper-data="{&quot;noHover&quot;:false,&quot;origItem&quot;:[&quot;Path&quot;,{&quot;applyMatrix&quot;:true,&quot;segments&quot;:[[[721.24666,593.92656],[-1.83778,4.88737],[-2.27769,-0.14884]],[[715.04833,594.50073],[1.56466,-0.82744],[-2.23892,1.18402]],[[706.52505,605.08333],[2.11987,-3.78943],[3.47652,0.74654]],[[717.07546,606.1168],[-3.54571,-0.04794],[-0.06878,-3.82032]]],&quot;closed&quot;:true}]}" d="M348.87598,179.56393c-2.61762,-0.03539 -5.31694,-0.23524 -7.88348,-0.78638c1.56499,-2.79755 4.71542,-7.05284 6.3683,-7.92695c1.15511,-0.61086 2.93613,-0.5084 4.61763,-0.39851c-1.35675,3.6081 -3.15323,6.29149 -3.10245,9.11183z"></path><path fill="#003aff" data-paper-data="{&quot;noHover&quot;:false,&quot;origItem&quot;:[&quot;Path&quot;,{&quot;applyMatrix&quot;:true,&quot;segments&quot;:[[[730.73419,615.59871],[0.95554,-2.54801],[-1.18538,3.2245]],[[728.29418,624.81441],[0.30897,-3.47023],[-0.06599,0.74121]],[[727.38268,626.8785],[0.29037,-0.63579],[0.00327,0.04919]],[[727.39188,627.02605],[-0.00286,-0.04918],[0.02923,0.13132]],[727.42112,627.25227],[[727.40389,627.25873],[0,0],[0.01115,0.24813]],[[727.42112,628.00227],[-0.00024,-0.24753],[0,0]],[[727.30378,627.95827],[0,0],[0.02078,0.04117]],[[727.37732,628.08101],[-0.02834,-0.04066],[0.97876,-1.70501]],[[730.68682,622.84875],[-0.8148,0.59173],[5.59034,-4.0599]],[[747.83367,608.20055],[-4.61656,6.16713],[-4.94349,0.52788]],[[732.49929,608.09671],[5.1042,0.20502],[-0.25481,2.46597]]],&quot;closed&quot;:true}]}" d="M360.19522,180.89422c3.76818,0.15136 7.75766,0.48099 11.4072,0.09128c-3.40818,4.55289 -8.52406,7.82606 -12.65114,10.82328c-0.60152,0.43685 -1.72867,2.5943 -2.45124,3.85303c-0.02092,-0.03001 -0.14488,0.04264 -0.16022,0.01224l0.08703,0.03291c-0.00018,-0.18274 -0.00649,-0.36787 -0.01472,-0.55106l0.01274,-0.00474c0,0 -0.00068,-0.07082 -0.02225,-0.16777c-0.00211,-0.03631 -0.0048,-0.0731 -0.00722,-0.10941c0.21437,-0.46937 0.62033,-0.98152 0.66905,-1.52872c0.22809,-2.56189 0.91663,-4.49161 1.79174,-6.8721c0.70543,-1.88108 1.15093,-3.75843 1.33905,-5.57892z"></path><path fill="#003aff" data-paper-data="{&quot;noHover&quot;:false,&quot;origItem&quot;:[&quot;Path&quot;,{&quot;applyMatrix&quot;:true,&quot;segments&quot;:[[[728.42112,608.00227],[0.6898,0],[-2.98721,0]],[[719.4482,608.11554],[2.98925,-0.01605],[0.45923,1.37695]],[[722.23853,612.67622],[-1.45176,-1.69652],[1.56696,2.73089]],[[726.37177,621.70809],[-0.99481,-3.204],[0.82304,-2.61326]],[[728.85804,614.90583],[-0.5731,1.59599],[0.88103,-2.34951]],[[730.50785,608.03029],[-0.24875,2.24851],[-0.70089,-0.01763]]],&quot;closed&quot;:true}]}" d="M358.80493,180.85367c-0.18364,1.65996 -0.54022,3.39968 -1.19064,5.1342c-0.42309,1.17825 -1.28699,3.16392 -1.8946,5.09316c-0.73442,-2.36535 -1.96704,-4.77001 -3.12385,-6.78609c-1.07177,-1.25246 -1.70999,-2.36151 -2.04901,-3.37804c2.20681,-0.01184 4.49892,-0.09251 6.70424,-0.09251c0.50924,0 1.03644,0.01627 1.55387,0.02928z"></path><path fill="#1900ff" data-paper-data="{&quot;noHover&quot;:false,&quot;origItem&quot;:[&quot;Path&quot;,{&quot;applyMatrix&quot;:true,&quot;segments&quot;:[[[720.6037,613.82832],[2.09018,3.67887],[-1.82233,-2.12248]],[[717.34171,608.11108],[0.43605,1.73707],[-3.29784,-0.03532]],[[707.51086,607.31373],[3.24866,0.57644],[6.36321,6.41069]],[[725.37082,628.10468],[-6.18989,-6.70818],[-0.08224,-0.51923]],[[725.33518,626.36682],[-0.05276,0.63223],[-0.45507,-4.38984]]],&quot;closed&quot;:true}]}" d="M354.99261,194.49949c-0.03895,0.46675 -0.03919,0.90416 0.02152,1.28748c-4.56969,-4.95232 -8.5837,-10.72823 -13.28134,-15.46093c2.39832,0.42556 4.878,0.54507 7.31264,0.57114c0.32192,1.28239 1.10994,2.67699 2.45528,4.24392c1.54307,2.71593 3.15595,6.11759 3.49191,9.3584z"></path></g><text style="mix-blend-mode: normal" text-anchor="start" font-weight="normal" font-family="Handwriting" stroke-dashoffset="0" stroke-dasharray="" stroke-miterlimit="10" stroke-linejoin="miter" stroke-linecap="butt" stroke-width="1" stroke="#ff0000" fill-rule="nonzero" fill="#ff0000" xml:space="preserve" font-size="40" transform="translate(363.72183,174.59068) scale(0.48329,0.48329)"><tspan dy="0" x="0">%</tspan></text></g></g></svg>