<svg version="1.1" xmlns="http://www.w3.org/2000/svg" xmlns:xlink="http://www.w3.org/1999/xlink" width="40.16017" height="42.70942" viewBox="0,0,40.16017,42.70942"><g transform="translate(-219.53123,-159.20908)"><g data-paper-data="{&quot;isPaintingLayer&quot;:true}" fill-rule="nonzero" stroke-linejoin="miter" stroke-miterlimit="10" stroke-dasharray="" stroke-dashoffset="0" style="mix-blend-mode: normal"><g stroke="none" stroke-width="0.5" stroke-linecap="butt"><path d="M252.83604,196.94368l-0.05447,-0.0856l-0.10884,-0.02155l-0.03171,-0.02712l-0.55747,-0.71621l-0.01974,-0.01543l-0.01087,-0.02256l-0.95526,-1.14495l-0.3521,-0.43959l-0.41731,-0.59986l-0.12822,-0.31979l-0.01062,-0.01471l-0.00291,-0.0179l-0.24383,-0.56774l-0.06025,-0.23929l-0.0858,-0.42471l-0.0937,-0.55447l-0.0628,-0.14398l-0.02159,-0.15542l-0.14387,-0.3581l-0.07113,-0.35092l-0.08302,-0.17464l-0.04242,-0.18846l-0.15917,-0.31722l-0.26389,-0.69869l-0.108,-0.15633l-0.07006,-0.17647l-0.44878,-0.62715l-0.2601,-0.43166l-0.06977,-0.06986l-0.0414,-0.08954l-0.33324,-0.41585l-0.43196,-0.68686l-0.54649,-0.90085l-0.46398,-0.90346l-0.06005,-0.06849l-0.03168,-0.08426l-0.19531,-0.28222l-0.04773,-0.042l-0.02722,-0.05624l-0.38624,-0.45856l-0.06409,-0.04568l-0.04054,-0.06504l-0.20947,-0.2014l-0.02469,-0.05177l0.00184,-0.00953l-0.01729,-0.02315l-0.03831,-0.08178l-0.18617,-0.22704l-0.17568,-0.24418l-0.07107,-0.05958l-0.01919,-0.02352l-0.00949,-0.00054l-0.30193,-0.25231l-0.70116,-0.71842l-0.0566,-0.03482l-0.03923,-0.05418l-0.57327,-0.48457l-0.04917,-0.02424l-0.03561,-0.04203l-1.34309,-0.96819l-0.10638,-0.04252l-0.08705,-0.0749l-0.38416,-0.19393l-0.72562,-0.16475l-0.32873,0.21811l-0.39586,0.02019l-0.48197,0.56131l-0.05358,0.10733l-0.01407,0.00796l-0.00991,0.04005l-0.01786,0.03579l-0.07083,0.32233l-0.07944,0.32018l0.00014,0.04005l-0.00887,0.04027l0.00906,0.01346l0.00441,1.87062l-0.022,0.06553l-0.01768,0.22984l-0.05638,0.22361l-0.00048,0.90794l-0.06875,0.33821l0.00661,0.14275l-0.03525,0.13875l-0.00282,1.06581l-0.0401,0.15755l-0.07944,0.23495l-0.00453,0.05624l-0.02684,0.04985l-0.08385,0.32965l-0.24096,0.71358l-0.05059,0.10034l-0.04753,0.21022l-0.08673,0.19768l-0.09805,0.57592l0.00923,0.1201l-0.02965,0.11703l-0.00023,0.0726l-0.03527,0.20741l-0.11325,0.06754l-0.19699,-0.13186l-0.08648,-0.03117l-0.06982,-0.06001l-0.337,-0.16959l-0.43576,-0.26289l-0.12748,-0.03921l-0.1098,-0.07609l-0.70148,-0.26538l-0.08903,-0.04483l-0.56275,-0.32353l-0.22017,-0.16594l-0.00412,-0.01236l-0.03343,-0.01595l-0.05637,-0.0425l-0.29574,-0.12545l-0.28998,-0.13829l-0.06901,-0.01396l-0.03409,-0.01446l-0.01189,0.00514l-0.12115,-0.02451l-0.26718,-0.16121l-0.05437,-0.01668l-0.04319,-0.03719l-1.07305,-0.53973l-0.00809,-0.0142l-0.04037,-0.01017l-0.03612,-0.01817l-0.06694,-0.01501l0.00132,-6.95695l0.04001,-0.08012l0.03483,-0.15635l0.07527,-0.14139l0.09701,-0.38716l0.00027,-0.17895l0.04354,-0.17367l0.00352,-2.04535l0.15079,-0.60012l0.00034,-0.17878l0.04361,-0.17351l0.00039,-0.2078l0.05362,-0.21322l0.00034,-0.17873l0.04363,-0.17346l0.00119,-0.63393l0.21637,-0.64629l0.00721,-0.09144l0.03939,-0.08295l0.05899,-0.29243l0.10661,-0.21266l0.04238,-0.18925l0.08327,-0.17528l0.07956,-0.39433l0.0066,-0.01968l0.08558,-0.12814l0.03099,-0.08638l0.05979,-0.06969l0.09691,-0.19324l0.02283,-0.10195l0.05622,-0.08818l0.09708,-0.28974l0.0183,-0.23246l0.00772,-0.03069l0.42493,-0.00073l0.07067,0.01558l0.32338,0.08025l0.04044,-0.00007l0.04068,0.00896l0.01358,-0.00906l0.01641,-0.00002l0.59923,0.14865l0.17871,-0.00031l0.004,0.00099l0.19329,0.06404l0.09146,0.00687l0.08285,0.03907l0.48301,0.09563l0.14449,-0.00712l0.14026,0.03476l0.01452,-0.00002l0.21308,0.05282l0.17879,-0.00032l0.17339,0.04298l1.59664,-0.00272l0.3424,0.06776l0.14462,-0.00709l0.1404,0.03479l4.6228,-0.00432l0.46224,0.07665l0.12122,-0.00965l0.11798,0.02936l0.57446,0.00013l0.57551,0.08209l0.10417,-0.01067l0.10161,0.02535l0.46056,0.00034l0.46223,0.0771l0.12119,-0.00953l0.11798,0.02948l0.248,0.00027l0.35703,0.11891l0.05687,0.00442l0.05035,0.0268l0.38729,0.09694l0.17903,0.00026l0.17372,0.04351l0.33988,0.00052l0.73789,0.14829l0.20448,0.06828l0.23298,0.01829l0.22675,0.05693l0.53752,0.00102l0.14471,0.06862l0.48361,0.09744l0.1445,-0.00658l0.14042,0.03531l0.36709,0.00073l0.04673,0.04002l0.11255,0.05636l0.38551,0.25714l0.25912,0.25887l0.0073,0.00849l0.03104,0.08639l0.53124,0.79504l0.05643,0.11248l0.04698,0.05476l0.05012,0.19885l0.01841,0.23266l0.09723,0.29003l0.05627,0.08828l0.02288,0.10205l-0.07398,0.1019l-0.6868,0.00159l-0.07947,-0.03959l-0.15524,-0.03414l-0.1402,-0.07453l-0.3843,-0.09523l-0.1778,0.00043l-0.17237,-0.04273l-0.39884,0.00099l-0.15803,-0.03918l-0.52338,-0.17353l-0.23126,-0.01725l-0.2249,-0.0558l-0.08822,0.00022l-0.07026,-0.01548l-0.32139,-0.07979l-0.04018,0.00009l-0.04042,-0.00891l-0.01351,0.00904l-0.30429,0.00073l-0.21156,-0.05257l-0.17751,0.00041l-0.1721,-0.0428l-0.33697,0.00075l-0.33953,-0.06746l-0.14339,0.00715l-0.13917,-0.03467l-1.91712,0.0031l-0.17198,0.04342l-0.17721,0.00017l-0.38326,0.09669l-0.65456,0.35155l-0.00782,0.02796l-0.00632,0.00174l-0.18664,0.68839l-0.19183,0.68687l0.00452,0.00475l-0.00686,-0.08783l0.31315,0.51762l0.01288,0.03829l0.08641,0.13459l0.04693,0.15261l0.20948,0.34578l0.01642,0.04872l-0.0043,0.01568l0.02163,0.0357l0.01292,0.0383l0.18069,0.28101l0.17334,0.28571l0.02887,0.0286l0.02263,0.03515l0.01612,0.00322l0.12747,0.12629l0.12119,0.07225l0.01245,0.03677l0.05676,0.08816l0.02314,0.1019l0.19601,0.38659l0.06042,0.0698l0.03145,0.08643l0.19601,0.29054l0.10827,0.09778l0.07558,0.1244l0.19567,0.19444l0.12525,0.07521l0.09852,0.10775l0.17195,0.1148l0.38573,0.38511l0.12494,0.07551l0.09829,0.1081l0.17146,0.11514l0.7731,0.77712l0.12429,0.07551l0.09768,0.10822l0.29033,0.19583l0.08639,0.0314l0.06975,0.06038l0.30561,0.15488l0.09505,0.06408l0.37647,0.37994l0.11351,0.17165l0.18167,0.16673l0.15481,0.19221l0.36758,0.27826l0.40163,0.32408l0.25597,0.25805l0.20315,0.27305l0.36278,0.54859l0.04739,0.04336l0.02663,0.05864l0.37088,0.46695l0.25104,0.33705l0.17012,0.257l0.10661,0.09743l0.07404,0.12428l0.07009,0.07046l0.09905,0.11622l0.11948,0.20051l0.12283,0.12341l0.18348,0.36968l0.05947,0.06972l0.03064,0.08656l0.19234,0.29018l0.10662,0.09727l0.07403,0.12412l0.41165,0.41316l0.18349,0.36928l0.15129,0.17718l0.1195,0.20018l0.02657,0.02665l0.07888,0.15868l-0.00158,0.02223l0.25172,0.27775l0.24351,0.285l0.02218,0.0012l0.27315,0.18227l0.00357,0.00128l0.09244,0.0794l0.04801,0.05617l0.13457,0.27051l0.05949,0.06959l0.03065,0.0864l0.19244,0.28969l0.03042,0.02771l0.01592,0.03801l0.07843,0.1049l-0.00475,0.01421l-0.01828,0.23282l-0.05693,0.22659l-0.00218,1.20343l-0.04008,0.08002l-0.03493,0.15614l-0.0754,0.14119l-0.08362,0.33249l-0.11465,0.34251l-0.08555,0.12821l-0.03099,0.08642l-0.05978,0.06973l-0.13508,0.26952l-0.14965,0.19939l-0.21715,0.21719l-0.12036,0.20021l-0.11996,0.13987l-0.13989,0.11997l-0.20022,0.12035l-0.12344,0.1234l-0.17585,0.08813l-0.1003,0.08598l-0.12167,0.05138l-0.35462,0.26608l-0.18131,0.12096l-0.40691,0.2038l-0.19209,0.06426l-0.08826,0.05619l-0.02975,0.00665l-0.00122,-0.00033l-0.0016,0.00096l-0.06948,0.01553l-0.19342,0.09684l-0.17747,0.15198z" data-paper-data="{&quot;noHover&quot;:false,&quot;origItem&quot;:[&quot;Path&quot;,{&quot;applyMatrix&quot;:true,&quot;segments&quot;:[[417.56331,188.29224],[417.71587,188.16148],[417.88225,188.07828],[417.94206,188.06499],[417.94343,188.06417],[417.94448,188.06446],[417.97008,188.05877],[418.04599,188.01046],[418.21129,187.95536],[418.56138,187.78032],[418.71734,187.67634],[419.02235,187.44758],[419.12707,187.40349],[419.21333,187.32955],[419.36467,187.25388],[419.47082,187.14774],[419.64312,187.04436],[419.76345,186.94122],[419.86659,186.82089],[419.96997,186.64858],[420.15673,186.46182],[420.28538,186.29029],[420.40136,186.05833],[420.45276,185.99836],[420.47933,185.92397],[420.55286,185.81368],[420.65113,185.51887],[420.72268,185.23268],[420.78746,185.11121],[420.81732,184.97683],[420.85174,184.90799],[420.85174,183.872],[420.90048,183.67706],[420.91589,183.47671],[420.91996,183.4645],[420.85216,183.37411],[420.83838,183.34137],[420.8121,183.31748],[420.64572,183.06791],[420.61915,182.99352],[420.56775,182.93355],[420.45128,182.70061],[420.40979,182.65221],[420.32994,182.58377],[420.32686,182.58267],[420.09102,182.42544],[420.07189,182.42438],[419.86145,182.17886],[419.64393,181.93959],[419.64524,181.92047],[419.57696,181.7839],[419.55401,181.76095],[419.45063,181.58864],[419.31986,181.43608],[419.161,181.11836],[418.80528,180.76264],[418.74122,180.65588],[418.6491,180.57213],[418.48271,180.32255],[418.45614,180.24817],[418.40474,180.18819],[418.24588,179.87047],[418.13973,179.76433],[418.03635,179.59202],[417.95073,179.49213],[417.89016,179.43156],[417.8261,179.3248],[417.73398,179.24105],[417.58684,179.02034],[417.36979,178.73095],[417.04922,178.33023],[417.02617,178.27995],[416.98525,178.24274],[416.67172,177.77245],[416.49626,177.53851],[416.27526,177.31751],[415.92861,177.04018],[415.61146,176.80232],[415.478,176.63806],[415.32139,176.4957],[415.22367,176.3491],[414.89956,176.02499],[414.81772,175.97043],[414.55455,175.83885],[414.49458,175.78745],[414.42019,175.76088],[414.17062,175.5945],[414.08687,175.50237],[413.98011,175.43832],[413.3189,174.77711],[413.17231,174.67938],[413.08856,174.58725],[412.9818,174.5232],[412.65336,174.19476],[412.50677,174.09703],[412.42302,174.00491],[412.31626,173.94085],[412.14987,173.77447],[412.08582,173.66771],[411.99369,173.58396],[411.82731,173.33438],[411.80074,173.25999],[411.74934,173.20002],[411.58295,172.86725],[411.56344,172.77942],[411.51513,172.70352],[411.50457,172.67183],[411.40114,172.60977],[411.29243,172.50106],[411.27866,172.4983],[411.25938,172.46801],[411.23476,172.44339],[411.08698,172.1971],[410.93278,171.95479],[410.92177,171.92174],[410.9033,171.89096],[410.90699,171.87741],[410.89298,171.83538],[410.714,171.53708],[410.67392,171.40539],[410.60001,171.28925],[410.589,171.2562],[410.32095,170.80946],[410.32755,170.78527],[410.32361,170.78117],[410.49036,170.18829],[410.65241,169.59412],[410.65789,169.59262],[410.66468,169.56849],[411.23312,169.26532],[411.56589,169.18213],[411.71977,169.18213],[411.86906,169.14481],[413.53291,169.14481],[413.6537,169.175],[413.77806,169.16908],[414.07265,169.228],[414.36484,169.228],[414.51412,169.26532],[414.66801,169.26532],[414.85149,169.31119],[415.1152,169.31119],[415.12689,169.3034],[415.16193,169.31119],[415.19676,169.31119],[415.4754,169.38085],[415.5363,169.39438],[415.61272,169.39438],[415.80766,169.44312],[416.00801,169.45853],[416.46162,169.60973],[416.59853,169.64396],[416.94381,169.64396],[417.09309,169.68128],[417.24697,169.68128],[417.57974,169.76448],[417.70121,169.82926],[417.83559,169.85912],[417.90443,169.89354],[418.49854,169.89354],[418.48793,169.87232],[418.46841,169.78449],[418.42011,169.70859],[418.33692,169.45901],[418.32151,169.25866],[418.27871,169.08748],[418.23835,169.0404],[418.18997,168.94362],[417.73398,168.25964],[417.70741,168.18525],[417.70115,168.17794],[417.47852,167.95532],[417.14711,167.73437],[417.05033,167.68598],[417.01017,167.65157],[416.69423,167.65157],[416.57344,167.62137],[416.44908,167.62729],[416.03312,167.5441],[415.90874,167.48518],[415.44634,167.48518],[415.2514,167.43645],[415.05106,167.42103],[414.87531,167.36245],[414.24106,167.2356],[413.94887,167.2356],[413.79959,167.19828],[413.6457,167.19828],[413.31293,167.11509],[413.26969,167.09202],[413.22082,167.08826],[412.9141,166.98603],[412.70099,166.98603],[412.59963,166.96069],[412.49549,166.96902],[412.09838,166.90283],[411.70268,166.90283],[411.61539,166.88101],[411.5259,166.89027],[411.03149,166.81964],[410.53798,166.81964],[410.43663,166.7943],[410.33248,166.80263],[409.93537,166.73645],[405.96239,166.73645],[405.84161,166.70625],[405.71725,166.71217],[405.42266,166.65326],[404.04896,166.65326],[403.89968,166.61593],[403.74579,166.61593],[403.56231,166.57006],[403.54981,166.57006],[403.42902,166.53987],[403.30466,166.54579],[402.8887,166.4626],[402.81732,166.42878],[402.73856,166.42272],[402.57204,166.36722],[402.5686,166.36636],[402.41471,166.36636],[401.89846,166.23729],[401.88433,166.23729],[401.87264,166.24508],[401.8376,166.23729],[401.80277,166.23729],[401.52413,166.16763],[401.46323,166.1541],[401.09721,166.1541],[401.0906,166.18054],[401.07519,166.38089],[400.992,166.63047],[400.9437,166.70637],[400.92418,166.7942],[400.84099,166.96058],[400.78958,167.02055],[400.76302,167.09494],[400.68949,167.20524],[400.68384,167.22218],[400.61591,167.56183],[400.54444,167.71272],[400.50822,167.8757],[400.41669,168.05875],[400.36633,168.31056],[400.33252,168.38195],[400.32646,168.4607],[400.14103,169.017],[400.14103,169.56288],[400.10371,169.71217],[400.10371,169.86605],[400.05784,170.04953],[400.05784,170.22842],[400.02051,170.37771],[400.02051,170.53159],[399.89145,171.04784],[399.89145,172.80739],[399.85413,172.95668],[399.85413,173.11056],[399.77094,173.44333],[399.70615,173.56479],[399.67629,173.69918],[399.64187,173.76802],[399.64187,179.7462],[399.69962,179.75903],[399.73078,179.77461],[399.76561,179.78331],[399.77257,179.7955],[400.69793,180.25819],[400.73515,180.29008],[400.78204,180.30435],[401.01234,180.44253],[401.11682,180.46343],[401.12709,180.45899],[401.15647,180.47136],[401.21599,180.48326],[401.46594,180.60166],[401.72084,180.70899],[401.76939,180.7454],[401.79821,180.75905],[401.80174,180.76967],[401.99135,180.91187],[402.47601,181.18882],[402.55268,181.22715],[403.15679,181.4537],[403.25124,181.51883],[403.361,181.55224],[403.7358,181.77712],[404.02563,181.92204],[404.08561,181.97344],[404.15999,182.00001],[404.32925,182.11284],[404.34968,182.11795],[404.37962,181.93831],[404.37962,181.87537],[404.40496,181.77402],[404.39663,181.66988],[404.47982,181.17072],[404.55427,180.99948],[404.59478,180.8172],[404.63825,180.73027],[404.84455,180.11136],[404.9161,179.82516],[404.93916,179.78192],[404.94292,179.73305],[405.01094,179.52901],[405.04516,179.3921],[405.04516,178.46448],[405.07536,178.3437],[405.06944,178.21934],[405.12836,177.92474],[405.12836,177.1334],[405.17709,176.93846],[405.1925,176.73812],[405.21155,176.68098],[405.21155,175.05195],[405.20376,175.04027],[405.21155,175.00523],[405.21155,174.9704],[405.28121,174.69175],[405.34351,174.41138],[405.35909,174.38023],[405.3678,174.3454],[405.37999,174.33843],[405.42671,174.24499],[405.84597,173.75585],[406.189,173.7368],[406.47486,173.54622],[407.10376,173.68598],[407.43653,173.85236],[407.51181,173.91689],[407.60406,173.95323],[408.76875,174.78515],[408.7996,174.82136],[408.84244,174.84204],[409.34159,175.25801],[409.37569,175.30467],[409.42524,175.3344],[410.04183,175.95099],[410.31305,176.16796],[410.32163,176.16844],[410.33907,176.18878],[410.40373,176.24051],[410.56631,176.45389],[410.7409,176.65758],[410.77793,176.73164],[410.79417,176.75295],[410.79283,176.76145],[410.81657,176.80891],[411.0059,176.99825],[411.04212,177.05861],[411.0981,177.10126],[411.43087,177.51723],[411.45392,177.56751],[411.49485,177.60472],[411.66124,177.8543],[411.6878,177.92868],[411.73921,177.98866],[412.1337,178.77764],[412.60231,179.55866],[412.97374,180.15294],[413.26111,180.51216],[413.29662,180.58964],[413.35689,180.64991],[413.58078,181.02306],[413.96773,181.56479],[414.02785,181.7174],[414.12098,181.85243],[414.34752,182.45654],[414.48456,182.73063],[414.52078,182.89361],[414.59225,183.0445],[414.65294,183.34793],[414.7767,183.65733],[414.79502,183.79171],[414.8491,183.91607],[414.92898,184.39535],[415.00238,184.76238],[415.05407,184.96912],[415.26419,185.45941],[415.26668,185.47487],[415.27586,185.48757],[415.38632,185.76374],[415.69497,186.19585],[415.99866,186.57545],[416.82258,187.56416],[416.83198,187.58363],[416.84899,187.59697],[417.32995,188.21534],[417.35729,188.23877],[417.45102,188.25752],[417.49804,188.33141]],&quot;closed&quot;:true}]}" fill="#b0b0b0"/><path d="M239.0706,183.50111c0,0.32349 -0.10606,0.62219 -0.28531,0.86325c0.02261,0.05612 0.03064,0.09357 0.02283,0.10918c-0.04976,0.09952 -0.11087,0.18594 -0.18215,0.26007c0.36327,1.46648 0.55791,6.27462 -1.77321,5.38282c-2.99815,-1.14697 -5.78481,-2.24103 -6.01433,-6.15049c-0.03622,-0.61694 -0.43466,-2.15959 0.13582,-2.48558l0.55096,-0.31483c-0.11002,-0.20417 -0.17246,-0.43778 -0.17246,-0.68598c0,-0.53899 0.29447,-1.00921 0.73131,-1.25856c0.24698,-0.19585 0.55937,-0.31282 0.89907,-0.31282c0.56482,0 1.05412,0.32338 1.29287,0.79509c1.98141,0.23483 4.21613,1.31191 4.36338,2.76681c0.26623,0.2626 0.43125,0.62755 0.43125,1.03103z" fill="#7d7d7d"/><path d="M257.71422,190.82997c-0.02165,0.31403 -0.10149,0.56263 -0.22897,0.75502c0.23437,0.16917 0.36587,0.28812 0.36587,0.33669c0,0.71895 -0.38534,1.10361 -1.01153,1.24617c1.49633,1.74904 -0.75526,4.58378 -3.64268,4.58378c-2.10489,0 -4.92456,-5.58064 -4.68599,-7.40455c-0.44108,-0.27865 -0.81452,-0.54425 -1.09148,-0.77845c-0.19322,-0.12634 -0.35441,-0.29758 -0.46874,-0.49892c-0.11965,-0.21072 -0.18797,-0.45439 -0.18797,-0.71401c0,-0.17159 0.02984,-0.33623 0.08464,-0.48898c-0.00077,-0.01934 -0.00115,-0.03877 -0.00115,-0.05829c0,-0.79978 0.64834,-1.44812 1.44812,-1.44812c0.23237,0 0.45197,0.05473 0.64658,0.15201c0.41888,0.0762 0.77492,0.33258 0.98491,0.68592c3.2286,0.17918 7.88111,2.28726 7.78839,3.63174z" fill="#7d7d7d"/><path d="M250.61787,199.3428c0,-0.12536 0.01593,-0.24701 0.04588,-0.36302l-0.00572,-0.02098l0.0202,-0.03365l-0.00015,-0.00025l-0.06261,-0.09839l-0.17444,-0.13672l-0.04317,-0.0555l-0.02805,-0.02404l-0.00072,-0.01294l-0.58774,-0.75566l-0.94816,-1.1378l-0.00648,-0.0134l-0.01184,-0.00902l-0.38551,-0.48189l-0.01683,-0.03672l-0.03075,-0.02621l-0.48189,-0.67465l-0.06398,-0.16239l-0.10219,-0.1415l-0.18619,-0.4655l-0.28217,-0.65842l-0.01868,-0.11576l-0.05518,-0.10346l-0.09637,-0.38551v-0.03531l-0.01512,-0.03192l-0.09637,-0.48189l0.00113,-0.02394l-0.00955,-0.02199l-0.07065,-0.42386l-0.13461,-0.33655l-0.0181,-0.13274l-0.05736,-0.12107l-0.05834,-0.29173l-0.10602,-0.21206l-0.01677,-0.07549l-0.0439,-0.06366l-0.22228,-0.59274l-0.37122,-0.5197l-0.02163,-0.05491l-0.04174,-0.04174l-0.23902,-0.39837l-0.32467,-0.40583l-0.03564,-0.07776l-0.06158,-0.05937l-0.48188,-0.77102l-0.00419,-0.01289l-0.00957,-0.00957l-0.57828,-0.96379l-0.01653,-0.05432l-0.03695,-0.04311l-0.44158,-0.88314l-0.10789,-0.16183l-0.29615,-0.37018l-0.3288,-0.32881l-0.11976,-0.19961l-0.1515,-0.17674l-0.05051,-0.10103l-0.23353,-0.18682l-0.04942,-0.06486l-0.06993,-0.04195l-0.72458,-0.72458l-0.04316,-0.03597l-0.01495,0.1945l-0.02207,0.06619v0.82516l-0.03499,0.13993l0.00686,0.14407l-0.06826,0.34128v1.10953l-0.04323,0.17295v0.17827l-0.09638,0.38551l-0.02671,0.05011l-0.00436,0.05662l-0.07879,0.23638l-0.08289,0.33156l-0.02671,0.05011l-0.00436,0.05661l-0.28913,0.8674l-0.05596,0.08793l-0.01993,0.08972l-0.04255,0.25528v0.07291l-0.02936,0.11742l0.00965,0.12064l-0.09638,0.57827l-0.00955,0.02199l0.00113,0.02394l-0.09637,0.48189l-0.06826,0.14409v0.4412l0.00903,0.01353l-0.00903,0.0406v0.04035l-0.0807,0.3228l-0.07218,0.32482l-0.01805,0.03608l-0.01009,0.04035l-0.01412,0.00807l-0.05412,0.10825l-0.48571,0.56667l-0.3974,0.02209l-0.33116,0.22078l-0.72857,-0.1619l-0.1007,-0.05035l-0.391,-0.13033l-0.01569,0.00428l-0.03567,-0.0214l-0.03828,-0.01275l-0.28071,-0.17864l-0.28533,-0.17119l-0.02853,-0.02853l-0.03509,-0.02233l-0.00318,-0.01595l-0.00295,-0.00296l-0.12489,-0.03122l-0.14072,-0.07505l-0.15568,-0.03459l-0.19277,-0.09637l-0.06948,-0.05955l-0.08618,-0.03078l-0.21412,-0.14275l-0.30487,-0.15243l-0.04311,-0.03696l-0.05433,-0.01653l-0.36879,-0.22128l-0.64753,-0.24282l-0.06366,-0.04391l-0.07549,-0.01677l-0.19276,-0.09638l-0.03125,-0.02677l-0.03961,-0.01114l-0.67465,-0.38551l-0.06607,-0.06331l-0.08434,-0.03551l-0.12273,-0.09206l-0.15979,-0.03196l-0.22397,-0.10609l-0.23709,-0.07216l-0.4342,-0.26052l-0.92053,-0.46026l-0.18934,-0.01456l-0.28914,-0.09637l-0.16318,-0.10385l-0.18215,-0.06505l-0.21413,-0.14275l-0.11212,-0.05606l-0.56667,-0.48571l-0.00317,-0.05709l-0.04965,-0.02837l-0.18102,-0.72406v-0.19466l-0.00903,-0.01353l0.00903,-0.0406v-0.04035l0.0807,-0.3228l0.01568,-0.07055v-7.41518l-0.00903,-0.01353l0.00903,-0.0406v-0.04036l0.0807,-0.3228l0.07218,-0.32482l0.01805,-0.03609l0.01009,-0.04035l0.01412,-0.00807l0.07942,-0.15882l0.01458,-0.05835v-2.03843l0.04324,-0.17295v-0.17827l0.14952,-0.59807v-0.20725l0.04323,-0.17295v-0.17827l0.05314,-0.21256v-0.68913l0.05646,-0.22584l0.01785,-0.2321l0.26063,-0.78187l0.07869,-0.39348l0.08279,-0.1748l0.04197,-0.18882l0.10603,-0.21206l0.05834,-0.29173l0.03917,-0.08269l0.00702,-0.09125l0.09638,-0.28914l0.10385,-0.16318l0.06504,-0.18215l0.1423,-0.21345v-0.04343l0.03499,-0.13992l-0.00686,-0.14407l0.09638,-0.48189l0.08279,-0.1748l0.04196,-0.18882l0.19277,-0.38551l0.07695,-0.08978l0.00401,-0.07213l0.21795,-0.18681l0.1868,-0.21795l0.07214,-0.00401l0.08977,-0.07695l0.10825,-0.05412l0.00807,-0.01412l0.04035,-0.01009l0.03609,-0.01805l0.32482,-0.07218l0.3228,-0.0807h0.04035l0.04061,-0.00902l0.01353,0.00902h1.35307l0.01353,-0.00902l0.04061,0.00902h0.04035l0.3228,0.0807l0.07055,0.01568h0.08855l0.17295,0.04323h0.17827l0.59807,0.14952h0.01448l0.22584,0.05645l0.2321,0.01785l0.2036,0.06786l0.25288,0.05058h0.04936l0.17296,0.04324h0.17827l0.21256,0.05314h1.55653l0.13993,0.03499l0.14407,-0.00686l0.34128,0.06826h4.57914l0.11743,0.02936l0.12064,-0.00965l0.46005,0.07667h0.55479l0.10111,0.02528l0.10368,-0.01072l0.57277,0.08182h0.47536l0.11742,0.02936l0.12065,-0.00965l0.46005,0.07666h0.36204l0.22584,0.05645l0.2321,0.01785l0.52551,0.17516l0.15861,0.03966h0.30362l0.13993,0.03499l0.14407,-0.00686l0.96379,0.19276l0.0827,0.03917l0.09124,0.00702l0.06619,0.02206h0.44154l0.01353,-0.00902l0.0406,0.00902h0.04035l0.3228,0.08071l0.32482,0.07218l0.0193,0.00965l0.15112,0.03023h0.62764l0.05652,0.01414l0.04388,-0.02195l0.3072,0.10971l0.31646,0.07912l0.02434,0.0426l0.05486,0.0196l0.21413,0.14275l0.11212,0.05606l0.06948,0.05955l0.08618,0.03078l0.57827,0.38551l0.09703,0.10672l0.12368,0.07422l0.48189,0.48189l0.11976,0.19961l0.1515,0.17674l0.05606,0.11212l0.52826,0.79239l0.03078,0.08618l0.05955,0.06948l0.05606,0.11212l0.14275,0.21412l0.0196,0.05487l0.0426,0.02434l0.07912,0.31645l0.10561,0.29572l0.24679,0.14808l0.02854,0.02853l0.03509,0.02233l0.00319,0.01595l0.3187,0.31871l0.07422,0.12368l0.10672,0.09703l0.19276,0.28914l0.09464,0.26498l0.12045,0.25429l0.05396,0.26982l0.11646,0.17469l0.06351,0.17783l0.235,0.20143l0.03946,0.71032l0.00161,0.00283l-0.00133,0.00232l0.04121,0.74167l-0.75118,0.50079l-0.01276,0.02232l-0.03316,0.0083l-0.41719,0.27812l-0.4743,-0.1054h-0.76508l-0.01353,0.00903l-0.04061,-0.00903h-0.04035l-0.3228,-0.0807l-0.07055,-0.01567h-0.95594l-0.22584,-0.05645l-0.2321,-0.01785l-0.06619,-0.02206h-0.92344l-0.01353,0.00902l-0.0406,-0.00902h-0.04035l-0.3228,-0.08071l-0.32482,-0.07218l-0.03609,-0.01805l-0.04035,-0.01009l-0.00808,-0.01412l-0.15882,-0.07942l-0.05834,-0.01458h-0.4l-0.17295,-0.04324h-0.17827l-0.38551,-0.09637l-0.0501,-0.02671l-0.05662,-0.00436l-0.32843,-0.10948l-0.00009,0.00006l-0.0406,-0.00903h-0.04035l-0.3228,-0.0807l-0.07056,-0.01567h-0.37767l-0.17295,-0.04324h-0.17827l-0.21256,-0.05314h-0.30362l-0.13993,-0.03499l-0.01478,0.0007l0.0503,0.15091l0.10641,0.21283l0.0592,0.08879l0.16381,0.10919l0.09703,0.10673l0.12368,0.07421l0.38049,0.3805l0.16983,0.11322l0.09703,0.10672l0.12368,0.07421l0.76601,0.76601l0.09481,0.06321l0.30487,0.15243l0.06948,0.05954l0.08618,0.03078l0.28914,0.19276l0.09703,0.10672l0.12368,0.07422l0.57828,0.57827l0.07421,0.12368l0.10672,0.09703l0.05516,0.08274l0.18707,0.14031l0.01464,0.01802l0.02112,0.00967l0.48189,0.38551l0.04942,0.06486l0.06993,0.04195l0.38551,0.38551l0.05363,0.08938l0.0809,0.06572l0.28913,0.38551l0.01596,0.03791l0.03045,0.02768l0.35065,0.52598l0.34625,0.43282l0.00968,0.02111l0.01803,0.01465l0.28914,0.38551l0.01596,0.03791l0.03045,0.02768l0.11322,0.16983l0.09136,0.09136l0.11976,0.19961l0.09921,0.11574l0.16654,0.16655l0.11976,0.1996l0.1515,0.17674l0.24881,0.49764l0.06321,0.09481l0.47687,0.47688l0.11976,0.1996l0.1515,0.17674l0.18403,0.36808l0.02659,0.02658l0.11977,0.19961l0.15149,0.17674l0.00902,0.01801l0.01801,0.00902l0.08977,0.07694l0.07214,0.00401l0.18681,0.21794l0.08172,0.07004l0.02061,0.00115l0.05337,0.06226l0.06225,0.05337l0.00115,0.02061l0.07004,0.08172l0.21795,0.18681l0.00401,0.07214l0.07695,0.08977l0.24881,0.49763l0.12045,0.18068l0.26502,0.35335l0.05108,0.12132l0.08566,0.09994l0.05412,0.10825l0.01412,0.00808l0.01009,0.04035l0.01805,0.03609l0.07218,0.32482l0.08071,0.3228v0.04035l0.00903,0.0406l-0.00903,0.01353v0.48379l-0.05646,0.22583l-0.01785,0.2321l-0.02206,0.0662v1.21256l0.00902,0.01354l-0.00902,0.0406v0.04035l-0.0807,0.3228l-0.07219,0.32482l-0.01805,0.03609l-0.01009,0.04035l-0.01412,0.00807l-0.07941,0.15882l-0.05782,0.23129l-0.02672,0.05011l-0.00435,0.05661l-0.19277,0.57828l-0.10384,0.16318l-0.06505,0.18215l-0.14275,0.21412l-0.15243,0.30487l-0.08566,0.09994l-0.05108,0.12132l-0.28913,0.38551l-0.0809,0.06572l-0.05363,0.08938l-0.12297,0.12296l-0.08766,0.17532l-0.07695,0.08977l-0.00401,0.07214l-0.21794,0.18681l-0.18681,0.21794l-0.07214,0.00401l-0.08977,0.07695l-0.17532,0.08766l-0.12297,0.12297l-0.19961,0.11976l-0.17674,0.1515l-0.26873,0.13437l-0.28105,0.21078l-0.03791,0.01597l-0.02768,0.03044l-0.28914,0.19277l-0.08618,0.03078l-0.06948,0.05955l-0.57828,0.28914l-0.10175,0.02261l-0.08793,0.05596l-0.11057,0.03685l-0.19765,0.1186l-0.11574,0.0992l-0.16654,0.16654l-0.16523,0.09914l-0.50026,0.75039l-0.36031,-0.02002c-0.15453,0.13742 -0.33867,0.24225 -0.54168,0.30372l-0.03629,0.02178l-0.02098,-0.00572c-0.11601,0.02994 -0.23766,0.04587 -0.36302,0.04587c-0.79978,0 -1.44812,-0.64834 -1.44812,-1.44812zM252.88006,196.84976l0.17674,-0.1515l0.19276,-0.09637l0.06928,-0.0154l0.00158,-0.00095l0.00122,0.00034l0.02966,-0.0066l0.08793,-0.05595l0.1915,-0.06383l0.40558,-0.20279l0.18068,-0.12045l0.35336,-0.26502l0.12132,-0.05107l0.09994,-0.08566l0.17533,-0.08766l0.12296,-0.12296l0.19961,-0.11977l0.1394,-0.11949l0.11949,-0.1394l0.11976,-0.19961l0.21636,-0.21636l0.14904,-0.19872l0.13437,-0.26872l0.05954,-0.06948l0.03078,-0.08618l0.08518,-0.12777l0.11385,-0.34154l0.08289,-0.33156l0.07505,-0.14073l0.03459,-0.15568l0.03987,-0.07975v-1.2002l0.05646,-0.22584l0.01785,-0.23211l0.00471,-0.01414l-0.07853,-0.10471l-0.01596,-0.03791l-0.03044,-0.02768l-0.19277,-0.28914l-0.03078,-0.08618l-0.05955,-0.06948l-0.13493,-0.26986l-0.04807,-0.05607l-0.09251,-0.07928l-0.00356,-0.00128l-0.27322,-0.18215l-0.02216,-0.00123l-0.24379,-0.28443l-0.252,-0.2772l0.00153,-0.02215l-0.07912,-0.15822l-0.02659,-0.02659l-0.11976,-0.19961l-0.1515,-0.17674l-0.18404,-0.36808l-0.4121,-0.4121l-0.07422,-0.12368l-0.10672,-0.09703l-0.19276,-0.28914l-0.03079,-0.08618l-0.05955,-0.06947l-0.18404,-0.36808l-0.12296,-0.12296l-0.11977,-0.19961l-0.0992,-0.11573l-0.07017,-0.07017l-0.07421,-0.12368l-0.10672,-0.09703l-0.17046,-0.25569l-0.25144,-0.33526l-0.37138,-0.46422l-0.0267,-0.05825l-0.04742,-0.04311l-0.36321,-0.54483l-0.20327,-0.27103l-0.25603,-0.25602l-0.40159,-0.32128l-0.36742,-0.27556l-0.15461,-0.19029l-0.18142,-0.16494l-0.11322,-0.16983l-0.37548,-0.37548l-0.09481,-0.06321l-0.30487,-0.15243l-0.06948,-0.05955l-0.08618,-0.03078l-0.28913,-0.19276l-0.09702,-0.10672l-0.12368,-0.07421l-0.76601,-0.76601l-0.16983,-0.11322l-0.09702,-0.10672l-0.12368,-0.07422l-0.38049,-0.38049l-0.16983,-0.11322l-0.09702,-0.10672l-0.12368,-0.07422l-0.19276,-0.19276l-0.07421,-0.12368l-0.10672,-0.09702l-0.19276,-0.28914l-0.03078,-0.08618l-0.05955,-0.06948l-0.19277,-0.38551l-0.02261,-0.10175l-0.05596,-0.08793l-0.01223,-0.03671l-0.11982,-0.0719l-0.12594,-0.12594l-0.01595,-0.00319l-0.02233,-0.03509l-0.02853,-0.02854l-0.17119,-0.28533l-0.17864,-0.28071l-0.01276,-0.03827l-0.0214,-0.03567l0.00427,-0.0157l-0.01623,-0.04869l-0.20735,-0.34558l-0.04643,-0.15258l-0.08562,-0.13455l-0.01276,-0.03828l-0.31054,-0.51756l0.00765,-0.02801l-0.00455,-0.00475l0.19318,-0.68685l0.18773,-0.68836l0.00635,-0.00174l0.00787,-0.02795l0.65853,-0.35122l0.38551,-0.09638h0.17827l0.17295,-0.04323h1.92757l0.13993,0.03499l0.14407,-0.00686l0.34128,0.06826h0.3385l0.17296,0.04323h0.17827l0.21256,0.05314h0.3055l0.01353,-0.00903l0.04061,0.00903h0.04035l0.3228,0.0807l0.07056,0.01567h0.08855l0.22584,0.05645l0.2321,0.01785l0.52551,0.17516l0.15861,0.03966h0.39999l0.17295,0.04323h0.17827l0.38552,0.09638l0.14072,0.07505l0.15568,0.03459l0.07975,0.03987h0.68827l-0.01229,-0.02458l-0.02261,-0.10175l-0.05596,-0.08793l-0.09637,-0.28914l-0.01785,-0.2321l-0.04958,-0.19832l-0.04676,-0.05455l-0.05606,-0.11212l-0.52826,-0.79239l-0.03079,-0.08618l-0.00725,-0.00847l-0.2579,-0.2579l-0.38395,-0.25596l-0.11212,-0.05606l-0.04653,-0.03987h-0.36602l-0.13993,-0.03499l-0.14407,0.00686l-0.48189,-0.09637l-0.14409,-0.06826h-0.53569l-0.22584,-0.05645l-0.2321,-0.01785l-0.2036,-0.06787l-0.73476,-0.14695h-0.3385l-0.17296,-0.04324h-0.17827l-0.38551,-0.09637l-0.0501,-0.02671l-0.05662,-0.00436l-0.35534,-0.11845h-0.2469l-0.11742,-0.02936l-0.12065,0.00965l-0.46005,-0.07666h-0.45842l-0.10111,-0.02528l-0.10368,0.01072l-0.57277,-0.08182h-0.57173l-0.11742,-0.02936l-0.12065,0.00965l-0.46005,-0.07667h-4.60268l-0.13993,-0.03498l-0.14407,0.00686l-0.34128,-0.06826h-1.59142l-0.17296,-0.04323h-0.17827l-0.21256,-0.05314h-0.01448l-0.13992,-0.03499l-0.14407,0.00686l-0.48188,-0.09637l-0.0827,-0.03916l-0.09125,-0.00702l-0.19292,-0.0643l-0.00399,-0.001h-0.17827l-0.59807,-0.14952h-0.01638l-0.01354,0.00903l-0.0406,-0.00903h-0.04035l-0.3228,-0.0807l-0.07056,-0.01567h-0.42403l-0.00766,0.03063l-0.01785,0.2321l-0.09638,0.28914l-0.05595,0.08793l-0.02261,0.10175l-0.09637,0.19276l-0.05955,0.06948l-0.03078,0.08618l-0.08519,0.12777l-0.00655,0.01962l-0.07869,0.39348l-0.0828,0.1748l-0.04196,0.18882l-0.10602,0.21206l-0.05834,0.29174l-0.03917,0.0827l-0.00702,0.09124l-0.21482,0.64447v0.63242l-0.04323,0.17295v0.17827l-0.05314,0.21256v0.20725l-0.04324,0.17295v0.17827l-0.14951,0.59807v2.03843l-0.04324,0.17296v0.17827l-0.09638,0.38551l-0.07504,0.14073l-0.03459,0.15568l-0.03987,0.07975v6.9257l0.0669,0.01486l0.03609,0.01805l0.04035,0.01009l0.00808,0.01412l1.07203,0.53602l0.04311,0.03695l0.05432,0.01654l0.2668,0.16008l0.12104,0.02421l0.01189,-0.00514l0.03404,0.01433l0.06894,0.01379l0.28956,0.13717l0.2953,0.12434l0.05625,0.04218l0.03338,0.01581l0.0041,0.01229l0.21966,0.16475l0.56146,0.32084l0.08882,0.04442l0.69986,0.26244l0.10942,0.07547l0.12716,0.0387l0.4342,0.26053l0.33577,0.16789l0.06948,0.05955l0.08618,0.03078l0.19609,0.13073l0.02366,0.00592l0.03469,-0.20813v-0.0729l0.02936,-0.11742l-0.00965,-0.12064l0.09638,-0.57827l0.08625,-0.19838l0.04693,-0.21117l0.05035,-0.10071l0.23899,-0.71701l0.08289,-0.33156l0.02672,-0.05011l0.00435,-0.05661l0.07879,-0.23638l0.03965,-0.15861v-1.07465l0.03499,-0.13993l-0.00686,-0.14407l0.06826,-0.34128v-0.91676l0.05645,-0.22584l0.01785,-0.2321l0.02207,-0.06619v-1.88721l-0.00903,-0.01353l0.00903,-0.04061v-0.04035l0.0807,-0.3228l0.07218,-0.32482l0.01805,-0.03609l0.01009,-0.04035l0.01412,-0.00807l0.05412,-0.10825l0.48572,-0.56667l0.3974,-0.02208l0.33117,-0.22077l0.72857,0.1619l0.38551,0.19276l0.08721,0.07476l0.10688,0.0421l1.3493,0.96379l0.03574,0.04195l0.04963,0.02396l0.57827,0.48189l0.0395,0.05406l0.05742,0.03444l0.71431,0.71431l0.31421,0.25136l0.00995,0.00055l0.02019,0.02356l0.07491,0.05993l0.18835,0.24721l0.20225,0.23597l0.04289,0.08581l0.01882,0.02469l-0.00154,0.00985l0.02749,0.05499l0.21935,0.21935l0.04195,0.06993l0.06486,0.04942l0.38551,0.48189l0.0267,0.05824l0.04742,0.04311l0.19276,0.28914l0.03078,0.08618l0.05955,0.06947l0.45702,0.91404l0.54288,0.90481l0.4303,0.68847l0.33292,0.41616l0.04113,0.08976l0.06982,0.06982l0.25937,0.4323l0.44828,0.62759l0.06965,0.1768l0.10788,0.15643l0.26245,0.69986l0.15876,0.31753l0.04196,0.18881l0.0828,0.17481l0.07031,0.35152l0.14337,0.35845l0.02123,0.15567l0.06264,0.14408l0.09254,0.55524l0.08504,0.4252l0.05989,0.23951l0.24343,0.56799l0.00288,0.01791l0.01063,0.01471l0.12798,0.31994l0.35757,0.5006l0.35181,0.43976l0.95451,1.14541l0.01089,0.02256l0.01972,0.01545l0.55718,0.71638l0.03168,0.02715l0.10859,0.02172l0.05447,0.0856z" fill="#000000"/></g><path d="M220.30861,170.82433c0,-1.25 1.25,-1.25 1.25,-1.25h0.12468c2.39885,0 4.70982,-0.24937 7.10696,-0.24937c0,0 1.25,0 1.25,1.25c0,1.25 -1.25,1.25 -1.25,1.25c-2.3942,0 -4.70672,0.24937 -7.10696,0.24937h-0.12468c0,0 -1.25,0 -1.25,-1.25z" fill="#00ff0f" stroke="none" stroke-width="0.5" stroke-linecap="butt"/><path d="M224.04118,160.71387c0.88388,-0.88388 1.76777,0 1.76777,0l0.22749,0.24114c0.54928,0.73548 0.70913,1.70279 1.19877,2.47925c0.62326,0.98834 2.2321,2.1214 3.02986,3.11806c0,0 0.78087,0.97609 -0.19522,1.75695c-0.97609,0.78087 -1.75695,-0.19522 -1.75695,-0.19522c-0.86973,-1.08776 -2.48138,-2.26741 -3.20431,-3.36547c-0.45622,-0.69296 -0.51709,-1.61912 -1.04553,-2.25872l-0.02188,-0.00823c0,0 -0.88388,-0.88388 0,-1.76777z" fill="#00ff0f" stroke="none" stroke-width="0.5" stroke-linecap="butt"/><path d="M234.92097,159.28975c1.18585,0.39528 0.79057,1.58114 0.79057,1.58114l-0.10458,0.30766c-0.49862,1.80944 -1.61734,3.4024 -1.57684,5.28186c0,0 0,1.25 -1.25,1.25c-1.25,0 -1.25,-1.25 -1.25,-1.25c0.03334,-2.22043 1.09935,-3.84074 1.66493,-5.93965l0.14478,-0.44044c0,0 0.39528,-1.18585 1.58114,-0.79057z" fill="#00ff0f" stroke="none" stroke-width="0.5" stroke-linecap="butt"/><path d="M222.67886,181.67432c-1,-0.75 -0.25,-1.75 -0.25,-1.75l0.86422,-1.13135c1.44579,-1.4365 2.66237,-3.03642 4.11455,-4.4886c0,0 0.88388,-0.88388 1.76777,0c0.88388,0.88388 0,1.76777 0,1.76777c-1.45435,1.45435 -2.67199,3.03791 -4.11455,4.4886l-0.63198,0.86358c0,0 -0.75,1 -1.75,0.25z" fill="#00ff0f" stroke="none" stroke-width="0.5" stroke-linecap="butt"/><path d="M246.41321,161.27843c0.69338,1.04006 -0.34669,1.73344 -0.34669,1.73344l-0.60319,0.3699c-2.88402,1.14699 -4.44883,3.24429 -7.06604,4.78178c0,0 -1.07972,0.62984 -1.70956,-0.44988c-0.62984,-1.07972 0.44988,-1.70956 0.44988,-1.70956c2.69688,-1.56047 4.38998,-3.73448 7.39724,-4.94353l0.14491,-0.12883c0,0 1.04006,-0.69338 1.73344,0.34669z" fill="#00ff0f" stroke="none" stroke-width="0.5" stroke-linecap="butt"/><path d="M220.28123,200.94627l0.09136,-2.88889l1.55309,-2l-1.18765,-1.77777l0.13704,-2.72223l3.65432,4.44445l-4.24815,5.05556" fill="#006bff" stroke="#0067ff" stroke-width="1.5" stroke-linecap="round"/><path d="M225.21456,200.94627l0.09136,-2.88889l1.55309,-2l-1.18765,-1.77777l0.13704,-2.72223l3.65432,4.44445l-4.24815,5.05556" fill="#006bff" stroke="#0067ff" stroke-width="1.5" stroke-linecap="round"/><path d="M230.42197,201.05738l0.09136,-2.88889l1.55309,-2l-1.18765,-1.77777l0.13704,-2.72223l3.65432,4.44445l-4.24815,5.05556" fill="#006bff" stroke="#0067ff" stroke-width="1.5" stroke-linecap="round"/></g></g></svg>