<svg version="1.1" xmlns="http://www.w3.org/2000/svg" xmlns:xlink="http://www.w3.org/1999/xlink" width="47.82508" height="44.32257" viewBox="0,0,47.82508,44.32257"><g transform="translate(-216.08746,-157.83871)"><g data-paper-data="{&quot;isPaintingLayer&quot;:true}" fill-rule="nonzero" stroke="none" stroke-width="0.5" stroke-linecap="butt" stroke-linejoin="miter" stroke-miterlimit="10" stroke-dasharray="" stroke-dashoffset="0" style="mix-blend-mode: normal"><path d="M231.47407,187.01331l-0.74965,-0.001c-1.87121,0.00899 -6.53999,-1.23158 -7.88892,-2.63692c-2.34458,-2.44261 1.22192,-2.73708 2.88137,-2.73708c7.31107,0 14.65989,0.00515 21.9245,-0.43626c3.58986,0.001 7.21127,-0.0603 10.7947,0.10109c0.49667,0.02237 3.74168,-0.34803 3.92687,0.37578c0.24754,0.96751 -0.14529,2.4138 -0.1261,3.43778c-1.92017,1.0921 -4.76001,-0.26029 -6.80509,0.58675c-2.862,1.1854 -4.89126,8.00255 -2.69292,9.94725c1.41327,0.64259 5.61596,2.00521 6.3307,3.34456c0.11528,0.21603 -2.11297,0.76473 -2.24018,0.79011c-2.94905,0.58837 -5.83562,0.43361 -8.77189,0.92299c-6.47174,-0.02403 -13.54889,-1.30778 -20.02642,-0.74256c0.87267,-0.58094 1.80205,-1.58017 2.13966,-1.92043c2.59703,-2.61749 4.62698,-7.05531 1.83007,-9.86285c0.07631,-0.1071 0.12868,-0.25448 0.12868,-0.45149c0,-0.75 -0.65537,-0.71773 -0.65537,-0.71773z" data-paper-data="{&quot;noHover&quot;:false,&quot;origItem&quot;:[&quot;Path&quot;,{&quot;applyMatrix&quot;:true,&quot;segments&quot;:[[[459.58333,370],[0,-1.5],[0,0.39402]],[[459.32721,370.89874],[0.15262,-0.2142],[5.59382,5.61509]],[[455.65674,390.54775],[5.19406,-5.23498],[-0.67521,0.68053]],[[451.37565,394.38571],[1.74535,-1.16188],[12.95506,-1.13043]],[[491.29295,395.83844],[-12.94349,-0.04807],[5.87254,-0.97876]],[[508.80232,394.02656],[-5.89811,1.17673],[0.25442,-0.05076]],[[513.27798,392.45502],[0.23057,0.43206],[-1.42949,-2.6787]],[[500.61554,385.76815],[2.82655,1.28518],[-4.39667,-3.88941]],[[505.9997,365.95153],[-5.724,2.3708],[4.09016,-1.69409]],[[519.6068,364.76907],[-3.84035,2.1842],[-0.03837,-2.04795]],[[519.86418,357.90736],[0.49507,1.93503],[-0.37037,-1.44763]],[[512.01536,357.16513],[0.99334,0.04474],[-7.16687,-0.32279]],[[490.46347,356.99927],[7.17971,0.002],[-14.52922,0.88282]],[[446.75,357.83333],[14.62215,0],[-3.3189,0]],[[440.99485,363.29049],[-4.68916,-4.88522],[2.69787,2.81068]],[[456.58333,368.5],[-3.74241,0.01799],[0,0]],[458.08333,368.5]],&quot;closed&quot;:true}]}" fill="#5f5f5f"/><path d="M254.01877,195.19617c0.40258,0.00011 1.79959,0.37966 2.08363,0.77375c0.32085,0.44517 0.98683,0.36097 0.98188,0.68879c1.08683,0.17652 2.37962,0.44804 2.59925,1.25489c0.32972,1.21129 -1.01479,1.59964 -2.22442,1.77863c-0.0661,0.07744 -0.12367,0.12061 -0.12367,0.12061l-0.57634,0.33676c-1.37787,0.25929 -2.91568,0.38673 -4.50598,0.39553c-2.60514,0.39782 -5.12999,0.61771 -7.96768,0.61771c-1.74467,-0.01199 -3.44672,-0.53505 -5.19052,-0.66885c-3.54593,-0.27206 -7.24645,0.06885 -10.80948,0.06885c0,0 -0.75,0 -0.75,-0.75c0,-0.75 0.75,-0.75 0.75,-0.75c0.2245,0 0.44952,-0.00132 0.67502,-0.00374c0.13026,-0.52959 0.72499,-0.52959 0.72499,-0.52959c5.13927,0.00401 10.03915,-0.99202 15.09844,-1.68309c0.6225,-0.30003 1.25646,-0.58343 1.92482,-0.80965c0.27772,-0.094 0.58357,-0.12467 0.90027,-0.12541c1.16593,-0.5651 2.18996,-1.27267 3.2128,-2.29551l0.5089,-0.43911c0,0 0.56944,-0.48809 1.05754,0.08134c0.26615,0.31051 0.21786,0.59683 0.11891,0.79301c0.38832,0.03803 0.58247,0.42633 0.58247,0.42633l0.0563,0.27673c0.18883,0.14908 0.38747,0.29503 0.59283,0.43708c0.09673,0.0031 0.19029,0.00491 0.28005,0.00494zM239.98255,199.08352c0.02929,0.00406 0.05859,0.00821 0.08787,0.01243c0.00057,-0.00867 0.00129,-0.01728 0.00215,-0.02586c-0.03001,0.00448 -0.06002,0.00896 -0.09002,0.01343z" fill="#333333"/><path d="M232.1771,187.74617c0,0.19701 -0.05175,0.34227 -0.12806,0.44937c2.79691,2.80755 0.7618,7.20702 -1.83523,9.82451c-0.3376,0.34026 -1.26787,1.33804 -2.14055,1.91898c6.47753,-0.56521 13.48691,0.70233 19.95865,0.72636c2.93627,-0.48938 5.80563,-0.31757 8.75468,-0.90594c0.12721,-0.02538 2.35311,-0.56974 2.23783,-0.78577c-0.71474,-1.33935 -4.91794,-2.70084 -6.33122,-3.34343c-2.19833,-1.9447 -0.16992,-8.72291 2.69208,-9.90831c2.04508,-0.84705 4.88338,0.50087 6.80355,-0.59123c-0.01918,-1.02398 0.37623,-2.46334 0.12869,-3.43086c-0.18518,-0.72382 -3.42774,-0.34875 -3.92441,-0.37112c-3.58344,-0.16139 -7.18609,-0.08193 -10.77595,-0.08293c-7.26461,0.44141 -14.54566,0.41703 -21.85673,0.41703c-1.65945,0 -5.22216,0.28597 -2.87758,2.72858c1.34894,1.40534 5.92303,2.61375 7.79424,2.60476h0.75c0,0 0.75,0 0.75,0.75zM230.00769,188.46327c-2.4862,-0.21668 -6.61285,-1.47671 -8.20301,-3.02901c-3.53032,-3.44627 1.03301,-5.27142 3.95576,-5.27142c7.2945,0 14.56215,0.04778 21.80993,-0.4163c3.9241,-0.00106 7.85521,0.08473 11.7734,0.08297c1.41564,-0.00063 3.61359,-0.29483 4.35958,1.29632c0.50602,1.07931 -0.04469,3.61186 -0.20464,4.73581c-2.35132,1.8969 -4.92827,0.35663 -7.52978,1.2421c-1.08462,0.36917 -2.21422,3.29618 -2.38463,4.34464c-0.17651,1.08596 -1.13949,2.07692 -0.08996,2.91372c1.14908,0.49561 2.25943,1.05939 3.3667,1.63773c0.63522,0.33178 1.22897,0.73776 1.8513,1.09315c2.48959,1.42169 1.93154,3.16261 -0.67122,3.87677c-3.33648,0.91548 -6.53838,0.63268 -9.88547,1.19053c-5.28573,0.01664 -10.53017,-0.17316 -15.78572,-0.58296c-2.82845,-0.22054 -4.73002,0.30528 -7.34803,-1.20062c0.67663,-0.90614 1.79836,-1.3717 2.69732,-2.05785c2.63054,-2.00781 6.49478,-7.19172 2.47707,-9.68668c0,0 -0.09498,-0.05936 -0.18858,-0.1689z" fill="#000000"/><path d="M238.8141,167.05453c-0.53219,0.71766 -1.14687,1.46004 -1.72478,2.13914c-0.28738,-0.0734 -0.60916,-0.10338 -0.89513,-0.0733c-1.61044,0.16942 -0.12011,-2.76358 0.7226,-2.97718c0.84636,-0.21453 1.32219,0.52876 1.89731,0.91133z" data-paper-data="{&quot;noHover&quot;:false,&quot;origItem&quot;:[&quot;Path&quot;,{&quot;applyMatrix&quot;:true,&quot;segments&quot;:[[[469.05968,326.87572],[1.69273,-0.42906],[-1.68542,0.4272]],[[467.6523,332.67447],[-3.22088,0.33884],[0.57195,-0.06017]],[[469.39523,332.81424],[-0.57476,-0.14679],[1.15581,-1.3582]],[[472.77982,328.64262],[-1.06438,1.43531],[-1.15023,-0.76514]]],&quot;closed&quot;:true}]}" fill="#c49476"/><path d="M244.59769,175.90116c1.04808,-1.01456 1.72218,-2.11947 2.61857,-3.37103c2.84482,2.03932 5.9917,4.15944 8.62061,6.39279c1.60099,1.35455 4.04645,2.8363 5.04805,4.73887c0.51193,0.97243 -0.76507,2.47766 -1.78814,2.47604c-0.02858,-0.01691 -0.04701,-0.02514 -0.04701,-0.02514c-2.52202,-1.12523 -4.24421,-3.67645 -6.54188,-5.15724c-1.81159,-1.16752 -3.85178,-2.26982 -5.77098,-3.2659c-0.44305,-0.27099 -1.36738,-1.2153 -2.13921,-1.78839z" data-paper-data="{&quot;noHover&quot;:false,&quot;origItem&quot;:[&quot;Path&quot;,{&quot;applyMatrix&quot;:true,&quot;segments&quot;:[[[488.78051,349.91242],[-0.88609,-0.54199],[3.8384,1.99214]],[[500.28357,356.34655],[-3.62317,-2.33504],[4.59534,2.96158]],[[513.27272,366.67344],[-5.04403,-2.25046],[0,0]],[[513.36663,366.72384],[-0.05716,-0.03382],[2.04615,0.00323]],[[516.9258,361.79483],[1.02387,1.94487],[-2.0032,-3.80513]],[[506.82516,352.37873],[3.20197,2.70909],[-5.25782,-4.46669]],[[489.71319,339.63133],[5.68963,4.07865],[-1.79278,2.50312]],[[484.49884,346.34397],[2.09615,-2.02911],[1.54366,1.14618]]],&quot;closed&quot;:true}]}" fill="#c46d36"/><path d="M243.2073,175.5941c-1.69685,0.59321 -3.01186,3.84305 -4.3139,4.79506c-0.51126,0.37383 -1.27272,1.43476 -2.00605,1.17156c-0.50758,-0.18218 -1.0778,-0.87603 -1.52062,-1.19582c-0.83389,-0.70271 -3.50229,-2.03747 -3.82413,-3.03403c-0.51116,-1.58274 0.81535,-2.11483 1.89708,-2.87653c1.48478,-1.04551 2.81366,-2.26992 3.81697,-3.75511c0.14165,-0.06846 0.22928,-0.17351 0.22928,-0.17351c0.96904,-1.14535 1.99996,-2.3411 2.83494,-3.59327c1.04834,-0.70353 2.03452,-2.40084 2.83822,-3.35205c0.76045,-1.05304 1.64602,-2.0182 2.4848,-3.00959c0.05804,-0.06861 0.71954,-1.05108 0.9159,-0.98863c1.62205,0.51585 3.80472,1.93682 5.14276,2.98942c0.42532,0.3346 1.39851,0.52688 1.2476,1.04658c-0.10763,0.37067 -0.47894,0.60847 -0.68033,0.93774c-1.62415,2.24913 -3.54438,4.52582 -5.48346,6.50947l-0.20578,0.24266c0,0 -0.12604,0.15124 -0.15241,0.35116l-0.00769,0.0124c-1.06666,1.5205 -1.7661,2.76128 -3.21317,3.92249z" data-paper-data="{&quot;noHover&quot;:false,&quot;origItem&quot;:[&quot;Path&quot;,{&quot;applyMatrix&quot;:true,&quot;segments&quot;:[[[487.99199,337.82681],[-2.13332,3.04101],[0,0]],[[488.00729,337.80225],[0,0],[0.05275,-0.39983]],[488.31041,337.1065],[[488.7211,336.62592],[0,0],[3.87817,-3.96729]],[[499.69773,323.65988],[-3.2483,4.49826],[0.40279,-0.65854]],[[501.05995,321.78704],[-0.21527,0.74133],[0.30181,-1.03939]],[[498.57068,319.70225],[0.85065,0.66919],[-2.67609,-2.10521]],[[488.31736,313.7475],[3.24409,1.03169],[-0.39273,-0.1249]],[[486.48899,315.72609],[0.11609,-0.13722],[-1.67756,1.98278]],[[481.53457,321.7492],[1.5209,-2.10609],[-1.6074,1.90242]],[[475.9086,328.44506],[2.09668,-1.40707],[-1.66997,2.50433]],[[470.28264,335.55576],[1.93809,-2.29071],[0,0]],[[469.82393,335.90001],[0.28329,-0.13692],[-2.00661,2.97038]],[[462.1823,343.38122],[2.96955,-2.09103],[-2.16346,1.52341]],[[458.38246,349.12425],[-1.02232,-3.16549],[0.64369,1.99312]],[[466.00813,355.16959],[-1.66777,-1.40542],[0.88565,0.63957]],[[469.03823,357.55495],[-1.01515,-0.36435],[1.46666,0.5264]],[[473.04073,355.20811],[-1.02252,0.74765],[2.60407,-1.90403]],[[481.62679,345.61592],[-3.3937,1.18641],[2.89414,-2.32242]]],&quot;closed&quot;:true}]}" fill="#cccccc"/><path d="M243.76077,173.85319c0.41422,0 0.75,0.33578 0.75,0.75c0,0.32843 -0.21111,0.60755 -0.50503,0.70908l0.05566,0.20408l-0.06038,0.10063l0.00199,0.0359l-0.03923,0.02616l-0.10126,0.16876l-0.00917,0.00918l-0.04081,0.08161l-0.03985,0.04649l-0.00208,0.03736l-0.11288,0.09675l-0.09675,0.11288l-0.00539,0.0003l-0.0264,0.04399l-0.10517,0.10517l-0.11087,0.14783l-0.0419,0.03404l-0.02777,0.04629l-0.14286,0.14285l-0.04628,0.02777l-0.03405,0.0419l-0.14783,0.11088l-0.10516,0.10516l-0.04629,0.02777l-0.03404,0.0419l-0.19048,0.14286l-0.01964,0.00827l-0.01434,0.01576l-0.01805,0.01203l-0.10727,0.16091l-0.05527,0.05025l-0.03843,0.06405l-0.09524,0.09524l-0.07917,0.0475l-0.06529,0.06529l-0.2381,0.14285l-0.02813,0.00856l-0.02233,0.01914l-0.14871,0.07436l-0.10401,0.06933l-0.09434,0.03369l-0.08451,0.05378l-0.04632,0.01544l-0.04147,0.04147l-0.10338,0.06203l-0.09154,0.07846l-0.12999,0.06499l-0.31748,0.23811l-0.46704,0.37364l-0.03039,0.01393c0.01636,0.05452 0.02616,0.10875 0.02616,0.16232c0,0.7905 -0.34554,0.69734 -0.69472,0.67392l-0.0503,0.07544l-0.05527,0.05025l-0.03843,0.06405l-0.08621,0.08621l-0.05014,0.0788l-0.00318,0.05726l-0.07317,0.06271l-0.05174,0.08131l-0.02518,0.00503l-0.07336,0.06288l-0.02395,0.0449l-0.04317,0.12087l-0.19048,0.28572l-0.05527,0.05025l-0.03843,0.06405l-0.02995,0.02995l-0.08054,0.13423l-0.03473,0.06947l-0.04436,0.05176l-0.02645,0.06283l-0.14286,0.19048l-0.03095,0.02515l-0.00576,0.02884l-0.13713,0.08727l-0.12615,0.1025l-0.02918,-0.00365l-0.03365,0.02141l-0.14286,0.04762l-0.14753,0.01135l-0.04772,0.03181l-0.09408,-0.0209l-0.09608,0.00739l-0.04274,-0.03824l-0.14444,-0.0321l-0.04756,-0.02378l-0.09229,-0.03077l-0.04555,-0.02898l-0.00819,-0.00182l-0.00321,0.00087l-0.0042,-0.00252l-0.0371,-0.00825l-0.09524,-0.04762l-0.09153,-0.07846l-0.0285,-0.01709l-0.01982,-0.00661l-0.14539,-0.09252l-0.14777,-0.08866l-0.01477,-0.01478l-0.01818,-0.01156l-0.00165,-0.00826l-0.00813,-0.00812l-0.22392,-0.14929l-0.05025,-0.05527l-0.06405,-0.03843l-0.09035,-0.09034l-0.07282,-0.04855l-0.01148,-0.00064l-0.12626,-0.14731l-0.13051,-0.14356l0.00027,-0.00405l-0.07936,-0.03968l-0.01146,0.00079l-0.14356,-0.13051l-0.14731,-0.12626l-0.00064,-0.01148l-0.12039,-0.18059l-0.13121,-0.10497l-0.3167,-0.22621l-0.04065,-0.04772l-0.05375,-0.03225l-0.07184,-0.07183l-0.22805,-0.13032l-0.07662,-0.03831l-0.03599,-0.03084l-0.04463,-0.01594l-0.10401,-0.06933l-0.10104,-0.05052l-0.04586,-0.01529l-0.00813,0.00221l-0.01847,-0.01108l-0.01982,-0.00661l-0.14539,-0.09252l-0.1324,-0.07944l-0.05554,-0.01851l-0.04555,-0.02899l-0.05269,-0.01171l-0.47619,-0.2381l-0.02233,-0.01914l-0.02813,-0.00856l-0.2381,-0.14285l-0.06529,-0.06529l-0.07917,-0.0475l-0.00917,-0.00918l-0.17686,-0.08843l-0.09154,-0.07846l-0.10338,-0.06203l-0.19048,-0.19048l-0.02777,-0.04629l-0.0419,-0.03404l-0.14285,-0.19047l-0.00728,-0.0173l-0.21067,-0.23173l-0.02877,-0.01645l-0.00525,-0.02098l-0.01455,-0.016l0.00229,-0.03306l-0.07624,-0.30496v-0.57143l0.02924,-0.11696l0.00924,-0.12021l0.04762,-0.14285l0.02898,-0.04555l0.01171,-0.05269l0.02379,-0.04757l0.01874,-0.05624l0.00277,-0.01108l0.00925,-0.12021l0.0356,-0.10681l0.00941,-0.03767l-0.01509,-0.05533l0.04958,-0.08264l0.02337,-0.09349l0.0498,-0.02846l0.07612,-0.12688l0.09524,-0.09524l0.10339,-0.06203l0.09153,-0.07846l0.05147,-0.02573l0.00418,-0.00732l0.0209,-0.00522l0.01869,-0.00934l0.0371,-0.00824l0.0042,-0.00252l0.00321,0.00088l0.10595,-0.02355c0.28423,-0.24459 0.70829,-0.37335 1.20863,-0.4274c1.63938,-0.17709 4.09775,0.44797 5.14033,0.42928c0.90754,-0.01628 1.84752,-0.76823 2.74168,-0.96152c1.03047,-0.22276 1.73631,-0.31425 2.17648,-0.30994c0.09155,-0.03981 0.19259,-0.06187 0.29879,-0.06187z" fill="#888888"/><path d="M246.81641,177.42763c0.17556,-0.46816 0.64373,-0.2926 0.64373,-0.2926l0.39109,0.14678c0.12656,0.05155 0.2498,0.11031 0.37059,0.17414l0.0021,-0.01262l0.56332,0.09389c0.15321,0.02276 0.28375,0.11502 0.35852,0.2437c0.13735,-0.02606 0.28313,-0.03762 0.43608,-0.0363c2.1178,0.01819 5.61004,2.5041 7.13043,3.13121c0.17561,0.07243 0.44559,0.14413 0.74822,0.2225l0.10443,-0.09344l0.3854,0.02965l0.14286,0.04762l0.04554,0.02898l0.0527,0.01171l0.0216,0.0108l0.11061,0.02765l0.07288,0.03887l0.08063,0.01792l0.1428,0.0714l0.04587,0.01529l0.00813,-0.00222l0.01847,0.01108l0.01983,0.00661l0.14539,0.09252l0.13241,0.07944l0.00912,0.00304l0.00813,-0.00222l0.01847,0.01108l0.01983,0.00661l0.14539,0.09252l0.14777,0.08866l0.01478,0.01478l0.01817,0.01156l0.00165,0.00826l0.06064,0.06064l0.0536,0.08934l0.03719,0.00826l0.19048,0.09524l0.09154,0.07846l0.10338,0.06203l0.09524,0.09524l0.03843,0.06406l0.05527,0.05025l0.06256,0.09384l0.09448,0.08099l0.05624,0.01125l0.05174,0.0813l0.07317,0.06272l0.00318,0.05726l0.07944,0.12483l0.04762,0.14286l0.00925,0.12021l0.02843,0.11374l0.07018,0.06015l0.00138,0.0248l0.02385,0.00852l0.14286,0.09524l0.21145,0.23259l0.02877,0.01644l0.00524,0.02098l0.01455,0.016l-0.00228,0.03306l0.07624,0.30496v0.33333l-0.02924,0.11696l-0.00925,0.12021l-0.03214,0.09643l0.00222,0.00813l-0.01108,0.01847l-0.00661,0.01983l-0.09252,0.14539l-0.08866,0.14777l-0.01478,0.01478l-0.01156,0.01817l-0.00826,0.00165l-0.15587,0.15587l-0.10338,0.06203l-0.04386,0.0376l-0.09085,0.09085l-0.10338,0.06203l-0.09154,0.07846l-0.06948,0.03474l-0.09973,0.05984l-0.1279,0.14921l-0.02957,0.00164l-0.01469,0.02571l-0.375,0.09375l-0.27271,0.52381c-0.03504,0.02104 -0.21586,-0.00897 -0.25679,0.00467c-0.05664,0.01888 -0.23211,-0.51685 -0.43614,-0.59237c-0.10361,-0.02194 -0.19931,-0.06526 -0.28229,-0.12514c-0.01771,-0.01278 -0.03484,-0.02631 -0.05134,-0.04055l-0.01077,-0.00269l-0.16823,-0.03738l-0.01869,-0.00935l-0.0209,-0.00522l-0.00418,-0.00731l-0.14671,-0.07335l-0.09154,-0.07846l-0.10338,-0.06203l-0.09524,-0.09524l-0.07613,-0.12688l-0.04979,-0.02845l-0.01441,-0.05763l-0.01136,-0.01032l-0.4153,-0.20765l-0.05176,-0.04437l-0.06283,-0.02645l-0.13637,-0.10228l-0.32046,-0.16023l-0.04759,-0.0408l-0.05812,-0.02347l-0.52381,-0.38095l-0.01623,-0.01939l-0.02277,-0.01099l-0.28131,-0.23443c-0.06803,-0.05588 -0.12605,-0.1235 -0.17096,-0.19976c-1.47671,-0.9729 -2.92453,-2.10372 -4.21207,-3.08295c-0.26167,-0.19901 -2.03751,-1.02411 -2.05647,-1.36549c-0.01324,-0.0204 -0.02552,-0.04149 -0.03677,-0.06319c-0.17893,-0.0802 -0.32959,-0.15799 -0.43058,-0.22828c-0.09921,-0.03474 -0.19751,-0.07189 -0.29475,-0.11122l-0.04202,-0.05983l-0.01617,0.02079l-0.4245,-0.33017c-0.0626,-0.04774 -0.11361,-0.10992 -0.14803,-0.18157c-0.07541,-0.00066 -0.14829,-0.01306 -0.21095,-0.03775l-0.37082,-0.13893c0,0 -0.46816,-0.17556 -0.2926,-0.64373z" fill="#915129"/><path d="M243.65817,176.74856c0,0 -0.1723,0.12877 -0.38905,0.13166c-0.57201,0.51909 -1.38008,1.90629 -1.61521,2.2556c-0.98096,1.45735 -3.18582,4.07216 -5.14982,3.5464c-0.62296,-0.16676 -1.34703,-1.00817 -1.86987,-1.38574c-1.04732,-0.88991 -3.63845,-2.12125 -4.14719,-3.4266c-1.22222,-3.13603 2.26557,-4.0931 4.02741,-5.76304c0.50261,-0.47639 0.96681,-1.27665 1.52235,-1.81813c-1.80265,-0.27679 -2.20175,-2.39425 -1.2088,-3.618c1.81867,-2.24139 2.34865,-1.47946 4.55131,-0.54319c0.01393,0.00592 0.02747,0.00991 0.04066,0.01214c0.01705,-0.02647 0.03402,-0.05298 0.05088,-0.07954c-0.02221,-0.16786 -0.01798,-0.54631 0.43494,-0.67684c0.06155,-0.01774 0.11852,-0.02719 0.1712,-0.0299c0.69221,-0.83813 1.4076,-1.65864 2.11021,-2.48788c0.82859,-1.14739 2.9058,-4.54779 4.48471,-4.46472c0.61218,0.03221 1.71259,0.88929 2.22611,1.18696c1.22968,0.71282 5.28476,2.20201 5.24295,4.07677c-0.00413,0.18549 -0.72622,1.32989 -0.88639,1.59105c-1.57544,2.18154 -3.41936,4.35902 -5.29538,6.31263c2.87139,2.06196 5.96316,4.18293 8.63056,6.43153c1.70858,1.44557 4.35042,3.02242 5.35408,5.0939c1.00808,2.08059 -1.43366,4.68437 -3.49451,4.15052c0,0 -0.22855,-0.06463 -0.36087,-0.25568c-2.36345,-1.25611 -3.99788,-3.61069 -6.23851,-5.04726c-1.7906,-1.14803 -3.78222,-2.18803 -5.67695,-3.17138c-0.31977,-0.19583 -2.04108,-1.79461 -2.47407,-2.05189c-0.01353,0.01021 -0.02712,0.02043 -0.04077,0.03063zM246.38143,171.65958l0.00765,-0.01228c0.02638,-0.19992 0.15156,-0.34788 0.15156,-0.34788l0.20534,-0.24029c1.93909,-1.98364 3.86417,-4.23389 5.48832,-6.48302c0.20139,-0.32927 0.57348,-0.56575 0.68111,-0.93642c0.1509,-0.5197 -0.81931,-0.7078 -1.24464,-1.04239c-1.33804,-1.0526 -3.50461,-2.46153 -5.12666,-2.97737c-0.19636,-0.06245 -0.85614,0.92068 -0.91419,0.98929c-0.83878,0.99139 -1.71676,1.95851 -2.47721,3.01155c-0.8037,0.95121 -1.76465,2.6444 -2.81298,3.34793c-0.83498,1.25216 -1.84393,2.41 -2.81298,3.55535c0,0 -0.08771,0.10367 -0.22935,0.17212c-1.00331,1.48519 -2.33604,2.69509 -3.82082,3.7406c-1.08173,0.76171 -2.41108,1.28877 -1.89992,2.87152c0.32184,0.99656 2.97895,2.31996 3.81284,3.02267c0.44282,0.31978 1.00747,1.0105 1.51505,1.19268c0.73333,0.2632 1.48999,-0.7996 2.00125,-1.17342c1.30203,-0.95201 2.59618,-4.20289 4.29303,-4.79609c1.44707,-1.16121 2.11594,-2.37405 3.1826,-3.89455zM246.77569,177.70238c1.9192,0.99607 3.93994,2.04954 5.75153,3.21706c2.29767,1.48079 3.97256,4.03822 6.49458,5.16345c0,0 0.01837,0.00829 0.04695,0.0252c1.02308,0.00161 2.29152,-1.49207 1.77958,-2.46451c-1.0016,-1.90257 -3.44933,-3.3535 -5.05032,-4.70805c-2.62891,-2.23334 -5.71117,-4.33438 -8.55598,-6.3737c-0.89639,1.25156 -1.5591,2.34177 -2.60718,3.35632c0.77183,0.57309 1.69779,1.51323 2.14084,1.78422zM236.91527,166.18402c-0.84271,0.2136 -2.31413,3.06879 -0.70369,2.89937c0.28598,-0.03009 0.58408,-0.00351 0.87147,0.06988c0.5779,-0.6791 1.1601,-1.36815 1.69229,-2.08581c-0.57512,-0.38257 -1.0137,-1.09798 -1.86007,-0.88345z" fill="#000000"/><path d="M248.73176,164.59626c-0.4,0.3 -0.7,-0.1 -0.7,-0.1l-0.12998,-0.23489c-0.69511,-0.41775 -1.10964,-0.56744 -1.92457,-0.56511c0,0 -0.5,0 -0.5,-0.5c0,-0.5 0.5,-0.5 0.5,-0.5c0.98459,0.00248 1.5981,0.2038 2.43907,0.70762l0.41548,0.49238c0,0 0.3,0.4 -0.1,0.7z" fill="#ffffff"/><g><path d="M221.94335,173.46892c-0.68919,0 -1.38051,0.02242 -2.07017,0.02613c0.10595,0.31768 0.30883,0.6608 0.64377,1.05221c0.36152,0.63005 0.72407,1.34456 0.95359,2.08376c0.18989,-0.60291 0.44139,-1.20115 0.57362,-1.56937c0.20326,-0.54206 0.32324,-1.06752 0.38063,-1.58628c-0.16171,-0.00407 -0.32229,-0.00647 -0.48143,-0.00647zM221.94335,173.0075c0.17065,0 0.34296,0.00279 0.51654,0.00745c0.04065,-0.95044 -0.11045,-1.88813 -0.32367,-2.87512c-0.30256,0.03779 -0.58681,0.07652 -0.83297,0.09769c-0.15743,0.02093 -0.33958,0.02107 -0.53423,0.0129c-0.42647,1.1795 -1.03849,1.92381 -0.98638,2.78557c0.72002,-0.00247 1.44205,-0.02849 2.16072,-0.02849zM226.54327,173.03678l0.11545,-0.00021c-0.57062,-0.88467 -0.89581,-2.1025 -1.76595,-2.66742c-0.58902,-0.38241 -1.47165,-0.36688 -2.29615,-0.28251c0.21403,1.00301 0.36031,1.96957 0.32056,2.9442c1.20979,0.04996 2.46283,0.15134 3.62609,0.00593zM222.47701,175.22152c-0.27348,0.74393 -0.49166,1.32555 -0.56295,2.12617c-0.01522,0.17101 -0.1433,0.32953 -0.2103,0.47621c0.00075,0.01135 0.00147,0.02269 0.00213,0.03404c0.00674,0.0303 0.00674,0.05219 0.00674,0.05219l-0.00397,0.00149c0.00257,0.05725 0.00392,0.11444 0.00397,0.17155l-0.02707,-0.01015c0.0048,0.0095 0.01043,0.01893 0.01697,0.02831c0.22581,-0.39336 0.57555,-1.07063 0.76354,-1.20715c1.28976,-0.93667 2.8909,-1.95669 3.956,-3.37953c-1.14052,0.12179 -2.36024,0.02334 -3.53784,-0.02396c-0.05879,0.56893 -0.18678,1.14295 -0.40723,1.73081zM220.13977,174.81306c-0.42043,-0.48969 -0.65198,-0.91827 -0.75259,-1.31904c-0.76085,-0.00815 -1.5186,-0.05096 -2.2681,-0.18395c1.46807,1.47903 2.69243,3.24907 4.12052,4.79673c-0.01898,-0.11979 -0.0204,-0.25508 -0.00823,-0.40094c-0.10499,-1.0128 -0.60938,-2.04404 -1.09161,-2.8928zM220.28811,170.22147c-0.5255,-0.03434 -1.06905,-0.05843 -1.43004,0.13247c-0.51655,0.27317 -1.47735,1.56727 -1.96643,2.44154c0.80208,0.17224 1.61607,0.22738 2.43411,0.23844c-0.01587,-0.8814 0.53835,-1.68487 0.96235,-2.81244zM216.25295,173.49336c-0.25725,-0.14563 -0.13779,-0.45785 -0.13779,-0.45785c0.35904,-0.9022 1.73084,-2.90735 2.51225,-3.31531c0.71204,-0.37175 1.85089,-0.06752 2.62371,-0.17195c1.01841,-0.08788 2.23797,-0.28996 3.25204,-0.08348c1.35516,0.27594 2.25916,2.26222 2.77521,3.61667c-0.27632,0.8542 -0.71452,1.01238 -1.26127,1.56395c-1.10482,1.11452 -2.0251,1.95579 -3.2509,2.83876c-0.73592,0.5301 -0.42478,1.43814 -1.42651,1.56551c-1.82667,-1.52039 -3.08561,-3.76907 -4.8085,-5.42583l-0.18183,-0.06036c0,0 -0.04817,-0.02113 -0.09639,-0.07009z" fill="#000000"/><path d="M219.76697,173.05292c-0.05211,-0.86177 0.56967,-1.64532 0.99614,-2.82481c0.19466,0.00817 0.38576,0.00747 0.54319,-0.01346c0.24615,-0.02117 0.54057,-0.05593 0.84314,-0.09372c0.21322,0.987 0.36687,1.96042 0.32622,2.91086c-0.17358,-0.00466 -0.35013,-0.00431 -0.52077,-0.00431c-0.71866,0 -1.4679,0.02298 -2.18793,0.02545z" data-paper-data="{&quot;noHover&quot;:false,&quot;origItem&quot;:[&quot;Path&quot;,{&quot;applyMatrix&quot;:true,&quot;segments&quot;:[[[728.42112,606.00227],[-3.11498,0],[0.73964,0]],[[730.66,606.03456],[-0.75236,-0.02021],[0.17621,-4.11959]],[[729.25707,593.57265],[0.92422,4.27801],[-1.31144,0.16379]],[[725.64666,593.99607],[1.06693,-0.09176],[-0.68236,0.09073]],[[723.33106,594.05197],[0.84371,0.03543],[-1.84849,5.11241]],[[719.05574,606.12576],[-0.22589,-3.73525],[3.12088,-0.0107]]],&quot;closed&quot;:true}]}" fill="#0087ff"/><path d="M222.89961,173.0458c0.03975,-0.97463 -0.10757,-1.96979 -0.32161,-2.9728c0.8245,-0.08436 1.73069,-0.1088 2.31973,0.27361c0.87014,0.56492 1.2091,1.81875 1.77972,2.70342l-0.11584,0.00074c-1.16326,0.14541 -2.45221,0.04498 -3.662,-0.00498z" data-paper-data="{&quot;noHover&quot;:false,&quot;origItem&quot;:[&quot;Path&quot;,{&quot;applyMatrix&quot;:true,&quot;segments&quot;:[[[748.35898,606.1292],[-5.04204,0.63026],[0,0]],[[748.8594,606.12829],[0,0],[-2.47329,-3.83451]],[[741.20507,594.56666],[3.77153,2.44856],[-2.55308,-1.65751]],[[731.25262,593.34214],[3.57372,-0.36568],[0.92771,4.34742]],[[732.64206,606.10348],[0.17229,-4.22441],[5.24368,0.21654]]],&quot;closed&quot;:true}]}" fill="#0087ff"/><path d="M219.33639,173.0544c-0.81804,-0.01106 -1.66161,-0.07352 -2.46368,-0.24576c0.48908,-0.87427 1.47362,-2.2041 1.99017,-2.47727c0.36098,-0.1909 0.91758,-0.15888 1.44307,-0.12454c-0.424,1.12758 -0.98542,1.96617 -0.96955,2.84756z" data-paper-data="{&quot;noHover&quot;:false,&quot;origItem&quot;:[&quot;Path&quot;,{&quot;applyMatrix&quot;:true,&quot;segments&quot;:[[[721.24666,593.92656],[-1.83778,4.88737],[-2.27769,-0.14884]],[[715.04833,594.50073],[1.56466,-0.82744],[-2.23892,1.18402]],[[706.52505,605.08333],[2.11987,-3.78943],[3.47652,0.74654]],[[717.07546,606.1168],[-3.54571,-0.04794],[-0.06878,-3.82032]]],&quot;closed&quot;:true}]}" fill="#0087ff"/><path d="M222.8738,173.47013c1.1776,0.0473 2.42437,0.15032 3.56489,0.02853c-1.0651,1.42283 -2.66388,2.44574 -3.95364,3.38241c-0.18798,0.13652 -0.54023,0.81075 -0.76604,1.20412c-0.00654,-0.00938 -0.04528,0.01333 -0.05007,0.00383l0.0272,0.01028c-0.00006,-0.05711 -0.00203,-0.11496 -0.0046,-0.17221l0.00398,-0.00148c0,0 -0.00021,-0.02213 -0.00695,-0.05243c-0.00066,-0.01135 -0.00151,-0.02285 -0.00226,-0.0342c0.06699,-0.14668 0.19387,-0.30674 0.20909,-0.47774c0.07128,-0.80062 0.28645,-1.40368 0.55994,-2.14762c0.22045,-0.58786 0.35968,-1.17456 0.41847,-1.74348z" data-paper-data="{&quot;noHover&quot;:false,&quot;origItem&quot;:[&quot;Path&quot;,{&quot;applyMatrix&quot;:true,&quot;segments&quot;:[[[730.73419,615.59871],[0.95554,-2.54801],[-1.18538,3.2245]],[[728.29418,624.81441],[0.30897,-3.47023],[-0.06599,0.74121]],[[727.38268,626.8785],[0.29037,-0.63579],[0.00327,0.04919]],[[727.39188,627.02605],[-0.00286,-0.04918],[0.02923,0.13132]],[727.42112,627.25227],[[727.40389,627.25873],[0,0],[0.01115,0.24813]],[[727.42112,628.00227],[-0.00024,-0.24753],[0,0]],[[727.30378,627.95827],[0,0],[0.02078,0.04117]],[[727.37732,628.08101],[-0.02834,-0.04066],[0.97876,-1.70501]],[[730.68682,622.84875],[-0.8148,0.59173],[5.59034,-4.0599]],[[747.83367,608.20055],[-4.61656,6.16713],[-4.94349,0.52788]],[[732.49929,608.09671],[5.1042,0.20502],[-0.25481,2.46597]]],&quot;closed&quot;:true}]}" fill="#003aff"/><path d="M222.43931,173.45746c-0.05739,0.51876 -0.16882,1.06244 -0.37209,1.6045c-0.13222,0.36822 -0.4022,0.98877 -0.59208,1.59168c-0.22951,-0.7392 -0.61472,-1.49068 -0.97625,-2.12073c-0.33494,-0.39141 -0.53439,-0.738 -0.64034,-1.05568c0.68965,-0.0037 1.40597,-0.02892 2.09516,-0.02892c0.15914,0 0.3239,0.00509 0.48561,0.00915z" data-paper-data="{&quot;noHover&quot;:false,&quot;origItem&quot;:[&quot;Path&quot;,{&quot;applyMatrix&quot;:true,&quot;segments&quot;:[[[728.42112,608.00227],[0.6898,0],[-2.98721,0]],[[719.4482,608.11554],[2.98925,-0.01605],[0.45923,1.37695]],[[722.23853,612.67622],[-1.45176,-1.69652],[1.56696,2.73089]],[[726.37177,621.70809],[-0.99481,-3.204],[0.82304,-2.61326]],[[728.85804,614.90583],[-0.5731,1.59599],[0.88103,-2.34951]],[[730.50785,608.03029],[-0.24875,2.24851],[-0.70089,-0.01763]]],&quot;closed&quot;:true}]}" fill="#003aff"/><path d="M221.24792,177.72195c-0.01217,0.14586 -0.01225,0.28256 0.00673,0.40235c-1.42809,-1.54766 -2.68251,-3.35271 -4.15059,-4.83174c0.7495,0.13299 1.52444,0.17034 2.28529,0.17849c0.10061,0.40077 0.34687,0.83659 0.7673,1.32628c0.48223,0.84876 0.98628,1.91182 1.09126,2.92461z" data-paper-data="{&quot;noHover&quot;:false,&quot;origItem&quot;:[&quot;Path&quot;,{&quot;applyMatrix&quot;:true,&quot;segments&quot;:[[[720.6037,613.82832],[2.09018,3.67887],[-1.82233,-2.12248]],[[717.34171,608.11108],[0.43605,1.73707],[-3.29784,-0.03532]],[[707.51086,607.31373],[3.24866,0.57644],[6.36321,6.41069]],[[725.37082,628.10468],[-6.18989,-6.70818],[-0.08224,-0.51923]],[[725.33518,626.36682],[-0.05276,0.63223],[-0.45507,-4.38984]]],&quot;closed&quot;:true}]}" fill="#1900ff"/></g><g><path d="M228.92391,166.52023c-0.49075,0 -0.98302,0.01597 -1.4741,0.01861c0.07544,0.22621 0.2199,0.47053 0.4584,0.74924c0.25743,0.44864 0.51559,0.95742 0.67902,1.48378c0.13521,-0.42931 0.3143,-0.8553 0.40845,-1.1175c0.14474,-0.38598 0.23017,-0.76015 0.27104,-1.12954c-0.11514,-0.0029 -0.22949,-0.0046 -0.34281,-0.0046zM228.92391,166.19167c0.12151,0 0.24421,0.00198 0.36781,0.0053c0.02895,-0.67678 -0.07865,-1.34448 -0.23048,-2.04728c-0.21545,0.02691 -0.41785,0.05449 -0.59313,0.06956c-0.1121,0.0149 -0.2418,0.015 -0.38041,0.00918c-0.30368,0.83988 -0.73948,1.36988 -0.70237,1.98352c0.51271,-0.00176 1.02684,-0.02029 1.53858,-0.02029zM232.19937,166.21252l0.08221,-0.00015c-0.40632,-0.62994 -0.63788,-1.49712 -1.25748,-1.89938c-0.41943,-0.2723 -1.04792,-0.26124 -1.63502,-0.20117c0.15241,0.71421 0.25656,1.40247 0.22826,2.09647c0.86145,0.03557 1.75371,0.10777 2.58203,0.00423zM229.30391,167.7682c-0.19474,0.52973 -0.3501,0.94388 -0.40085,1.51398c-0.01084,0.12177 -0.10204,0.23465 -0.14974,0.3391c0.00054,0.00808 0.00105,0.01616 0.00151,0.02424c0.0048,0.02158 0.0048,0.03716 0.0048,0.03716l-0.00283,0.00106c0.00183,0.04077 0.00279,0.08149 0.00283,0.12215l-0.01928,-0.00723c0.00341,0.00676 0.00743,0.01348 0.01208,0.02016c0.16079,-0.2801 0.40983,-0.76236 0.54369,-0.85957c0.9184,-0.66697 2.05852,-1.3933 2.81694,-2.40645c-0.81213,0.08672 -1.68065,0.01662 -2.51918,-0.01706c-0.04186,0.40512 -0.133,0.81386 -0.28998,1.23245zM227.63964,167.47735c-0.29938,-0.34869 -0.46425,-0.65387 -0.53589,-0.93925c-0.54178,-0.0058 -1.08134,-0.03629 -1.61504,-0.13099c1.04537,1.05317 1.9172,2.31356 2.93409,3.4156c-0.01351,-0.0853 -0.01452,-0.18164 -0.00586,-0.2855c-0.07476,-0.72118 -0.43392,-1.45549 -0.7773,-2.05987zM227.74527,164.20783c-0.37419,-0.02445 -0.76123,-0.04161 -1.01828,0.09433c-0.36781,0.19452 -1.05197,1.11601 -1.40023,1.73854c0.57113,0.12265 1.15075,0.16191 1.73325,0.16978c-0.0113,-0.62762 0.38334,-1.19974 0.68526,-2.00265zM224.87196,166.53763c-0.18318,-0.1037 -0.09812,-0.32602 -0.09812,-0.32602c0.25566,-0.64242 1.23248,-2.07023 1.78889,-2.36073c0.50702,-0.26471 1.31796,-0.04808 1.86826,-0.12244c0.72517,-0.06258 1.59358,-0.20647 2.31567,-0.05944c0.96497,0.19649 1.60867,1.61085 1.97614,2.57531c-0.19676,0.60824 -0.50878,0.72088 -0.89811,1.11363c-0.7867,0.79362 -1.44201,1.39266 -2.31486,2.02139c-0.52402,0.37747 -0.30248,1.02405 -1.01578,1.11475c-1.30072,-1.08262 -2.19716,-2.68384 -3.42398,-3.86356l-0.12947,-0.04298c0,0 -0.0343,-0.01505 -0.06864,-0.04991z" fill="#000000"/><path d="M227.37418,166.22401c-0.03711,-0.61364 0.40564,-1.17158 0.70932,-2.01146c0.13861,0.00582 0.27469,0.00532 0.38679,-0.00958c0.17528,-0.01508 0.38493,-0.03983 0.60038,-0.06674c0.15183,0.70281 0.26124,1.39595 0.23229,2.07273c-0.1236,-0.00332 -0.24931,-0.00307 -0.37082,-0.00307c-0.51174,0 -1.04524,0.01636 -1.55795,0.01812z" data-paper-data="{&quot;noHover&quot;:false,&quot;origItem&quot;:[&quot;Path&quot;,{&quot;applyMatrix&quot;:true,&quot;segments&quot;:[[[728.42112,606.00227],[-3.11498,0],[0.73964,0]],[[730.66,606.03456],[-0.75236,-0.02021],[0.17621,-4.11959]],[[729.25707,593.57265],[0.92422,4.27801],[-1.31144,0.16379]],[[725.64666,593.99607],[1.06693,-0.09176],[-0.68236,0.09073]],[[723.33106,594.05197],[0.84371,0.03543],[-1.84849,5.11241]],[[719.05574,606.12576],[-0.22589,-3.73525],[3.12088,-0.0107]]],&quot;closed&quot;:true}]}" fill="#0087ff"/><path d="M229.60483,166.21894c0.0283,-0.694 -0.0766,-1.40262 -0.229,-2.11683c0.5871,-0.06007 1.23237,-0.07747 1.6518,0.19483c0.6196,0.40226 0.86096,1.29508 1.26728,1.92502l-0.08249,0.00052c-0.82832,0.10354 -1.74614,0.03203 -2.60759,-0.00355z" data-paper-data="{&quot;noHover&quot;:false,&quot;origItem&quot;:[&quot;Path&quot;,{&quot;applyMatrix&quot;:true,&quot;segments&quot;:[[[748.35898,606.1292],[-5.04204,0.63026],[0,0]],[[748.8594,606.12829],[0,0],[-2.47329,-3.83451]],[[741.20507,594.56666],[3.77153,2.44856],[-2.55308,-1.65751]],[[731.25262,593.34214],[3.57372,-0.36568],[0.92771,4.34742]],[[732.64206,606.10348],[0.17229,-4.22441],[5.24368,0.21654]]],&quot;closed&quot;:true}]}" fill="#0087ff"/><path d="M227.06758,166.22507c-0.5825,-0.00788 -1.18318,-0.05235 -1.75431,-0.17499c0.34826,-0.62254 1.04932,-1.56947 1.41714,-1.76398c0.25705,-0.13593 0.65338,-0.11313 1.02756,-0.08868c-0.30192,0.80291 -0.70169,1.40005 -0.69039,2.02766z" data-paper-data="{&quot;noHover&quot;:false,&quot;origItem&quot;:[&quot;Path&quot;,{&quot;applyMatrix&quot;:true,&quot;segments&quot;:[[[721.24666,593.92656],[-1.83778,4.88737],[-2.27769,-0.14884]],[[715.04833,594.50073],[1.56466,-0.82744],[-2.23892,1.18402]],[[706.52505,605.08333],[2.11987,-3.78943],[3.47652,0.74654]],[[717.07546,606.1168],[-3.54571,-0.04794],[-0.06878,-3.82032]]],&quot;closed&quot;:true}]}" fill="#0087ff"/><path d="M229.58645,166.52109c0.83853,0.03368 1.72631,0.10703 2.53844,0.02031c-0.75842,1.01315 -1.89686,1.74153 -2.81526,2.4085c-0.13386,0.09721 -0.38468,0.57731 -0.54547,0.85741c-0.00466,-0.00668 -0.03224,0.00949 -0.03565,0.00273l0.01936,0.00732c-0.00004,-0.04067 -0.00145,-0.08186 -0.00328,-0.12263l0.00283,-0.00105c0,0 -0.00015,-0.01576 -0.00495,-0.03733c-0.00047,-0.00808 -0.00107,-0.01627 -0.00161,-0.02435c0.0477,-0.10445 0.13804,-0.21842 0.14889,-0.34019c0.05076,-0.5701 0.20398,-0.99952 0.39872,-1.52925c0.15698,-0.4186 0.25612,-0.83637 0.29798,-1.24148z" data-paper-data="{&quot;noHover&quot;:false,&quot;origItem&quot;:[&quot;Path&quot;,{&quot;applyMatrix&quot;:true,&quot;segments&quot;:[[[730.73419,615.59871],[0.95554,-2.54801],[-1.18538,3.2245]],[[728.29418,624.81441],[0.30897,-3.47023],[-0.06599,0.74121]],[[727.38268,626.8785],[0.29037,-0.63579],[0.00327,0.04919]],[[727.39188,627.02605],[-0.00286,-0.04918],[0.02923,0.13132]],[727.42112,627.25227],[[727.40389,627.25873],[0,0],[0.01115,0.24813]],[[727.42112,628.00227],[-0.00024,-0.24753],[0,0]],[[727.30378,627.95827],[0,0],[0.02078,0.04117]],[[727.37732,628.08101],[-0.02834,-0.04066],[0.97876,-1.70501]],[[730.68682,622.84875],[-0.8148,0.59173],[5.59034,-4.0599]],[[747.83367,608.20055],[-4.61656,6.16713],[-4.94349,0.52788]],[[732.49929,608.09671],[5.1042,0.20502],[-0.25481,2.46597]]],&quot;closed&quot;:true}]}" fill="#003aff"/><path d="M229.27707,166.51207c-0.04087,0.36939 -0.12021,0.75653 -0.26495,1.14251c-0.09415,0.2622 -0.28639,0.70407 -0.4216,1.13338c-0.16343,-0.52636 -0.43773,-1.06147 -0.69515,-1.51011c-0.2385,-0.27871 -0.38052,-0.52551 -0.45597,-0.75172c0.49108,-0.00263 1.00115,-0.02059 1.4919,-0.02059c0.11332,0 0.23064,0.00362 0.34578,0.00652z" data-paper-data="{&quot;noHover&quot;:false,&quot;origItem&quot;:[&quot;Path&quot;,{&quot;applyMatrix&quot;:true,&quot;segments&quot;:[[[728.42112,608.00227],[0.6898,0],[-2.98721,0]],[[719.4482,608.11554],[2.98925,-0.01605],[0.45923,1.37695]],[[722.23853,612.67622],[-1.45176,-1.69652],[1.56696,2.73089]],[[726.37177,621.70809],[-0.99481,-3.204],[0.82304,-2.61326]],[[728.85804,614.90583],[-0.5731,1.59599],[0.88103,-2.34951]],[[730.50785,608.03029],[-0.24875,2.24851],[-0.70089,-0.01763]]],&quot;closed&quot;:true}]}" fill="#003aff"/><path d="M228.42872,169.54868c-0.00867,0.10387 -0.00872,0.2012 0.00479,0.2865c-1.01689,-1.10204 -1.91013,-2.38735 -2.9555,-3.44052c0.5337,0.0947 1.0855,0.1213 1.62728,0.1271c0.07164,0.28537 0.24699,0.59571 0.54637,0.9444c0.34338,0.60437 0.70229,1.36135 0.77705,2.08252z" data-paper-data="{&quot;noHover&quot;:false,&quot;origItem&quot;:[&quot;Path&quot;,{&quot;applyMatrix&quot;:true,&quot;segments&quot;:[[[720.6037,613.82832],[2.09018,3.67887],[-1.82233,-2.12248]],[[717.34171,608.11108],[0.43605,1.73707],[-3.29784,-0.03532]],[[707.51086,607.31373],[3.24866,0.57644],[6.36321,6.41069]],[[725.37082,628.10468],[-6.18989,-6.70818],[-0.08224,-0.51923]],[[725.33518,626.36682],[-0.05276,0.63223],[-0.45507,-4.38984]]],&quot;closed&quot;:true}]}" fill="#1900ff"/></g><g><path d="M222.44327,160.18485c-0.39495,0 -0.79113,0.01285 -1.18634,0.01497c0.06072,0.18205 0.17698,0.37868 0.36892,0.60299c0.20717,0.36106 0.41494,0.77052 0.54647,1.19413c0.10882,-0.34551 0.25295,-0.68833 0.32872,-0.89935c0.11649,-0.31064 0.18524,-0.61176 0.21813,-0.90904c-0.09267,-0.00233 -0.1847,-0.00371 -0.27589,-0.00371zM222.44327,159.92042c0.09779,0 0.19654,0.0016 0.29601,0.00427c0.0233,-0.54467 -0.06329,-1.08202 -0.18548,-1.64763c-0.17339,0.02166 -0.33628,0.04385 -0.47735,0.05599c-0.09022,0.012 -0.1946,0.01207 -0.30615,0.00739c-0.2444,0.67593 -0.59512,1.10247 -0.56526,1.59632c0.41262,-0.00142 0.82639,-0.01633 1.23823,-0.01633zM225.07932,159.93721l0.06616,-0.00012c-0.327,-0.50697 -0.51336,-1.20487 -1.012,-1.5286c-0.33755,-0.21914 -0.84335,-0.21025 -1.31585,-0.1619c0.12265,0.57479 0.20648,1.1287 0.1837,1.68722c0.69329,0.02863 1.41137,0.08673 2.07799,0.0034zM222.74909,161.1892c-0.15673,0.42632 -0.28175,0.75963 -0.3226,1.21844c-0.00872,0.098 -0.08212,0.18884 -0.12051,0.2729c0.00043,0.0065 0.00084,0.01301 0.00122,0.01951c0.00386,0.01736 0.00387,0.02991 0.00387,0.02991l-0.00227,0.00085c0.00147,0.03281 0.00225,0.06558 0.00227,0.09831l-0.01552,-0.00581c0.00275,0.00544 0.00598,0.01085 0.00973,0.01622c0.1294,-0.22542 0.32983,-0.61354 0.43756,-0.69177c0.73912,-0.53677 1.65668,-1.12132 2.26705,-1.93669c-0.6536,0.0698 -1.35257,0.01338 -2.02741,-0.01373c-0.03369,0.32603 -0.10704,0.65498 -0.23337,0.99187zM221.4097,160.95513c-0.24094,-0.28062 -0.37363,-0.52623 -0.43128,-0.7559c-0.43602,-0.00467 -0.87025,-0.02921 -1.29977,-0.10542c0.8413,0.84758 1.54294,1.86193 2.36133,2.74885c-0.01087,-0.06865 -0.01169,-0.14618 -0.00471,-0.22977c-0.06017,-0.5804 -0.34922,-1.17137 -0.62556,-1.65776zM221.4947,158.32385c-0.30114,-0.01968 -0.61263,-0.03349 -0.8195,0.07591c-0.29601,0.15654 -0.84662,0.89816 -1.12689,1.39917c0.45964,0.0987 0.92612,0.1303 1.39491,0.13664c-0.00909,-0.5051 0.30851,-0.96554 0.55149,-1.61172zM219.18229,160.19885c-0.14743,-0.08346 -0.07896,-0.26238 -0.07896,-0.26238c0.20575,-0.51702 0.99189,-1.6661 1.43968,-1.89989c0.40805,-0.21304 1.06068,-0.0387 1.50356,-0.09854c0.58361,-0.05036 1.2825,-0.16617 1.86363,-0.04784c0.7766,0.15813 1.29465,1.2964 1.59038,2.07259c-0.15835,0.48951 -0.40947,0.58016 -0.72279,0.89624c-0.63313,0.63869 -1.16052,1.1208 -1.86298,1.6268c-0.42173,0.30378 -0.24343,0.82415 -0.81749,0.89714c-1.0468,-0.87128 -1.76826,-2.15993 -2.75559,-3.10936l-0.1042,-0.03459c0,0 -0.02761,-0.0121 -0.05524,-0.04016z" fill="#000000"/><path d="M221.19605,159.94645c-0.02987,-0.49385 0.32646,-0.94287 0.57085,-1.6188c0.11155,0.00468 0.22107,0.00428 0.31129,-0.00771c0.14106,-0.01214 0.30979,-0.03205 0.48318,-0.05371c0.12219,0.56561 0.21024,1.12345 0.18694,1.66812c-0.09947,-0.00267 -0.20065,-0.00247 -0.29843,-0.00247c-0.41184,0 -0.8412,0.01317 -1.25383,0.01458z" data-paper-data="{&quot;noHover&quot;:false,&quot;origItem&quot;:[&quot;Path&quot;,{&quot;applyMatrix&quot;:true,&quot;segments&quot;:[[[728.42112,606.00227],[-3.11498,0],[0.73964,0]],[[730.66,606.03456],[-0.75236,-0.02021],[0.17621,-4.11959]],[[729.25707,593.57265],[0.92422,4.27801],[-1.31144,0.16379]],[[725.64666,593.99607],[1.06693,-0.09176],[-0.68236,0.09073]],[[723.33106,594.05197],[0.84371,0.03543],[-1.84849,5.11241]],[[719.05574,606.12576],[-0.22589,-3.73525],[3.12088,-0.0107]]],&quot;closed&quot;:true}]}" fill="#0087ff"/><path d="M222.99127,159.94238c0.02278,-0.55853 -0.06165,-1.12882 -0.1843,-1.70361c0.47249,-0.04835 0.9918,-0.06235 1.32935,0.1568c0.49865,0.32374 0.6929,1.04227 1.0199,1.54924l-0.06638,0.00042c-0.66662,0.08333 -1.40528,0.02578 -2.09857,-0.00285z" data-paper-data="{&quot;noHover&quot;:false,&quot;origItem&quot;:[&quot;Path&quot;,{&quot;applyMatrix&quot;:true,&quot;segments&quot;:[[[748.35898,606.1292],[-5.04204,0.63026],[0,0]],[[748.8594,606.12829],[0,0],[-2.47329,-3.83451]],[[741.20507,594.56666],[3.77153,2.44856],[-2.55308,-1.65751]],[[731.25262,593.34214],[3.57372,-0.36568],[0.92771,4.34742]],[[732.64206,606.10348],[0.17229,-4.22441],[5.24368,0.21654]]],&quot;closed&quot;:true}]}" fill="#0087ff"/><path d="M220.94931,159.9473c-0.46879,-0.00634 -0.95221,-0.04213 -1.41185,-0.14083c0.28028,-0.50101 0.84448,-1.26309 1.1405,-1.41964c0.20687,-0.1094 0.52583,-0.09105 0.82697,-0.07137c-0.24298,0.64618 -0.56471,1.12675 -0.55562,1.63184z" data-paper-data="{&quot;noHover&quot;:false,&quot;origItem&quot;:[&quot;Path&quot;,{&quot;applyMatrix&quot;:true,&quot;segments&quot;:[[[721.24666,593.92656],[-1.83778,4.88737],[-2.27769,-0.14884]],[[715.04833,594.50073],[1.56466,-0.82744],[-2.23892,1.18402]],[[706.52505,605.08333],[2.11987,-3.78943],[3.47652,0.74654]],[[717.07546,606.1168],[-3.54571,-0.04794],[-0.06878,-3.82032]]],&quot;closed&quot;:true}]}" fill="#0087ff"/><path d="M222.97647,160.18554c0.67485,0.02711 1.38932,0.08614 2.04292,0.01635c-0.61037,0.81538 -1.52658,1.40157 -2.2657,1.93834c-0.10773,0.07823 -0.30959,0.46461 -0.43899,0.69004c-0.00375,-0.00538 -0.02594,0.00764 -0.02869,0.0022l0.01558,0.00589c-0.00003,-0.03273 -0.00117,-0.06588 -0.00264,-0.09869l0.00228,-0.00085c0,0 -0.00012,-0.01268 -0.00398,-0.03005c-0.00038,-0.0065 -0.00086,-0.01309 -0.00129,-0.0196c0.03839,-0.08406 0.1111,-0.17578 0.11982,-0.27378c0.04085,-0.45881 0.16416,-0.80441 0.32088,-1.23073c0.12634,-0.33688 0.20612,-0.6731 0.23981,-0.99913z" data-paper-data="{&quot;noHover&quot;:false,&quot;origItem&quot;:[&quot;Path&quot;,{&quot;applyMatrix&quot;:true,&quot;segments&quot;:[[[730.73419,615.59871],[0.95554,-2.54801],[-1.18538,3.2245]],[[728.29418,624.81441],[0.30897,-3.47023],[-0.06599,0.74121]],[[727.38268,626.8785],[0.29037,-0.63579],[0.00327,0.04919]],[[727.39188,627.02605],[-0.00286,-0.04918],[0.02923,0.13132]],[727.42112,627.25227],[[727.40389,627.25873],[0,0],[0.01115,0.24813]],[[727.42112,628.00227],[-0.00024,-0.24753],[0,0]],[[727.30378,627.95827],[0,0],[0.02078,0.04117]],[[727.37732,628.08101],[-0.02834,-0.04066],[0.97876,-1.70501]],[[730.68682,622.84875],[-0.8148,0.59173],[5.59034,-4.0599]],[[747.83367,608.20055],[-4.61656,6.16713],[-4.94349,0.52788]],[[732.49929,608.09671],[5.1042,0.20502],[-0.25481,2.46597]]],&quot;closed&quot;:true}]}" fill="#003aff"/><path d="M222.72748,160.17828c-0.03289,0.29728 -0.09674,0.60885 -0.21323,0.91949c-0.07577,0.21102 -0.23049,0.56663 -0.3393,0.91213c-0.13153,-0.42361 -0.35228,-0.85426 -0.55945,-1.21532c-0.19194,-0.2243 -0.30624,-0.42292 -0.36696,-0.60497c0.39522,-0.00212 0.80571,-0.01657 1.20066,-0.01657c0.0912,0 0.18562,0.00291 0.27828,0.00524z" data-paper-data="{&quot;noHover&quot;:false,&quot;origItem&quot;:[&quot;Path&quot;,{&quot;applyMatrix&quot;:true,&quot;segments&quot;:[[[728.42112,608.00227],[0.6898,0],[-2.98721,0]],[[719.4482,608.11554],[2.98925,-0.01605],[0.45923,1.37695]],[[722.23853,612.67622],[-1.45176,-1.69652],[1.56696,2.73089]],[[726.37177,621.70809],[-0.99481,-3.204],[0.82304,-2.61326]],[[728.85804,614.90583],[-0.5731,1.59599],[0.88103,-2.34951]],[[730.50785,608.03029],[-0.24875,2.24851],[-0.70089,-0.01763]]],&quot;closed&quot;:true}]}" fill="#003aff"/><path d="M222.04474,162.62212c-0.00697,0.08359 -0.00702,0.16192 0.00385,0.23057c-0.81839,-0.88691 -1.53726,-1.92132 -2.37856,-2.7689c0.42952,0.07621 0.8736,0.09762 1.30962,0.10229c0.05766,0.22966 0.19878,0.47942 0.43972,0.76004c0.27635,0.4864 0.5652,1.0956 0.62537,1.676z" data-paper-data="{&quot;noHover&quot;:false,&quot;origItem&quot;:[&quot;Path&quot;,{&quot;applyMatrix&quot;:true,&quot;segments&quot;:[[[720.6037,613.82832],[2.09018,3.67887],[-1.82233,-2.12248]],[[717.34171,608.11108],[0.43605,1.73707],[-3.29784,-0.03532]],[[707.51086,607.31373],[3.24866,0.57644],[6.36321,6.41069]],[[725.37082,628.10468],[-6.18989,-6.70818],[-0.08224,-0.51923]],[[725.33518,626.36682],[-0.05276,0.63223],[-0.45507,-4.38984]]],&quot;closed&quot;:true}]}" fill="#1900ff"/></g></g></g></svg>