<svg version="1.1" xmlns="http://www.w3.org/2000/svg" xmlns:xlink="http://www.w3.org/1999/xlink" width="73.17603" height="88.1094" viewBox="0,0,73.17603,88.1094"><defs><radialGradient cx="234.83749" cy="147.15084" r="7.3941" gradientUnits="userSpaceOnUse" id="color-1"><stop offset="0" stop-color="#ffffff"/><stop offset="1" stop-color="#fcff00"/></radialGradient></defs><g transform="translate(-201.2274,-131.31805)"><g data-paper-data="{&quot;isPaintingLayer&quot;:true}" fill-rule="nonzero" stroke-linecap="butt" stroke-linejoin="miter" stroke-miterlimit="10" stroke-dasharray="" stroke-dashoffset="0" style="mix-blend-mode: normal"><path d="M217.7358,172.27062c-0.77216,-2.48467 -0.29029,-5.7399 -0.29029,-8.30825c0,-2.96096 -0.43199,-4.93507 1.84451,-7.32513c2.31144,-2.42674 7.59316,-3.61389 10.70158,-3.91626c3.55974,-0.64772 9.19036,-1.69513 12.64114,-0.0867c7.84245,3.65539 8.58965,14.06071 6.12712,21.01507c-0.48377,1.36621 -0.50518,2.90941 -1.20841,4.1767c-0.24226,0.43656 -0.53075,0.84179 -0.84283,1.23115c0.82109,0.13587 1.61808,0.37518 2.36885,0.78318c2.95912,1.60809 4.33273,5.01813 5.79077,7.96399c4.75497,5.57603 6.60176,13.74452 7.4356,20.8423c0.17998,1.53206 2.0425,4.02786 1.46427,5.4893c-1.35608,3.42738 -5.04255,3.54865 -8.31474,2.68243c-2.04451,0.15152 -4.29258,-0.22497 -6.05438,-0.14547c-4.82546,0.21773 -9.49659,1.56595 -14.28122,1.95085c-3.31719,0.26686 -6.77692,0.0043 -10.10502,0.0043c-2.71555,0 -5.74556,0.26373 -8.45624,-0.01279c-2.33755,-0.23846 -4.58245,-1.24177 -6.93695,-1.51828c-1.36111,-0.15985 -4.99262,-0.32203 -6.09988,-1.09707c-2.27967,-1.59566 -1.84379,-2.67347 -1.91835,-4.93909l0.2502,-1.42c0,0 0.00514,-0.02569 0.01732,-0.07007c-0.37961,-9.58019 2.41995,-19.99336 10.14377,-26.10811c2.81445,-2.22813 6.893,-3.24012 10.27174,-4.24355c0,0 0.16857,-0.00292 0.47473,-0.00812c-2.29637,-1.77944 -4.15208,-4.13699 -5.02328,-6.94037z" fill="#000000" stroke="none" stroke-width="0.5"/><path d="M234.31558,196.8762c0.28271,-0.10121 0.48542,-0.37403 0.48542,-0.69154l0.00059,-0.7835l-0.10229,0.00008c0.39616,-1.55022 0.39481,-3.00774 0.61925,-4.71231c0.45992,-3.49295 4.48861,-6.9494 7.41774,-7.93299c0.99995,-0.59406 1.87144,-1.21859 2.99499,-1.51689c4.78345,-1.26999 7.96347,4.41218 9.52221,8.00179c3.80105,4.82144 3.78569,11.12539 6.46566,16.47107c0.61732,2.50332 2.07238,5.81835 1.15798,8.3661c-0.28706,0.79982 -0.60382,2.02326 -1.59299,2.27642c-1.76341,0.45132 -4.35531,-0.28067 -6.19412,-0.28067c-1.84342,0 -4.30686,-0.42344 -6.08546,0.03446c-2.04957,0.52766 -4.74497,1.268 -6.94519,0.5418c-0.93832,-0.3097 -1.99074,-2.97075 -2.71787,-3.69788c-3.05944,-4.59534 -5.43268,-10.5064 -5.02593,-16.07594z" data-paper-data="{&quot;noHover&quot;:false,&quot;origItem&quot;:[&quot;Path&quot;,{&quot;applyMatrix&quot;:true,&quot;segments&quot;:[[[500.75666,413.62379],[-6.27282,-9.4219],[1.49084,1.49084]],[[506.30867,421.19504],[-1.92386,-0.63499],[4.51115,1.48895]],[[520.51152,420.07774],[-4.20227,1.08187],[3.64669,-0.93883]],[[532.95531,420.01338],[-3.77959,0],[3.77014,0]],[[545.63151,420.60154],[-3.61555,0.92535],[2.0281,-0.51907]],[[548.88782,415.94226],[-0.58856,1.63989],[1.87481,-5.22369]],[[546.49317,398.81617],[1.26571,5.1326],[-5.49479,-10.96033]],[[533.26982,365.17432],[7.79335,9.88547],[-3.19592,-7.35983]],[[513.81848,348.78359],[9.80757,-2.60388],[-2.30363,0.61161]],[[507.69578,351.88891],[2.05022,-1.218],[-6.00564,2.01667]],[[492.53746,368.11292],[0.94298,-7.16164],[-0.46018,3.49489]],[[491.27968,377.74681],[0.81225,-3.17843],[0,0]],[491.48936,377.74681],[[491.48936,379.34803],[0,0],[0,0.65099]],[[490.49501,380.76066],[0.57964,-0.20751],[-0.83396,11.41929]]],&quot;closed&quot;:true}]}" fill="#ce8900" stroke="none" stroke-width="0.5"/><path d="M217.84599,181.74105c5.50779,-1.91818 9.6508,2.04125 13.15072,5.49501c2.55131,1.53078 1.58197,4.75849 1.891,7.34865c-0.08431,0.05347 -0.17277,0.11247 -0.26575,0.17678c-0.24244,0.1677 -1.02084,3.5144 -1.1032,4.04621c-0.4555,2.94133 0.29406,6.02439 -0.26292,8.98492c-0.3145,1.67168 -1.41091,3.2417 -1.44708,4.86639c-1.33418,4.55483 -4.46081,6.06268 -8.89405,4.99859c-2.31558,-0.5558 -5.06127,0.0754 -7.43895,-0.2609c-1.55083,-0.51846 -2.95672,-1.96565 -4.4889,-2.22776c-1.39175,-0.23808 -5.25638,0.79431 -5.96022,-1.1281c-0.56939,-1.55518 -0.47261,-4.11083 -0.47261,-5.84771c0,-5.96542 1.7643,-12.59949 4.71247,-17.76386c1.17339,-1.76118 2.07383,-4.26594 3.46365,-5.77793c1.47765,-1.60753 4.13412,-2.61681 6.20225,-3.30071l-0.09674,0.13498c0,0 0.04594,-0.09744 0.12021,-0.11065c0.26079,0.57512 0.8901,0.3661 0.8901,0.3661z" data-paper-data="{&quot;noHover&quot;:false,&quot;origItem&quot;:[&quot;Path&quot;,{&quot;applyMatrix&quot;:true,&quot;segments&quot;:[[[455.01807,349.06351],[0.5347,1.17917],[-0.15226,0.02707]],[454.76261,349.09058],[[454.97008,349.01361],[0,0],[-4.24032,1.40221]],[[442.29154,355.7718],[3.02964,-3.29594],[-2.84957,3.10005]],[[435.22278,367.59377],[2.40581,-3.61097],[-6.04468,10.58859]],[[425.57264,403.9],[0,-12.23098],[0,3.56115]],[[426.52593,415.86884],[-1.16742,-3.1886],[1.44309,3.94154]],[[438.72385,418.16466],[-2.85353,-0.48814],[3.14146,0.5374]],[[447.90177,422.7222],[-3.17969,-1.063],[4.875,0.68952]],[[463.11332,423.25594],[-4.74766,-1.13956],[9.08952,2.18171]],[[481.29838,413.03238],[-2.73548,9.33883],[0.07416,-3.33112]],[[484.24772,403.07638],[-0.64483,3.42747],[1.14198,-6.07]],[[484.77255,384.71201],[-0.93391,6.03065],[0.16886,-1.09037]],[[487.0392,376.44114],[-0.49708,0.34383],[0.19063,-0.13186]],[[487.58424,376.0792],[-0.17287,0.10963],[-0.63362,-5.31065]],[[483.72885,361.04888],[5.23099,3.13859],[-7.17594,-7.08129]],[[456.83816,349.81422],[11.29269,-3.93287],[0,0]]],&quot;closed&quot;:true}]}" fill="#ce8900" stroke="none" stroke-width="0.5"/><path d="M219.00772,150.59425c6.48472,-4.54687 13.51929,-4.25169 20.92408,-3.69562c1.76507,0.78627 3.67021,1.7078 5.5234,2.26906c0.95885,0.2904 2.7615,0.31813 3.53495,0.9864c1.38947,1.20052 1.86911,3.78556 2.89886,5.26328c1.11201,1.59577 2.12123,2.99035 2.82326,4.82474c0.4323,0.59085 -1.19277,-0.16376 -1.61563,-0.23328c-1.97232,-0.32425 -3.99994,-0.51281 -5.98052,-0.82142c-4.69168,-0.73104 -9.78237,-0.90731 -14.53154,-0.90731c-4.24054,0 -8.75819,-0.45665 -12.97641,-0.02638c-1.69111,0.1725 -3.37193,0.84447 -5.05777,0.81584c0,0 -0.3281,0.00015 -0.54485,0.21991c1.08945,-2.92959 2.52832,-6.5322 5.00216,-8.69522z" data-paper-data="{&quot;noHover&quot;:false,&quot;origItem&quot;:[&quot;Path&quot;,{&quot;applyMatrix&quot;:true,&quot;segments&quot;:[[[448.8504,303.44363],[2.23371,-6.00658],[0.44442,-0.45058]],[[449.9676,302.99305],[0,0],[3.45649,0.05869]],[[460.33656,301.31678],[-3.4673,0.35368],[8.64866,-0.88219]],[[486.88267,301.30783],[-8.69443,0],[9.73728,0]],[[516.54983,303.22092],[-9.61942,-1.49887],[4.06081,0.63274]],[[528.80866,304.91299],[-4.04388,-0.66482],[0.86699,0.14253]],[[532.12075,305.39264],[0.88635,1.21143],[-1.4394,-3.76108]],[[526.3277,295.52105],[2.27998,3.27184],[-2.11131,-3.02979]],[[520.38613,284.76296],[2.84886,2.46144],[-1.58582,-1.37016]],[[513.14278,282.75469],[1.96594,0.59541],[-3.79962,-1.15076]],[[501.84704,278.14247],[3.61894,1.6121],[-15.18214,-1.14012]],[[459.10838,285.66163],[13.29571,-9.32252],[-5.07215,4.43486]]],&quot;closed&quot;:true}]}" fill="#ce8900" stroke="none" stroke-width="0.5"/><path d="M225.52556,158.66807c-0.35498,0.00099 -0.70998,0.00165 -1.06497,0.00223c0,0 -0.7316,0 -0.7316,-0.7316c0,-0.4345 0.25806,-0.61095 0.46765,-0.6826c0.26913,-0.35275 0.74961,-0.23263 0.74961,-0.23263l0.41097,0.10274c0.11286,0.02838 0.2262,0.0557 0.34,0.08201c5.15611,-0.00184 10.323,-0.10596 15.35916,-1.1155c2.87316,-0.63755 6.26219,-1.74763 7.96719,-4.31337l0.40467,-0.607c0.13026,-0.2017 0.35705,-0.33522 0.61502,-0.33522c0.37975,0 0.69192,0.28933 0.72809,0.65958l0.10177,0.9159l-0.03749,0.00417c0.56695,1.49124 1.06089,2.87049 1.96784,4.31006c0.06923,-0.02172 0.14289,-0.03343 0.21928,-0.03343c0.33998,0 0.6258,0.23191 0.70789,0.54616l0.1964,0.68739c0.02131,0.06863 0.03279,0.14159 0.03279,0.21724c0,0.082 -0.01349,0.16084 -0.03837,0.23444c0.95512,0.67182 2.14196,2.47854 1.5382,3.18096c-0.67018,0.77969 -2.72642,-0.24456 -3.53712,-0.32438c-3.66311,-0.36065 -7.17524,-1.7417 -10.85858,-2.15508c-5.00921,0.00729 -10.64676,0.6624 -15.5384,-0.41206z" fill="#ab7200" stroke="none" stroke-width="0.5"/><path d="M231.49135,186.61846c0.38006,0.12332 0.46757,0.56088 0.46757,0.56088l0.09953,0.49848c0.26693,1.20866 0.5095,2.35123 0.81018,3.55012c0.87315,2.64558 -0.76649,4.28404 -1.0018,6.74936c-0.39393,4.12715 1.38023,9.92024 -0.94124,13.5874c-1.13821,1.70239 -1.84979,4.33964 -3.2764,5.76229c-2.12318,2.11727 -9.17879,1.49638 -11.74395,0.51077c-3.45925,0.04528 -7.37034,-0.93137 -10.66385,-1.76626c-0.91564,-0.23211 -3.5044,-1.73111 -2.76182,-3.05503c0.28501,-0.50813 4.46481,-0.72401 5.08517,-0.82724c3.47556,-0.86603 6.01446,-2.57323 9.19799,-3.95771c2.93341,-1.2757 6.01767,-2.51758 7.9177,-5.39932c0.37638,-0.49631 0.99038,-0.75707 1.46018,-1.16607c1.43189,-1.24657 1.25099,-4.415 1.61108,-6.0695c0.64435,-2.9606 1.91576,-5.60036 2.46184,-8.61016c0,0 0.13087,-0.7198 0.85066,-0.58892c0.20235,0.03679 0.33747,0.12012 0.42717,0.22092z" fill="#ab7200" stroke="none" stroke-width="0.5"/><path d="M256.41633,191.29612c0.09602,-0.08904 0.23346,-0.15799 0.42981,-0.1798c0.72712,-0.08079 0.80792,0.64633 0.80792,0.64633c0.04863,0.44974 0.09581,0.90141 0.13942,1.35442c1.52621,2.3757 2.47744,5.19456 3.34014,7.81129c0.21874,1.81694 1.27385,2.61103 2.00983,4.1797c1.04812,2.23396 1.39604,9.23325 -0.44523,11.17695c-0.77258,0.81556 -1.88921,0.7409 -2.89453,0.74254c-2.90829,0 -6.04317,-1.0349 -8.85869,-0.72356c-1.20097,0.1328 -2.08134,0.85432 -3.19948,1.11496c-1.32056,0.30782 -3.14317,0.29481 -4.72169,0.12138l0.01102,0.0992l-0.91411,0.10156c-0.02993,0.00373 -0.06042,0.00565 -0.09135,0.00565c-0.40405,0 -0.7316,-0.32754 -0.7316,-0.7316c0,-0.24894 0.12434,-0.46885 0.3143,-0.60099l0.71126,-0.50804l0.01731,0.02425l0.04913,-0.0665c4.38561,-1.9035 8.28373,-3.36797 11.10111,-7.48222c0.45986,-1.5698 1.34863,-2.79326 1.93226,-4.26893c1.33543,-3.37651 1.28879,-6.97274 0.95421,-10.50491z" fill="#ab7200" stroke="none" stroke-width="0.5"/><path d="M210.94869,217.62142l-0.51076,-0.00995c-1.59742,-0.27184 -3.3387,-0.38053 -4.95597,-0.38053c0,0 -0.7316,0 -0.7316,-0.7316c0,-0.00465 0.00003,-0.00928 0.00009,-0.01387c-1.26649,-0.14419 -2.39201,-0.59948 -2.93808,-1.91888c-0.70142,-1.69475 -0.57633,-4.52355 -0.57633,-6.3975c0,-6.23126 1.84347,-13.08893 4.92519,-18.47689c1.23551,-1.85225 2.13604,-4.31695 3.581,-5.94849c1.61766,-1.82652 4.53511,-2.96137 6.83231,-3.73248l0.36151,-0.03755c0,0 0.48251,0 0.66382,0.39185c5.96191,-1.85592 10.50936,1.82959 14.36435,5.75047c1.65652,0.99391 2.08401,2.37778 2.18781,3.88894c0.9826,-3.83098 4.52275,-7.38883 7.98972,-8.53256c6.72782,-4.09018 11.70635,0.82173 14.33976,7.05697c3.91779,4.80744 3.88019,11.26566 6.5666,16.65255c0.80004,3.16601 3.65704,11.11682 -1.40199,12.54313c-1.90578,0.5373 -4.58962,-0.23377 -6.57314,-0.23377c-1.6598,0 -4.0663,-0.47164 -5.6452,-0.03139c-2.15484,0.60084 -5.609,1.47933 -7.9111,0.49634c-1.45075,-0.61947 -2.20345,-3.04085 -3.27949,-4.11689c-2.54724,-3.81706 -4.60254,-8.38323 -5.19807,-13.02303c0.04349,2.40436 0.15246,4.88415 -0.28668,7.23386c-0.29823,1.59574 -1.46766,3.27216 -1.42504,4.77601c-1.48844,5.30584 -5.3881,7.58583 -10.65463,6.20744c-2.25144,-0.58926 -5.07672,0.07688 -7.41913,-0.26032c-0.68779,-0.22861 -1.42491,-0.71271 -2.1526,-1.17043c-0.0892,0.01856 -0.15236,0.01856 -0.15236,0.01856zM217.06066,181.42368c-0.07426,0.0132 -0.1246,0.0132 -0.1246,0.0132l0.10119,-0.03754c-2.06813,0.6839 -4.70606,1.68864 -6.18371,3.29617c-1.38982,1.51199 -2.27426,4.00475 -3.44765,5.76593c-2.94817,5.16437 -4.70666,11.74223 -4.70666,17.70764c0,1.73688 -0.10444,4.28239 0.46495,5.83756c0.70384,1.92241 4.55754,0.88166 5.94929,1.11974c1.53218,0.26211 2.92552,1.70439 4.47635,2.22285c2.37768,0.3363 5.10355,-0.29548 7.41913,0.26032c4.43323,1.06409 7.53523,-0.43151 8.8694,-4.98634c0.03617,-1.62469 1.12398,-3.18416 1.43848,-4.85584c0.55698,-2.96052 -0.19952,-6.01553 0.25598,-8.95686c0.08236,-0.53181 0.86307,-3.86626 1.10551,-4.03395c0.09298,-0.06431 0.18152,-0.12306 0.26583,-0.17653c-0.30904,-2.59016 0.67092,-5.79996 -1.88039,-7.33074c-3.49992,-3.45376 -7.60761,-7.39766 -13.1154,-5.47948c0,0 -0.62692,0.20897 -0.88771,-0.36614zM239.36875,212.91167c0.72713,0.72713 1.76956,3.38302 2.70788,3.69273c2.20022,0.72621 4.87758,-0.01728 6.92716,-0.54494c1.7786,-0.4579 4.22579,-0.03139 6.06921,-0.03139c1.83881,0 4.41915,0.73818 6.18256,0.28686c0.98917,-0.25317 1.30114,-1.47265 1.5882,-2.27247c0.9144,-2.54775 -0.55062,-5.84959 -1.16794,-8.35291c-2.67997,-5.34568 -2.64837,-11.5867 -6.44943,-16.40814c-1.55875,-3.58961 -4.70356,-9.26424 -9.487,-7.99425c-1.12355,0.2983 -1.98627,0.9205 -2.98623,1.51456c-2.92913,0.98359 -6.93325,4.41999 -7.39317,7.91294c-0.22444,1.70456 -0.2173,3.14852 -0.61346,4.69874h0.10227v0.78096c0,0.31751 -0.20227,0.58777 -0.48497,0.68898c-0.40675,5.56953 1.94547,11.43299 5.00492,16.02834z" fill="#6c4800" stroke="none" stroke-width="0.5"/><path d="M230.72166,198.50926c0.50099,-0.64423 1.08123,-1.69175 1.54254,-2.29812c-1.79582,-0.66871 -5.44663,-3.23387 -5.44783,-4.28126c-0.00249,-2.16068 0.88227,-1.75206 2.21101,-1.38985c1.89526,0.51664 3.77471,2.06274 4.76703,3.771c0.24206,-0.17584 0.50702,-0.43704 0.81109,-0.80335c0.9658,-0.94302 3.28059,-2.62598 4.75472,-1.91579c1.37193,0.66094 1.21664,2.69172 0.32086,3.63428c-0.85544,0.90013 -2.67878,1.36843 -4.20089,1.55901c0.46376,0.56523 0.92002,1.25674 1.29339,1.50848l0.03227,0.09458l0.03206,-0.02671l0.51063,0.61276c0.10771,0.12741 0.17264,0.29215 0.17264,0.47204c0,0.40405 -0.32754,0.7316 -0.7316,0.7316c-0.15373,0 -0.29638,-0.04742 -0.41414,-0.12842l-0.60813,-0.40542l0.08799,-0.13198c-0.66309,-0.27928 -1.20014,-0.66069 -1.96365,-1.22204c-0.29214,-0.21478 -0.64374,-0.37009 -0.86915,-0.6541c-0.0126,-0.01588 -0.02192,-0.03844 -0.02861,-0.06521c-0.13608,1.13468 -0.88697,1.84499 -1.82712,2.5636l-1.17055,-0.8935c0,0 0,-0.72748 0.72543,-0.73158zM232.00549,194.25106c-1.00494,-1.18989 -2.53028,-1.87903 -3.82725,-2.67793c-0.20288,-0.12497 0.22285,0.43676 0.40762,0.58722c0.58376,0.47537 1.11293,0.75627 1.75871,1.08802c0.69862,0.3589 1.21674,0.7365 1.66092,1.00269zM234.98062,195.30695c0.33802,-0.07743 0.67312,-0.17955 1.00659,-0.2669c0.64175,-0.1681 1.32692,-0.20237 1.93383,-0.47023c0.11488,-0.0507 1.83844,-1.41328 0.81855,-1.65289c-0.89671,-0.21067 -2.49207,0.99553 -3.05364,1.57743c-0.21409,0.25596 -0.44775,0.54219 -0.70533,0.81259z" fill="#fff700" stroke="none" stroke-width="0.5"/><path d="M213.15901,160.82788c-0.7316,0 -0.7316,-0.7316 -0.7316,-0.7316l0.04658,-0.77058c1.27337,-3.3313 2.80782,-7.36002 5.67901,-9.8739c6.84145,-4.78214 14.25105,-4.6446 22.10106,-3.93556c1.8186,0.75815 3.69775,1.71027 5.58682,2.27111c1.27432,0.37833 3.00133,0.40761 4.07008,1.28082c1.54587,1.26303 2.03577,3.95284 3.14746,5.53305c1.23535,1.75598 2.29501,3.33455 3.04723,5.36452c-0.06751,0.52417 0.14273,1.17239 -0.20254,1.57252c-0.63893,0.74046 -4.9327,-0.05134 -5.86337,-0.20444c-5.7534,-0.94644 -11.55457,-1.63611 -17.43777,-1.63611c-4.19191,0 -8.6168,-0.4115 -12.78768,-0.00437c-1.75817,0.17162 -3.45766,0.80462 -5.21691,0.8263c0,0 -0.7316,0 -0.7316,-0.7316c0,-0.00257 0.00001,-0.00512 0.00003,-0.00767c-0.00728,0.01972 -0.01455,0.03941 -0.0218,0.05906l0.04658,0.25682c0,0 0,0.7316 -0.7316,0.7316zM214.0525,159.27623c0.21676,-0.21976 0.54489,-0.21976 0.54489,-0.21976c1.68583,0.02862 3.36615,-0.64507 5.05725,-0.81757c4.21821,-0.43027 8.7068,-0.00437 12.94734,-0.00437c4.74916,0 9.77789,0.20203 14.46957,0.93307c1.98058,0.30861 4.00668,0.50102 5.979,0.82527c0.42286,0.06952 2.04771,0.82479 1.61541,0.23394c-0.70204,-1.83439 -1.71343,-3.2189 -2.82545,-4.81467c-1.02975,-1.47772 -1.50841,-4.04653 -2.89788,-5.24704c-0.77345,-0.66827 -2.57395,-0.68909 -3.5328,-0.97949c-1.85319,-0.56126 -3.74421,-1.46325 -5.50927,-2.24952c-7.40479,-0.55607 -14.36021,-0.87955 -20.84493,3.66732c-2.47384,2.16301 -3.91368,5.74323 -5.00313,8.67282z" fill="#6c4800" stroke="none" stroke-width="0.5"/><path d="M229.98115,153.03388c-2.84577,-0.81026 -5.33428,-6.87578 -3.32823,-9.409c1.92025,-2.42487 5.23482,-3.517 8.15141,-3.78035c4.31104,0.00517 10.19859,5.37226 8.53695,10.20476c-0.96276,2.79998 -2.94029,3.59345 -5.5001,4.50026c-2.59801,0.02497 -5.77856,0.07802 -7.86003,-1.51566zM228.51851,150.03281c0.07987,-0.20122 0.26036,-0.42858 0.66819,-0.42858c0.7316,0 0.7316,0.7316 0.7316,0.7316l-0.07724,0.28927c0.20285,0.41169 0.46254,0.75488 0.76629,1.04098c0.15993,0.02157 0.49947,0.10947 0.61057,0.46772c1.75495,1.09241 4.40139,0.95049 6.3694,0.97474c2.08514,-0.78274 3.53232,-1.24345 4.3631,-3.51359c1.39137,-3.80201 -3.80801,-8.29357 -7.07977,-8.28873c-2.02838,0.18573 -6.86412,1.3232 -7.33134,3.83892c-0.20357,1.09612 0.1753,3.34154 0.97921,4.88768z" fill="#513600" stroke="none" stroke-width="0.5"/><path d="M227.49237,145.02913c0.46722,-2.51572 5.3502,-3.68869 7.37858,-3.87442c3.27177,-0.00483 8.51708,4.55101 7.12571,8.35302c-0.83078,2.27014 -2.30357,2.75953 -4.38871,3.54227c-1.96801,-0.02425 -4.66393,0.11279 -6.41888,-0.97962c-0.1111,-0.35826 -0.45534,-0.45008 -0.61527,-0.47164c-0.30374,-0.2861 -0.57013,-0.63713 -0.77298,-1.04882l0.07633,-0.29063c0,0 -0.00375,-0.73873 -0.73535,-0.73873c-0.40784,0 -0.58794,0.22822 -0.66781,0.42944c-0.80391,-1.54613 -1.18519,-3.82475 -0.98162,-4.92087z" data-paper-data="{&quot;noHover&quot;:false,&quot;origItem&quot;:[&quot;Path&quot;,{&quot;applyMatrix&quot;:true,&quot;segments&quot;:[[[478.51027,284.49173],[-1.64826,-3.17006],[0.16376,-0.41257]],[[479.88027,283.61301],[-0.83619,0],[1.5,0]],[481.38027,285.11301],[[481.22191,285.7061],[0,0],[0.4159,0.8441]],[[482.79304,287.84044],[-0.62277,-0.5866],[0.3279,0.04422]],[[484.04491,288.79942],[-0.2278,-0.73454],[3.59819,2.23978]],[[497.10418,290.79795],[-4.03503,-0.04972],[4.2752,-1.60487]],[[506.0499,283.59398],[-1.70335,4.65451],[2.85275,-7.79532]],[[491.53414,266.59947],[6.70815,-0.00991],[-4.15882,0.38081]],[[476.50259,274.47046],[0.95794,-5.15802],[-0.41738,2.24739]]],&quot;closed&quot;:true}]}" fill="url(#color-1)" stroke="none" stroke-width="0.5"/><text transform="translate(256.38163,161.50618) scale(0.69398,0.69398)" font-size="40" xml:space="preserve" fill="#000000" fill-rule="nonzero" stroke="#000000" stroke-width="3" stroke-linecap="butt" stroke-linejoin="miter" stroke-miterlimit="10" stroke-dasharray="" stroke-dashoffset="0" font-family="&quot;Microsoft YaHei&quot;, &quot;微软雅黑&quot;, STXihei, &quot;华文细黑&quot;" font-weight="normal" text-anchor="start" style="mix-blend-mode: normal"><tspan x="0" dy="0">2</tspan></text></g></g></svg>