<svg version="1.1" xmlns="http://www.w3.org/2000/svg" xmlns:xlink="http://www.w3.org/1999/xlink" width="63.39297" height="44.26634" viewBox="0,0,63.39297,44.26634"><g transform="translate(-208.32654,-157.86683)"><g data-paper-data="{&quot;isPaintingLayer&quot;:true}" fill-rule="nonzero" stroke-linecap="butt" stroke-linejoin="miter" stroke-miterlimit="10" stroke-dasharray="" stroke-dashoffset="0" style="mix-blend-mode: normal"><path d="M215.57986,161.62146c0.35631,0.1265 0.69475,0.14475 1.15024,0.43142c1.1363,0.71514 1.19387,2.70627 2.13712,3.57008c0.77162,0.70664 3.06478,1.78492 3.35336,3.10879c0.11099,0.50917 0.12215,0.88576 0.06656,1.15405c0.63603,0.39325 1.2717,0.79066 1.47101,1.56139c0.01355,0.05236 0.02486,0.10525 0.03428,0.15856l0.02765,-0.01295l0.22345,0.74377c0.02371,0.07363 0.03675,0.15402 0.03675,0.23823c0,0.17823 -0.05845,0.33944 -0.15272,0.45536c0.08882,0.08916 0.16297,0.16526 0.21049,0.20554c0.2187,0.32268 1.32585,2.20233 1.77171,1.95237c0.82023,-0.45986 0.60123,-2.56731 1.13146,-3.3973c1.28563,-2.01242 3.14728,-3.4851 4.26446,-5.56793c0.24768,-0.76442 0.88383,-2.02074 1.38335,-2.62266c0.38754,-0.46699 1.30693,-0.04416 1.52773,-0.65745c0.21165,-0.58792 -0.27307,-1.47439 0.09199,-1.93024c0.5995,-0.74856 1.38442,0.48415 1.97269,0.4131c0.84765,-0.10239 3.63516,-1.48565 4.25465,-0.27799c0.3193,0.62244 -0.44257,2.20402 -0.64773,2.75234c-1.78564,1.47856 -4.17002,4.39217 -5.17147,6.79741c-0.35822,0.86038 -0.48307,2.73373 -1.27241,3.1986c-0.23288,0.13715 -0.44485,0.20421 -0.63427,0.21574c-0.47131,1.47201 -1.28853,2.86514 -2.26327,3.55009c-0.02554,0.15048 -0.06719,0.29345 -0.12702,0.42334l-0.19985,-0.22398c-0.01015,0.00526 -0.02031,0.01043 -0.03048,0.01553l0.10457,0.30456l-0.07922,0.04237l0.01818,0.07941l-0.51967,0.18534c-0.04263,0.01653 -0.08766,0.02628 -0.13426,0.02827c-0.1013,1.68271 1.04379,3.23129 1.89713,4.7349c0.639,1.12593 0.83818,2.60772 1.34583,3.79973c0.65496,1.53789 1.66485,2.72578 2.67786,3.87519c1.08989,2.40454 2.92323,3.675 4.1867,5.89451c0.39593,0.69552 1.25767,2.29626 0.37105,3.10732c-0.03668,0.03355 -1.3589,-0.33984 -1.55621,-0.42219c-1.14906,-0.47954 -2.30385,-0.26443 -3.50451,-0.45294c-1.66563,-0.59226 -1.67348,-1.67584 -2.76319,-3.01519c-1.95949,-2.40837 -3.74076,-3.80338 -4.8867,-7.0146c-0.15005,-0.42048 -0.3127,-0.70737 -0.42318,-0.98943c-0.18741,-0.1917 -0.36691,-0.40262 -0.53452,-0.64543l-0.00263,-0.11758l-0.03598,0.01685l-0.22344,-0.74378c-0.02371,-0.07363 -0.03675,-0.15402 -0.03675,-0.23822c0,-0.10182 0.01907,-0.19808 0.053,-0.28352c-0.24789,-0.16494 -0.45968,-0.22263 -0.57961,-0.0767c-0.25032,0.30459 -0.38754,1.67709 -0.58752,2.04784c-1.11363,2.06458 -2.67678,3.843 -4.06459,5.56131c-0.65074,0.80571 -0.91792,1.66849 -1.77108,2.28543c-1.13576,1.01239 -1.73853,2.82979 -2.80379,3.78529c-1.01371,0.90926 -3.71079,0.50375 -4.90704,0.48229c-0.47837,-0.00858 -1.5866,0.11419 -1.57397,-1.03571c0.0024,-0.2182 0.8477,-0.90762 1.59641,-1.47467c0.00361,-0.00473 0.00723,-0.00944 0.01086,-0.01416l-0.04278,-0.04578l0.35759,-0.52075c0.62052,-1.67065 1.87568,-2.42323 2.91341,-3.84785c1.52179,-2.08915 2.60757,-4.69979 3.5022,-7.27766c0.90419,-1.51742 3.19161,-4.18251 2.76017,-6.31295c-0.10309,-0.50906 -1.11859,-1.14571 -1.34768,-1.48508c-0.6408,-0.94926 -0.6371,-2.32628 -1.1723,-3.37334c-0.11174,-0.21861 -0.43638,-0.70809 -0.68303,-1.13618c-0.11183,-0.13213 -0.2353,-0.28887 -0.37888,-0.4733l-0.00262,-0.1433l-0.04632,0.02168l-0.22344,-0.74377c-0.02371,-0.07363 -0.03675,-0.15402 -0.03675,-0.23823c0,-0.00786 0.00012,-0.01569 0.00034,-0.02348c-2.56155,-3.22446 -5.19927,-6.72851 -6.91725,-10.65518c0,0 -0.24521,-0.56115 0.20434,-0.86723c0.1996,-0.1359 0.35892,-0.10083 0.47438,-0.01983c0.08566,-0.20351 0.25665,-0.34229 0.45361,-0.34229c0.02427,0 0.04816,0.00211 0.07153,0.00618l0.59889,0.09345l-0.01041,0.10396c0.24293,0.02483 0.48492,0.04804 0.72459,0.07772c0.72099,0.06356 1.43324,0.28856 2.19118,0.60375l0.40756,0.20231c0,0 0.25889,0.12926 0.31818,0.43547z" fill="#00ffe6" stroke="none" stroke-width="0.5"/><path d="M220.00114,184.08709c-0.05114,-0.07747 -0.1035,-0.15386 -0.15733,-0.22895c0,0 -0.43593,-0.6103 0.17437,-1.04623c0.6103,-0.43593 1.04623,0.17437 1.04623,0.17437c0.70455,0.98942 1.16162,2.18251 1.88161,3.14571c0.33456,0.44757 1.30929,0.73867 1.42155,1.3071c0.14622,0.74042 -0.91195,2.2497 -1.27938,2.83823c-1.3828,2.21483 -3.35407,4.07455 -4.23846,6.66704c-1.45224,2.06883 -3.19961,2.68716 -5.66834,2.68239c-0.58386,-0.00113 -2.09621,0.09959 -2.4891,-0.45633c-1.16516,-1.64864 0.61416,-1.7987 1.08935,-2.80757c1.16627,-2.47608 2.16452,-4.98873 4.34144,-6.84014c0.80063,-1.91338 2.35519,-3.16152 3.31178,-4.91929z" fill="#00bdaa" stroke="none" stroke-width="0.5"/><path d="M232.90357,196.20925c-0.68349,-0.3486 -1.35906,-0.76184 -2.06721,-1.26765c0,0 -0.6103,-0.43593 -0.17437,-1.04623c0.43593,-0.6103 1.04623,-0.17437 1.04623,-0.17437c2.3298,1.66414 4.70571,1.79117 7.15637,3.0227c0.6593,0.33132 1.88562,1.08368 1.46425,2.14734c-0.36804,0.92904 -2.14144,0.7329 -2.78382,0.73571c-2.13598,0.00936 -3.31844,-0.26585 -4.57286,-2.12811c-0.10719,-0.56068 -0.12379,-0.98144 -0.06859,-1.28939z" fill="#00bdaa" stroke="none" stroke-width="0.5"/><path d="M245.58759,199.65787c0,-4.36832 -0.08394,-9.867 0.76247,-14.09311c-0.02327,-5.26913 0.87456,-11.26777 -0.14686,-16.37634c-0.20883,-2.08686 -0.00767,-4.18367 -0.00871,-6.27261c-0.00029,-0.59255 -0.15098,-1.95636 0.16612,-2.44571c1.23941,-1.91272 5.27675,-1.03557 7.04746,-1.03358c1.9044,0.24488 3.76951,0.58314 5.70056,0.75839c2.45088,0.22241 4.92414,-0.20985 7.09116,1.39458l0.39408,-0.14055l0.01832,0.08004c0.09594,-0.04287 0.19505,-0.06781 0.29903,-0.06538c0.04981,0.00116 0.39815,0.49609 0.72142,0.95437l0.06873,-0.1287l0.44278,0.36846c0.16214,0.01725 0.30274,0.1288 0.38643,0.29055l0.29905,0.55993l-0.09477,0.07886l0.04416,0.14698c1.93465,2.91424 1.65637,8.7921 -0.11359,11.67972c-0.39806,0.64942 -1.30623,0.89394 -1.86715,1.24466c-0.65745,0.31242 -0.70969,1.0873 -1.43261,1.35766c-0.81339,0.30418 -1.77541,-0.14574 -2.61448,0.10629c-2.89273,0.86885 -5.87253,0.87106 -8.86309,0.86731c-0.84706,-0.10573 -2.22762,-0.74952 -3.04066,-0.52135c-0.03024,0.00848 -0.68233,1.92384 -0.67034,2.04217c0.26127,2.57763 0.42318,4.99743 1.10308,7.55043l0.02765,0.0805l0.06361,-0.02269l0.14848,0.64868c0.01492,0.05997 0.02295,0.12371 0.02295,0.1898c0,0.28924 -0.15391,0.53361 -0.36508,0.61247l0.18707,0.70054l-0.02623,0.01092c0.13733,0.08725 0.23892,0.24955 0.2701,0.44363l0.14954,0.83997l-0.00317,0.00088l0.00524,0.01125c0.17572,1.21073 1.00748,3.20283 0.75239,4.3588c-0.12593,0.57067 -0.32017,1.08549 -0.568,1.54476c0.05161,0.74436 0.00244,1.39311 -0.23846,1.82443c-0.7112,1.2734 -2.73587,0.98367 -4.07449,1.01992c-0.13426,0.0133 -0.26834,0.02162 -0.40182,0.02495c-0.05792,0.00629 -0.11364,0.01387 -0.16692,0.02299l-0.01791,0.00745l0.01585,0.19782l-0.75179,0.09384c-0.01897,0.00266 -0.03826,0.00403 -0.05781,0.00403c-0.2548,0 -0.46613,-0.23228 -0.5055,-0.53647c-0.15831,-0.18927 -0.1583,-0.48152 -0.1583,-0.48152z" fill="#00aaff" stroke="none" stroke-width="0.5"/><path d="M221.43426,180.78831c-0.39339,0.40921 -0.72122,-0.08184 -0.72122,-0.08184l-0.36861,-0.55599c-1.23002,-2.68689 -3.14961,-4.75724 -4.4696,-7.39412c-1.58501,-4.48841 -5.44837,-7.31942 -7.04829,-11.80158c0,0 -0.15288,-0.42937 0.09844,-0.71547c0.05739,-0.52424 0.50606,-0.52424 0.50606,-0.52424c2.21017,0.00207 4.41228,0.43144 6.62288,0.42613h0.09581c0.11654,-0.03382 0.22308,0.00007 0.30524,0.04786c0.08516,0.03873 0.17968,0.10878 0.24293,0.23553c2.80976,3.50257 5.67594,6.6356 7.98178,10.75213c0.36333,0.79457 0.67171,1.61508 1.03626,2.41141l0.17775,0.62635c0,0 0.16193,0.6064 -0.32387,0.80853c-0.4858,0.20213 -0.64773,-0.40426 -0.64773,-0.40426l-0.09536,-0.39636c-0.35658,-0.77893 -0.65636,-1.58533 -1.01206,-2.36127c-2.24664,-4.00124 -5.03128,-7.04511 -7.76754,-10.44155c-2.0255,-0.00511 -4.04479,-0.36125 -6.06853,-0.41842c1.68922,4.12677 5.26941,6.8877 6.80064,11.15533c1.2977,2.59099 3.19738,4.62374 4.40643,7.26483l0.31416,0.46673c0,0 0.32783,0.49105 -0.06557,0.90026z" fill="#000000" stroke="#000000" stroke-width="1"/><path d="M229.38195,179.88806l0.31416,-0.46673c1.20905,-2.64109 3.10873,-4.67383 4.40643,-7.26483c1.53123,-4.26763 5.11142,-7.02856 6.80064,-11.15533c-2.02374,0.05717 -4.04303,0.41331 -6.06853,0.41842c-2.73626,3.39644 -5.5209,6.44031 -7.76754,10.44155c-0.3557,0.77594 -0.65548,1.58234 -1.01206,2.36127l-0.09536,0.39636c0,0 -0.16193,0.60639 -0.64773,0.40426c-0.4858,-0.20213 -0.32387,-0.80853 -0.32387,-0.80853l0.17775,-0.62635c0.36455,-0.79633 0.67293,-1.61684 1.03626,-2.41141c2.30584,-4.11653 5.17203,-7.24956 7.98178,-10.75213c0.06325,-0.12675 0.15777,-0.1968 0.24293,-0.23553c0.08216,-0.04779 0.1887,-0.08168 0.30524,-0.04786h0.09582c2.21061,0.00531 4.41271,-0.42406 6.62288,-0.42613c0,0 0.44868,0 0.50606,0.52424c0.25131,0.2861 0.09844,0.71547 0.09844,0.71547c-1.59991,4.48215 -5.46327,7.31317 -7.04829,11.80158c-1.31999,2.63687 -3.23958,4.70723 -4.4696,7.39412l-0.36861,0.55599c0,0 -0.32783,0.49105 -0.72122,0.08184c-0.39339,-0.40921 -0.06557,-0.90026 -0.06557,-0.90026z" data-paper-data="{&quot;index&quot;:null}" fill="#000000" stroke="#000000" stroke-width="1"/><path d="M221.49983,180.80638l-0.31416,0.46673c-1.20905,2.64109 -3.10873,4.67383 -4.40643,7.26483c-1.53123,4.26763 -5.11142,7.02856 -6.80064,11.15533c2.02374,-0.05717 4.04303,-0.41331 6.06853,-0.41842c2.73626,-3.39644 5.5209,-6.44031 7.76754,-10.44155c0.3557,-0.77594 0.65548,-1.58234 1.01206,-2.36127l0.09536,-0.39636c0,0 0.16193,-0.60639 0.64773,-0.40426c0.4858,0.20213 0.32387,0.80853 0.32387,0.80853l-0.17775,0.62635c-0.36455,0.79633 -0.67293,1.61684 -1.03626,2.41141c-2.30584,4.11653 -5.17203,7.24956 -7.98178,10.75213c-0.06325,0.12675 -0.15777,0.1968 -0.24293,0.23553c-0.08216,0.04779 -0.1887,0.08167 -0.30524,0.04785h-0.09581c-2.21061,-0.00531 -4.41272,0.42406 -6.62288,0.42613c0,0 -0.44868,0 -0.50606,-0.52424c-0.25131,-0.2861 -0.09844,-0.71547 -0.09844,-0.71547c1.59991,-4.48215 5.46327,-7.31317 7.04829,-11.80158c1.31999,-2.63687 3.23958,-4.70723 4.4696,-7.39412l0.36861,-0.55599c0,0 0.32783,-0.49105 0.72122,-0.08184c0.39339,0.40921 0.06557,0.90026 0.06557,0.90026z" data-paper-data="{&quot;index&quot;:null}" fill="#000000" stroke="#000000" stroke-width="1"/><path d="M229.44752,179.90613c0.39339,-0.40921 0.72122,0.08184 0.72122,0.08184l0.36861,0.55599c1.23002,2.68689 3.14961,4.75725 4.4696,7.39412c1.58501,4.48841 5.44837,7.31942 7.04829,11.80158c0,0 0.15288,0.42937 -0.09844,0.71547c-0.05739,0.52424 -0.50606,0.52424 -0.50606,0.52424c-2.21017,-0.00207 -4.41228,-0.43144 -6.62288,-0.42613h-0.09582c-0.11654,0.03382 -0.22308,-0.00007 -0.30524,-0.04785c-0.08516,-0.03873 -0.17968,-0.10879 -0.24293,-0.23553c-2.80976,-3.50257 -5.67594,-6.6356 -7.98178,-10.75213c-0.36333,-0.79457 -0.67171,-1.61508 -1.03626,-2.41141l-0.17775,-0.62635c0,0 -0.16193,-0.6064 0.32387,-0.80853c0.4858,-0.20213 0.64773,0.40426 0.64773,0.40426l0.09536,0.39636c0.35658,0.77893 0.65636,1.58533 1.01206,2.36127c2.24664,4.00124 5.03128,7.04511 7.76754,10.44155c2.0255,0.00511 4.04479,0.36125 6.06853,0.41842c-1.68922,-4.12677 -5.26941,-6.8877 -6.80064,-11.15533c-1.2977,-2.59099 -3.19738,-4.62375 -4.40643,-7.26483l-0.31416,-0.46673c0,0 -0.32783,-0.49105 0.06557,-0.90026z" data-paper-data="{&quot;index&quot;:null}" fill="#000000" stroke="#000000" stroke-width="1"/><path d="M250.95817,163.93985c-0.04448,-0.07375 -0.07166,-0.17314 -0.06152,-0.30693c0.03636,-0.47981 0.47993,-0.44258 0.47993,-0.44258c3.71463,0.31708 7.46405,0.24255 11.18185,0.63743c1.06194,0.41034 2.19185,1.12467 2.86792,2.14734c0.48083,0.72733 0.36168,1.78294 0.38433,2.63121c0.06758,2.53008 -0.72179,4.38793 -3.14287,5.08083c-1.46487,0.25041 -2.97077,0.11487 -4.44757,0.23084c-1.47598,0.1159 -2.92674,0.65024 -4.42099,0.40781c-1.43235,-0.23238 -2.90588,-0.35543 -2.97609,-2.22785c-0.07291,-2.72958 -0.10211,-5.43648 0.135,-8.15809zM251.83028,164.1913c-0.2184,2.62692 -0.18776,5.2394 -0.11738,7.87466c0.01527,1.2543 1.64814,1.32577 2.64646,1.35013c1.29487,0.03158 2.52173,-0.35578 3.80347,-0.45831c1.43386,-0.11471 2.90645,0.03239 4.3278,-0.21301c2.01581,-0.53763 2.48428,-2.08576 2.43031,-4.10646c-0.01525,-0.57087 0.12682,-1.62107 -0.21695,-2.09741c-0.59278,-0.82135 -1.45598,-1.41969 -2.3429,-1.77366c-3.50557,-0.31496 -7.02913,-0.3146 -10.5308,-0.57593z" fill="#000000" stroke="#000000" stroke-width="1"/><path d="M262.38407,164.74546c0.88691,0.35397 1.75572,0.96481 2.3485,1.78616c0.34378,0.47634 0.2028,1.53588 0.21805,2.10676c0.05397,2.02071 -0.42152,3.59099 -2.43732,4.12862c-1.42135,0.2454 -2.91761,0.11047 -4.35147,0.22518c-1.28174,0.10254 -2.52803,0.48043 -3.8229,0.44885c-0.99832,-0.02435 -2.63778,-0.1066 -2.65305,-1.3609c-0.07039,-2.63526 -0.09952,-5.27942 0.11888,-7.90634c3.50167,0.26134 7.07375,0.25671 10.57933,0.57167z" data-paper-data="{&quot;noHover&quot;:false,&quot;origItem&quot;:[&quot;Path&quot;,{&quot;applyMatrix&quot;:true,&quot;segments&quot;:[[[512.29003,320.06931],[11.77195,1.12433],[-0.97203,7.60474]],[[511.18614,342.92201],[0,-7.65913],[-0.06141,3.6436]],[[519.97935,347.11849],[-3.36069,-0.17491],[4.35896,0.22687]],[[532.83267,346.18472],[-4.3268,0.16394],[4.84033,-0.1834]],[[547.43013,346.01796],[-4.80992,0.56419],[6.83869,-1.35067]],[[555.98614,334.34807],[0,5.87298],[0,-1.65919]],[[555.44404,328.23536],[1.11516,1.41899],[-1.92288,-2.44677]],[[547.7115,322.84079],[2.95575,1.12037],[-11.78029,-1.28044]]],&quot;closed&quot;:true}]}" fill="#000000" stroke="none" stroke-width="0.5"/><path d="M251.27289,193.68862c0.06563,0.48543 0.11083,0.97193 0.11304,1.46086c0,0.89909 0.47718,4.26952 -0.21967,4.89397c-1.08037,0.96812 -5.27669,0.38059 -5.79001,-0.93781c-0.65152,-1.67337 0.43317,-4.02566 0.70353,-5.63543c0.26993,-1.6072 -0.14813,-3.29194 -0.28193,-4.892c-0.12373,-1.37225 -0.04777,-6.38673 1.31953,-7.86406c-0.07385,-0.13474 -0.13608,-0.26575 -0.1837,-0.39223c0,0 -0.26334,-0.70225 0.4389,-0.96559c0.70225,-0.26334 0.96559,0.4389 0.96559,0.4389c0.09345,0.25027 0.20742,0.48505 0.3355,0.70886c0.0896,0.04863 0.18184,0.10649 0.27679,0.17404c3.36779,2.39609 2.43547,8.37594 2.43547,11.83499l0.08337,0.5303c0,0 0.05573,0.39014 -0.19641,0.6452z" fill="#0089cd" stroke="none" stroke-width="0.5"/><path d="M269.83191,170.92125c0.82715,-2.569 0.23012,-6.56242 -1.45718,-8.50515c-1.03133,-1.18745 -3.20942,-1.73109 -4.5619,-2.03811c-3.4589,-0.48337 -7.25659,-0.87411 -10.81215,-0.70113c0.00552,0.02337 0.01108,0.04676 0.01669,0.07016c-2.13292,0.0358 -4.28007,0.18618 -6.3704,0.20873c0,0.52883 0,1.07563 0,1.57953c0,6.95419 0,13.91218 0,20.88048c0,6.08278 -0.47279,11.89745 -1.00714,17.91192c1.25592,-0.12622 2.51776,-0.22744 3.77235,-0.22744h0.06798c0.00019,0 0.00029,0 0.00029,0c0.77381,0 1.54762,0 2.32142,0h0.03348c-0.01775,-5.2674 -0.35954,-10.59607 -0.8834,-15.81979c-0.13846,-1.55545 -0.41128,-3.11641 -0.4132,-4.67717l0.06385,-0.30912c0.00456,-0.19759 0.0816,-0.33118 0.16621,-0.41875c0.0721,-0.093 0.17639,-0.17445 0.32075,-0.17544c1.49559,-0.4156 2.98534,0.08063 4.49308,0.17969c2.90956,0.19115 5.45907,-0.3431 8.25668,-0.9217c1.01343,-0.37919 2.15818,-0.81175 3.08102,-1.47351c1.0472,-0.75092 1.76054,-1.75769 2.24638,-2.91515c0.12327,-0.89776 0.38398,-1.82018 0.66518,-2.64804zM251.42124,158.51162c4.05564,-0.37963 8.50575,0.04559 12.53984,0.60143c1.57384,0.3571 3.92606,1.00178 5.13347,2.39365c1.99688,2.30198 2.65286,6.86609 1.68356,9.90376c-0.13341,0.38373 -0.25852,0.79116 -0.36504,1.20728c0.05144,0.00282 0.10286,0.00537 0.15426,0.00765c-0.11597,0.43888 -0.25202,0.86609 -0.41157,1.27857c-0.01514,0.10946 -0.02829,0.21848 -0.03927,0.32677l-0.22841,0.6812c0,0 -0.12478,0.36343 -0.40705,0.39612c-0.52145,0.88327 -1.19732,1.66362 -2.07287,2.30047c-0.99627,0.72467 -2.23974,1.18345 -3.33704,1.59465c-2.69795,0.56422 -5.10446,0.95575 -7.8995,0.95408c-1.50589,-0.0009 -3.10988,-0.60968 -4.60607,-0.2769c0.02838,1.41616 0.27785,2.83865 0.4035,4.25023c0.54596,5.45967 0.88623,11.02344 0.89113,16.52363c0,0 0,0.31529 -0.1774,0.503c-0.10134,0.14922 -0.2491,0.19788 -0.33468,0.21375c-0.04142,0.00768 -0.06828,0.00768 -0.06828,0.00768c-0.6881,0 -1.75414,0 -2.52595,0c-0.00019,0 -0.00029,0 -0.00029,0h-0.34139c-1.32565,0 -2.65917,0.11454 -3.98583,0.25346c0,0 -0.50351,0.05237 -0.55192,-0.57122c-0.31471,-0.17537 -0.27266,-0.64771 -0.27266,-0.64771c0.53854,-6.05007 1.02103,-11.88372 1.02103,-17.99742c0,-6.96837 0,-13.92614 0,-20.88048c0,-0.71023 0,-1.42043 0,-2.13066v-0.08523c0,0 0,-0.27231 0.14239,-0.46146c0.07576,-0.10064 0.19185,-0.17774 0.36969,-0.17774c1.71651,0 3.47176,-0.09531 5.22978,-0.1574c0.03454,-0.00906 0.05656,-0.01117 0.05656,-0.01117z" fill="#000000" stroke="#000000" stroke-width="1"/></g></g></svg>